<svg xmlns="http://www.w3.org/2000/svg" width="303.6" height="100" viewBox="0 0 303.6 100"><circle cx="50" cy="50" r="50" fill="#231f20"/><path d="M118.4 55V41.7a.9.9 0 0 1 1-1h5.1a4.6 4.6 0 1 1 0 9.1h-4.2V55a1 1 0 0 1-.9 1 1.1 1.1 0 0 1-1-1zm5.9-12.6h-4v5.8h4a2.9 2.9 0 1 0 0-5.8zM142.6 55a1 1 0 0 1-.9 1 1 1 0 0 1-.9-.7l-1.1-2.8h-7.9l-1 2.8a1.1 1.1 0 0 1-.9.7 1 1 0 0 1-1-1 .8.8 0 0 1 .1-.4l5.2-13a1.8 1.8 0 0 1 1.6-1 1.5 1.5 0 0 1 1.5 1l5.2 13a.6.6 0 0 1 .1.4zm-3.6-4.2l-3.2-8.4-3.3 8.4zm16.5 4.7l-8.6-11.9V55a1 1 0 0 1-.9 1 1 1 0 0 1-1-1V41.8a1.3 1.3 0 0 1 1.3-1.2 1.4 1.4 0 0 1 1 .5l8.4 11.6V41.5a.9.9 0 0 1 .9-.9.9.9 0 0 1 1 .9v13.3a1.2 1.2 0 0 1-1.2 1.2 1.1 1.1 0 0 1-.9-.5zm9.4-.5V42.4h-4a.9.9 0 0 1-.9-.9.9.9 0 0 1 .9-.8h10a.9.9 0 0 1 .8.8.9.9 0 0 1-.8.9h-4.1V55a1 1 0 0 1-.9 1 1 1 0 0 1-1-1zm15.5-14.6c4.5 0 7.6 3.4 7.6 7.9s-3.1 7.8-7.6 7.8-7.5-3.3-7.5-7.8 3-7.9 7.5-7.9zm0 1.7c-3.4 0-5.6 2.6-5.6 6.2s2.2 6.2 5.6 6.2 5.6-2.7 5.6-6.2-2.2-6.2-5.6-6.2zm21 13.4l-8.6-11.9V55a1 1 0 0 1-.9 1 1 1 0 0 1-1-1V41.8a1.3 1.3 0 0 1 1.2-1.2 1.4 1.4 0 0 1 1.1.5l8.4 11.6V41.5a.9.9 0 0 1 .9-.9.9.9 0 0 1 1 .9v13.3a1.2 1.2 0 0 1-1.2 1.2 1.1 1.1 0 0 1-.9-.5zm5.6-.6V41.7a.9.9 0 0 1 1-1h8.2a.9.9 0 0 1 .9.8.9.9 0 0 1-.9.9h-7.3v4.9h7.2a.9.9 0 0 1 .8.8.9.9 0 0 1-.8.9h-7.2v5.2h7.3a.9.9 0 0 1 .9.8.9.9 0 0 1-.9.9H208a.9.9 0 0 1-1-1zm18.9 0V41.7a.9.9 0 0 1 1-1h5.7c2.7 0 4.3 1.6 4.3 3.9a3.4 3.4 0 0 1-2.7 3.4 4 4 0 0 1 3 3.8c0 2.4-1.6 4.1-4.4 4.1h-5.9a.9.9 0 0 1-1-1zm6.4-7.6a2.5 2.5 0 1 0 0-4.9h-4.5v4.9zm.1 6.9a2.5 2.5 0 0 0 2.8-2.6 2.5 2.5 0 0 0-2.8-2.6h-4.6v5.2zm7.7.9V41.4a.9.9 0 0 1 .9-.8.9.9 0 0 1 .8.8v13.7a.9.9 0 0 1-.8.9.9.9 0 0 1-.9-.9zm13.7-6.8v6.8a.9.9 0 0 1-.8.9.9.9 0 0 1-.9-.9v-.5a4.6 4.6 0 0 1-3.6 1.5 3.6 3.6 0 0 1-3.9-3.6c0-2.5 2-3.6 3.9-3.6a4.6 4.6 0 0 1 3.6 1.5v-2c0-1.5-1.2-2.3-2.8-2.3a3.7 3.7 0 0 0-2.8 1.1h-.5a.7.7 0 0 1-.7-.7.9.9 0 0 1 .3-.6 6.1 6.1 0 0 1 4-1.4c2.3.1 4.2 1.2 4.2 3.8zm-1.7 5.3v-2.1a3.7 3.7 0 0 0-3-1.4 2.4 2.4 0 1 0 0 4.8 3.7 3.7 0 0 0 3-1.3zm10-9a4.5 4.5 0 0 1 3.5 1.4.9.9 0 0 1 .3.5.8.8 0 0 1-.8.8l-.5-.2a3.3 3.3 0 0 0-2.4-1c-2.4 0-3.8 1.8-3.8 4.3s1.4 4.2 3.8 4.2a3.3 3.3 0 0 0 2.4-1l.5-.2a.9.9 0 0 1 .8.8 1.1 1.1 0 0 1-.3.6 4.8 4.8 0 0 1-3.5 1.3 5.4 5.4 0 0 1-5.5-5.7c0-3.3 2.2-5.8 5.5-5.8zm15.5 10.5a.9.9 0 0 1-.8.9.9.9 0 0 1-.7-.3l-4-4.7-1.9 1.7v2.4a.9.9 0 0 1-.9.9.9.9 0 0 1-.8-.9V41.4a.9.9 0 0 1 .9-.8.9.9 0 0 1 .8.8v9.4l5.9-5.8a.7.7 0 0 1 .6-.2.9.9 0 0 1 .8.8.5.5 0 0 1-.3.5l-3.9 3.8 4.1 4.6a1.4 1.4 0 0 1 .2.6zm7.9-6.8a7.6 7.6 0 0 1 7.8-7.9 7.1 7.1 0 0 1 5.2 2.2 1.4 1.4 0 0 1 .2.7.9.9 0 0 1-.9.8l-.7-.2a4.9 4.9 0 0 0-3.8-1.8c-3.3 0-5.8 2.6-5.8 6.2s2.5 6.2 5.8 6.2a4.9 4.9 0 0 0 3.8-1.8.9.9 0 0 1 .7-.3.9.9 0 0 1 .9.9.8.8 0 0 1-.2.6 6.8 6.8 0 0 1-5.2 2.2 7.6 7.6 0 0 1-7.8-7.8z"/></svg>