<svg xmlns="http://www.w3.org/2000/svg" width="407.3" height="505.3" viewBox="0 0 407.3 505.3"><path fill="#2d2a26" d="M12.3 492.7L.2 462.5a1.9 1.9 0 0 1-.2-.8 2.3 2.3 0 0 1 2.3-2.3 2.2 2.2 0 0 1 2.2 1.4L16 490.1l11.4-29.3a2.2 2.2 0 0 1 2.2-1.4 2.3 2.3 0 0 1 2.3 2.3 1.9 1.9 0 0 1-.2.8l-12.1 30.2a4 4 0 0 1-7.3 0zm29.8-24c7.8 0 12.3 6 12.3 12.7 0 1.3-.8 2-2.3 2H33.7c.3 4.8 3.7 8.9 9.2 8.9a11 11 0 0 0 6.9-2.5l.9-.2a1.7 1.7 0 0 1 1.7 1.6 1.7 1.7 0 0 1-.7 1.3 14.5 14.5 0 0 1-9.1 3.1c-7.6 0-13.1-5.5-13.1-13.5s5.3-13.4 12.6-13.4zm-8.4 11.8h16.8c0-3.8-2.6-8.5-8.4-8.5s-8.2 4.6-8.4 8.5zm37.2 12.7a1.5 1.5 0 0 1-1.1 1.5 7 7 0 0 1-3.6.9c-3.7 0-5.6-2.2-5.6-6v-16.8h-2.7a1.8 1.8 0 0 1-1.8-1.7 1.8 1.8 0 0 1 1.8-1.8h2.7v-5.2a2 2 0 0 1 2-2 2.1 2.1 0 0 1 2 2v5.2h3.6a1.8 1.8 0 0 1 1.8 1.8 1.8 1.8 0 0 1-1.8 1.7h-3.6v15.9c0 1.9.8 3.3 2.5 3.3s1.5-.5 2.1-.5a1.6 1.6 0 0 1 1.7 1.7zm13.5-24.5c7.7 0 12.3 6 12.3 12.7 0 1.3-.9 2-2.4 2H75.9c.4 4.8 3.8 8.9 9.3 8.9a11.2 11.2 0 0 0 6.9-2.5l.9-.2a1.6 1.6 0 0 1 1.6 1.6 1.7 1.7 0 0 1-.7 1.3 14.3 14.3 0 0 1-9.1 3.1c-7.6 0-13-5.5-13-13.5s5.3-13.4 12.6-13.4zm-8.5 11.8h16.8c0-3.8-2.6-8.5-8.4-8.5s-8.1 4.6-8.4 8.5zm38.9-9.7c0 1-.8 1.8-2.2 2a9.1 9.1 0 0 0-6.6 4v16.4a2 2 0 0 1-4 0v-22.1a2 2 0 0 1 4 0v2.4a11 11 0 0 1 5.7-4.3l1.3-.3a1.8 1.8 0 0 1 1.8 1.9zm4-9.3a2.7 2.7 0 0 1 5.4 0 2.7 2.7 0 0 1-5.4 0zm.7 31.7v-22.1a2 2 0 0 1 4 0v22.1a2 2 0 0 1-4 0zm30-16.2v16.2a2 2 0 0 1-4 0v-15c0-4.5-2.3-6-5.7-6a9.9 9.9 0 0 0-7.6 4v17a2 2 0 0 1-1.9 1.9 2 2 0 0 1-2-1.9v-22.1a2 2 0 1 1 3.9 0v2a12.6 12.6 0 0 1 9.1-4.4c5.4 0 8.2 2.7 8.2 8.3zm24.8.3v15.9a2 2 0 0 1-2.1 1.9 2 2 0 0 1-1.9-1.9V492a11 11 0 0 1-8.5 3.6c-4.3 0-9-3-9-8.5s4.7-8.4 9-8.4a11 11 0 0 1 8.5 3.4v-4.6c0-3.4-2.8-5.4-6.5-5.4a9.6 9.6 0 0 0-6.7 2.6 2.4 2.4 0 0 1-1 .3 1.7 1.7 0 0 1-1.7-1.6 2.1 2.1 0 0 1 .7-1.4 13.2 13.2 0 0 1 9.2-3.3c5.4 0 10 2.4 10 8.6zm-4 12.2v-4.8a8.8 8.8 0 0 0-7.1-3.2c-3.7 0-6.3 2.3-6.3 5.6s2.6 5.6 6.3 5.6a8.8 8.8 0 0 0 7.1-3.2zm21.5-18.7c0 1-.8 1.8-2.2 2a9.1 9.1 0 0 0-6.6 4v16.4a2 2 0 0 1-4 0v-22.1a2 2 0 0 1 4 0v2.4a11 11 0 0 1 5.7-4.3l1.3-.3a1.8 1.8 0 0 1 1.8 1.9zm5.2 30.9h.9c1.7 0 2.9-.6 3.8-2.7l1.7-3.9-9.6-23.3a2.4 2.4 0 0 1-.2-.8 1.9 1.9 0 0 1 2-2 2 2 0 0 1 1.8 1.2l8.1 20 8.1-20a1.9 1.9 0 0 1 1.8-1.2 2.1 2.1 0 0 1 1.9 2.8L205.5 500c-1.5 3.7-4.1 5.2-7.5 5.2h-1.2a1.8 1.8 0 0 1-1.7-1.7 1.8 1.8 0 0 1 1.9-1.8zm64.4-8.7v-14.3h-20.7V493a2.2 2.2 0 0 1-4.4 0v-31.5a2.2 2.2 0 0 1 4.4 0v13.3h20.7v-13.3a2.1 2.1 0 0 1 2.2-2.1 2.2 2.2 0 0 1 2.2 2.1V493a2.2 2.2 0 0 1-2.2 2.1 2.1 2.1 0 0 1-2.2-2.1zm8.9-10.9c0-7.4 4.9-13.4 12.7-13.4s12.6 6 12.6 13.4-4.9 13.5-12.6 13.5-12.7-6.1-12.7-13.5zm21.1 0c0-5.2-3-9.9-8.4-9.9s-8.6 4.7-8.6 9.9 3.1 9.9 8.6 9.9 8.4-4.7 8.4-9.9zm6.8 9a1.7 1.7 0 0 1 1.7-1.7 2 2 0 0 1 1.1.3 11.5 11.5 0 0 0 7.2 2.6c4 0 6.1-1.7 6.1-4.2s-3.2-3.7-6.6-4.6-9.3-2.1-9.3-7.4 3.5-7.4 9.6-7.4a13.2 13.2 0 0 1 8.4 2.8 1.7 1.7 0 0 1 .7 1.3 1.8 1.8 0 0 1-1.7 1.7 1.2 1.2 0 0 1-.9-.4 10.4 10.4 0 0 0-6.5-2.2c-3.5 0-5.7 1.6-5.7 3.9s2.9 3.3 6.2 4.1 9.6 2.2 9.6 7.9-3.4 7.8-10 7.8a13.8 13.8 0 0 1-9.2-3.1 1.5 1.5 0 0 1-.7-1.4zm48.3-9c0 8.3-4.7 13.5-11.4 13.5a10.6 10.6 0 0 1-8.6-4.6v11.9a2 2 0 0 1-4 0v-31.8a2 2 0 0 1 4 0v2a10.5 10.5 0 0 1 8.6-4.4c6.7 0 11.4 5.1 11.4 13.4zm-4.2 0c0-5.7-3.1-9.9-8.2-9.9a9.4 9.4 0 0 0-7.6 4.1v11.6a9.4 9.4 0 0 0 7.6 4.1c5.1 0 8.2-4.2 8.2-9.9zm7.8-20.6a2.7 2.7 0 0 1 2.7-2.7 2.8 2.8 0 0 1 2.7 2.7 2.7 2.7 0 0 1-2.7 2.6 2.6 2.6 0 0 1-2.7-2.6zm.7 31.7v-22.1a2 2 0 0 1 4 0v22.1a2 2 0 0 1-4 0zm23 0a1.5 1.5 0 0 1-1 1.5 7 7 0 0 1-3.6.9c-3.8 0-5.7-2.2-5.7-6v-16.8h-2.7a1.8 1.8 0 0 1-1.7-1.7 1.8 1.8 0 0 1 1.7-1.8h2.7v-5.2a2 2 0 0 1 4 0v5.2h3.6a1.8 1.8 0 0 1 1.8 1.8 1.8 1.8 0 0 1-1.8 1.7h-3.6v15.9c0 1.9.8 3.3 2.6 3.3s1.5-.5 2-.5a1.6 1.6 0 0 1 1.7 1.7zm23.4-15.9v15.9a2 2 0 0 1-4 0V492a10.8 10.8 0 0 1-8.4 3.6c-4.4 0-9-3-9-8.5s4.6-8.4 9-8.4 6.4 1.1 8.4 3.4v-4.6c0-3.4-2.7-5.4-6.4-5.4a9.4 9.4 0 0 0-6.7 2.6 2.9 2.9 0 0 1-1.1.3 1.6 1.6 0 0 1-1.6-1.6 1.7 1.7 0 0 1 .7-1.4 13 13 0 0 1 9.2-3.3c5.4 0 9.9 2.4 9.9 8.6zm-4 12.2v-4.8a8.5 8.5 0 0 0-7-3.2c-3.7 0-6.3 2.3-6.3 5.6s2.6 5.6 6.3 5.6a8.5 8.5 0 0 0 7-3.2zm9.8 3.7v-31.9a2 2 0 0 1 2.1-1.9 2 2 0 0 1 1.9 1.9v31.9a2 2 0 0 1-1.9 1.9 2 2 0 0 1-2.1-1.9zm-403-70c0-17.2 12.7-28.9 28.6-28.9 8.7 0 14.9 3.3 19.4 8.2a3.8 3.8 0 0 1 1 2.7 4 4 0 0 1-6.9 2.6 18 18 0 0 0-13.5-6c-11.3 0-20 8.8-20 21.4s8.7 21.4 20 21.4a18.3 18.3 0 0 0 13.6-6 3.3 3.3 0 0 1 2.9-1.4 3.9 3.9 0 0 1 3.9 4 3.4 3.4 0 0 1-1 2.6c-4.6 5-10.7 8.2-19.4 8.2C12.7 452 0 440.3 0 423.2zm89.8-9.2v33.7a3.9 3.9 0 0 1-3.8 3.8 3.8 3.8 0 0 1-3.8-3.8v-2.2a19.4 19.4 0 0 1-14.4 6.5c-8.6 0-12.8-4.3-12.8-12.8V414a3.7 3.7 0 0 1 3.7-3.8 3.9 3.9 0 0 1 3.8 3.8v22.6c0 6.7 3.3 8.7 8.5 8.7a14.4 14.4 0 0 0 11.2-5.6V414a3.8 3.8 0 0 1 3.7-3.8 3.9 3.9 0 0 1 3.9 3.8zm63.5 7.8v25.9a3.8 3.8 0 1 1-7.5 0v-23.6c0-4.7-2.1-7.8-7-7.8s-8.1 2.9-10.1 5.8v25.6a3.7 3.7 0 0 1-3.7 3.8 3.9 3.9 0 0 1-3.8-3.8v-23.6c0-4.7-2-7.8-7.1-7.8s-7.9 2.9-9.9 5.9v25.5a3.8 3.8 0 1 1-7.5 0V414a3.8 3.8 0 1 1 7.5 0v2.3a17.5 17.5 0 0 1 13.1-6.7c6.1 0 9.7 3.2 10.9 7.6a17 17 0 0 1 13.7-7.6c7.4 0 11.4 4.1 11.4 12.2zm45.7 9.1c0 13.2-7.5 21.1-18 21.1a16.4 16.4 0 0 1-13.2-6.7v2.4a3.9 3.9 0 0 1-3.8 3.8 3.7 3.7 0 0 1-3.7-3.8v-49.1a3.7 3.7 0 0 1 3.7-3.8 3.9 3.9 0 0 1 3.8 3.8v17.8a16.4 16.4 0 0 1 13.2-6.8c10.5 0 18 8.3 18 21.3zm-7.8 0c0-8.5-4.7-14.6-12.2-14.6a14 14 0 0 0-11.2 6v17.2c2 3.3 6.6 5.8 11.2 5.8 7.5 0 12.2-6 12.2-14.4zm31.8-21.3c12.1 0 19.7 9.5 19.7 20.1 0 2.3-1.6 3.6-4.5 3.6h-27.5c.6 6.9 5.6 12.6 13.7 12.6a17.6 17.6 0 0 0 10.1-3.3 2.7 2.7 0 0 1 1.6-.4 2.9 2.9 0 0 1 3 3 3 3 0 0 1-1.3 2.5 23.6 23.6 0 0 1-14.1 4.3c-12.1 0-20.9-8.5-20.9-21.2s8.4-21.2 20.2-21.2zm-12.4 18.3h24.7c-.2-5.4-3.8-12.1-12.3-12.1s-12 6.5-12.4 12.1zm57.7-14.3c0 1.7-1.3 3.2-3.9 3.6s-8 2.7-9.8 5.7v24.8a3.8 3.8 0 1 1-7.5 0V414a3.8 3.8 0 1 1 7.5 0v2.8c2.3-3 5.4-5.5 8.4-6.4a6.3 6.3 0 0 1 2.1-.4c2.2 0 3.2 1.6 3.2 3.6zm5.4 34.1v-49.1a3.8 3.8 0 1 1 7.5 0v49.1a3.8 3.8 0 1 1-7.5 0zm46.9-23.9v23.9a3.9 3.9 0 0 1-3.8 3.8 3.8 3.8 0 0 1-3.7-3.8v-1.2c-3.1 3.6-7.8 5.5-13.2 5.5s-14.1-4.5-14.1-13.3 7.3-13.3 14.1-13.3 10.1 1.8 13.2 5.4v-6.7c0-5-4.1-8-9.9-8a15.6 15.6 0 0 0-10 3.5 3.5 3.5 0 0 1-1.8.6 3.1 3.1 0 0 1-3-3.1 3.1 3.1 0 0 1 1.3-2.5 22.6 22.6 0 0 1 14.7-5c8.8 0 16.2 3.9 16.2 14.2zm-7.5 18.4v-6.9c-2.3-3-6.2-4.6-10.4-4.6s-9.3 3.3-9.3 8 3.9 8.1 9.3 8.1 8.1-1.6 10.4-4.6zm49.3-19.5v25a3.8 3.8 0 1 1-7.5 0v-22.5c0-6.7-3.4-8.9-8.6-8.9a14.3 14.3 0 0 0-11.1 5.9v25.5a3.9 3.9 0 0 1-3.8 3.8 3.8 3.8 0 0 1-3.8-3.8V414a3.8 3.8 0 0 1 3.7-3.8 3.9 3.9 0 0 1 3.9 3.8v2.2a20 20 0 0 1 14.3-6.6c8.5 0 12.9 4.5 12.9 13.1zm44.9-24.1v49.1a3.7 3.7 0 0 1-3.7 3.8 3.9 3.9 0 0 1-3.8-3.8v-2.4a16.6 16.6 0 0 1-13.2 6.7c-10.5 0-18.1-7.9-18.1-21.1s7.6-21.3 18.1-21.3a16.4 16.4 0 0 1 13.2 6.9v-17.9a3.9 3.9 0 0 1 3.8-3.8 3.7 3.7 0 0 1 3.7 3.8zm-7.5 40.9v-17.2a13.9 13.9 0 0 0-11.2-6c-7.5 0-12.2 6.1-12.2 14.6s4.7 14.4 12.2 14.4a13.7 13.7 0 0 0 11.2-5.8z"/><path fill="#84142c" d="M267.6 186.5a2.5 2.5 0 0 1 .7-2.6c7.9-7.1 12.1-16.8 10.4-26.5v-.2h-.1c-3.4-17.7-19.2-46.7-21.5-46.3s-8.1 11.4-9.4 20.5a2.3 2.3 0 0 1-2.3 2 53 53 0 0 0-8.8.7 47.8 47.8 0 0 0-8.4 2.5 2.3 2.3 0 0 1-2.9-1.1c-4.4-8-14.2-16.1-16.1-15.7s-6.6 33.1-3.5 50.9h.1v.2c2.1 10.5 10.5 18.5 21.6 21.8a2.6 2.6 0 0 1 1.9 2.9l-8.1 59.2c-.7 4.6-4.6 5.2-6.5.7-12.1-28.2-39.4-59.7-29.3-135.9 2-14.4 19-37.6 20.5-37s-5.9 22.1 1.5 24.8 50.2-24.3 43.2-36.5c-1.7-3.1-13.4-19.3-13.8-27s-10.3-14.8-16-11.4c2.2-5.8-16.3-19.6-32-25.4S150.2-.4 148 5.4c-2.1-6.3-14.3-7.4-19.6-1.8s-24.6 10.7-28.1 11.5c-9.9 2.3 1.6 53.1 9 55.9s15.9-18.4 17.3-17.9 1 6.9.5 13.4a30.7 30.7 0 0 1-7.3 17c-51.9 60.9-59.9 169.3-63.4 248.9a47.8 47.8 0 0 0 47.8 49.9h75.3c-20.5-15.9-51.2-45.6-51.2-79.8 0-29.3 22.3-45.1 43.3-45.1a39 39 0 0 1 27.8 11.2c8 8.1 12.2 19.5 12.2 33.2a7.9 7.9 0 0 1-8 7.9 7.9 7.9 0 0 1-7.9-7.9c0-9.4-2.7-16.9-7.6-21.9a23.1 23.1 0 0 0-16.5-6.5c-13.6 0-27.4 10-27.4 29.1 0 21.1 16.4 41.2 30.2 54.4a194.8 194.8 0 0 0 31.2 24.3l1.4 1.1h29.4a321.4 321.4 0 0 0 34.5-35.5c21.7-26.5 31.8-49.5 29.2-66.7-2.9-19.7-18.6-27.9-32.6-25.8-12 1.8-23.6 11.4-20.4 32.9a8.7 8.7 0 0 1-7.4 10 8.9 8.9 0 0 1-10-7.4c-2.7-18.1 2.7-30 7.7-36.7a41.3 41.3 0 0 1 27.5-16.2c22.1-3.3 48 9.8 52.6 40.6 3.4 22.6-7.8 49.7-33.2 80.6a296 296 0 0 1-22.1 24.2h21.4c37.7 0 65.7 3.9 65.7-65.7 0-82.6-75.6-108.5-81.7-130.1z"/></svg>