<svg xmlns="http://www.w3.org/2000/svg" width="482" height="598" viewBox="0 0 482 598"><rect width="482" height="598" fill="#231f20" rx="24.1" ry="24.1"/><path fill="#fff" d="M50.7 536l-12.2-30.1a2.4 2.4 0 0 1-.2-.9 2.3 2.3 0 0 1 2.4-2.3 2.3 2.3 0 0 1 2.1 1.5l11.5 29.2 11.4-29.2a2.3 2.3 0 0 1 2.2-1.5 2.3 2.3 0 0 1 2.3 2.3 2.4 2.4 0 0 1-.2.9L57.9 536a3.9 3.9 0 0 1-3.6 2.5 3.7 3.7 0 0 1-3.6-2.5zm29.8-24c7.7 0 12.3 6.1 12.3 12.8 0 1.2-.9 2-2.4 2H72c.4 4.8 3.7 8.8 9.3 8.8a10.9 10.9 0 0 0 6.8-2.4 1.5 1.5 0 0 1 .9-.2 1.7 1.7 0 0 1 1.7 1.6 1.7 1.7 0 0 1-.7 1.3 14.8 14.8 0 0 1-9.1 3c-7.6 0-13-5.5-13-13.5S73.2 512 80.5 512zM72 523.9h16.8c0-3.9-2.6-8.6-8.4-8.6s-8.2 4.6-8.4 8.6zm37.2 12.7a1.6 1.6 0 0 1-1 1.5 7.1 7.1 0 0 1-3.6.8c-3.8 0-5.7-2.2-5.7-6v-16.7h-2.7a1.8 1.8 0 0 1-1.7-1.8 1.8 1.8 0 0 1 1.7-1.7h2.7v-5.3a2 2 0 0 1 4 0v5.3h3.6a1.8 1.8 0 0 1 1.8 1.7 1.8 1.8 0 0 1-1.8 1.8h-3.6v15.9c0 1.9.8 3.3 2.6 3.3s1.5-.5 2-.5a1.6 1.6 0 0 1 1.7 1.7zm13.5-24.6c7.7 0 12.3 6.1 12.3 12.8a2 2 0 0 1-2.3 2h-18.4c.3 4.8 3.7 8.8 9.2 8.8a10.9 10.9 0 0 0 6.9-2.4 1.5 1.5 0 0 1 .9-.2 1.6 1.6 0 0 1 1.6 1.6 1.5 1.5 0 0 1-.7 1.3 14.6 14.6 0 0 1-9.1 3c-7.6 0-13-5.5-13-13.5s5.3-13.4 12.6-13.4zm-8.4 11.9h16.8c-.1-3.9-2.6-8.6-8.5-8.6s-8.1 4.6-8.3 8.6zm38.8-9.7a2.1 2.1 0 0 1-2.2 1.9 9.8 9.8 0 0 0-6.6 4v16.4a2 2 0 1 1-3.9 0v-22.1a2 2 0 0 1 1.9-1.9 2 2 0 0 1 2 1.9v2.4a11.4 11.4 0 0 1 5.7-4.3l1.3-.3a1.8 1.8 0 0 1 1.8 2zm4.1-9.4a2.7 2.7 0 1 1 2.6 2.7 2.7 2.7 0 0 1-2.6-2.7zm.6 31.7v-22.1a2 2 0 0 1 2.1-1.9 2 2 0 0 1 1.9 1.9v22.1a2 2 0 0 1-4 0zm30-16.2v16.2a2 2 0 1 1-3.9 0v-15c0-4.5-2.3-5.9-5.8-5.9a9.6 9.6 0 0 0-7.5 4v16.9a2 2 0 0 1-4 0v-22.1a2 2 0 0 1 1.9-1.9 2 2 0 0 1 2.1 1.9v2a12.4 12.4 0 0 1 9.1-4.4c5.3 0 8.1 2.7 8.1 8.3zm24.8.4v15.8a2 2 0 0 1-4 0v-1.1a10.9 10.9 0 0 1-8.5 3.5c-4.3 0-8.9-2.9-8.9-8.5s4.6-8.4 8.9-8.4a10.7 10.7 0 0 1 8.5 3.5v-4.6c0-3.5-2.7-5.4-6.5-5.4a9.3 9.3 0 0 0-6.6 2.5 2 2 0 0 1-1.1.3 1.6 1.6 0 0 1-1.6-1.6 1.6 1.6 0 0 1 .7-1.3 12.9 12.9 0 0 1 9.2-3.4c5.4 0 9.9 2.5 9.9 8.7zm-4 12.2V528a8.4 8.4 0 0 0-7-3.1c-3.7 0-6.3 2.3-6.3 5.6s2.6 5.5 6.3 5.5a8.4 8.4 0 0 0 7-3.1zm21.5-18.7a2.1 2.1 0 0 1-2.1 1.9 9.8 9.8 0 0 0-6.7 4v16.4a2 2 0 1 1-3.9 0v-22.1a2 2 0 0 1 1.9-1.9 2 2 0 0 1 2 1.9v2.4a11.2 11.2 0 0 1 5.8-4.3 7 7 0 0 1 1.2-.3 1.8 1.8 0 0 1 1.8 2zm5.3 30.8h.8c1.8 0 2.9-.6 3.8-2.7l1.7-3.9-9.6-23.3a2.5 2.5 0 0 1-.2-.7 2 2 0 0 1 2-2 1.9 1.9 0 0 1 1.8 1.2l8.2 20 8-20a2.1 2.1 0 0 1 1.9-1.2 2 2 0 0 1 2 2 3.1 3.1 0 0 1-.2.8l-11.7 28.2a7.8 7.8 0 0 1-7.6 5.2 2.3 2.3 0 0 1-1.1-.2 1.8 1.8 0 0 1-1.7-1.7 1.9 1.9 0 0 1 1.9-1.7zm64.3-8.7v-14.2H279v14.2a2.2 2.2 0 0 1-2.1 2.2 2.2 2.2 0 0 1-2.3-2.2v-31.4a2.2 2.2 0 1 1 4.4 0v13.2h20.7v-13.2a2.2 2.2 0 0 1 2.2-2.2 2.2 2.2 0 0 1 2.2 2.2v31.4a2.2 2.2 0 0 1-2.2 2.2 2.2 2.2 0 0 1-2.2-2.2zm8.9-10.9c0-7.4 4.9-13.4 12.7-13.4s12.6 6 12.6 13.4-4.8 13.5-12.6 13.5-12.7-6-12.7-13.5zm21.2 0c0-5.2-3.1-9.8-8.5-9.8s-8.5 4.6-8.5 9.8 3 10 8.5 10 8.5-4.7 8.5-10zm6.7 9.1a1.8 1.8 0 0 1 1.7-1.8 2 2 0 0 1 1.1.3 11.3 11.3 0 0 0 7.3 2.7c3.9 0 6-1.8 6-4.3s-3.1-3.7-6.6-4.5-9.2-2.2-9.2-7.5 3.4-7.4 9.5-7.4a13.5 13.5 0 0 1 8.5 2.8 2.3 2.3 0 0 1 .7 1.4 1.8 1.8 0 0 1-1.7 1.7 2.1 2.1 0 0 1-1-.4 9.8 9.8 0 0 0-6.5-2.2c-3.5 0-5.7 1.6-5.7 3.8s2.9 3.3 6.3 4.1 9.6 2.3 9.6 8-3.5 7.7-10.1 7.7a14.7 14.7 0 0 1-9.2-3 1.9 1.9 0 0 1-.7-1.4zm48.3-9.1c0 8.3-4.6 13.5-11.4 13.5a10.3 10.3 0 0 1-8.6-4.6v12a2 2 0 0 1-4 0v-31.9a2 2 0 0 1 4 0v2.1a10.6 10.6 0 0 1 8.6-4.5c6.8 0 11.4 5.1 11.4 13.4zm-4.2 0c0-5.6-3-9.8-8.2-9.8a9.3 9.3 0 0 0-7.6 4.1v11.5a9.7 9.7 0 0 0 7.6 4.2c5.2 0 8.2-4.3 8.2-10zm7.8-20.6a2.8 2.8 0 0 1 2.7-2.7 2.7 2.7 0 1 1 0 5.4 2.8 2.8 0 0 1-2.7-2.7zm.7 31.7v-22.1a2 2 0 0 1 4 0v22.1a2 2 0 0 1-4 0zm23 .1a1.6 1.6 0 0 1-1 1.5 7.1 7.1 0 0 1-3.6.8c-3.8 0-5.7-2.2-5.7-6v-16.7h-2.7a1.8 1.8 0 0 1-1.7-1.8 1.8 1.8 0 0 1 1.7-1.7h2.7v-5.3a2 2 0 0 1 2.1-1.9 2 2 0 0 1 1.9 1.9v5.3h3.7a1.8 1.8 0 1 1 0 3.5h-3.7v15.9c0 1.9.9 3.3 2.6 3.3s1.5-.5 2-.5a1.6 1.6 0 0 1 1.7 1.7zm23.4-15.9v15.8a2 2 0 1 1-3.9 0v-1.1a10.9 10.9 0 0 1-8.5 3.5c-4.4 0-9-2.9-9-8.5s4.6-8.4 9-8.4a10.7 10.7 0 0 1 8.5 3.5v-4.6c0-3.5-2.8-5.4-6.5-5.4a9.5 9.5 0 0 0-6.7 2.5 1.5 1.5 0 0 1-1 .3 1.7 1.7 0 0 1-1.7-1.6 1.6 1.6 0 0 1 .7-1.3 13.3 13.3 0 0 1 9.2-3.4c5.4 0 9.9 2.5 9.9 8.7zm-3.9 12.2V528a8.8 8.8 0 0 0-7.1-3.1c-3.7 0-6.3 2.3-6.3 5.6s2.6 5.5 6.3 5.5a8.8 8.8 0 0 0 7.1-3.1zm9.8 3.6v-31.8a2 2 0 1 1 3.9 0v31.8a2 2 0 1 1-3.9 0zm-403.1-70c0-17.1 12.8-28.8 28.6-28.8 8.7 0 14.9 3.2 19.5 8.2a3.8 3.8 0 0 1 1 2.6 4 4 0 0 1-4 4 3.7 3.7 0 0 1-3-1.4 18.2 18.2 0 0 0-13.5-6c-11.2 0-19.9 8.9-19.9 21.4s8.7 21.4 19.9 21.4a18.2 18.2 0 0 0 13.6-6 3.8 3.8 0 0 1 2.9-1.3 3.9 3.9 0 0 1 4 3.9 4.3 4.3 0 0 1-1 2.7c-4.6 4.9-10.8 8.2-19.5 8.2-15.8 0-28.6-11.7-28.6-28.9zm89.8-9.2V491a3.9 3.9 0 0 1-3.8 3.8 3.7 3.7 0 0 1-3.7-3.8v-2.1a20.1 20.1 0 0 1-14.4 6.5c-8.6 0-12.9-4.4-12.9-12.9v-25.2a3.8 3.8 0 0 1 7.5 0V480c0 6.7 3.4 8.7 8.5 8.7a14.9 14.9 0 0 0 11.3-5.7v-25.7a3.6 3.6 0 0 1 3.6-3.7 3.8 3.8 0 0 1 3.9 3.7zm63.6 7.9V491a3.9 3.9 0 0 1-3.9 3.8 3.8 3.8 0 0 1-3.7-3.8v-23.6c0-4.6-2.1-7.7-7-7.7s-8.1 2.8-10 5.7V491a3.8 3.8 0 0 1-3.8 3.8 3.9 3.9 0 0 1-3.8-3.8v-23.6c0-4.6-2-7.7-7.1-7.7s-7.8 2.9-9.8 5.8V491a3.9 3.9 0 0 1-3.8 3.8 3.8 3.8 0 0 1-3.8-3.8v-33.7a3.7 3.7 0 0 1 3.7-3.7 3.8 3.8 0 0 1 3.9 3.7v2.4a17.3 17.3 0 0 1 13-6.7c6.1 0 9.7 3.2 11 7.5a16.8 16.8 0 0 1 13.6-7.5c7.4 0 11.5 4.1 11.5 12.2zm45.6 9c0 13.2-7.5 21.2-18 21.2a16.5 16.5 0 0 1-13.2-6.8v2.4a3.8 3.8 0 1 1-7.5 0v-49.1a3.8 3.8 0 0 1 7.5 0v17.9a16.3 16.3 0 0 1 13.2-6.8c10.6 0 18 8.3 18 21.2zm-7.8 0c0-8.4-4.6-14.5-12.2-14.5a13.8 13.8 0 0 0-11.2 6v17.1c2 3.3 6.6 5.9 11.2 5.9 7.6 0 12.2-6 12.2-14.5zm31.8-21.2c12.2 0 19.7 9.4 19.7 20.1 0 2.2-1.6 3.6-4.5 3.6H249c.6 6.8 5.6 12.5 13.7 12.5a17.2 17.2 0 0 0 10.1-3.3 2.9 2.9 0 0 1 1.7-.4 3.1 3.1 0 0 1 3 3 2.7 2.7 0 0 1-1.4 2.5 23 23 0 0 1-14.1 4.4c-12.1 0-20.9-8.5-20.9-21.3s8.4-21.1 20.2-21.1zm-12.4 18.2h24.7c-.1-5.3-3.7-12-12.3-12s-11.9 6.5-12.4 12zm57.8-14.3c0 1.8-1.4 3.3-4 3.6s-8 2.8-9.8 5.8V491a3.8 3.8 0 1 1-7.5 0v-33.7a3.8 3.8 0 0 1 7.5 0v2.9a19.6 19.6 0 0 1 8.4-6.5 10.3 10.3 0 0 1 2.2-.4c2.2 0 3.2 1.7 3.2 3.6zM312 491v-49.1a3.8 3.8 0 0 1 7.5 0V491a3.8 3.8 0 1 1-7.5 0zm46.9-23.9V491a3.8 3.8 0 0 1-3.7 3.8 3.9 3.9 0 0 1-3.8-3.8v-1.1c-3.1 3.6-7.8 5.5-13.2 5.5s-14.1-4.5-14.1-13.4 7.3-13.2 14.1-13.2 10.1 1.7 13.2 5.3v-6.7c0-5-4.1-8-9.9-8a15.6 15.6 0 0 0-9.9 3.5 3.1 3.1 0 0 1-4.9-2.5 2.8 2.8 0 0 1 1.3-2.4 22.6 22.6 0 0 1 14.7-5c8.8 0 16.2 3.8 16.2 14.1zm-7.5 18.4v-6.8c-2.3-3.1-6.2-4.6-10.4-4.6s-9.3 3.2-9.3 8 3.9 8 9.3 8 8.1-1.6 10.4-4.6zm49.4-19.5v25a3.9 3.9 0 0 1-3.9 3.8 3.8 3.8 0 0 1-3.7-3.8v-22.5c0-6.7-3.4-8.8-8.6-8.8a14.4 14.4 0 0 0-11.1 5.8V491a3.9 3.9 0 0 1-3.8 3.8 3.7 3.7 0 0 1-3.7-3.8v-33.7a3.6 3.6 0 0 1 3.6-3.7 3.8 3.8 0 0 1 3.9 3.7v2.3a19.6 19.6 0 0 1 14.3-6.6c8.5 0 13 4.5 13 13zm44.9-24.1V491a3.8 3.8 0 0 1-3.8 3.8 3.9 3.9 0 0 1-3.8-3.8v-2.4a16.5 16.5 0 0 1-13.2 6.8c-10.5 0-18-8-18-21.2s7.5-21.2 18-21.2a16.1 16.1 0 0 1 13.2 6.8v-17.9a3.8 3.8 0 0 1 3.8-3.7 3.7 3.7 0 0 1 3.8 3.7zm-7.6 40.9v-17.2a13.8 13.8 0 0 0-11.2-5.9c-7.5 0-12.2 6.1-12.2 14.5s4.7 14.5 12.2 14.5a13.8 13.8 0 0 0 11.2-5.9zM305.9 229.9a2.5 2.5 0 0 1 .8-2.7c7.8-7 12-16.7 10.3-26.5v-.2h-.1c-3.4-17.7-19.2-46.7-21.5-46.2s-8.1 11.4-9.3 20.4a2.4 2.4 0 0 1-2.4 2 46.9 46.9 0 0 0-17.1 3.2 2.5 2.5 0 0 1-3-1c-4.3-8-14.2-16.1-16-15.8s-6.7 33.2-3.5 50.9v.2c2.1 10.5 10.6 18.5 21.6 21.9a2.6 2.6 0 0 1 1.9 2.9l-8.1 59.2c-.6 4.5-4.5 5.2-6.5.6-12.1-28.1-39.4-59.7-29.2-135.9 1.9-14.3 18.9-37.5 20.4-37s-5.8 22.1 1.5 24.9 50.2-24.3 43.3-36.5c-1.8-3.1-13.5-19.3-13.8-27s-10.3-14.9-16-11.5c2.1-5.8-16.3-19.5-32-25.4s-38.7-7.4-40.9-1.6c-2.1-6.3-14.3-7.4-19.6-1.8s-24.6 10.6-28.1 11.4c-9.8 2.4 1.6 53.2 9 55.9s15.9-18.4 17.4-17.8 1 6.9.4 13.4a30.9 30.9 0 0 1-7.2 17c-52 60.9-60 169.2-63.5 248.8a47.9 47.9 0 0 0 47.8 50h75.3c-20.5-16-51.2-45.6-51.2-79.9 0-29.2 22.3-45 43.4-45a38.9 38.9 0 0 1 27.7 11.2c8 8 12.2 19.5 12.2 33.1a7.9 7.9 0 0 1-7.9 8 8 8 0 0 1-8-8c0-9.3-2.6-16.9-7.6-21.9a22.9 22.9 0 0 0-16.4-6.5c-13.7 0-27.5 10-27.5 29.1 0 21.2 16.4 41.3 30.2 54.4a199.9 199.9 0 0 0 31.2 24.3 7.9 7.9 0 0 1 1.5 1.2h29.3a325.9 325.9 0 0 0 34.5-35.6c21.7-26.4 31.8-49.5 29.2-66.7-2.9-19.6-18.6-27.8-32.6-25.7-11.9 1.7-23.5 11.3-20.3 32.9a8.8 8.8 0 0 1-17.4 2.6c-2.7-18.2 2.7-30 7.6-36.8a41.4 41.4 0 0 1 27.5-16.1c22.1-3.3 48.1 9.8 52.6 40.5 3.4 22.7-7.7 49.8-33.1 80.7-7.8 9.4-15.7 17.7-22.2 24.2h21.4c37.7 0 65.7 3.9 65.7-65.7 0-82.7-75.6-108.5-81.7-130.1z"/></svg>