<svg xmlns="http://www.w3.org/2000/svg" width="299" height="100" viewBox="0 0 299 100"><circle cx="50" cy="50" r="50" fill="#84142c"/><path d="M118.4 55V41.7a.9.9 0 0 1 1-1h5.1a4.6 4.6 0 1 1 0 9.1h-4.2V55a1 1 0 0 1-.9 1 1.1 1.1 0 0 1-1-1zm5.9-12.6h-4v5.8h4a2.9 2.9 0 1 0 0-5.8zM142.6 55a1 1 0 0 1-.9 1 1 1 0 0 1-.9-.7l-1.1-2.8h-7.9l-1 2.8a1.1 1.1 0 0 1-.9.7 1 1 0 0 1-1-1 .8.8 0 0 1 .1-.4l5.2-13a1.8 1.8 0 0 1 1.6-1 1.5 1.5 0 0 1 1.5 1l5.2 13a.6.6 0 0 1 .1.4zm-3.6-4.2l-3.2-8.4-3.3 8.4zm16.5 4.7l-8.6-11.9V55a1 1 0 0 1-.9 1 1 1 0 0 1-1-1V41.8a1.3 1.3 0 0 1 1.3-1.2 1.4 1.4 0 0 1 1 .5l8.4 11.6V41.5a.9.9 0 0 1 .9-.9.9.9 0 0 1 1 .9v13.3a1.2 1.2 0 0 1-1.2 1.2 1.1 1.1 0 0 1-.9-.5zm9.4-.5V42.4h-4a.9.9 0 0 1-.9-.9.9.9 0 0 1 .9-.8h10a.9.9 0 0 1 .8.8.9.9 0 0 1-.8.9h-4.1V55a1 1 0 0 1-.9 1 1 1 0 0 1-1-1zm15.5-14.6c4.5 0 7.6 3.4 7.6 7.9s-3.1 7.8-7.6 7.8-7.5-3.3-7.5-7.8 3-7.9 7.5-7.9zm0 1.7c-3.4 0-5.6 2.6-5.6 6.2s2.2 6.2 5.6 6.2 5.6-2.7 5.6-6.2-2.2-6.2-5.6-6.2zm21 13.4l-8.6-11.9V55a1 1 0 0 1-.9 1 1 1 0 0 1-1-1V41.8a1.3 1.3 0 0 1 1.2-1.2 1.4 1.4 0 0 1 1.1.5l8.4 11.6V41.5a.9.9 0 0 1 .9-.9.9.9 0 0 1 1 .9v13.3a1.2 1.2 0 0 1-1.2 1.2 1.1 1.1 0 0 1-.9-.5zm5.6-.6V41.7a.9.9 0 0 1 1-1h8.2a.9.9 0 0 1 .9.8.9.9 0 0 1-.9.9h-7.3v4.9h7.2a.9.9 0 0 1 .8.8.9.9 0 0 1-.8.9h-7.2v5.2h7.3a.9.9 0 0 1 .9.8.9.9 0 0 1-.9.9H208a.9.9 0 0 1-1-1zm18.1 0a.8.8 0 0 1 .4-.8c5.3-4.1 8.1-6.6 8.1-9.2s-1.6-2.8-3.2-2.8a5 5 0 0 0-3.6 1.5l-.6.2a.9.9 0 0 1-.8-.9.6.6 0 0 1 .3-.6 6.6 6.6 0 0 1 4.7-1.8c2.6 0 5.1 1.4 5.1 4.4s-3.1 5.9-7.3 9.3h6.7a.9.9 0 0 1 .8.8.9.9 0 0 1-.8.9h-8.8a1 1 0 0 1-1-1zm19.2-14.4c4.1 0 5.8 4.1 5.8 7.8s-1.7 7.8-5.8 7.8-5.8-4.1-5.8-7.8 1.6-7.8 5.8-7.8zm0 1.6c-2.9 0-3.9 3.2-3.9 6.2s1 6.2 3.9 6.2 3.9-3.2 3.9-6.2-1-6.2-3.9-6.2zm7.9 12.8a.9.9 0 0 1 .5-.8c5.2-4.1 8.1-6.6 8.1-9.2s-1.6-2.8-3.2-2.8a5 5 0 0 0-3.6 1.5l-.6.2a.8.8 0 0 1-.8-.9.6.6 0 0 1 .3-.6 6.6 6.6 0 0 1 4.7-1.8c2.5 0 5.1 1.4 5.1 4.4s-3.1 5.9-7.4 9.3h6.7a.9.9 0 0 1 .9.8.9.9 0 0 1-.9.9h-8.8a1.1 1.1 0 0 1-1-1zm19.3-6.6a7.6 7.6 0 0 1 7.8-7.9 7.1 7.1 0 0 1 5.2 2.2.8.8 0 0 1 .2.7.9.9 0 0 1-.9.8.8.8 0 0 1-.6-.2 5.3 5.3 0 0 0-3.9-1.8c-3.3 0-5.8 2.6-5.8 6.2s2.5 6.2 5.8 6.2a5.3 5.3 0 0 0 3.9-1.8.6.6 0 0 1 .6-.3.9.9 0 0 1 .9.9c0 .3 0 .5-.2.6a6.6 6.6 0 0 1-5.2 2.2 7.6 7.6 0 0 1-7.8-7.8zm15.9 6.7V41.7a.9.9 0 0 1 1-1h5.1a4.6 4.6 0 1 1 0 9.1h-4.2V55a1 1 0 0 1-.9 1 1 1 0 0 1-1-1zm5.9-12.6h-4v5.8h4a2.9 2.9 0 1 0 0-5.8z"/></svg>