<svg xmlns="http://www.w3.org/2000/svg" width="3.1in" height="1.6in" viewBox="0 0 222.8 118.1"><title>Artboard 8ff</title><g id="Notes"><line x1="184.1" y1="101.5" x2="184.1" y2="64.1" fill="none" stroke="#be9c57" stroke-linecap="round" stroke-linejoin="round"/><polygon points="184.1 43.2 173.1 87.8 195.2 87.9 184.1 43.2" fill="none" stroke="#be9c57" stroke-linecap="round" stroke-linejoin="round"/><line x1="188.2" y1="67.4" x2="184.1" y2="71.7" fill="none" stroke="#be9c57" stroke-linecap="round" stroke-linejoin="round"/><line x1="179.3" y1="73.9" x2="184.1" y2="76.6" fill="none" stroke="#be9c57" stroke-linecap="round" stroke-linejoin="round"/><circle cx="188.1" cy="76.4" r="1.1" fill="#fff" stroke="#be9c57" stroke-linecap="round" stroke-linejoin="round"/><circle cx="183.7" cy="52.3" r="1.1" fill="#fff" stroke="#be9c57" stroke-linecap="round" stroke-linejoin="round"/><circle cx="182.6" cy="65.7" r="1.1" fill="#fff" stroke="#be9c57" stroke-linecap="round" stroke-linejoin="round"/><circle cx="188.1" cy="59" r="1.1" fill="#fff" stroke="#be9c57" stroke-linecap="round" stroke-linejoin="round"/><circle cx="177.2" cy="82.2" r="1.1" fill="#fff" stroke="#be9c57" stroke-linecap="round" stroke-linejoin="round"/><circle cx="191.2" cy="83.9" r="1.1" fill="#fff" stroke="#be9c57" stroke-linecap="round" stroke-linejoin="round"/><polygon points="112.7 65.2 112.4 69.3 108.8 71.4 112.7 72.9 113.6 77 116.3 73.8 120.4 74.2 118.2 70.7 119.8 66.8 115.8 67.9 112.7 65.2" fill="none" stroke="#be9c57" stroke-linecap="round" stroke-linejoin="round"/><circle cx="26.5" cy="85.1" r="1.2" fill="none" stroke="#be9c57" stroke-linecap="round" stroke-linejoin="round"/><circle cx="78.2" cy="70.5" r="1.2" fill="none" stroke="#be9c57" stroke-linecap="round" stroke-linejoin="round"/><circle cx="40.7" cy="64.1" r="1.2" fill="none" stroke="#be9c57" stroke-linecap="round" stroke-linejoin="round"/><circle cx="146.8" cy="73.9" r="1.2" fill="none" stroke="#be9c57" stroke-linecap="round" stroke-linejoin="round"/><circle cx="148.1" cy="97.4" r="1.2" fill="none" stroke="#be9c57" stroke-linecap="round" stroke-linejoin="round"/><circle cx="99.5" cy="86.8" r="1.2" fill="none" stroke="#be9c57" stroke-linecap="round" stroke-linejoin="round"/><circle cx="201.8" cy="64.7" r="1.2" fill="none" stroke="#be9c57" stroke-linecap="round" stroke-linejoin="round"/><path d="M144.6,85.7a13.3,13.3,0,0,0,17.6,6.8,10.6,10.6,0,0,0,5.5-14.1A8.6,8.6,0,0,0,156.4,74a6.9,6.9,0,0,0-3.5,9.1,5.5,5.5,0,0,0,7.2,2.8,4.5,4.5,0,0,0,2.3-5.8,3.6,3.6,0,0,0-4.7-1.8,2.8,2.8,0,0,0-1.4,3.7" fill="none" stroke="#be9c57" stroke-linecap="round" stroke-linejoin="round"/><path d="M131.6,89.5a3.1,3.1,0,0,0,3.6,2.6,3.9,3.9,0,0,0,3.3-4.5,4.8,4.8,0,0,0-5.7-4.1,6.2,6.2,0,0,0-5.2,7.1,7.9,7.9,0,0,0,9,6.4,9.5,9.5,0,0,0,8-11.2" fill="none" stroke="#be9c57" stroke-linecap="round" stroke-linejoin="round"/><path d="M120.8,93c-1.2-1.3.2-5,.9-5.6-1.8-.1-6.5-2-6.8-5.1a8.7,8.7,0,0,1-7.1-2.9" fill="none" stroke="#be9c57" stroke-linecap="round" stroke-linejoin="round"/><path d="M107.8,79.4a8.3,8.3,0,0,1,2.4,7.1c3.1.5,4.9,5.3,4.9,7.2.7-.7,4.5-2,5.7-.7Z" fill="none" stroke="#be9c57" stroke-linecap="round" stroke-linejoin="round"/><path d="M120.8,93c1.8,2.1,8.3,6.1,16.6,3.9" fill="none" stroke="#be9c57" stroke-linecap="round" stroke-linejoin="round"/><path d="M159.5,68a5.1,5.1,0,0,0,3.8-.2,5.4,5.4,0,0,0-2.4-2.9,5,5,0,0,0-3.8.2A5.4,5.4,0,0,0,159.5,68Z" fill="none" stroke="#be9c57" stroke-linecap="round" stroke-linejoin="round"/><path d="M168.6,83.5c1.3-7.9-1.2-14-5.3-15.7" fill="none" stroke="#be9c57" stroke-linecap="round" stroke-linejoin="round"/><path d="M129.9,84.7a4.6,4.6,0,0,0,1.5-6.4,3.7,3.7,0,0,0-5.1-1.3,3,3,0,0,0-1,4.1,2.3,2.3,0,0,0,3.3.8,1.8,1.8,0,0,0,.6-2.6" fill="none" stroke="#be9c57" stroke-linecap="round" stroke-linejoin="round"/><line x1="209.4" y1="27.4" x2="209.4" y2="88.8" fill="none" stroke="#be9c57" stroke-linecap="round" stroke-linejoin="round"/><polyline points="194.2 102 41.9 102 15.4 93.7 15.4 23.4 41.9 15 194.2 15" fill="none" stroke="#be9c57" stroke-linecap="round" stroke-linejoin="round"/><path d="M209.4,88.8c-8.4,0-15.2,6.4-15.2,13.2" fill="none" stroke="#be9c57" stroke-linecap="round" stroke-linejoin="round"/><path d="M194.2,15c0,6.9,6.8,12.4,15.2,12.4" fill="none" stroke="#be9c57" stroke-linecap="round" stroke-linejoin="round"/><path d="M48.8,37.5c0,.2,0,.3-.1.4H47.5c-.2,0-.4,0-.4-.1s-.1-.2-.1-.4V30.4H45.6c-.1-.1-.1-.2-.1-.4v-.7c0-.2,0-.4.1-.4h4.6a1,1,0,0,1,.1.4v.7c0,.2-.1.3-.1.4H48.8Z" fill="#be9c57"/><path d="M55.9,29.2A4,4,0,0,1,57,31.1a7.5,7.5,0,0,1,.3,2.3,5.5,5.5,0,0,1-.9,3.4,3.2,3.2,0,0,1-1,1,3.7,3.7,0,0,1-1.4.4,2.9,2.9,0,0,1-1.9-.8c-.9-.7-1.4-2.1-1.4-4.1a11.2,11.2,0,0,1,.2-2,3.5,3.5,0,0,1,.7-1.5,2.2,2.2,0,0,1,1-.9,2.3,2.3,0,0,1,1.4-.4A3.4,3.4,0,0,1,55.9,29.2Zm-2.8,1.6a5.4,5.4,0,0,0-.4,2.5,4.4,4.4,0,0,0,.5,2.6,1,1,0,0,0,.8.5c.4,0,.7-.3,1-.8a6.7,6.7,0,0,0,.3-2.3,5.4,5.4,0,0,0-.5-2.6,1,1,0,0,0-.8-.5A1,1,0,0,0,53.1,30.8Z" fill="#be9c57"/><path d="M48.1,51.4h1.6a1,1,0,0,1,.1.4v.7a2,2,0,0,1-.1.5H48.1v3.3c0,.2-.1.3-.1.4H46.3c0-.1-.1-.2-.1-.4V48.2a1,1,0,0,1,.1-.4h3.6a1,1,0,0,1,.1.4v.7c0,.2-.1.3-.1.4H48.1Z" fill="#be9c57"/><path d="M56.3,56.4a.4.4,0,0,1,.1.3l-.2.3H54.6l-.2-.3L53,52.7v3.8c0,.2-.1.3-.1.4H51.2c-.1-.1-.1-.2-.1-.4V48.2c0-.2,0-.4.1-.4h1.9a3.5,3.5,0,0,1,2,.4,2.4,2.4,0,0,1,.9,1.1,2.5,2.5,0,0,1,.2,1.2,3.2,3.2,0,0,1-.3,1.4,3.1,3.1,0,0,1-1,1Zm-3-4.7a1.1,1.1,0,0,0,.8-.3,1.7,1.7,0,0,0,.3-1c0-.6-.1-1-.5-1.2H53v2.6Z" fill="#be9c57"/><path d="M62.5,48.2a4,4,0,0,1,1.1,1.9,7.5,7.5,0,0,1,.3,2.3,5.5,5.5,0,0,1-.9,3.4,2.4,2.4,0,0,1-1,1,3.3,3.3,0,0,1-1.4.4,2.9,2.9,0,0,1-1.9-.8c-.9-.7-1.4-2.1-1.4-4.1a11.2,11.2,0,0,1,.2-2,5.2,5.2,0,0,1,.7-1.5,2.9,2.9,0,0,1,1-.9,2.5,2.5,0,0,1,1.4-.4A3.4,3.4,0,0,1,62.5,48.2Zm-2.8,1.6a5.4,5.4,0,0,0-.4,2.5,5.4,5.4,0,0,0,.5,2.6,1,1,0,0,0,.8.5,1.1,1.1,0,0,0,1-.8,6.7,6.7,0,0,0,.3-2.3,4.4,4.4,0,0,0-.5-2.6,1,1,0,0,0-.8-.5A1.2,1.2,0,0,0,59.7,49.8Z" fill="#be9c57"/><path d="M69.6,48.2c.1-.3.1-.4.2-.5h2.3c.1.1.1.2.1.5l.9,8.2v.3c0,.1,0,.2-.1.2H71.3a1,1,0,0,1-.1-.4l-.4-6.2-.3,2.1-.7,4.1c-.1.2-.1.4-.2.4s-.2.1-.4.1h-.9a.6.6,0,0,1-.1-.4l-.8-3.7a17.1,17.1,0,0,1-.3-2.5l-.3,6.2a1,1,0,0,1-.1.4H64.9v-.5l.8-8.2c0-.3,0-.4.1-.4H68c0,.1.1.2.1.4l.8,5.1Z" fill="#be9c57"/><path d="M81.3,89.4c1.7.8,1.7,5.1,1.3,5.9,1.8-.6,7.1-.6,8.6,2.3a9.6,9.6,0,0,1,8.1.1" fill="none" stroke="#be9c57" stroke-linecap="round" stroke-linejoin="round"/><path d="M99.3,97.7a8.5,8.5,0,0,1-5.1-6c-3.3.7-6.9-3.3-7.6-5.1-.4.9-3.6,3.6-5.3,2.8Z" fill="none" stroke="#be9c57" stroke-linecap="round" stroke-linejoin="round"/><path d="M81.3,89.4c-4-1.6-9.7-4.2-14.8-1.4" fill="none" stroke="#be9c57" stroke-linecap="round" stroke-linejoin="round"/><path d="M95.2,81.4c-4.5,1.5-8.6,2.8-10-1.5s2.6-5.6,7.2-7.1c2.1-.7,2.9-4.3,3.6-4.6s2.8,5.3,3.3,7.1,2.4,7.4,1.6,7.7S97.3,80.7,95.2,81.4Z" fill="none" stroke="#be9c57" stroke-linecap="round" stroke-linejoin="round"/><path d="M94.1,71.4c.7,1.2,3.3,8.8,3.3,10.2" fill="none" stroke="#be9c57" stroke-linecap="round" stroke-linejoin="round"/><path d="M91.7,73a57.4,57.4,0,0,1,2.8,8.6" fill="none" stroke="#be9c57" stroke-linecap="round" stroke-linejoin="round"/><path d="M85.7,81.2a1.5,1.5,0,0,1-2-.8,1.6,1.6,0,0,1,1.1-1.8" fill="none" stroke="#be9c57" stroke-linecap="round" stroke-linejoin="round"/><path d="M48.3,90.5A15.7,15.7,0,0,1,54.2,69a12.6,12.6,0,0,1,17.2,4.6,10.1,10.1,0,0,1-3.8,13.8,8.1,8.1,0,0,1-11-3A6.5,6.5,0,0,1,59,75.6a5.2,5.2,0,0,1,7.1,1.9,4.3,4.3,0,0,1-1.6,5.7A3.3,3.3,0,0,1,60,81.9" fill="none" stroke="#be9c57" stroke-linecap="round" stroke-linejoin="round"/><path d="M47.1,87.9a7.2,7.2,0,0,0-9.7-3.3,5.8,5.8,0,0,0-2.7,7.8,4.6,4.6,0,0,0,6.2,2.1,3.7,3.7,0,0,0,1.7-5,2.9,2.9,0,0,0-4-1.3,2.4,2.4,0,0,0-1.1,3.1" fill="none" stroke="#be9c57" stroke-linecap="round" stroke-linejoin="round"/><path d="M72,75a9,9,0,0,0,11.6,5.4" fill="none" stroke="#be9c57" stroke-linecap="round" stroke-linejoin="round"/><path d="M38.1,76A5.1,5.1,0,0,1,35,78.2a5.4,5.4,0,0,1,.2-3.8,5.3,5.3,0,0,1,3.1-2.1A5.2,5.2,0,0,1,38.1,76Z" fill="none" stroke="#be9c57" stroke-linecap="round" stroke-linejoin="round"/><path d="M60.7,67.5c-11.3-1.4-21.2,2.6-22.5,4.9" fill="none" stroke="#be9c57" stroke-linecap="round" stroke-linejoin="round"/><polygon points="220 4.5 41 4.5 6 15.5 6 100.5 41 111.5 220 111.5 220 4.5" fill="none" stroke="#be9c57" stroke-linecap="round" stroke-linejoin="round" stroke-width="3"/><circle cx="24.9" cy="55.9" r="4.2" fill="none" stroke="#be9c57" stroke-linecap="round" stroke-linejoin="round"/></g></svg>