<svg xmlns="http://www.w3.org/2000/svg" width="4.5in" height="3.2in" viewBox="0 0 324.1 230.8"><title>Artboard 7ff</title><g id="Notes"><path d="M26.9,22.1h5V54.6H50.4V59H26.9Z" fill="#7f7f7f"/><path d="M71.5,32.8a10.6,10.6,0,0,1,4,3.5,12.6,12.6,0,0,1,1.8,4.8,28.1,28.1,0,0,1,.4,5.9H58.2a12,12,0,0,0,1.9,6.6A6.4,6.4,0,0,0,65.6,56a6.9,6.9,0,0,0,5.6-2.3,7.6,7.6,0,0,0,1.7-3.2h4.4a9.8,9.8,0,0,1-1.1,3.3,12.3,12.3,0,0,1-2.2,3,9.7,9.7,0,0,1-5.1,2.7,14,14,0,0,1-3.7.4,11.2,11.2,0,0,1-8.4-3.6c-2.3-2.5-3.5-5.9-3.5-10.2a15.7,15.7,0,0,1,3.5-10.6,11.7,11.7,0,0,1,9.1-4A13.9,13.9,0,0,1,71.5,32.8Zm1.6,10.6a11.4,11.4,0,0,0-1.3-4.7,6.4,6.4,0,0,0-6.1-3.3,6.8,6.8,0,0,0-5.2,2.3,8.6,8.6,0,0,0-2.2,5.7Z" fill="#7f7f7f"/><path d="M98.4,33.2a14.8,14.8,0,0,1,2.6,2.5V32.4h4.1V56.8a18.3,18.3,0,0,1-1.5,8.1c-1.8,3.6-5.4,5.4-10.5,5.4a12.8,12.8,0,0,1-7.3-1.9,7.4,7.4,0,0,1-3.3-6.1h4.6a4.9,4.9,0,0,0,1.3,2.8q1.5,1.5,4.8,1.5c3.4,0,5.7-1.2,6.7-3.7s.9-4,.9-7.7a8.9,8.9,0,0,1-3.3,3.1,10.1,10.1,0,0,1-5,1,10.6,10.6,0,0,1-7.6-3.1Q81.6,53.1,81.6,46c0-4.5,1.1-8.1,3.3-10.6a10.4,10.4,0,0,1,8-3.8A9.4,9.4,0,0,1,98.4,33.2Zm.5,4.8a6.9,6.9,0,0,0-11.7,2.1,18.1,18.1,0,0,0-.9,6.2q0,4.7,1.8,6.9a5.9,5.9,0,0,0,5,2.4,7,7,0,0,0,6.8-4.4,14.6,14.6,0,0,0,1.1-5.8C101,42.1,100.3,39.6,98.9,38Z" fill="#7f7f7f"/><path d="M128.6,32.8a10.9,10.9,0,0,1,4.1,3.5,12.6,12.6,0,0,1,1.8,4.8,37.4,37.4,0,0,1,.4,5.9H115.3a12,12,0,0,0,1.9,6.6,6.6,6.6,0,0,0,5.6,2.4,7,7,0,0,0,5.6-2.3,7.4,7.4,0,0,0,1.6-3.2h4.5a8.3,8.3,0,0,1-1.2,3.3,10.1,10.1,0,0,1-2.2,3,9.4,9.4,0,0,1-5.1,2.7,13.2,13.2,0,0,1-3.6.4,11.4,11.4,0,0,1-8.5-3.6c-2.3-2.5-3.4-5.9-3.4-10.2s1.1-7.9,3.5-10.6a11.6,11.6,0,0,1,9.1-4A13.4,13.4,0,0,1,128.6,32.8Zm1.6,10.6a11.4,11.4,0,0,0-1.3-4.7c-1.2-2.2-3.2-3.3-6.1-3.3a6.8,6.8,0,0,0-5.2,2.3,8.6,8.6,0,0,0-2.2,5.7Z" fill="#7f7f7f"/><path d="M140.6,32.1h4.3v3.8a11.4,11.4,0,0,1,4-3.4,10.4,10.4,0,0,1,4.7-1c3.9,0,6.4,1.3,7.8,4a14.3,14.3,0,0,1,1.1,6.2V59h-4.6V42a10.5,10.5,0,0,0-.7-3.9,4.4,4.4,0,0,0-4.4-2.5,8.8,8.8,0,0,0-2.6.3,6.7,6.7,0,0,0-3.3,2.2,7.3,7.3,0,0,0-1.5,2.7,21.5,21.5,0,0,0-.3,4.1V59h-4.5Z" fill="#7f7f7f"/><path d="M183.9,32.9a11.3,11.3,0,0,1,2.7,2.7V22H191V59h-4.1V55.2a9.1,9.1,0,0,1-3.7,3.6,9.8,9.8,0,0,1-4.9,1.1,10,10,0,0,1-7.8-3.7,15,15,0,0,1-3.3-10.1,17.5,17.5,0,0,1,3-10.2,10.7,10.7,0,0,1,13.7-3ZM173.8,53.1a6.5,6.5,0,0,0,5.9,2.9,6,6,0,0,0,5.1-2.7,13.1,13.1,0,0,0,2-7.7c0-3.4-.7-6-2.1-7.6a6.3,6.3,0,0,0-5.1-2.4,6.6,6.6,0,0,0-5.5,2.6c-1.4,1.7-2.1,4.3-2.1,7.7A13.7,13.7,0,0,0,173.8,53.1Z" fill="#7f7f7f"/><path d="M24.5,150.2h5.3a5,5,0,0,1,4.2,1.9,7.3,7.3,0,0,1,1.3,4.5,10,10,0,0,1-.7,3.9,5,5,0,0,1-4.8,3H24.5Zm4.9,11.7a3.4,3.4,0,0,0,1.5-.2,2.7,2.7,0,0,0,1.7-1.3,5.1,5.1,0,0,0,.8-2.1c0-.5.1-.9.1-1.4a6.1,6.1,0,0,0-1-3.8,3.4,3.4,0,0,0-3.1-1.4H26.3v10.2Z" fill="#7f7f7f"/><path d="M37.6,150.2h1.6V152H37.6Zm0,3.6h1.6v9.7H37.6Z" fill="#7f7f7f"/><path d="M47.7,154a3.9,3.9,0,0,1,1.5,1.3,4.9,4.9,0,0,1,.6,1.7,10.6,10.6,0,0,1,.2,2.1H42.9a4.3,4.3,0,0,0,.7,2.4,2.3,2.3,0,0,0,2,.9,2.6,2.6,0,0,0,2-.8,2.7,2.7,0,0,0,.6-1.2h1.6a1.9,1.9,0,0,1-.4,1.2,3.1,3.1,0,0,1-.8,1.1,4,4,0,0,1-1.8,1H45.5a4.2,4.2,0,0,1-3.1-1.3,5.3,5.3,0,0,1-1.2-3.7,5.8,5.8,0,0,1,1.2-3.8,4.3,4.3,0,0,1,3.3-1.5A4.6,4.6,0,0,1,47.7,154Zm.6,3.8a3.4,3.4,0,0,0-.5-1.6,2.2,2.2,0,0,0-2.2-1.2,2.2,2.2,0,0,0-1.8.8,2.4,2.4,0,0,0-.8,2Z" fill="#7f7f7f"/><path d="M66.9,151.1a4.8,4.8,0,0,1,1.5,3.1H66.6a4.2,4.2,0,0,0-1.1-2.1,3.7,3.7,0,0,0-2.5-.7,3.9,3.9,0,0,0-3.1,1.3,6.7,6.7,0,0,0-1.2,4.3,5.7,5.7,0,0,0,1.1,3.8,3.5,3.5,0,0,0,3.2,1.4,3.4,3.4,0,0,0,3-1.5,7.1,7.1,0,0,0,.8-2.1h1.7a5.4,5.4,0,0,1-1.5,3.5,5.4,5.4,0,0,1-4.3,1.7,5.1,5.1,0,0,1-3.8-1.4q-2.1-1.8-2.1-5.7a7.2,7.2,0,0,1,1.6-4.9,5.7,5.7,0,0,1,4.6-2A5.6,5.6,0,0,1,66.9,151.1Z" fill="#7f7f7f"/><path d="M72.3,153.8v6.4a2.2,2.2,0,0,0,.2,1.2,1.6,1.6,0,0,0,1.6.9,2.2,2.2,0,0,0,2.2-1.5,5,5,0,0,0,.4-2.3v-4.7h1.6v9.7H76.8V162a3.9,3.9,0,0,1-.8,1,3.2,3.2,0,0,1-2.2.7,2.9,2.9,0,0,1-2.8-1.3,4,4,0,0,1-.4-2v-6.6Z" fill="#7f7f7f"/><path d="M81.3,151.1H83v2.7h1.5v1.3H83v6.3c0,.4.1.6.3.7h1.2v1.3H83.3a2.2,2.2,0,0,1-1.6-.5,2.5,2.5,0,0,1-.4-1.6v-6.4H80v-1.3h1.3Z" fill="#7f7f7f"/><path d="M24.6,192.2h9.2v1.6H26.4v4h6.5v1.6H26.4v6.1H24.6Z" fill="#7f7f7f"/><path d="M42.6,196.7a5.4,5.4,0,0,1,1.3,3.7,6.1,6.1,0,0,1-1.2,3.9,4,4,0,0,1-3.5,1.5,4.1,4.1,0,0,1-3.2-1.3,5.3,5.3,0,0,1-1.1-3.7,6.1,6.1,0,0,1,1.2-3.9,4.2,4.2,0,0,1,3.3-1.4A4.5,4.5,0,0,1,42.6,196.7Zm-1.1,6.5a6,6,0,0,0,.6-2.7,5.3,5.3,0,0,0-.4-2.3,2.4,2.4,0,0,0-2.3-1.3,2.5,2.5,0,0,0-2.2,1.1,6.1,6.1,0,0,0-.7,2.8,5.3,5.3,0,0,0,.7,2.6,2.4,2.4,0,0,0,2.1,1A2.2,2.2,0,0,0,41.5,203.2Z" fill="#7f7f7f"/><path d="M45.9,192.2h1.6v13.3H45.9Z" fill="#7f7f7f"/><path d="M55.3,196.1c.3.1.6.5,1,.9v-4.9h1.6v13.4H56.4v-1.4a3.2,3.2,0,0,1-1.3,1.3,3.7,3.7,0,0,1-1.8.4,3.5,3.5,0,0,1-2.8-1.3,5.5,5.5,0,0,1-1.2-3.7,6.7,6.7,0,0,1,1.1-3.7,3.5,3.5,0,0,1,3.1-1.5A2.7,2.7,0,0,1,55.3,196.1Zm-3.6,7.3a2.2,2.2,0,0,0,2.1,1,2,2,0,0,0,1.8-1,4.4,4.4,0,0,0,.8-2.8,4.1,4.1,0,0,0-.8-2.7,2.3,2.3,0,0,0-1.8-.9,2.3,2.3,0,0,0-2,1,4.1,4.1,0,0,0-.8,2.7A4.7,4.7,0,0,0,51.7,203.4Z" fill="#7f7f7f"/><line x1="26.4" y1="144.8" x2="295.7" y2="144.8" fill="none" stroke="#be9c57" stroke-linecap="round" stroke-linejoin="round"/><path d="M24.5,111.5h5.3a5,5,0,0,1,4.2,1.9,7.3,7.3,0,0,1,1.3,4.5,10,10,0,0,1-.7,3.9,5,5,0,0,1-4.8,3H24.5Zm4.9,11.7h1.5a3.3,3.3,0,0,0,1.7-1.4,5.1,5.1,0,0,0,.8-2.1c0-.5.1-.9.1-1.4a6.1,6.1,0,0,0-1-3.8,3.4,3.4,0,0,0-3.1-1.4H26.3v10.2Z" fill="#7f7f7f"/><path d="M37.6,111.5h1.6v1.8H37.6Zm0,3.6h1.6v9.7H37.6Z" fill="#7f7f7f"/><path d="M47.7,115.3a3.9,3.9,0,0,1,1.5,1.3,4.9,4.9,0,0,1,.6,1.7,10.6,10.6,0,0,1,.2,2.1H42.9a4.3,4.3,0,0,0,.7,2.4,2.3,2.3,0,0,0,2,.9,2.6,2.6,0,0,0,2-.8,2.7,2.7,0,0,0,.6-1.2h1.6a1.9,1.9,0,0,1-.4,1.2,3.1,3.1,0,0,1-.8,1.1,4,4,0,0,1-1.8,1H45.5a4.2,4.2,0,0,1-3.1-1.3,5.3,5.3,0,0,1-1.2-3.7,6,6,0,0,1,1.2-3.8,4.3,4.3,0,0,1,3.3-1.5A4.6,4.6,0,0,1,47.7,115.3Zm.6,3.9a3.4,3.4,0,0,0-.5-1.7,2.2,2.2,0,0,0-2.2-1.2,2.2,2.2,0,0,0-1.8.8,2.5,2.5,0,0,0-.8,2.1Z" fill="#7f7f7f"/><path d="M57.4,111.5h1.8v11.7h6.7v1.6H57.4Z" fill="#7f7f7f"/><path d="M67.6,111.5h1.6v1.8H67.6Zm0,3.6h1.6v9.7H67.6Z" fill="#7f7f7f"/><path d="M71.7,115.1h1.5v1.3a7.9,7.9,0,0,1,1.5-1.2,4.7,4.7,0,0,1,1.7-.4,2.8,2.8,0,0,1,2.8,1.5,4.7,4.7,0,0,1,.4,2.3v6.2H77.9v-6.1a3.4,3.4,0,0,0-.2-1.5,1.6,1.6,0,0,0-1.6-.9h-1a2.8,2.8,0,0,0-1.1.8,3.7,3.7,0,0,0-.6,1c0,.4-.1.9-.1,1.5v5.1H71.7Z" fill="#7f7f7f"/><path d="M88,115.3a3.9,3.9,0,0,1,1.5,1.3,4.9,4.9,0,0,1,.6,1.7,10.6,10.6,0,0,1,.2,2.1H83.2a4.3,4.3,0,0,0,.7,2.4,2.3,2.3,0,0,0,2,.9,2.6,2.6,0,0,0,2-.8,2.7,2.7,0,0,0,.6-1.2h1.6a1.9,1.9,0,0,1-.4,1.2,3.1,3.1,0,0,1-.8,1.1,4,4,0,0,1-1.8,1H85.8a4.2,4.2,0,0,1-3.1-1.3,5.3,5.3,0,0,1-1.2-3.7,6,6,0,0,1,1.2-3.8,4.3,4.3,0,0,1,3.3-1.5A4.6,4.6,0,0,1,88,115.3Zm.6,3.9a3.4,3.4,0,0,0-.5-1.7,2.2,2.2,0,0,0-2.2-1.2,2.2,2.2,0,0,0-1.8.8,2.9,2.9,0,0,0-.9,2.1Z" fill="#7f7f7f"/><line x1="26.4" y1="106.1" x2="295.7" y2="106.1" fill="none" stroke="#be9c57" stroke-linecap="round" stroke-linejoin="round" stroke-width="3"/><line x1="26.4" y1="186.8" x2="295.7" y2="186.8" fill="none" stroke="#be9c57" stroke-linecap="round" stroke-linejoin="round" stroke-dasharray="6 4"/><rect x="5.1" y="2.8" width="314" height="225.33" fill="none" stroke="#7f7f7f" stroke-linecap="round" stroke-linejoin="round"/></g></svg>