<svg xmlns="http://www.w3.org/2000/svg" width="6.5in" height="6.6in" viewBox="0 0 471.1 471.6"><title>Artboard 3 copyff</title><g id="Notes"><polyline points="117.9 123 117.9 119.5 121.4 119.5" fill="none" stroke="#be9c57" stroke-linecap="round" stroke-linejoin="round" stroke-width="1.16"/><line x1="126.1" y1="119.5" x2="346.4" y2="119.5" fill="none" stroke="#be9c57" stroke-linecap="round" stroke-linejoin="round" stroke-width="1.16" stroke-dasharray="7.03 4.69"/><polyline points="348.7 119.5 352.2 119.5 352.2 123" fill="none" stroke="#be9c57" stroke-linecap="round" stroke-linejoin="round" stroke-width="1.16"/><line x1="352.2" y1="127.7" x2="352.2" y2="348.2" fill="none" stroke="#be9c57" stroke-linecap="round" stroke-linejoin="round" stroke-width="1.16" stroke-dasharray="7.04 4.69"/><polyline points="352.2 350.5 352.2 354 348.7 354" fill="none" stroke="#be9c57" stroke-linecap="round" stroke-linejoin="round" stroke-width="1.16"/><line x1="344" y1="354" x2="123.7" y2="354" fill="none" stroke="#be9c57" stroke-linecap="round" stroke-linejoin="round" stroke-width="1.16" stroke-dasharray="7.03 4.69"/><polyline points="121.3 354 117.9 354 117.9 350.5" fill="none" stroke="#be9c57" stroke-linecap="round" stroke-linejoin="round" stroke-width="1.16"/><line x1="117.9" y1="345.8" x2="117.9" y2="125.3" fill="none" stroke="#be9c57" stroke-linecap="round" stroke-linejoin="round" stroke-width="1.16" stroke-dasharray="7.04 4.69"/><polyline points="352.3 119.5 352.3 57.9 347.7 5.7 122.5 5.7 117.9 57.9 117.9 119.5" fill="none" stroke="#be9c57" stroke-linecap="round" stroke-linejoin="round" stroke-width="3.49"/><line x1="352.3" y1="57.9" x2="348.8" y2="57.9" fill="none" stroke="#be9c57" stroke-linecap="round" stroke-linejoin="round" stroke-width="1.16"/><line x1="344.1" y1="57.9" x2="123.7" y2="57.9" fill="none" stroke="#be9c57" stroke-linecap="round" stroke-linejoin="round" stroke-width="1.16" stroke-dasharray="7.04 4.69"/><line x1="121.3" y1="57.9" x2="117.9" y2="57.9" fill="none" stroke="#be9c57" stroke-linecap="round" stroke-linejoin="round" stroke-width="1.16"/><polyline points="117.9 354 117.9 415.6 122.5 467.8 347.7 467.8 352.3 415.7 352.3 354" fill="none" stroke="#be9c57" stroke-linecap="round" stroke-linejoin="round" stroke-width="3.49"/><line x1="117.9" y1="415.6" x2="121.3" y2="415.6" fill="none" stroke="#be9c57" stroke-linecap="round" stroke-linejoin="round" stroke-width="1.16"/><line x1="126" y1="415.6" x2="346.5" y2="415.6" fill="none" stroke="#be9c57" stroke-linecap="round" stroke-linejoin="round" stroke-width="1.16" stroke-dasharray="7.04 4.69"/><line x1="348.8" y1="415.6" x2="352.3" y2="415.6" fill="none" stroke="#be9c57" stroke-linecap="round" stroke-linejoin="round" stroke-width="1.16"/><polyline points="56.1 119.5 4 124.2 4 349.4 56.2 354" fill="none" stroke="#be9c57" stroke-linecap="round" stroke-linejoin="round" stroke-width="3.49"/><line x1="56.2" y1="119.5" x2="56.2" y2="123" fill="none" stroke="#be9c57" stroke-linecap="round" stroke-linejoin="round" stroke-width="1.16"/><line x1="56.2" y1="127.7" x2="56.2" y2="348.2" fill="none" stroke="#be9c57" stroke-linecap="round" stroke-linejoin="round" stroke-width="1.16" stroke-dasharray="7.04 4.69"/><polyline points="56.2 350.5 56.2 354 59.7 354" fill="none" stroke="#be9c57" stroke-linecap="round" stroke-linejoin="round" stroke-width="1.16"/><line x1="64.7" y1="354" x2="111.9" y2="354" fill="none" stroke="#be9c57" stroke-linecap="round" stroke-linejoin="round" stroke-width="1.16" stroke-dasharray="7.46 4.97"/><line x1="114.4" y1="354" x2="117.9" y2="354" fill="none" stroke="#be9c57" stroke-linecap="round" stroke-linejoin="round" stroke-width="1.16"/><polyline points="56.2 354 60.8 384.8 113.3 384.8 117.9 354" fill="none" stroke="#be9c57" stroke-linecap="round" stroke-linejoin="round" stroke-width="3.49"/><polyline points="56.1 119.5 60.8 88.7 113.3 88.7 117.9 119.5" fill="none" stroke="#be9c57" stroke-linecap="round" stroke-linejoin="round" stroke-width="3.49"/><line x1="56.1" y1="119.5" x2="117.9" y2="119.5" fill="none" stroke="#be9c57" stroke-linecap="round" stroke-linejoin="round" stroke-width="1.16" stroke-dasharray="6.98 4.65"/><polyline points="414 354.1 466.1 349.3 466.1 124.2 414 119.5" fill="none" stroke="#be9c57" stroke-linecap="round" stroke-linejoin="round" stroke-width="3.49"/><line x1="413.9" y1="354.1" x2="413.9" y2="350.6" fill="none" stroke="#be9c57" stroke-linecap="round" stroke-linejoin="round" stroke-width="1.16"/><line x1="413.9" y1="345.9" x2="413.9" y2="125.4" fill="none" stroke="#be9c57" stroke-linecap="round" stroke-linejoin="round" stroke-width="1.16" stroke-dasharray="7.04 4.69"/><polyline points="413.9 123 413.9 119.5 410.5 119.5" fill="none" stroke="#be9c57" stroke-linecap="round" stroke-linejoin="round" stroke-width="1.16"/><line x1="405.5" y1="119.5" x2="358.3" y2="119.5" fill="none" stroke="#be9c57" stroke-linecap="round" stroke-linejoin="round" stroke-width="1.16" stroke-dasharray="7.46 4.97"/><line x1="355.8" y1="119.5" x2="352.3" y2="119.5" fill="none" stroke="#be9c57" stroke-linecap="round" stroke-linejoin="round" stroke-width="1.16"/><polyline points="414 119.5 409.3 88.8 356.8 88.8 352.3 119.6" fill="none" stroke="#be9c57" stroke-linecap="round" stroke-linejoin="round" stroke-width="3.49"/><polyline points="414 354.1 409.3 384.8 356.9 384.8 352.2 354.1" fill="none" stroke="#be9c57" stroke-linecap="round" stroke-linejoin="round" stroke-width="3.49"/><line x1="414" y1="354.1" x2="352.2" y2="354.1" fill="none" stroke="#be9c57" stroke-linecap="round" stroke-linejoin="round" stroke-width="1.16" stroke-dasharray="6.98 4.65"/><path d="M215,27.4a3.9,3.9,0,0,1,1.8,2.7h-1.4a2.9,2.9,0,0,0-1-1.6,3.6,3.6,0,0,0-1.9-.5,3,3,0,0,0-2.3,1.1,4.6,4.6,0,0,0-.9,3.1,4.5,4.5,0,0,0,.8,2.9,2.8,2.8,0,0,0,2.5,1.1,3.5,3.5,0,0,0,2.2-.8,4.1,4.1,0,0,0,.9-2.5h-3.2V31.7h4.4v5.4H216l-.3-1.3a4,4,0,0,1-1.2,1.1,4.8,4.8,0,0,1-2.2.5,4.1,4.1,0,0,1-3-1.2,5.7,5.7,0,0,1-1.4-4,5.8,5.8,0,0,1,1.3-4,4.5,4.5,0,0,1,3.3-1.4A4.9,4.9,0,0,1,215,27.4Z" fill="#6b6b6b"/><path d="M219,27.1h1.2v10H219Z" fill="#6b6b6b"/><path d="M223.3,29.8v4.8a3,3,0,0,0,.2,1,1.2,1.2,0,0,0,1.2.6,1.8,1.8,0,0,0,1.7-1.1,7.2,7.2,0,0,0,.2-1.7V29.8h1.2v7.3h-1.1V36l-.6.7a2.4,2.4,0,0,1-1.7.6,2.1,2.1,0,0,1-2-1,3.3,3.3,0,0,1-.3-1.5v-5Z" fill="#6b6b6b"/><path d="M234.4,30a4.8,4.8,0,0,1,1.1.9,5,5,0,0,1,.5,1.3c0,.4.1.9.1,1.6h-5.4a3,3,0,0,0,.6,1.8,1.6,1.6,0,0,0,1.5.7,2,2,0,0,0,1.5-.6,4.1,4.1,0,0,0,.5-.9H236a3.6,3.6,0,0,1-.4.9,1.6,1.6,0,0,1-.6.8,2.1,2.1,0,0,1-1.3.7l-1,.2a3.3,3.3,0,0,1-2.3-1,3.7,3.7,0,0,1-1-2.8,4.1,4.1,0,0,1,1-2.9,3.1,3.1,0,0,1,2.5-1.1A4.2,4.2,0,0,1,234.4,30Zm.4,2.9a8.6,8.6,0,0,0-.3-1.3,1.9,1.9,0,0,0-1.7-.9,1.8,1.8,0,0,0-1.4.6,2.1,2.1,0,0,0-.6,1.6Z" fill="#6b6b6b"/><path d="M248.7,27.1v1.2h-3.4v8.8h-1.4V28.3h-3.3V27.1Z" fill="#6b6b6b"/><path d="M252.1,32.7a.9.9,0,0,0,.6-.4c.1-.1.1-.2.1-.4a1.1,1.1,0,0,0-.5-1,2.2,2.2,0,0,0-1.2-.2c-.7,0-1.1.1-1.4.5l-.3.8h-1.1a2.3,2.3,0,0,1,.8-1.9,4.6,4.6,0,0,1,2-.5,4.1,4.1,0,0,1,2.1.5,1.6,1.6,0,0,1,.8,1.5v4.2c0,.2,0,.3.1.3s.1.2.3.2h.4v.9h-.9a1.1,1.1,0,0,1-.9-.5,6.4,6.4,0,0,1-.2-.7c-.2.4-.6.6-1.1.9a3.3,3.3,0,0,1-1.5.3,2.5,2.5,0,0,1-1.7-.6,2,2,0,0,1-.6-1.5,2.1,2.1,0,0,1,.6-1.6,2.9,2.9,0,0,1,1.7-.7ZM249.6,36a1.2,1.2,0,0,0,.9.3,2.7,2.7,0,0,0,1.2-.3,1.7,1.7,0,0,0,1.1-1.6v-1l-.6.2-.7.2h-.8l-1,.2a1.3,1.3,0,0,0-.5,1.1A.9.9,0,0,0,249.6,36Z" fill="#6b6b6b"/><path d="M255.9,27h1.2v3.7a2.5,2.5,0,0,1,1-.8,2.1,2.1,0,0,1,1.2-.3,2.9,2.9,0,0,1,2.2.9,4.1,4.1,0,0,1,.8,2.8,4.5,4.5,0,0,1-.8,2.9,2.8,2.8,0,0,1-2.3,1.1,2,2,0,0,1-1.4-.4c-.3-.1-.5-.4-.8-.7v.9h-1.1Zm4.7,8.5a4.6,4.6,0,0,0,.5-2.1,3.6,3.6,0,0,0-.5-1.9,1.6,1.6,0,0,0-1.5-.8,2,2,0,0,0-1.4.6,2.5,2.5,0,0,0-.7,2.1,3.5,3.5,0,0,0,.3,1.6,1.7,1.7,0,0,0,1.8,1.2A1.6,1.6,0,0,0,260.6,35.5Z" fill="#6b6b6b"/><path d="M215,436.7a3.9,3.9,0,0,1,1.8,2.7h-1.4a2.9,2.9,0,0,0-1-1.6,3.6,3.6,0,0,0-1.9-.5,3,3,0,0,0-2.3,1.1,4.6,4.6,0,0,0-.9,3.1,4.5,4.5,0,0,0,.8,2.9,2.8,2.8,0,0,0,2.5,1.1,3,3,0,0,0,2.2-.8,3.9,3.9,0,0,0,.9-2.5h-3.2v-1.1h4.4v5.3H216l-.3-1.3a4,4,0,0,1-1.2,1.1,4.8,4.8,0,0,1-2.2.5,4.1,4.1,0,0,1-3-1.2,5.5,5.5,0,0,1-1.4-3.9,5.7,5.7,0,0,1,1.3-4,4.3,4.3,0,0,1,3.3-1.5A4.9,4.9,0,0,1,215,436.7Z" fill="#6b6b6b"/><path d="M219,436.4h1.2v10H219Z" fill="#6b6b6b"/><path d="M223.3,439.1V444a2.9,2.9,0,0,0,.2.9,1.2,1.2,0,0,0,1.2.6,1.8,1.8,0,0,0,1.7-1.1,7.2,7.2,0,0,0,.2-1.7v-3.6h1.2v7.3h-1.1v-1.1a2.2,2.2,0,0,1-.6.7,2.4,2.4,0,0,1-1.7.6c-1,0-1.7-.3-2-1a3.3,3.3,0,0,1-.3-1.5v-5Z" fill="#6b6b6b"/><path d="M234.4,439.3a5.2,5.2,0,0,1,1.1,1,3.9,3.9,0,0,1,.5,1.3c0,.3.1.8.1,1.6h-5.4a2.9,2.9,0,0,0,.6,1.7,1.6,1.6,0,0,0,1.5.7,2,2,0,0,0,1.5-.6,2.6,2.6,0,0,0,.5-.9H236a3.6,3.6,0,0,1-.4.9,1.2,1.2,0,0,1-.6.8,2.9,2.9,0,0,1-1.3.8h-1a3.3,3.3,0,0,1-2.3-1,4.4,4.4,0,0,1,0-5.6,2.8,2.8,0,0,1,2.5-1.1A4,4,0,0,1,234.4,439.3Zm.4,2.9a13,13,0,0,0-.3-1.3,1.9,1.9,0,0,0-1.7-.9,1.8,1.8,0,0,0-1.4.6,2.3,2.3,0,0,0-.6,1.6Z" fill="#6b6b6b"/><path d="M248.7,436.4v1.2h-3.4v8.8h-1.4v-8.8h-3.3v-1.2Z" fill="#6b6b6b"/><path d="M252.1,442a.7.7,0,0,0,.6-.4c.1-.1.1-.2.1-.4a.9.9,0,0,0-.5-.9,2.1,2.1,0,0,0-1.2-.3c-.7,0-1.1.1-1.4.5a4.6,4.6,0,0,0-.3.9h-1.1a2.1,2.1,0,0,1,.8-1.9,3.6,3.6,0,0,1,2-.6,4.1,4.1,0,0,1,2.1.5,1.9,1.9,0,0,1,.8,1.6v4.2a.4.4,0,0,0,.1.3h.7v1h-.9a1.1,1.1,0,0,1-.9-.5c-.1-.1-.1-.4-.2-.6a2.4,2.4,0,0,1-1.1.8,3.3,3.3,0,0,1-1.5.4,2.2,2.2,0,0,1-1.7-.7,2,2,0,0,1-.6-1.5,2.1,2.1,0,0,1,.6-1.6,3.8,3.8,0,0,1,1.7-.7Zm-2.5,3.3a1.2,1.2,0,0,0,.9.3,2.7,2.7,0,0,0,1.2-.3,1.7,1.7,0,0,0,1.1-1.6v-1l-.6.2-.7.2h-.8a1.7,1.7,0,0,0-1,.3,1.1,1.1,0,0,0-.5,1A.9.9,0,0,0,249.6,445.3Z" fill="#6b6b6b"/><path d="M255.9,436.4h1.2V440a3.9,3.9,0,0,1,1-.8,2.1,2.1,0,0,1,1.2-.3,2.7,2.7,0,0,1,2.2,1,3.6,3.6,0,0,1,.8,2.7,4.5,4.5,0,0,1-.8,2.9,2.6,2.6,0,0,1-2.3,1.1,2,2,0,0,1-1.4-.4c-.3-.1-.5-.4-.8-.7v.9h-1.1Zm4.7,8.4a4.3,4.3,0,0,0,.5-2.1,3.6,3.6,0,0,0-.5-1.9,1.6,1.6,0,0,0-1.5-.8,2,2,0,0,0-1.4.6,2.7,2.7,0,0,0-.7,2.1,4.3,4.3,0,0,0,.3,1.7,1.7,1.7,0,0,0,1.8,1.2A1.6,1.6,0,0,0,260.6,444.8Z" fill="#6b6b6b"/><path d="M442,215.3a3.4,3.4,0,0,1-2.7,1.8v-1.3a2.9,2.9,0,0,0,1.6-1,3.6,3.6,0,0,0,.5-1.9,3,3,0,0,0-1.1-2.3,4.6,4.6,0,0,0-3.1-.9,5.2,5.2,0,0,0-2.9.7,3.2,3.2,0,0,0-1.1,2.6,3.5,3.5,0,0,0,.8,2.2,3.6,3.6,0,0,0,2.5.8v-3.1h1.2v4.4h-5.4v-.9l1.3-.3a4,4,0,0,1-1.1-1.2,4.8,4.8,0,0,1-.5-2.2,4.1,4.1,0,0,1,1.2-3,5.1,5.1,0,0,1,3.9-1.4,5.9,5.9,0,0,1,4.1,1.3,4.5,4.5,0,0,1,1.4,3.3A4.3,4.3,0,0,1,442,215.3Z" fill="#6b6b6b"/><path d="M442.3,219.4v1.2h-10v-1.2Z" fill="#6b6b6b"/><path d="M439.6,223.7h-4.9l-.9.2a1.2,1.2,0,0,0-.6,1.2,1.8,1.8,0,0,0,1.1,1.7l1.7.2h3.6v1.2h-7.3v-1.1h1.1l-.7-.6a2.5,2.5,0,0,1-.6-1.7,2.2,2.2,0,0,1,1-2.1,3.3,3.3,0,0,1,1.5-.3h5Z" fill="#6b6b6b"/><path d="M439.4,234.7a3.8,3.8,0,0,1-.9,1.2,2.8,2.8,0,0,1-1.3.4l-1.6.2v-5.4a3,3,0,0,0-1.8.6,1.6,1.6,0,0,0-.7,1.5,2,2,0,0,0,.6,1.5,1.8,1.8,0,0,0,.9.4v1.2l-.9-.3a1.6,1.6,0,0,1-.8-.6,2.9,2.9,0,0,1-.8-1.3c0-.3-.1-.7-.1-1a3.3,3.3,0,0,1,1-2.3,3.7,3.7,0,0,1,2.8-1,4.1,4.1,0,0,1,2.9,1,3.1,3.1,0,0,1,1.1,2.5A3.3,3.3,0,0,1,439.4,234.7Zm-2.9.5a3.3,3.3,0,0,0,1.3-.4,1.6,1.6,0,0,0,.9-1.6,1.7,1.7,0,0,0-.6-1.4,2.1,2.1,0,0,0-1.6-.6Z" fill="#6b6b6b"/><path d="M442.3,249.1h-1.2v-3.4h-8.8v-1.4h8.8V241h1.2Z" fill="#6b6b6b"/><path d="M436.7,252.5a.7.7,0,0,0,.4.6h.4a1.1,1.1,0,0,0,1-.5,3.7,3.7,0,0,0,.2-1.2c0-.7-.1-1.1-.5-1.4s-.5-.2-.8-.3v-1.1a1.9,1.9,0,0,1,1.8.8,3.4,3.4,0,0,1,.6,2,4.6,4.6,0,0,1-.5,2.1,1.8,1.8,0,0,1-1.5.8h-4.6a.4.4,0,0,0-.1.3v.4h-.9a1.1,1.1,0,0,1-.1-.5c-.1-.1-.1-.2-.1-.4a1.1,1.1,0,0,1,.5-.9l.7-.2c-.4-.2-.6-.6-.9-1.1a3.7,3.7,0,0,1-.4-1.5,2.6,2.6,0,0,1,.7-1.7,2,2,0,0,1,1.5-.6,2.1,2.1,0,0,1,1.6.6,2.9,2.9,0,0,1,.7,1.7Zm-3.3-2.6a1.7,1.7,0,0,0-.3,1,2.7,2.7,0,0,0,.3,1.2,1.6,1.6,0,0,0,1.6,1h1a.8.8,0,0,1-.2-.5,6.4,6.4,0,0,0-.2-.7v-.8a3,3,0,0,0-.2-1,1.2,1.2,0,0,0-1.1-.5A1.1,1.1,0,0,0,433.4,249.9Z" fill="#6b6b6b"/><path d="M442.3,256.3v1.2h-3.6a2.3,2.3,0,0,1,.8.9,2.8,2.8,0,0,1,.3,1.3,2.9,2.9,0,0,1-.9,2.2,4.7,4.7,0,0,1-2.8.8,4.5,4.5,0,0,1-2.9-.8,2.6,2.6,0,0,1-1.1-2.3,2.4,2.4,0,0,1,.4-1.5,4.5,4.5,0,0,1,.7-.7h-.9v-1.1Zm-8.4,4.7a4.6,4.6,0,0,0,2.1.5,3.6,3.6,0,0,0,1.9-.5,1.8,1.8,0,0,0,.8-1.5,2.4,2.4,0,0,0-.6-1.5,2.9,2.9,0,0,0-2.1-.6,3.5,3.5,0,0,0-1.6.3,1.7,1.7,0,0,0-1.3,1.8A1.9,1.9,0,0,0,433.9,261Z" fill="#6b6b6b"/><path d="M20.4,251.5a3.4,3.4,0,0,1,2.7-1.8V251a2.9,2.9,0,0,0-1.6,1,3.8,3.8,0,0,0-.5,1.9,3,3,0,0,0,1.1,2.3,4.1,4.1,0,0,0,3.1,1,5.2,5.2,0,0,0,2.9-.8,3,3,0,0,0,1.1-2.5,3.3,3.3,0,0,0-.8-2.2,3.2,3.2,0,0,0-2.5-.9v3.1H24.7v-4.4h5.4v.9l-1.3.3,1.1,1.2a5.2,5.2,0,0,1,.5,2.3,4.4,4.4,0,0,1-1.2,3,5.5,5.5,0,0,1-3.9,1.4,6,6,0,0,1-4.1-1.4,4.2,4.2,0,0,1-1.4-3.3A4.8,4.8,0,0,1,20.4,251.5Z" fill="#6b6b6b"/><path d="M20.1,247.4v-1.2h10v1.2Z" fill="#6b6b6b"/><path d="M22.8,243.1h5.8a1.2,1.2,0,0,0,.6-1.2,1.7,1.7,0,0,0-1.1-1.7,4,4,0,0,0-1.7-.3H22.8v-1.2h7.3v1.2H29a1.8,1.8,0,0,1,.7.5,2.7,2.7,0,0,1,.6,1.7,2.2,2.2,0,0,1-1,2.1,3.3,3.3,0,0,1-1.5.3h-5Z" fill="#6b6b6b"/><path d="M23,232.1a2.5,2.5,0,0,1,.9-1.1,2.9,2.9,0,0,1,1.3-.5h1.6v5.3a3,3,0,0,0,1.8-.5,1.6,1.6,0,0,0,.7-1.5,2.1,2.1,0,0,0-.6-1.6l-.9-.4v-1.2a1.6,1.6,0,0,1,.9.3l.8.6a3.2,3.2,0,0,1,.8,1.4c0,.3.1.6.1,1a3.4,3.4,0,0,1-1,2.3,4.1,4.1,0,0,1-2.8.9,4.6,4.6,0,0,1-2.9-.9,3.4,3.4,0,0,1-1.1-2.5A4.2,4.2,0,0,1,23,232.1Zm2.9-.4a2.3,2.3,0,0,0-1.3.3,1.8,1.8,0,0,0-.9,1.7,2,2,0,0,0,.6,1.4,2.1,2.1,0,0,0,1.6.6Z" fill="#6b6b6b"/><path d="M20.1,217.8h1.2v3.3h8.8v1.4H21.3v3.4H20.1Z" fill="#6b6b6b"/><path d="M25.7,214.3a.7.7,0,0,0-.4-.6h-.4a1.1,1.1,0,0,0-1,.4,3.9,3.9,0,0,0-.2,1.3c0,.6.1,1.1.5,1.3a1.1,1.1,0,0,0,.8.3v1.2a1.8,1.8,0,0,1-1.8-.9,3.3,3.3,0,0,1-.6-1.9,4.1,4.1,0,0,1,.5-2.1,1.6,1.6,0,0,1,1.5-.8h4.6v-.7h.9a.6.6,0,0,1,.1.4c.1.1.1.2.1.4a1.1,1.1,0,0,1-.5.9l-.7.2a3.3,3.3,0,0,1,.9,1.1,4.2,4.2,0,0,1,.4,1.6,2.4,2.4,0,0,1-.7,1.6,2.1,2.1,0,0,1-1.5.7,1.9,1.9,0,0,1-1.6-.7,2.6,2.6,0,0,1-.7-1.6Zm3.3,2.6a1.6,1.6,0,0,0,.3-.9,2.8,2.8,0,0,0-.3-1.3,1.6,1.6,0,0,0-1.6-1h-1a.8.8,0,0,1,.2.6,6.4,6.4,0,0,1,.2.7v.7a2.2,2.2,0,0,0,.2,1,1.3,1.3,0,0,0,1.1.6A1.2,1.2,0,0,0,29,216.9Z" fill="#6b6b6b"/><path d="M20.1,210.6v-1.2h3.6a2.5,2.5,0,0,1-.8-1,2.7,2.7,0,0,1-.3-1.2,2.6,2.6,0,0,1,1-2.2,3.7,3.7,0,0,1,2.7-.9,5.2,5.2,0,0,1,2.9.8,2.8,2.8,0,0,1,1.1,2.4,2.4,2.4,0,0,1-1.1,2.1h.9v1.2Zm8.4-4.7a3.6,3.6,0,0,0-2.1-.5,2.9,2.9,0,0,0-1.9.5,1.6,1.6,0,0,0-.8,1.4,2,2,0,0,0,.6,1.5,2.9,2.9,0,0,0,2.1.6l1.6-.2a1.9,1.9,0,0,0,1.3-1.8A1.6,1.6,0,0,0,28.5,205.9Z" fill="#6b6b6b"/><path d="M70.8,103.4a3,3,0,0,1,1.5,2.3H71.2a2.8,2.8,0,0,0-.9-1.4,3.3,3.3,0,0,0-1.5-.4,2.3,2.3,0,0,0-1.9.9,3.4,3.4,0,0,0-.8,2.6,4.5,4.5,0,0,0,.6,2.4,2.3,2.3,0,0,0,2.1.9,2.4,2.4,0,0,0,1.8-.7,2.9,2.9,0,0,0,.8-2.1H68.8V107h3.6v4.4h-.7l-.3-1a3.1,3.1,0,0,1-1,.8,3.5,3.5,0,0,1-1.8.5,3.7,3.7,0,0,1-2.5-1,4.5,4.5,0,0,1-1.2-3.3,4.9,4.9,0,0,1,1.1-3.3,3.6,3.6,0,0,1,2.8-1.2A4.6,4.6,0,0,1,70.8,103.4Z" fill="#6b6b6b"/><path d="M74.1,103.1h1.1v8.3H74.1Z" fill="#6b6b6b"/><path d="M77.7,105.4v4a1.9,1.9,0,0,0,.1.8,1.1,1.1,0,0,0,1,.5,1.3,1.3,0,0,0,1.4-.9,3,3,0,0,0,.2-1.4v-3h1.1v6h-1v-.8a1.2,1.2,0,0,1-.5.5,2.1,2.1,0,0,1-3.1-.4,2.2,2.2,0,0,1-.2-1.2v-4.1Z" fill="#6b6b6b"/><path d="M86.9,105.6a2.2,2.2,0,0,1,.9.7,3.6,3.6,0,0,1,.4,1.1c0,.3.1.7.1,1.3H83.9a2.1,2.1,0,0,0,.4,1.5,1.4,1.4,0,0,0,1.2.6,1.7,1.7,0,0,0,1.3-.5,2,2,0,0,0,.4-.8h1a1.3,1.3,0,0,1-.3.8,1.8,1.8,0,0,1-.5.7,2.4,2.4,0,0,1-1.1.6h-.8a2.3,2.3,0,0,1-1.9-.9,2.8,2.8,0,0,1-.8-2.3,3.1,3.1,0,0,1,.8-2.3,2.5,2.5,0,0,1,2-.9A3.1,3.1,0,0,1,86.9,105.6Zm.3,2.3a1.5,1.5,0,0,0-.3-1,1.3,1.3,0,0,0-1.3-.8,1.4,1.4,0,0,0-1.2.6,1.7,1.7,0,0,0-.5,1.2Z" fill="#6b6b6b"/><path d="M98.7,103.1v1H95.9v7.3H94.8v-7.3H92v-1Z" fill="#6b6b6b"/><path d="M101.6,107.8a.5.5,0,0,0,.5-.3v-.4a1.1,1.1,0,0,0-.3-.8l-1.1-.2a1.6,1.6,0,0,0-1.1.4c-.2.2-.2.4-.3.7h-.9a1.6,1.6,0,0,1,.7-1.5,3,3,0,0,1,1.6-.5,3.5,3.5,0,0,1,1.8.5,1.2,1.2,0,0,1,.6,1.2v3.5a.4.4,0,0,0,.1.3h.6v.8h-.7a.8.8,0,0,1-.8-.4c-.1-.1-.1-.3-.1-.6l-.9.8-1.3.2a1.7,1.7,0,0,1-1.4-.5,1.3,1.3,0,0,1-.5-1.2,1.4,1.4,0,0,1,.5-1.3,2,2,0,0,1,1.4-.6Zm-2.1,2.7a.9.9,0,0,0,.7.3,2.3,2.3,0,0,0,1.1-.3,1.3,1.3,0,0,0,.8-1.3v-.8l-.5.2h-1.2l-.8.2a1,1,0,0,0-.5.8A.7.7,0,0,0,99.5,110.5Z" fill="#6b6b6b"/><path d="M104.7,103.1h1v3a1.6,1.6,0,0,1,.8-.6,1.7,1.7,0,0,1,1-.3,2.2,2.2,0,0,1,1.8.8,3.2,3.2,0,0,1,.7,2.3,3.6,3.6,0,0,1-.7,2.4,2.2,2.2,0,0,1-1.9.9,2.4,2.4,0,0,1-1.2-.3l-.6-.6v.7h-.9Zm3.9,7a3.1,3.1,0,0,0,.4-1.7,2.5,2.5,0,0,0-.4-1.6,1.5,1.5,0,0,0-1.2-.7,1.4,1.4,0,0,0-1.2.6,2.1,2.1,0,0,0-.6,1.7,4.4,4.4,0,0,0,.2,1.3,1.7,1.7,0,0,0,2.8.4Z" fill="#6b6b6b"/><path d="M366.6,103.4a3,3,0,0,1,1.5,2.3H367a2.3,2.3,0,0,0-.9-1.4,3.3,3.3,0,0,0-1.5-.4,2.3,2.3,0,0,0-1.9.9,3.4,3.4,0,0,0-.8,2.6,4.5,4.5,0,0,0,.6,2.4,2.3,2.3,0,0,0,2.1.9,2.4,2.4,0,0,0,1.8-.7,2.6,2.6,0,0,0,.8-2.1h-2.6V107h3.6v4.4h-.7l-.3-1a3.1,3.1,0,0,1-1,.8,3.5,3.5,0,0,1-1.8.5,3.7,3.7,0,0,1-2.5-1,4.5,4.5,0,0,1-1.2-3.3,4.9,4.9,0,0,1,1.1-3.3,3.8,3.8,0,0,1,2.8-1.2A4.2,4.2,0,0,1,366.6,103.4Z" fill="#6b6b6b"/><path d="M369.9,103.1H371v8.3h-1.1Z" fill="#6b6b6b"/><path d="M373.5,105.4v4a1.9,1.9,0,0,0,.2.8.9.9,0,0,0,.9.5,1.3,1.3,0,0,0,1.4-.9,3,3,0,0,0,.2-1.4v-3h1.1v6h-1v-.8l-.5.5a1.6,1.6,0,0,1-1.4.5,1.8,1.8,0,0,1-1.7-.9,3.7,3.7,0,0,1-.2-1.2v-4.1Z" fill="#6b6b6b"/><path d="M382.7,105.6a2.2,2.2,0,0,1,.9.7,3.6,3.6,0,0,1,.4,1.1c0,.3.1.7.1,1.3h-4.4a2.1,2.1,0,0,0,.4,1.5,1.5,1.5,0,0,0,1.3.6,1.7,1.7,0,0,0,1.2-.5,2,2,0,0,0,.4-.8h1a1.3,1.3,0,0,1-.3.8,1.8,1.8,0,0,1-.5.7,2.4,2.4,0,0,1-1.1.6h-.8a2.3,2.3,0,0,1-1.9-.9,2.8,2.8,0,0,1-.8-2.3,3.1,3.1,0,0,1,.8-2.3,2.5,2.5,0,0,1,2-.9A3.1,3.1,0,0,1,382.7,105.6Zm.3,2.3a1.5,1.5,0,0,0-.3-1,1.3,1.3,0,0,0-1.3-.8,1.4,1.4,0,0,0-1.2.6,1.7,1.7,0,0,0-.5,1.2Z" fill="#6b6b6b"/><path d="M394.5,103.1v1h-2.8v7.3h-1.1v-7.3h-2.8v-1Z" fill="#6b6b6b"/><path d="M397.4,107.8a.5.5,0,0,0,.5-.3v-.4a1.1,1.1,0,0,0-.3-.8l-1.1-.2a1.6,1.6,0,0,0-1.1.4l-.3.7h-.9a1.6,1.6,0,0,1,.7-1.5,3,3,0,0,1,1.6-.5,3.5,3.5,0,0,1,1.8.5,1.2,1.2,0,0,1,.6,1.2v3.5a.4.4,0,0,0,.1.3h.6v.8h-.7a.8.8,0,0,1-.8-.4c-.1-.1-.1-.3-.1-.6a3.6,3.6,0,0,1-.9.8l-1.3.2a1.7,1.7,0,0,1-1.4-.5,1.7,1.7,0,0,1-.5-1.2,1.4,1.4,0,0,1,.5-1.3,2,2,0,0,1,1.4-.6Zm-2.1,2.7a.9.9,0,0,0,.7.3,2.3,2.3,0,0,0,1.1-.3,1.3,1.3,0,0,0,.8-1.3v-.8l-.5.2h-1.2l-.8.2a1,1,0,0,0-.5.8A.7.7,0,0,0,395.3,110.5Z" fill="#6b6b6b"/><path d="M400.5,103.1h1v3a1.6,1.6,0,0,1,.8-.6,1.7,1.7,0,0,1,1-.3,2.2,2.2,0,0,1,1.8.8,3.2,3.2,0,0,1,.7,2.3,4.3,4.3,0,0,1-.6,2.4,2.5,2.5,0,0,1-2,.9,2.7,2.7,0,0,1-1.2-.3l-.6-.6v.7h-.9Zm3.9,7a3.1,3.1,0,0,0,.4-1.7,2.5,2.5,0,0,0-.4-1.6,1.5,1.5,0,0,0-1.2-.7,1.4,1.4,0,0,0-1.2.6,2.1,2.1,0,0,0-.6,1.7,2.5,2.5,0,0,0,.3,1.3,1.4,1.4,0,0,0,1.5,1A1.4,1.4,0,0,0,404.4,110.1Z" fill="#6b6b6b"/><path d="M399.9,374a3,3,0,0,1-1.5-2.2h1.1a2,2,0,0,0,.8,1.3,2.7,2.7,0,0,0,1.6.4,2.5,2.5,0,0,0,1.9-.9,3.6,3.6,0,0,0,.8-2.5,4.1,4.1,0,0,0-.7-2.5,2.3,2.3,0,0,0-2-.9,2.5,2.5,0,0,0-1.9.7,2.5,2.5,0,0,0-.7,2.1h2.6v.9h-3.7V366h.8l.2,1a3.1,3.1,0,0,1,1-.8,3.6,3.6,0,0,1,1.9-.5,3.7,3.7,0,0,1,2.5,1,5.5,5.5,0,0,1,0,6.6,3.4,3.4,0,0,1-2.7,1.2A3.9,3.9,0,0,1,399.9,374Z" fill="#6b6b6b"/><path d="M396.5,374.3h-1V366h1Z" fill="#6b6b6b"/><path d="M392.9,372v-4a1.9,1.9,0,0,0-.1-.8,1.1,1.1,0,0,0-1-.5,1.4,1.4,0,0,0-1.4,1,4.4,4.4,0,0,0-.2,1.3v3h-1v-6h1v.9c.2-.3.3-.5.5-.6a2.4,2.4,0,0,1,1.4-.5,1.7,1.7,0,0,1,1.7.9,2.1,2.1,0,0,1,.3,1.2V372Z" fill="#6b6b6b"/><path d="M383.8,371.9a2.4,2.4,0,0,1-.9-.8,2.1,2.1,0,0,1-.4-1.1,4.5,4.5,0,0,1-.1-1.3h4.4a3.3,3.3,0,0,0-.4-1.5,1.5,1.5,0,0,0-1.3-.6,1.8,1.8,0,0,0-1.3.6,1.5,1.5,0,0,0-.3.7h-1a2.4,2.4,0,0,1,.2-.8c.2-.2.3-.5.5-.6a2.4,2.4,0,0,1,1.2-.7h.8a2.4,2.4,0,0,1,1.9.8,3.2,3.2,0,0,1,.8,2.3,3.6,3.6,0,0,1-.8,2.3,2.4,2.4,0,0,1-2.1,1A2.7,2.7,0,0,1,383.8,371.9Zm-.4-2.4a6.2,6.2,0,0,0,.3,1,1.6,1.6,0,0,0,1.4.8,1.8,1.8,0,0,0,1.2-.5,2.9,2.9,0,0,0,.5-1.3Z" fill="#6b6b6b"/><path d="M371.9,374.3v-1h2.8V366h1.1v7.3h2.8v1Z" fill="#6b6b6b"/><path d="M369.1,369.6l-.5.3c-.1.1-.1.2-.1.4a.8.8,0,0,0,.4.8l1,.2c.6,0,1-.1,1.2-.4a1.4,1.4,0,0,0,.2-.7h1a1.9,1.9,0,0,1-.8,1.5,2.8,2.8,0,0,1-1.6.5,3.9,3.9,0,0,1-1.7-.4,1.6,1.6,0,0,1-.7-1.3v-3.7h-.6v-.8h.7a1,1,0,0,1,.9,1,2.2,2.2,0,0,1,.9-.7,2.8,2.8,0,0,1,1.3-.3,1.5,1.5,0,0,1,1.3.5,1.5,1.5,0,0,1,.6,1.3,2.1,2.1,0,0,1-.5,1.3,2.4,2.4,0,0,1-1.4.5Zm2.1-2.7a1.1,1.1,0,0,0-.8-.3,1.9,1.9,0,0,0-1,.3,1.4,1.4,0,0,0-.9,1.3v.8l.5-.2h1.2l.8-.3a.7.7,0,0,0,.5-.8A.9.9,0,0,0,371.2,366.9Z" fill="#6b6b6b"/><path d="M365.9,374.3H365v-3a2.1,2.1,0,0,1-.8.6,1.9,1.9,0,0,1-1,.3,2.6,2.6,0,0,1-1.9-.8,3.2,3.2,0,0,1-.7-2.3,4,4,0,0,1,.7-2.4,2.3,2.3,0,0,1,1.9-.9,2.1,2.1,0,0,1,1.2.3c.2.1.4.4.6.6V366h.9Zm-3.8-7a3.2,3.2,0,0,0-.4,1.8,2.4,2.4,0,0,0,.4,1.5,1.1,1.1,0,0,0,1.2.7,2.1,2.1,0,0,0,1.2-.5,2.9,2.9,0,0,0,.5-1.7,4.6,4.6,0,0,0-.2-1.4,1.5,1.5,0,0,0-1.5-1A1.2,1.2,0,0,0,362.1,367.3Z" fill="#6b6b6b"/><path d="M104.1,374a3,3,0,0,1-1.5-2.2h1.1a2,2,0,0,0,.8,1.3,2.7,2.7,0,0,0,1.6.4,2.5,2.5,0,0,0,1.9-.9,3.6,3.6,0,0,0,.8-2.5,4.9,4.9,0,0,0-.7-2.5,2.3,2.3,0,0,0-2.1-.9,2.4,2.4,0,0,0-1.8.7,2.5,2.5,0,0,0-.7,2.1h2.6v.9h-3.7V366h.8l.2,1a3.1,3.1,0,0,1,1-.8,3.6,3.6,0,0,1,1.9-.5,3.9,3.9,0,0,1,2.5,1,5.5,5.5,0,0,1,0,6.6,3.4,3.4,0,0,1-2.7,1.2A3.9,3.9,0,0,1,104.1,374Z" fill="#6b6b6b"/><path d="M100.7,374.3h-1V366h1Z" fill="#6b6b6b"/><path d="M97.1,372v-4a1.9,1.9,0,0,0-.1-.8,1.1,1.1,0,0,0-1-.5,1.4,1.4,0,0,0-1.4,1,4.4,4.4,0,0,0-.2,1.3v3h-1v-6h.9v.9c.2-.3.3-.5.5-.6a2.4,2.4,0,0,1,1.4-.5,1.8,1.8,0,0,1,1.7.9,2.1,2.1,0,0,1,.3,1.2V372Z" fill="#6b6b6b"/><path d="M88,371.9a2.4,2.4,0,0,1-.9-.8,2.1,2.1,0,0,1-.4-1.1,4.5,4.5,0,0,1-.1-1.3H91a2.5,2.5,0,0,0-.5-1.5,1.2,1.2,0,0,0-1.2-.6,1.6,1.6,0,0,0-1.3.6,1.5,1.5,0,0,0-.3.7h-1a2.4,2.4,0,0,1,.2-.8c.2-.2.3-.5.5-.6a2.4,2.4,0,0,1,1.2-.7h.8a2.4,2.4,0,0,1,1.9.8,3.2,3.2,0,0,1,.8,2.3,3.6,3.6,0,0,1-.8,2.3,2.4,2.4,0,0,1-2.1,1A2.7,2.7,0,0,1,88,371.9Zm-.4-2.4a6.2,6.2,0,0,0,.3,1,1.5,1.5,0,0,0,1.4.8,1.8,1.8,0,0,0,1.2-.5,2.9,2.9,0,0,0,.5-1.3Z" fill="#6b6b6b"/><path d="M76.1,374.3v-1h2.8V366H80v7.3h2.8v1Z" fill="#6b6b6b"/><path d="M73.2,369.6l-.4.3c-.1.1-.1.2-.1.4a.8.8,0,0,0,.4.8l1,.2a1.5,1.5,0,0,0,1.2-.4,1.4,1.4,0,0,0,.2-.7h1a1.9,1.9,0,0,1-.8,1.5,2.8,2.8,0,0,1-1.6.5,3.9,3.9,0,0,1-1.7-.4,1.4,1.4,0,0,1-.7-1.3v-3.7h-.6v-.8h.7a1,1,0,0,1,.9,1,2.2,2.2,0,0,1,.9-.7,2.8,2.8,0,0,1,1.3-.3,1.5,1.5,0,0,1,1.3.5,1.5,1.5,0,0,1,.6,1.3,1.8,1.8,0,0,1-.6,1.3,1.9,1.9,0,0,1-1.3.5Zm2.2-2.7a1.1,1.1,0,0,0-.8-.3,1.9,1.9,0,0,0-1,.3,1.4,1.4,0,0,0-.9,1.3v.8l.5-.2h1.2l.8-.3a.7.7,0,0,0,.5-.8A.9.9,0,0,0,75.4,366.9Z" fill="#6b6b6b"/><path d="M70.1,374.3h-.9v-3a2.1,2.1,0,0,1-.8.6,2.3,2.3,0,0,1-1.1.3,2.5,2.5,0,0,1-1.8-.8,3.2,3.2,0,0,1-.7-2.3,4,4,0,0,1,.7-2.4,2.3,2.3,0,0,1,1.9-.9,2.1,2.1,0,0,1,1.2.3c.2.1.4.4.6.6V366h.9Zm-3.8-7a3.2,3.2,0,0,0-.5,1.8,2.5,2.5,0,0,0,.5,1.5,1.1,1.1,0,0,0,1.2.7,2.1,2.1,0,0,0,1.2-.5,2.9,2.9,0,0,0,.5-1.7,4.6,4.6,0,0,0-.2-1.4,1.5,1.5,0,0,0-1.5-1A1.2,1.2,0,0,0,66.3,367.3Z" fill="#6b6b6b"/></g></svg>