<svg xmlns="http://www.w3.org/2000/svg" width="6.5in" height="6.6in" viewBox="0 0 471.1 471.6"><title>Artboard 3ff</title><g id="Artwork"><circle cx="201.3" cy="400.9" r="1.8" fill="none" stroke="#be9c57" stroke-linecap="round" stroke-linejoin="round"/><circle cx="198.8" cy="363.3" r="1.8" fill="none" stroke="#be9c57" stroke-linecap="round" stroke-linejoin="round"/><circle cx="205.7" cy="383.1" r="1.8" fill="none" stroke="#be9c57" stroke-linecap="round" stroke-linejoin="round"/><circle cx="151" cy="370.2" r="1.8" fill="none" stroke="#be9c57" stroke-linecap="round" stroke-linejoin="round"/><circle cx="107.7" cy="160.3" r="1.8" fill="none" stroke="#be9c57" stroke-linecap="round" stroke-linejoin="round"/><circle cx="74.7" cy="182.4" r="1.8" fill="none" stroke="#be9c57" stroke-linecap="round" stroke-linejoin="round"/><circle cx="109.5" cy="235" r="1.8" fill="none" stroke="#be9c57" stroke-linecap="round" stroke-linejoin="round"/><circle cx="72.5" cy="227.2" r="1.8" fill="none" stroke="#be9c57" stroke-linecap="round" stroke-linejoin="round"/><circle cx="80.6" cy="279.3" r="1.8" fill="none" stroke="#be9c57" stroke-linecap="round" stroke-linejoin="round"/><circle cx="98.4" cy="330.2" r="1.8" fill="none" stroke="#be9c57" stroke-linecap="round" stroke-linejoin="round"/><circle cx="103.4" cy="297.9" r="1.8" fill="none" stroke="#be9c57" stroke-linecap="round" stroke-linejoin="round"/><circle cx="156.1" cy="401.7" r="1.8" fill="none" stroke="#be9c57" stroke-linecap="round" stroke-linejoin="round"/><circle cx="219.1" cy="361.5" r="1.8" fill="none" stroke="#be9c57" stroke-linecap="round" stroke-linejoin="round"/><path d="M175.6,383.7c1.5-1,4.1,1.1,6.1,4.3s1.8,6.5,1.8,8.3-.4.6-.8.5-5.1-2.8-6.7-5.2c-2.5-4-2.4-6.7-1.4-7.3Z" fill="none" stroke="#be9c57" stroke-linecap="round" stroke-linejoin="round"/><rect x="173.3" y="382.1" width="2.7" height="2.03" transform="translate(525.6 615.6) rotate(148)" fill="none" stroke="#be9c57" stroke-linecap="round" stroke-linejoin="round"/><path d="M95.9,249.7c-1-1.9,1.7-4.8,5.7-6.8s7.9-1.3,9.9-1.2a.6.6,0,0,1,.5,1c-1,1.8-3.7,5.7-6.8,7.3-5,2.5-8.1,2.1-8.7.9Z" fill="none" stroke="#be9c57" stroke-linecap="round" stroke-linejoin="round"/><rect x="93.5" y="249.5" width="3.2" height="2.4" transform="translate(276 52.8) rotate(63.2)" fill="none" stroke="#be9c57" stroke-linecap="round" stroke-linejoin="round"/><line x1="186.8" y1="397.7" x2="186.6" y2="405.3" fill="none" stroke="#be9c57" stroke-linecap="round" stroke-linejoin="round"/><line x1="189.7" y1="404.1" x2="183.6" y2="399.4" fill="none" stroke="#be9c57" stroke-linecap="round" stroke-linejoin="round"/><line x1="183.4" y1="403.8" x2="189.9" y2="399.7" fill="none" stroke="#be9c57" stroke-linecap="round" stroke-linejoin="round"/><line x1="207.5" y1="360.8" x2="209" y2="366.9" fill="none" stroke="#be9c57" stroke-linecap="round" stroke-linejoin="round"/><line x1="211.2" y1="365.2" x2="205.4" y2="362.9" fill="none" stroke="#be9c57" stroke-linecap="round" stroke-linejoin="round"/><line x1="206.2" y1="366.4" x2="210.4" y2="361.8" fill="none" stroke="#be9c57" stroke-linecap="round" stroke-linejoin="round"/><line x1="144.7" y1="373.8" x2="143.1" y2="380.8" fill="none" stroke="#be9c57" stroke-linecap="round" stroke-linejoin="round"/><line x1="146.2" y1="380.3" x2="141.5" y2="374.8" fill="none" stroke="#be9c57" stroke-linecap="round" stroke-linejoin="round"/><line x1="140.5" y1="378.8" x2="147.2" y2="376.3" fill="none" stroke="#be9c57" stroke-linecap="round" stroke-linejoin="round"/><line x1="111.7" y1="251.9" x2="110.2" y2="258.9" fill="none" stroke="#be9c57" stroke-linecap="round" stroke-linejoin="round"/><line x1="113.3" y1="258.3" x2="108.5" y2="252.9" fill="none" stroke="#be9c57" stroke-linecap="round" stroke-linejoin="round"/><line x1="107.5" y1="256.9" x2="114.3" y2="254.3" fill="none" stroke="#be9c57" stroke-linecap="round" stroke-linejoin="round"/><line x1="100.6" y1="150.4" x2="97.3" y2="156.8" fill="none" stroke="#be9c57" stroke-linecap="round" stroke-linejoin="round"/><line x1="100.4" y1="157" x2="97.2" y2="150.6" fill="none" stroke="#be9c57" stroke-linecap="round" stroke-linejoin="round"/><line x1="95.2" y1="154.2" x2="102.4" y2="153.4" fill="none" stroke="#be9c57" stroke-linecap="round" stroke-linejoin="round"/><line x1="79.2" y1="287.6" x2="74.1" y2="295.3" fill="none" stroke="#be9c57" stroke-linecap="round" stroke-linejoin="round"/><line x1="78" y1="296.1" x2="74.9" y2="287.4" fill="none" stroke="#be9c57" stroke-linecap="round" stroke-linejoin="round"/><line x1="71.9" y1="291.7" x2="81.1" y2="291.7" fill="none" stroke="#be9c57" stroke-linecap="round" stroke-linejoin="round"/><path d="M201.7,375.3c1.9-.6,2.5-5,2.2-6,1.8.9,7.4,1.6,9.4-1.2a9.5,9.5,0,0,0,8.4,1" fill="none" stroke="#be9c57" stroke-linecap="round" stroke-linejoin="round"/><path d="M221.7,369.1a9.3,9.3,0,0,0-6.2,5.5c-3.3-1.2-7.6,2.6-8.6,4.4-.3-1-3.3-4.3-5.2-3.7Z" fill="none" stroke="#be9c57" stroke-linecap="round" stroke-linejoin="round"/><path d="M200.8,387.8c-2.9-2.7-3.2-10.8.9-12.5" fill="none" stroke="#be9c57" stroke-linecap="round" stroke-linejoin="round"/><path d="M79.4,160.3c1.4-1.3,5.2.2,5.9,1,.1-1.9,2-6.8,5.3-7.1a9.2,9.2,0,0,1,3.1-7.4" fill="none" stroke="#be9c57" stroke-linecap="round" stroke-linejoin="round"/><path d="M93.7,146.8a8.7,8.7,0,0,1-7.4,2.5c-.5,3.2-5.6,5.1-7.5,5,.7.7,2,4.7.6,6Z" fill="none" stroke="#be9c57" stroke-linecap="round" stroke-linejoin="round"/><path d="M79.4,160.3c-3,2.9-7.4,7.2-6.9,13" fill="none" stroke="#be9c57" stroke-linecap="round" stroke-linejoin="round"/><path d="M84.8,299.3c-1,2.1-6.1,2.2-7.2,1.7.8,2.2.8,8.7-2.8,10.6,1.4,2.5,1.5,6.3-.1,9.9" fill="none" stroke="#be9c57" stroke-linecap="round" stroke-linejoin="round"/><path d="M74.7,321.5a10.4,10.4,0,0,1,7.3-6.3c-.9-4,4.1-8.5,6.3-9.3-1.1-.5-4.5-4.5-3.5-6.6Z" fill="none" stroke="#be9c57" stroke-linecap="round" stroke-linejoin="round"/><path d="M84.8,299.3c2.1-4.8,5.2-11.8,1.8-18.2" fill="none" stroke="#be9c57" stroke-linecap="round" stroke-linejoin="round"/><path d="M109.2,171.2a1.6,1.6,0,0,0-.3-2.1c-6.2-4.4-14.5-9.4-19.9-5.9a41.5,41.5,0,0,0-7.9,7.8c-6.8,8.2,2.1,16,8.1,9.3,1.5-1.8,2.7-3,3.3-3.7a3.8,3.8,0,0,1,4.7-.4c1.7,1.2,3.3,2.6,4.4,3.4a1.5,1.5,0,0,0,2.1-.3Z" fill="none" stroke="#be9c57" stroke-linecap="round" stroke-linejoin="round"/><path d="M105,166.5c-2.3,1.2-6.3,7.2-6.6,10.6" fill="none" stroke="#be9c57" stroke-linecap="round" stroke-linejoin="round"/><path d="M111.8,172.4c-1.3,0-2.3-1.9-2.3-1.9s1-1.9,2.3-1.9a2.2,2.2,0,0,1,2.4,1.9A2.2,2.2,0,0,1,111.8,172.4Z" fill="none" stroke="#be9c57" stroke-linecap="round" stroke-linejoin="round"/><path d="M94.7,316.5c-1.9-5.6-3.5-10.7,1.8-12.4s6.9,3.3,8.7,8.9c.9,2.5,5.4,3.6,5.7,4.5s-6.6,3.3-8.7,4-9.1,2.9-9.5,1.9S95.5,319,94.7,316.5Z" fill="none" stroke="#be9c57" stroke-linecap="round" stroke-linejoin="round"/><path d="M107,315.1c-1.5.9-10.9,4-12.5,4" fill="none" stroke="#be9c57" stroke-linecap="round" stroke-linejoin="round"/><path d="M105,312.2a72.4,72.4,0,0,1-10.6,3.4" fill="none" stroke="#be9c57" stroke-linecap="round" stroke-linejoin="round"/><path d="M94.9,304.7a1.9,1.9,0,0,1,1-2.4,1.8,1.8,0,0,1,2.2,1.4" fill="none" stroke="#be9c57" stroke-linecap="round" stroke-linejoin="round"/><polygon points="217 375.8 219.2 378.1 222.3 377.7 220.8 380.4 222.2 383.3 219.1 382.7 216.8 384.9 216.4 381.8 213.6 380.3 216.5 378.9 217 375.8" fill="none" stroke="#be9c57" stroke-linecap="round" stroke-linejoin="round"/><polygon points="108.5 185.6 110.7 187.9 113.9 187.5 112.3 190.3 113.7 193.1 110.6 192.5 108.3 194.7 107.9 191.6 105.1 190.1 108 188.7 108.5 185.6" fill="none" stroke="#be9c57" stroke-linecap="round" stroke-linejoin="round"/><polygon points="87.8 318.1 87.5 321.3 89.9 323.4 86.7 324 85.5 326.9 83.9 324.1 80.8 323.8 82.9 321.5 82.2 318.4 85.1 319.7 87.8 318.1" fill="none" stroke="#be9c57" stroke-linecap="round" stroke-linejoin="round"/><rect x="170.6" y="398.6" width="5.8" height="5.84" transform="translate(450.8 739.7) rotate(164)" fill="none" stroke="#be9c57" stroke-linecap="round" stroke-linejoin="round"/><line x1="172.7" y1="398.7" x2="174.3" y2="404.3" fill="none" stroke="#be9c57" stroke-linecap="round" stroke-linejoin="round"/><line x1="176.3" y1="400.7" x2="170.7" y2="402.3" fill="none" stroke="#be9c57" stroke-linecap="round" stroke-linejoin="round"/><path d="M172.7,396.5a3,3,0,0,0-.2,2,2.9,2.9,0,0,0,1.5-1.3c.5-.9.5-1.8.2-1.9S173.1,395.6,172.7,396.5Z" fill="none" stroke="#be9c57" stroke-linecap="round" stroke-linejoin="round"/><path d="M171.1,397a2.9,2.9,0,0,1,1.2,1.6,3.4,3.4,0,0,1-2-.3c-.8-.5-1.3-1.3-1.1-1.6S170.3,396.5,171.1,397Z" fill="none" stroke="#be9c57" stroke-linecap="round" stroke-linejoin="round"/><rect x="70.8" y="264.2" width="9.3" height="9.29" transform="translate(-171.6 399.1) rotate(-102.1)" fill="none" stroke="#be9c57" stroke-linecap="round" stroke-linejoin="round"/><line x1="79.9" y1="267.9" x2="70.9" y2="269.8" fill="none" stroke="#be9c57" stroke-linecap="round" stroke-linejoin="round"/><line x1="76.4" y1="273.4" x2="74.4" y2="264.3" fill="none" stroke="#be9c57" stroke-linecap="round" stroke-linejoin="round"/><path d="M83.4,268.1a5.1,5.1,0,0,0-3.2-.4,5.4,5.4,0,0,0,1.9,2.5c1.4.8,2.8,1,3.1.4S84.7,268.9,83.4,268.1Z" fill="none" stroke="#be9c57" stroke-linecap="round" stroke-linejoin="round"/><path d="M82.8,265.6a4.9,4.9,0,0,1-2.6,1.7,4.8,4.8,0,0,1,.6-3.1c1-1.3,2.2-2,2.7-1.6S83.7,264.3,82.8,265.6Z" fill="none" stroke="#be9c57" stroke-linecap="round" stroke-linejoin="round"/><path d="M138,392.7c7.1,0,12.8,6.8,12.8,15.1H319.6c0-8.3,5.7-15.1,12.8-15.1V372.2c-7.1,0-12.8-6.8-12.8-15.1H150.8c0,8.3-5.7,15.1-12.8,15.1Z" fill="none" stroke="#be9c57" stroke-linecap="round" stroke-linejoin="round"/><path d="M138,106.7c7.1,0,12.8,6.8,12.8,15.1H319.6c0-8.3,5.7-15.1,12.8-15.1V86.2c-7.1,0-12.8-6.8-12.8-15.1H150.8c0,8.3-5.7,15.1-12.8,15.1Z" fill="none" stroke="#be9c57" stroke-linecap="round" stroke-linejoin="round"/><path d="M138.2,157.1c7.1,0,12.9-6.8,12.9-15.2H319.9c0,8.4,5.7,15.2,12.8,15.2V321.7c-7.1,0-12.9,6.8-12.9,15.1H151.1c0-8.3-5.8-15.1-12.9-15.1Z" fill="none" stroke="#be9c57" stroke-linecap="round" stroke-linejoin="round"/><path d="M233.6,200c-2.3-6.4-7.4-44.5-7.4-58.1" fill="none" stroke="#be9c57" stroke-linecap="round" stroke-linejoin="round"/><path d="M237.4,200c2.3-6.4,7.3-44.5,7.3-58.1" fill="none" stroke="#be9c57" stroke-linecap="round" stroke-linejoin="round"/><path d="M233.6,222.7c-2.3,6.4-7.4,100.5-7.4,114.1" fill="none" stroke="#be9c57" stroke-linecap="round" stroke-linejoin="round"/><path d="M237.4,222.7c2.3,6.4,7.3,100.5,7.3,114.1" fill="none" stroke="#be9c57" stroke-linecap="round" stroke-linejoin="round"/><rect x="228.2" y="200" width="14.6" height="22.66" rx="4.8" ry="4.8" fill="none" stroke="#be9c57" stroke-linecap="round" stroke-linejoin="round"/><path d="M243.1,204.8C260.4,191.6,282,180,290.6,180c6.5,3.7,5.8,53.6,1.4,59.4-8.6,1.9-46.2-16.5-49.2-22" fill="none" stroke="#be9c57" stroke-linecap="round" stroke-linejoin="round"/><path d="M227.8,204.8c-17.3-13.2-38.9-24.8-47.5-24.8-6.5,3.7-5.8,53.6-1.4,59.4,8.6,1.9,46.2-16.5,49.2-22" fill="none" stroke="#be9c57" stroke-linecap="round" stroke-linejoin="round"/><path d="M228.2,217.9c-10.3,7.2-46.9,32.5-46.9,63.5.9,11,17.3,21.9,28.3,27.6a4,4,0,0,0,5.9-3.7c-.7-22.1,4.4-61,17.5-82.6" fill="none" stroke="#be9c57" stroke-linecap="round" stroke-linejoin="round"/><path d="M242.8,217.9c10.3,7.2,46.8,32.5,46.8,63.5-.8,11-17.2,21.9-28.2,27.6a4,4,0,0,1-5.9-3.7c.7-22.1-4.4-61-17.5-82.6" fill="none" stroke="#be9c57" stroke-linecap="round" stroke-linejoin="round"/><path d="M295.4,205.1c19.5-1.6,30.2-3,37.3-3" fill="none" stroke="#be9c57" stroke-linecap="round" stroke-linejoin="round"/><path d="M295.4,217.5c20.8,1.8,31.5,3.1,37.3,3.1" fill="none" stroke="#be9c57" stroke-linecap="round" stroke-linejoin="round"/><path d="M175.5,205.1c-19.4-1.6-30.1-3-37.3-3" fill="none" stroke="#be9c57" stroke-linecap="round" stroke-linejoin="round"/><path d="M175.5,217.5c-19.4,1.7-30.1,3.1-37.3,3.1" fill="none" stroke="#be9c57" stroke-linecap="round" stroke-linejoin="round"/><line x1="242.8" y1="211.3" x2="266.9" y2="211.3" fill="none" stroke="#be9c57" stroke-linecap="round" stroke-linejoin="round"/><path d="M242.8,208.7c1.8-1.5,24.4-11.6,33.4-11.6" fill="none" stroke="#be9c57" stroke-linecap="round" stroke-linejoin="round"/><path d="M242.8,214c1.8,1.5,24.4,11.6,33.4,11.6" fill="none" stroke="#be9c57" stroke-linecap="round" stroke-linejoin="round"/><line x1="228.1" y1="211.3" x2="204.1" y2="211.3" fill="none" stroke="#be9c57" stroke-linecap="round" stroke-linejoin="round"/><path d="M228.1,208.7c-1.8-1.5-24.4-11.6-33.4-11.6" fill="none" stroke="#be9c57" stroke-linecap="round" stroke-linejoin="round"/><path d="M228.1,214c-1.8,1.5-24.4,11.6-33.4,11.6" fill="none" stroke="#be9c57" stroke-linecap="round" stroke-linejoin="round"/><circle cx="262.1" cy="231.2" r="0.8" fill="none" stroke="#be9c57" stroke-linecap="round" stroke-linejoin="round"/><path d="M82.1,141.8c0,7.1-6.8,12.9-15.1,12.9V323.5c8.3,0,15.1,5.7,15.1,12.8h20.5c0-7.1,6.8-12.8,15.1-12.8V154.7c-8.3,0-15.1-5.8-15.1-12.9Z" fill="none" stroke="#be9c57" stroke-linecap="round" stroke-linejoin="round"/><path d="M368.2,141.8c0,7.1-6.8,12.9-15.2,12.9V323.5c8.4,0,15.2,5.7,15.2,12.8h20.4c0-7.1,6.8-12.8,15.2-12.8V154.7c-8.4,0-15.2-5.8-15.2-12.9Z" fill="none" stroke="#be9c57" stroke-linecap="round" stroke-linejoin="round"/><circle cx="159.5" cy="385.7" r="11.9" fill="none" stroke="#be9c57" stroke-linecap="round" stroke-linejoin="round"/><polyline points="162.8 373.4 162.8 369.6 157.4 369.6 157.4 373.4" fill="none" stroke="#be9c57" stroke-linecap="round" stroke-linejoin="round"/><path d="M148.7,383.7c3.2,0,17.1-3.3,19.3-6.3" fill="none" stroke="#be9c57" stroke-linecap="round" stroke-linejoin="round"/><path d="M149.5,392.2c3.2,0,20.4-3.4,21.9-7.4" fill="none" stroke="#be9c57" stroke-linecap="round" stroke-linejoin="round"/><line x1="151.5" y1="383.4" x2="151.5" y2="392" fill="#231f20" stroke="#be9c57" stroke-linecap="round" stroke-linejoin="round"/><line x1="155.3" y1="382.6" x2="155.3" y2="390.9" fill="#231f20" stroke="#be9c57" stroke-linecap="round" stroke-linejoin="round"/><line x1="159.2" y1="381.6" x2="159.2" y2="389.9" fill="#231f20" stroke="#be9c57" stroke-linecap="round" stroke-linejoin="round"/><line x1="163.1" y1="380.4" x2="163.1" y2="388.8" fill="#231f20" stroke="#be9c57" stroke-linecap="round" stroke-linejoin="round"/><line x1="167" y1="378.5" x2="167" y2="387.8" fill="#231f20" stroke="#be9c57" stroke-linecap="round" stroke-linejoin="round"/><line x1="160.1" y1="369.6" x2="160.1" y2="357.1" fill="none" stroke="#be9c57" stroke-linecap="round" stroke-linejoin="round"/><path d="M193.1,380.5a9.9,9.9,0,0,0-5.1,13,8,8,0,0,0,10.4,4.1,6.4,6.4,0,0,0,3.3-8.4,5.2,5.2,0,0,0-6.7-2.6,4.1,4.1,0,0,0-2.1,5.4" fill="none" stroke="#be9c57" stroke-linecap="round" stroke-linejoin="round"/><path d="M225.7,357.1c-.5,20.4-1.2,48.3-1.1,50.7" fill="none" stroke="#be9c57" stroke-linecap="round" stroke-linejoin="round"/><path d="M117.7,201.6,67,200.9" fill="none" stroke="#be9c57" stroke-linecap="round" stroke-linejoin="round"/><path d="M117.7,220.6c-22.1.4-48.9.8-50.7.7" fill="none" stroke="#be9c57" stroke-linecap="round" stroke-linejoin="round"/><path d="M174,382a14.8,14.8,0,0,1,7.4-19.5,11.8,11.8,0,0,1,15.6,6,9.4,9.4,0,0,1-4.7,12.4,7.6,7.6,0,0,1-10-3.8,6.1,6.1,0,0,1,3-8,4.9,4.9,0,0,1,6.4,2.5,3.9,3.9,0,0,1-1.9,5.1,3.1,3.1,0,0,1-4.1-1.6" fill="none" stroke="#be9c57" stroke-linecap="round" stroke-linejoin="round"/><path d="M169.3,369.5a6.2,6.2,0,0,1-4,2.2s-.6-2.7.7-4.5a6.2,6.2,0,0,1,4-2.2S170.6,367.7,169.3,369.5Z" fill="none" stroke="#be9c57" stroke-linecap="round" stroke-linejoin="round"/><path d="M186.3,361.5c-8.9-1.4-14.4,1.1-16.4,3.6" fill="none" stroke="#be9c57" stroke-linecap="round" stroke-linejoin="round"/><path d="M216.3,394.7a5.2,5.2,0,1,0-8.5-6l-1.4,1.9a1.3,1.3,0,0,0,.3,1.8,1.3,1.3,0,0,0,1.9-.3l1.3-1.9a2.7,2.7,0,0,1,3.6-.6,2.5,2.5,0,0,1,.6,3.6" fill="none" stroke="#be9c57" stroke-miterlimit="10"/><path d="M214.1,393.2l-7.5,10.5a1.3,1.3,0,0,0,.3,1.8,1.4,1.4,0,0,0,1.9-.3l7.5-10.5" fill="none" stroke="#be9c57" stroke-miterlimit="10"/><line x1="209.9" y1="390.2" x2="207.8" y2="388.7" fill="none" stroke="#be9c57" stroke-miterlimit="10"/><line x1="212.5" y1="386.5" x2="212.3" y2="389.1" fill="none" stroke="#be9c57" stroke-miterlimit="10"/><line x1="214.1" y1="393.2" x2="216.2" y2="394.7" fill="none" stroke="#be9c57" stroke-miterlimit="10"/><line x1="212" y1="396.1" x2="214.1" y2="397.7" fill="none" stroke="#be9c57" stroke-miterlimit="10"/><line x1="209.9" y1="399" x2="212.1" y2="400.6" fill="none" stroke="#be9c57" stroke-miterlimit="10"/><line x1="207.9" y1="401.9" x2="210" y2="403.4" fill="none" stroke="#be9c57" stroke-miterlimit="10"/><line x1="216.7" y1="389.5" x2="214.3" y2="390.6" fill="none" stroke="#be9c57" stroke-miterlimit="10"/><circle cx="270.2" cy="400.9" r="1.8" fill="none" stroke="#be9c57" stroke-linecap="round" stroke-linejoin="round"/><circle cx="272.7" cy="363.3" r="1.8" fill="none" stroke="#be9c57" stroke-linecap="round" stroke-linejoin="round"/><circle cx="265.8" cy="383.1" r="1.8" fill="none" stroke="#be9c57" stroke-linecap="round" stroke-linejoin="round"/><circle cx="320.5" cy="370.2" r="1.8" fill="none" stroke="#be9c57" stroke-linecap="round" stroke-linejoin="round"/><circle cx="315.4" cy="401.7" r="1.8" fill="none" stroke="#be9c57" stroke-linecap="round" stroke-linejoin="round"/><circle cx="252.4" cy="361.5" r="1.8" fill="none" stroke="#be9c57" stroke-linecap="round" stroke-linejoin="round"/><path d="M296,383.7c-1.6-1-4.2,1.1-6.2,4.3s-1.8,6.5-1.8,8.3.5.6.8.5,5.1-2.8,6.7-5.2c2.5-4,2.4-6.7,1.4-7.3Z" fill="none" stroke="#be9c57" stroke-linecap="round" stroke-linejoin="round"/><rect x="295.5" y="382.1" width="2.7" height="2.03" transform="translate(247.8 -99.1) rotate(32)" fill="none" stroke="#be9c57" stroke-linecap="round" stroke-linejoin="round"/><line x1="284.7" y1="397.7" x2="284.9" y2="405.3" fill="none" stroke="#be9c57" stroke-linecap="round" stroke-linejoin="round"/><line x1="281.8" y1="404.1" x2="287.9" y2="399.4" fill="none" stroke="#be9c57" stroke-linecap="round" stroke-linejoin="round"/><line x1="288.1" y1="403.8" x2="281.6" y2="399.7" fill="none" stroke="#be9c57" stroke-linecap="round" stroke-linejoin="round"/><line x1="264.1" y1="360.8" x2="262.5" y2="366.9" fill="none" stroke="#be9c57" stroke-linecap="round" stroke-linejoin="round"/><line x1="260.3" y1="365.2" x2="266.1" y2="362.9" fill="none" stroke="#be9c57" stroke-linecap="round" stroke-linejoin="round"/><line x1="265.3" y1="366.4" x2="261.1" y2="361.8" fill="none" stroke="#be9c57" stroke-linecap="round" stroke-linejoin="round"/><line x1="326.8" y1="373.8" x2="328.4" y2="380.8" fill="none" stroke="#be9c57" stroke-linecap="round" stroke-linejoin="round"/><line x1="325.3" y1="380.3" x2="330" y2="374.8" fill="none" stroke="#be9c57" stroke-linecap="round" stroke-linejoin="round"/><line x1="331" y1="378.8" x2="324.3" y2="376.3" fill="none" stroke="#be9c57" stroke-linecap="round" stroke-linejoin="round"/><path d="M269.8,375.3c-1.9-.6-2.5-5-2.2-6-1.8.9-7.3,1.6-9.4-1.2-1.9,1.5-5.2,2-8.4,1" fill="none" stroke="#be9c57" stroke-linecap="round" stroke-linejoin="round"/><path d="M249.8,369.1a9.3,9.3,0,0,1,6.2,5.5c3.3-1.2,7.6,2.6,8.6,4.4.3-1,3.3-4.3,5.2-3.7Z" fill="none" stroke="#be9c57" stroke-linecap="round" stroke-linejoin="round"/><path d="M270.7,387.8c2.9-2.7,3.2-10.8-.9-12.5" fill="none" stroke="#be9c57" stroke-linecap="round" stroke-linejoin="round"/><polygon points="254.5 375.8 252.4 378.1 249.2 377.7 250.8 380.4 249.3 383.3 252.5 382.7 254.7 384.9 255.1 381.8 257.9 380.3 255.1 378.9 254.5 375.8" fill="none" stroke="#be9c57" stroke-linecap="round" stroke-linejoin="round"/><rect x="295.1" y="398.6" width="5.8" height="5.84" transform="matrix(0.96, 0.28, -0.28, 0.96, 122.04, -66.53)" fill="none" stroke="#be9c57" stroke-linecap="round" stroke-linejoin="round"/><line x1="298.8" y1="398.7" x2="297.2" y2="404.3" fill="none" stroke="#be9c57" stroke-linecap="round" stroke-linejoin="round"/><line x1="295.2" y1="400.7" x2="300.8" y2="402.3" fill="none" stroke="#be9c57" stroke-linecap="round" stroke-linejoin="round"/><path d="M298.9,396.5a3.4,3.4,0,0,1,.1,2,2.9,2.9,0,0,1-1.5-1.3c-.5-.9-.5-1.8-.1-1.9S298.4,395.6,298.9,396.5Z" fill="none" stroke="#be9c57" stroke-linecap="round" stroke-linejoin="round"/><path d="M300.4,397a2.9,2.9,0,0,0-1.2,1.6,3.4,3.4,0,0,0,2-.3c.8-.5,1.3-1.3,1.1-1.6S301.2,396.5,300.4,397Z" fill="none" stroke="#be9c57" stroke-linecap="round" stroke-linejoin="round"/><circle cx="312" cy="385.7" r="11.9" fill="none" stroke="#be9c57" stroke-linecap="round" stroke-linejoin="round"/><polyline points="308.7 373.4 308.7 369.6 314.1 369.6 314.1 373.4" fill="none" stroke="#be9c57" stroke-linecap="round" stroke-linejoin="round"/><path d="M322.8,383.7c-3.2,0-17.1-3.3-19.3-6.3" fill="none" stroke="#be9c57" stroke-linecap="round" stroke-linejoin="round"/><path d="M322,392.2c-3.2,0-20.4-3.4-21.9-7.4" fill="none" stroke="#be9c57" stroke-linecap="round" stroke-linejoin="round"/><line x1="320" y1="383.4" x2="320" y2="392" fill="#231f20" stroke="#be9c57" stroke-linecap="round" stroke-linejoin="round"/><line x1="316.2" y1="382.6" x2="316.2" y2="390.9" fill="#231f20" stroke="#be9c57" stroke-linecap="round" stroke-linejoin="round"/><line x1="312.3" y1="381.6" x2="312.3" y2="389.9" fill="#231f20" stroke="#be9c57" stroke-linecap="round" stroke-linejoin="round"/><line x1="308.4" y1="380.4" x2="308.4" y2="388.8" fill="#231f20" stroke="#be9c57" stroke-linecap="round" stroke-linejoin="round"/><line x1="304.6" y1="378.5" x2="304.6" y2="387.8" fill="#231f20" stroke="#be9c57" stroke-linecap="round" stroke-linejoin="round"/><line x1="311.4" y1="369.6" x2="311.4" y2="357.1" fill="none" stroke="#be9c57" stroke-linecap="round" stroke-linejoin="round"/><path d="M278.5,380.5a9.8,9.8,0,0,1,5,13,7.9,7.9,0,0,1-10.4,4.1,6.4,6.4,0,0,1-3.3-8.4,5.2,5.2,0,0,1,6.7-2.6,4.1,4.1,0,0,1,2.1,5.4" fill="none" stroke="#be9c57" stroke-linecap="round" stroke-linejoin="round"/><path d="M245.8,357.1c.5,20.4,1.3,48.3,1.1,50.7" fill="none" stroke="#be9c57" stroke-linecap="round" stroke-linejoin="round"/><path d="M297.5,382a14.8,14.8,0,0,0-7.4-19.5,11.9,11.9,0,0,0-15.6,6,9.4,9.4,0,0,0,4.8,12.4,7.5,7.5,0,0,0,9.9-3.8,6.1,6.1,0,0,0-3-8,4.9,4.9,0,0,0-6.4,2.5,3.8,3.8,0,0,0,2,5.1,3,3,0,0,0,4-1.6" fill="none" stroke="#be9c57" stroke-linecap="round" stroke-linejoin="round"/><path d="M302.2,369.5a6.2,6.2,0,0,0,4,2.2s.7-2.7-.7-4.5a6.2,6.2,0,0,0-4-2.2S300.9,367.7,302.2,369.5Z" fill="none" stroke="#be9c57" stroke-linecap="round" stroke-linejoin="round"/><path d="M285.3,361.5c8.8-1.4,14.4,1.1,16.3,3.6" fill="none" stroke="#be9c57" stroke-linecap="round" stroke-linejoin="round"/><path d="M255.2,394.7a5.2,5.2,0,0,1,1.3-7.3,5.3,5.3,0,0,1,7.3,1.3l1.3,1.9a1.3,1.3,0,0,1-.3,1.8,1.3,1.3,0,0,1-1.9-.3l-1.3-1.9a2.7,2.7,0,0,0-3.6-.6,2.5,2.5,0,0,0-.6,3.6" fill="none" stroke="#be9c57" stroke-miterlimit="10"/><path d="M257.4,393.2l7.5,10.5a1.3,1.3,0,0,1-.3,1.8,1.4,1.4,0,0,1-1.9-.3l-7.5-10.5" fill="none" stroke="#be9c57" stroke-miterlimit="10"/><line x1="261.6" y1="390.2" x2="263.8" y2="388.7" fill="none" stroke="#be9c57" stroke-miterlimit="10"/><line x1="259" y1="386.5" x2="259.3" y2="389.1" fill="none" stroke="#be9c57" stroke-miterlimit="10"/><line x1="257.5" y1="393.2" x2="255.3" y2="394.7" fill="none" stroke="#be9c57" stroke-miterlimit="10"/><line x1="259.6" y1="396.1" x2="257.4" y2="397.7" fill="none" stroke="#be9c57" stroke-miterlimit="10"/><line x1="261.6" y1="399" x2="259.5" y2="400.6" fill="none" stroke="#be9c57" stroke-miterlimit="10"/><line x1="263.7" y1="401.9" x2="261.5" y2="403.4" fill="none" stroke="#be9c57" stroke-miterlimit="10"/><line x1="254.8" y1="389.5" x2="257.2" y2="390.6" fill="none" stroke="#be9c57" stroke-miterlimit="10"/><path d="M83.5,258.9A19.5,19.5,0,0,1,110,266a15.6,15.6,0,0,1-5.8,21.2,12.4,12.4,0,0,1-16.9-4.6A9.9,9.9,0,0,1,91,269.1a7.9,7.9,0,0,1,10.8,2.9,6.5,6.5,0,0,1-2.3,8.7,5.2,5.2,0,0,1-7-1.9,4.2,4.2,0,0,1,1.5-5.6" fill="none" stroke="#be9c57" stroke-linecap="round" stroke-linejoin="round"/><path d="M83.5,258.8a12.3,12.3,0,0,0,5.6-16.5,9.8,9.8,0,0,0-13.2-4.5,7.8,7.8,0,0,0-3.6,10.5,6.2,6.2,0,0,0,8.4,2.9,5,5,0,0,0,2.4-6.7,4.1,4.1,0,0,0-5.4-1.9" fill="none" stroke="#be9c57" stroke-linecap="round" stroke-linejoin="round"/><path d="M86.3,193.9a9.8,9.8,0,0,1,7.8-11.4,7.9,7.9,0,0,1,9.2,6.3,6.3,6.3,0,0,1-5.1,7.3,5,5,0,0,1-5.8-4,4,4,0,0,1,3.2-4.7,3.1,3.1,0,0,1,3.7,2.6" fill="none" stroke="#be9c57" stroke-linecap="round" stroke-linejoin="round"/><path d="M86.1,193.9a6.9,6.9,0,0,0-6.2-7.4,5.5,5.5,0,0,0-5.9,5,4.4,4.4,0,0,0,4,4.7,3.5,3.5,0,0,0,3.7-3.2,2.7,2.7,0,0,0-2.5-3,2.2,2.2,0,0,0-2.4,2" fill="none" stroke="#be9c57" stroke-linecap="round" stroke-linejoin="round"/><path d="M102.5,287.9a11.3,11.3,0,0,0-6.6,14.3" fill="none" stroke="#be9c57" stroke-linecap="round" stroke-linejoin="round"/><line x1="117.3" y1="230.3" x2="105.4" y2="230.3" fill="none" stroke="#be9c57" stroke-linecap="round" stroke-linejoin="round"/><path d="M79.3,230.2c5.8,0,8.9-6.4,15.8-6.4s7.3,5.3,8.7,5.3H105v2.4h-1.2c-1.4,0-1.8,5.3-8.7,5.3s-10-6.6-15.8-6.6" fill="none" stroke="#be9c57" stroke-linecap="round" stroke-linejoin="round"/><path d="M98,224.2c0,1.3,1.6,9.8,2.6,10.8" fill="none" stroke="#be9c57" stroke-linecap="round" stroke-linejoin="round"/><path d="M92.2,224.2c0,1.3,1.9,11.6,2.9,12.6" fill="none" stroke="#be9c57" stroke-linecap="round" stroke-linejoin="round"/><path d="M90.3,224.9c0,1.3,1.9,10.2,2.7,11.6" fill="none" stroke="#be9c57" stroke-linecap="round" stroke-linejoin="round"/><path d="M114.4,298.4c1.5,1.7,1.2,4.5,1.2,4.5a6.6,6.6,0,0,1-4.2-1.8c-1.6-1.7-1.2-4.5-1.2-4.5A6.6,6.6,0,0,1,114.4,298.4Z" fill="none" stroke="#be9c57" stroke-linecap="round" stroke-linejoin="round"/><path d="M110.6,280.1c-3.5,8.2-2.4,14.2-.3,16.7" fill="none" stroke="#be9c57" stroke-linecap="round" stroke-linejoin="round"/><circle cx="269.8" cy="77.9" r="1.8" fill="none" stroke="#be9c57" stroke-linecap="round" stroke-linejoin="round"/><circle cx="272.2" cy="115.5" r="1.8" fill="none" stroke="#be9c57" stroke-linecap="round" stroke-linejoin="round"/><circle cx="265.4" cy="95.6" r="1.8" fill="none" stroke="#be9c57" stroke-linecap="round" stroke-linejoin="round"/><circle cx="320" cy="108.5" r="1.8" fill="none" stroke="#be9c57" stroke-linecap="round" stroke-linejoin="round"/><circle cx="314.9" cy="77.1" r="1.8" fill="none" stroke="#be9c57" stroke-linecap="round" stroke-linejoin="round"/><circle cx="252" cy="117.3" r="1.8" fill="none" stroke="#be9c57" stroke-linecap="round" stroke-linejoin="round"/><path d="M295.5,95.1c-1.6,1-4.1-1.1-6.2-4.3s-1.7-6.5-1.7-8.3a.5.5,0,0,1,.8-.5c1.5.8,5.1,2.7,6.6,5.2,2.5,4,2.5,6.7,1.5,7.3Z" fill="none" stroke="#be9c57" stroke-linecap="round" stroke-linejoin="round"/><rect x="295" y="94.7" width="2.7" height="2.03" transform="matrix(0.85, -0.53, 0.53, 0.85, -5.71, 171.44)" fill="none" stroke="#be9c57" stroke-linecap="round" stroke-linejoin="round"/><line x1="284.3" y1="81.1" x2="284.5" y2="73.5" fill="none" stroke="#be9c57" stroke-linecap="round" stroke-linejoin="round"/><line x1="281.3" y1="74.7" x2="287.4" y2="79.4" fill="none" stroke="#be9c57" stroke-linecap="round" stroke-linejoin="round"/><line x1="287.6" y1="75" x2="281.1" y2="79.1" fill="none" stroke="#be9c57" stroke-linecap="round" stroke-linejoin="round"/><line x1="263.6" y1="117.9" x2="262" y2="111.9" fill="none" stroke="#be9c57" stroke-linecap="round" stroke-linejoin="round"/><line x1="259.9" y1="113.6" x2="265.7" y2="115.9" fill="none" stroke="#be9c57" stroke-linecap="round" stroke-linejoin="round"/><line x1="264.9" y1="112.4" x2="260.7" y2="117" fill="none" stroke="#be9c57" stroke-linecap="round" stroke-linejoin="round"/><line x1="326.4" y1="105" x2="328" y2="98" fill="none" stroke="#be9c57" stroke-linecap="round" stroke-linejoin="round"/><line x1="324.9" y1="98.5" x2="329.6" y2="103.9" fill="none" stroke="#be9c57" stroke-linecap="round" stroke-linejoin="round"/><line x1="330.6" y1="99.9" x2="323.9" y2="102.5" fill="none" stroke="#be9c57" stroke-linecap="round" stroke-linejoin="round"/><path d="M269.3,103.5c-1.9.6-2.5,5-2.1,6-1.8-.9-7.4-1.7-9.4,1.2a9.5,9.5,0,0,0-8.4-1" fill="none" stroke="#be9c57" stroke-linecap="round" stroke-linejoin="round"/><path d="M249.4,109.7a8.9,8.9,0,0,0,6.1-5.6c3.3,1.2,7.7-2.5,8.6-4.3.3,1,3.3,4.3,5.2,3.7Z" fill="none" stroke="#be9c57" stroke-linecap="round" stroke-linejoin="round"/><path d="M270.3,91c2.9,2.7,3.2,10.7-1,12.5" fill="none" stroke="#be9c57" stroke-linecap="round" stroke-linejoin="round"/><polygon points="254.1 103 251.9 100.6 248.8 101.1 250.3 98.3 248.9 95.5 252 96.1 254.3 93.9 254.7 97 257.5 98.5 254.6 99.8 254.1 103" fill="none" stroke="#be9c57" stroke-linecap="round" stroke-linejoin="round"/><rect x="294.7" y="74.4" width="5.8" height="5.84" transform="translate(-9.8 84.9) rotate(-16)" fill="none" stroke="#be9c57" stroke-linecap="round" stroke-linejoin="round"/><line x1="298.4" y1="80.1" x2="296.8" y2="74.5" fill="none" stroke="#be9c57" stroke-linecap="round" stroke-linejoin="round"/><line x1="294.8" y1="78.1" x2="300.4" y2="76.5" fill="none" stroke="#be9c57" stroke-linecap="round" stroke-linejoin="round"/><path d="M298.4,82.2a2.4,2.4,0,0,0,.1-1.9,3.3,3.3,0,0,0-1.5,1.3c-.4.9-.5,1.7-.1,1.9S298,83.1,298.4,82.2Z" fill="none" stroke="#be9c57" stroke-linecap="round" stroke-linejoin="round"/><path d="M299.9,81.8a3.1,3.1,0,0,1-1.1-1.6,3,3,0,0,1,1.9.3c.9.5,1.4,1.2,1.2,1.6S300.8,82.3,299.9,81.8Z" fill="none" stroke="#be9c57" stroke-linecap="round" stroke-linejoin="round"/><circle cx="311.5" cy="93.1" r="11.9" fill="none" stroke="#be9c57" stroke-linecap="round" stroke-linejoin="round"/><polyline points="308.3 105.4 308.3 109.2 313.7 109.2 313.7 105.4" fill="none" stroke="#be9c57" stroke-linecap="round" stroke-linejoin="round"/><path d="M322.3,95.1c-3.2,0-17.1,3.3-19.2,6.3" fill="none" stroke="#be9c57" stroke-linecap="round" stroke-linejoin="round"/><path d="M321.6,86.6c-3.2,0-20.4,3.4-21.9,7.3" fill="none" stroke="#be9c57" stroke-linecap="round" stroke-linejoin="round"/><line x1="319.6" y1="95.4" x2="319.6" y2="86.8" fill="#231f20" stroke="#be9c57" stroke-linecap="round" stroke-linejoin="round"/><line x1="315.7" y1="96.2" x2="315.7" y2="87.9" fill="#231f20" stroke="#be9c57" stroke-linecap="round" stroke-linejoin="round"/><line x1="311.9" y1="97.2" x2="311.9" y2="88.9" fill="#231f20" stroke="#be9c57" stroke-linecap="round" stroke-linejoin="round"/><line x1="308" y1="98.4" x2="308" y2="90" fill="#231f20" stroke="#be9c57" stroke-linecap="round" stroke-linejoin="round"/><line x1="304.1" y1="100.3" x2="304.1" y2="91" fill="#231f20" stroke="#be9c57" stroke-linecap="round" stroke-linejoin="round"/><line x1="311" y1="109.2" x2="311" y2="121.7" fill="none" stroke="#be9c57" stroke-linecap="round" stroke-linejoin="round"/><path d="M278,98.3a10,10,0,0,0,5.1-13.1,7.9,7.9,0,0,0-10.5-4,6.3,6.3,0,0,0-3.2,8.3,5,5,0,0,0,6.7,2.6,4,4,0,0,0,2-5.3" fill="none" stroke="#be9c57" stroke-linecap="round" stroke-linejoin="round"/><path d="M245.4,121.7c.5-20.4,1.2-48.3,1.1-50.8" fill="none" stroke="#be9c57" stroke-linecap="round" stroke-linejoin="round"/><path d="M297,96.8a14.5,14.5,0,0,1-7.4,19.4,11.6,11.6,0,0,1-15.5-5.9,9.4,9.4,0,0,1,4.7-12.4,7.6,7.6,0,0,1,10,3.8,6,6,0,0,1-3.1,7.9,4.8,4.8,0,0,1-6.3-2.4,3.9,3.9,0,0,1,1.9-5.1,3.1,3.1,0,0,1,4.1,1.6" fill="none" stroke="#be9c57" stroke-linecap="round" stroke-linejoin="round"/><path d="M301.7,109.2a7.1,7.1,0,0,1,4.1-2.2,6.6,6.6,0,0,1-.7,4.6c-1.3,1.9-4.1,2.2-4.1,2.2A6.6,6.6,0,0,1,301.7,109.2Z" fill="none" stroke="#be9c57" stroke-linecap="round" stroke-linejoin="round"/><path d="M284.8,117.3c8.9,1.4,14.4-1.1,16.3-3.7" fill="none" stroke="#be9c57" stroke-linecap="round" stroke-linejoin="round"/><path d="M254.8,84a5.2,5.2,0,0,0,8.5,6.1l1.4-1.9a1.3,1.3,0,0,0-.4-1.8,1.2,1.2,0,0,0-1.8.3l-1.3,1.9a2.8,2.8,0,0,1-3.7.6,2.7,2.7,0,0,1-.6-3.6" fill="none" stroke="#be9c57" stroke-miterlimit="10"/><path d="M256.9,85.6l7.5-10.5a1.3,1.3,0,1,0-2.1-1.5L254.8,84" fill="none" stroke="#be9c57" stroke-miterlimit="10"/><line x1="261.2" y1="88.6" x2="263.3" y2="90.1" fill="none" stroke="#be9c57" stroke-miterlimit="10"/><line x1="258.6" y1="92.3" x2="258.8" y2="89.7" fill="none" stroke="#be9c57" stroke-miterlimit="10"/><line x1="257" y1="85.6" x2="254.9" y2="84.1" fill="none" stroke="#be9c57" stroke-miterlimit="10"/><line x1="259.1" y1="82.7" x2="257" y2="81.1" fill="none" stroke="#be9c57" stroke-miterlimit="10"/><line x1="261.2" y1="79.8" x2="259" y2="78.2" fill="none" stroke="#be9c57" stroke-miterlimit="10"/><line x1="263.2" y1="76.9" x2="261.1" y2="75.3" fill="none" stroke="#be9c57" stroke-miterlimit="10"/><line x1="254.4" y1="89.3" x2="256.8" y2="88.2" fill="none" stroke="#be9c57" stroke-miterlimit="10"/><circle cx="200.9" cy="77.9" r="1.8" fill="none" stroke="#be9c57" stroke-linecap="round" stroke-linejoin="round"/><circle cx="198.4" cy="115.5" r="1.8" fill="none" stroke="#be9c57" stroke-linecap="round" stroke-linejoin="round"/><circle cx="205.2" cy="95.6" r="1.8" fill="none" stroke="#be9c57" stroke-linecap="round" stroke-linejoin="round"/><circle cx="150.6" cy="108.5" r="1.8" fill="none" stroke="#be9c57" stroke-linecap="round" stroke-linejoin="round"/><circle cx="155.7" cy="77.1" r="1.8" fill="none" stroke="#be9c57" stroke-linecap="round" stroke-linejoin="round"/><circle cx="218.6" cy="117.3" r="1.8" fill="none" stroke="#be9c57" stroke-linecap="round" stroke-linejoin="round"/><path d="M175.1,95.1c1.6,1,4.2-1.1,6.2-4.3s1.7-6.5,1.7-8.3a.5.5,0,0,0-.8-.5c-1.5.8-5.1,2.7-6.6,5.2-2.5,4-2.4,6.7-1.5,7.3Z" fill="none" stroke="#be9c57" stroke-linecap="round" stroke-linejoin="round"/><rect x="172.8" y="94.7" width="2.7" height="2.03" transform="translate(271.3 269.1) rotate(-148)" fill="none" stroke="#be9c57" stroke-linecap="round" stroke-linejoin="round"/><line x1="186.3" y1="81.1" x2="186.1" y2="73.5" fill="none" stroke="#be9c57" stroke-linecap="round" stroke-linejoin="round"/><line x1="189.3" y1="74.7" x2="183.2" y2="79.4" fill="none" stroke="#be9c57" stroke-linecap="round" stroke-linejoin="round"/><line x1="183" y1="75" x2="189.5" y2="79.1" fill="none" stroke="#be9c57" stroke-linecap="round" stroke-linejoin="round"/><line x1="207" y1="117.9" x2="208.6" y2="111.9" fill="none" stroke="#be9c57" stroke-linecap="round" stroke-linejoin="round"/><line x1="210.8" y1="113.6" x2="204.9" y2="115.9" fill="none" stroke="#be9c57" stroke-linecap="round" stroke-linejoin="round"/><line x1="205.8" y1="112.4" x2="209.9" y2="117" fill="none" stroke="#be9c57" stroke-linecap="round" stroke-linejoin="round"/><line x1="144.2" y1="105" x2="142.7" y2="98" fill="none" stroke="#be9c57" stroke-linecap="round" stroke-linejoin="round"/><line x1="145.8" y1="98.5" x2="141" y2="103.9" fill="none" stroke="#be9c57" stroke-linecap="round" stroke-linejoin="round"/><line x1="140" y1="99.9" x2="146.8" y2="102.5" fill="none" stroke="#be9c57" stroke-linecap="round" stroke-linejoin="round"/><path d="M201.3,103.5c1.9.6,2.5,5,2.2,6,1.8-.9,7.3-1.7,9.3,1.2a9.7,9.7,0,0,1,8.5-1" fill="none" stroke="#be9c57" stroke-linecap="round" stroke-linejoin="round"/><path d="M221.3,109.7a9,9,0,0,1-6.2-5.6c-3.3,1.2-7.7-2.5-8.6-4.3-.3,1-3.3,4.3-5.2,3.7Z" fill="none" stroke="#be9c57" stroke-linecap="round" stroke-linejoin="round"/><path d="M200.4,91c-2.9,2.7-3.3,10.7.9,12.5" fill="none" stroke="#be9c57" stroke-linecap="round" stroke-linejoin="round"/><polygon points="216.5 103 218.7 100.6 221.9 101.1 220.3 98.3 221.7 95.5 218.6 96.1 216.3 93.9 215.9 97 213.1 98.5 216 99.8 216.5 103" fill="none" stroke="#be9c57" stroke-linecap="round" stroke-linejoin="round"/><rect x="170.1" y="74.4" width="5.8" height="5.84" transform="translate(318.1 199.2) rotate(-164)" fill="none" stroke="#be9c57" stroke-linecap="round" stroke-linejoin="round"/><line x1="172.2" y1="80.1" x2="173.8" y2="74.5" fill="none" stroke="#be9c57" stroke-linecap="round" stroke-linejoin="round"/><line x1="175.8" y1="78.1" x2="170.2" y2="76.5" fill="none" stroke="#be9c57" stroke-linecap="round" stroke-linejoin="round"/><path d="M172.2,82.2a3.1,3.1,0,0,1-.1-1.9,3.3,3.3,0,0,1,1.5,1.3c.4.9.5,1.7.1,1.9S172.7,83.1,172.2,82.2Z" fill="none" stroke="#be9c57" stroke-linecap="round" stroke-linejoin="round"/><path d="M170.7,81.8a3.1,3.1,0,0,0,1.1-1.6,3.1,3.1,0,0,0-1.9.3c-.9.5-1.4,1.2-1.2,1.6S169.8,82.3,170.7,81.8Z" fill="none" stroke="#be9c57" stroke-linecap="round" stroke-linejoin="round"/><circle cx="159.1" cy="93.1" r="11.9" fill="none" stroke="#be9c57" stroke-linecap="round" stroke-linejoin="round"/><polyline points="162.4 105.4 162.4 109.2 156.9 109.2 156.9 105.4" fill="none" stroke="#be9c57" stroke-linecap="round" stroke-linejoin="round"/><path d="M148.3,95.1c3.2,0,17.1,3.3,19.2,6.3" fill="none" stroke="#be9c57" stroke-linecap="round" stroke-linejoin="round"/><path d="M149,86.6c3.2,0,20.4,3.4,21.9,7.3" fill="none" stroke="#be9c57" stroke-linecap="round" stroke-linejoin="round"/><line x1="151" y1="95.4" x2="151" y2="86.8" fill="#231f20" stroke="#be9c57" stroke-linecap="round" stroke-linejoin="round"/><line x1="154.9" y1="96.2" x2="154.9" y2="87.9" fill="#231f20" stroke="#be9c57" stroke-linecap="round" stroke-linejoin="round"/><line x1="158.8" y1="97.2" x2="158.8" y2="88.9" fill="#231f20" stroke="#be9c57" stroke-linecap="round" stroke-linejoin="round"/><line x1="162.6" y1="98.4" x2="162.6" y2="90" fill="#231f20" stroke="#be9c57" stroke-linecap="round" stroke-linejoin="round"/><line x1="166.5" y1="100.3" x2="166.5" y2="91" fill="#231f20" stroke="#be9c57" stroke-linecap="round" stroke-linejoin="round"/><line x1="159.6" y1="109.2" x2="159.6" y2="121.7" fill="none" stroke="#be9c57" stroke-linecap="round" stroke-linejoin="round"/><path d="M192.6,98.3a9.8,9.8,0,0,1-5-13.1,7.8,7.8,0,0,1,10.4-4,6.3,6.3,0,0,1,3.2,8.3,5,5,0,0,1-6.7,2.6,4,4,0,0,1-2-5.3" fill="none" stroke="#be9c57" stroke-linecap="round" stroke-linejoin="round"/><path d="M225.3,121.7c-.6-20.4-1.3-48.3-1.2-50.8" fill="none" stroke="#be9c57" stroke-linecap="round" stroke-linejoin="round"/><path d="M173.6,96.8a14.7,14.7,0,0,0,7.4,19.4,11.6,11.6,0,0,0,15.5-5.9,9.3,9.3,0,0,0-4.7-12.4,7.6,7.6,0,0,0-10,3.8,6,6,0,0,0,3.1,7.9,4.9,4.9,0,0,0,6.4-2.4,3.9,3.9,0,0,0-2-5.1,3.1,3.1,0,0,0-4.1,1.6" fill="none" stroke="#be9c57" stroke-linecap="round" stroke-linejoin="round"/><path d="M168.9,109.2c-1.3-1.8-4.1-2.2-4.1-2.2a6.6,6.6,0,0,0,.7,4.6c1.3,1.9,4.1,2.2,4.1,2.2A6.6,6.6,0,0,0,168.9,109.2Z" fill="none" stroke="#be9c57" stroke-linecap="round" stroke-linejoin="round"/><path d="M185.8,117.3c-8.8,1.4-14.4-1.1-16.3-3.7" fill="none" stroke="#be9c57" stroke-linecap="round" stroke-linejoin="round"/><path d="M215.9,84a5.3,5.3,0,0,1-8.6,6.1L206,88.2a1.3,1.3,0,1,1,2.1-1.5l1.4,1.9a2.6,2.6,0,0,0,4.2-3" fill="none" stroke="#be9c57" stroke-miterlimit="10"/><path d="M213.7,85.6l-7.5-10.5a1.3,1.3,0,0,1,.3-1.8,1.2,1.2,0,0,1,1.8.3L215.9,84" fill="none" stroke="#be9c57" stroke-miterlimit="10"/><line x1="209.5" y1="88.6" x2="207.3" y2="90.1" fill="none" stroke="#be9c57" stroke-miterlimit="10"/><line x1="212.1" y1="92.3" x2="211.8" y2="89.7" fill="none" stroke="#be9c57" stroke-miterlimit="10"/><line x1="213.6" y1="85.6" x2="215.8" y2="84.1" fill="none" stroke="#be9c57" stroke-miterlimit="10"/><line x1="211.5" y1="82.7" x2="213.7" y2="81.1" fill="none" stroke="#be9c57" stroke-miterlimit="10"/><line x1="209.5" y1="79.8" x2="211.6" y2="78.2" fill="none" stroke="#be9c57" stroke-miterlimit="10"/><line x1="207.4" y1="76.9" x2="209.6" y2="75.3" fill="none" stroke="#be9c57" stroke-miterlimit="10"/><line x1="216.3" y1="89.3" x2="213.9" y2="88.2" fill="none" stroke="#be9c57" stroke-miterlimit="10"/><circle cx="363" cy="160.9" r="1.8" fill="none" stroke="#be9c57" stroke-linecap="round" stroke-linejoin="round"/><circle cx="396.1" cy="183" r="1.8" fill="none" stroke="#be9c57" stroke-linecap="round" stroke-linejoin="round"/><circle cx="361.2" cy="235.7" r="1.8" fill="none" stroke="#be9c57" stroke-linecap="round" stroke-linejoin="round"/><circle cx="398.3" cy="227.9" r="1.8" fill="none" stroke="#be9c57" stroke-linecap="round" stroke-linejoin="round"/><circle cx="390.1" cy="280" r="1.8" fill="none" stroke="#be9c57" stroke-linecap="round" stroke-linejoin="round"/><circle cx="372.3" cy="330.9" r="1.8" fill="none" stroke="#be9c57" stroke-linecap="round" stroke-linejoin="round"/><circle cx="367.4" cy="298.5" r="1.8" fill="none" stroke="#be9c57" stroke-linecap="round" stroke-linejoin="round"/><path d="M374.8,250.4c1-2-1.7-4.8-5.7-6.8s-7.8-1.4-9.9-1.2a.6.6,0,0,0-.5,1c1.1,1.7,3.8,5.7,6.8,7.3,5,2.5,8.1,2.1,8.7.9Z" fill="none" stroke="#be9c57" stroke-linecap="round" stroke-linejoin="round"/><rect x="374" y="250.2" width="3.2" height="2.4" transform="translate(769.4 29.4) rotate(116.8)" fill="none" stroke="#be9c57" stroke-linecap="round" stroke-linejoin="round"/><line x1="359" y1="252.5" x2="360.6" y2="259.5" fill="none" stroke="#be9c57" stroke-linecap="round" stroke-linejoin="round"/><line x1="357.5" y1="259" x2="362.2" y2="253.6" fill="none" stroke="#be9c57" stroke-linecap="round" stroke-linejoin="round"/><line x1="363.2" y1="257.6" x2="356.5" y2="255" fill="none" stroke="#be9c57" stroke-linecap="round" stroke-linejoin="round"/><line x1="370.2" y1="151" x2="373.4" y2="157.4" fill="none" stroke="#be9c57" stroke-linecap="round" stroke-linejoin="round"/><line x1="370.3" y1="157.7" x2="373.5" y2="151.2" fill="none" stroke="#be9c57" stroke-linecap="round" stroke-linejoin="round"/><line x1="375.5" y1="154.8" x2="368.3" y2="154" fill="none" stroke="#be9c57" stroke-linecap="round" stroke-linejoin="round"/><line x1="391.5" y1="288.3" x2="396.7" y2="295.9" fill="none" stroke="#be9c57" stroke-linecap="round" stroke-linejoin="round"/><line x1="392.7" y1="296.7" x2="395.8" y2="288" fill="none" stroke="#be9c57" stroke-linecap="round" stroke-linejoin="round"/><line x1="398.9" y1="292.3" x2="389.6" y2="292.4" fill="none" stroke="#be9c57" stroke-linecap="round" stroke-linejoin="round"/><path d="M391.3,160.9c-1.3-1.2-5.2.3-5.9,1,0-1.9-2-6.7-5.3-7.1.3-2.3-.8-5.1-3.1-7.3" fill="none" stroke="#be9c57" stroke-linecap="round" stroke-linejoin="round"/><path d="M377,147.5a8.4,8.4,0,0,0,7.4,2.4c.6,3.3,5.6,5.1,7.5,5.1-.6.7-1.9,4.7-.6,5.9Z" fill="none" stroke="#be9c57" stroke-linecap="round" stroke-linejoin="round"/><path d="M391.3,160.9c3,3,7.5,7.3,6.9,13" fill="none" stroke="#be9c57" stroke-linecap="round" stroke-linejoin="round"/><path d="M385.9,300c1,2.1,6.2,2.1,7.3,1.6-.8,2.2-.9,8.7,2.8,10.7-1.5,2.4-1.6,6.2.1,9.8" fill="none" stroke="#be9c57" stroke-linecap="round" stroke-linejoin="round"/><path d="M396.1,322.1a11,11,0,0,0-7.4-6.3c.9-4-4.1-8.4-6.3-9.3,1.1-.5,4.5-4.4,3.5-6.5Z" fill="none" stroke="#be9c57" stroke-linecap="round" stroke-linejoin="round"/><path d="M385.9,300c-2.1-4.8-5.1-11.9-1.8-18.2" fill="none" stroke="#be9c57" stroke-linecap="round" stroke-linejoin="round"/><path d="M361.5,171.9a1.5,1.5,0,0,1,.4-2.1c6.1-4.5,14.4-9.4,19.8-5.9,2.4,1.5,5.8,5.1,8,7.7,6.7,8.2-2.2,16-8.1,9.3l-3.4-3.6a3.5,3.5,0,0,0-4.7-.4c-1.7,1.2-3.3,2.6-4.4,3.4a1.4,1.4,0,0,1-2-.4Z" fill="none" stroke="#be9c57" stroke-linecap="round" stroke-linejoin="round"/><path d="M365.7,167.2c2.3,1.2,6.3,7.2,6.6,10.6" fill="none" stroke="#be9c57" stroke-linecap="round" stroke-linejoin="round"/><path d="M358.9,173.1c1.3,0,2.3-1.9,2.3-1.9s-1-1.9-2.3-1.9a2.1,2.1,0,0,0-2.3,1.9A2.1,2.1,0,0,0,358.9,173.1Z" fill="none" stroke="#be9c57" stroke-linecap="round" stroke-linejoin="round"/><path d="M376.1,317.1c1.8-5.6,3.4-10.6-1.9-12.3s-6.9,3.3-8.7,8.9c-.8,2.5-5.4,3.5-5.7,4.4s6.6,3.4,8.8,4.1,9.1,2.9,9.4,1.9S375.2,319.6,376.1,317.1Z" fill="none" stroke="#be9c57" stroke-linecap="round" stroke-linejoin="round"/><path d="M363.8,315.7c1.4,1,10.8,4.1,12.4,4.1" fill="none" stroke="#be9c57" stroke-linecap="round" stroke-linejoin="round"/><path d="M365.8,312.8c.8.7,9.6,3.5,10.5,3.5" fill="none" stroke="#be9c57" stroke-linecap="round" stroke-linejoin="round"/><path d="M375.8,305.4a1.9,1.9,0,0,0-1-2.4,1.9,1.9,0,0,0-2.2,1.3" fill="none" stroke="#be9c57" stroke-linecap="round" stroke-linejoin="round"/><polygon points="362.2 186.3 360 188.6 356.9 188.1 358.4 190.9 357 193.8 360.1 193.2 362.4 195.4 362.8 192.2 365.6 190.7 362.7 189.4 362.2 186.3" fill="none" stroke="#be9c57" stroke-linecap="round" stroke-linejoin="round"/><polygon points="382.9 318.8 383.3 321.9 380.9 324 384 324.6 385.3 327.6 386.8 324.8 390 324.5 387.8 322.1 388.5 319 385.6 320.4 382.9 318.8" fill="none" stroke="#be9c57" stroke-linecap="round" stroke-linejoin="round"/><rect x="390.7" y="264.9" width="9.3" height="9.29" transform="translate(48.7 599.4) rotate(-77.9)" fill="none" stroke="#be9c57" stroke-linecap="round" stroke-linejoin="round"/><line x1="390.8" y1="268.5" x2="399.9" y2="270.5" fill="none" stroke="#be9c57" stroke-linecap="round" stroke-linejoin="round"/><line x1="394.4" y1="274.1" x2="396.3" y2="265" fill="none" stroke="#be9c57" stroke-linecap="round" stroke-linejoin="round"/><path d="M387.4,268.8a4.4,4.4,0,0,1,3.1-.5,4.7,4.7,0,0,1-1.9,2.5c-1.4.8-2.8,1-3.1.5S386,269.6,387.4,268.8Z" fill="none" stroke="#be9c57" stroke-linecap="round" stroke-linejoin="round"/><path d="M387.9,266.3a4.5,4.5,0,0,0,2.7,1.6,4.9,4.9,0,0,0-.7-3c-.9-1.3-2.1-2.1-2.7-1.7S387,265,387.9,266.3Z" fill="none" stroke="#be9c57" stroke-linecap="round" stroke-linejoin="round"/><path d="M353,202.3c22.1-.4,49-.8,50.8-.7" fill="none" stroke="#be9c57" stroke-linecap="round" stroke-linejoin="round"/><path d="M353,221.3l50.8.7" fill="none" stroke="#be9c57" stroke-linecap="round" stroke-linejoin="round"/><path d="M387.2,259.5a19.3,19.3,0,0,0-26.4,7.2,15.4,15.4,0,0,0,5.7,21.1,12.4,12.4,0,0,0,16.9-4.5,10,10,0,0,0-3.6-13.6,8,8,0,0,0-10.9,3,6.3,6.3,0,0,0,2.4,8.6,5,5,0,0,0,6.9-1.9,4,4,0,0,0-1.5-5.5" fill="none" stroke="#be9c57" stroke-linecap="round" stroke-linejoin="round"/><path d="M387.3,259.4a12.2,12.2,0,0,1-5.7-16.4,9.8,9.8,0,0,1,13.2-4.5,7.8,7.8,0,0,1,3.6,10.5,6.3,6.3,0,0,1-8.4,2.9,5,5,0,0,1-2.3-6.8,4,4,0,0,1,5.4-1.8" fill="none" stroke="#be9c57" stroke-linecap="round" stroke-linejoin="round"/><path d="M384.5,194.6a9.8,9.8,0,0,0-7.9-11.4,7.7,7.7,0,0,0-9.1,6.3,6.2,6.2,0,0,0,5,7.3,5.1,5.1,0,0,0,5.9-4.1,4,4,0,0,0-3.3-4.6,3.1,3.1,0,0,0-3.7,2.5" fill="none" stroke="#be9c57" stroke-linecap="round" stroke-linejoin="round"/><path d="M384.7,194.5a6.7,6.7,0,0,1,6.1-7.3,5.3,5.3,0,0,1,5.9,4.9,4.3,4.3,0,0,1-3.9,4.7,3.5,3.5,0,0,1-3.8-3.1,2.7,2.7,0,0,1,2.5-3,2.2,2.2,0,0,1,2.4,2" fill="none" stroke="#be9c57" stroke-linecap="round" stroke-linejoin="round"/><path d="M368.2,288.6a11,11,0,0,1,6.6,14.3" fill="none" stroke="#be9c57" stroke-linecap="round" stroke-linejoin="round"/><line x1="353.4" y1="231" x2="365.4" y2="231" fill="none" stroke="#be9c57" stroke-linecap="round" stroke-linejoin="round"/><path d="M391.5,230.9c-5.9,0-8.9-6.4-15.9-6.4s-7.2,5.3-8.7,5.3h-1.2v2.3h1.2c1.5,0,1.8,5.3,8.7,5.3s10-6.5,15.9-6.5" fill="none" stroke="#be9c57" stroke-linecap="round" stroke-linejoin="round"/><path d="M372.8,224.9c0,1.2-1.7,9.8-2.7,10.8" fill="none" stroke="#be9c57" stroke-linecap="round" stroke-linejoin="round"/><path d="M378.5,224.9c0,1.3-1.9,11.5-2.9,12.5" fill="none" stroke="#be9c57" stroke-linecap="round" stroke-linejoin="round"/><path d="M380.4,225.6c0,1.3-1.8,10.1-2.6,11.6" fill="none" stroke="#be9c57" stroke-linecap="round" stroke-linejoin="round"/><path d="M356.3,299.1a6.4,6.4,0,0,0-1.2,4.4s2.8,0,4.3-1.7a6.7,6.7,0,0,0,1.2-4.5A6.2,6.2,0,0,0,356.3,299.1Z" fill="none" stroke="#be9c57" stroke-linecap="round" stroke-linejoin="round"/><path d="M360.1,280.7c3.5,8.3,2.4,14.3.3,16.7" fill="none" stroke="#be9c57" stroke-linecap="round" stroke-linejoin="round"/></g><g id="Die_Line" data-name="Die Line"><polyline points="128.6 134.3 128.6 131.3 131.6 131.3" fill="none" stroke="#be9c57" stroke-linecap="round" stroke-linejoin="round"/><line x1="135.5" y1="131.3" x2="338.6" y2="131.3" fill="none" stroke="#be9c57" stroke-linecap="round" stroke-linejoin="round" stroke-dasharray="5.86 3.91"/><polyline points="340.6 131.3 343.6 131.3 343.6 134.3" fill="none" stroke="#be9c57" stroke-linecap="round" stroke-linejoin="round"/><line x1="343.6" y1="138.2" x2="343.6" y2="341.4" fill="none" stroke="#be9c57" stroke-linecap="round" stroke-linejoin="round" stroke-dasharray="5.86 3.91"/><polyline points="343.6 343.3 343.6 346.3 340.6 346.3" fill="none" stroke="#be9c57" stroke-linecap="round" stroke-linejoin="round"/><line x1="336.7" y1="346.3" x2="133.5" y2="346.3" fill="none" stroke="#be9c57" stroke-linecap="round" stroke-linejoin="round" stroke-dasharray="5.86 3.91"/><polyline points="131.6 346.3 128.6 346.3 128.6 343.3" fill="none" stroke="#be9c57" stroke-linecap="round" stroke-linejoin="round"/><line x1="128.6" y1="339.4" x2="128.6" y2="136.3" fill="none" stroke="#be9c57" stroke-linecap="round" stroke-linejoin="round" stroke-dasharray="5.86 3.91"/><polyline points="343.6 131.3 383.7 127.2 383.7 64.3 343.6 60.3 341.3 7.5 130.3 7.5 128.3 60.5 88.4 64.3 88.4 127.2 128.6 131.3" fill="none" stroke="#be9c57" stroke-linecap="round" stroke-linejoin="round" stroke-width="3"/><line x1="343.6" y1="60.3" x2="343.6" y2="131.3" fill="none" stroke="#be9c57" stroke-linecap="round" stroke-linejoin="round" stroke-dasharray="6 4"/><line x1="128.6" y1="60.3" x2="128.6" y2="131.3" fill="none" stroke="#be9c57" stroke-linecap="round" stroke-linejoin="round" stroke-dasharray="6 4"/><polyline points="128.5 346.3 88.4 350.4 88.4 413.3 128.6 417.3 130.8 470.1 341.8 470.1 343.8 417.1 383.7 413.3 383.7 350.4 343.6 346.3" fill="none" stroke="#be9c57" stroke-linecap="round" stroke-linejoin="round" stroke-width="3"/><line x1="343.8" y1="417.1" x2="340.8" y2="417.1" fill="none" stroke="#be9c57" stroke-linecap="round" stroke-linejoin="round"/><line x1="336.9" y1="417.1" x2="133.5" y2="417.1" fill="none" stroke="#be9c57" stroke-linecap="round" stroke-linejoin="round" stroke-dasharray="5.87 3.91"/><line x1="131.6" y1="417.1" x2="128.6" y2="417.1" fill="none" stroke="#be9c57" stroke-linecap="round" stroke-linejoin="round"/><line x1="128.6" y1="417.3" x2="128.6" y2="346.3" fill="none" stroke="#be9c57" stroke-linecap="round" stroke-linejoin="round" stroke-dasharray="6 4"/><line x1="343.6" y1="417.3" x2="343.6" y2="346.3" fill="none" stroke="#be9c57" stroke-linecap="round" stroke-linejoin="round" stroke-dasharray="6 4"/><polyline points="128.6 131.3 57.6 131.3 4.6 133.3 4.6 344.3 57.6 346.3 128.6 346.3" fill="none" stroke="#be9c57" stroke-linecap="round" stroke-linejoin="round" stroke-width="3"/><line x1="57.6" y1="346.3" x2="57.6" y2="343.3" fill="none" stroke="#be9c57" stroke-linecap="round" stroke-linejoin="round"/><line x1="57.6" y1="339.4" x2="57.6" y2="136.3" fill="none" stroke="#be9c57" stroke-linecap="round" stroke-linejoin="round" stroke-dasharray="5.86 3.91"/><line x1="57.6" y1="134.3" x2="57.6" y2="131.3" fill="none" stroke="#be9c57" stroke-linecap="round" stroke-linejoin="round"/><polyline points="343.6 346.3 414.6 346.3 467.6 344.3 467.6 133.3 414.6 131.3 343.6 131.3" fill="none" stroke="#be9c57" stroke-linecap="round" stroke-linejoin="round" stroke-width="3"/><line x1="414.6" y1="131.3" x2="414.6" y2="134.3" fill="none" stroke="#be9c57" stroke-linecap="round" stroke-linejoin="round"/><line x1="414.6" y1="138.2" x2="414.6" y2="341.4" fill="none" stroke="#be9c57" stroke-linecap="round" stroke-linejoin="round" stroke-dasharray="5.86 3.91"/><line x1="414.6" y1="343.3" x2="414.6" y2="346.3" fill="none" stroke="#be9c57" stroke-linecap="round" stroke-linejoin="round"/><line x1="128.6" y1="60.3" x2="131.6" y2="60.3" fill="none" stroke="#be9c57" stroke-linecap="round" stroke-linejoin="round"/><line x1="135.5" y1="60.3" x2="338.6" y2="60.3" fill="none" stroke="#be9c57" stroke-linecap="round" stroke-linejoin="round" stroke-dasharray="5.86 3.91"/><line x1="340.6" y1="60.3" x2="343.6" y2="60.3" fill="none" stroke="#be9c57" stroke-linecap="round" stroke-linejoin="round"/></g><g id="Notes"><path d="M218.8,28.4a3,3,0,0,1,1.5,2.3h-1.1a2.1,2.1,0,0,0-.9-1.3,2.8,2.8,0,0,0-1.6-.5,2.7,2.7,0,0,0-2,.9,4.1,4.1,0,0,0-.8,2.7,3.9,3.9,0,0,0,.7,2.5,2.4,2.4,0,0,0,2.1,1,2.6,2.6,0,0,0,2.7-2.9h-2.7v-1h3.8v4.6h-.8l-.3-1.1a2,2,0,0,1-1,.9,3.6,3.6,0,0,1-1.9.5,4,4,0,0,1-2.6-1,4.9,4.9,0,0,1-1.2-3.4,5,5,0,0,1,1.2-3.5,3.6,3.6,0,0,1,2.8-1.2A4.6,4.6,0,0,1,218.8,28.4Z" fill="#6b6b6b"/><path d="M222.3,28.1h1v8.6h-1Z" fill="#6b6b6b"/><path d="M226,30.5v4.1a1.9,1.9,0,0,0,.1.8,1,1,0,0,0,1,.6,1.5,1.5,0,0,0,1.5-1,5.4,5.4,0,0,0,.2-1.5v-3h1.1v6.2h-1v-.9c-.2.3-.3.5-.5.6a2.5,2.5,0,0,1-1.5.5,1.8,1.8,0,0,1-1.7-.9,2.3,2.3,0,0,1-.3-1.3V30.5Z" fill="#6b6b6b"/><path d="M235.5,30.6a2.4,2.4,0,0,1,.9.8,2.5,2.5,0,0,1,.4,1.2,4.2,4.2,0,0,1,.1,1.3h-4.5a2.5,2.5,0,0,0,.4,1.6,1.7,1.7,0,0,0,2.6,0,2.5,2.5,0,0,0,.4-.7h1a1.9,1.9,0,0,1-.2.7l-.5.7a3.7,3.7,0,0,1-1.2.7H234a2.7,2.7,0,0,1-2-.9,4,4,0,0,1,0-4.8,2.7,2.7,0,0,1,2.2-1A3.1,3.1,0,0,1,235.5,30.6Zm.3,2.5a1.8,1.8,0,0,0-.3-1.1,1.4,1.4,0,0,0-1.4-.8,1.4,1.4,0,0,0-1.2.6,1.9,1.9,0,0,0-.5,1.3Z" fill="#6b6b6b"/><path d="M247.8,28.1v1.1h-2.9v7.5h-1.2V29.2h-2.9V28.1Z" fill="#6b6b6b"/><path d="M250.8,32.9c.2,0,.4-.1.4-.3s.1-.2.1-.4a.9.9,0,0,0-.4-.8l-1.1-.2a1.6,1.6,0,0,0-1.1.4,1.1,1.1,0,0,0-.3.8h-1a1.7,1.7,0,0,1,.8-1.6,3.1,3.1,0,0,1,1.7-.5,3.9,3.9,0,0,1,1.7.4,1.5,1.5,0,0,1,.7,1.3v3.9c0,.1.1.1.3.1h.3v.8c-.1,0-.3,0-.3.1h-.4a1,1,0,0,1-.8-.4c-.1-.1-.1-.3-.2-.6a2.2,2.2,0,0,1-.9.7,2.8,2.8,0,0,1-1.3.3,2,2,0,0,1-1.5-.5,1.9,1.9,0,0,1-.5-1.3,2.2,2.2,0,0,1,.5-1.4,2.5,2.5,0,0,1,1.5-.5Zm-2.3,2.9a1.3,1.3,0,0,0,.8.3,2,2,0,0,0,1.1-.3,1.5,1.5,0,0,0,.9-1.4v-.9l-.5.3h-1.3l-.8.2a1.1,1.1,0,0,0-.5.9A.9.9,0,0,0,248.5,35.8Z" fill="#6b6b6b"/><path d="M254,28.1h1v3.1a2.7,2.7,0,0,1,.8-.7l1.1-.2a2.6,2.6,0,0,1,1.9.8,3.3,3.3,0,0,1,.7,2.4,4.1,4.1,0,0,1-.7,2.5,2.5,2.5,0,0,1-2,.9,2.1,2.1,0,0,1-1.2-.3l-.7-.7v.8H254Zm4,7.2a3,3,0,0,0,.4-1.8,2.7,2.7,0,0,0-.4-1.6,1.5,1.5,0,0,0-1.2-.7,1.6,1.6,0,0,0-1.3.6,2.1,2.1,0,0,0-.6,1.7,3.3,3.3,0,0,0,.3,1.5,1.4,1.4,0,0,0,1.5,1A1.4,1.4,0,0,0,258,35.3Z" fill="#6b6b6b"/><path d="M218.8,438.1a3,3,0,0,1,1.5,2.3h-1.1a2.1,2.1,0,0,0-.9-1.3,2.8,2.8,0,0,0-1.6-.5,2.7,2.7,0,0,0-2,.9,4.1,4.1,0,0,0-.8,2.7,3.9,3.9,0,0,0,.7,2.5,2.4,2.4,0,0,0,2.1,1,2.6,2.6,0,0,0,2.7-2.9h-2.7v-1h3.8v4.6h-.8l-.3-1.1a2,2,0,0,1-1,.9,3.6,3.6,0,0,1-1.9.5,4,4,0,0,1-2.6-1,4.9,4.9,0,0,1-1.2-3.4,5,5,0,0,1,1.2-3.5,3.6,3.6,0,0,1,2.8-1.2A4.6,4.6,0,0,1,218.8,438.1Z" fill="#6b6b6b"/><path d="M222.3,437.8h1v8.6h-1Z" fill="#6b6b6b"/><path d="M226,440.2v4.1a1.9,1.9,0,0,0,.1.8,1,1,0,0,0,1,.6,1.5,1.5,0,0,0,1.5-1,5.4,5.4,0,0,0,.2-1.5v-3h1.1v6.2h-1v-.9c-.2.2-.3.5-.5.6a2.5,2.5,0,0,1-1.5.5,1.8,1.8,0,0,1-1.7-.9,2.3,2.3,0,0,1-.3-1.3v-4.2Z" fill="#6b6b6b"/><path d="M235.5,440.3a2.4,2.4,0,0,1,.9.8,2.5,2.5,0,0,1,.4,1.2,4.2,4.2,0,0,1,.1,1.3h-4.5a2.5,2.5,0,0,0,.4,1.6,1.7,1.7,0,0,0,2.6,0,2.5,2.5,0,0,0,.4-.7h1a1.9,1.9,0,0,1-.2.7l-.5.7a3.7,3.7,0,0,1-1.2.7H234a2.7,2.7,0,0,1-2-.9,4,4,0,0,1,0-4.8,2.7,2.7,0,0,1,2.2-1A3.1,3.1,0,0,1,235.5,440.3Zm.3,2.5a1.8,1.8,0,0,0-.3-1.1,1.4,1.4,0,0,0-1.4-.8,1.4,1.4,0,0,0-1.2.6,1.9,1.9,0,0,0-.5,1.3Z" fill="#6b6b6b"/><path d="M247.8,437.8v1.1h-2.9v7.5h-1.2v-7.5h-2.9v-1.1Z" fill="#6b6b6b"/><path d="M250.8,442.6c.2,0,.4-.1.4-.3s.1-.2.1-.4a.9.9,0,0,0-.4-.8l-1.1-.2a1.2,1.2,0,0,0-1.1.4,1.1,1.1,0,0,0-.3.8h-1a1.7,1.7,0,0,1,.8-1.6,3.1,3.1,0,0,1,1.7-.5,2.9,2.9,0,0,1,1.7.4,1.4,1.4,0,0,1,.7,1.3v3.7a.3.3,0,0,0,.1.2h.6v.8c-.1,0-.3,0-.3.1h-.4a1,1,0,0,1-.8-.4,4.2,4.2,0,0,1-.2-.6,2.2,2.2,0,0,1-.9.7,2.8,2.8,0,0,1-1.3.3,2,2,0,0,1-1.5-.5,1.9,1.9,0,0,1-.5-1.3,2.2,2.2,0,0,1,.5-1.4,2.5,2.5,0,0,1,1.5-.5Zm-2.3,2.9a1.3,1.3,0,0,0,.8.3,2,2,0,0,0,1.1-.3,1.5,1.5,0,0,0,.9-1.4v-.9l-.5.3h-1.3l-.8.2a1.1,1.1,0,0,0-.5.9A.9.9,0,0,0,248.5,445.5Z" fill="#6b6b6b"/><path d="M254,437.8h1v3.1a2.7,2.7,0,0,1,.8-.7l1.1-.2a2.6,2.6,0,0,1,1.9.8,3.3,3.3,0,0,1,.7,2.4,4.1,4.1,0,0,1-.7,2.5,2.5,2.5,0,0,1-2,.9,2.1,2.1,0,0,1-1.2-.3l-.7-.7v.8H254Zm4,7.2a3,3,0,0,0,.4-1.8,2.7,2.7,0,0,0-.4-1.6,1.5,1.5,0,0,0-1.2-.7,1.6,1.6,0,0,0-1.3.6,2.1,2.1,0,0,0-.6,1.7,3.3,3.3,0,0,0,.3,1.5,1.4,1.4,0,0,0,1.5,1A1.4,1.4,0,0,0,258,445Z" fill="#6b6b6b"/><path d="M446.2,219.2a3,3,0,0,1-2.3,1.5v-1.1a2.1,2.1,0,0,0,1.3-.9,2.8,2.8,0,0,0,.5-1.6,2.5,2.5,0,0,0-.9-2,4.1,4.1,0,0,0-2.7-.8,3.9,3.9,0,0,0-2.5.7,2.4,2.4,0,0,0-1,2.1,2.6,2.6,0,0,0,2.9,2.7v-2.7h1v3.8h-4.6v-.8l1.1-.3a2,2,0,0,1-.9-1,3.6,3.6,0,0,1-.5-1.9,4,4,0,0,1,1-2.6,4.7,4.7,0,0,1,3.4-1.2,5,5,0,0,1,3.5,1.2,3.6,3.6,0,0,1,1.2,2.8A4.6,4.6,0,0,1,446.2,219.2Z" fill="#6b6b6b"/><path d="M446.5,222.7v1h-8.6v-1Z" fill="#6b6b6b"/><path d="M444.1,226.4h-4.9a1,1,0,0,0-.6,1,1.4,1.4,0,0,0,1,1.5l1.5.2h3v1.1h-6.2v-1h.9c-.3-.2-.5-.3-.6-.5a2.5,2.5,0,0,1-.5-1.5,2,2,0,0,1,.9-1.8l1.3-.2h4.2Z" fill="#6b6b6b"/><path d="M444,235.9a2,2,0,0,1-.9.9,1.8,1.8,0,0,1-1.1.4h-1.3v-4.5a2.5,2.5,0,0,0-1.6.4,1.5,1.5,0,0,0-.6,1.3,1.6,1.6,0,0,0,.6,1.3l.7.4v1l-.7-.2a2.2,2.2,0,0,1-.7-.6,1.9,1.9,0,0,1-.7-1.1c0-.3-.1-.6-.1-.9a2.7,2.7,0,0,1,.9-2,4,4,0,0,1,4.8,0,2.7,2.7,0,0,1,1,2.2A3.5,3.5,0,0,1,444,235.9Zm-2.5.3a1.8,1.8,0,0,0,1.1-.3,1.4,1.4,0,0,0,.8-1.4,1.4,1.4,0,0,0-.6-1.2,1.9,1.9,0,0,0-1.3-.5Z" fill="#6b6b6b"/><path d="M446.5,248.2h-1.1v-2.9h-7.5v-1.2h7.5v-2.9h1.1Z" fill="#6b6b6b"/><path d="M441.7,251.1a.5.5,0,0,0,.3.5h.4a.9.9,0,0,0,.8-.4,2.7,2.7,0,0,0,.2-1.1,1.3,1.3,0,0,0-.5-1.1.8.8,0,0,0-.7-.3v-1a1.7,1.7,0,0,1,1.6.8,3,3,0,0,1,.5,1.6,4,4,0,0,1-.4,1.8,1.5,1.5,0,0,1-1.3.7h-3.7c-.1,0-.2,0-.2.1s-.1.1-.1.3h0v.2h-.8a.6.6,0,0,0-.1-.4v-.3a1,1,0,0,1,.4-.8l.6-.2a2.2,2.2,0,0,1-.7-.9,2.8,2.8,0,0,1-.4-1.3,2,2,0,0,1,.6-1.5,1.9,1.9,0,0,1,1.3-.5,2.2,2.2,0,0,1,1.4.5,2.5,2.5,0,0,1,.5,1.5Zm-2.9-2.2a1.1,1.1,0,0,0-.3.8,2.3,2.3,0,0,0,.3,1.1,1.5,1.5,0,0,0,1.4.9h.8c0-.2-.1-.3-.2-.5s-.1-.4-.1-.6v-.7a1.9,1.9,0,0,0-.2-.8,1.1,1.1,0,0,0-.9-.5A.9.9,0,0,0,438.8,248.9Z" fill="#6b6b6b"/><path d="M446.5,254.4v1h-3.1a2.7,2.7,0,0,1,.7.8,3.6,3.6,0,0,1,.2,1.1,2.6,2.6,0,0,1-.8,1.9,3.3,3.3,0,0,1-2.4.7,4.1,4.1,0,0,1-2.5-.7,2.5,2.5,0,0,1-.9-2,2.1,2.1,0,0,1,.3-1.2l.7-.7h-.8v-.9Zm-7.2,4a3,3,0,0,0,1.8.4,2.7,2.7,0,0,0,1.6-.4,1.5,1.5,0,0,0,.1-2.5,2.1,2.1,0,0,0-1.7-.6,3.3,3.3,0,0,0-1.5.3,1.4,1.4,0,0,0-1,1.5A1.4,1.4,0,0,0,439.3,258.4Z" fill="#6b6b6b"/><path d="M367.3,77.7a3.1,3.1,0,0,1-2.4,1.5V78.1a2.3,2.3,0,0,0,1.4-.9,2.5,2.5,0,0,0,.4-1.6,2.7,2.7,0,0,0-.9-2,4.1,4.1,0,0,0-2.7-.8,4.1,4.1,0,0,0-2.5.7,2.3,2.3,0,0,0-.9,2.1,2.5,2.5,0,0,0,.7,1.9,2.7,2.7,0,0,0,2.2.8V75.6h.9v3.8h-4.6v-.8l1.1-.2-.9-1.1a4.2,4.2,0,0,1,.6-4.5,4.5,4.5,0,0,1,3.4-1.2,4.7,4.7,0,0,1,3.4,1.2,3.6,3.6,0,0,1,1.2,2.8A4.6,4.6,0,0,1,367.3,77.7Z" fill="#6b6b6b"/><path d="M367.5,81.2v1h-8.6v-1Z" fill="#6b6b6b"/><path d="M365.2,84.9h-5a1.1,1.1,0,0,0-.5,1,1.4,1.4,0,0,0,1,1.5l1.4.2h3.1v1.1h-6.3v-1h.9l-.6-.5a2.4,2.4,0,0,1-.5-1.4,1.8,1.8,0,0,1,.9-1.8,2.8,2.8,0,0,1,1.3-.3h4.3Z" fill="#6b6b6b"/><path d="M365,94.4a2.4,2.4,0,0,1-.8.9,2.1,2.1,0,0,1-1.1.4h-1.4V91.3a2.4,2.4,0,0,0-1.5.4,1.5,1.5,0,0,0-.6,1.3,1.7,1.7,0,0,0,.5,1.3l.8.4v1l-.8-.2-.7-.5a3.4,3.4,0,0,1-.6-1.2,2.8,2.8,0,0,1-.1-.9,3,3,0,0,1,.8-2,3.6,3.6,0,0,1,2.4-.8,3.5,3.5,0,0,1,2.5.9,2.6,2.6,0,0,1,.9,2.1A3.1,3.1,0,0,1,365,94.4Zm-2.4.4,1-.3a1.5,1.5,0,0,0,.8-1.5,1.7,1.7,0,0,0-.5-1.2,2.1,2.1,0,0,0-1.3-.5Z" fill="#6b6b6b"/><path d="M367.5,106.7h-1v-2.9h-7.6v-1.2h7.6V99.7h1Z" fill="#6b6b6b"/><path d="M362.7,109.7c0,.2.1.4.3.4h.4a.8.8,0,0,0,.8-.4c.2-.2.2-.6.2-1.1a1.2,1.2,0,0,0-.4-1.1c-.2-.2-.4-.2-.7-.3v-1a1.8,1.8,0,0,1,1.6.8,3.1,3.1,0,0,1,.4,1.7,3.4,3.4,0,0,1-.4,1.8,1.5,1.5,0,0,1-1.3.6h-3.9c0,.1-.1.1-.1.3h0v.2h-.8a.5.5,0,0,1-.1-.3v-.4a.8.8,0,0,1,.4-.8l.5-.2a3.5,3.5,0,0,1-.7-.9,2.8,2.8,0,0,1-.3-1.3,2,2,0,0,1,.5-1.4,1.8,1.8,0,0,1,1.4-.6,1.9,1.9,0,0,1,1.3.5,3.4,3.4,0,0,1,.6,1.5Zm-2.8-2.3a1.3,1.3,0,0,0-.3.8,2,2,0,0,0,.3,1.1,1.3,1.3,0,0,0,1.4.9h.8c-.1-.1-.1-.3-.2-.5a1.3,1.3,0,0,1-.1-.6v-.6a6.4,6.4,0,0,0-.2-.9,1.1,1.1,0,0,0-.9-.5A.8.8,0,0,0,359.9,107.4Z" fill="#6b6b6b"/><path d="M367.5,112.9v1h-3.1a1.8,1.8,0,0,1,.7.8,2.3,2.3,0,0,1,.3,1.1,2.3,2.3,0,0,1-.9,1.9,3.2,3.2,0,0,1-2.3.7,4.1,4.1,0,0,1-2.5-.7,2.3,2.3,0,0,1-1-2,1.6,1.6,0,0,1,.4-1.2,1.7,1.7,0,0,1,.6-.6h-.8v-1Zm-7.2,4a3.4,3.4,0,0,0,1.8.4,3.1,3.1,0,0,0,1.7-.4,1.4,1.4,0,0,0,.6-1.2,2.1,2.1,0,0,0-.5-1.3,2.4,2.4,0,0,0-1.8-.6,2.6,2.6,0,0,0-1.4.3,1.5,1.5,0,0,0-1.1,1.5A1.6,1.6,0,0,0,360.3,116.9Z" fill="#6b6b6b"/><path d="M24.3,253.7a3.4,3.4,0,0,1,2.4-1.5v1.1a2.3,2.3,0,0,0-1.4.9,2.7,2.7,0,0,0-.4,1.6,2.7,2.7,0,0,0,.9,2,4,4,0,0,0,2.6.8,3.7,3.7,0,0,0,2.5-.7,2.2,2.2,0,0,0,1-2.1,2.5,2.5,0,0,0-.7-1.9,2.7,2.7,0,0,0-2.2-.8v2.7h-.9V252h4.6v.8l-1.1.3a4.1,4.1,0,0,1,.9,1,4.2,4.2,0,0,1-.6,4.5,4.5,4.5,0,0,1-3.4,1.2,4.7,4.7,0,0,1-3.4-1.2,3.6,3.6,0,0,1-1.2-2.8A4.6,4.6,0,0,1,24.3,253.7Z" fill="#6b6b6b"/><path d="M24.1,250.2v-1h8.6v1Z" fill="#6b6b6b"/><path d="M26.4,246.5h5a1.1,1.1,0,0,0,.5-1,1.4,1.4,0,0,0-1-1.5l-1.4-.2H26.4v-1.1h6.3v1h-.9l.6.5a2.5,2.5,0,0,1,.5,1.5,1.8,1.8,0,0,1-.9,1.7,2.8,2.8,0,0,1-1.3.3H26.4Z" fill="#6b6b6b"/><path d="M26.6,237a2.4,2.4,0,0,1,.8-.9,2.1,2.1,0,0,1,1.1-.4h1.4v4.5a2.4,2.4,0,0,0,1.5-.4,1.5,1.5,0,0,0,.6-1.3,1.7,1.7,0,0,0-.5-1.3l-.8-.4v-1l.8.2.7.5a3.4,3.4,0,0,1,.6,1.2,2.8,2.8,0,0,1,.1.9,3,3,0,0,1-.8,2,3.6,3.6,0,0,1-2.4.8,3.9,3.9,0,0,1-2.5-.8,2.9,2.9,0,0,1-.9-2.2A3.1,3.1,0,0,1,26.6,237Zm2.4-.3a1.5,1.5,0,0,0-1,.3c-.6.2-.8.7-.8,1.4a1.7,1.7,0,0,0,.5,1.2,2.1,2.1,0,0,0,1.3.5Z" fill="#6b6b6b"/><path d="M24.1,224.7h1v2.9h7.6v1.2H25.1v2.9h-1Z" fill="#6b6b6b"/><path d="M28.9,221.7c0-.2-.1-.4-.3-.4h-.4a.8.8,0,0,0-.8.4,1.6,1.6,0,0,0-.3,1.1,1.3,1.3,0,0,0,.5,1.1.9.9,0,0,0,.7.3v1a1.8,1.8,0,0,1-1.6-.8,3.1,3.1,0,0,1-.4-1.7,2.9,2.9,0,0,1,.4-1.7,1.4,1.4,0,0,1,1.3-.7h3.9a.4.4,0,0,0,.1-.3h0v-.2h.8a.5.5,0,0,1,.1.3v.4a.8.8,0,0,1-.4.8l-.5.2a3.5,3.5,0,0,1,.7.9,2.8,2.8,0,0,1,.3,1.3,2.5,2.5,0,0,1-.5,1.5,2.2,2.2,0,0,1-1.4.5,1.9,1.9,0,0,1-1.3-.5,3.4,3.4,0,0,1-.6-1.5Zm2.8,2.3a1.3,1.3,0,0,0,.3-.8,2,2,0,0,0-.3-1.1,1.3,1.3,0,0,0-1.4-.9h-.8l.2.5a1.3,1.3,0,0,1,.1.6v.7c.1.3.1.6.2.8a1.1,1.1,0,0,0,.9.5A.8.8,0,0,0,31.7,224Z" fill="#6b6b6b"/><path d="M24,218.5v-1h3.2a1.8,1.8,0,0,1-.7-.8,2,2,0,0,1-.3-1.1,2.3,2.3,0,0,1,.9-1.9,3.2,3.2,0,0,1,2.3-.7,4.1,4.1,0,0,1,2.5.7,2.3,2.3,0,0,1,1,2,1.6,1.6,0,0,1-.4,1.2l-.6.7h.8v.9Zm7.3-4a3.4,3.4,0,0,0-1.8-.4,3.1,3.1,0,0,0-1.7.4,1.4,1.4,0,0,0-.6,1.2,1.9,1.9,0,0,0,.5,1.3,2.4,2.4,0,0,0,1.8.6,2.9,2.9,0,0,0,1.4-.3,1.5,1.5,0,0,0,1.1-1.5A1.6,1.6,0,0,0,31.3,214.5Z" fill="#6b6b6b"/><path d="M103.8,112.4a2.9,2.9,0,0,1,2.3-1.6V112a1.7,1.7,0,0,0-1.3.8,3.1,3.1,0,0,0-.5,1.7,2.3,2.3,0,0,0,.9,1.9,3.6,3.6,0,0,0,2.7.8,4.9,4.9,0,0,0,2.5-.6,2.7,2.7,0,0,0,1-2.2,3.2,3.2,0,0,0-.7-1.9,2.9,2.9,0,0,0-2.2-.7v2.7h-1v-3.8h4.6v.7l-1.1.3a2.7,2.7,0,0,1,.9,1.1,3.6,3.6,0,0,1,.5,1.9,4.2,4.2,0,0,1-1,2.6,5.3,5.3,0,0,1-3.4,1.1,4.9,4.9,0,0,1-3.5-1.1,3.7,3.7,0,0,1-1.2-2.9A4.6,4.6,0,0,1,103.8,112.4Z" fill="#6b6b6b"/><path d="M103.5,108.9v-1.1h8.6v1.1Z" fill="#6b6b6b"/><path d="M105.9,105.2H110l.8-.2a.9.9,0,0,0,.6-1,1.4,1.4,0,0,0-1-1.4,3.4,3.4,0,0,0-1.5-.2h-3v-1.1h6.2v1h-.9l.6.5a2.4,2.4,0,0,1,.5,1.4,1.8,1.8,0,0,1-.9,1.8,2.3,2.3,0,0,1-1.3.3h-4.2Z" fill="#6b6b6b"/><path d="M106,95.7a2.4,2.4,0,0,1,.8-.9,2.7,2.7,0,0,1,1.1-.5h1.4v4.6a3.4,3.4,0,0,0,1.6-.4,1.5,1.5,0,0,0,.5-1.3,1.4,1.4,0,0,0-.5-1.3,1.3,1.3,0,0,0-.7-.4V94.3l.7.3.7.5a3.5,3.5,0,0,1,.7,1.2c0,.2.1.5.1.9a2.5,2.5,0,0,1-.9,1.9,4,4,0,0,1-4.8,0,2.4,2.4,0,0,1-1-2.1A2.8,2.8,0,0,1,106,95.7Zm2.5-.4-1.1.3a1.6,1.6,0,0,0-.8,1.5,1.7,1.7,0,0,0,.6,1.2,1.9,1.9,0,0,0,1.3.5Z" fill="#6b6b6b"/><path d="M103.5,83.4h1v2.9h7.6v1.2h-7.6v2.9h-1Z" fill="#6b6b6b"/><path d="M108.3,80.4a.5.5,0,0,0-.3-.5h-.4a1.1,1.1,0,0,0-.8.3,3.6,3.6,0,0,0-.2,1.1c0,.6.1,1,.4,1.2l.8.3v.9a1.7,1.7,0,0,1-1.6-.7,3.1,3.1,0,0,1-.5-1.7,3.4,3.4,0,0,1,.4-1.8,1.6,1.6,0,0,1,1.3-.7h3.9a.4.4,0,0,0,.1-.3v-.4h.8v.4c.1.1.1.2.1.4a1.2,1.2,0,0,1-.4.8h-.6a3.6,3.6,0,0,1,.7,1,2.8,2.8,0,0,1,.3,1.3,1.7,1.7,0,0,1-.5,1.4,1.6,1.6,0,0,1-1.3.6,1.8,1.8,0,0,1-1.4-.6,2.6,2.6,0,0,1-.6-1.4Zm2.9,2.2c.2-.2.2-.4.2-.8a1.8,1.8,0,0,0-.2-1,1.5,1.5,0,0,0-1.4-.9h-.9a.8.8,0,0,1,.2.5c.1.2.1.4.2.6v.6l.3.9a1.1,1.1,0,0,0,.9.5A.8.8,0,0,0,111.2,82.6Z" fill="#6b6b6b"/><path d="M103.5,77.2v-1h3.1a3.1,3.1,0,0,1-.7-.9,3,3,0,0,1-.2-1,2.6,2.6,0,0,1,.8-1.9,3.3,3.3,0,0,1,2.4-.7,3.6,3.6,0,0,1,2.4.7,2.2,2.2,0,0,1,1,2,2.1,2.1,0,0,1-.3,1.2l-.7.6h.8v1Zm7.2-4a3,3,0,0,0-1.8-.5,2.8,2.8,0,0,0-1.6.5,1.2,1.2,0,0,0-.7,1.2,1.8,1.8,0,0,0,.6,1.3,2.5,2.5,0,0,0,1.7.5,3.4,3.4,0,0,0,1.5-.2,1.7,1.7,0,0,0,1-1.6A1.2,1.2,0,0,0,110.7,73.2Z" fill="#6b6b6b"/><path d="M367.3,365.2a3.2,3.2,0,0,1-2.4,1.6v-1.2a2.2,2.2,0,0,0,1.4-.8,3.1,3.1,0,0,0,.4-1.7,2.5,2.5,0,0,0-.9-1.9,3.6,3.6,0,0,0-2.7-.8,4.9,4.9,0,0,0-2.5.6,2.7,2.7,0,0,0,2,4.8v-2.6h.9v3.7h-4.6v-.7l1.1-.3-.9-1a4,4,0,0,1-.4-2,3.3,3.3,0,0,1,1-2.5,4.5,4.5,0,0,1,3.4-1.2,5.1,5.1,0,0,1,3.4,1.1,3.8,3.8,0,0,1,1.2,2.9A4,4,0,0,1,367.3,365.2Z" fill="#6b6b6b"/><path d="M367.5,368.7v1.1h-8.6v-1.1Z" fill="#6b6b6b"/><path d="M365.2,372.4H361l-.8.2a1.1,1.1,0,0,0-.5,1,1.5,1.5,0,0,0,1,1.5l1.4.2h3.1v1h-6.3v-1h.9l-.6-.5a2.2,2.2,0,0,1-.5-1.4,1.8,1.8,0,0,1,.9-1.8,2.8,2.8,0,0,1,1.3-.3h4.3Z" fill="#6b6b6b"/><path d="M365,381.9a2.7,2.7,0,0,1-.8,1l-1.1.4h-1.4v-4.6a2.5,2.5,0,0,0-1.5.5,1.4,1.4,0,0,0-.6,1.3,2.1,2.1,0,0,0,.5,1.3l.8.4v1l-.8-.3a1.8,1.8,0,0,1-.7-.5,2.3,2.3,0,0,1-.6-1.2,1.9,1.9,0,0,1-.1-.8,2.8,2.8,0,0,1,.8-2,3.6,3.6,0,0,1,2.4-.8,3.9,3.9,0,0,1,2.5.8,2.7,2.7,0,0,1,.9,2.1A2.8,2.8,0,0,1,365,381.9Zm-2.4.4a1.5,1.5,0,0,0,1-.3,1.4,1.4,0,0,0,.8-1.4,1.7,1.7,0,0,0-.5-1.2,2.2,2.2,0,0,0-1.3-.6Z" fill="#6b6b6b"/><path d="M367.5,394.2h-1v-2.9h-7.6v-1.1h7.6v-2.9h1Z" fill="#6b6b6b"/><path d="M362.7,397.2a.5.5,0,0,0,.3.5h.4a1,1,0,0,0,.8-.4,1.8,1.8,0,0,0,.2-1.1c0-.6-.1-1-.4-1.2l-.7-.2v-1a1.8,1.8,0,0,1,1.6.7,3.3,3.3,0,0,1,.4,1.7,3.4,3.4,0,0,1-.4,1.8,1.4,1.4,0,0,1-1.3.7h-3.9a.3.3,0,0,0-.1.2v.2c0,.1.1.1.1.2h-.8a.8.8,0,0,1-.1-.4v-.3c0-.4.1-.7.4-.8l.5-.2a3.5,3.5,0,0,1-.7-.9,3.2,3.2,0,0,1-.3-1.4,2.2,2.2,0,0,1,.5-1.4,1.7,1.7,0,0,1,1.4-.5,1.5,1.5,0,0,1,1.3.5,3,3,0,0,1,.6,1.4Zm-2.8-2.2a1.1,1.1,0,0,0-.3.8,2.6,2.6,0,0,0,.3,1.1,1.4,1.4,0,0,0,1.4.8h.8c-.1-.1-.1-.3-.2-.5a1.3,1.3,0,0,1-.1-.6V396a6.4,6.4,0,0,0-.2-.9,1,1,0,0,0-.9-.4A.8.8,0,0,0,359.9,395Z" fill="#6b6b6b"/><path d="M367.5,400.4v1.1h-3.1a1.8,1.8,0,0,1,.7.8,1.9,1.9,0,0,1,.3,1,2.2,2.2,0,0,1-.9,1.9,3.2,3.2,0,0,1-2.3.8,4.1,4.1,0,0,1-2.5-.8,2.1,2.1,0,0,1-1-2,1.9,1.9,0,0,1,.4-1.2,1.7,1.7,0,0,1,.6-.6h-.8v-1Zm-7.2,4.1a4.8,4.8,0,0,0,1.8.4,4.3,4.3,0,0,0,1.7-.4,1.5,1.5,0,0,0,.6-1.3,2.1,2.1,0,0,0-.5-1.3,3,3,0,0,0-1.8-.5l-1.4.2a1.6,1.6,0,0,0-1.1,1.6A1.7,1.7,0,0,0,360.3,404.5Z" fill="#6b6b6b"/><path d="M103.8,399.9a3,3,0,0,1,2.3-1.5v1.1a2.2,2.2,0,0,0-1.3.9,2.8,2.8,0,0,0-.5,1.6,2.5,2.5,0,0,0,.9,2,4.1,4.1,0,0,0,2.7.8,4.1,4.1,0,0,0,2.5-.7,2.4,2.4,0,0,0,1-2.1,2.6,2.6,0,0,0-2.9-2.7V402h-1v-3.8h4.6v.8l-1.1.3a2.6,2.6,0,0,1,.9,1,3.6,3.6,0,0,1,.5,1.9,4,4,0,0,1-1,2.6A4.9,4.9,0,0,1,108,406a5,5,0,0,1-3.5-1.2,3.5,3.5,0,0,1-1.2-2.8A4.6,4.6,0,0,1,103.8,399.9Z" fill="#6b6b6b"/><path d="M103.5,396.4v-1h8.6v1Z" fill="#6b6b6b"/><path d="M105.9,392.7h4.9a1,1,0,0,0,.6-1,1.6,1.6,0,0,0-1-1.5l-1.5-.2h-3v-1.1h6.2v1h-.9l.6.5a2.5,2.5,0,0,1,.5,1.5,2,2,0,0,1-.9,1.8l-1.3.2h-4.2Z" fill="#6b6b6b"/><path d="M106,383.2a2.4,2.4,0,0,1,.8-.9l1.1-.4h1.4v4.6a3.4,3.4,0,0,0,1.6-.5,1.4,1.4,0,0,0,.5-1.3,1.5,1.5,0,0,0-.5-1.3l-.7-.4v-1l.7.2.7.6a4.1,4.1,0,0,1,.7,1.1c0,.3.1.6.1.9a2.7,2.7,0,0,1-.9,2,4,4,0,0,1-4.8,0,2.7,2.7,0,0,1-1-2.2A3.5,3.5,0,0,1,106,383.2Zm2.5-.3a1.8,1.8,0,0,0-1.1.3,1.5,1.5,0,0,0-.8,1.4,1.4,1.4,0,0,0,.6,1.2,1.9,1.9,0,0,0,1.3.5Z" fill="#6b6b6b"/><path d="M103.5,370.9h1v2.9h7.6V375h-7.6v2.9h-1Z" fill="#6b6b6b"/><path d="M108.3,368a.5.5,0,0,0-.3-.5h-.4a.9.9,0,0,0-.8.4,2.7,2.7,0,0,0-.2,1.1,1.6,1.6,0,0,0,.4,1.2l.8.2v1a1.7,1.7,0,0,1-1.6-.8,2.8,2.8,0,0,1-.5-1.6,3,3,0,0,1,.4-1.8,1.4,1.4,0,0,1,1.3-.7h3.9c.1,0,.1-.1.1-.3h0v-.2h.8v.4c.1,0,.1.2.1.3a1,1,0,0,1-.4.8l-.6.2a2.2,2.2,0,0,1,.7.9,3.1,3.1,0,0,1,.3,1.3,2,2,0,0,1-.5,1.5,1.9,1.9,0,0,1-1.3.5,2.2,2.2,0,0,1-1.4-.5,3.4,3.4,0,0,1-.6-1.5Zm2.9,2.2a1.1,1.1,0,0,0,.2-.8,2.2,2.2,0,0,0-.2-1.1,1.5,1.5,0,0,0-1.4-.9h-.9c.1.2.2.3.2.5s.1.4.2.6v.7a3.4,3.4,0,0,0,.3.8.9.9,0,0,0,.9.5A.9.9,0,0,0,111.2,370.2Z" fill="#6b6b6b"/><path d="M103.5,364.7v-1h3.1a2.7,2.7,0,0,1-.7-.8,3.6,3.6,0,0,1-.2-1.1,2.7,2.7,0,0,1,.8-1.9,3.3,3.3,0,0,1,2.4-.7,3.6,3.6,0,0,1,2.4.7,2.3,2.3,0,0,1,1,2,2.1,2.1,0,0,1-.3,1.2l-.7.7h.8v.9Zm7.2-4a3,3,0,0,0-1.8-.4,2.7,2.7,0,0,0-1.6.4,1.4,1.4,0,0,0-.7,1.3,1.6,1.6,0,0,0,.6,1.2,2.1,2.1,0,0,0,1.7.6l1.5-.2a1.7,1.7,0,0,0,1-1.6A1.4,1.4,0,0,0,110.7,360.7Z" fill="#6b6b6b"/></g></svg>