<svg id="Layer_1" data-name="Layer 1" xmlns="http://www.w3.org/2000/svg" xmlns:xlink="http://www.w3.org/1999/xlink" width="18in" height="18in" viewBox="0 0 1296 1296"><defs><radialGradient id="radial-gradient" cx="1399.72" cy="439" r="14.14" gradientUnits="userSpaceOnUse"><stop offset="0.04" stop-color="#c7462d"/><stop offset="1" stop-color="#b12c2d"/></radialGradient></defs><title>Artboard 1</title><rect x="-1.3" width="1296" height="1296" fill="url(#radial-gradient)"/><path d="M281.8,652.1A104.5,104.5,0,1,0,177.3,547.6,104.6,104.6,0,0,0,281.8,652.1Zm0-162.2a57.7,57.7,0,1,1-57.7,57.7A57.8,57.8,0,0,1,281.8,489.9Z" fill="#aa1f23"/><path d="M184.6,655.8A104.5,104.5,0,1,0,289,760.3,104.6,104.6,0,0,0,184.6,655.8Zm0,162.2a57.7,57.7,0,1,1,57.7-57.7A57.8,57.8,0,0,1,184.6,818.1Z" fill="#aa1f23"/><path d="M617.1,467.2H593.7V651.4h46.7V607.2h51.9l10.1,44.2h45.6l-39-184.3h-92Zm23.4,93.2V513.8H671l10.6,46.6Z" fill="#aa1f23"/><polygon points="541.3 651.4 541.3 513 583.2 513 583.2 466.3 452.6 466.3 452.6 513 494.5 513 494.5 651.4 541.3 651.4" fill="#aa1f23"/><path d="M1098,651.4V467H982.7L943.3,649.8h45.6l9.7-42.6h52.7v44.2Zm-88.7-90.9,10.7-46.7h31.3v46.7Z" fill="#aa1f23"/><polyline points="397.1 662.7 397.1 759.9 346.3 662.8 346.3 662.7 299.5 662.7 299.5 662.7 299.5 662.7 299.5 662.7 299.5 846.9 346.3 846.9 346.3 750.9 397.1 846.9 442.7 846.9 442.7 846.9 443.9 846.9 443.9 662.8 444.3 456.7 715.3 456.7 759.9 651.4 761.3 651.4 805.5 651.4 806.9 651.4 845.4 502.5 883.9 651.5 929.5 651.5 929.4 651.3 929.9 651.3 974.5 456.7 1098.1 456.7 1098.1 409.3 985.4 409.2 985.4 409.2 981.9 409.2 972.7 409.2 972.7 409.3 937.4 409.3 905.5 554.6 869.6 409.3 851.4 409.5 821.2 409.2 784.7 556.6 752.4 409.5 356.9 407.3 356.9 456.7 397.6 456.7 397.1 662.7" fill="#aa1f23"/><path d="M878.3,797.2c24.4-11.5,41.2-35.7,41.2-63.6,0-39-32.7-71.3-73.1-71.3H717.5L728.7,709h33.1V846.9h46.7V709h38.2c15.2,0,27.3,10.7,27.3,24.6s-12.4,25.1-27.6,25.1H827.1v45.6l69,98.6h139.2V857.3H920Z" fill="#aa1f23"/><rect x="943.9" y="662.8" width="46.7" height="184.07" fill="#aa1f23"/><path d="M1107.4,656.2a104.5,104.5,0,1,0,104.5,104.5A104.6,104.6,0,0,0,1107.4,656.2Zm0,162.2a57.7,57.7,0,1,1,57.7-57.7A57.8,57.8,0,0,1,1107.4,818.4Z" fill="#aa1f23"/><path d="M718.8,709h0l-8.3-34.9h0l-2.7-11.5H452.6v46.7h41.9V846.9h46.7V709.2h53.8V856.8H299.5v46.7H641.8V802.7h51.9l10.1,44.2h45.6l-20.9-97.1Zm-76.9,47V709.4h30.6L683,756Z" fill="#aa1f23"/><path d="M269.3,637.3A104.5,104.5,0,1,0,164.8,532.8,104.6,104.6,0,0,0,269.3,637.3Zm0-162.2a57.7,57.7,0,1,1-57.7,57.7A57.8,57.8,0,0,1,269.3,475Z" fill="#eed6d9"/><path d="M172,641A104.5,104.5,0,1,0,276.5,745.5,104.6,104.6,0,0,0,172,641Zm0,162.2a57.7,57.7,0,1,1,57.7-57.7A57.8,57.8,0,0,1,172,803.2Z" fill="#eed6d9"/><path d="M604.6,452.4H581.2V636.6h46.7V592.4h51.9l10.1,44.2h45.6l-39-184.3h-92Zm23.4,93.2V499h30.6l10.6,46.6Z" fill="#eed6d9"/><polygon points="528.7 636.6 528.7 498.2 570.7 498.2 570.7 451.5 440.1 451.5 440.1 498.2 482 498.2 482 636.6 528.7 636.6" fill="#eed6d9"/><path d="M1085.5,636.6V452.2H970.1L930.7,635h45.6l9.7-42.6h52.7v44.2Zm-88.7-90.9,10.7-46.7h31.3v46.7Z" fill="#eed6d9"/><polyline points="384.6 647.9 384.6 745.1 333.7 648 333.7 647.9 287 647.9 287 647.9 287 647.9 287 647.9 287 832.1 333.7 832.1 333.7 736.1 384.6 832.1 430.2 832.1 430.2 832.1 431.3 832.1 431.3 648 431.8 441.8 702.7 441.8 747.4 636.6 748.7 636.6 793 636.6 794.4 636.6 832.8 487.7 871.3 636.7 916.9 636.7 916.9 636.5 917.4 636.5 962 441.8 1085.6 441.8 1085.6 394.5 972.9 394.4 972.9 394.4 969.3 394.4 960.1 394.4 960.1 394.4 924.9 394.5 893 539.8 857.1 394.5 838.9 394.7 808.6 394.4 772.2 541.8 739.8 394.6 344.3 392.5 344.3 441.8 385 441.8 384.6 647.9" fill="#eed6d9"/><path d="M865.8,782.4c24.4-11.5,41.2-35.7,41.2-63.6,0-39-32.7-71.3-73.1-71.3H705l11.1,46.7h33.1V832.1H796V694.2h38.2c15.2,0,27.3,10.7,27.3,24.6s-12.4,25.1-27.6,25.1H814.6v45.6l69,98.6h139.2V842.5H907.5Z" fill="#eed6d9"/><rect x="931.3" y="648" width="46.7" height="184.07" fill="#eed6d9"/><path d="M1094.9,641.3a104.5,104.5,0,1,0,104.5,104.5A104.6,104.6,0,0,0,1094.9,641.3Zm0,162.2a57.7,57.7,0,1,1,57.7-57.7A57.8,57.8,0,0,1,1094.9,803.6Z" fill="#eed6d9"/><path d="M706.2,694.2h0l-8.3-34.9h0l-2.7-11.5H440.1v46.7H482V832.1h46.7V694.4h53.8V841.9H287v46.7H629.3V787.9h51.9l10.1,44.2h45.6L715.9,735Zm-76.9,47V694.5h30.6l10.6,46.6Z" fill="#eed6d9"/></svg>