<svg id="Layer_1" data-name="Layer 1" xmlns="http://www.w3.org/2000/svg" width="832.7" height="266.1" viewBox="0 0 832.7 266.1"><title>Artboard 2ff</title><circle cx="253.5" cy="88.7" r="2.1" fill="#2d2d2d" stroke="#2d2d2d" stroke-miterlimit="10"/><polygon points="253.8 85.8 251.6 86.1 251.3 78.2 253.5 77.8 253.8 85.8" fill="#e64226" stroke="#2d2d2d" stroke-miterlimit="10"/><path d="M256.7,88.3l-6.7,1V88.2a2.1,2.1,0,0,1,1.9-2.1l2-.3a2.3,2.3,0,0,1,2.3,1.2Z" fill="#e64226" stroke="#2d2d2d" stroke-miterlimit="10"/><path d="M275.2,65.1l-34,4.8v-.8l-26.6,7.1h0l-9.6-12.1a1.6,1.6,0,0,0-1.4-.5l-7.4,1.1a1.4,1.4,0,0,0-1.3,1.4l.2,16.2a1.4,1.4,0,0,0,1.4,1.4c3.6.3,10.2.8,13.2.5l32.7-2.7h.8l33.8-5.8a4.5,4.5,0,0,0,3.6-5l-.3-1.8A4.3,4.3,0,0,0,275.2,65.1Z" fill="#e64226" stroke="#2d2d2d" stroke-miterlimit="10" stroke-width="2"/><path d="M240.3,69.2a1.3,1.3,0,0,1,.4-2.1,61.1,61.1,0,0,1,13.2-3.7c4.8-.7,8.5.9,9.9,3.3-1.1,2.4-7.8,3-9.4,3.2L244,71.4a2.7,2.7,0,0,1-2.3-.8Z" fill="#fdfad9" stroke="#2d2d2d" stroke-miterlimit="10" stroke-width="2"/><circle cx="262.2" cy="89" r="2.1" fill="#2d2d2d" stroke="#2d2d2d" stroke-miterlimit="10"/><polygon points="262.5 86.2 260.3 86.5 259.9 78.5 262.2 78.2 262.5 86.2" fill="#e64226" stroke="#2d2d2d" stroke-miterlimit="10"/><path d="M265.4,88.7l-6.7.9v-1a2.1,2.1,0,0,1,1.8-2.1l2.1-.3a1.9,1.9,0,0,1,2.2,1.2Z" fill="#e64226" stroke="#2d2d2d" stroke-miterlimit="10"/><rect x="240.3" y="72.3" width="26.4" height="2.45" rx="1.2" ry="1.2" transform="translate(-7.8 36.6) rotate(-8.1)" fill="#c43027" stroke="#2d2d2d" stroke-miterlimit="10"/><line x1="195" y1="78.2" x2="167.6" y2="82.1" fill="#c43027" stroke="#2d2d2d" stroke-miterlimit="10" stroke-width="2"/><path d="M156.7,73.1A429.3,429.3,0,0,0,88,83.6C65.1,88.5,42.2,95,19.3,93.1c0,.2.1.3.1.4,2.4,3.5,4.7,6.8,7.1,9.9l-4.4,8.9v.3c22.9-1.8,45.8-4.5,68.7-9.7s45.8-12.1,68.7-11.7c2.7-3.2,5.4-6.2,8.1-9.3A77.9,77.9,0,0,0,156.7,73.1Z" fill="#fdfad9" stroke="#2d2d2d" stroke-miterlimit="10" stroke-width="2"/><path d="M40.7,106.5l-3.3.3c-.4-2.7-.9-5.6-1.3-8.7l3.2-.2a4.6,4.6,0,0,1,5.1,4.1A3.7,3.7,0,0,1,40.7,106.5Zm-1.1-6.8H38.5c.3,1.8.6,3.5.8,5.2h1.1c1.5-.1,2.1-1.3,1.8-2.7S41.2,99.6,39.6,99.7Z" fill="#509e72"/><path d="M51.9,105.3a38.3,38.3,0,0,1-2.8-2.9h-.7c.2,1.1.3,2.2.5,3.2l-2.1.3c-.5-2.7-.9-5.6-1.4-8.7l3.4-.4c1.9-.3,3.4.5,3.7,2.4a2.2,2.2,0,0,1-1.3,2.6c1,1.1,2.1,2.1,3.2,3.1Zm-3-6.6-1.1.2.3,2,1.1-.2c.9-.1,1.3-.5,1.2-1.1S49.8,98.6,48.9,98.7Z" fill="#509e72"/><path d="M55.3,104.9c-.5-2.7-.9-5.7-1.4-8.8l2.2-.4c.4,3.2.9,6.1,1.3,8.9Z" fill="#509e72"/><path d="M65.4,103.3c-1.4-1.5-2.8-2.9-4.2-4.5a1.4,1.4,0,0,1-.4-.4c.3,1.9.6,3.7.8,5.5l-2.1.3c-.4-2.7-.9-5.7-1.3-8.8l2-.4,4.1,4.7.5.4c-.3-1.8-.6-3.8-.9-5.8l2.1-.5c.5,3.2.9,6.2,1.4,9.1Z" fill="#509e72"/><path d="M74.9,101.4l-3-3.3a4.1,4.1,0,0,0-.7,1.1c.1.9.3,1.9.4,2.8l-2.1.5c-.5-2.9-.9-5.9-1.4-9.1l2.2-.5c.2,1.3.3,2.5.5,3.8a2.6,2.6,0,0,1,.3-.7l1.8-3.7,2.6-.6c-.8,1.6-1.6,3.1-2.5,4.6l4.5,4.5Z" fill="#509e72"/><path d="M88.3,98.3l-.9-5.7a1.2,1.2,0,0,1-.2.6l-1.7,3.9c-.9-.9-1.7-1.9-2.6-2.9l-.4-.4.9,5.7-2.2.5c-.4-3-.9-6.1-1.3-9.3l2-.5L85,93.7c.7-1.5,1.4-3.1,2-4.7l2.1-.5c.4,3.1.9,6.2,1.3,9.3Z" fill="#509e72"/><path d="M96.4,96.5c-2.4.6-4.4-.7-4.9-3.8s1.1-5.3,3.5-5.8,4.5.6,4.9,3.7S98.8,95.9,96.4,96.5Zm-1.1-7.7c-1.1.3-1.9,1.4-1.6,3.4s1.3,2.7,2.4,2.4,1.9-1.4,1.6-3.4S96.4,88.5,95.3,88.8Z" fill="#509e72"/><path d="M107.4,93.6l-2.8-3H104c.1,1.2.3,2.4.5,3.6l-2.2.6c-.4-3.2-.9-6.3-1.3-9.3l3.3-.8c1.9-.4,3.5.2,3.8,2.1a2.6,2.6,0,0,1-1.4,2.9l3.2,3.2Zm-2.9-6.9-1.1.2.3,2.1,1.1-.3c.9-.2,1.3-.7,1.2-1.3S105.4,86.5,104.5,86.7Z" fill="#509e72"/><path d="M110.8,92.8c-.4-3.1-.9-6.2-1.3-9.1l6.1-1.3.3,1.8-4,.8.3,1.7,2.8-.6.3,1.7-2.9.6.3,2,4.4-1,.3,1.9Z" fill="#509e72"/><path d="M125.1,89.7l-3.5.7c-.4-3.1-.9-6.1-1.3-8.8l3-.6c2-.3,3.4.2,3.6,1.7a1.8,1.8,0,0,1-.5,1.6,2.3,2.3,0,0,1,1.8,1.9C128.4,87.9,127.3,89.3,125.1,89.7Zm-1.5-7.1-.9.2a9.9,9.9,0,0,0,.2,1.7l1-.2c.7-.1,1.1-.4,1-1.1S124.3,82.5,123.6,82.6Zm.9,3.2-1.3.2.3,2.2,1.3-.2c.9-.2,1.3-.8,1.2-1.4S125.4,85.6,124.5,85.8Z" fill="#509e72"/><path d="M130.2,88.8c-.5-3.1-.9-6-1.4-8.6l6.1-.9.3,1.6-3.9.6a7.7,7.7,0,0,0,.2,1.5l2.8-.4.3,1.7-2.8.4.3,1.9,4.4-.6c.1.6.1,1.2.2,1.8Z" fill="#509e72"/><path d="M138.1,87.6c-.5-3-.9-5.9-1.4-8.5l6.1-.7.3,1.6-3.9.5a7.7,7.7,0,0,0,.2,1.5l2.8-.3.3,1.6-2.8.3.3,1.9,4.4-.5a13.7,13.7,0,0,0,.2,1.9Z" fill="#509e72"/><path d="M151.1,86.3l-2.8-3.2h-.7c.2,1.1.3,2.3.5,3.4l-2.1.2c-.5-3-.9-5.8-1.4-8.4L148,78c1.9-.2,3.4.5,3.7,2.3a2,2,0,0,1-1.3,2.4l3.2,3.5Zm-3-6.7H147l.3,1.8h1.1c.9-.1,1.3-.4,1.2-1S149,79.5,148.1,79.6Z" fill="#509e72"/><rect x="344.8" y="152.3" width="14.3" height="105.41" fill="#509e72" stroke="#2d2d2d" stroke-miterlimit="10" stroke-width="2.49"/><rect x="498.7" y="152.3" width="14.3" height="105.41" fill="#509e72" stroke="#2d2d2d" stroke-miterlimit="10" stroke-width="2.49"/><rect x="324.9" y="131.3" width="201.3" height="21.38" fill="#509e72" stroke="#2d2d2d" stroke-miterlimit="10" stroke-width="2.49"/><path d="M335.3,148.8H331V136.9h3.8c2.4,0,4,1.1,4,3.2a2.2,2.2,0,0,1-1,2,3,3,0,0,1,1.9,3C339.7,147.3,338.1,148.8,335.3,148.8Zm-.5-9.6h-1.2v2.3h1.2c.9,0,1.5-.3,1.5-1.2S335.6,139.2,334.8,139.2Zm.5,4.4h-1.6v2.9h1.6c1.1,0,1.7-.6,1.7-1.5S336.4,143.6,335.3,143.6Z" fill="#fff"/><path d="M341.7,148.8V136.9h7.6v2.4h-4.9v2.2h3.5v2.3h-3.5v2.6h5.5v2.4Z" fill="#fff"/><path d="M351.5,148.8V136.9h7.6v2.4h-4.9v2.2h3.5v2.3h-3.5v2.6h5.5v2.4Z" fill="#fff"/><path d="M367.7,148.8l-2.8-4.6h-.8v4.6h-2.7V136.9h4.2c2.3,0,4.1,1.3,4.1,3.8a3.2,3.2,0,0,1-2.1,3.2l3.3,4.9Zm-2.3-9.5h-1.3v2.6h1.3c1.2,0,1.7-.4,1.7-1.3S366.6,139.3,365.4,139.3Z" fill="#fff"/><path d="M379.5,149.1a6.1,6.1,0,0,1-4.6-2.2l2-1.6a4,4,0,0,0,2.6,1.4c1.1,0,1.6-.6,1.6-1.2s-5.7-1.6-5.7-5.3c0-2.1,1.8-3.5,4.3-3.5a5.9,5.9,0,0,1,3.9,1.7l-1.8,1.6a3.9,3.9,0,0,0-2.1-.8c-1.1,0-1.5.4-1.5,1s5.7,1.5,5.7,5.2S381.6,149.1,379.5,149.1Z" fill="#fff"/><path d="M390.5,139.3v9.5h-2.7v-9.5h-2.9v-2.4h8.5v2.4Z" fill="#fff"/><path d="M401.1,148.8l-.7-2.2h-4l-.7,2.2h-2.8l4.3-11.9h2.5l4.2,11.9Zm-2.4-7.9a8.1,8.1,0,0,1-.2-.9l-.3.9-1,3.3h2.5Z" fill="#fff"/><path d="M409,139.3v9.5h-2.7v-9.5h-3v-2.4h8.6v2.4Z" fill="#fff"/><path d="M413.5,148.8V136.9h2.7v11.9Z" fill="#fff"/><path d="M423.6,149c-3,0-5.3-2.2-5.3-6.1s2.3-6.2,5.3-6.2,5.3,2.2,5.3,6.2S426.6,149,423.6,149Zm0-9.8c-1.4,0-2.5,1.2-2.5,3.7s1.1,3.6,2.5,3.6,2.5-1.1,2.5-3.6S425,139.2,423.6,139.2Z" fill="#fff"/><path d="M438.3,148.8l-4.2-6.9a2.7,2.7,0,0,1-.4-.7v7.6H431V136.9h2.6l4.2,6.8.4.8v-7.6h2.7v11.9Z" fill="#fff"/><rect x="369.4" y="187.4" width="51.2" height="70.32" fill="#f3ab1d" stroke="#2d2d2d" stroke-miterlimit="10" stroke-width="2.49"/><rect x="372.8" y="192.7" width="43.6" height="32.89" fill="#f4f2d8" stroke="#2d2d2d" stroke-miterlimit="10" stroke-width="1.25"/><rect x="383.9" y="197.1" width="14.2" height="8.69" fill="#7cc69e" stroke="#2d2d2d" stroke-miterlimit="10" stroke-width="1.25"/><rect x="400.6" y="197.1" width="4.5" height="8.69" fill="#7cc69e" stroke="#2d2d2d" stroke-miterlimit="10" stroke-width="1.25"/><path d="M385.2,228.4h-2.1l-.3-10.1a1.4,1.4,0,0,1,1.4-1.4h0a1.4,1.4,0,0,1,1.3,1.4Z" fill="#e64226" stroke="#2d2d2d" stroke-miterlimit="10" stroke-width="0.93"/><rect x="382.3" y="228.4" width="3.6" height="1.9" rx="0.6" ry="0.6" fill="#e64226" stroke="#2d2d2d" stroke-miterlimit="10" stroke-width="0.93"/><path d="M383.4,230.3H385a0,0,0,0,1,0,0v3.1a.7.7,0,0,1-.7.7h-.2a.7.7,0,0,1-.7-.7v-3.1A0,0,0,0,1,383.4,230.3Z" fill="#fdfad9" stroke="#2d2d2d" stroke-miterlimit="10" stroke-width="0.93"/><path d="M376,214.9v-4h.9v3.2h1.5v.8Z" fill="#231f20"/><path d="M381.4,214.9l-.3-.8h-1.3l-.2.8h-1l1.5-4h.8l1.4,4Zm-.9-2.6V212a.4.4,0,0,0-.1.3l-.3,1.1h.8Z" fill="#231f20"/><path d="M384.1,214.9c-1.2,0-1.7-1-1.7-2s.5-2,1.7-2a1.8,1.8,0,0,1,1.4.6l-.7.5a.9.9,0,0,0-.7-.3c-.6,0-.8.6-.8,1.2s.2,1.2.8,1.2l.6-.2v-.3h-.4v-.7h1.3v1.2A1.9,1.9,0,0,1,384.1,214.9Z" fill="#231f20"/><path d="M386.3,214.9v-4h2.5v.8h-1.6v.8h1.2v.7h-1.2v.9H389v.8Z" fill="#231f20"/><path d="M391.7,214.9l-1-1.5h-.2v1.5h-.9v-4H391a1.3,1.3,0,0,1,1.3,1.3,1.1,1.1,0,0,1-.7,1.1l1.1,1.6Zm-.8-3.2h-.4v.9h.4c.4,0,.6-.1.6-.4S391.3,211.7,390.9,211.7Z" fill="#231f20"/><path d="M405.4,228.4h-2.1l-.3-10.1a1.4,1.4,0,0,1,1.4-1.4h0a1.3,1.3,0,0,1,1.3,1.4Z" fill="#e64226" stroke="#2d2d2d" stroke-miterlimit="10" stroke-width="0.93"/><rect x="402.6" y="228.4" width="3.6" height="1.9" rx="0.6" ry="0.6" fill="#e64226" stroke="#2d2d2d" stroke-miterlimit="10" stroke-width="0.93"/><path d="M403.6,230.3h1.6a0,0,0,0,1,0,0v3.1a.7.7,0,0,1-.7.7h-.2a.7.7,0,0,1-.7-.7v-3.1A0,0,0,0,1,403.6,230.3Z" fill="#fdfad9" stroke="#2d2d2d" stroke-miterlimit="10" stroke-width="0.93"/><path d="M402.1,214.9l-.2-.8h-1.3l-.3.8h-.9l1.4-4h.9l1.3,4Zm-.8-2.6V212a.4.4,0,0,0-.1.3l-.4,1.1h.9Z" fill="#231f20"/><path d="M403.6,214.9v-4h.9v3.2H406v.8Z" fill="#231f20"/><path d="M406.6,214.9v-4h2.5v.8h-1.6v.8h1.1v.7h-1.1v.9h1.8v.8Z" fill="#231f20"/><rect x="366" y="171.4" width="58" height="11.1" fill="#f3ab1d" stroke="#2d2d2d" stroke-miterlimit="10" stroke-width="2.49"/><line x1="383.1" y1="182.5" x2="383.1" y2="187.4" fill="#f3ab1d" stroke="#2d2d2d" stroke-miterlimit="10" stroke-width="2.49"/><line x1="407" y1="182.5" x2="407" y2="187.4" fill="#f3ab1d" stroke="#2d2d2d" stroke-miterlimit="10" stroke-width="2.49"/><path d="M373.8,179.8a2.9,2.9,0,0,1-2.2-1.1l.9-.7a2.5,2.5,0,0,0,1.3.6c.5,0,.8-.3.8-.6s-2.8-.7-2.8-2.5.9-1.7,2.1-1.7a3,3,0,0,1,1.9.8l-.9.8a1.9,1.9,0,0,0-1-.4c-.5,0-.7.2-.7.5s2.7.7,2.7,2.5A1.9,1.9,0,0,1,373.8,179.8Z" fill="#fff"/><path d="M376.9,179.6v-5.7h3.7V175h-2.4v1.1h1.7v1.1h-1.7v1.3h2.7v1.1Z" fill="#fff"/><path d="M381.7,179.6v-5.7H383v4.6h2.3v1.1Z" fill="#fff"/><path d="M387.4,175v1.1h1.8v1.1h-1.8v2.4h-1.3v-5.7h3.8V175Z" fill="#fff"/><path d="M390.5,177.5v-.9h2.7v.9Z" fill="#fff"/><path d="M396.2,179.8a2.9,2.9,0,0,1-2.2-1.1l1-.7a2,2,0,0,0,1.2.6c.5,0,.8-.3.8-.6s-2.8-.7-2.8-2.5.9-1.7,2.1-1.7a3,3,0,0,1,1.9.8l-.9.8a1.5,1.5,0,0,0-1-.4c-.5,0-.7.2-.7.5s2.7.7,2.7,2.5A1.9,1.9,0,0,1,396.2,179.8Z" fill="#fff"/><path d="M399.3,179.6v-5.7H403V175h-2.4v1.1h1.8v1.1h-1.8v1.3h2.7v1.1Z" fill="#fff"/><path d="M407.2,179.6l-1.4-2.2h-.4v2.2h-1.3v-5.7h2.1a1.8,1.8,0,0,1,2,1.8,1.6,1.6,0,0,1-1.1,1.6l1.6,2.3Zm-1.1-4.6h-.7v1.3h.7c.5,0,.8-.2.8-.6A.7.7,0,0,0,406.1,175Z" fill="#fff"/><path d="M411.8,179.6h-1.2l-2-5.7H410l1.1,3.3a.3.3,0,1,0,.2,0l1.1-3.3h1.4Z" fill="#fff"/><path d="M414.5,179.6v-5.7h3.8V175h-2.4v1.1h1.7v1.1h-1.7v1.3h2.6v1.1Z" fill="#fff"/><rect x="372.8" y="237.5" width="43.6" height="3.82" fill="#f4f2d8" stroke="#2d2d2d" stroke-miterlimit="10" stroke-width="1.25"/><rect x="435.7" y="187.4" width="51.2" height="70.32" fill="#f3ab1d" stroke="#2d2d2d" stroke-miterlimit="10" stroke-width="2.49"/><rect x="439.1" y="192.7" width="43.6" height="32.89" fill="#f4f2d8" stroke="#2d2d2d" stroke-miterlimit="10" stroke-width="1.25"/><rect x="450.3" y="197.1" width="14.2" height="8.69" fill="#7cc69e" stroke="#2d2d2d" stroke-miterlimit="10" stroke-width="1.25"/><rect x="467" y="197.1" width="4.5" height="8.69" fill="#7cc69e" stroke="#2d2d2d" stroke-miterlimit="10" stroke-width="1.25"/><path d="M451.5,228.4h-2l-.4-10.1a1.4,1.4,0,0,1,1.4-1.4h0a1.4,1.4,0,0,1,1.4,1.4Z" fill="#e64226" stroke="#2d2d2d" stroke-miterlimit="10" stroke-width="0.93"/><rect x="448.7" y="228.4" width="3.6" height="1.9" rx="0.6" ry="0.6" fill="#e64226" stroke="#2d2d2d" stroke-miterlimit="10" stroke-width="0.93"/><path d="M449.7,230.3h1.6a0,0,0,0,1,0,0v3.1a.7.7,0,0,1-.7.7h-.2a.7.7,0,0,1-.7-.7v-3.1A0,0,0,0,1,449.7,230.3Z" fill="#fdfad9" stroke="#2d2d2d" stroke-miterlimit="10" stroke-width="0.93"/><path d="M442.3,214.9v-4h.9v3.2h1.5v.8Z" fill="#231f20"/><path d="M447.7,214.9l-.2-.8h-1.4l-.2.8H445l1.4-4h.8l1.4,4Zm-.8-2.6a1,1,0,0,0-.1-.3v.3l-.3,1.1h.8Z" fill="#231f20"/><path d="M450.5,214.9a2,2,0,0,1,0-4,1.8,1.8,0,0,1,1.3.6l-.6.5-.7-.3c-.7,0-.9.6-.9,1.2s.2,1.2.9,1.2l.6-.2v-.3h-.5v-.7h1.3v1.2A1.6,1.6,0,0,1,450.5,214.9Z" fill="#231f20"/><path d="M452.7,214.9v-4h2.5v.8h-1.6v.8h1.1v.7h-1.1v.9h1.8v.8Z" fill="#231f20"/><path d="M458,214.9l-.9-1.5h-.3v1.5h-.9v-4h1.4a1.3,1.3,0,0,1,1.4,1.3,1.2,1.2,0,0,1-.7,1.1l1.1,1.6Zm-.8-3.2h-.4v.9h.4c.4,0,.6-.1.6-.4S457.6,211.7,457.2,211.7Z" fill="#231f20"/><path d="M471.8,228.4h-2.1l-.3-10.1a1.3,1.3,0,0,1,1.3-1.4h0a1.4,1.4,0,0,1,1.4,1.4Z" fill="#e64226" stroke="#2d2d2d" stroke-miterlimit="10" stroke-width="0.93"/><rect x="468.9" y="228.4" width="3.6" height="1.9" rx="0.6" ry="0.6" fill="#e64226" stroke="#2d2d2d" stroke-miterlimit="10" stroke-width="0.93"/><path d="M469.9,230.3h1.6a0,0,0,0,1,0,0v3.1a.7.7,0,0,1-.7.7h-.2a.7.7,0,0,1-.7-.7v-3.1A0,0,0,0,1,469.9,230.3Z" fill="#fdfad9" stroke="#2d2d2d" stroke-miterlimit="10" stroke-width="0.93"/><path d="M468.5,214.9l-.3-.8h-1.3l-.2.8h-.9l1.4-4h.8l1.4,4Zm-.8-2.6a.5.5,0,0,1-.1-.3v.3l-.3,1.1h.8Z" fill="#231f20"/><path d="M469.9,214.9v-4h.9v3.2h1.5v.8Z" fill="#231f20"/><path d="M472.9,214.9v-4h2.5v.8h-1.6v.8H475v.7h-1.2v.9h1.8v.8Z" fill="#231f20"/><rect x="432.3" y="171.4" width="58" height="11.1" fill="#f3ab1d" stroke="#2d2d2d" stroke-miterlimit="10" stroke-width="2.49"/><line x1="449.4" y1="182.5" x2="449.4" y2="187.4" fill="#f3ab1d" stroke="#2d2d2d" stroke-miterlimit="10" stroke-width="2.49"/><line x1="473.3" y1="182.5" x2="473.3" y2="187.4" fill="#f3ab1d" stroke="#2d2d2d" stroke-miterlimit="10" stroke-width="2.49"/><path d="M440.1,179.8a2.9,2.9,0,0,1-2.2-1.1l1-.7a2,2,0,0,0,1.3.6c.5,0,.7-.3.7-.6s-2.8-.7-2.8-2.5.9-1.7,2.1-1.7a3,3,0,0,1,1.9.8l-.9.8a1.5,1.5,0,0,0-1-.4c-.5,0-.7.2-.7.5s2.8.7,2.8,2.5A2,2,0,0,1,440.1,179.8Z" fill="#fff"/><path d="M443.2,179.6v-5.7h3.7V175h-2.3v1.1h1.7v1.1h-1.7v1.3h2.6v1.1Z" fill="#fff"/><path d="M448,179.6v-5.7h1.3v4.6h2.3v1.1Z" fill="#fff"/><path d="M453.8,175v1.1h1.7v1.1h-1.7v2.4h-1.3v-5.7h3.7V175Z" fill="#fff"/><path d="M456.8,177.5v-.9h2.8v.9Z" fill="#fff"/><path d="M462.5,179.8a2.9,2.9,0,0,1-2.2-1.1l1-.7a2.2,2.2,0,0,0,1.3.6c.5,0,.8-.3.8-.6s-2.8-.7-2.8-2.5a1.8,1.8,0,0,1,2-1.7,2.7,2.7,0,0,1,1.9.8l-.8.8a2,2,0,0,0-1.1-.4c-.5,0-.7.2-.7.5s2.8.7,2.8,2.5A2,2,0,0,1,462.5,179.8Z" fill="#fff"/><path d="M465.7,179.6v-5.7h3.7V175H467v1.1h1.7v1.1H467v1.3h2.7v1.1Z" fill="#fff"/><path d="M473.6,179.6l-1.4-2.2h-.4v2.2h-1.3v-5.7h2a1.8,1.8,0,0,1,2,1.8,1.7,1.7,0,0,1-1,1.6l1.6,2.3Zm-1.2-4.6h-.6v1.3h.6c.6,0,.8-.2.8-.6S473,175,472.4,175Z" fill="#fff"/><path d="M478.1,179.6H477l-2-5.7h1.3l1.1,3.3a1.3,1.3,0,0,1,.1.5l.2-.5,1-3.3h1.4Z" fill="#fff"/><path d="M480.9,179.6v-5.7h3.7V175h-2.4v1.1h1.7v1.1h-1.7v1.3h2.7v1.1Z" fill="#fff"/><rect x="439.1" y="237.5" width="43.6" height="3.82" fill="#f4f2d8" stroke="#2d2d2d" stroke-miterlimit="10" stroke-width="1.25"/><rect x="526.9" y="165.9" width="47.8" height="40.76" fill="#f4f2d8" stroke="#2d2d2d" stroke-miterlimit="10" stroke-width="2.49"/><rect x="521" y="165.9" width="5.9" height="91.81" fill="#d28e29" stroke="#2d2d2d" stroke-miterlimit="10" stroke-width="2.49"/><rect x="526.9" y="206.7" width="47.8" height="18.44" fill="#f3ab1d" stroke="#2d2d2d" stroke-miterlimit="10" stroke-width="2.49"/><path d="M538.7,221.2a4.5,4.5,0,0,1-4-2.5l2-1a2.3,2.3,0,0,0,1.9,1.3,1.7,1.7,0,0,0,1.8-1.8c0-.8-.6-1.6-2.1-1.6a9.9,9.9,0,0,0-3,.6l.9-5.9H542v2.1h-3.7l-.3,1.4h.8c2.2,0,4,1,4,3.5A3.9,3.9,0,0,1,538.7,221.2Z" fill="#fff"/><path d="M544.8,221.1v-2.5h2.7v2.5Z" fill="#fff"/><path d="M552.2,221.1h-2.5l4.3-8.6h-4.2v-2.2h7.7Z" fill="#fff"/><path d="M562.1,221.2c-2.3,0-4.1-1.4-4.1-3.4a2.6,2.6,0,0,1,1.5-2.5,2.4,2.4,0,0,1-1.1-2.1c0-1.7,1.7-3,3.7-3s3.6,1.3,3.6,3a2.2,2.2,0,0,1-1.2,2.1,2.6,2.6,0,0,1,1.6,2.5C566.1,219.8,564.3,221.2,562.1,221.2Zm.3-4.9h-1a1.6,1.6,0,0,0-.8,1.5,1.4,1.4,0,0,0,1.5,1.4,1.4,1.4,0,0,0,1.4-1.4A1.3,1.3,0,0,0,562.4,216.3Zm-.3-4a1.1,1.1,0,0,0-1.2,1c0,.7.3,1.2,1.1,1.2h.8a2,2,0,0,0,.4-1.3A1,1,0,0,0,562.1,212.3Z" fill="#fff"/><rect x="683.5" y="9" width="117.7" height="242.85" fill="#f3ab1d" stroke="#2d2d2d" stroke-miterlimit="10" stroke-width="2.64"/><rect x="678.8" y="150.5" width="127.1" height="25.59" fill="#ec513b" stroke="#2d2d2d" stroke-linecap="round" stroke-linejoin="round" stroke-width="2.64"/><rect x="693.3" y="195" width="25.2" height="56.57" fill="#7cc69e" stroke="#2d2d2d" stroke-miterlimit="10" stroke-width="1.32"/><rect x="693.3" y="180.8" width="25.2" height="14.18" fill="#7cc69e" stroke="#2d2d2d" stroke-miterlimit="10" stroke-width="1.32"/><rect x="697.6" y="184.7" width="16.9" height="6.25" fill="#f4f2d8" stroke="#2d2d2d" stroke-miterlimit="10" stroke-width="1.32"/><rect x="697.6" y="199" width="14.4" height="48.33" fill="#f4f2d8" stroke="#2d2d2d" stroke-miterlimit="10" stroke-width="1.32"/><rect x="714.3" y="217.3" width="2" height="9.34" fill="none" stroke="#353535" stroke-linecap="round" stroke-linejoin="round" stroke-width="1.32"/><path d="M731.5,170h-5.3V155.4h4.7c3,0,4.9,1.3,4.9,3.9a2.9,2.9,0,0,1-1.2,2.5,3.6,3.6,0,0,1,2.3,3.6C736.9,168.2,735,170,731.5,170Zm-.6-11.8h-1.4V161h1.4c1.1,0,1.8-.3,1.8-1.4S731.9,158.2,730.9,158.2Zm.6,5.4h-2v3.6h2c1.4,0,2.1-.7,2.1-1.8S732.9,163.6,731.5,163.6Z" fill="#fff"/><path d="M748.3,170l-.9-2.7h-5l-.9,2.7h-3.4l5.3-14.6h3.1l5.1,14.6Zm-3.1-9.7c-.1-.4-.2-1.1-.2-1.1l-.3,1.1-1.3,4.1h3.1Z" fill="#fff"/><path d="M761.5,170l-3.6-5.6h-1V170h-3.3V155.4h5.2c2.9,0,5.1,1.6,5.1,4.6a3.9,3.9,0,0,1-2.7,4l4.1,6Zm-2.9-11.6h-1.7v3.2h1.7c1.4,0,2-.6,2-1.6S760,158.4,758.6,158.4Z" fill="#fff"/><rect x="726.8" y="195.2" width="65.3" height="29.2" fill="#f4f2d8" stroke="#2d2d2d" stroke-miterlimit="10" stroke-width="1.32"/><rect x="723.7" y="224.4" width="71.7" height="6.57" fill="#7cc69e" stroke="#2d2d2d" stroke-miterlimit="10" stroke-width="1.32"/><rect x="723.7" y="191" width="71.7" height="4.37" fill="#7cc69e" stroke="#2d2d2d" stroke-miterlimit="10" stroke-width="1.32"/><rect x="679.2" y="251.6" width="126.7" height="6.52" fill="#ec513b" stroke="#2d2d2d" stroke-linecap="round" stroke-linejoin="round" stroke-width="2.64"/><rect x="729.9" y="84.2" width="24.9" height="51.27" fill="#7cc69e" stroke="#2d2d2d" stroke-miterlimit="10" stroke-width="1.32"/><rect x="733.7" y="89.2" width="17.4" height="41.12" fill="#fdfad9" stroke="#2d2d2d" stroke-miterlimit="10" stroke-width="1.32"/><rect x="728.2" y="135.4" width="28.3" height="4.51" fill="#fdfad9" stroke="#2d2d2d" stroke-miterlimit="10" stroke-width="1.32"/><line x1="733.7" y1="122.6" x2="751.1" y2="122.6" fill="#fdfad9" stroke="#2d2d2d" stroke-miterlimit="10" stroke-width="1.32"/><rect x="766.7" y="84.2" width="24.9" height="51.27" fill="#7cc69e" stroke="#2d2d2d" stroke-miterlimit="10" stroke-width="1.32"/><rect x="770.4" y="89.2" width="17.4" height="41.12" fill="#fdfad9" stroke="#2d2d2d" stroke-miterlimit="10" stroke-width="1.32"/><rect x="765" y="135.4" width="28.3" height="4.51" fill="#fdfad9" stroke="#2d2d2d" stroke-miterlimit="10" stroke-width="1.32"/><line x1="770.4" y1="122.6" x2="787.8" y2="122.6" fill="#fdfad9" stroke="#2d2d2d" stroke-miterlimit="10" stroke-width="1.32"/><rect x="693.6" y="84.2" width="24.9" height="51.27" fill="#7cc69e" stroke="#2d2d2d" stroke-miterlimit="10" stroke-width="1.32"/><rect x="697.4" y="89.2" width="17.4" height="41.12" fill="#fdfad9" stroke="#2d2d2d" stroke-miterlimit="10" stroke-width="1.32"/><rect x="691.9" y="135.4" width="28.3" height="4.51" fill="#fdfad9" stroke="#2d2d2d" stroke-miterlimit="10" stroke-width="1.32"/><line x1="697.4" y1="122.6" x2="714.8" y2="122.6" fill="#fdfad9" stroke="#2d2d2d" stroke-miterlimit="10" stroke-width="1.32"/><rect x="729.9" y="20.9" width="24.9" height="51.27" fill="#7cc69e" stroke="#2d2d2d" stroke-miterlimit="10" stroke-width="1.32"/><rect x="733.7" y="25.9" width="17.4" height="41.12" fill="#fdfad9" stroke="#2d2d2d" stroke-miterlimit="10" stroke-width="1.32"/><rect x="728.2" y="72.1" width="28.3" height="4.51" fill="#fdfad9" stroke="#2d2d2d" stroke-miterlimit="10" stroke-width="1.32"/><line x1="733.7" y1="59.3" x2="751.1" y2="59.3" fill="#fdfad9" stroke="#2d2d2d" stroke-miterlimit="10" stroke-width="1.32"/><rect x="766.7" y="20.9" width="24.9" height="51.27" fill="#7cc69e" stroke="#2d2d2d" stroke-miterlimit="10" stroke-width="1.32"/><rect x="770.4" y="25.9" width="17.4" height="41.12" fill="#fdfad9" stroke="#2d2d2d" stroke-miterlimit="10" stroke-width="1.32"/><rect x="765" y="72.1" width="28.3" height="4.51" fill="#fdfad9" stroke="#2d2d2d" stroke-miterlimit="10" stroke-width="1.32"/><line x1="770.4" y1="59.3" x2="787.8" y2="59.3" fill="#fdfad9" stroke="#2d2d2d" stroke-miterlimit="10" stroke-width="1.32"/><rect x="693.6" y="20.9" width="24.9" height="51.27" fill="#7cc69e" stroke="#2d2d2d" stroke-miterlimit="10" stroke-width="1.32"/><rect x="697.4" y="25.9" width="17.4" height="41.12" fill="#fdfad9" stroke="#2d2d2d" stroke-miterlimit="10" stroke-width="1.32"/><rect x="691.9" y="72.1" width="28.3" height="4.51" fill="#fdfad9" stroke="#2d2d2d" stroke-miterlimit="10" stroke-width="1.32"/><line x1="697.4" y1="59.3" x2="714.8" y2="59.3" fill="#fdfad9" stroke="#2d2d2d" stroke-miterlimit="10" stroke-width="1.32"/><path d="M305.2,218l-4.7-27H217.3v57.5h9a11.8,11.8,0,1,1,23.5,0h36.5a11.8,11.8,0,1,1,23.5,0h11.6V230.2Z" fill="#ec513b" stroke="#2d2d2d" stroke-linecap="round" stroke-linejoin="round" stroke-width="2"/><rect x="262.6" y="201" width="21" height="47.49" fill="#f3ab1d" stroke="#2d2d2d" stroke-linecap="round" stroke-linejoin="round"/><line x1="253.8" y1="177.8" x2="253.8" y2="187.4" fill="#f3ab1d" stroke="#2d2d2d" stroke-miterlimit="10" stroke-width="2"/><rect x="226.1" y="203" width="27.7" height="23.74" fill="#f4f2d8" stroke="#2d2d2d" stroke-miterlimit="10"/><rect x="266.8" y="205.5" width="12.5" height="19.21" fill="#f4f2d8" stroke="#2d2d2d" stroke-miterlimit="10"/><polygon points="288.9 201 298.3 201 300.7 217.5 288.9 217.5 288.9 201" fill="#f4f2d8" stroke="#2d2d2d" stroke-miterlimit="10"/><path d="M249.5,248.5h37.1v-.6a11.6,11.6,0,0,1,.8-4.2H248.7a11.6,11.6,0,0,1,.8,4.2Z" fill="#c43027" stroke="#2d2d2d" stroke-miterlimit="10" stroke-width="2"/><path d="M308.7,243.7a11.6,11.6,0,0,1,.8,4.2v.6h15.1v-4.8Z" fill="#c43027" stroke="#2d2d2d" stroke-miterlimit="10" stroke-width="2"/><path d="M226.5,247.9a11.6,11.6,0,0,1,.8-4.2H213.6v4.8h12.9Z" fill="#c43027" stroke="#2d2d2d" stroke-miterlimit="10" stroke-width="2"/><circle cx="238" cy="248.5" r="11.2" fill="#2d2d2d" stroke="#2d2d2d" stroke-miterlimit="10"/><circle cx="238" cy="248.5" r="6.3" fill="#707071" stroke="#2d2d2d" stroke-miterlimit="10"/><circle cx="238" cy="248.5" r="2.5" fill="#707071" stroke="#2d2d2d" stroke-miterlimit="10"/><circle cx="298.1" cy="248.5" r="11.2" fill="#2d2d2d" stroke="#2d2d2d" stroke-miterlimit="10"/><circle cx="298.1" cy="248.5" r="6.3" fill="#707071" stroke="#2d2d2d" stroke-miterlimit="10"/><circle cx="298.1" cy="248.5" r="2.5" fill="#707071" stroke="#2d2d2d" stroke-miterlimit="10"/><rect x="215.9" y="187.4" width="86.1" height="3.61" fill="#c43027" stroke="#2d2d2d" stroke-miterlimit="10" stroke-width="2"/><polygon points="255 197 223.3 197 220.4 201.7 220.4 205 257.9 205 257.9 201.7 255 197" fill="#f3ab1d" stroke="#2d2d2d" stroke-linecap="round" stroke-linejoin="round"/><line x1="220.4" y1="201.7" x2="257.9" y2="201.7" fill="#f3ab1d" stroke="#2d2d2d" stroke-linecap="round" stroke-linejoin="round"/><rect x="224.5" y="226.7" width="30.6" height="2.61" fill="#c43027" stroke="#2d2d2d" stroke-miterlimit="10"/><rect x="256.1" y="207.3" width="3.7" height="8.59" transform="translate(-18.1 24.2) rotate(-5.2)" fill="#7cc69e" stroke="#2d2d2d" stroke-miterlimit="10"/><rect x="219.7" y="208.3" width="3.7" height="6.58" transform="matrix(0.99, 0.15, -0.15, 0.99, 35.36, -31.7)" fill="#7cc69e" stroke="#2d2d2d" stroke-miterlimit="10"/><rect x="219.5" y="219" width="4.1" height="4.15" transform="translate(-19.1 21) rotate(-5.2)" fill="#7cc69e" stroke="#2d2d2d" stroke-miterlimit="10"/><rect x="255.9" y="218.6" width="4.1" height="4.78" transform="translate(16.5 -17.9) rotate(4.1)" fill="#7cc69e" stroke="#2d2d2d" stroke-miterlimit="10"/><rect x="262.6" y="194.1" width="21" height="4.38" fill="#7cc69e" stroke="#2d2d2d" stroke-miterlimit="10"/><rect x="266.8" y="228.5" width="12.5" height="11.11" fill="#7cc69e" stroke="#2d2d2d" stroke-miterlimit="10"/><line x1="281.3" y1="223.1" x2="281.3" y2="226.7" fill="#ec513b" stroke="#2d2d2d" stroke-linecap="round" stroke-linejoin="round"/><path d="M277.8,162.6c-.7-.2-1.9-.3-1.7.6s-12.8,2-14.9,2.2-3.2-1.5-5.3-1l-26.5,6c-1.7.4-.9,3.4-.2,6.8s1.4,6.4,3.1,6l26.5-6c2.1-.5,2.3-2.3,4.3-3.1s14.4-4.5,14.4-4.5,1.3.3,1.9-.2" fill="#f3ab1d" stroke="#2d2d2d" stroke-miterlimit="10" stroke-width="2"/><path d="M280.8,168.8l-1.5-6.4c0-.2-.2-.3-.4-.3h-.7c-.2,0-.5.3-.4.5l1.6,6.9c0,.3.3.4.6.2l.6-.4Z" fill="#f4f2d8" stroke="#231f20" stroke-miterlimit="10"/><polygon points="238.5 168.3 245 180.3 255.3 178 248.9 166 238.5 168.3" fill="#e64226" stroke="#2d2d2d" stroke-miterlimit="10"/><line x1="276.1" y1="163.2" x2="277.5" y2="169.6" fill="#2d2d2d" stroke="#231f20" stroke-miterlimit="10"/><path d="M279.4,169.4l-1.6-6.8c-.7-.3-1.9-.3-1.7.6l1.4,6.4C277.7,170.3,278.8,169.9,279.4,169.4Z" fill="#e64226" stroke="#2d2d2d" stroke-miterlimit="10"/><circle cx="247" cy="173.5" r="2.7" fill="#7cc69e" stroke="#2d2d2d" stroke-miterlimit="10"/><path d="M290.8,233.4l-2.6.5-1.3-7.1,2.3-.4c1.4-.3,2.5.2,2.7,1.5a1.6,1.6,0,0,1-.3,1.3,1.8,1.8,0,0,1,1.4,1.5C293.2,232.1,292.4,233.1,290.8,233.4Zm-1.4-5.7-.7.2.3,1.3h.7c.5-.1.9-.3.8-.8S289.9,227.7,289.4,227.7Zm.8,2.6-1,.2.3,1.7,1-.2c.7-.1,1-.5.9-1S290.9,230.2,290.2,230.3Z" fill="#f4f2d8"/><path d="M294.6,232.7l-1.3-7.1,4.6-.8.3,1.5-3,.5.2,1.3,2.2-.4.2,1.4-2.1.4.2,1.5,3.3-.6.3,1.5Z" fill="#f4f2d8"/><path d="M300.5,231.7l-1.3-7.1,4.6-.8.3,1.4-3,.5.2,1.4,2.2-.4.2,1.4-2.1.3.3,1.6,3.3-.6.2,1.4Z" fill="#f4f2d8"/><path d="M310.2,230l-2.1-2.5h-.6l.5,2.8-1.6.3-1.2-7.2,2.5-.4a2.2,2.2,0,0,1,2.9,1.8,2,2,0,0,1-1,2.2l2.5,2.5Zm-2.4-5.4H307l.3,1.6.8-.2q1-.2.9-.9C308.9,224.7,308.5,224.4,307.8,224.6Z" fill="#f4f2d8"/><line x1="239.2" y1="181.4" x2="239.2" y2="187.4" fill="none" stroke="#2d2d2d" stroke-miterlimit="10" stroke-width="2"/><polygon points="555.3 200.3 546.3 200.3 545.1 183 556.6 183 555.3 200.3" fill="#f3ab1d" stroke="#2d2d2d" stroke-linecap="round" stroke-linejoin="round"/><line x1="546.2" y1="197.4" x2="555.5" y2="197.4" fill="#f4f2d8" stroke="#2d2d2d" stroke-miterlimit="10"/><path d="M545.1,183a1.4,1.4,0,0,1,1.4-1.4,2.9,2.9,0,0,1-.2-.9,1.4,1.4,0,0,1,1.6-1.4h0v-.4a2.7,2.7,0,0,1,2.8-2.6,2.8,2.8,0,0,1,2.5,2.1l.8-.2a2,2,0,0,1,1.9,2.1,1.8,1.8,0,0,1-.5,1.2,1.5,1.5,0,0,1,1.2,1.5h-3v2.8c0,1.5-1.7,1.5-1.7,0v-2.9Z" fill="#fdfad9" stroke="#2d2d2d" stroke-linecap="round" stroke-linejoin="round"/><path d="M594.4,176.6h61.7a.5.5,0,0,1,.5.5v81.3a0,0,0,0,1,0,0H593.9a0,0,0,0,1,0,0V177.1A.5.5,0,0,1,594.4,176.6Z" fill="#ec513b" stroke="#20100d" stroke-miterlimit="10" stroke-width="2"/><rect x="602" y="239.3" width="33.1" height="7.63" fill="#f3ab1d" stroke="#20100d" stroke-miterlimit="10"/><rect x="598.7" y="182.1" width="44.2" height="53.15" fill="#f4f2d8" stroke="#20100d" stroke-miterlimit="10"/><rect x="645.9" y="191.7" width="5.7" height="34.44" fill="#f3ab1d" stroke="#20100d" stroke-miterlimit="10"/><line x1="648.8" y1="196" x2="648.8" y2="200.6" fill="none" stroke="#20100d" stroke-miterlimit="10"/><path d="M604.9,184.4c.1.1.2.4,0,.4s.3,3.3.4,3.8.5.7.5,1.3l.2,6.8c0,.5-.8.5-1.7.5s-1.7,0-1.7-.4v-6.9c0-.5.4-.7.5-1.2s.2-3.8.2-3.8-.1-.3,0-.5Z" fill="#f3ab1d" stroke="#231f20" stroke-miterlimit="10" stroke-width="0.5"/><polygon points="602.6 194.4 605.9 193.4 605.8 190.7 602.5 191.7 602.6 194.4" fill="#e64226" stroke="#231f20" stroke-miterlimit="10" stroke-width="0.5"/><path d="M613.3,184.4c.1.1.1.4,0,.4s.2,3.3.3,3.8.6.7.6,1.3v6.8c0,.5-.8.5-1.6.5s-1.7,0-1.7-.4v-6.9c0-.5.4-.7.5-1.2s.2-3.8.2-3.8-.2-.3-.1-.5Z" fill="#f3ab1d" stroke="#231f20" stroke-miterlimit="10" stroke-width="0.5"/><polygon points="611 194.4 614.3 193.4 614.2 190.7 610.9 191.7 611 194.4" fill="#e64226" stroke="#231f20" stroke-miterlimit="10" stroke-width="0.5"/><path d="M621.7,184.4c.1.1.1.4-.1.4s.3,3.3.4,3.8.6.7.6,1.3v6.8c0,.5-.8.5-1.6.5s-1.7,0-1.7-.4l-.2-6.9c0-.5.5-.7.5-1.2s.3-3.8.3-3.8-.2-.3-.1-.5Z" fill="#f3ab1d" stroke="#231f20" stroke-miterlimit="10" stroke-width="0.5"/><polygon points="619.3 194.4 622.6 193.4 622.6 190.7 619.3 191.7 619.3 194.4" fill="#e64226" stroke="#231f20" stroke-miterlimit="10" stroke-width="0.5"/><path d="M630,184.4c.2.1.2.4,0,.4s.3,3.3.4,3.8.5.7.5,1.3l.2,6.8c0,.5-.8.5-1.7.5s-1.6,0-1.6-.4l-.2-6.9c0-.5.4-.7.5-1.2s.2-3.8.2-3.8-.1-.3,0-.5Z" fill="#f3ab1d" stroke="#231f20" stroke-miterlimit="10" stroke-width="0.5"/><polygon points="627.7 194.4 631 193.4 631 190.7 627.7 191.7 627.7 194.4" fill="#e64226" stroke="#231f20" stroke-miterlimit="10" stroke-width="0.5"/><path d="M638.4,184.4c.1.1.2.4,0,.4s.3,3.3.4,3.8.5.7.5,1.3l.2,6.8c0,.5-.8.5-1.7.5s-1.7,0-1.7-.4v-6.9c0-.5.4-.7.5-1.2s.2-3.8.2-3.8-.1-.3,0-.5Z" fill="#f3ab1d" stroke="#231f20" stroke-miterlimit="10" stroke-width="0.5"/><polygon points="636.1 194.4 639.4 193.4 639.3 190.7 636 191.7 636.1 194.4" fill="#e64226" stroke="#231f20" stroke-miterlimit="10" stroke-width="0.5"/><line x1="598.7" y1="197.2" x2="642.9" y2="197.2" fill="#e64226" stroke="#231f20" stroke-miterlimit="10"/><line x1="598.7" y1="227.3" x2="642.9" y2="227.3" fill="#e64226" stroke="#231f20" stroke-miterlimit="10"/><line x1="598.7" y1="212.4" x2="642.9" y2="212.4" fill="#e64226" stroke="#231f20" stroke-miterlimit="10"/><path d="M604.9,199.5c.1.2.2.5,0,.5s.3,3.3.4,3.8.5.7.5,1.2l.2,6.9c0,.5-.8.4-1.7.5s-1.7,0-1.7-.4v-6.9c0-.6.4-.7.5-1.3s.2-3.8.2-3.8-.1-.3,0-.4Z" fill="#f3ab1d" stroke="#231f20" stroke-miterlimit="10" stroke-width="0.5"/><polygon points="602.6 209.6 605.9 208.6 605.8 205.9 602.5 206.9 602.6 209.6" fill="#7cc69e" stroke="#231f20" stroke-miterlimit="10" stroke-width="0.5"/><path d="M613.3,199.5c.1.2.1.5,0,.5s.2,3.3.3,3.8.6.7.6,1.2v6.9c0,.5-.8.4-1.6.5s-1.7,0-1.7-.4v-6.9c0-.6.4-.7.5-1.3s.2-3.8.2-3.8-.2-.3-.1-.4Z" fill="#f3ab1d" stroke="#231f20" stroke-miterlimit="10" stroke-width="0.5"/><polygon points="611 209.6 614.3 208.6 614.2 205.9 610.9 206.9 611 209.6" fill="#7cc69e" stroke="#231f20" stroke-miterlimit="10" stroke-width="0.5"/><path d="M621.7,199.5c.1.2.1.5-.1.5s.3,3.3.4,3.8.5.7.6,1.2v6.9c0,.5-.8.4-1.7.5s-1.6,0-1.6-.4l-.2-6.9c0-.6.5-.7.5-1.3s.3-3.8.3-3.8-.2-.3-.1-.4Z" fill="#f3ab1d" stroke="#231f20" stroke-miterlimit="10" stroke-width="0.5"/><polygon points="619.3 209.6 622.6 208.6 622.6 205.9 619.3 206.9 619.3 209.6" fill="#7cc69e" stroke="#231f20" stroke-miterlimit="10" stroke-width="0.5"/><path d="M630,199.5c.1.2.2.5,0,.5s.3,3.3.4,3.8.5.7.5,1.2l.2,6.9c0,.5-.8.4-1.7.5s-1.6,0-1.7-.4v-6.9c0-.6.4-.7.5-1.3s.2-3.8.2-3.8-.1-.3,0-.4Z" fill="#f3ab1d" stroke="#231f20" stroke-miterlimit="10" stroke-width="0.5"/><polygon points="627.7 209.6 631 208.6 630.9 205.9 627.6 206.9 627.7 209.6" fill="#7cc69e" stroke="#231f20" stroke-miterlimit="10" stroke-width="0.5"/><path d="M638.4,199.5c.1.2.2.5,0,.5s.2,3.3.3,3.8.6.7.6,1.2v6.9c0,.5-.7.4-1.6.5s-1.7,0-1.7-.4v-6.9c0-.6.4-.7.5-1.3s.2-3.8.2-3.8-.2-.3-.1-.4Z" fill="#f3ab1d" stroke="#231f20" stroke-miterlimit="10" stroke-width="0.5"/><polygon points="636.1 209.6 639.4 208.6 639.3 205.9 636 206.9 636.1 209.6" fill="#7cc69e" stroke="#231f20" stroke-miterlimit="10" stroke-width="0.5"/><rect x="592" y="253.4" width="66.2" height="5.05" fill="#c43027" stroke="#2d2d2d" stroke-miterlimit="10" stroke-width="2"/><path d="M603.9,227.2c1.2,0,2.4-.1,2.4-.3v-6.6c0-.3-.5-.7-.5-1H602c0,.3-.4.7-.4,1v6.6C601.6,227.1,602.7,227.2,603.9,227.2Z" fill="#509e72" stroke="#231f20" stroke-miterlimit="10" stroke-width="0.5"/><path d="M601.6,222.5c.9,0,4.4-.4,4.7-.9v2.5c-.3.5-3.8.8-4.7.8Z" fill="#f3ab1d" stroke="#231f20" stroke-miterlimit="10" stroke-width="0.5"/><line x1="601.5" y1="219.3" x2="606.2" y2="219.3" fill="#606161" stroke="#231f20" stroke-linecap="round" stroke-linejoin="round" stroke-width="0.5"/><path d="M612.4,227.2c1.2,0,2.3-.1,2.3-.3v-6.6c0-.3-.4-.7-.4-1h-3.8c0,.3-.5.7-.5,1v6.6C610,227.1,611.2,227.2,612.4,227.2Z" fill="#509e72" stroke="#231f20" stroke-miterlimit="10" stroke-width="0.5"/><path d="M610,222.5c1,0,4.4-.4,4.7-.9v2.5c-.3.5-3.7.8-4.7.8Z" fill="#f3ab1d" stroke="#231f20" stroke-miterlimit="10" stroke-width="0.5"/><line x1="609.9" y1="219.3" x2="614.7" y2="219.3" fill="#606161" stroke="#231f20" stroke-linecap="round" stroke-linejoin="round" stroke-width="0.5"/><path d="M620.8,227.2c1.3,0,2.4-.1,2.4-.3v-6.6c0-.3-.4-.7-.4-1h-3.9c0,.3-.4.7-.4,1v6.6C618.5,227.1,619.6,227.2,620.8,227.2Z" fill="#509e72" stroke="#231f20" stroke-miterlimit="10" stroke-width="0.5"/><path d="M618.5,222.5c.9,0,4.4-.4,4.7-.9v2.5c-.3.5-3.8.8-4.7.8Z" fill="#f3ab1d" stroke="#231f20" stroke-miterlimit="10" stroke-width="0.5"/><line x1="618.4" y1="219.3" x2="623.1" y2="219.3" fill="#606161" stroke="#231f20" stroke-linecap="round" stroke-linejoin="round" stroke-width="0.5"/><path d="M629.3,227.2c1.2,0,2.4-.1,2.4-.3v-6.6c0-.3-.5-.7-.5-1h-3.8c0,.3-.5.7-.5,1v6.6C626.9,227.1,628.1,227.2,629.3,227.2Z" fill="#509e72" stroke="#231f20" stroke-miterlimit="10" stroke-width="0.5"/><path d="M626.9,222.5c1,0,4.5-.4,4.8-.9v2.5c-.3.5-3.8.8-4.8.8Z" fill="#f3ab1d" stroke="#231f20" stroke-miterlimit="10" stroke-width="0.5"/><line x1="626.9" y1="219.3" x2="631.6" y2="219.3" fill="#606161" stroke="#231f20" stroke-linecap="round" stroke-linejoin="round" stroke-width="0.5"/><path d="M637.8,227.2c1.2,0,2.3-.1,2.3-.3v-6.6c0-.3-.4-.7-.4-1h-3.8c0,.3-.5.7-.5,1v6.6C635.4,227.1,636.6,227.2,637.8,227.2Z" fill="#509e72" stroke="#231f20" stroke-miterlimit="10" stroke-width="0.5"/><path d="M635.4,222.5c1,0,4.4-.4,4.7-.9v2.5c-.3.5-3.7.8-4.7.8Z" fill="#f3ab1d" stroke="#231f20" stroke-miterlimit="10" stroke-width="0.5"/><line x1="635.3" y1="219.3" x2="640.1" y2="219.3" fill="#606161" stroke="#231f20" stroke-linecap="round" stroke-linejoin="round" stroke-width="0.5"/><line x1="834.2" y1="258.2" x2="-1.3" y2="258.2" fill="none" stroke="#2d2d2d" stroke-miterlimit="10" stroke-width="4"/><path d="M115.2,130.6h0a0,0,0,0,1,0,0V256.1a0,0,0,0,1,0,0H87.9a0,0,0,0,1,0,0V157.9A27.3,27.3,0,0,1,115.2,130.6Z" fill="#ddd" stroke="#2d2d2d" stroke-linecap="round" stroke-linejoin="round" stroke-width="2"/><path d="M158.6,127.2h29.2a0,0,0,0,1,0,0v129a0,0,0,0,1,0,0h-.6a28.6,28.6,0,0,1-28.6-28.6V127.2a0,0,0,0,1,0,0Z" transform="translate(346.5 383.3) rotate(-180)" fill="#ddd" stroke="#2d2d2d" stroke-linecap="round" stroke-linejoin="round" stroke-width="2"/><path d="M126.1,121.1h21.7a12.4,12.4,0,0,1,12.4,12.4V251.9a5.7,5.7,0,0,1-5.7,5.7H119.4a5.7,5.7,0,0,1-5.7-5.7V133.5A12.4,12.4,0,0,1,126.1,121.1Z" fill="#f3ab1d" stroke="#2d2d2d" stroke-miterlimit="10" stroke-width="2"/><path d="M136.8,131.8c-7.1,0-9.7,5-9.7,11.7v75.9" fill="none" stroke="#2d2d2d" stroke-linecap="round" stroke-linejoin="round"/><path d="M132.9,154.4c6.9,0,11.6,2.9,11.6,12.6v75.1" fill="none" stroke="#2d2d2d" stroke-linecap="round" stroke-linejoin="round"/><path d="M144.5,126.2c5.7,0,10.8,3.5,10.8,9.4V245.3" fill="none" stroke="#2d2d2d" stroke-linecap="round" stroke-linejoin="round"/><line x1="136.8" y1="174.7" x2="136.8" y2="233.2" fill="none" stroke="#2d2d2d" stroke-linecap="round" stroke-linejoin="round"/><line x1="118.5" y1="153.1" x2="118.5" y2="242.1" fill="none" stroke="#2d2d2d" stroke-linecap="round" stroke-linejoin="round"/><path d="M70.1,255.7V229.1c0-9.4,10.9-18.3,24.3-18.3s15,25.4,15,44.9Z" fill="#ddd" stroke="#2d2d2d" stroke-linecap="round" stroke-linejoin="round" stroke-width="2"/><path d="M162.6,256.7c0-11,7.5-28.8,18.2-30.1,23.1-2.9,23.1,22,23.1,30.4l-41.3-.3" fill="#ddd" stroke="#2d2d2d" stroke-linecap="round" stroke-linejoin="round" stroke-width="2"/><path d="M131,258.5a4.5,4.5,0,0,0-4.4-4.5,6.5,6.5,0,0,0-2,.4,5.9,5.9,0,0,0-5.6-3.8,6,6,0,0,0-5.8,4.7,4.5,4.5,0,0,0-7.6,3.2" fill="#fff" stroke="#2d2d2d" stroke-linecap="round" stroke-linejoin="round"/><path d="M174.1,258.9a6.7,6.7,0,0,0-6.8-6.8,6.8,6.8,0,0,0-3.5,1,8.7,8.7,0,0,0-17.3.1v.4a6.2,6.2,0,0,0-4.2-1.5,6.7,6.7,0,0,0-6.8,6.8" fill="#fff" stroke="#2d2d2d" stroke-linecap="round" stroke-linejoin="round"/><path d="M113.3,260.3a5,5,0,0,1,5-5.1,5.1,5.1,0,0,1,3.6,1.5,6.3,6.3,0,0,1,12.4-1,4.6,4.6,0,0,1,2.1-.5,5,5,0,0,1,5,5.1" fill="#fff" stroke="#2d2d2d" stroke-linecap="round" stroke-linejoin="round"/><path d="M168.9,261.4a3.9,3.9,0,0,0-3.9-4,4.2,4.2,0,0,0-1.6.4,5,5,0,0,0-4.8-3.9,4.9,4.9,0,0,0-4.9,4.7,4,4,0,0,0-6.8,2.8" fill="#fff" stroke="#2d2d2d" stroke-linecap="round" stroke-linejoin="round"/><path d="M150.5,263.6a4.4,4.4,0,0,0-6.8-3.8,5.7,5.7,0,0,0-11.4.1v.2a4.3,4.3,0,0,0-2.8-1,4.5,4.5,0,0,0-4.5,4.5" fill="#fff" stroke="#2d2d2d" stroke-linecap="round" stroke-linejoin="round"/><path d="M30.1,192.1H57.8a18.8,18.8,0,0,1,18.8,18.8v24.3a0,0,0,0,1,0,0H11.3a0,0,0,0,1,0,0V210.9A18.8,18.8,0,0,1,30.1,192.1Z" fill="#fdfad9" stroke="#2d2d2d" stroke-miterlimit="10" stroke-width="2"/><rect x="9" y="235.2" width="70.7" height="5.15" fill="#d28e29" stroke="#2d2d2d" stroke-miterlimit="10" stroke-width="2"/><path d="M29.5,217H26v-9.7h3.1c2,0,3.3.8,3.3,2.6a1.9,1.9,0,0,1-.8,1.6,2.5,2.5,0,0,1,1.5,2.4C33.1,215.8,31.8,217,29.5,217Zm-.4-7.9h-1V211h1c.8,0,1.2-.2,1.2-.9S29.8,209.1,29.1,209.1Zm.4,3.6H28.2v2.4h1.3c.9,0,1.4-.5,1.4-1.2S30.5,212.7,29.5,212.7Z" fill="#509e72"/><path d="M34.7,217v-9.7H41v1.9H36.9V211h2.9v1.9H36.9V215h4.5v2Z" fill="#509e72"/><path d="M42.8,217v-9.7h6.3v1.9H45V211h2.9v1.9H45V215h4.5v2Z" fill="#509e72"/><path d="M56.1,217l-2.3-3.8h-.7V217H50.9v-9.7h3.4c2,0,3.4,1,3.4,3A2.6,2.6,0,0,1,56,213l2.7,4Zm-1.9-7.8H53.1v2.2h1.1c1,0,1.4-.4,1.4-1.1S55.2,209.2,54.2,209.2Z" fill="#509e72"/><path d="M28.2,221.4v1.8h3v1.9h-3v4H26v-9.7h6.3v2Z" fill="#509e72"/><path d="M38.6,229.1l-.6-1.8H34.7l-.6,1.8H31.8l3.6-9.7h2l3.5,9.7Zm-2-6.4-.2-.8-.2.8-.9,2.7h2.1Z" fill="#509e72"/><path d="M42.2,229.1v-9.7h2.2v7.8h3.8v1.9Z" fill="#509e72"/><path d="M49.6,229.1v-9.7h2.2v7.8h3.8v1.9Z" fill="#509e72"/><path d="M60.2,229.4a5.6,5.6,0,0,1-3.7-1.7l1.7-1.4a2.6,2.6,0,0,0,2.1,1.1c.8,0,1.3-.4,1.3-1s-4.7-1.3-4.7-4.3,1.5-2.8,3.5-2.8a4.9,4.9,0,0,1,3.2,1.3L62.1,222a3,3,0,0,0-1.7-.7c-.8,0-1.2.3-1.2.8s4.6,1.2,4.6,4.3S62,229.4,60.2,229.4Z" fill="#509e72"/><path d="M19.5,206h-.3c-.3-.2-.4-.6-.3-1.3a29,29,0,0,1,1.6-4.5h.2c.2.2.2.6-.1,1.3s-.7,2.1-1.1,3.5a40.7,40.7,0,0,1,3.3-4.8H23c.2.3.2.5,0,1.2s-.7,2.1-1,3.5a39,39,0,0,1,3.6-5.2h.2c.1.4-.1.8-.6,1.5s-2,2.8-3.2,4.7h-.3c-.3-.3-.4-.6-.3-1.3l.8-2.6C21.4,203.1,20.3,204.7,19.5,206Z" fill="#231f20"/><path d="M25.5,205.4a3.1,3.1,0,0,0,1.8-1.6c.1-.1.2-.1.2,0a1,1,0,0,1-.2.6,2.9,2.9,0,0,1-1.8,1.3c-1.2.1-1.6-1-1-2.3s1.6-1.9,2-1.7l.6.4c.2.2.1.8-.3,1.4s-1.1.9-1.8.4S25,205.4,25.5,205.4Zm.7-2.3c.3-.4.6-.9.4-1s-1,.5-1.4,1.4v.2C25.6,204,26,203.5,26.2,203.1Z" fill="#231f20"/><path d="M28.1,205c.4,0,1.1-.8,1.4-1.6h.2a.6.6,0,0,1,0,.6c-.2.3-.9,1.2-1.6,1.3s-1-.3-.8-1.4a11.1,11.1,0,0,1,2.4-4.7.2.2,0,0,1,.4-.1c.3.2.3.5.2,1a6.6,6.6,0,0,1-2.2,3.2C27.7,204.3,27.6,205.1,28.1,205Zm1.9-5a9.7,9.7,0,0,0-1.5,2.4c-.1.1-.1.3-.2.4A5.4,5.4,0,0,0,30,200Z" fill="#231f20"/><path d="M32.2,201.4c.2.4-.2.9-.4,1.5h-.2c-.2-.1-.3-.4-.2-.8s.4-.8.3-.9-.9.6-1.3,1.5-.3,1.9.2,1.9a3.5,3.5,0,0,0,1.9-1.7h.1c.1.1,0,.3-.1.6a2.9,2.9,0,0,1-1.8,1.3c-1.2.2-1.7-.9-1-2.2s1.5-1.9,2-1.7A1,1,0,0,1,32.2,201.4Z" fill="#231f20"/><path d="M41.2,202.2a2.1,2.1,0,0,1-1.4,1.2c-.8.1-1.1-.5-.7-1.3s1.2-2,1-2.1-.4.2-1,.9a10,10,0,0,0-1.6,2.8c-.1.2-.2.2-.2.1s-.3-.4-.1-1.2,1.4-2.3,1.2-2.3-.6.3-1.2,1.1a12.6,12.6,0,0,0-1.4,2.6h-.2c-.2-.1-.2-.4-.1-.9a9,9,0,0,1,.7-1.4l-.9.4a3.5,3.5,0,0,1-1.5,2.2.8.8,0,0,1-1.2-.2,1.8,1.8,0,0,1,.2-2.1,2.5,2.5,0,0,1,1.5-1.5c.2-.1.4,0,.6.2s.5.3.4,1h0c.6-.1,1.2-.9,1.7-1.7s.2-.2.2-.1a.9.9,0,0,1,0,1,4.4,4.4,0,0,1,1.5-1.3c.3,0,.4.5.3.9a5.4,5.4,0,0,1,1.4-1.1c.4,0,.4.5.2,1a13,13,0,0,1-.8,1.7c-.3.5-.2,1,.2.9s.8-.8,1.2-1.5h.1C41.4,201.6,41.4,201.9,41.2,202.2Zm-7.2-1-.7,1c-.4.8-.5,1.7-.3,1.9s.9-.3,1.3-1.2a3.6,3.6,0,0,0,.4-.9A1,1,0,0,1,34,201.2Zm.8-.1c-.1-.3-.3-.2-.3.1a.7.7,0,0,0,.2.6A2,2,0,0,0,34.8,201.1Z" fill="#231f20"/><path d="M42.3,202.7c.8,0,1.5-.9,1.9-1.6h.2a.8.8,0,0,1-.2.6,2.6,2.6,0,0,1-1.9,1.3c-1.2.2-1.6-.9-1-2.2s1.6-2,2.1-1.8l.5.5c.2.2.1.8-.3,1.3a1.2,1.2,0,0,1-1.7.5C41.6,202.2,41.8,202.8,42.3,202.7Zm.8-2.2c.3-.5.5-1,.4-1.1s-1,.5-1.4,1.5v.2C42.4,201.3,42.8,200.9,43.1,200.5Z" fill="#231f20"/><path d="M46.7,198.4c-.1-.1,0-.2.1-.2h.8a9.7,9.7,0,0,1,.7-1.2h.2a1.5,1.5,0,0,1-.1,1.1.5.5,0,0,1,.6.2c.1.1,0,.2-.1.2h-.8c-.3.7-.9,1.6-1.2,2.4s-.2,1.3.2,1.3.9-.7,1.3-1.4.1-.2.2-.1a1.3,1.3,0,0,1-.1.6,2.4,2.4,0,0,1-1.5,1.2c-.7,0-1.1-.6-.7-1.8l1-2.1A.6.6,0,0,1,46.7,198.4Z" fill="#231f20"/><path d="M51.1,200.2a3.3,3.3,0,0,1-1.5,2.1,1.1,1.1,0,0,1-1.2-.4,2,2,0,0,1,.2-2.1,1.9,1.9,0,0,1,1.5-1.3c.3-.1.4,0,.6.3s.5.3.5,1v.2h-.1Zm-.8-.2a1,1,0,0,1-.4-.8,2.2,2.2,0,0,0-.7.9c-.4.7-.6,1.6-.3,1.8s.8-.1,1.3-1l.3-.8Zm.3-.8c0-.3-.2-.3-.2,0a.6.6,0,0,0,.2.7C50.6,199.6,50.7,199.3,50.6,199.2Z" fill="#231f20"/><rect x="20.4" y="240.4" width="3.2" height="16.45" fill="#f3ab1d" stroke="#2d2d2d" stroke-linecap="round" stroke-linejoin="round" stroke-width="2"/><rect x="68.1" y="240.4" width="3.2" height="16.45" fill="#f3ab1d" stroke="#2d2d2d" stroke-linecap="round" stroke-linejoin="round" stroke-width="2"/></svg>