<svg xmlns="http://www.w3.org/2000/svg" width="3.3in" height="1.9in" viewBox="0 0 239.6 138"><path fill="#e53228" d="M38.6 59.8c1.1-1 2-2 3-2.8 3.4-2.7 7.9-1.4 8.9 2.9.6 2.4.6 5 1 7.4s.9 5.1 1.4 7.6a16 16 0 0 0 1 2.5c.6-.9 1.2-1.5 1.6-2.3 2.3-4 3.3-8.5 4.1-13.1a165.2 165.2 0 0 0 2.1-22.9c0-1 .1-1.9.3-2.9a6 6 0 0 1 3-4.4c2.6-1.6 5.2-3.2 7.9-4.6a4.8 4.8 0 0 1 4.8.5 2.9 2.9 0 0 1 1.2 3c-.3 2.7-.6 5.4-1 8-.6 4.7-1.3 9.4-.6 14.1a16.9 16.9 0 0 0 1.5 4.8c1 2 1.9 2.1 3.1.2a15.5 15.5 0 0 0 2-4.4c1-3.8 1.8-7.6 2.6-11.4a6.1 6.1 0 0 0-.1-2.2 24.3 24.3 0 0 1 1.7-13.5 3.2 3.2 0 0 1 5-1.5c.9.5.8 1.3.7 2.2-.5 2.9-1 5.8-1.4 8.7a27.3 27.3 0 0 0-.3 8.9l1.3-1.2a37.4 37.4 0 0 0 5.9-9.8c2.5-5.7 4.8-11.4 7.2-17.2a17.7 17.7 0 0 0 .9-3 2 2 0 0 1 2.1-1.7 7.6 7.6 0 0 1 2.1.4 1.9 1.9 0 0 1 1.4 2.1c-.7 7.6 1 15 1.6 22.5.2 2.3.4 4.6.6 7a21.7 21.7 0 0 0 5.5-4.9c1.5-1.8 2.8-3.8 4.1-5.7a3.2 3.2 0 0 0 .5-1.8 121.4 121.4 0 0 1 .7-19.9 4.6 4.6 0 0 0 0-.6 29.8 29.8 0 0 1-4.1 0l-14.6-2.3a17.5 17.5 0 0 0-7.3.1 16.8 16.8 0 0 0-3.6 1.5 2.4 2.4 0 0 1-3.1-.4A7 7 0 0 1 97 7.3a22.5 22.5 0 0 1 11.1-.4l13.8 2.3a24.5 24.5 0 0 0 3.4 0c.7 0 1.1-.2 1.1-1s.5-3.7.8-5.5.8-1.6 2-1.5 2 .6 2.1 1.8l.6 5.4c1.7-1 3.2-1.7 4.6-2.7a3.5 3.5 0 0 1 3.4-.4 3.8 3.8 0 0 1 1 .8c-.3.3-.5.7-.8.9l-7.3 2.8c-.7.2-.9.5-.9 1.2.1 9.2.1 18.4.2 27.7a69.3 69.3 0 0 0 .9 7.8 6.9 6.9 0 0 0 .4 1.2h.3a25.6 25.6 0 0 0 1.1-3.2c1.3-5.9 2.6-11.9 3.7-17.9s2.5-12.3 5.1-18a31.6 31.6 0 0 1 3.6-5.6 4.6 4.6 0 0 1 4.3-1.8c2.6.3 4 1.5 4.4 4.1a66.7 66.7 0 0 1 .6 8.1c.1 3.3 0 6.6 0 9.6.2-.4.5-1.1.9-1.7a46.3 46.3 0 0 1 3.1-5 3.5 3.5 0 0 1 6.3 1.1 34.1 34.1 0 0 1 1 4.6 9.9 9.9 0 0 0 .4 2l.5-1.3a42.5 42.5 0 0 1 6.4-11.3c1.9-2.3 4.1-2.8 6.4-1.6a4.7 4.7 0 0 1 2.4 4.6 99 99 0 0 1-.8 10c-.6 4.5-1.4 9-1 13.5a44.7 44.7 0 0 0 1.6 6.8 5.2 5.2 0 0 0 .9 1.6c1.6 2.2 2.9 2.7 4.4-.2a30.6 30.6 0 0 0 2.1-7.4c.8-3.5 1.4-7.1 2-10.7s.4-4.4.8-6.6a22.1 22.1 0 0 1 1.3-4.2c2.3-5.9 6.5-8.1 12.6-6.7l1.1-3a2.4 2.4 0 0 1 2.6-1.7 6.7 6.7 0 0 1 2 .4c1.4.5 1.7 1.1 1.3 2.5-1 4-2.2 8-3.2 12a17.5 17.5 0 0 0-.4 8l.3.9.5.9a15.2 15.2 0 0 0 1.7-2.2c1.1-2.1 2-4.2 3-6.4s2-4.8 3-7.3a5.6 5.6 0 0 0 .4-2.6c-.7-5.1 2.7-10.5 7.6-11.5 7.6-1.6 12.4 4.2 11.5 10.9-.2 1.7-1.2 2.5-2.5 2.3s-1.4-.4-1.2-1.5a10.5 10.5 0 0 0-2.1-8c-1.7-2.2-2.6-2.5-4.6-.3a9.6 9.6 0 0 0-1.6 10.1 31.6 31.6 0 0 0 3 5.2c3.1 5.1 4.6 10.6 3.6 16.5a7 7 0 0 1-11.3 4c-1-.9-1.5-2.4-2.2-3.7s.3-.8.6-1a2.1 2.1 0 0 1 2.7 1.2l1.3 2.2c.8 1.2 1.6 1.3 2.6.3a6.6 6.6 0 0 0 1.8-5.1 15.2 15.2 0 0 0-.4-3.6c-1.1-4.3-2.5-8.5-5.5-12l-.6-.6c-.5 1.2-.9 2.4-1.4 3.5-1.5 3-2.9 6.2-4.6 9a4.7 4.7 0 0 1-7.4 1.2 8.6 8.6 0 0 1-2.4-3.6 37.1 37.1 0 0 1-1.1-5.6l-.4.6c-1.1 1.9-2 3.9-3.2 5.8s-2.8 4.1-5.8 3.5c-.5 2.6-.9 5.1-1.5 7.5a31.5 31.5 0 0 1-2.2 6.4c-2.2 4.3-7.2 5-10.6 1.5a17.3 17.3 0 0 1-4.2-8.9c-1.1-5.2-.6-10.3.3-15.5.5-2.9.8-5.9 1.1-8.8a11.7 11.7 0 0 0-.2-2.2l-.4-.3-1 1.4c-3.5 4.2-5.5 9.1-7 14.3-.9 3-1.6 6.1-2.4 9.2-.4 1.4-1 1.8-2.4 1.7s-2.3-.7-2.4-2.1c-.2-3.5-.3-7.1-.4-10.6s0-4.6 0-6.9h-.5l-.9 1.2a42.8 42.8 0 0 0-5.8 17.1c-.1 1.2-.3 2.4-.5 3.7a1.4 1.4 0 0 1-.5.9 2.7 2.7 0 0 1-4-2c-.2-2.2-.4-4.4-.4-6.6 0-4.9.2-9.8.2-14.7s.1-9 .1-13.5a5.3 5.3 0 0 0-.1-.7L149.7 5a26.3 26.3 0 0 0-4.6 8.6c-2 5.5-3 11.3-4 17.1s-2 9.7-3 14.6a13.4 13.4 0 0 1-.8 2.3c-1.4 3.4-4.9 4.1-7.4 1.4a11.8 11.8 0 0 1-2.4-4.1 55.1 55.1 0 0 1-1.4-6.3l-.3-1.5-1.6 2.1a35.2 35.2 0 0 1-8 7 1.9 1.9 0 0 0-1 1.8 28.6 28.6 0 0 1-2.1 10.9 11.7 11.7 0 0 1-3.7 5c-3.1 2.3-8.3 1.9-10.7-.9a5.4 5.4 0 0 1-1.2-5.7 13.1 13.1 0 0 1 6.1-7.3 49.8 49.8 0 0 1 5.1-2.5 1.5 1.5 0 0 0 1-1.9c-.8-5.5-1.6-11.1-2.4-16.6a22.3 22.3 0 0 0-.8-3.8l-1 2.1-7.9 15a15.4 15.4 0 0 1-1.3 1.8c-1.7 2.4-3.9 3.6-7 2.2-.3 1.3-.5 2.5-.9 3.6a48.9 48.9 0 0 1-2.7 7.3c-2.4 4.5-7.3 4.9-10.6.9S72 52 71.6 48.6c-.6-5.5.3-11 .8-16.5 0-.5.1-1 .1-1.7-2.2 1.1-4.4 1.8-5.8 3.6a6.4 6.4 0 0 0-1.4 3.3c-.4 4.6-.5 9.3-1 14C63.6 58.7 62.6 66 60 73a22.6 22.6 0 0 1-1.8 3.7 4.9 4.9 0 0 1-8.2.6 18.5 18.5 0 0 1-3.3-6.7 39 39 0 0 1-1.9-10.3c0-.7-.2-1.4-.3-2.3a10.3 10.3 0 0 0-4.1 4 14.8 14.8 0 0 0-1.2 4.2c-.1.8-.4 1.2-1.2 1.3a2.8 2.8 0 0 1-3.1-1.8l-.9-2.1-.4 1.4c-1.3 5.1-2.6 10.2-5.1 14.9a30.3 30.3 0 0 1-2.7 4.3c-5 6.5-13.2 7-19.1 1.4a19.6 19.6 0 0 1-5.2-9.2C-.7 68.6-.3 60.8 1.6 53c1.1-4.5 2.4-9 5.1-12.8a28.3 28.3 0 0 1 4.8-5.3c3-2.6 6.5-3 10.2-1.9a5.9 5.9 0 0 1 4.3 4.2c.2.8.6 1.7-.5 2.2a2.1 2.1 0 0 1-2.6-1.1 26 26 0 0 0-2-2.8 1.3 1.3 0 0 0-2.1-.2 25.6 25.6 0 0 0-3.2 3.3c-2.8 3.8-4.4 8.1-5.6 12.6a66.1 66.1 0 0 0-2.5 20.3 29.2 29.2 0 0 0 2.1 10.4 11.2 11.2 0 0 0 3.5 4.7 4.9 4.9 0 0 0 4.9.7 10.7 10.7 0 0 0 4.8-3.7c2.8-3.7 4.3-7.9 5.4-12.3s2.6-9.9 3.5-14.8c.3-1.7-.2-3.5-.4-5.2-1.3-8.8-1.8-17.6-.1-26.4a24.6 24.6 0 0 1 6.1-12.5 14.2 14.2 0 0 1 13.1-4.6c5 .8 8.4 4.8 9 10.7s-1.2 12.6-4.5 18.3a50.1 50.1 0 0 1-15.8 16.1 1.8 1.8 0 0 0-1 2.1c.2 1.6.3 3.2.5 4.8zm-1.2-8.5l.8-.3a50.4 50.4 0 0 0 11-10.3c4.4-6 7.3-12.5 7-20.1-.1-3.1-.7-6.1-2.6-8.6s-3.9-3.1-6.4-2a13.1 13.1 0 0 0-3.7 2.4 18.9 18.9 0 0 0-4.9 8.5 44.7 44.7 0 0 0-1.7 13.5c0 5.6.3 11.1.5 16.9zm72.6-1.7l-.4-.4a47.8 47.8 0 0 0-5.8 3.7 8.5 8.5 0 0 0-3.2 6.9 3.8 3.8 0 0 0 2.5 3.6c1.5.6 2.5-.5 3.4-1.5l.5-.6c2.4-3.6 3-7.5 3-11.7zm88.2-20.8a16.1 16.1 0 0 0 1.1-1.5l6.8-12.5c.7-1.4.7-1.5-.6-2.5-3.7 1.9-7.9 11.2-7.3 16.6z"/><path fill="#e53228" d="M105.4 89.8l.2-.7c.5-1.8 1.2-2.2 3-1.9s2.7 1 2.6 2.9c-.3 3.6-.7 7.1-1 10.7a44.8 44.8 0 0 0 .1 12.8l.2 1 .3.7a21.6 21.6 0 0 0 1.1-2 121.9 121.9 0 0 0 6.5-20.5 61.1 61.1 0 0 0 1.8-18.5v-.2s-.3-2.7-2.2-3.1a7.3 7.3 0 0 1-3.3-2.2 3.2 3.2 0 0 1-.3-3.9c.7-1.2 1.9-1.3 3.1-1.2a4.6 4.6 0 0 1 4 2.8 16 16 0 0 1 1.2 3.4A1.1 1.1 0 0 0 124 71l4.5.2c4 .3 5.6 2.1 5 6.1s-1.6 9.1-2.3 13.7c-.9 6.5-1.7 13-.3 19.6a18.2 18.2 0 0 0 1.9 4.9c.8 1.4 1.5 1.4 2.6.2a12 12 0 0 0 3.1-6c.9-4.3 1.6-8.6 2.3-13 .4-2.6.7-5.3 1-7.9a19 19 0 0 0 0-3.6 13 13 0 0 1 1.9-8.3 7.6 7.6 0 0 1 9.2-3.4l.8.2c.3-1.5.5-3 .8-4.4.9-4.5 2-9 4.4-13a31 31 0 0 1 3.3-4.4 4.8 4.8 0 0 1 8.1 1.6 13 13 0 0 1 .2 7.8 26.8 26.8 0 0 1-9.7 15.1c-.3.3-.8.7-.8 1-.7 6.3-1.3 12.5.6 18.7a14.6 14.6 0 0 0 1.5 3.3c1.1 1.8 1.9 2 3.3.4a18.6 18.6 0 0 0 3.5-5.1c1.5-3.7 2.5-7.5 3.6-11.3s1.6-6 2.2-9.1a2.5 2.5 0 0 0-.3-1.7c-2.6-4.3-2.2-8.5.3-12.6s11.8-5.7 15.4-.7c1.7 2.3 3.1 4.6 3.5 7.5a24 24 0 0 1 0 2.5c0 1-.7 1-1.4.9s-1.5-.1-1.4-1.1c.1-4-1.8-7.2-4.5-9.9s-3.2-1.8-5.1-.1a10.1 10.1 0 0 0-3.1 6.3 9.5 9.5 0 0 0 2.1 8c1.9 2.3 3.9 4.5 5.8 6.8a75 75 0 0 1 4.9 6.7 7.9 7.9 0 0 1 .7 6.5 6.7 6.7 0 0 1-9.5 3.9 3.5 3.5 0 0 1-1.6-3.8.9.9 0 0 1 .3-.5 2.2 2.2 0 0 1 3.2 1.5c.1.6.2 1.1.3 1.8a3.8 3.8 0 0 0 2.7-2.9 9.1 9.1 0 0 0-1.7-7.9c-1.4-1.9-3.1-3.7-4.6-5.5l-3.3-3.5-.4 1.3c-1.5 5.2-2.8 10.3-4.4 15.4a24.9 24.9 0 0 1-3.2 6.4c-2.6 3.8-7.3 4.1-10.6.7s-3.9-6.2-4.7-9.8l-.3-1.5c-1 1.7-1.6 3.6-3.5 4.3s-3.6 0-5.3-1.3c-.4 2.6-.6 5-1 7.3-.8 4.2-1.7 8.3-2.8 12.4a13 13 0 0 1-1.9 3.7 5.8 5.8 0 0 1-9.1.8 14.1 14.1 0 0 1-2.8-4.5c-2-5.1-2.2-10.5-2-16a111 111 0 0 1 2.7-20.7c.5-2.3.3-2.5-2.1-2.7l-2.6-.2a5.6 5.6 0 0 0-.1.9c.6 5.9-.1 11.8-1.3 17.6a141.7 141.7 0 0 1-6.2 21.9 27.3 27.3 0 0 1-1.4 3c-1.8 3.4-6.4 2.6-7.6.3a31.3 31.3 0 0 1-2.3-6.4 54.9 54.9 0 0 1-.8-6.3c-1.8 3.4-3 7.3-8.2 6.1-.2 1.6-.4 3-.6 4.5-.8 5.8-1.7 11.7-3.9 17.2l-.9 2.1c-2.2 4.4-5.4 5.9-10.2 4.5a16.4 16.4 0 0 1-7.5-4.6 26.4 26.4 0 0 1-6.9-13.8c-1.7-9.4-1.9-18.7.6-28a25.6 25.6 0 0 1 7.3-12.7c3.4-3.1 7.3-4.8 12.1-3.9a6.7 6.7 0 0 1 4.6 2.8 5 5 0 0 1 .7 2c.1.8-.1 1.5-1.1 1.6s-1.7 0-1.9-1.2A4.7 4.7 0 0 0 87 78a3 3 0 0 0-4.3-1.2 14.4 14.4 0 0 0-6 5.3 37.4 37.4 0 0 0-6 16.4 72.5 72.5 0 0 0 .2 22.1c.8 5 2.7 9.5 6.5 13a17.4 17.4 0 0 0 3.4 2.3 2.9 2.9 0 0 0 3.8-.8 17 17 0 0 0 2.3-3.4 46 46 0 0 0 3.9-14.3c.5-3.6.9-7.3 1.3-10.9a4.9 4.9 0 0 0-.1-1.8A15.4 15.4 0 0 1 93.1 94c2.2-4.9 6.3-5.8 11-4.5zm55.4-16.5c4.1-4.2 7.3-8.9 7.4-15.1a9 9 0 0 0-1.6-5.3c-3.7 6.4-4.6 13.4-5.8 20.4zm-63.3 34a29.7 29.7 0 0 0 2.2-3.5c1.5-3.2 2.8-6.5 4.2-9.7.5-1.1 0-2.1-1.2-2.9s-1.6 0-2.3.5a4.8 4.8 0 0 0-1 1.1 16.8 16.8 0 0 0-2.8 7.4c-.2 2.3-.4 4.6.9 7.1zm51.1-15.4a12.9 12.9 0 0 0 1.5-1.9 34.7 34.7 0 0 0 3.4-12c.1-.7-1-2.4-1.7-2.4a3.3 3.3 0 0 0-1.6 1 6.3 6.3 0 0 0-1.1 1.5 16.3 16.3 0 0 0-2 9.5 7.5 7.5 0 0 0 1.5 4.3zm-30.9-26.5a2.9 2.9 0 0 0 2 4.7 9.2 9.2 0 0 0-2-4.7zM91 19.6v-.8c.1-2.1.9-2.7 2.9-2.2a1.7 1.7 0 0 1 1.6 2.2c-.1.5-.2 1.1-.3 1.6s-.8 1.9-2.3 1.7-2.1-.7-2-2.3z"/></svg>