<svg id="Layer_1" data-name="Layer 1" xmlns="http://www.w3.org/2000/svg" xmlns:xlink="http://www.w3.org/1999/xlink" width="8.5in" height="17in" viewBox="0 0 612 1224"><defs><linearGradient id="linear-gradient" x1="118.13" y1="612.55" x2="491.92" y2="612.55" gradientUnits="userSpaceOnUse"><stop offset="0" stop-color="#9b302e"/><stop offset="0.9" stop-color="#9b302e"/></linearGradient></defs><title>Artboard 2 copy 5</title><rect width="612" height="1225.1" fill="#f04f24"/><polygon points="393.2 373.1 305 521.6 216.9 373.1 75.5 373.1 247.3 612.6 247.3 852 305 852 362.8 852 362.8 612.6 534.6 373.1 393.2 373.1" fill="#e96a53"/><polygon points="258.2 841 258.2 609 96.8 384.1 210.6 384.1 305 543 399.4 384.1 513.2 384.1 351.8 609 351.8 841 258.2 841" fill="#fff"/><polygon points="269.1 830.1 269.1 605.5 118.1 395 204.4 395 305 564.5 405.6 395 491.9 395 340.9 605.5 340.9 830.1 269.1 830.1" fill="url(#linear-gradient)"/><path d="M455.7,672.5a8.3,8.3,0,0,0-8.3-8.3A10.4,10.4,0,0,0,437,674.6a13,13,0,0,0,13,13,16.2,16.2,0,0,0,16.2-16.2,20.3,20.3,0,0,0-20.3-20.3,25.4,25.4,0,0,0-25.4,25.4,31.7,31.7,0,0,0,31.7,31.7,39.7,39.7,0,0,0,39.7-39.7,49.6,49.6,0,0,0-49.6-49.6,62,62,0,0,0-62,62V852" fill="none" stroke="#fff" stroke-miterlimit="10"/><path d="M423.3,621.9a28.3,28.3,0,0,0,18.9-35.2A22.6,22.6,0,0,0,414,571.6a18.1,18.1,0,0,0-12.1,22.6,14.5,14.5,0,0,0,18,9.7,11.6,11.6,0,0,0,7.7-14.4,9.3,9.3,0,0,0-11.5-6.2,7.4,7.4,0,0,0-4.9,9.2" fill="none" stroke="#fff" stroke-miterlimit="10"/><path d="M455,549.3a16.2,16.2,0,0,1,16.2-16.2,20.3,20.3,0,0,1,20.3,20.3,25.4,25.4,0,0,1-25.4,25.4A31.7,31.7,0,0,1,434.5,547a39.7,39.7,0,0,1,39.7-39.7A49.6,49.6,0,0,1,523.7,557a62,62,0,0,1-62,62H443.1" fill="none" stroke="#fff" stroke-miterlimit="10"/><path d="M518.2,534.3A39.6,39.6,0,0,1,538,481.9a31.7,31.7,0,0,1,41.9,15.8,25.3,25.3,0,0,1-12.7,33.5,20.3,20.3,0,0,1-26.8-10.1,16.2,16.2,0,0,1,8.1-21.5" fill="none" stroke="#fff" stroke-miterlimit="10"/><path d="M541.5,480.5a33.2,33.2,0,0,0,26.4-38.8,26.5,26.5,0,0,0-31-21.1A21.2,21.2,0,0,0,520,445.4a17,17,0,0,0,19.9,13.5A13.6,13.6,0,0,0,550.7,443a10.9,10.9,0,0,0-12.7-8.6,8.7,8.7,0,0,0-6.9,10.2,7,7,0,0,0,8.1,5.5,5.6,5.6,0,0,0,4.4-6.5" fill="none" stroke="#fff" stroke-miterlimit="10"/><path d="M156.3,672.5a8.3,8.3,0,0,1,8.3-8.3A10.4,10.4,0,0,1,175,674.6a13,13,0,0,1-13,13,16.2,16.2,0,0,1-16.2-16.2,20.3,20.3,0,0,1,20.3-20.3,25.4,25.4,0,0,1,25.4,25.4,31.7,31.7,0,0,1-31.7,31.7,39.7,39.7,0,0,1-39.7-39.7,49.6,49.6,0,0,1,49.6-49.6,62,62,0,0,1,62,62V852" fill="none" stroke="#fff" stroke-miterlimit="10"/><path d="M188.7,621.9a28.3,28.3,0,0,1-18.9-35.2A22.6,22.6,0,0,1,198,571.6a18.1,18.1,0,0,1,12.1,22.6,14.5,14.5,0,0,1-18,9.7,11.6,11.6,0,0,1-7.7-14.4,9.3,9.3,0,0,1,11.5-6.2,7.4,7.4,0,0,1,4.9,9.2" fill="none" stroke="#fff" stroke-miterlimit="10"/><path d="M157,549.3a16.2,16.2,0,0,0-16.2-16.2,20.3,20.3,0,0,0-20.3,20.3,25.4,25.4,0,0,0,25.4,25.4A31.7,31.7,0,0,0,177.5,547a39.7,39.7,0,0,0-39.7-39.7A49.6,49.6,0,0,0,88.3,557a62,62,0,0,0,62,62h18.6" fill="none" stroke="#fff" stroke-miterlimit="10"/><path d="M93.8,534.3A39.6,39.6,0,0,0,74,481.9a31.7,31.7,0,0,0-41.9,15.8,25.3,25.3,0,0,0,12.7,33.5,20.3,20.3,0,0,0,26.8-10.1,16.2,16.2,0,0,0-8.1-21.5" fill="none" stroke="#fff" stroke-miterlimit="10"/><path d="M70.5,480.5a33.2,33.2,0,0,1-26.4-38.8,26.5,26.5,0,0,1,31-21.1A21.2,21.2,0,0,1,92,445.4a17,17,0,0,1-19.9,13.5A13.6,13.6,0,0,1,61.3,443a10.9,10.9,0,0,1,12.7-8.6A8.7,8.7,0,0,1,81,444.6a7,7,0,0,1-8.1,5.5,5.6,5.6,0,0,1-4.4-6.5" fill="none" stroke="#fff" stroke-miterlimit="10"/><path d="M231.6,738.5a42.9,42.9,0,0,1-42.9,42.9,34.3,34.3,0,0,1-34.3-34.3,27.5,27.5,0,0,1,27.5-27.5,22,22,0,0,1,22,22,17.6,17.6,0,0,1-17.6,17.6,14.1,14.1,0,0,1-14.1-14.1,11.3,11.3,0,0,1,11.3-11.3" fill="none" stroke="#fff" stroke-miterlimit="10"/><path d="M231.6,823.4a26.5,26.5,0,0,0-26.5-26.5A21.2,21.2,0,0,0,184,818.1,16.9,16.9,0,0,0,200.9,835a13.6,13.6,0,0,0,13.6-13.6,10.8,10.8,0,0,0-10.8-10.8,8.7,8.7,0,0,0-8.7,8.7,6.9,6.9,0,0,0,6.9,6.9,5.6,5.6,0,0,0,5.6-5.6,4.4,4.4,0,0,0-4.4-4.4" fill="none" stroke="#fff" stroke-miterlimit="10"/><path d="M380.4,738.5a42.9,42.9,0,0,0,42.9,42.9,34.3,34.3,0,0,0,34.3-34.3,27.5,27.5,0,0,0-27.5-27.5,22,22,0,0,0-22,22,17.6,17.6,0,0,0,17.6,17.6,14.1,14.1,0,0,0,14.1-14.1,11.3,11.3,0,0,0-11.3-11.3" fill="none" stroke="#fff" stroke-miterlimit="10"/><path d="M380.4,823.4a26.5,26.5,0,0,1,26.5-26.5A21.2,21.2,0,0,1,428,818.1,16.9,16.9,0,0,1,411.1,835a13.6,13.6,0,0,1-13.6-13.6,10.8,10.8,0,0,1,10.8-10.8,8.7,8.7,0,0,1,8.7,8.7,6.9,6.9,0,0,1-6.9,6.9,5.6,5.6,0,0,1-5.6-5.6,4.4,4.4,0,0,1,4.4-4.4" fill="none" stroke="#fff" stroke-miterlimit="10"/><polyline points="118.1 395 168.6 414.6 204.4 395" fill="none" stroke="#fff" stroke-miterlimit="10"/><polyline points="491.9 395 438.1 414.6 405.6 395" fill="none" stroke="#fff" stroke-miterlimit="10"/><line x1="168.6" y1="414.6" x2="305" y2="604.8" fill="none" stroke="#fff" stroke-miterlimit="10"/><line x1="305" y1="564.5" x2="305" y2="808.7" fill="none" stroke="#fff" stroke-miterlimit="10"/><line x1="438.1" y1="414.6" x2="305" y2="604.8" fill="none" stroke="#fff" stroke-miterlimit="10"/><path d="M269.1,605.5c11.1.5,71.7,0,71.7,0" fill="none" stroke="#fff" stroke-miterlimit="10"/><polyline points="269.1 830.1 305 808.7 340.9 830.1" fill="none" stroke="#fff" stroke-miterlimit="10"/></svg>