<svg id="Layer_1" data-name="Layer 1" xmlns="http://www.w3.org/2000/svg" xmlns:xlink="http://www.w3.org/1999/xlink" width="8.2in" height="8.2in" viewBox="0 0 593 593"><defs><linearGradient id="linear-gradient" x1="65.98" y1="263.5" x2="189.48" y2="263.5" gradientUnits="userSpaceOnUse"><stop offset="0" stop-color="#b73658"/><stop offset="0.13" stop-color="#b93b5c" stop-opacity="0.97"/><stop offset="0.28" stop-color="#be4a68" stop-opacity="0.9"/><stop offset="0.44" stop-color="#c7627d" stop-opacity="0.78"/><stop offset="0.6" stop-color="#d38599" stop-opacity="0.61"/><stop offset="0.76" stop-color="#e3b1be" stop-opacity="0.39"/><stop offset="0.93" stop-color="#f6e6ea" stop-opacity="0.12"/><stop offset="1" stop-color="#fff" stop-opacity="0"/></linearGradient><linearGradient id="linear-gradient-2" x1="275.21" y1="478.03" x2="548.2" y2="478.03" gradientUnits="userSpaceOnUse"><stop offset="0" stop-color="#becccb"/><stop offset="1" stop-color="#becccb"/></linearGradient><linearGradient id="linear-gradient-3" x1="437.76" y1="410.78" x2="478.93" y2="410.78" gradientTransform="translate(974.2 888.8) rotate(180)" xlink:href="#linear-gradient"/></defs><title>Artboard 4</title><image width="2773" height="2772" transform="translate(-36.2 -36) scale(0.24)" xlink:href="Artboard 41.png"/><path d="M66,263.5A123.5,123.5,0,0,1,189.5,140V387A123.5,123.5,0,0,1,66,263.5Z" opacity="0.64" fill="url(#linear-gradient)"/><path d="M495.3,53.8c-220.1,0-115.7,344.5-313.4,344.5C7,398.3,2.3,126.9,197.2,126.9,0,126.9,11,398.3,181.9,398.3,422.3,398.3,377,53.8,495.3,53.8Z" fill="#becccb" stroke="#becccb" stroke-miterlimit="10" stroke-width="1.47"/><path d="M196.8,127.1c141.5,0,154.6,169.4,5.4,169.4C286.5,296.5,295.5,127.1,196.8,127.1Z" fill="#becccb" stroke="#becccb" stroke-linejoin="round" stroke-width="1.47"/><path d="M515.8,54c-121.5,0-62.6,406.1-251,406.1C534.2,460.1,458.9,54,515.8,54Z" fill="#becccb" stroke="#becccb" stroke-linejoin="round"/><path d="M495.3,53l20.9.7-20.9.7a.7.7,0,0,1-.1-1.5Z" fill="#becccb"/><line x1="374.3" y1="212.1" x2="439.1" y2="212.1" fill="#becccb" stroke="#becccb" stroke-miterlimit="10" stroke-width="5.89"/><path d="M275.2,460.1c165.3,0,147.9,73.9,206.9,73.9,85.8,0,88.8-112,2-112,88.5,0,82.8,112-2,112C355.1,534,358.1,460.1,275.2,460.1Z" stroke="#becccb" stroke-linecap="round" stroke-linejoin="round" fill="url(#linear-gradient-2)"/><path d="M536.5,478a41.2,41.2,0,0,1-41.2,41.2V436.9A41.2,41.2,0,0,1,536.5,478Z" opacity="0.64" fill="url(#linear-gradient-3)"/><circle cx="494.3" cy="206.5" r="7.3" fill="#becccb" stroke="#becccb" stroke-linejoin="round"/><circle cx="488.5" cy="239.1" r="7.3" fill="#becccb" stroke="#becccb" stroke-linejoin="round"/><circle cx="481.2" cy="271.7" r="7.3" fill="#becccb" stroke="#becccb" stroke-linejoin="round"/><circle cx="474" cy="304.3" r="7.3" fill="#becccb" stroke="#becccb" stroke-linejoin="round"/></svg>