<svg xmlns="http://www.w3.org/2000/svg" width="256" height="256" viewBox="0 0 256 256"><circle cx="128" cy="128" r="128"/><path fill="#fff" d="M119.4 87.9a25.2 25.2 0 0 1 4.5 15.1c0 6-1.5 10.8-4.6 14.5a22.9 22.9 0 0 1-7.5 5.6 22.7 22.7 0 0 1 11.4 8.8 25.6 25.6 0 0 1 3.9 14.4 29.4 29.4 0 0 1-4.4 15.8 26.8 26.8 0 0 1-18.2 12.7 68.5 68.5 0 0 1-14 1.4H46V77.3h47.8c12 .2 20.5 3.7 25.6 10.6zm-53.7 6.6v21.8h24a20.4 20.4 0 0 0 10.5-2.4c2.7-1.7 4-4.6 4-8.7s-1.8-7.7-5.3-9.1a35.5 35.5 0 0 0-11.7-1.6zm0 38.2V159h24a24.3 24.3 0 0 0 10-1.7c4.3-2.2 6.5-6.3 6.5-12.4s-2.1-8.6-6.3-10.6a25.4 25.4 0 0 0-9.9-1.6zm125.2-28.1a29.8 29.8 0 0 1 12.6 10.8 34.6 34.6 0 0 1 5.8 15.1 81.5 81.5 0 0 1 .7 14.5h-53.2c.3 7.3 2.8 12.5 7.6 15.4a19.6 19.6 0 0 0 10.5 2.8 16.2 16.2 0 0 0 10.6-3.4 17.2 17.2 0 0 0 4-5H209c-.5 4.3-2.9 8.7-7.1 13.2-6.5 7.1-15.7 10.7-27.5 10.7a39.7 39.7 0 0 1-25.7-9c-7.5-6-11.2-15.8-11.2-29.3s3.4-22.4 10.1-29.1 15.4-10.2 26.1-10.2a41.3 41.3 0 0 1 17.2 3.5zm-28.6 16.5a19.8 19.8 0 0 0-5.1 11.3h32.9c-.3-5.1-2-8.9-5-11.6a17.1 17.1 0 0 0-11.4-3.9q-7.3 0-11.4 4.2zm-8.2-39.8h39.4v9.35h-39.4z"/></svg>