<svg xmlns="http://www.w3.org/2000/svg" xmlns:xlink="http://www.w3.org/1999/xlink" width="9.3in" height="9.3in" viewBox="0 0 672 672"><defs><radialGradient id="radial-gradient" cx="334.98" cy="334.79" r="336" gradientTransform="translate(0 26.8) scale(1 0.92)" gradientUnits="userSpaceOnUse"><stop offset="0" stop-color="#9f406d"/><stop offset="1" stop-color="#782e51"/></radialGradient></defs><title>Artboard 11</title><g id="Layer_2" data-name="Layer 2"><rect x="-1" y="-1.2" width="672" height="672" fill="url(#radial-gradient)"/><path d="M197.6,358a21.3,21.3,0,0,1,0-42.5" fill="none" stroke="#fff" stroke-miterlimit="10" stroke-width="0.9"/><polyline points="260.1 211.5 260.1 161.4 260.1 108" fill="none" stroke="#fff" stroke-miterlimit="10" stroke-width="0.9"/><rect x="197.4" y="108" width="125.7" height="457.48" fill="none" stroke="#fff" stroke-miterlimit="10" stroke-width="2.69"/><line x1="135.4" y1="108" x2="197.4" y2="108" fill="none" stroke="#fff" stroke-miterlimit="10" stroke-width="2.69"/><path d="M164.3,108a33.1,33.1,0,0,1,33.1,33.1" fill="none" stroke="#fff" stroke-miterlimit="10" stroke-width="2.69"/><line x1="135.4" y1="565.5" x2="197.4" y2="565.5" fill="none" stroke="#fff" stroke-miterlimit="10" stroke-width="2.69"/><path d="M164.3,565.5a33.1,33.1,0,0,0,33.1-33.1" fill="none" stroke="#fff" stroke-miterlimit="10" stroke-width="2.69"/><circle cx="260.2" cy="336.8" r="35.4" fill="none" stroke="#fff" stroke-miterlimit="10" stroke-width="0.9"/><circle cx="260.2" cy="336.8" r="7.4" fill="none" stroke="#fff" stroke-miterlimit="10" stroke-width="0.9"/><polyline points="273.5 369.6 260.2 336.8 246.9 369.6" fill="none" stroke="#fff" stroke-miterlimit="10" stroke-width="0.9"/><line x1="260.2" y1="336.8" x2="304.2" y2="336.8" fill="none" stroke="#fff" stroke-miterlimit="10" stroke-width="0.9"/><circle cx="306.2" cy="336.8" r="2.1" fill="none" stroke="#fff" stroke-miterlimit="10" stroke-width="0.9"/><line x1="260.2" y1="336.8" x2="216.3" y2="336.8" fill="none" stroke="#fff" stroke-miterlimit="10" stroke-width="0.9"/><circle cx="214.2" cy="336.8" r="2.1" fill="none" stroke="#fff" stroke-miterlimit="10" stroke-width="0.9"/><line x1="246.9" y1="369.6" x2="273.5" y2="369.6" fill="none" stroke="#fff" stroke-miterlimit="10" stroke-width="0.67"/><line x1="272.3" y1="366.7" x2="248.1" y2="366.7" fill="none" stroke="#fff" stroke-miterlimit="10" stroke-width="0.67"/><line x1="271.1" y1="363.8" x2="249.2" y2="363.8" fill="none" stroke="#fff" stroke-miterlimit="10" stroke-width="0.67"/><line x1="270" y1="360.9" x2="250.4" y2="360.9" fill="none" stroke="#fff" stroke-miterlimit="10" stroke-width="0.67"/><line x1="268.8" y1="358" x2="251.6" y2="358" fill="none" stroke="#fff" stroke-miterlimit="10" stroke-width="0.67"/><line x1="267.6" y1="355.1" x2="252.8" y2="355.1" fill="none" stroke="#fff" stroke-miterlimit="10" stroke-width="0.67"/><line x1="266.5" y1="352.2" x2="253.9" y2="352.2" fill="none" stroke="#fff" stroke-miterlimit="10" stroke-width="0.67"/><line x1="265.3" y1="349.3" x2="255.1" y2="349.3" fill="none" stroke="#fff" stroke-miterlimit="10" stroke-width="0.67"/><line x1="264.2" y1="346.4" x2="256.3" y2="346.4" fill="none" stroke="#fff" stroke-miterlimit="10" stroke-width="0.67"/><rect x="207.4" y="329.3" width="105.4" height="14.87" fill="none" stroke="#fff" stroke-miterlimit="10" stroke-width="0.9"/><path d="M256.9,242.5h6.7a32.1,32.1,0,0,1,32.1,32.1v54.8a0,0,0,0,1,0,0H224.8a0,0,0,0,1,0,0V274.6a32.1,32.1,0,0,1,32.1-32.1Z" fill="none" stroke="#fff" stroke-miterlimit="10" stroke-width="0.9" stroke-dasharray="2.21 2.21 2.21 2.21"/><path d="M197.4,211.5H210a50.1,50.1,0,0,1,100.2,0h12.9" fill="none" stroke="#fff" stroke-miterlimit="10" stroke-width="0.9"/><path d="M409.4,108c90.5,0,131.3,86.8,131.3,130.8V108H323.1" fill="none" stroke="#fff" stroke-miterlimit="10" stroke-width="2.69"/><path d="M409.4,565.5c90.5,0,131.3-86.8,131.3-130.8V565.5H323.1" fill="none" stroke="#fff" stroke-miterlimit="10" stroke-width="2.69"/><path d="M431.9,336.8c21.3,0,43.4,56.9,43.4,77.5v-155C475.3,279.9,453.2,336.8,431.9,336.8Z" fill="none" stroke="#fff" stroke-miterlimit="10" stroke-width="2.69"/><polyline points="246.8 303.9 260.1 336.8 273.4 303.9" fill="none" stroke="#fff" stroke-miterlimit="10" stroke-width="0.9"/><line x1="273.4" y1="303.9" x2="246.8" y2="303.9" fill="none" stroke="#fff" stroke-miterlimit="10" stroke-width="0.9"/><line x1="248" y1="306.8" x2="272.2" y2="306.8" fill="none" stroke="#fff" stroke-miterlimit="10" stroke-width="0.9"/><line x1="249.1" y1="309.7" x2="271" y2="309.7" fill="none" stroke="#fff" stroke-miterlimit="10" stroke-width="0.9"/><line x1="250.3" y1="312.6" x2="269.9" y2="312.6" fill="none" stroke="#fff" stroke-miterlimit="10" stroke-width="0.9"/><line x1="251.5" y1="315.5" x2="268.7" y2="315.5" fill="none" stroke="#fff" stroke-miterlimit="10" stroke-width="0.9"/><line x1="252.7" y1="318.4" x2="267.5" y2="318.4" fill="none" stroke="#fff" stroke-miterlimit="10" stroke-width="0.9"/><line x1="253.8" y1="321.3" x2="266.4" y2="321.3" fill="none" stroke="#fff" stroke-miterlimit="10" stroke-width="0.9"/><line x1="255" y1="324.2" x2="265.2" y2="324.2" fill="none" stroke="#fff" stroke-miterlimit="10" stroke-width="0.9"/><line x1="256.1" y1="327.1" x2="264" y2="327.1" fill="none" stroke="#fff" stroke-miterlimit="10" stroke-width="0.9"/><path d="M197.4,268.2a68.5,68.5,0,0,0,0,137" fill="none" stroke="#fff" stroke-miterlimit="10" stroke-width="0.9"/><path d="M197.4,257.9h-1.3" fill="none" stroke="#fdfefe" stroke-miterlimit="10" stroke-width="0.63"/><path d="M193.5,258l-3.9.3" fill="none" stroke="#fdfefe" stroke-miterlimit="10" stroke-width="0.63" stroke-dasharray="2.58 2.58"/><path d="M188.4,258.4a78.8,78.8,0,0,0,6.5,157.1" fill="none" stroke="#fdfefe" stroke-miterlimit="10" stroke-width="0.63" stroke-dasharray="2.58 2.58 2.58 2.58"/><path d="M196.1,415.6h1.3" fill="none" stroke="#fdfefe" stroke-miterlimit="10" stroke-width="0.63"/><path d="M154,334.4a29.8,29.8,0,0,1,14.8,4.4,29.8,29.8,0,0,1-14.8,4.4c-8.2,0-14.8-2-14.8-4.4S145.8,334.4,154,334.4Z" fill="none" stroke="#fff" stroke-miterlimit="10" stroke-width="0.9"/><path d="M161.9,313.3a29.8,29.8,0,0,1,10.6,11.2,29.8,29.8,0,0,1-15.1-3.6c-7.1-4.1-11.9-9.1-10.6-11.2S154.8,309.2,161.9,313.3Z" fill="none" stroke="#fff" stroke-miterlimit="10" stroke-width="0.9"/><path d="M179.4,299A29.8,29.8,0,0,1,183,314a29.8,29.8,0,0,1-11.2-10.6c-4.1-7.1-5.7-13.8-3.6-15.1S175.3,291.9,179.4,299Z" fill="none" stroke="#fff" stroke-miterlimit="10" stroke-width="0.9"/><path d="M157.8,356.6a29.8,29.8,0,0,1,15.1-3.6,29.8,29.8,0,0,1-10.6,11.2c-7.1,4.1-13.8,5.7-15.1,3.6S150.7,360.7,157.8,356.6Z" fill="none" stroke="#fff" stroke-miterlimit="10" stroke-width="0.9"/><path d="M172.2,374a29.8,29.8,0,0,1,11.2-10.6,29.8,29.8,0,0,1-3.6,15.1c-4.1,7.1-9.1,11.9-11.2,10.6S168.1,381.1,172.2,374Z" fill="none" stroke="#fff" stroke-miterlimit="10" stroke-width="0.9"/><line x1="540.7" y1="241.1" x2="540.7" y2="242.7" fill="none" stroke="#fff" stroke-miterlimit="10" stroke-width="0.9"/><circle cx="260.1" cy="151" r="4.1" fill="none" stroke="#fff" stroke-miterlimit="10" stroke-width="0.55"/><circle cx="260.1" cy="118.1" r="4.1" fill="none" stroke="#fff" stroke-miterlimit="10" stroke-width="0.55"/><circle cx="260.1" cy="134.6" r="4.1" fill="none" stroke="#fff" stroke-miterlimit="10" stroke-width="0.55"/><path d="M207.4,329.3V275.9c0-30.5,20.1-55.2,50.6-55.2h0v47.5" fill="none" stroke="#fff" stroke-miterlimit="10" stroke-width="0.9"/><path d="M312.8,329.3V275.9c0-30.5-20.1-55.2-50.6-55.2h0v47.5" fill="none" stroke="#fff" stroke-miterlimit="10" stroke-width="0.9"/><path d="M258,268.2a12.3,12.3,0,1,1-24.6,0h53.3a12.3,12.3,0,0,1-24.6,0" fill="none" stroke="#fff" stroke-miterlimit="10" stroke-width="0.9"/><line x1="207.4" y1="285.9" x2="260.2" y2="285.9" fill="none" stroke="#fff" stroke-miterlimit="10" stroke-width="0.9"/><line x1="260.1" y1="295.7" x2="312.5" y2="295.6" fill="none" stroke="#fff" stroke-miterlimit="10" stroke-width="0.9"/><circle cx="260.1" cy="290.8" r="4.9" fill="none" stroke="#fff" stroke-miterlimit="10" stroke-width="0.9"/><line x1="257.9" y1="270" x2="233.5" y2="270" fill="none" stroke="#fff" stroke-miterlimit="10" stroke-width="0.45"/><line x1="238.8" y1="278.3" x2="252.7" y2="278.3" fill="none" stroke="#fff" stroke-miterlimit="10" stroke-width="0.45"/><line x1="236.5" y1="276.3" x2="255" y2="276.3" fill="none" stroke="#fff" stroke-miterlimit="10" stroke-width="0.45"/><line x1="234.1" y1="272.1" x2="257.4" y2="272.1" fill="none" stroke="#fff" stroke-miterlimit="10" stroke-width="0.45"/><line x1="235.1" y1="274.3" x2="256.5" y2="274.3" fill="none" stroke="#fff" stroke-miterlimit="10" stroke-width="0.45"/><line x1="286.5" y1="270" x2="262.2" y2="270" fill="none" stroke="#fff" stroke-miterlimit="10" stroke-width="0.45"/><line x1="267.5" y1="278.3" x2="281.4" y2="278.3" fill="none" stroke="#fff" stroke-miterlimit="10" stroke-width="0.45"/><line x1="265.2" y1="276.3" x2="283.6" y2="276.3" fill="none" stroke="#fff" stroke-miterlimit="10" stroke-width="0.45"/><line x1="262.8" y1="272.1" x2="286" y2="272.1" fill="none" stroke="#fff" stroke-miterlimit="10" stroke-width="0.45"/><line x1="263.7" y1="274.3" x2="285.1" y2="274.3" fill="none" stroke="#fff" stroke-miterlimit="10" stroke-width="0.45"/><polyline points="230.1 108 260.1 211.5 273 163.1 287.5 108" fill="none" stroke="#fdfefe" stroke-miterlimit="10" stroke-width="0.63" stroke-dasharray="2.54 2.54 2.54 2.54"/><line x1="115.2" y1="336.8" x2="73.3" y2="336.8" fill="none" stroke="#fdfefe" stroke-miterlimit="10" stroke-width="0.63" stroke-dasharray="2.54 2.54 2.54 2.54"/><polyline points="197.4 144.2 260.1 211.5 323.1 146.9" fill="none" stroke="#fff" stroke-miterlimit="10" stroke-width="0.9"/><path d="M312,231.8a14.3,14.3,0,0,1-6.5,3.5,14.3,14.3,0,0,1,3.5-6.5c2.8-2.8,5.7-4.4,6.5-3.5S314.8,229,312,231.8Z" fill="none" stroke="#fff" stroke-miterlimit="10" stroke-width="0.9"/><path d="M313,240a14.3,14.3,0,0,1-7.1-2.1,14.3,14.3,0,0,1,7.1-2.1c3.9,0,7.1.9,7.1,2.1S317,240,313,240Z" fill="none" stroke="#fff" stroke-miterlimit="10" stroke-width="0.9"/><path d="M305,227.8a14.3,14.3,0,0,1-2.1,7.1,14.3,14.3,0,0,1-2.1-7.1c0-3.9.9-7.1,2.1-7.1S305,223.9,305,227.8Z" fill="none" stroke="#fff" stroke-miterlimit="10" stroke-width="0.9"/><path d="M197.4,218.4h41.9a2.8,2.8,0,0,0,2.8-2.8V205.3a2.3,2.3,0,0,0-2.3-2.3h-9.5a5.5,5.5,0,0,0-5.5,5.5h0a5.5,5.5,0,0,0,5.5,5.5h29.8" fill="none" stroke="#fff" stroke-miterlimit="10" stroke-width="0.9"/><path d="M322.8,218.4H280.8a2.8,2.8,0,0,1-2.8-2.8V205.3a2.3,2.3,0,0,1,2.3-2.3h9.5a5.5,5.5,0,0,1,5.5,5.5h0a5.5,5.5,0,0,1-5.5,5.5H260.1" fill="none" stroke="#fff" stroke-miterlimit="10" stroke-width="0.9"/><path d="M210.7,228.6a14.3,14.3,0,0,1,3.5,6.5,14.3,14.3,0,0,1-6.5-3.5c-2.8-2.8-4.4-5.7-3.5-6.5S207.9,225.9,210.7,228.6Z" fill="none" stroke="#fff" stroke-miterlimit="10" stroke-width="0.9"/><path d="M218.9,227.6a14.3,14.3,0,0,1-2.1,7.1,14.3,14.3,0,0,1-2.1-7.1c0-3.9.9-7.1,2.1-7.1S218.9,223.7,218.9,227.6Z" fill="none" stroke="#fff" stroke-miterlimit="10" stroke-width="0.9"/><path d="M206.7,235.6a14.3,14.3,0,0,1,7.1,2.1,14.3,14.3,0,0,1-7.1,2.1c-3.9,0-7.1-.9-7.1-2.1S202.7,235.6,206.7,235.6Z" fill="none" stroke="#fff" stroke-miterlimit="10" stroke-width="0.9"/><polyline points="260.4 462 260.4 512.1 260.4 565.5" fill="none" stroke="#fff" stroke-miterlimit="10" stroke-width="0.9"/><polyline points="197.4 565.5 260.4 462 323.1 565.5" fill="none" stroke="#fff" stroke-miterlimit="10" stroke-width="0.9"/><path d="M256.9,344.2h6.7a32.1,32.1,0,0,1,32.1,32.1V431a0,0,0,0,1,0,0H224.8a0,0,0,0,1,0,0V376.3A32.1,32.1,0,0,1,256.9,344.2Z" transform="translate(520.5 775.2) rotate(180)" fill="none" stroke="#fff" stroke-miterlimit="10" stroke-width="0.9" stroke-dasharray="2.21 2.21 2.21 2.21"/><path d="M323.1,462H310.5a50.1,50.1,0,0,1-100.2,0H197.4" fill="none" stroke="#fff" stroke-miterlimit="10" stroke-width="0.9"/><circle cx="260.4" cy="522.5" r="4.1" fill="none" stroke="#fff" stroke-miterlimit="10" stroke-width="0.55"/><circle cx="260.4" cy="555.4" r="4.1" fill="none" stroke="#fff" stroke-miterlimit="10" stroke-width="0.55"/><circle cx="260.4" cy="538.9" r="4.1" fill="none" stroke="#fff" stroke-miterlimit="10" stroke-width="0.55"/><path d="M313,344.2v53.4c0,30.5-20.1,55.2-50.6,55.2h0V405.3" fill="none" stroke="#fff" stroke-miterlimit="10" stroke-width="0.9"/><path d="M207.7,344.2v53.4c0,30.5,20.1,55.2,50.6,55.2h0V405.3" fill="none" stroke="#fff" stroke-miterlimit="10" stroke-width="0.9"/><path d="M262.4,405.3a12.3,12.3,0,1,1,24.6,0H233.7a12.3,12.3,0,1,1,24.6,0" fill="none" stroke="#fff" stroke-miterlimit="10" stroke-width="0.9"/><line x1="313" y1="387.6" x2="260.2" y2="387.6" fill="none" stroke="#fff" stroke-miterlimit="10" stroke-width="0.9"/><line x1="260.4" y1="377.9" x2="207.9" y2="377.9" fill="none" stroke="#fff" stroke-miterlimit="10" stroke-width="0.9"/><circle cx="260.4" cy="382.7" r="4.9" fill="none" stroke="#fff" stroke-miterlimit="10" stroke-width="0.9"/><line x1="262.6" y1="403.5" x2="286.9" y2="403.5" fill="none" stroke="#fff" stroke-miterlimit="10" stroke-width="0.45"/><line x1="281.6" y1="395.3" x2="267.7" y2="395.3" fill="none" stroke="#fff" stroke-miterlimit="10" stroke-width="0.45"/><line x1="283.9" y1="397.2" x2="265.5" y2="397.2" fill="none" stroke="#fff" stroke-miterlimit="10" stroke-width="0.45"/><line x1="286.3" y1="401.4" x2="263.1" y2="401.4" fill="none" stroke="#fff" stroke-miterlimit="10" stroke-width="0.45"/><line x1="285.4" y1="399.2" x2="263.9" y2="399.2" fill="none" stroke="#fff" stroke-miterlimit="10" stroke-width="0.45"/><line x1="233.9" y1="403.5" x2="258.3" y2="403.5" fill="none" stroke="#fff" stroke-miterlimit="10" stroke-width="0.45"/><line x1="253" y1="395.3" x2="239.1" y2="395.3" fill="none" stroke="#fff" stroke-miterlimit="10" stroke-width="0.45"/><line x1="255.3" y1="397.2" x2="236.9" y2="397.2" fill="none" stroke="#fff" stroke-miterlimit="10" stroke-width="0.45"/><line x1="257.7" y1="401.4" x2="234.4" y2="401.4" fill="none" stroke="#fff" stroke-miterlimit="10" stroke-width="0.45"/><line x1="256.8" y1="399.2" x2="235.3" y2="399.2" fill="none" stroke="#fff" stroke-miterlimit="10" stroke-width="0.45"/><polyline points="290.3 565.5 260.4 462 247.5 510.4 233 565.5" fill="none" stroke="#fff" stroke-miterlimit="10" stroke-width="0.63" stroke-dasharray="2.54 2.54 2.54 2.54"/><polyline points="323.1 529.4 260.4 462 197.4 526.6" fill="none" stroke="#fff" stroke-miterlimit="10" stroke-width="0.9"/><path d="M208.4,441.7a14.3,14.3,0,0,1,6.5-3.5,14.3,14.3,0,0,1-3.5,6.5c-2.8,2.8-5.7,4.4-6.5,3.5S205.6,444.5,208.4,441.7Z" fill="none" stroke="#fff" stroke-miterlimit="10" stroke-width="0.9"/><path d="M207.4,433.5a14.3,14.3,0,0,1,7.1,2.1,14.3,14.3,0,0,1-7.1,2.1c-3.9,0-7.1-.9-7.1-2.1S203.5,433.5,207.4,433.5Z" fill="none" stroke="#fff" stroke-miterlimit="10" stroke-width="0.9"/><path d="M215.4,445.7a14.3,14.3,0,0,1,2.1-7.1,14.3,14.3,0,0,1,2.1,7.1c0,3.9-.9,7.1-2.1,7.1S215.4,449.6,215.4,445.7Z" fill="none" stroke="#fff" stroke-miterlimit="10" stroke-width="0.9"/><path d="M323.1,455.1H281.1a2.8,2.8,0,0,0-2.8,2.8v10.3a2.3,2.3,0,0,0,2.3,2.3h9.5a5.5,5.5,0,0,0,5.5-5.5h0a5.5,5.5,0,0,0-5.5-5.5H260.4" fill="none" stroke="#fff" stroke-miterlimit="10" stroke-width="0.9"/><path d="M197.7,455.1h41.9a2.8,2.8,0,0,1,2.8,2.8v10.3a2.3,2.3,0,0,1-2.3,2.3h-9.5a5.5,5.5,0,0,1-5.5-5.5h0a5.5,5.5,0,0,1,5.5-5.5h29.8" fill="none" stroke="#fff" stroke-miterlimit="10" stroke-width="0.54"/><path d="M309.8,444.9a14.3,14.3,0,0,1-3.5-6.5,14.3,14.3,0,0,1,6.5,3.5c2.8,2.8,4.4,5.7,3.5,6.5S312.6,447.7,309.8,444.9Z" fill="none" stroke="#fff" stroke-miterlimit="10" stroke-width="0.9"/><path d="M301.6,445.9a14.3,14.3,0,0,1,2.1-7.1,14.3,14.3,0,0,1,2.1,7.1c0,3.9-.9,7.1-2.1,7.1S301.6,449.8,301.6,445.9Z" fill="none" stroke="#fff" stroke-miterlimit="10" stroke-width="0.9"/><path d="M313.8,437.9a14.3,14.3,0,0,1-7.1-2.1,14.3,14.3,0,0,1,7.1-2.1c3.9,0,7.1.9,7.1,2.1S317.7,437.9,313.8,437.9Z" fill="none" stroke="#fff" stroke-miterlimit="10" stroke-width="0.9"/><line x1="323.1" y1="336.8" x2="431.9" y2="336.8" fill="none" stroke="#fff" stroke-miterlimit="10" stroke-width="2.69"/><line x1="260.1" y1="211.5" x2="260.1" y2="108" fill="#b2497b" stroke="#fff" stroke-miterlimit="10" stroke-width="0.9"/><polyline points="323.1 106.5 260.1 210 197.4 106.5" fill="none" stroke="#fff" stroke-miterlimit="10" stroke-width="0.9"/></g></svg>