<svg id="Layer_1" data-name="Layer 1" xmlns="http://www.w3.org/2000/svg" viewBox="0 0 266.06 267.5"><defs><style>.cls-1,.cls-2{fill:none;stroke:#fff;stroke-miterlimit:10;}.cls-1{stroke-width:7.05px;}.cls-2{stroke-width:7.24px;}</style></defs><title>Artboard 5</title><rect class="cls-1" x="3.52" y="4" width="259.51" height="259.51" rx="15.15" ry="15.15"/><path class="cls-2" d="M129.39,262.79V163.07H96.8a2.93,2.93,0,0,1-2.93-2.93V124.7a1.81,1.81,0,0,1,1.81-1.81h33.71L129,93.11c0-25.47,16.5-49.86,37.31-49.86h39.61A3.79,3.79,0,0,1,209.74,47V80.92L194,80.56c-23.68,0-24,10.76-24,19.37v23.68h33.88a3.78,3.78,0,0,1,3.78,3.78v31.9a3.78,3.78,0,0,1-3.78,3.78H170.28V263.51"/></svg>