<svg xmlns="http://www.w3.org/2000/svg" id="Layer_1" viewBox="0 0 483.38 372" width="483.38" height="372"><defs><style>.cls-1,.cls-10,.cls-11,.cls-12,.cls-14,.cls-15,.cls-2,.cls-4,.cls-5,.cls-6,.cls-7,.cls-8,.cls-9{fill:none}.cls-1,.cls-10,.cls-11,.cls-12,.cls-13,.cls-14,.cls-15,.cls-2,.cls-3,.cls-4,.cls-5,.cls-6,.cls-7,.cls-8,.cls-9{stroke:#fff}.cls-1,.cls-10,.cls-12,.cls-14,.cls-15,.cls-2,.cls-3,.cls-4,.cls-6,.cls-7,.cls-8,.cls-9{stroke-linecap:round}.cls-1,.cls-10,.cls-12,.cls-14,.cls-15,.cls-2,.cls-3,.cls-4,.cls-5,.cls-6,.cls-7,.cls-8,.cls-9{stroke-linejoin:round}.cls-1{stroke-width:1.2px}.cls-2,.cls-3{stroke-width:1.22px}.cls-3{fill:#fff}.cls-4{stroke-width:1.28px}.cls-5,.cls-6{stroke-width:1.22px}.cls-7{stroke-width:1.2px}.cls-8{stroke-width:1.21px}.cls-9{stroke-width:1.3px}.cls-10{stroke-width:1.51px}.cls-11,.cls-13{stroke-miterlimit:10}.cls-11{stroke-width:1.22px}.cls-12{stroke-width:1.19px}.cls-14{stroke-width:1.24px}.cls-15{stroke-width:1.23px}</style></defs><path d="M185.46 45a34.85 34.85 0 1 1-21.34.22M156 36a19.18 19.18 0 1 1 38.35 0v4.51H156V36" class="cls-1"/><circle cx="175.13" cy="28.68" r="4.45" class="cls-1"/><circle cx="175.13" cy="28.68" r="1.44" class="cls-1"/><circle cx="183.98" cy="33.93" r="3.16" class="cls-1"/><path d="M172.98 16.86V9.48m3.3 7.38V.53m-20.32 36.56h10v3.45m-10 0l5.37 4.45h13.8m19.18-4.45l-5.13 4.45h-13.8m-12.85-23.41h24.61m-27.12 2.65h7.57m14.89 0h7.56m-8.18 56.87v-5.89l8.07-1.1a15.15 15.15 0 0 0-10.47-10.46l-1.19 8.08h-5.89l-1.1-8.07a15.15 15.15 0 0 0-10.46 10.47l8.08 1.19v5.89l-8.07 1.1a15.15 15.15 0 0 0 10.47 10.46l1.19-8.08h5.89l1.1 8.07a15.15 15.15 0 0 0 10.46-10.47z" class="cls-1"/><circle cx="175.38" cy="78.2" r="3.67" class="cls-1"/><circle cx="175.38" cy="78.2" r="19.81" class="cls-1"/><path d="M146.4 58.55a102.27 102.27 0 0 1 1.91 20.51 104.68 104.68 0 0 1-1.67 19.3m56.83-39.81a102.27 102.27 0 0 0-1.91 20.51 104.68 104.68 0 0 0 1.67 19.3M195 50a102.27 102.27 0 0 1-20.51 1.91 104.68 104.68 0 0 1-19.3-1.67M195 106.88a102.27 102.27 0 0 0-20.47-1.88 104.68 104.68 0 0 0-19.3 1.67m20.15-48.28v-6.48m0 53.05v-6.6m19.81-20.16h6.37m-45.99 0h-7.25m40.11-37.66v-3.45h5.88" class="cls-1"/><circle cx="156.16" cy="58.99" r="1.21" class="cls-1"/><circle cx="156.43" cy="97.42" r="1.21" class="cls-1"/><circle cx="194.6" cy="58.99" r="1.21" class="cls-1"/><circle cx="194.6" cy="97.42" r="1.21" class="cls-1"/><path d="M208.23 296.1l-21.72 24.61 5.99 5.99 24.42-21.91-8.69-8.69z" class="cls-2"/><path d="M211.51 292.66h3.16a2.85 2.85 0 0 1 2.85 2.85v5.23a2.85 2.85 0 0 1-2.85 2.85h-3.16v-10.93z" class="cls-2" transform="rotate(-45 214.509 298.128)"/><path d="M157.21 347.13l24.61-21.72 5.99 5.98-21.92 24.42-8.68-8.68z" class="cls-2"/><circle cx="187.13" cy="326.08" r="8.46" class="cls-3" transform="rotate(-45 187.13 326.088)"/><circle cx="187.13" cy="326.08" r="5.05" class="cls-3" transform="rotate(-45 187.13 326.088)"/><path d="M156.23 347.94h3.16a2.85 2.85 0 0 1 2.85 2.85V356a2.85 2.85 0 0 1-2.85 2.85h-3.16v-10.91z" class="cls-2" transform="rotate(135 159.233 353.402)"/><path d="M195.37 328l36.21-4.27a44.51 44.51 0 0 1-46.21 46.79l3.71-36.24m-3.71 36.27a46.31 46.31 0 0 1-24.64-8.75l5.16-6" class="cls-2"/><path d="M231.6 324.32a46.31 46.31 0 0 0-8.75-24.64l-6 5.16" class="cls-2"/><circle cx="199.65" cy="338.33" r="2.32" class="cls-2" transform="rotate(-45 199.652 338.332)"/><circle cx="206.15" cy="345.1" r="2.32" class="cls-2" transform="rotate(-45 206.142 345.093)"/><circle cx="193.32" cy="341.38" r="2.32" class="cls-2" transform="rotate(-26.38 193.363 341.431)"/><circle cx="156.71" cy="271.18" r="2.32" class="cls-2" transform="rotate(-26.38 156.747 271.228)"/><circle cx="165.94" cy="276.97" r="2.32" class="cls-2" transform="rotate(-26.38 165.97 277.012)"/><circle cx="132.43" cy="295.46" r="2.32" class="cls-2" transform="rotate(-63.62 132.408 295.441)"/><circle cx="138.3" cy="304.61" r="2.32" class="cls-2" transform="rotate(-63.62 138.281 304.598)"/><circle cx="194.38" cy="350.31" r="2.32" class="cls-2" transform="rotate(-26.38 194.42 350.366)"/><circle cx="212.57" cy="332.12" r="2.32" class="cls-2" transform="rotate(-26.38 212.616 332.17)"/><circle cx="202.61" cy="332.1" r="2.32" class="cls-2" transform="rotate(-63.62 202.585 332.083)"/><path d="M201.22 283.63a47.92 47.92 0 0 1 12.16 6.32l-5.16 6m-65.72 31.47a46.31 46.31 0 0 0 8.75 24.64l6-5.16" class="cls-2"/><path d="M150.06 300.98l-25.89-25.47-5.55 5.55 23.91 46.92m19.85-39.33l-25.47-25.88 5.55-5.55 46.27 23.08m-11.19-18.46l2.84-2.84a2.75 2.75 0 0 1 3.41-.32l6.48 4-9.07 9.07-4-6.55a2.75 2.75 0 0 1 .34-3.36z" class="cls-2"/><path d="M160.17 290.13a44.41 44.41 0 0 1 28.57-8.94L185 317.42m-6.26 6.29L142.53 328a44.42 44.42 0 0 1 8.9-29.11" class="cls-2"/><path d="M196.66 304.59l4.56-20.98 1.78-8.18L192.57 265l-9.13 9.12 5.46 5.35-2.38 23.8 10.14 1.32zm-15.73-45.74l6.41 6.41m-9.81-3.02l6.42 6.41m-42.12 19.29l7.64-7.64 34.55 32.64-10.03 10.03-32.16-35.03zm73.64 18.3a34.49 34.49 0 0 1 6.23 18.69m-63 20.87a34.5 34.5 0 0 1-6.16-19m33.87 33.65a32.09 32.09 0 0 1-19.12-6M148.08 304l-26.2-26.2m43.35 9.05l-26.2-26.2" class="cls-2"/><path d="M147.05 282.72l27.79 27.79-3.15 3.15-27.79-27.79" class="cls-2"/><circle cx="204.94" cy="308.17" r="1.64" class="cls-2"/><circle cx="168.07" cy="345.04" r="1.64" class="cls-2"/><path d="M187.27 260.79l-7.98 7.98m9.61 10.7l14.1-4.04" class="cls-2"/><path d="M180.46 266.74h12.83v3.27h-12.83z" class="cls-2" transform="rotate(135 186.873 268.372)"/><path d="M219.79 302.32a40.39 40.39 0 0 1-56.42 56.42" class="cls-2"/><path d="M337.38 14.2l10-6.67a1.19 1.19 0 0 1 1.54.12l1.47 1.47a1.19 1.19 0 0 1 .13 1.53l-6.86 9.76m-23.7 17.45l1.61 1.61-9.49 12.52-5.25 3.06-2.03-2.03m15.16-15.16l-1.6-1.6-12.53 9.49-3.06 5.25 2.03 2.02m35.7-35.7l-3.12-3.12-42.92 37.71m46.04-34.59l3.12 3.13-37.93 42.69m.14-17.39l6.25 6.24" class="cls-4"/><path d="M279.33 52.23h15.95v36.05h-15.95z" class="cls-4" transform="rotate(45 287.304 70.245)"/><path d="M296.46 67h5.14a2.35 2.35 0 0 1 2.4 2.37v17h-9.85v-17a2.35 2.35 0 0 1 2.31-2.37z" class="cls-4" transform="rotate(45 299.029 76.702)"/><path d="M304.76 77.94c.79.34 20.24 20.24 20.24 20.24l-9.88 9.88-31.45-12.18" class="cls-4"/><path d="M319.57 93.2h4.13v22.55h-4.13z" class="cls-4" transform="rotate(45 321.635 104.476)"/><path d="M329.61 96.5l22.46-22.46m-1.46-1.46l2.92 2.92m-1.46-1.46l5.72-5.73" class="cls-4"/><path d="M282.55 81h5.4v18.98h-5.4z" class="cls-4" transform="rotate(45 285.25 90.484)"/><path d="M310.62 83.6l-14.48 14.47-7.33-7.33" class="cls-4"/><circle cx="295.02" cy="62.81" r="3.49" class="cls-4" transform="rotate(-45 295.013 62.802)"/><path d="M291.54 63.16l-15.15 15.16 3.12 3.12 15.15-15.16" class="cls-4"/><circle cx="295.02" cy="62.81" r=".64" class="cls-4" transform="rotate(-45 295.013 62.802)"/><path d="M300.74 68.04L307.7 75m18.26 22.23l2.92 2.92" class="cls-4"/><rect width="6.74" height="6.52" x="272.64" y="96.47" class="cls-4" rx=".75" ry=".75" transform="rotate(45 276.011 99.728)"/><path d="M274.25 96.73l4.76 4.76m43.02-6.34l-7.17 7.17-7.24-2.87" class="cls-4"/><path d="M275.93 48.83h9.85v17a2.35 2.35 0 0 1-2.35 2.35h-5.14a2.35 2.35 0 0 1-2.35-2.35v-17z" class="cls-4" transform="rotate(-135 280.85 58.52)"/><path d="M279.61 52.79c-.34-.79-20.24-20.24-20.24-20.24l-9.88 9.88 12.18 31.45" class="cls-4"/><path d="M251.02 24.64h4.13v22.55h-4.13z" class="cls-4" transform="rotate(-135 253.084 35.922)"/><path d="M261.06 27.95l22.46-22.46m1.46 1.46l-2.92-2.92m1.46 1.46l5.72-5.73" class="cls-4"/><path d="M264.37 62.82h5.4V81.8h-5.4z" class="cls-4" transform="rotate(-135 267.065 72.307)"/><path d="M273.96 46.94l-14.48 14.47 7.33 7.33m22.71-11.92l-6.96-6.97M260.33 31.6l-2.92-2.92" class="cls-4"/><path d="M263.24 35.14h4.13v2.71h-4.13z" class="cls-4" transform="rotate(-135 265.303 36.502)"/><path d="M266.26 35.54l22.46-22.46m1.46 1.46l-2.92-2.92m1.46 1.46l5.73-5.73" class="cls-4"/><path d="M319.07 90.97h4.13v2.71h-4.13z" class="cls-4" transform="rotate(-135 321.134 92.334)"/><path d="M322.09 91.37l22.46-22.46m1.46 1.46l-2.92-2.92m1.46 1.46l5.73-5.73" class="cls-4"/><rect width="6.74" height="6.52" x="254.46" y="78.28" class="cls-4" rx=".75" ry=".75" transform="rotate(-135 257.827 81.54)"/><path d="M260.83 83.31l-4.77-4.77m6.34-43.02l-7.16 7.17 2.87 7.24" class="cls-4"/><circle cx="281.94" cy="353.87" r="3.25" class="cls-5"/><circle cx="319.13" cy="353.87" r="3.25" class="cls-5"/><path d="M285.19 353.87h30.69m-33.94-3.25l8.68-12.54 4.84-6.98h9.59l14.08 19.52m-29.66 2.91v-13.78m5.61 13.86v-22.04m5.61 22.13v-21.81m5.6 21.9v-20.97m5.61 21.05v-12.84" class="cls-5"/><path d="M295.36 327c0-5.37 9.46-5.48 9.46 0v4.22h-9.46zm-1.42-18.15c.15 2.62 1.33 10.4-2.15 11.62s-14.38 3.1-18.11 1.06-4.9-4.23-4.31-8.16 5.26-9.91 10.87-10.06 13.52 2.19 13.7 5.54zm12.45 0c-.15 2.62-1.33 10.4 2.15 11.62s14.38 3.1 18.11 1.06 4.9-4.23 4.31-8.16-5.26-9.91-10.87-10.06-13.51 2.19-13.7 5.54zm-11.24-6.72v-39.68a5.72 5.72 0 0 1 5.72-5.72 5 5 0 0 1 5 5v40.35" class="cls-5"/><path d="M297.12 317.86h5.93m-5.93-4.99h5.93m-5.93-5h5.93" class="cls-6"/><path d="M294.93 287.87c-6.81-3.89-19-4.53-27.13 1-11.32 7.76-24.22 57.42-24.22 72.83m62.61-73.83c6.81-3.89 19-4.53 27.13 1 11.32 7.76 24.22 57.42 24.22 72.83" class="cls-5"/><path d="M300.69 302.38c-8.6 0-12.5-2.86-20.54-2.34s-13.34 8.37-19 17.79c-6.22 10.39-17.59 32.46-17.59 43.88 11.3 5.94 42.11 9.25 55.37 9.36 14.54.12 48.86-2.51 58.92-9.36 0-11.43-11.37-33.49-17.59-43.88-5.63-9.42-10.92-17.27-19-17.79s-11.94 2.34-20.54 2.34m11.18-37.24c3.42 0 13.87.34 17.12 8.22m-3.53 78.73l9.22-19.27M310.85 328l18.09 2.54m-53.47 21.55l-9.22-19.27m23.86-4.82l-18.09 2.54" class="cls-6"/><path d="M295.95 259.55c-29.69 0-32.86 18.75-32.86 34.71M306 259.55c29.69 0 32.86 18.75 32.86 34.71" class="cls-5"/><path d="M283.77 357.12l4.49 4.49h11.83m16.8-4.49l-4.48 4.49h-11.83" class="cls-6"/><circle cx="180.06" cy="137.02" r="1.46" class="cls-7"/><path d="M180.3 196.74l-5.16 3.29m5.16-3.29l5.16 3.29m-10.56 4.81h10.31v3.9H174.9zm1 3.9h-18.55m46.16 0h-18.55" class="cls-7"/><path d="M179.83 141c-19.05 0-28.83 10.06-28.83 30.61s9.18 50.39 9.18 50.39c3.82 3.82 14.55 7.34 19.65 7.34m.47-88.34c19.05 0 28.81 10.08 28.81 30.63S200 222 200 222c-3.82 3.82-14.55 7.34-19.65 7.34" class="cls-7"/><circle cx="168.65" cy="183.56" r="7.73" class="cls-7"/><circle cx="191.7" cy="183.56" r="7.73" class="cls-7"/><path d="M191.7 195.08a11.53 11.53 0 1 1 11.53-11.53h4.38" class="cls-7"/><path d="M168.65 195.08a11.53 11.53 0 1 0-11.53-11.53h-4.36" class="cls-7"/><circle cx="191.7" cy="183.56" r="1.62" class="cls-7"/><circle cx="168.72" cy="183.56" r="1.62" class="cls-7"/><path d="M164.11 177.4v11.98m3.07-13.43v14.91m3.07-14.91v14.91m3.07-13.46v11.98m13.78-11.98v11.98m3.07-13.43v14.91m3.07-14.91v14.91m3.06-13.46v11.98m-16.47-59.66c-3.73 0-4.15 7.3-7.57 8.21s-25.12 2.39-25.12 34.95l-3 1.74 1.28 11.13 2.78 1c0 5.54 3.07 18.4 3.54 20.07l2.49 2 2.34 9.7h2.57" class="cls-7"/><path d="M155.12 212.44h-3.39v10.2h5.62v-4.21m23.08-88.71c3.73 0 4.15 7.3 7.57 8.21s25.12 2.39 25.12 34.95l3 1.74-1.28 11.13-2.78 1c0 5.54-3.07 18.4-3.54 20.07l-2.49 2-2.34 9.7h-2.57" class="cls-7"/><path d="M205.14 212.44h3.39v10.2h-5.62v-4.21M160.18 222l-2.83 10.12c5.37 5.37 17.38 7.79 22.95 7.79s19.33-4.05 22.42-7.79L199.9 222m-32.72 10.62v9.66m26.06-9.66v9.66m-24.52-27.9l3.85 13.73m-3.85-13.73l3.85 13.73m18.5-13.73l-3.85 13.73" class="cls-7"/><path d="M95.55 32.67H15.86m-1.94 0h83.03v6.56H13.92zm0 0C17.35 9.84 27.43.4 55.44.4 81.47.4 94.34 6.83 97 32.67m-34.26 9.71c-2.75 0 15 14.22 19.15 14.22s6.82-12.78 4.2-12.78-20.99-1.44-23.35-1.44zm-15.99 0c2.75 0-15 14.22-19.15 14.22s-6.82-12.78-4.2-12.78 20.98-1.44 23.35-1.44z" class="cls-8"/><path d="M17.24 39.23c0 3.74.59 24.14 6.89 24.14S44.7 49.49 55.89 49.49" class="cls-8"/><path d="M94.12 39.23c0 3.74-.59 24.14-6.89 24.14S66.66 49.49 55.47 49.49m.42 16.83c9.44 0 26.17 16.13 35.22 16.13s9.64 10 9.64 15-12 15.85-24.79 15.85-13.38-5.82-13.38-6.61h-6.69m0-40.37c-9.44 0-26.17 16.13-35.22 16.13s-9.64 10-9.64 15 12 15.85 24.79 15.85 13.38-5.82 13.38-6.61h6.69m0-45.29c-7.17 0-14.53 12.06-16.26 12.06M55.89 61.4c7.17 0 14.53 12.06 16.26 12.06" class="cls-8"/><circle cx="37.42" cy="101.89" r="7.28" class="cls-8"/><circle cx="37.42" cy="101.89" r="3.3" class="cls-8"/><circle cx="72.94" cy="101.89" r="3.3" class="cls-8"/><circle cx="72.94" cy="101.89" r="7.28" class="cls-8"/><path d="M49.17 106.65v-8.06l3-6c.83-1.7 1.86-2.77 3.75-2.77" class="cls-8"/><path d="M62.58 106.65v-8.06l-3-6c-.83-1.7-1.83-2.77-3.72-2.77m.03-5.2c-6 0-8.13 3.61-8.13 5.84 0 4.44-7.45 4.16-10.34 4.16m18.47-10c6 0 8.13 3.61 8.13 5.84 0 4.44 7.45 4.16 10.34 4.16M16.85 39.39c0 6.82-4 19.32-10.49 24.14C1.76 66.94.2 70.08.2 75.4c0 6.76 7.47 15.68 10.88 15.68m13.05-27.71c-5.9 1.18-6.49 4.13-6.89 5.31-3.84-3.84.87-17.38.87-17.38m4.24 30.99C21.18 77.53 13.67 68.88 11 68.68m-1.15 14l4.7-3.57m-6.77 1.5l4.7-3.57m-6.77 1.5l4.7-3.57m-6.77 1.5l4.7-3.57m86.12-33.51c0 6.82 4 19.32 10.49 24.14 4.59 3.41 6.15 6.56 6.15 11.87 0 6.76-7.47 15.68-10.88 15.68M87.18 63.37c5.9 1.18 6.49 4.13 6.89 5.31 3.84-3.84-.87-17.38-.87-17.38M89 82.29c1.17-4.76 8.68-13.41 11.32-13.61m1.14 14l-4.71-3.57m6.78 1.5l-4.71-3.57m6.78 1.5l-4.71-3.57m6.78 1.5l-4.71-3.57M13.92 39.23c-2.78 0-8.71 18.26-4.07 20.71m87.53-20.71c2.78 0 8.71 18.26 4.07 20.71" class="cls-8"/><path d="M57.94 243.31a57 57 0 1 1 0-114h15.67v9.73H63.22v9h31v10.19H76.11V169h32.7v9.37H85v9.62h9.23v7.85H77.07v9.63h25.58v9.57H79V225h15v10.5l-13 5.23c-10.29 4.14-15.75 2.59-23.07 2.59-17 0-31.51-15.94-36.83-38.16" class="cls-9"/><path d="M20.08 200.1a82.29 82.29 0 0 1-1.15-13.77 81.39 81.39 0 0 1 1.82-17.25M71.88 225c-3.47 11.26-8.43 18.3-13.94 18.3-3.28 0-6.36-2.49-9-6.88C43 226.79 39 208 39 186.33v-3.66M.96 186.33h84" class="cls-9"/><circle cx="39.86" cy="161.51" r="15.23" class="cls-9"/><circle cx="39.86" cy="161.51" r="5.6" class="cls-9"/><path d="M57.94 191.78v37.49m0-46.6v-10.51m20.93-33.04H57.94m34.58 19.19h7.38m-36.29 10.76h48.79m-20.65 18.99h9.11m-33.53 17.48h41.93m-69.4-49.63v-9.63m-4.85 12.43l-8.34-4.81m8.34 10.41l-8.34 4.82m13.19-2.01v9.62m4.86-12.43l8.34 4.82m-8.34-10.42l8.34-4.81m39.21 71.09h11.92m-1.44-66.68h.67m-21.35-19.19h.77m21.02 48.94h.91m-41.62 17.48h.91m42.66 19.45h.91m4.63-19.45h.91" class="cls-9"/><circle cx="87.07" cy="130.61" r="2.21" class="cls-9"/><circle cx="110.5" cy="153.9" r="2.21" class="cls-9"/><circle cx="100.86" cy="200.1" r="2.21" class="cls-9"/><circle cx="81.08" cy="234.61" r="2.21" class="cls-9"/><circle cx="72.02" cy="191.78" r="2.21" class="cls-9"/><circle cx="109.26" cy="136.5" r="2.21" class="cls-9"/><circle cx="70.15" cy="155.49" r="2.82" class="cls-9"/><circle cx="115.99" cy="176.74" r="2.82" class="cls-9"/><circle cx="117.53" cy="218.44" r="2.82" class="cls-9"/><circle cx="66.43" cy="218.44" r="2.82" class="cls-9"/><path d="M296.32 175.74a7.46 7.46 0 0 0-5.84-2.46c-3 0-6 1.73-6.57 2.46 1 2.74 5.66 2.55 6.75 2.55a7.05 7.05 0 0 0 5.66-2.55z" class="cls-10"/><circle cx="290.76" cy="175.79" r="2.28" class="cls-10"/><path d="M281.45 172.82c1.28-1.37 4.47-5.29 9.31-5.29s8.58 5.11 8.58 5.75m-16.16 7.84a10.93 10.93 0 0 0 7.21 2.65c3.47 0 5.11-.82 5.93-1.73m-6.57-30.66c.91-1.19 5.41-4.29 8.22-4.29s3.91.91 7.74.91M301 170.4c0-1.41 2.65-2.87 4.74-2.87s4.74 1.64 4.74 2.87m-11.69 9.72c0-1.37 1.82-4.84 7-4.84m-11.29 18.53c1.28.46 5.93.91 7.3 0a5.06 5.06 0 0 0 3.92 1.55m-5.61 1.37a13.3 13.3 0 0 0 5.7 1.64m-8.67-12.96c-1.46 1.19-4.11 3.75-4.11 6.21" class="cls-10"/><path d="M305.72 137.6c-11.22 0-29.74 15.24-29.74 29.47-3.74 0-29.21-2.69-36.68-7-3.78-2.19-2.26 3.32-1.73 4.74 1.55 4.17 16.88 25.27 38.41 25.27 0 4.47 11.5 21 29.84 20.71M275.7 176.2c-5.57-6.57-27.56-6.93-32.21-10.68m40.97 41.42c3.19 4.53 8.76 12.32 21.35 12.32m21.35-12.32c-3.19 4.53-8.76 12.32-21.35 12.32" class="cls-10"/><path d="M279.08 206.94c-10.31.64-30.84 15.85-30.84 35.66h57.57v-13.4l-5.7-6.78c-11 0-14.64-5.17-16.93-7.18s-6.27-22.09-6.27-22.09m6.27 22.1c1.73 2.92 6.3 12.93 6.3 27.36m25.64-66.87a7.46 7.46 0 0 1 5.84-2.46c3 0 6 1.73 6.57 2.46-1 2.74-5.66 2.55-6.75 2.55a7.05 7.05 0 0 1-5.66-2.55z" class="cls-10"/><circle cx="320.69" cy="175.79" r="2.28" class="cls-10"/><path d="M330 172.82c-1.28-1.37-4.47-5.29-9.31-5.29s-8.58 5.11-8.58 5.75m16.15 7.84a10.93 10.93 0 0 1-7.21 2.65c-3.47 0-5.11-.82-5.93-1.73m6.57-30.66c-.91-1.19-5.41-4.29-8.22-4.29s-3.91.91-7.74.91M293 156.43c.91-1.19 2.13-2.14 4.94-2.14s3.91.91 7.74.91" class="cls-10"/><path d="M318.32 156.43c-.91-1.19-2.13-2.14-4.94-2.14s-3.91.91-7.74.91m4.83 15.2c0-1.41-2.65-2.87-4.74-2.87s-4.73 1.64-4.73 2.87m11.66 9.4c0-1.37-1.82-4.52-7-4.52m11.28 18.53c-1.28.46-5.93.91-7.3 0a5.06 5.06 0 0 1-3.92 1.55m5.61 1.37a13.3 13.3 0 0 1-5.7 1.64m8.67-12.96c1.46 1.19 4.11 3.75 4.11 6.21" class="cls-10"/><path d="M305.72 137.6c11.22 0 29.74 15.24 29.74 29.47 3.74 0 29.21-2.69 36.68-7 3.78-2.19 2.26 3.32 1.73 4.74-1.55 4.17-16.88 25.27-38.41 25.27 0 4.47-11.5 21-29.84 20.71m30.12-34.59c5.57-6.57 27.56-6.93 32.21-10.68" class="cls-10"/><path d="M332.36 206.94c10.31.64 30.84 15.85 30.84 35.66h-57.57v-13.4l5.7-6.78c11 0 14.64-5.17 16.93-7.18s6.27-22.09 6.27-22.09m-6.27 22.1c-1.73 2.92-6.3 12.93-6.3 27.36m-22.63-59.86s4.43-.5 4.43.87 4.24 1.46 4.24 0 3.6-1.14 4.33-1.14m-10.03-16.96c-2.69-.5-6.88-5-6.71-8s-5.79-7.8-7.48-8.3m21.15 16.3c2.69-.5 6.88-5 6.71-8s5.79-7.8 7.48-8.3m-17.73-19.83v8.21m7.99 1.95l3.69-7.52m4.29 12.34l5.29-6.13m.55 11.52l7.02-3.13m-36.81-7.08l-3.7-7.52m-4.29 12.34l-5.29-6.13m-.55 11.52l-7.02-3.13m10.78 80.57c3.21 1.25 14.1 2 18.14 2m17.42-2c-3.21 1.25-14.1 2-18.14 2" class="cls-10"/><path d="M424.53 371.14c-43.88 0-54.1-33.93-55.08-44.38a.24.24 0 0 1 .47-.11c1.27 3.3 4.17 10.52 6.55 11.4-2-2.57-7.1-17.68-7.1-23.81 0-4.31-.28-21.16 6.47-28.32a.24.24 0 0 1 .4.26c-5.44 15.28-.34 31.61 8.08 37.37-1.51-2.27-5.89-12.39-5.89-26.9 0-14 14.39-34 22.32-36.79a.24.24 0 0 1 .26.39c-18 20.88-2.41 38.16 3.47 47.83-12.69 26.6-3.8 47.35 16.52 57.22 1.51-.6.4-19.75.4-19.75l-7.32 7.22a.12.12 0 0 1-.19-.13l5-11.22-14-2.4a.12.12 0 0 1 0-.23l14.32-2.31-4.09-13a.12.12 0 0 1 .21-.1l6.5 9.71 2.72-76.4" class="cls-11"/><path d="M424.53 371.14c43.88 0 54.1-33.93 55.08-44.38a.24.24 0 0 0-.47-.11c-1.27 3.3-4.17 10.52-6.55 11.4 2-2.57 7.1-17.68 7.1-23.81 0-4.31.28-21.16-6.47-28.32a.24.24 0 0 0-.4.26c5.44 15.28.34 31.61-8.08 37.37 1.51-2.27 5.89-12.39 5.89-26.9 0-14-14.39-34-22.32-36.79a.24.24 0 0 0-.26.39c18 20.88 2.41 38.16-3.47 47.83 12.69 26.6 3.8 47.35-16.52 57.22-1.51-.6-.4-19.75-.4-19.75l7.32 7.22a.12.12 0 0 0 .19-.13l-5-11.22 14-2.4a.12.12 0 0 0 0-.23l-14.32-2.31 4.09-13a.12.12 0 0 0-.21-.1l-6.5 9.71-2.72-76.4" class="cls-11"/><path d="M61.82 305.05a6.94 6.94 0 0 1 5.53-3.41c2.24 0 4.79 1.06 5.22 1.7" class="cls-12"/><path d="M65.28 302.1a2 2 0 1 0 2.71-.43h-.6a5.51 5.51 0 0 0-2.11.43zm-9.74 18.14a6.83 6.83 0 0 0 1.76-.9 3.28 3.28 0 0 1 1.64-.51c1.53 0 1 1.24.18 1.24s-1.29-.62-2-.62m-1.47 7.63c.5-.32.67-.5 1-.5s5.25 1.7 7.2 1.7m-8.2 3.41a13 13 0 0 0 3.33-.21m-3.33-3.19a27.07 27.07 0 0 1 4.9 0m-4.9 11.35v-1.38m1.66-30.44v5.39c0 .78.07 1.21.78 1.49m-2.44 27.02c12.93 0 13.73-7.88 16.92-12.67 2.34-3.51 6.65-8.82 6.65-13.42" class="cls-12"/><path d="M32.58 294.55c5 3.33 22.18 3.26 22.18 3.26 7.81 0 14.12-8.23 15.11-10.29.5 1.92-.92 7.38-3.9 10.08 3.76 0 11.49-1.92 12.91-3.05 1.56 2.91-1.58 19.29.34 21.08 2.7 2.29 7.38.69 9.79-.94-1.77-1.35-3.67-10.49-3.67-14.89s1-7.57 1-11m-53.76 5.75c-1.56 2.91 1.58 16.77-.3 20.05-2.7 2.29-7.38.69-9.79-.94 1.77-1.35 3.63-9.46 3.63-13.86s-1-7.57-1-11m24.34 16.25a6.94 6.94 0 0 0-5.53-3.41c-2.24 0-4.79 1.06-5.22 1.7" class="cls-12"/><path d="M46 302.1a2 2 0 1 1-2.71-.43h.6a5.51 5.51 0 0 1 2.11.43zm9.54 18.14c-.34 0-.86-.5-1.57-.9a3.28 3.28 0 0 0-1.64-.51c-1.53 0-1 1.24-.18 1.24s1.29-.62 2-.62m1.48 7.63c-.5-.32-.67-.5-1-.5s-5.25 1.7-7.2 1.7m8.2 3.41a13 13 0 0 1-3.33-.21m3.33-3.19a27.07 27.07 0 0 0-4.9 0m4.9 11.35v-1.38M54 307.82v5.39c0 .78-.07 1.21-.78 1.49m2.41 27.02c-12.93 0-13.73-7.88-16.92-12.67-2.34-3.51-6.42-9.53-6.42-14.45m-7.12-25.78a30.56 30.56 0 0 1 61.13 0" class="cls-12"/><circle cx="44.41" cy="303.51" r=".71" class="cls-13"/><circle cx="66.87" cy="303.51" r=".71" class="cls-13"/><path d="M41.8 334.74c0 4.58-10.38 14.52-25.57 14.52S.34 360.33.34 369.55m69.17-34.81c0 4.58 10.38 14.52 25.57 14.52S111 360.33 111 369.55m-72.29-29.19l15.6 23.5m17.07-24.91l-20.01 29.2" class="cls-12"/><path d="M431 63.73c1.76-1.82 4.62-4.74 8.09-4.74a7.61 7.61 0 0 1 5.59 2.37m-12.43-4.69c2.49-1.22 6.63-3 10.1-3a7.9 7.9 0 0 1 5.9 2.37m-8 3.05a2.61 2.61 0 1 1-4 .63m-6.76 22.65c-1.28 0-2.83 3-5.38 3m0 10.04c.82 0 1.55-.64 3.19-.64h6.48m-9.67 5.07c3.83 0 8-2.37 8-4.74m-8 17.83c4.74 0 7.54-.73 9.67-3.77s11.12-7.55 13.43-13.16a101.69 101.69 0 0 0 6.58-21.8" class="cls-14"/><rect width="23.14" height="72" x="456" y="19.64" class="cls-14" rx="10.59" ry="10.59" transform="rotate(6.53 467.278 55.56)"/><path d="M458.9 29.64c0-16.27-18.65-33-34.79-28V35c0 2.19 14.72 15.48 32.41 15.48m-39.35 13.25c-1.76-1.82-4.62-4.74-8.09-4.74a7.61 7.61 0 0 0-5.59 2.37M416 56.67c-2.49-1.22-6.63-3-10.1-3A7.9 7.9 0 0 0 400 56m8 3.09a2.61 2.61 0 1 0 4 .63m6.72 22.65c1.28 0 2.83 3 5.38 3m.01 10.04c-.82 0-1.55-.64-3.19-.64h-6.48m9.67 5.07c-3.83 0-8-2.37-8-4.74m8 17.83c-4.74 0-7.54-.73-9.67-3.77S403.31 101.61 401 96s-5.49-13.68-6.58-21.8" class="cls-14"/><rect width="22.26" height="72" x="369.95" y="19.59" class="cls-14" rx="10.39" ry="10.39" transform="rotate(173.47 381.079 55.614)"/><path d="M389.31 29.64c0-16.27 18.65-33 34.79-28V35c0 2.19-14.72 15.48-32.41 15.48m24.39 42.01c2.55-.85 3.74-1.34 5.34-1.34s1.47.67 2.69.67 1.85-.67 2.69-.67a21.57 21.57 0 0 1 5.34 1.34" class="cls-14"/><path d="M460.61 184.45c-2-21.75-11.66-27.16-31.28-27.16-21.1 0-28.7 7.94-31.28 27.16zm-30.96 58.19h-8.05v-47.01l-21.4-3.53v-2.86h29.45m0 53.4h8.06v-47.01l21.4-3.53v-2.86h-29.46" class="cls-15"/><path d="M460.61 184.45l4.59 46.09-27.49 12.1" class="cls-15"/><path d="M461.39 197.5c-10 0-20.24 8.61-20.24 20.32v23.09m-43.11-56.46l-4.46 46.09 27.49 12.1" class="cls-15"/><path d="M397.38 197.5c10 0 20.24 8.61 20.24 20.32v23.09m14.08-59.07h3.25m-9.46 0h3.26m-32.62-2.59v-42.28m-3.61-5.13l1.86 4.81h3.26c2.95-2.95 15.36-4.19 15.36-4.19v-1.86l-15.36-1.24zm1.06 98.7l-3.62-5.4 4.57-45.89h4.39m66.28 51.29l3.9-5.4-4.57-45.89h-4.39" class="cls-15"/><path d="M442.44 240c0-9.46 2.33-30.71 10.39-30.71s12.31 20.56 12.31 20.56m-48 10.15c0-9.46-2.33-30.71-10.39-30.71s-12.31 20.56-12.31 20.56" class="cls-15"/></svg>