<svg xmlns="http://www.w3.org/2000/svg" id="Layer_1" width="72" height="72" viewBox="0 0 72 72"><defs><style>.cls-1,.cls-4,.cls-5{fill:#fff}.cls-1,.cls-2,.cls-3,.cls-4,.cls-6{stroke:#fff}.cls-1,.cls-2{stroke-linecap:square}.cls-1,.cls-2,.cls-3,.cls-6{stroke-linejoin:round}.cls-2,.cls-3,.cls-6{fill:none}.cls-3,.cls-6{stroke-linecap:round}.cls-4{stroke-miterlimit:10}.cls-6{stroke-width:.54px}</style></defs><path d="M5.71 26.26h31.65m-24.54-7h24.54M5.71 29.22h31.65M5.71 32.17h31.65M5.71 35.12h31.65M5.71 38.08h31.65M5.71 41.03h31.65M5.71 43.99h31.65M5.71 46.94h31.65" class="cls-1"/><path d="M49.78 51.24h17.14" class="cls-2"/><path d="M5.71 49.89h15.83" class="cls-1"/><path d="M2.13 12.9h38.82v50.27H2.13z" class="cls-3"/><circle cx="7.87" cy="19.26" r="2.41" class="cls-4"/><circle cx="47.6" cy="24.38" r="1.31" class="cls-4"/><path d="M5.44 55.69h12.77v1.64H5.44zm14.36 0h17.14v1.64H19.8z" class="cls-4"/><path d="M49.78 47.89h17.14v1.64H49.78zm0-6.38h17.14v5.46H49.78z" class="cls-5"/><path d="M44.02 12.9h25.85V27H44.02z" class="cls-3"/><path d="M69.88 12.89L57.1 23.54 44.02 12.89m1.85 19.28H69.6v31H45.87z" class="cls-3"/><path d="M44.87 33.77h1.97m-1.97 1.47h1.97m-1.97 1.48h1.97m-1.97 1.47h1.97m-1.97 1.47h1.97m-1.97 1.47h1.97m-1.97 1.47h1.97m-1.97 1.47h1.97m-1.97 1.47h1.97m-1.97 1.47h1.97m-1.97 1.47h1.97m-1.97 1.47h1.97m-1.97 1.47h1.97m-1.97 1.47h1.97m-1.97 1.47h1.97m-1.97 1.47h1.97m-1.97 1.47h1.97m-1.97 1.47h1.97m-1.97 1.47h1.97m-1.97 1.47h1.97" class="cls-6"/></svg>