<svg id="Layer_1" data-name="Layer 1" xmlns="http://www.w3.org/2000/svg" viewBox="0 0 72 72"><defs><style>.cls-1,.cls-4,.cls-5{fill:#fff;}.cls-1,.cls-2,.cls-3,.cls-4,.cls-6{stroke:#fff;}.cls-1,.cls-2{stroke-linecap:square;}.cls-1,.cls-2,.cls-3,.cls-6{stroke-linejoin:round;}.cls-2,.cls-3,.cls-6{fill:none;}.cls-3,.cls-6{stroke-linecap:round;}.cls-4{stroke-miterlimit:10;}.cls-6{stroke-width:0.54px;}</style></defs><title>Artboard 4</title><line class="cls-1" x1="5.71" y1="26.26" x2="37.36" y2="26.26"/><line class="cls-1" x1="12.82" y1="19.26" x2="37.36" y2="19.26"/><line class="cls-1" x1="5.71" y1="29.22" x2="37.36" y2="29.22"/><line class="cls-1" x1="5.71" y1="32.17" x2="37.36" y2="32.17"/><line class="cls-1" x1="5.71" y1="35.12" x2="37.36" y2="35.12"/><line class="cls-1" x1="5.71" y1="38.08" x2="37.36" y2="38.08"/><line class="cls-1" x1="5.71" y1="41.03" x2="37.36" y2="41.03"/><line class="cls-1" x1="5.71" y1="43.99" x2="37.36" y2="43.99"/><line class="cls-1" x1="5.71" y1="46.94" x2="37.36" y2="46.94"/><line class="cls-2" x1="49.78" y1="51.24" x2="66.92" y2="51.24"/><line class="cls-1" x1="5.71" y1="49.89" x2="21.54" y2="49.89"/><rect class="cls-3" x="2.13" y="12.9" width="38.82" height="50.27"/><circle class="cls-4" cx="7.87" cy="19.26" r="2.41"/><circle class="cls-4" cx="47.6" cy="24.38" r="1.31"/><rect class="cls-4" x="5.44" y="55.69" width="12.77" height="1.64"/><rect class="cls-4" x="19.8" y="55.69" width="17.14" height="1.64"/><rect class="cls-5" x="49.78" y="47.89" width="17.14" height="1.64"/><rect class="cls-5" x="49.78" y="41.51" width="17.14" height="5.46"/><rect class="cls-3" x="44.02" y="12.9" width="25.85" height="14.1"/><polyline class="cls-3" points="69.88 12.89 57.1 23.54 44.02 12.89"/><rect class="cls-3" x="45.87" y="32.17" width="23.73" height="31"/><line class="cls-6" x1="44.87" y1="33.77" x2="46.84" y2="33.77"/><line class="cls-6" x1="44.87" y1="35.24" x2="46.84" y2="35.24"/><line class="cls-6" x1="44.87" y1="36.72" x2="46.84" y2="36.72"/><line class="cls-6" x1="44.87" y1="38.19" x2="46.84" y2="38.19"/><line class="cls-6" x1="44.87" y1="39.66" x2="46.84" y2="39.66"/><line class="cls-6" x1="44.87" y1="41.13" x2="46.84" y2="41.13"/><line class="cls-6" x1="44.87" y1="42.6" x2="46.84" y2="42.6"/><line class="cls-6" x1="44.87" y1="44.07" x2="46.84" y2="44.07"/><line class="cls-6" x1="44.87" y1="45.54" x2="46.84" y2="45.54"/><line class="cls-6" x1="44.87" y1="47.01" x2="46.84" y2="47.01"/><line class="cls-6" x1="44.87" y1="48.48" x2="46.84" y2="48.48"/><line class="cls-6" x1="44.87" y1="49.95" x2="46.84" y2="49.95"/><line class="cls-6" x1="44.87" y1="51.42" x2="46.84" y2="51.42"/><line class="cls-6" x1="44.87" y1="52.89" x2="46.84" y2="52.89"/><line class="cls-6" x1="44.87" y1="54.36" x2="46.84" y2="54.36"/><line class="cls-6" x1="44.87" y1="55.83" x2="46.84" y2="55.83"/><line class="cls-6" x1="44.87" y1="57.3" x2="46.84" y2="57.3"/><line class="cls-6" x1="44.87" y1="58.77" x2="46.84" y2="58.77"/><line class="cls-6" x1="44.87" y1="60.24" x2="46.84" y2="60.24"/><line class="cls-6" x1="44.87" y1="61.71" x2="46.84" y2="61.71"/></svg>