<svg xmlns="http://www.w3.org/2000/svg" width="256" height="256" viewBox="0 0 256 256"><circle cx="128" cy="128" r="128"/><path fill="#fff" d="M128 163.7a35.7 35.7 0 1 1 35.7-35.7 35.7 35.7 0 0 1-35.7 35.7zm0-63a27.3 27.3 0 1 0 27.3 27.3 27.4 27.4 0 0 0-27.3-27.3z"/><circle cx="165.5" cy="87.9" r="5.8" fill="#fff"/><path fill="#fff" d="M159.4 195.6H96.6a36.3 36.3 0 0 1-36.2-36.2V96.6a36.3 36.3 0 0 1 36.2-36.2h62.8a36.3 36.3 0 0 1 36.2 36.2v62.8a36.3 36.3 0 0 1-36.2 36.2zM96.6 68.8a27.9 27.9 0 0 0-27.8 27.8v62.8a27.9 27.9 0 0 0 27.8 27.8h62.8a27.9 27.9 0 0 0 27.8-27.8V96.6a27.9 27.9 0 0 0-27.8-27.8z"/></svg>