<svg id="Layer_1" data-name="Layer 1" xmlns="http://www.w3.org/2000/svg" width="8in" height="8in" viewBox="0 0 576 576"><title>Artboard 1</title><rect x="-1.2" width="576" height="576" fill="#fbf5e3"/><path d="M451.6,81.2c0-11.1,20.9-13.9,34.5-14.3a3.5,3.5,0,0,0,3.4-3.5V58.6a3.5,3.5,0,0,0-3.5-3.5H353.3a3.5,3.5,0,0,0-3.5,3.5v4.8a3.5,3.5,0,0,0,3.4,3.5c13.6.4,34.5,3.1,34.5,14.3V402.8h.1c-.2,34.7-7.4,64.3-38,92.5,60.2-55.3,119.5-57.7,135.9-55.9a3.4,3.4,0,0,0,3.8-3.4V427a3.4,3.4,0,0,0-3.5-3.4c-12.3.1-34.4.5-34.4-7.7V81.2Z" fill="#d44a28" stroke="#d44a28" stroke-miterlimit="10" stroke-width="7"/><path d="M364.2,482.9a135.5,135.5,0,0,1-94.3,38A108.7,108.7,0,0,1,161.2,412.2a87,87,0,0,1,87-87,69.6,69.6,0,0,1,69.6,69.6,55.7,55.7,0,0,1-55.7,55.7,44.5,44.5,0,0,1-44.5-44.5,35.6,35.6,0,0,1,35.6-35.6,35.6,35.6,0,0,0-35.6,35.6,44.5,44.5,0,0,0,44.5,44.5,55.7,55.7,0,0,0,55.7-55.7,69.6,69.6,0,0,0-69.6-69.6,87,87,0,0,0-87,87A108.7,108.7,0,0,0,269.9,520.9,135.5,135.5,0,0,0,364.2,482.9Z" fill="none" stroke="#d44b28" stroke-linecap="round" stroke-miterlimit="10" stroke-width="7"/><circle cx="255.5" cy="390.4" r="20.5" fill="#d44b28" stroke="#d44b28" stroke-miterlimit="10" stroke-width="7"/><path d="M421,406.9a9.6,9.6,0,0,1,10.8,8.1A9.9,9.9,0,0,1,421,406.9Z" fill="#fff4d0"/><path d="M421,396.5a11.8,11.8,0,0,1,13.2,9.9A12.1,12.1,0,0,1,421,396.5Z" fill="#fff4d0"/><path d="M421.2,384.5a13,13,0,0,1,14.6,11C428.9,396.5,422.1,391.1,421.2,384.5Z" fill="#fff4d0"/><path d="M421.4,372.2a15,15,0,0,1,16.8,12.7C430.3,386,422.5,379.7,421.4,372.2Z" fill="#fff4d0"/><path d="M421,357.7a17.7,17.7,0,0,1,19.8,14.9C431.4,373.9,422.3,366.6,421,357.7Z" fill="#fff4d0"/><path d="M421.2,341.2a19.7,19.7,0,0,1,22.1,16.6C432.8,359.3,422.6,351.1,421.2,341.2Z" fill="#fff4d0"/><path d="M421.4,322.4A22.8,22.8,0,0,1,447,341.6C434.9,343.3,423,333.9,421.4,322.4Z" fill="#fff4d0"/><path d="M418.3,406.9a9.6,9.6,0,0,0-10.8,8.1A9.9,9.9,0,0,0,418.3,406.9Z" fill="#fff4d0"/><path d="M418.3,396.5a11.8,11.8,0,0,0-13.2,9.9A12.1,12.1,0,0,0,418.3,396.5Z" fill="#fff4d0"/><path d="M418.1,384.5a13,13,0,0,0-14.6,11C410.4,396.5,417.2,391.1,418.1,384.5Z" fill="#fff4d0"/><path d="M418.1,372.2a15,15,0,0,0-16.8,12.7C409.3,386,417.1,379.7,418.1,372.2Z" fill="#fff4d0"/><path d="M418.3,357.7a17.7,17.7,0,0,0-19.8,14.9C407.9,373.9,417,366.6,418.3,357.7Z" fill="#fff4d0"/><path d="M418.1,341.2A19.7,19.7,0,0,0,396,357.8C406.5,359.3,416.7,351.1,418.1,341.2Z" fill="#fff4d0"/><path d="M417.9,322.4a22.8,22.8,0,0,0-25.6,19.3C404.4,343.3,416.3,333.9,417.9,322.4Z" fill="#fff4d0"/><line x1="419.7" y1="411" x2="419.7" y2="310" fill="none" stroke="#fff4d0" stroke-linecap="round" stroke-miterlimit="10" stroke-width="0.75"/><path d="M419.6,413.1a9.8,9.8,0,0,1,.2,13.7A10.1,10.1,0,0,1,419.6,413.1Z" fill="#fff4d0"/><path d="M424.4,220.4c0,6.6-4.8,12-4.8,12s-4.8-5.4-4.8-12,4.8-12,4.8-12S424.4,213.8,424.4,220.4Z" fill="#d44a28"/><circle cx="419.7" cy="249" r="8.1" fill="#0b2a49"/><circle cx="436.9" cy="249" r="3.6" fill="#0b2a49"/><circle cx="402.5" cy="249" r="3.6" fill="#0b2a49"/><circle cx="447" cy="249" r="1.8" fill="#0b2a49"/><circle cx="392.9" cy="249" r="1.8" fill="#0b2a49"/><circle cx="419.7" cy="200.3" r="6.7" fill="#0b2a49"/><path d="M403.5,212.1c-4.3,5-4.2,12.2-4.2,12.2s7.1-.9,11.5-5.9,4.2-12.2,4.2-12.2S407.9,207.1,403.5,212.1Z" fill="#fff5d1"/><path d="M398.7,200.3c-6.1,2.4-9.3,8.9-9.3,8.9s6.7,2.5,12.9,0,9.3-8.9,9.3-8.9S404.9,197.9,398.7,200.3Z" fill="#fff5d1"/><path d="M403.2,187.1c-6.3-2.1-12.9.7-12.9.7s3.5,6.3,9.8,8.4,12.9-.7,12.9-.7S409.4,189.2,403.2,187.1Z" fill="#fff5d1"/><path d="M415,220.4c0,6.6,4.8,12,4.8,12s4.8-5.4,4.8-12-4.8-12-4.8-12S415,213.8,415,220.4Z" fill="#fff5d1"/><path d="M435.9,212.1c4.3,5,4.2,12.2,4.2,12.2s-7.1-.9-11.5-5.9-4.2-12.2-4.2-12.2S431.6,207.1,435.9,212.1Z" fill="#fff5d1"/><path d="M440.7,200.3c6.1,2.4,9.3,8.9,9.3,8.9s-6.7,2.5-12.9,0-9.3-8.9-9.3-8.9S434.6,197.9,440.7,200.3Z" fill="#fff5d1"/><path d="M436.2,187.1c6.3-2.1,12.9.7,12.9.7s-3.5,6.3-9.8,8.4-12.9-.7-12.9-.7S430,189.2,436.2,187.1Z" fill="#fff5d1"/><circle cx="419.8" cy="296.6" r="6.7" fill="#183762"/><path d="M436,284.7c4.3-5,4.2-12.2,4.2-12.2s-7.1.9-11.5,5.9-4.2,12.2-4.2,12.2S431.6,289.7,436,284.7Z" fill="#fff5d1"/><path d="M440.8,296.5c6.1-2.4,9.3-8.9,9.3-8.9s-6.7-2.5-12.9,0-9.3,8.9-9.3,8.9S434.6,298.9,440.8,296.5Z" fill="#fff5d1"/><path d="M436.3,309.8c6.3,2.1,12.9-.7,12.9-.7s-3.5-6.3-9.8-8.4-12.9.7-12.9.7S430.1,307.6,436.3,309.8Z" fill="#fff5d1"/><path d="M424.5,276.5c0-6.6-4.8-12-4.8-12s-4.8,5.4-4.8,12,4.8,12,4.8,12S424.5,283.1,424.5,276.5Z" fill="#fff5d1"/><path d="M403.6,284.7c-4.3-5-4.2-12.2-4.2-12.2s7.1.9,11.5,5.9,4.2,12.2,4.2,12.2S407.9,289.7,403.6,284.7Z" fill="#fff5d1"/><path d="M398.8,296.5c-6.1-2.4-9.3-8.9-9.3-8.9s6.7-2.5,12.9,0,9.3,8.9,9.3,8.9S404.9,298.9,398.8,296.5Z" fill="#fff5d1"/><path d="M403.2,309.8c-6.3,2.1-12.9-.7-12.9-.7s3.5-6.3,9.8-8.4,12.9.7,12.9.7S409.5,307.6,403.2,309.8Z" fill="#fff5d1"/><path d="M418.4,88.5a9.6,9.6,0,0,1-10.8-8.1A9.9,9.9,0,0,1,418.4,88.5Z" fill="#fff4d0"/><path d="M418.4,98.9A11.8,11.8,0,0,1,405.2,89,12.1,12.1,0,0,1,418.4,98.9Z" fill="#fff4d0"/><path d="M418.3,110.9a13,13,0,0,1-14.6-11C410.6,99,417.4,104.4,418.3,110.9Z" fill="#fff4d0"/><path d="M418,123.3a15,15,0,0,1-16.8-12.7C409.2,109.5,417,115.7,418,123.3Z" fill="#fff4d0"/><path d="M418.4,137.7a17.7,17.7,0,0,1-19.8-14.9C408,121.5,417.2,128.8,418.4,137.7Z" fill="#fff4d0"/><path d="M418.3,154.3a19.7,19.7,0,0,1-22.1-16.6C406.6,136.1,416.9,144.3,418.3,154.3Z" fill="#fff4d0"/><path d="M418,173.1a22.8,22.8,0,0,1-25.6-19.3C404.5,152.1,416.4,161.6,418,173.1Z" fill="#fff4d0"/><path d="M421.1,88.5a9.6,9.6,0,0,0,10.8-8.1A9.9,9.9,0,0,0,421.1,88.5Z" fill="#fff4d0"/><path d="M421.1,98.9A11.8,11.8,0,0,0,434.3,89,12.1,12.1,0,0,0,421.1,98.9Z" fill="#fff4d0"/><path d="M421.3,110.9a13,13,0,0,0,14.6-11C429,99,422.2,104.4,421.3,110.9Z" fill="#fff4d0"/><path d="M421.3,123.3a15,15,0,0,0,16.8-12.7C430.2,109.5,422.4,115.7,421.3,123.3Z" fill="#fff4d0"/><path d="M421.1,137.7a17.7,17.7,0,0,0,19.8-14.9C431.6,121.5,422.4,128.8,421.1,137.7Z" fill="#fff4d0"/><path d="M421.3,154.3a19.7,19.7,0,0,0,22.1-16.6C432.9,136.1,422.7,144.3,421.3,154.3Z" fill="#fff4d0"/><path d="M421.5,173.1a22.8,22.8,0,0,0,25.6-19.3C435,152.1,423.2,161.6,421.5,173.1Z" fill="#fff4d0"/><line x1="419.7" y1="84.4" x2="419.7" y2="185.5" fill="none" stroke="#fff4d0" stroke-linecap="round" stroke-miterlimit="10" stroke-width="0.75"/><path d="M419.9,82.4a9.8,9.8,0,0,1-.2-13.7A10.1,10.1,0,0,1,419.9,82.4Z" fill="#fff4d0"/><path d="M190.7,347a50,50,0,0,0,9.5-70.1,40,40,0,0,0-56.1-7.6,32,32,0,0,0-6.1,44.8,25.6,25.6,0,0,0,35.9,4.9,20.5,20.5,0,0,0,3.9-28.7,16.4,16.4,0,0,0-23-3.1" fill="none" stroke="#d44b28" stroke-linecap="round" stroke-miterlimit="10" stroke-width="7"/><path d="M172.7,234.5c0,9.5-6.4,17.3-6.4,17.3s-6.4-7.7-6.4-17.2,6.4-17.2,6.4-17.2S172.7,225,172.7,234.5Z" fill="#d44b28"/><path d="M172.7,234.5c0,9.5-6.4,17.3-6.4,17.3s-6.4-7.7-6.4-17.2,6.4-17.2,6.4-17.2S172.7,225,172.7,234.5Z" fill="#d44b28"/><path d="M172.7,234.5c0,9.5-6.4,17.3-6.4,17.3s-6.4-7.7-6.4-17.2,6.4-17.2,6.4-17.2S172.7,225,172.7,234.5Z" fill="#0b2a49"/><path d="M261.9,298.9c0,9.5-6.4,17.3-6.4,17.3s-6.4-7.7-6.4-17.2,6.4-17.2,6.4-17.2S261.9,289.4,261.9,298.9Z" fill="#0b2a49"/><path d="M292.8,306.6c-3.3,9-11.9,14-11.9,14s-3.3-9.4-.1-18.4,11.9-14,11.9-14S296.1,297.6,292.8,306.6Z" fill="#0b2a49"/><path d="M319.2,324.4c-6.1,7.3-16,9.1-16,9.1s.1-10,6.2-17.3,16-9.1,16-9.1S325.3,317.1,319.2,324.4Z" fill="#0b2a49"/><path d="M337.9,350.2c-8.3,4.8-18.1,3.1-18.1,3.1s3.5-9.4,11.8-14.1,18.1-3.1,18.1-3.1S346.2,345.4,337.9,350.2Z" fill="#0b2a49"/><path d="M346.7,380.8c-9.4,1.7-18.1-3.3-18.1-3.3s6.5-7.6,15.9-9.3,18.1,3.3,18.1,3.3S356.1,379.1,346.7,380.8Z" fill="#0b2a49"/><path d="M344.5,412.5c-9.4-1.7-15.9-9.3-15.9-9.3s8.7-4.9,18.1-3.3,15.9,9.3,15.9,9.3S353.9,414.2,344.5,412.5Z" fill="#0b2a49"/><path d="M331.6,441.6c-8.3-4.8-11.8-14.1-11.8-14.1s9.9-1.7,18.1,3.1,11.8,14.1,11.8,14.1S339.8,446.4,331.6,441.6Z" fill="#0b2a49"/><path d="M309.5,464.5c-6.1-7.3-6.2-17.3-6.2-17.3s9.8,1.8,16,9.1,6.2,17.3,6.2,17.3S315.6,471.8,309.5,464.5Z" fill="#0b2a49"/><path d="M149.1,235.9c3.3,9-.1,18.4-.1,18.4s-8.6-5.1-11.9-14,.1-18.4.1-18.4S145.9,227,149.1,235.9Z" fill="#0b2a49"/><path d="M127.4,245.3c6.1,7.3,6.2,17.3,6.2,17.3s-9.8-1.8-16-9.1-6.2-17.3-6.2-17.3S121.3,238,127.4,245.3Z" fill="#0b2a49"/><path d="M112.2,263.6c8.3,4.8,11.8,14.1,11.8,14.1s-9.9,1.7-18.1-3.1S94,260.5,94,260.5,103.9,258.8,112.2,263.6Z" fill="#0b2a49"/><path d="M104.6,282.7c9.4,1.7,15.9,9.3,15.9,9.3s-8.7,4.9-18.1,3.3S86.5,286,86.5,286,95.2,281.1,104.6,282.7Z" fill="#0b2a49"/><path d="M103.8,304.2c9.4-1.7,18.1,3.3,18.1,3.3s-6.5,7.6-15.9,9.3-18.1-3.3-18.1-3.3S94.4,305.9,103.8,304.2Z" fill="#0b2a49"/><path d="M110.6,324.8c8.3-4.8,18.1-3.1,18.1-3.1s-3.5,9.4-11.8,14.1-18.1,3.1-18.1,3.1S102.4,329.5,110.6,324.8Z" fill="#0b2a49"/><circle cx="158.5" cy="292.2" r="6.3" fill="#d44d28" stroke="#d44b28" stroke-linecap="round" stroke-miterlimit="10" stroke-width="7"/><path d="M364.2,482.4a135.5,135.5,0,0,1-94.3,38A108.7,108.7,0,0,1,161.2,411.7a87,87,0,0,1,87-87,69.6,69.6,0,0,1,69.6,69.6,55.7,55.7,0,0,1-55.7,55.7,44.5,44.5,0,0,1-44.5-44.5,35.6,35.6,0,0,1,35.6-35.6,35.6,35.6,0,0,0-35.6,35.6,44.5,44.5,0,0,0,44.5,44.5,55.7,55.7,0,0,0,55.7-55.7,69.6,69.6,0,0,0-69.6-69.6,87,87,0,0,0-87,87A108.7,108.7,0,0,0,269.9,520.4,135.5,135.5,0,0,0,364.2,482.4Z" fill="none" stroke="#d44b28" stroke-linecap="round" stroke-miterlimit="10" stroke-width="7"/><path d="M364.2,482.4a135.5,135.5,0,0,1-94.3,38A108.7,108.7,0,0,1,161.2,411.7a87,87,0,0,1,87-87,69.6,69.6,0,0,1,69.6,69.6,55.7,55.7,0,0,1-55.7,55.7,44.5,44.5,0,0,1-44.5-44.5,35.6,35.6,0,0,1,35.6-35.6,35.6,35.6,0,0,0-35.6,35.6,44.5,44.5,0,0,0,44.5,44.5,55.7,55.7,0,0,0,55.7-55.7,69.6,69.6,0,0,0-69.6-69.6,87,87,0,0,0-87,87A108.7,108.7,0,0,0,269.9,520.4,135.5,135.5,0,0,0,364.2,482.4Z" fill="none" stroke="#d44b28" stroke-linecap="round" stroke-miterlimit="10" stroke-width="7"/><circle cx="255.5" cy="390.4" r="9.3" fill="#fff5d1"/><circle cx="158.5" cy="292.2" r="3.8" fill="#fff5d1"/></svg>