<svg id="Layer_1" data-name="Layer 1" xmlns="http://www.w3.org/2000/svg" width="3.4in" height="0.9in" viewBox="0 0 241.4 61.6"><title>Artboard 1 copy</title><path d="M0,20.9c.4-4.3,6-7.7,10.1-8,7.3-.7,27.3-2.9,34-10.2,1.3-1.4,3.9.7,2.8,1.8S37.4,12.6,36.4,15C39.8,11.8,54.9,0,62,0c4,0,4.2,1.4,4.2,2.7S52.7,18.5,50.6,19.6c5.8-4.1,11.1-6.3,13.2-6.3s2.6,1.9,2.6,3.3S49,35,49,38.4c0,.5.1.7.8.7,2.7,0,11.6-8.7,15.9-14.7l.7,1.8C63.6,29.9,54,41.1,49.5,41.1s-4.1-1.6-4.1-3.2c0-7.6,16-21.5,17.5-22.7C60.2,15.1,41.5,28.9,40,29s-2.3-.7-2.3-1.2S56.3,8,61.2,3.4c3.3-3.1-2.8-1.3-5.7.5C50.3,7.2,26.9,25.9,23.8,29c-1,1-5.3-.7-3.7-2.2S33.7,11.7,34.6,10.7a128.9,128.9,0,0,1-24,4.2c-3.8.3-8.1,5.1-8.3,6.3S-.1,21.7,0,20.9Z" fill="#e63938"/><path d="M69,22.6c2.5,0,7.7-5.4,5.6-5.4s-5.2,4-5.9,7.5c-.4,2.1.2,3.1,3.1,2.1s12-8.6,12.5-9.1.5,1.8.5,1.8-10.5,9.5-14.9,9.5-4.9-3.7-4.9-5a10,10,0,0,1,9.9-9.3c3.2,0,3,2.4,3,3.3s-5,6.7-9.9,6.7C67.7,24.8,68.3,22.6,69,22.6Z" fill="#e63938"/><path d="M85.3,19.3c5.4-1,20.9-14.9,18.6-14.9-4.2,0-30.2,26.8-30.2,34.1,0,3.6,21.3-14.9,23.5-19.2l-1.9,5.2c-1.4,2.3-16.1,16.6-21.5,16.6-2.8,0-3.5-2.1-3.5-3.8,0-6.5,22.1-35.4,34.8-35.4,9.8,0-16.7,20.4-22,20.4Z" fill="#e63938"/><path d="M142.2,15.4c.8-.9,4.2.1,3.3,1.3S135.3,28.3,138,28.3s13.5-12.9,14.8-12.9,3.9.7,3.4,1.3S116.8,61.6,97.5,61.6c-11.5,0-13.3-8.8-13.3-12,0-8.9,10.1-17.3,22-17.3s30.4,16,36.8,16a19,19,0,0,0,9.6-2.5c.5-.4,2.1,1,1.1,1.8s-3.7,3.1-11.1,3.1-25.9-16.3-36.4-16.3S86.7,42.9,86.7,49.8s3.9,9.5,10.9,9.5c12.2,0,39.1-27.3,42.2-30.2-4.2,1.1-6.1-.8-5.9-2.4S141.3,16.4,142.2,15.4Z" fill="#e63938"/><path d="M149.2,13.1c1.8-1.5,6.8-3.9,10.4-3.9,10.4,0,17.2-2.4,24.1-6.9.7-.5,4.4-.2,2.7,1.3s-26.7,25.5-27.6,26.6-3.8-.6-2.9-2,20.6-21,19.7-19.7c-5.3,2.9-14.3,2.5-17,2.5s-7.5,2.9-8.2,3.5S148.6,13.6,149.2,13.1Z" fill="#e63938"/><path d="M179.8,6.6c2.6-1.6,7.6-2.6,10.9-2.6s8.1,2,8.1,8.7S184.2,26,172.1,26c-10.4,0-11.8-4.9-11.8-7.6s3-5.4,7.3-5.4,14.7,2.7,24.7,2.7,22.2-11.3,23.2-12,4.2.8,2.9,1.8-24.2,19.4-24.2,23.1c4.6-.3,29.3-24.1,41.4-24.1,4.5,0,5.7,1.8,5.7,3.7s-2.7,3.5-6.2,3.5-.7-2,.3-2,1.9-3.2-.8-3.2c-8.7,0-36.1,24.3-41.8,24.3-2,0-4.2-1.1-3.9-1.8,1.2-2.7,9.5-11.9,10.9-12.8-3.1,1.4-9.3,1.1-11.9,1.1s-17.2-2.2-20.2-2.2-4.8,2-4.8,3.6,2.6,5,9.4,5,18-5.7,19.9-10.9-.2-7.1-3-7.1-9.5,1.7-11.3,3.4Z" fill="#e63938"/><path d="M104.1,14.8c-3.3,0-11,5.6-11,10.9a3.4,3.4,0,0,0,3.6,3.6c4.1,0,10.3-4.1,10.3-7.2s2.8-5.8,2.8-5.8A10.3,10.3,0,0,0,104.1,14.8ZM98,27.3c-.6,0-.4-1.3-.1-2.4a14.2,14.2,0,0,1,2-4c1.1-1.7,4.8-4.8,8.3-3.7C108.2,17.3,102.1,27.3,98,27.3Z" fill="#e63938"/><path d="M121.9,17.3c-5.4,0-9.1,12.1-16.9,12.1s4-12.5,5.4-14.1,5.1-.7,4.1.8-10.1,11.4-8.2,11.4c4.9,0,9.6-12.3,16.2-12.3,2.8,0,4.2,1.3,3.4,3.8,4.3-3.1,6.8-3.8,7.7-3.8s3.2,1.2,2.3,3.1-8.1,9.7-6,9.7,8.7-7.3,9.7-8.2,1.8.6.9,1.6-6,8.4-10.8,8.4-4.3-1.5-4.1-3.1,8.1-9.2,6.5-9.2c-3.8,0-12.1,9.5-13.4,11.2s-4.3-.3-3.9-1.1S124.8,17.3,121.9,17.3Z" fill="#e63938"/><path d="M72.1,12.4c0,.4-.1.9,2.9.9,1,0,4.9-2,4.9-2.5s-1.5-.7-2.5-.7S72.1,12.1,72.1,12.4Z" fill="#e63938"/></svg>