<svg id="Layer_1" data-name="Layer 1" xmlns="http://www.w3.org/2000/svg" viewBox="0 0 241.41 61.64"><defs><style>.cls-1{fill:#73c4c4;}</style></defs><title>Artboard 1</title><path class="cls-1" d="M0,20.94c.43-4.27,6-7.67,10.08-8,7.28-.66,27.3-2.89,34-10.22,1.28-1.4,3.89.7,2.8,1.79S37.4,12.65,36.45,15C39.83,11.83,54.94,0,62,0c4,0,4.18,1.43,4.18,2.68,0,2.23-13.48,15.81-15.57,16.89,5.79-4.06,11.09-6.32,13.18-6.32s2.62,1.91,2.62,3.28C66.39,18.37,49,35,49,38.36c0,.48.12.72.78.72,2.68,0,11.57-8.69,15.92-14.72l.66,1.83C63.59,29.88,54,41.1,49.45,41.1c-3.52,0-4.06-1.55-4.06-3.22,0-7.58,16-21.47,17.48-22.69C60.19,15.07,41.52,28.93,40,29s-2.33-.66-2.33-1.19S56.32,8,61.2,3.4c3.27-3.11-2.82-1.34-5.67.48C50.29,7.22,26.9,25.89,23.8,29c-1,1-5.25-.65-3.7-2.21S33.7,11.69,34.6,10.68a128.91,128.91,0,0,1-24,4.24c-3.79.34-8.11,5.11-8.29,6.32S-.08,21.73,0,20.94Z"/><path class="cls-1" d="M69,22.61c2.54,0,7.74-5.35,5.62-5.35-1.7,0-5.2,4-5.91,7.55-.41,2.06.2,3.11,3.1,2.1,2.44-.85,12-8.59,12.51-9.12s.48,1.8.48,1.8c-.64.69-10.49,9.54-14.95,9.54s-4.88-3.71-4.88-5a10,10,0,0,1,9.91-9.33c3.18,0,3,2.38,3,3.29,0,1.85-5,6.73-9.86,6.73C67.69,24.83,68.33,22.61,69,22.61Z"/><path class="cls-1" d="M85.3,19.34c5.37-1,20.88-14.93,18.56-14.93-4.18,0-30.24,26.78-30.24,34.12,0,3.64,21.33-14.93,23.54-19.22l-1.94,5.24C93.84,26.81,79.16,41.1,73.73,41.1c-2.78,0-3.49-2.09-3.49-3.76,0-6.5,22.1-35.43,34.75-35.43,9.84,0-16.7,20.4-22,20.4Z"/><path class="cls-1" d="M142.22,15.39c.75-.85,4.16.12,3.32,1.27C144,18.81,135.34,28.3,138,28.3s13.51-12.91,14.82-12.91,3.86.68,3.38,1.31c-1.15,1.53-39.31,44.94-58.7,44.94-11.49,0-13.28-8.79-13.28-12,0-8.89,10.1-17.28,22-17.28,11.54,0,30.4,16,36.83,16a19,19,0,0,0,9.62-2.52c.54-.36,2.11,1,1.13,1.85-.63.56-3.65,3.1-11.09,3.1-7.19,0-25.91-16.32-36.41-16.32-10.67,0-19.62,8.43-19.62,15.35,0,6,3.87,9.53,10.91,9.53,12.24,0,39.08-27.33,42.18-30.19-4.22,1.11-6.06-.77-5.91-2.38C134,24.94,141.33,16.41,142.22,15.39Z"/><path class="cls-1" d="M149.23,13.08c1.81-1.52,6.83-3.87,10.38-3.87,10.42,0,17.21-2.38,24.06-6.95.72-.48,4.37-.24,2.7,1.27s-26.72,25.53-27.6,26.56-3.82-.64-2.94-2,20.63-21,19.72-19.72c-5.33,2.86-14.26,2.51-17,2.51-3,0-7.46,2.89-8.17,3.45S148.59,13.62,149.23,13.08Z"/><path class="cls-1" d="M179.85,6.56c2.62-1.59,7.64-2.62,10.9-2.62s8.11,2,8.11,8.67S184.22,26,172.13,26c-10.42,0-11.81-4.89-11.81-7.6s3-5.45,7.28-5.45c3.1,0,14.71,2.7,24.73,2.7s22.19-11.26,23.23-12,4.22.8,2.94,1.83-24.24,19.4-24.24,23.14c4.61-.32,29.33-24.13,41.41-24.13,4.52,0,5.73,1.83,5.73,3.74s-2.7,3.5-6.2,3.5-.72-2,.32-2,1.91-3.18-.8-3.18c-8.67,0-36.11,24.26-41.76,24.26-2,0-4.22-1.1-3.9-1.83,1.22-2.73,9.5-11.88,10.93-12.75-3.1,1.43-9.34,1.14-11.89,1.14s-17.18-2.19-20.2-2.19-4.77,2-4.77,3.62,2.63,5,9.39,5,18-5.66,19.88-10.88c1.79-5-.24-7.08-3-7.08-3.46,0-9.54,1.67-11.29,3.42Z"/><path class="cls-1" d="M104.12,14.81c-3.34,0-11,5.64-11,10.92a3.41,3.41,0,0,0,3.62,3.57c4.13,0,10.26-4.13,10.26-7.15s2.8-5.8,2.8-5.8A10.27,10.27,0,0,0,104.12,14.81ZM98,27.33c-.64,0-.43-1.34-.09-2.39a14.24,14.24,0,0,1,2-4c1.12-1.66,4.84-4.84,8.26-3.7C108.2,17.25,102.13,27.33,98,27.33Z"/><path class="cls-1" d="M121.9,17.26c-5.41,0-9.12,12.09-16.88,12.09-7.56,0,4-12.52,5.39-14.08.48-.56,5.11-.72,4.1.8s-10.07,11.45-8.17,11.45c4.85,0,9.6-12.31,16.16-12.31,2.85,0,4.2,1.3,3.44,3.76,4.29-3.14,6.79-3.76,7.74-3.76s3.17,1.19,2.25,3.06-8.07,9.74-6,9.74c2.87,0,8.71-7.32,9.66-8.19s1.79.64.87,1.59-6,8.43-10.82,8.43c-3.47,0-4.34-1.48-4.13-3.09.26-2,8.11-9.2,6.52-9.2-3.85,0-12.13,9.46-13.36,11.21-1.39,2-4.29-.32-3.86-1.11S124.81,17.26,121.9,17.26Z"/><path class="cls-1" d="M72.14,12.37c0,.4-.08.87,2.94.87,1,0,4.85-2,4.85-2.51S78.47,10,77.47,10,72.14,12.08,72.14,12.37Z"/></svg>