<svg id="Layer_1" data-name="Layer 1" xmlns="http://www.w3.org/2000/svg" viewBox="0 0 701.51 232.29"><defs><style>.cls-1{fill:none;stroke:#030202;stroke-linecap:round;stroke-linejoin:round;stroke-width:4.58px;}</style></defs><title>Artboard 1</title><path class="cls-1" d="M51.5,120.28c1.73-4.8.38-27-21-27-37.15.07-38.21,55.48.11,56.86,42.92,1.55,70.81-109.8,79.13-134.11C108,26.81,112.46,150,117,150,117,125.16,186.39,7.22,195.9,2.29c-5.69,13.91-59.54,147.68-18.27,147.6,15.55,0,18.53-18.67,22.43-30.11"/><path class="cls-1" d="M201.17,113.23C228.42,119.8,255.3,73,231.86,73.31c-27.94.35-47.31,76.57-16.85,76.51,37.46-.07,113.41-132.72,81.9-134.8s-67.07,135.07-31.15,135c14,0,27.17-26.76,29.9-35.92"/><path class="cls-1" d="M333.28,72.85c35.44-.07,6.88,76.41-21.58,76.47C276.62,149.39,298.87,72.92,333.28,72.85Z"/><line class="cls-1" x1="546.02" y1="73.47" x2="495.91" y2="224.39"/><path class="cls-1" d="M570.68,73.42c35.54-.07,7.11,76-21.43,76.07C514.08,149.56,536.17,73.49,570.68,73.42Z"/><path class="cls-1" d="M358.45,73.06c-2.65,9.8-28.62,76.53-8.94,76.49,11.91,0,23.31-25.67,25.48-31.56"/><path class="cls-1" d="M514.49,73.19c-2.62,9.71-18.64,76.62-44.8,76.67-35.95.07-8.68-56.46-3-76.75"/><path class="cls-1" d="M514.59,73.3S483.1,229.92,443,230c-11.8,0-17.7-6-17.73-19.59-.09-46.57,95.06-58.69,98.54-69.17"/><path class="cls-1" d="M548.37,149.49c43.23-.08,61-48.28,70.62-76.39-5.42,15.84-28.54,76.53,5.12,76.46,26.81-.05,39.53-71.32,41.69-77.64-2.6,9.37-9.09,42,10.19,42,13.8,0,20-10.9,23.23-24.63"/><path class="cls-1" d="M390.48,72.86l-26.35,76.8c6.49-20.86,24.93-76.66,55-76.72,34.8-.07-24.52,76.52,8.48,76.46,15.85,0,22.83-22.49,25.91-34.69"/><line class="cls-1" x1="221.37" y1="56.66" x2="246.96" y2="36.67"/></svg>