<svg id="Layer_1" data-name="Layer 1" xmlns="http://www.w3.org/2000/svg" viewBox="0 0 617.61 439.54"><defs><style>.cls-1{fill:#606060;}</style></defs><title>Artboard 1</title><path class="cls-1" d="M298.65,62.26H281.24c0-1.22,0-2.31,0-3.39,0-14.31,0-28.63,0-42.94,0-2.11-.47-2.93-2.77-2.89-7.62.14-15.24,0-22.86.06-.8,0-1.61.14-2.52.22v4.92h21.15V67H298l.59.83c-.53.62-1,1.78-1.58,1.79-8.25.11-16.49.08-25,.08-.06-1.35-.15-2.34-.15-3.33,0-14.13-.14-28.25,0-42.38,0-2.71-.89-3.27-3.33-3.2-5.09.15-10.18,0-15.38,0v192h18.64V161.15c2.51-.93,2.42.55,2.43,2q.08,22.58.2,45.16c0,1.46,0,2.92,0,4.52h6.74V160.7h17.79c0,1,0,1.87,0,2.77q0,23.42,0,46.84c0,9.11-6.41,15.68-15.55,15.77q-15.75.15-31.51,0c-10-.07-15.65-5.38-16.53-15.37-.09-1-.07-2-.07-3.06q0-93.68,0-187.36a35.66,35.66,0,0,1,.86-9.09A14.52,14.52,0,0,1,250.44.48q16.45-.05,32.9,0c8.55,0,15.25,5.77,15.44,14.29.34,15.6.09,31.22.08,46.83A2.75,2.75,0,0,1,298.65,62.26Z"/><path class="cls-1" d="M297.31,225.4A13.61,13.61,0,0,1,284.6,234c-13,.1-26,.16-39,0-8.78-.12-15.61-6.67-17.39-16.32a39.91,39.91,0,0,1-.68-7.19q0-94,.08-187.92c0-4.83,1.15-9.72,2.31-14.45a7.19,7.19,0,0,1,5.85-5.61c-5.17,5.78-5.34,12.74-5.33,19.89q.11,94.38,0,188.75c0,12.28,7.51,19.77,19.82,19.76,10.69,0,21.38-.1,32.06,0A20.25,20.25,0,0,0,297.31,225.4Z"/><path class="cls-1" d="M389.83,62.26H372.42c0-1.22,0-2.31,0-3.39,0-14.31,0-28.63,0-42.94,0-2.11-.47-2.93-2.77-2.89-7.62.14-15.24,0-22.86.06-.8,0-1.61.14-2.52.22v4.92h21.15V67h23.71l.59.83c-.53.62-1,1.78-1.58,1.79-8.25.11-16.49.08-25,.08-.06-1.35-.15-2.34-.15-3.33,0-14.13-.14-28.25,0-42.38,0-2.71-.89-3.27-3.33-3.2-5.09.15-10.18,0-15.38,0v192H363V161.15c2.51-.93,2.42.55,2.43,2q.08,22.58.2,45.16c0,1.46,0,2.92,0,4.52h6.74V160.7h17.79c0,1,0,1.87,0,2.77q0,23.42,0,46.84c0,9.11-6.41,15.68-15.55,15.77q-15.75.15-31.51,0c-10-.07-15.65-5.38-16.53-15.37-.09-1-.07-2-.07-3.06q0-93.68,0-187.36a35.66,35.66,0,0,1,.86-9.09A14.52,14.52,0,0,1,341.62.48q16.45-.05,32.9,0c8.55,0,15.25,5.77,15.44,14.29.34,15.6.09,31.22.08,46.83A2.75,2.75,0,0,1,389.83,62.26Z"/><path class="cls-1" d="M388.49,225.4A13.61,13.61,0,0,1,375.78,234c-13,.1-26,.16-39,0-8.78-.12-15.61-6.67-17.39-16.32a39.91,39.91,0,0,1-.68-7.19q0-94,.08-187.92c0-4.83,1.15-9.72,2.31-14.45a7.19,7.19,0,0,1,5.85-5.61c-5.17,5.78-5.34,12.74-5.33,19.89q.11,94.38,0,188.75c0,12.28,7.51,19.77,19.82,19.76,10.69,0,21.38-.1,32.06,0A20.25,20.25,0,0,0,388.49,225.4Z"/><path class="cls-1" d="M207.77,113q0,48.22,0,96.44c0,9.75-6.17,16.11-15.9,16.2q-16,.14-32.05,0c-9.17-.08-15.57-6.62-15.57-15.73q0-96.86,0-193.71C144.25,6.35,150.6,0,160.45,0h31.22c9.69,0,16.1,6.36,16.1,16Q207.78,64.49,207.77,113ZM182,212.45v-3.3q0-92.7,0-185.41a5.3,5.3,0,0,0-.06-1.93c-.23-.55-.87-1.32-1.34-1.32-6.1-.09-12.21-.06-18.43-.06v192Zm8,0V12.8H162.12v5.08H184.5V212.45Z"/><path class="cls-1" d="M207,225.12c-2.5,5.38-7.05,7.85-12.61,7.95-12.91.23-25.83.17-38.75,0-8.8-.09-15.69-6.5-17.55-16.15a41.18,41.18,0,0,1-.71-7.74q-.06-93.53.07-187.06c0-4.92,1.13-9.91,2.25-14.74a8.18,8.18,0,0,1,6.16-6.13c-.55.84-.82,1.34-1.16,1.78A20.67,20.67,0,0,0,140.38,16q0,97.29,0,194.59C140.38,222.48,148,230,160,230c10.59,0,21.19-.12,31.78,0C197.5,230.15,202.61,228.89,207,225.12Z"/><path class="cls-1" d="M480.22,113q0,48.22,0,96.44c0,9.75-6.17,16.11-15.9,16.2q-16,.14-32.05,0c-9.17-.08-15.57-6.62-15.57-15.73q0-96.86,0-193.71C416.7,6.35,423.05,0,432.9,0h31.22c9.69,0,16.1,6.36,16.1,16Q480.23,64.49,480.22,113Zm-25.77,99.47v-3.3q0-92.7,0-185.41a5.3,5.3,0,0,0-.06-1.93c-.23-.55-.87-1.32-1.34-1.32-6.1-.09-12.21-.06-18.43-.06v192Zm8,0V12.8H434.57v5.08H457V212.45Z"/><path class="cls-1" d="M479.49,225.12c-2.5,5.38-7.05,7.85-12.61,7.95-12.91.23-25.83.17-38.75,0-8.8-.09-15.69-6.5-17.55-16.15a41.18,41.18,0,0,1-.71-7.74q-.06-93.53.07-187.06c0-4.92,1.13-9.91,2.25-14.74a8.18,8.18,0,0,1,6.16-6.13c-.55.84-.82,1.34-1.16,1.78A20.67,20.67,0,0,0,412.83,16q0,97.29,0,194.59c0,11.89,7.67,19.42,19.61,19.42,10.59,0,21.19-.12,31.78,0C469.95,230.15,475.06,228.89,479.49,225.12Z"/><rect class="cls-1" x="135.71" y="345.79" width="11.94" height="93.75"/><polygon class="cls-1" points="167.45 345.79 181.71 345.79 145.32 382.18 145.32 366.46 167.45 345.79"/><polygon class="cls-1" points="185.5 439.54 160.75 359.47 152.02 367.63 173.27 439.54 185.5 439.54"/><rect class="cls-1" x="194.52" y="345.79" width="11.36" height="93.75"/><rect class="cls-1" x="232.96" y="354.52" width="12.23" height="85.02"/><rect class="cls-1" x="215.78" y="345.79" width="46" height="8.73"/><rect class="cls-1" x="316.52" y="408.39" width="56.74" height="8.73"/><rect class="cls-1" x="379.7" y="408.39" width="45.81" height="8.73"/><rect class="cls-1" x="385.69" y="345.79" width="34.1" height="8.73"/><rect class="cls-1" x="385.69" y="430.81" width="34.1" height="8.73"/><path class="cls-1" d="M309.53,345.79v9.9c-47.75,13.1-45.13,61.43,0,75.12v8.73C251.88,433.72,242,357.73,309.53,345.79Z"/><rect class="cls-1" x="321.92" y="345.79" width="11.48" height="93.75"/><rect class="cls-1" x="355.7" y="345.79" width="11.48" height="93.75"/><rect class="cls-1" x="385.69" y="345.79" width="11.48" height="93.75"/><rect class="cls-1" x="436.06" y="345.79" width="11.48" height="93.75"/><rect class="cls-1" x="470.41" y="345.79" width="11.48" height="93.75"/><polygon class="cls-1" points="447.54 345.79 476.15 371.12 476.15 384.51 437.96 350.16 447.54 345.79"/><path class="cls-1" d="M414.36,324.19c.35-5.88-3.16-9.85-6.26-13.64-2.22-2.72-5.79-4.41-8.9-6.32-6.56-4-14-5.33-21.43-6.59-10.51-1.78-21.09-.69-31.63-.89-9-.17-18.1-.17-27.14.12-10.47.33-20.94,1.07-31.41,1.58-3.14.15-6.3,0-9.44.18-12.29.62-24.59,1.22-36.88,2-7.56.47-15.09,1.19-22.64,1.84-7.38.63-14.77,1.18-22.12,2-5.23.6-10.4,1.68-15.61,2.45-3.1.46-6.22.72-9.33,1.11q-6,.74-12,1.53-4.5.6-9,1.3c-5.67.88-11.34,1.82-17,2.7-4.37.68-8.77,1.23-13.13,2s-9,1.79-13.46,2.66c-2.05.4-4.13.69-6.19,1.09-6.41,1.24-12.8,2.59-19.22,3.74-4.5.81-9,1.34-13.57,2-5.74.88-11.45,2-17.22,2.63-4.21.45-8.48.29-12.73.34a59.48,59.48,0,0,1-16-1.79,26.58,26.58,0,0,1-12.7-7.46A29.64,29.64,0,0,1,2.14,305a84.79,84.79,0,0,1-1.2-31.55,52.14,52.14,0,0,1,3.34-11.53A25.62,25.62,0,0,1,14,250c1.78-1.2,4-1.72,6-2.59,9.28-4,19.07-2.83,28.69-2.53,5.5.17,11,1.57,16.43,2.38,2.63.39,5.29.62,7.9,1.1,6.4,1.17,12.76,2.49,19.16,3.66,6.1,1.11,12.23,2.06,18.33,3.14,4.35.77,8.67,1.64,13,2.43q6,1.1,12.11,2.13c5.53.94,11.06,1.88,16.6,2.73,2.94.45,5.91.7,8.86,1.09,6.17.81,12.34,1.67,18.52,2.47q4.77.62,9.56,1.08c4.91.47,9.83.81,14.74,1.32,4.18.44,8.35,1,12.53,1.55,1.09.13,2.19.15,3.29.22,5.72.35,11.44.61,17.15,1.06,6.7.53,13.37,1.38,20.08,1.78,8.19.49,16.39.67,24.59,1,8.53.32,17.05.79,25.58.93,22.32.36,44.64.76,67,.71,4.89,0,9.76-1.88,14.65-2.82a37.06,37.06,0,0,0,17-8.58c4.45-3.81,8.09-8.76,8.68-15.12a2.82,2.82,0,0,1,.17-.52c4.67,0,9.37-.09,14.06,0,3.12.08,6.23.61,9.35.71,14,.44,28.1.72,42.15,1.2,17.06.57,34.12,1.29,51.19,1.93,9.1.34,18.21.64,27.31,1,7.62.27,15.24.52,22.86.81,9.09.34,18.18.65,27.27,1.12a71.54,71.54,0,0,1,7.44,1.09c-12.64.21-25.84.38-39,.67-16.1.35-32.2.81-48.29,1.22q-18.25.47-36.5.95-14.23.4-28.45.88c-3.87.13-6,2.93-5.19,6.73.21,1,.7,3.7,3.69,3.7,5,.24,7.53.39,12.74.6q17.87.72,35.75,1.39l14.54.58,23.2.88,22.1.87q18.85.75,37.7,1.51a13,13,0,0,1,1.86.34v.75a15.87,15.87,0,0,1-1.81.23c-10.07.15-20.13.2-30.2.44-8.79.21-17.58.74-26.37.9-17.38.31-34.75.39-52.13.71-11.15.2-22.3.63-33.45,1a66.71,66.71,0,0,0-6.75.92c-1.8,1.38-2.62,5.19-.42,8,.37.47.93,1.08,1.44,1.12,5.14.45,10.28,1,15.44,1.13,15.94.4,31.88.61,47.82.93,14.38.29,28.75.63,43.13.94,14.13.31,28.26.59,42.38.93a69.92,69.92,0,0,1,7.72.73c-2.67.17-5.35.4-8,.5-8,.3-16,.48-24,.83-11.68.5-23.36,1.18-35,1.63-6.52.25-13.06.14-19.58.32-8,.23-16,.61-23.93.92-7.48.29-15,.45-22.45.89-7.27.43-14.53,1.18-21.79,1.71-2.81.21-3.78,3.48-3.59,6.39.16,2.45,1.65,3.85,4.46,3.9,5,.1,9.91,0,14.87.14q21.56.45,43.12,1c11.39.28,22.79.64,34.18.92,13.12.33,26.24.58,39.36.93,7.22.2,14.44.54,21.67.83a1.49,1.49,0,0,1,1.14.51c-2.62.18-5.24.46-7.87.5-6.45.11-12.91-.08-19.35.18-9.82.39-19.62,1.11-29.43,1.59-4.32.21-8.65.12-13,.26-11.53.38-23,.84-34.58,1.21-9.27.3-18.54.47-27.81.78-8.21.27-16.42.68-24.63,1-9.25.33-18.51.56-27.76.91-5.13.19-10.26.56-15.39.82C416.8,324.23,415.79,324.19,414.36,324.19Z"/></svg>