<svg id="Layer_1" data-name="Layer 1" xmlns="http://www.w3.org/2000/svg" viewBox="0 0 268 267.47"><defs><style>.cls-1,.cls-2{fill:none;stroke:#fff;stroke-miterlimit:10;}.cls-1{stroke-width:7.05px;}.cls-2{stroke-width:6.39px;}</style></defs><title>Artboard 4</title><rect class="cls-1" x="4.44" y="4.44" width="259.51" height="259.51" rx="15.15" ry="15.15"/><path class="cls-2" d="M142.11,40.42c-60.44,0-84.9,44.61-84.9,75.63,0,26.7,22.54,39.49,24.94,39.49s8.63-11.51,6.72-16.31C74,117.17,76.63,59.61,141.63,59.61s54.3,105,7.2,105c-11.64,0-17.47-7.79-21.47-16,1.77-8.48,2.88-14.27,3.24-14.74,1.44-1.92,20.63-48.45-4.32-48.45-28.3,0-24.94,31.66-20.63,46.53C100.38,149.79,80.71,217.42,95.1,228c11.71-1.5,21.3-32.34,27.57-58.31,6,7.76,15.23,13.7,29.51,13.7C227,183.36,238,40.42,142.11,40.42Z"/></svg>