<svg id="Layer_1" data-name="Layer 1" xmlns="http://www.w3.org/2000/svg" viewBox="0 0 109.82 109.82"><defs><style>.cls-1{fill:#fff;}</style></defs><title>Artboard 1 copy</title><path class="cls-1" d="M69.5,26.7H40.32A13.63,13.63,0,0,0,26.7,40.32V69.5A13.63,13.63,0,0,0,40.32,83.12H69.5A13.63,13.63,0,0,0,83.12,69.5V40.32A13.63,13.63,0,0,0,69.5,26.7ZM54,74.41A18.92,18.92,0,1,1,72.94,55.48,18.94,18.94,0,0,1,54,74.41ZM72.23,39.13a3.35,3.35,0,1,1,3.35-3.35A3.35,3.35,0,0,1,72.23,39.13Z"/><path class="cls-1" d="M54,39.56A15.92,15.92,0,1,0,69.94,55.48,15.94,15.94,0,0,0,54,39.56Z"/><path class="cls-1" d="M54.91,0a54.91,54.91,0,1,0,54.91,54.91A54.91,54.91,0,0,0,54.91,0ZM86.12,69.5A16.63,16.63,0,0,1,69.5,86.12H40.32A16.63,16.63,0,0,1,23.7,69.5V40.32A16.63,16.63,0,0,1,40.32,23.7H69.5A16.63,16.63,0,0,1,86.12,40.32Z"/></svg>