<svg id="Layer_1" data-name="Layer 1" xmlns="http://www.w3.org/2000/svg" viewBox="0 0 109.82 109.82"><defs><style>.cls-1{fill:#fff;}</style></defs><title>Artboard 1</title><path class="cls-1" d="M54.91,0a54.91,54.91,0,1,0,54.91,54.91A54.91,54.91,0,0,0,54.91,0Zm18,32.38L68,32.27c-7.36,0-7.47,3.35-7.47,6v7.36H71.07a1.18,1.18,0,0,1,1.18,1.18v9.92a1.18,1.18,0,0,1-1.18,1.18H60.65V89.14l-12.71-.22v-31H37.81A.91.91,0,0,1,36.9,57V46a.56.56,0,0,1,.56-.56H47.94l-.11-9.26c0-7.92,5.13-15.5,11.6-15.5H71.74a1.18,1.18,0,0,1,1.18,1.18Z"/></svg>