<svg xmlns="http://www.w3.org/2000/svg"><symbol id="pinterest" viewBox="0 0 256 256"><circle cx="128" cy="128" r="128"/><path fill="#fff" d="M133.7 60.2c-43.7 0-61.4 32.2-61.4 54.7 0 19.3 16.3 28.5 18.1 28.5s6.2-8.3 4.8-11.8c-10.7-15.9-8.8-57.5 38.2-57.5s39.2 75.9 5.2 75.9c-8.4 0-12.7-5.6-15.5-11.5 1.2-6.1 2-10.3 2.3-10.7s14.9-35-3.1-35c-20.5 0-18.1 22.9-14.9 33.6-3.9 12.9-18.1 61.8-7.7 69.4 8.5-1.1 15.4-23.4 20-42.1 4.3 5.6 11 9.9 21.3 9.9 54.1 0 62.1-103.4-7.3-103.4z"/></symbol>
<symbol id="behance" viewBox="0 0 256 256">
  <circle cx="128" cy="128" r="128"/>
  <path fill="#fff" d="M119.4 87.9a25.2 25.2 0 0 1 4.5 15.1c0 6-1.5 10.8-4.6 14.5a22.9 22.9 0 0 1-7.5 5.6 22.7 22.7 0 0 1 11.4 8.8 25.6 25.6 0 0 1 3.9 14.4 29.4 29.4 0 0 1-4.4 15.8 26.8 26.8 0 0 1-18.2 12.7 68.5 68.5 0 0 1-14 1.4H46V77.3h47.8c12 .2 20.5 3.7 25.6 10.6zm-53.7 6.6v21.8h24a20.4 20.4 0 0 0 10.5-2.4c2.7-1.7 4-4.6 4-8.7s-1.8-7.7-5.3-9.1a35.5 35.5 0 0 0-11.7-1.6zm0 38.2V159h24a24.3 24.3 0 0 0 10-1.7c4.3-2.2 6.5-6.3 6.5-12.4s-2.1-8.6-6.3-10.6a25.4 25.4 0 0 0-9.9-1.6zm125.2-28.1a29.8 29.8 0 0 1 12.6 10.8 34.6 34.6 0 0 1 5.8 15.1 81.5 81.5 0 0 1 .7 14.5h-53.2c.3 7.3 2.8 12.5 7.6 15.4a19.6 19.6 0 0 0 10.5 2.8 16.2 16.2 0 0 0 10.6-3.4 17.2 17.2 0 0 0 4-5H209c-.5 4.3-2.9 8.7-7.1 13.2-6.5 7.1-15.7 10.7-27.5 10.7a39.7 39.7 0 0 1-25.7-9c-7.5-6-11.2-15.8-11.2-29.3s3.4-22.4 10.1-29.1 15.4-10.2 26.1-10.2a41.3 41.3 0 0 1 17.2 3.5zm-28.6 16.5a19.8 19.8 0 0 0-5.1 11.3h32.9c-.3-5.1-2-8.9-5-11.6a17.1 17.1 0 0 0-11.4-3.9q-7.3 0-11.4 4.2zm-8.2-39.8h39.4v9.35h-39.4z"/></symbol>
  <symbol id="instagram" viewBox="0 0 256 256">
    <circle cx="128" cy="128" r="128"/>
    <path fill="#fff" d="M128 163.7a35.7 35.7 0 1 1 35.7-35.7 35.7 35.7 0 0 1-35.7 35.7zm0-63a27.3 27.3 0 1 0 27.3 27.3 27.4 27.4 0 0 0-27.3-27.3z"/>
    <circle cx="165.5" cy="87.9" r="5.8" fill="#fff"/>
    <path fill="#fff" d="M159.4 195.6H96.6a36.3 36.3 0 0 1-36.2-36.2V96.6a36.3 36.3 0 0 1 36.2-36.2h62.8a36.3 36.3 0 0 1 36.2 36.2v62.8a36.3 36.3 0 0 1-36.2 36.2zM96.6 68.8a27.9 27.9 0 0 0-27.8 27.8v62.8a27.9 27.9 0 0 0 27.8 27.8h62.8a27.9 27.9 0 0 0 27.8-27.8V96.6a27.9 27.9 0 0 0-27.8-27.8z"/>
  </symbol>
  <symbol id="facebook" viewBox="0 0 256 256">
    <circle cx="128" cy="128" r="128"/>
    <path fill="#fff" d="M114.2 195.6V134H94a1.8 1.8 0 0 1-1.8-1.8v-21.9a1.1 1.1 0 0 1 1.1-1.1h20.9l-.3-18.4c0-15.7 10.2-30.8 23.1-30.8h24.4a2.3 2.3 0 0 1 2.4 2.3v21L154 83c-14.6 0-14.8 6.7-14.8 12v14.6h20.9a2.3 2.3 0 0 1 2.3 2.4v19.6a2.3 2.3 0 0 1-2.3 2.4h-20.7v62"/>
  </symbol>
</svg>
