<svg id="Layer_1" data-name="Layer 1" xmlns="http://www.w3.org/2000/svg" viewBox="0 0 423.25 148.86"><defs><style>.cls-1{fill:#606161;}</style></defs><title>Artboard 2</title><path class="cls-1" d="M113.88,29.61c0-15.13-54-20.25-54-1.63s68.42-.93,68.42,28.62c0,30.48-82.84,29.79-82.84-1.4h11.4c0,19.08,59.81,19.55,59.81,1.4,0-16.29-69.11-1.4-69.11-28.39,0-29.79,78.19-28.16,78.19.93Z"/><rect class="cls-1" x="139.01" y="10.06" width="11.87" height="89.36"/><rect class="cls-1" x="243.9" y="10.06" width="11.87" height="66.26"/><rect class="cls-1" x="273.05" y="10.06" width="11.87" height="66.26"/><path class="cls-1" d="M185.18,8.24C159.68,8.24,139,23.72,139,42.82S159.68,77.4,185.18,77.4s46.17-15.48,46.17-34.58S210.67,8.24,185.18,8.24Zm0,61.16c-19,0-34.35-11.9-34.35-26.59s15.38-26.59,34.35-26.59,34.35,11.9,34.35,26.59S204.15,69.4,185.18,69.4Z"/><path class="cls-1" d="M284.92,35.26C296.38,9.08,342.63,12,342.63,33.34V75.57h11.52V30.89c0-25.83-48.17-30.37-70.51-9.08l-.87,14Z"/><polygon class="cls-1" points="370.2 0 381.55 0 375.88 18.33 370.2 18.33 370.2 0"/><polygon class="cls-1" points="390.1 0 401.45 0 395.77 18.33 390.1 18.33 390.1 0"/><polygon class="cls-1" points="31.24 0 19.9 0 25.57 18.33 31.24 18.33 31.24 0"/><polygon class="cls-1" points="11.35 0 0 0 5.67 18.33 11.35 18.33 11.35 0"/><rect class="cls-1" y="88.66" width="132.49" height="7.5"/><rect class="cls-1" x="159.02" y="88.66" width="264.23" height="7.5"/><rect class="cls-1" x="22.74" y="113.88" width="3.74" height="34.73"/><rect class="cls-1" x="54.16" y="113.88" width="3.74" height="34.73"/><rect class="cls-1" x="80.34" y="113.88" width="3.74" height="34.73"/><rect class="cls-1" x="136.77" y="113.88" width="3.74" height="34.73"/><rect class="cls-1" x="148.17" y="113.88" width="3.74" height="34.73"/><rect class="cls-1" x="172.49" y="113.88" width="3.74" height="34.73"/><rect class="cls-1" x="202.74" y="113.88" width="3.74" height="34.73"/><rect class="cls-1" x="214.38" y="113.88" width="3.74" height="34.73"/><rect class="cls-1" x="321.37" y="113.88" width="3.74" height="34.73"/><polygon class="cls-1" points="356 148.61 352.26 148.61 358.22 113.88 361.96 113.88 356 148.61"/><rect class="cls-1" x="386.64" y="113.88" width="3.74" height="34.73"/><polygon class="cls-1" points="400.51 148.61 396.77 148.61 389.69 131.24 393.44 131.24 400.51 148.61"/><polygon class="cls-1" points="33.14 113.88 37.51 113.88 29.48 130.67 37.51 148.61 32.8 148.61 25.35 130.49 33.14 113.88"/><rect class="cls-1" x="74.74" y="113.56" width="14.84" height="3.26"/><rect class="cls-1" x="137.08" y="127.69" width="14.84" height="3.26"/><rect class="cls-1" x="173.21" y="113.88" width="10.35" height="3.26"/><rect class="cls-1" x="173.21" y="145.35" width="10.35" height="3.26"/><rect class="cls-1" x="173.21" y="129" width="10.35" height="3.26"/><path class="cls-1" d="M119.42,118.22v-3.9c-4.25-1.51-13.32-.87-13.32,8.26v16.63c0,4.37,2.91,12.34,13.32,8.73v-4.19c-1.8,1.86-9.83,3.08-9.83-2.56v-19C109.59,117.4,116,115.19,119.42,118.22Z"/><polygon class="cls-1" points="206.49 113.88 216.93 145.74 214.38 148.61 204.62 118.92 206.49 113.88"/><path class="cls-1" d="M275.74,148.32H280s-14.25-23.91-14.25-27.11c0-5.64,6.52-6.22,6.52,0,.19,4.79-11.37,9.12-11.37,18.49,0,5.71,4,9,8.06,9s11.46-6.86,11.46-8.14l-2.27-2.62c-1.14,2.19-6.28,7.45-8.9,7.45s-4.73-2.63-5-5.88c-.51-6.06,11.53-13.22,11.52-18.56,0-4.54-2.91-7.45-6.92-7.45s-6.25,3.72-6.28,7.8C262.55,126.57,275.74,148.32,275.74,148.32Z"/><path class="cls-1" d="M330.9,130.78c-2.73,0-6.69.29-6.69.29v-2.21h3.26c4.88,0,3.84-11.93-.06-11.93h-2.35v-3.06h3.57c8,0,7.16,16.91,2.27,16.91"/><path class="cls-1" d="M325,130.32h4.13c9,0,8.38,18.29,0,18.29h-4.88v-3.75H328c4.89,0,4.31-12.74-.64-12.74h-2.29Z"/><polygon class="cls-1" points="365.13 148.61 368.87 148.61 362.91 113.88 359.17 113.88 365.13 148.61"/><rect class="cls-1" x="355.16" y="138.41" width="10.35" height="3.26"/><path class="cls-1" d="M389.48,113.88h2.79c9.95,0,11,17.84,0,17.84H389v-2.79h2.21c6.86,0,6.87-12-.26-12h-1.16Z"/></svg>