<svg id="Layer_1" data-name="Layer 1" xmlns="http://www.w3.org/2000/svg" viewBox="0 0 483.38 372"><defs><style>.cls-1,.cls-10,.cls-11,.cls-12,.cls-14,.cls-15,.cls-2,.cls-4,.cls-5,.cls-6,.cls-7,.cls-8,.cls-9{fill:none;}.cls-1,.cls-10,.cls-11,.cls-12,.cls-13,.cls-14,.cls-15,.cls-2,.cls-3,.cls-4,.cls-5,.cls-6,.cls-7,.cls-8,.cls-9{stroke:#fff;}.cls-1,.cls-10,.cls-12,.cls-14,.cls-15,.cls-2,.cls-3,.cls-4,.cls-6,.cls-7,.cls-8,.cls-9{stroke-linecap:round;}.cls-1,.cls-10,.cls-12,.cls-14,.cls-15,.cls-2,.cls-3,.cls-4,.cls-5,.cls-6,.cls-7,.cls-8,.cls-9{stroke-linejoin:round;}.cls-1{stroke-width:1.2px;}.cls-2,.cls-3{stroke-width:1.22px;}.cls-3{fill:#fff;}.cls-4{stroke-width:1.28px;}.cls-5,.cls-6{stroke-width:1.22px;}.cls-7{stroke-width:1.2px;}.cls-8{stroke-width:1.21px;}.cls-9{stroke-width:1.3px;}.cls-10{stroke-width:1.51px;}.cls-11,.cls-13{stroke-miterlimit:10;}.cls-11{stroke-width:1.22px;}.cls-12{stroke-width:1.19px;}.cls-14{stroke-width:1.24px;}.cls-15{stroke-width:1.23px;}</style></defs><title>Artboard 1</title><path class="cls-1" d="M185.46,45a34.85,34.85,0,1,1-21.34.22"/><path class="cls-1" d="M156,36a19.18,19.18,0,1,1,38.35,0v4.51H156V36"/><circle class="cls-1" cx="175.13" cy="28.68" r="4.45"/><circle class="cls-1" cx="175.13" cy="28.68" r="1.44"/><circle class="cls-1" cx="183.98" cy="33.93" r="3.16"/><line class="cls-1" x1="172.98" y1="16.86" x2="172.98" y2="9.48"/><line class="cls-1" x1="176.28" y1="16.86" x2="176.28" y2="0.53"/><polyline class="cls-1" points="155.96 37.09 165.96 37.09 165.96 40.54"/><polyline class="cls-1" points="155.96 40.54 161.33 44.99 175.13 44.99"/><polyline class="cls-1" points="194.31 40.54 189.18 44.99 175.38 44.99"/><line class="cls-1" x1="162.53" y1="21.58" x2="187.14" y2="21.58"/><line class="cls-1" x1="160.02" y1="24.23" x2="167.59" y2="24.23"/><line class="cls-1" x1="182.48" y1="24.23" x2="190.04" y2="24.23"/><path class="cls-1" d="M181.86,81.1V75.21l8.07-1.1a15.15,15.15,0,0,0-10.47-10.46l-1.19,8.08h-5.89l-1.1-8.07a15.15,15.15,0,0,0-10.46,10.47l8.08,1.19v5.89l-8.07,1.1a15.15,15.15,0,0,0,10.47,10.46l1.19-8.08h5.89l1.1,8.07a15.15,15.15,0,0,0,10.46-10.47Z"/><circle class="cls-1" cx="175.38" cy="78.2" r="3.67"/><circle class="cls-1" cx="175.38" cy="78.2" r="19.81"/><path class="cls-1" d="M146.4,58.55a102.27,102.27,0,0,1,1.91,20.51,104.68,104.68,0,0,1-1.67,19.3"/><path class="cls-1" d="M203.47,58.55a102.27,102.27,0,0,0-1.91,20.51,104.68,104.68,0,0,0,1.67,19.3"/><path class="cls-1" d="M195,50a102.27,102.27,0,0,1-20.51,1.91,104.68,104.68,0,0,1-19.3-1.67"/><path class="cls-1" d="M195,106.88A102.27,102.27,0,0,0,174.53,105a104.68,104.68,0,0,0-19.3,1.67"/><line class="cls-1" x1="175.38" y1="58.39" x2="175.38" y2="51.91"/><line class="cls-1" x1="175.38" y1="104.96" x2="175.38" y2="98.36"/><line class="cls-1" x1="195.19" y1="78.2" x2="201.56" y2="78.2"/><line class="cls-1" x1="155.57" y1="78.2" x2="148.32" y2="78.2"/><polyline class="cls-1" points="188.43 40.54 188.43 37.09 194.31 37.09"/><circle class="cls-1" cx="156.16" cy="58.99" r="1.21"/><circle class="cls-1" cx="156.43" cy="97.42" r="1.21"/><circle class="cls-1" cx="194.6" cy="58.99" r="1.21"/><circle class="cls-1" cx="194.6" cy="97.42" r="1.21"/><polygon class="cls-2" points="208.23 296.1 186.51 320.71 192.5 326.7 216.92 304.79 208.23 296.1"/><path class="cls-2" d="M211.51,292.66h3.16a2.85,2.85,0,0,1,2.85,2.85v5.23a2.85,2.85,0,0,1-2.85,2.85h-3.16a0,0,0,0,1,0,0V292.66A0,0,0,0,1,211.51,292.66Z" transform="translate(-147.98 239) rotate(-45)"/><polygon class="cls-2" points="157.21 347.13 181.82 325.41 187.81 331.39 165.89 355.81 157.21 347.13"/><circle class="cls-3" cx="187.13" cy="326.08" r="8.46" transform="translate(-175.77 227.83) rotate(-45)"/><circle class="cls-3" cx="187.13" cy="326.08" r="5.05" transform="translate(-175.77 227.83) rotate(-45)"/><path class="cls-2" d="M156.23,347.94h3.16a2.85,2.85,0,0,1,2.85,2.85V356a2.85,2.85,0,0,1-2.85,2.85h-3.16a0,0,0,0,1,0,0V347.94A0,0,0,0,1,156.23,347.94Z" transform="translate(521.72 490.7) rotate(135)"/><path class="cls-2" d="M195.37,328l36.21-4.27a44.51,44.51,0,0,1-46.21,46.79l3.71-36.24"/><path class="cls-2" d="M185.37,370.55a46.31,46.31,0,0,1-24.64-8.75l5.16-6"/><path class="cls-2" d="M231.6,324.32a46.31,46.31,0,0,0-8.75-24.64l-6,5.16"/><circle class="cls-2" cx="199.65" cy="338.33" r="2.32" transform="translate(-180.76 240.27) rotate(-45)"/><circle class="cls-2" cx="206.15" cy="345.1" r="2.32" transform="translate(-183.64 246.84) rotate(-45)"/><circle class="cls-2" cx="193.32" cy="341.38" r="2.32" transform="translate(-131.57 121.47) rotate(-26.38)"/><circle class="cls-2" cx="156.71" cy="271.18" r="2.32" transform="translate(-104.19 97.89) rotate(-26.38)"/><circle class="cls-2" cx="165.94" cy="276.97" r="2.32" transform="translate(-105.8 102.59) rotate(-26.38)"/><circle class="cls-2" cx="132.43" cy="295.46" r="2.32" transform="translate(-191.1 282.79) rotate(-63.62)"/><circle class="cls-2" cx="138.3" cy="304.61" r="2.32" transform="translate(-196.04 293.14) rotate(-63.62)"/><circle class="cls-2" cx="194.38" cy="350.31" r="2.32" transform="translate(-135.43 122.87) rotate(-26.38)"/><circle class="cls-2" cx="212.57" cy="332.12" r="2.32" transform="translate(-125.45 129.06) rotate(-26.38)"/><circle class="cls-2" cx="202.61" cy="332.1" r="2.32" transform="translate(-184.93 366.02) rotate(-63.62)"/><path class="cls-2" d="M201.22,283.63a47.92,47.92,0,0,1,12.16,6.32l-5.16,6"/><path class="cls-2" d="M142.5,327.42a46.31,46.31,0,0,0,8.75,24.64l6-5.16"/><polyline class="cls-2" points="150.06 300.98 124.17 275.51 118.62 281.06 142.53 327.98"/><polyline class="cls-2" points="162.38 288.65 136.91 262.77 142.46 257.22 188.73 280.3"/><path class="cls-2" d="M177.54,261.84l2.84-2.84a2.75,2.75,0,0,1,3.41-.32l6.48,4-9.07,9.07-4-6.55A2.75,2.75,0,0,1,177.54,261.84Z"/><path class="cls-2" d="M160.17,290.13a44.41,44.41,0,0,1,28.57-8.94L185,317.42"/><path class="cls-2" d="M178.74,323.71,142.53,328a44.42,44.42,0,0,1,8.9-29.11"/><polygon class="cls-2" points="196.66 304.59 201.22 283.61 203 275.43 192.57 265 183.44 274.12 188.9 279.47 186.52 303.27 196.66 304.59"/><line class="cls-2" x1="180.93" y1="258.85" x2="187.34" y2="265.26"/><line class="cls-2" x1="177.53" y1="262.24" x2="183.95" y2="268.65"/><polygon class="cls-2" points="141.83 287.94 149.47 280.3 184.02 312.94 173.99 322.97 141.83 287.94"/><path class="cls-2" d="M215.47,306.24a34.49,34.49,0,0,1,6.23,18.69"/><path class="cls-2" d="M158.7,345.8a34.5,34.5,0,0,1-6.16-19"/><path class="cls-2" d="M186.41,360.45a32.09,32.09,0,0,1-19.12-6"/><line class="cls-2" x1="148.08" y1="304" x2="121.88" y2="277.8"/><line class="cls-2" x1="165.23" y1="286.85" x2="139.03" y2="260.65"/><polyline class="cls-2" points="147.05 282.72 174.84 310.51 171.69 313.66 143.9 285.87"/><circle class="cls-2" cx="204.94" cy="308.17" r="1.64"/><circle class="cls-2" cx="168.07" cy="345.04" r="1.64"/><line class="cls-2" x1="187.27" y1="260.79" x2="179.29" y2="268.77"/><line class="cls-2" x1="188.9" y1="279.47" x2="203" y2="275.43"/><rect class="cls-2" x="180.46" y="266.74" width="12.83" height="3.27" transform="translate(508.78 326) rotate(135)"/><path class="cls-2" d="M219.79,302.32a40.39,40.39,0,0,1-56.42,56.42"/><path class="cls-4" d="M337.38,14.2l10-6.67a1.19,1.19,0,0,1,1.54.12l1.47,1.47a1.19,1.19,0,0,1,.13,1.53l-6.86,9.76"/><polyline class="cls-4" points="319.96 37.86 321.57 39.47 312.08 51.99 306.83 55.05 304.8 53.02"/><polyline class="cls-4" points="319.96 37.86 318.36 36.26 305.83 45.75 302.77 51 304.8 53.02"/><polyline class="cls-4" points="340.5 17.32 337.38 14.2 294.46 51.91"/><polyline class="cls-4" points="340.5 17.32 343.62 20.45 305.69 63.14"/><line class="cls-4" x1="305.83" y1="45.75" x2="312.08" y2="51.99"/><rect class="cls-4" x="279.33" y="52.23" width="15.95" height="36.05" transform="translate(133.82 -182.58) rotate(45)"/><path class="cls-4" d="M296.46,67h5.14A2.35,2.35,0,0,1,304,69.37v17a0,0,0,0,1,0,0h-9.85a0,0,0,0,1,0,0v-17A2.35,2.35,0,0,1,296.46,67Z" transform="translate(141.82 -188.98) rotate(45)"/><path class="cls-4" d="M304.76,77.94c.79.34,20.24,20.24,20.24,20.24l-9.88,9.88L283.67,95.88"/><rect class="cls-4" x="319.57" y="93.2" width="4.13" height="22.55" transform="translate(168.08 -196.83) rotate(45)"/><line class="cls-4" x1="329.61" y1="96.5" x2="352.07" y2="74.04"/><line class="cls-4" x1="350.61" y1="72.58" x2="353.53" y2="75.5"/><line class="cls-4" x1="352.07" y1="74.04" x2="357.79" y2="68.31"/><rect class="cls-4" x="282.55" y="81" width="5.4" height="18.98" transform="translate(147.53 -175.2) rotate(45)"/><polyline class="cls-4" points="310.62 83.6 296.14 98.07 288.81 90.74"/><circle class="cls-4" cx="295.02" cy="62.81" r="3.49" transform="translate(42 227) rotate(-45)"/><polyline class="cls-4" points="291.54 63.16 276.39 78.32 279.51 81.44 294.66 66.28"/><circle class="cls-4" cx="295.02" cy="62.81" r="0.64" transform="translate(42 227) rotate(-45)"/><line class="cls-4" x1="300.74" y1="68.04" x2="307.7" y2="75"/><line class="cls-4" x1="325.96" y1="97.23" x2="328.88" y2="100.15"/><rect class="cls-4" x="272.64" y="96.47" width="6.74" height="6.52" rx="0.75" ry="0.75" transform="translate(151.36 -165.96) rotate(45)"/><line class="cls-4" x1="274.25" y1="96.73" x2="279.01" y2="101.49"/><polyline class="cls-4" points="322.03 95.15 314.86 102.32 307.62 99.45"/><path class="cls-4" d="M275.93,48.83h9.85a0,0,0,0,1,0,0v17a2.35,2.35,0,0,1-2.35,2.35h-5.14a2.35,2.35,0,0,1-2.35-2.35v-17a0,0,0,0,1,0,0Z" transform="translate(438.06 298.49) rotate(-135)"/><path class="cls-4" d="M279.61,52.79c-.34-.79-20.24-20.24-20.24-20.24l-9.88,9.88,12.18,31.45"/><rect class="cls-4" x="251.02" y="24.64" width="4.13" height="22.55" transform="translate(406.64 240.28) rotate(-135)"/><line class="cls-4" x1="261.06" y1="27.95" x2="283.52" y2="5.49"/><line class="cls-4" x1="284.98" y1="6.95" x2="282.06" y2="4.03"/><line class="cls-4" x1="283.52" y1="5.49" x2="289.24" y2="-0.24"/><rect class="cls-4" x="264.37" y="62.82" width="5.4" height="18.98" transform="translate(404.78 312.28) rotate(-135)"/><polyline class="cls-4" points="273.96 46.94 259.48 61.41 266.81 68.74"/><line class="cls-4" x1="289.52" y1="56.82" x2="282.56" y2="49.85"/><line class="cls-4" x1="260.33" y1="31.6" x2="257.41" y2="28.68"/><rect class="cls-4" x="263.24" y="35.14" width="4.13" height="2.71" transform="translate(427.09 249.91) rotate(-135)"/><line class="cls-4" x1="266.26" y1="35.54" x2="288.72" y2="13.08"/><line class="cls-4" x1="290.18" y1="14.54" x2="287.26" y2="11.62"/><line class="cls-4" x1="288.72" y1="13.08" x2="294.45" y2="7.35"/><rect class="cls-4" x="319.07" y="90.97" width="4.13" height="2.71" transform="translate(482.92 384.7) rotate(-135)"/><line class="cls-4" x1="322.09" y1="91.37" x2="344.55" y2="68.91"/><line class="cls-4" x1="346.01" y1="70.37" x2="343.09" y2="67.45"/><line class="cls-4" x1="344.55" y1="68.91" x2="350.28" y2="63.18"/><rect class="cls-4" x="254.46" y="78.28" width="6.74" height="6.52" rx="0.75" ry="0.75" transform="translate(382.48 321.51) rotate(-135)"/><line class="cls-4" x1="260.83" y1="83.31" x2="256.06" y2="78.54"/><polyline class="cls-4" points="262.4 35.52 255.24 42.69 258.11 49.93"/><circle class="cls-5" cx="281.94" cy="353.87" r="3.25"/><circle class="cls-5" cx="319.13" cy="353.87" r="3.25"/><line class="cls-5" x1="285.19" y1="353.87" x2="315.88" y2="353.87"/><polyline class="cls-5" points="281.94 350.62 290.62 338.08 295.46 331.1 305.05 331.1 319.13 350.62"/><line class="cls-5" x1="289.47" y1="353.53" x2="289.47" y2="339.75"/><line class="cls-5" x1="295.08" y1="353.61" x2="295.08" y2="331.57"/><line class="cls-5" x1="300.69" y1="353.7" x2="300.69" y2="331.89"/><line class="cls-5" x1="306.29" y1="353.79" x2="306.29" y2="332.82"/><line class="cls-5" x1="311.9" y1="353.87" x2="311.9" y2="341.03"/><path class="cls-5" d="M295.36,327c0-5.37,9.46-5.48,9.46,0v4.22h-9.46Z"/><path class="cls-5" d="M293.94,308.85c.15,2.62,1.33,10.4-2.15,11.62s-14.38,3.1-18.11,1.06-4.9-4.23-4.31-8.16,5.26-9.91,10.87-10.06S293.76,305.5,293.94,308.85Z"/><path class="cls-5" d="M306.39,308.85c-.15,2.62-1.33,10.4,2.15,11.62s14.38,3.1,18.11,1.06,4.9-4.23,4.31-8.16-5.26-9.91-10.87-10.06S306.58,305.5,306.39,308.85Z"/><path class="cls-5" d="M295.15,302.13V262.45a5.72,5.72,0,0,1,5.72-5.72h0a5,5,0,0,1,5,5v40.35"/><line class="cls-6" x1="297.12" y1="317.86" x2="303.05" y2="317.86"/><line class="cls-6" x1="297.12" y1="312.87" x2="303.05" y2="312.87"/><line class="cls-6" x1="297.12" y1="307.87" x2="303.05" y2="307.87"/><path class="cls-5" d="M294.93,287.87c-6.81-3.89-19-4.53-27.13,1-11.32,7.76-24.22,57.42-24.22,72.83"/><path class="cls-5" d="M306.19,287.87c6.81-3.89,19-4.53,27.13,1,11.32,7.76,24.22,57.42,24.22,72.83"/><path class="cls-6" d="M300.69,302.38c-8.6,0-12.5-2.86-20.54-2.34s-13.34,8.37-19,17.79c-6.22,10.39-17.59,32.46-17.59,43.88,11.3,5.94,42.11,9.25,55.37,9.36,14.54.12,48.86-2.51,58.92-9.36,0-11.43-11.37-33.49-17.59-43.88-5.63-9.42-10.92-17.27-19-17.79s-11.94,2.34-20.54,2.34"/><path class="cls-6" d="M311.9,265.14c3.42,0,13.87.34,17.12,8.22"/><line class="cls-6" x1="325.49" y1="352.09" x2="334.71" y2="332.82"/><line class="cls-6" x1="310.85" y1="328" x2="328.94" y2="330.54"/><line class="cls-6" x1="275.47" y1="352.09" x2="266.25" y2="332.82"/><line class="cls-6" x1="290.11" y1="328" x2="272.02" y2="330.54"/><path class="cls-5" d="M295.95,259.55c-29.69,0-32.86,18.75-32.86,34.71"/><path class="cls-5" d="M306,259.55c29.69,0,32.86,18.75,32.86,34.71"/><polyline class="cls-6" points="283.77 357.12 288.26 361.61 300.09 361.61"/><polyline class="cls-6" points="316.89 357.12 312.41 361.61 300.58 361.61"/><circle class="cls-7" cx="180.06" cy="137.02" r="1.46"/><line class="cls-7" x1="180.3" y1="196.74" x2="175.14" y2="200.03"/><line class="cls-7" x1="180.3" y1="196.74" x2="185.46" y2="200.03"/><rect class="cls-7" x="174.9" y="204.84" width="10.31" height="3.9"/><line class="cls-7" x1="175.9" y1="208.74" x2="157.35" y2="208.74"/><line class="cls-7" x1="203.51" y1="208.74" x2="184.96" y2="208.74"/><path class="cls-7" d="M179.83,141C160.78,141,151,151.06,151,171.61S160.18,222,160.18,222c3.82,3.82,14.55,7.34,19.65,7.34"/><path class="cls-7" d="M180.3,141c19.05,0,28.81,10.08,28.81,30.63S200,222,200,222c-3.82,3.82-14.55,7.34-19.65,7.34"/><circle class="cls-7" cx="168.65" cy="183.56" r="7.73"/><circle class="cls-7" cx="191.7" cy="183.56" r="7.73"/><path class="cls-7" d="M191.7,195.08a11.53,11.53,0,1,1,11.53-11.53h4.38"/><path class="cls-7" d="M168.65,195.08a11.53,11.53,0,1,0-11.53-11.53h-4.36"/><circle class="cls-7" cx="191.7" cy="183.56" r="1.62"/><circle class="cls-7" cx="168.72" cy="183.56" r="1.62"/><line class="cls-7" x1="164.11" y1="177.4" x2="164.11" y2="189.38"/><line class="cls-7" x1="167.18" y1="175.95" x2="167.18" y2="190.86"/><line class="cls-7" x1="170.25" y1="175.95" x2="170.25" y2="190.86"/><line class="cls-7" x1="173.32" y1="177.4" x2="173.32" y2="189.38"/><line class="cls-7" x1="187.1" y1="177.4" x2="187.1" y2="189.38"/><line class="cls-7" x1="190.17" y1="175.95" x2="190.17" y2="190.86"/><line class="cls-7" x1="193.24" y1="175.95" x2="193.24" y2="190.86"/><line class="cls-7" x1="196.3" y1="177.4" x2="196.3" y2="189.38"/><path class="cls-7" d="M179.83,129.72c-3.73,0-4.15,7.3-7.57,8.21s-25.12,2.39-25.12,34.95l-3,1.74,1.28,11.13,2.78,1c0,5.54,3.07,18.4,3.54,20.07l2.49,2,2.34,9.7h2.57"/><polyline class="cls-7" points="155.12 212.44 151.73 212.44 151.73 222.64 157.35 222.64 157.35 218.43"/><path class="cls-7" d="M180.43,129.72c3.73,0,4.15,7.3,7.57,8.21s25.12,2.39,25.12,34.95l3,1.74-1.28,11.13-2.78,1c0,5.54-3.07,18.4-3.54,20.07l-2.49,2-2.34,9.7h-2.57"/><polyline class="cls-7" points="205.14 212.44 208.53 212.44 208.53 222.64 202.91 222.64 202.91 218.43"/><path class="cls-7" d="M160.18,222l-2.83,10.12c5.37,5.37,17.38,7.79,22.95,7.79s19.33-4.05,22.42-7.79L199.9,222"/><line class="cls-7" x1="167.18" y1="232.62" x2="167.18" y2="242.28"/><line class="cls-7" x1="193.24" y1="232.62" x2="193.24" y2="242.28"/><line class="cls-7" x1="168.72" y1="214.38" x2="172.57" y2="228.11"/><line class="cls-7" x1="168.72" y1="214.38" x2="172.57" y2="228.11"/><line class="cls-7" x1="191.07" y1="214.38" x2="187.22" y2="228.11"/><line class="cls-8" x1="95.55" y1="32.67" x2="15.86" y2="32.67"/><rect class="cls-8" x="13.92" y="32.67" width="83.03" height="6.56"/><path class="cls-8" d="M13.92,32.67C17.35,9.84,27.43.4,55.44.4,81.47.4,94.34,6.83,97,32.67"/><path class="cls-8" d="M62.74,42.38c-2.75,0,15,14.22,19.15,14.22s6.82-12.78,4.2-12.78S65.1,42.38,62.74,42.38Z"/><path class="cls-8" d="M46.75,42.38c2.75,0-15,14.22-19.15,14.22s-6.82-12.78-4.2-12.78S44.38,42.38,46.75,42.38Z"/><path class="cls-8" d="M17.24,39.23c0,3.74.59,24.14,6.89,24.14S44.7,49.49,55.89,49.49"/><path class="cls-8" d="M94.12,39.23c0,3.74-.59,24.14-6.89,24.14S66.66,49.49,55.47,49.49"/><path class="cls-8" d="M55.89,66.32c9.44,0,26.17,16.13,35.22,16.13s9.64,10,9.64,15-12,15.85-24.79,15.85-13.38-5.82-13.38-6.61H55.89"/><path class="cls-8" d="M55.89,66.32c-9.44,0-26.17,16.13-35.22,16.13s-9.64,10-9.64,15,12,15.85,24.79,15.85,13.38-5.82,13.38-6.61h6.69"/><path class="cls-8" d="M55.89,61.4c-7.17,0-14.53,12.06-16.26,12.06"/><path class="cls-8" d="M55.89,61.4c7.17,0,14.53,12.06,16.26,12.06"/><circle class="cls-8" cx="37.42" cy="101.89" r="7.28"/><circle class="cls-8" cx="37.42" cy="101.89" r="3.3"/><circle class="cls-8" cx="72.94" cy="101.89" r="3.3"/><circle class="cls-8" cx="72.94" cy="101.89" r="7.28"/><path class="cls-8" d="M49.17,106.65V98.59l3-6c.83-1.7,1.86-2.77,3.75-2.77h0"/><path class="cls-8" d="M62.58,106.65V98.59l-3-6c-.83-1.7-1.83-2.77-3.72-2.77"/><path class="cls-8" d="M55.89,84.62c-6,0-8.13,3.61-8.13,5.84,0,4.44-7.45,4.16-10.34,4.16"/><path class="cls-8" d="M55.89,84.62c6,0,8.13,3.61,8.13,5.84,0,4.44,7.45,4.16,10.34,4.16"/><path class="cls-8" d="M16.85,39.39c0,6.82-4,19.32-10.49,24.14C1.76,66.94.2,70.08.2,75.4c0,6.76,7.47,15.68,10.88,15.68"/><path class="cls-8" d="M24.13,63.37c-5.9,1.18-6.49,4.13-6.89,5.31-3.84-3.84.87-17.38.87-17.38"/><path class="cls-8" d="M22.35,82.29C21.18,77.53,13.67,68.88,11,68.68"/><line class="cls-8" x1="9.85" y1="82.68" x2="14.55" y2="79.11"/><line class="cls-8" x1="7.78" y1="80.61" x2="12.48" y2="77.04"/><line class="cls-8" x1="5.71" y1="78.54" x2="10.41" y2="74.97"/><line class="cls-8" x1="3.64" y1="76.47" x2="8.34" y2="72.9"/><path class="cls-8" d="M94.46,39.39c0,6.82,4,19.32,10.49,24.14,4.59,3.41,6.15,6.56,6.15,11.87,0,6.76-7.47,15.68-10.88,15.68"/><path class="cls-8" d="M87.18,63.37c5.9,1.18,6.49,4.13,6.89,5.31,3.84-3.84-.87-17.38-.87-17.38"/><path class="cls-8" d="M89,82.29c1.17-4.76,8.68-13.41,11.32-13.61"/><line class="cls-8" x1="101.46" y1="82.68" x2="96.75" y2="79.11"/><line class="cls-8" x1="103.53" y1="80.61" x2="98.82" y2="77.04"/><line class="cls-8" x1="105.6" y1="78.54" x2="100.89" y2="74.97"/><line class="cls-8" x1="107.67" y1="76.47" x2="102.96" y2="72.9"/><path class="cls-8" d="M13.92,39.23c-2.78,0-8.71,18.26-4.07,20.71"/><path class="cls-8" d="M97.38,39.23c2.78,0,8.71,18.26,4.07,20.71"/><path class="cls-9" d="M57.94,243.31a57,57,0,1,1,0-114H73.61v9.73H63.22v9h31v10.19H76.11v10.77h32.7v9.37H85v9.62h9.23v7.85H77.07v9.63h25.58v9.57H79V225H94V235.5l-13,5.23c-10.29,4.14-15.75,2.59-23.07,2.59-17,0-31.51-15.94-36.83-38.16"/><path class="cls-9" d="M20.08,200.1a82.29,82.29,0,0,1-1.15-13.77,81.39,81.39,0,0,1,1.82-17.25"/><path class="cls-9" d="M71.88,225c-3.47,11.26-8.43,18.3-13.94,18.3-3.28,0-6.36-2.49-9-6.88C43,226.79,39,208,39,186.33q0-1.84,0-3.66"/><line class="cls-9" x1="0.96" y1="186.33" x2="84.96" y2="186.33"/><circle class="cls-9" cx="39.86" cy="161.51" r="15.23"/><circle class="cls-9" cx="39.86" cy="161.51" r="5.6"/><line class="cls-9" x1="57.94" y1="191.78" x2="57.94" y2="229.27"/><line class="cls-9" x1="57.94" y1="182.67" x2="57.94" y2="172.16"/><line class="cls-9" x1="78.87" y1="139.12" x2="57.94" y2="139.12"/><line class="cls-9" x1="92.52" y1="158.31" x2="99.9" y2="158.31"/><line class="cls-9" x1="63.61" y1="169.07" x2="112.4" y2="169.07"/><line class="cls-9" x1="91.75" y1="188.06" x2="100.86" y2="188.06"/><line class="cls-9" x1="67.33" y1="205.54" x2="109.26" y2="205.54"/><line class="cls-9" x1="39.86" y1="155.91" x2="39.86" y2="146.28"/><line class="cls-9" x1="35.01" y1="158.71" x2="26.67" y2="153.9"/><line class="cls-9" x1="35.01" y1="164.31" x2="26.67" y2="169.13"/><line class="cls-9" x1="39.86" y1="167.12" x2="39.86" y2="176.74"/><line class="cls-9" x1="44.72" y1="164.31" x2="53.06" y2="169.13"/><line class="cls-9" x1="44.72" y1="158.71" x2="53.06" y2="153.9"/><line class="cls-9" x1="92.27" y1="224.99" x2="104.19" y2="224.99"/><line class="cls-9" x1="102.75" y1="158.31" x2="103.42" y2="158.31"/><line class="cls-9" x1="82.07" y1="139.12" x2="82.84" y2="139.12"/><line class="cls-9" x1="103.86" y1="188.06" x2="104.77" y2="188.06"/><line class="cls-9" x1="63.15" y1="205.54" x2="64.06" y2="205.54"/><line class="cls-9" x1="106.72" y1="224.99" x2="107.63" y2="224.99"/><line class="cls-9" x1="112.26" y1="205.54" x2="113.17" y2="205.54"/><circle class="cls-9" cx="87.07" cy="130.61" r="2.21"/><circle class="cls-9" cx="110.5" cy="153.9" r="2.21"/><circle class="cls-9" cx="100.86" cy="200.1" r="2.21"/><circle class="cls-9" cx="81.08" cy="234.61" r="2.21"/><circle class="cls-9" cx="72.02" cy="191.78" r="2.21"/><circle class="cls-9" cx="109.26" cy="136.5" r="2.21"/><circle class="cls-9" cx="70.15" cy="155.49" r="2.82"/><circle class="cls-9" cx="115.99" cy="176.74" r="2.82"/><circle class="cls-9" cx="117.53" cy="218.44" r="2.82"/><circle class="cls-9" cx="66.43" cy="218.44" r="2.82"/><path class="cls-10" d="M296.32,175.74a7.46,7.46,0,0,0-5.84-2.46c-3,0-6,1.73-6.57,2.46,1,2.74,5.66,2.55,6.75,2.55A7.05,7.05,0,0,0,296.32,175.74Z"/><circle class="cls-10" cx="290.76" cy="175.79" r="2.28"/><path class="cls-10" d="M281.45,172.82c1.28-1.37,4.47-5.29,9.31-5.29s8.58,5.11,8.58,5.75"/><path class="cls-10" d="M283.18,181.12a10.93,10.93,0,0,0,7.21,2.65c3.47,0,5.11-.82,5.93-1.73"/><path class="cls-10" d="M289.75,151.38c.91-1.19,5.41-4.29,8.22-4.29s3.91.91,7.74.91"/><path class="cls-10" d="M301,170.4c0-1.41,2.65-2.87,4.74-2.87s4.74,1.64,4.74,2.87"/><path class="cls-10" d="M298.79,180.12c0-1.37,1.82-4.84,7-4.84"/><path class="cls-10" d="M294.5,193.81c1.28.46,5.93.91,7.3,0a5.06,5.06,0,0,0,3.92,1.55"/><path class="cls-10" d="M300.11,196.73a13.3,13.3,0,0,0,5.7,1.64"/><path class="cls-10" d="M297.14,185.41c-1.46,1.19-4.11,3.75-4.11,6.21"/><path class="cls-10" d="M305.72,137.6c-11.22,0-29.74,15.24-29.74,29.47-3.74,0-29.21-2.69-36.68-7-3.78-2.19-2.26,3.32-1.73,4.74,1.55,4.17,16.88,25.27,38.41,25.27,0,4.47,11.5,21,29.84,20.71"/><path class="cls-10" d="M275.7,176.2c-5.57-6.57-27.56-6.93-32.21-10.68"/><path class="cls-10" d="M284.46,206.94c3.19,4.53,8.76,12.32,21.35,12.32"/><path class="cls-10" d="M327.16,206.94c-3.19,4.53-8.76,12.32-21.35,12.32"/><path class="cls-10" d="M279.08,206.94c-10.31.64-30.84,15.85-30.84,35.66h57.57v-13.4l-5.7-6.78c-11,0-14.64-5.17-16.93-7.18s-6.27-22.09-6.27-22.09"/><path class="cls-10" d="M283.18,215.25c1.73,2.92,6.3,12.93,6.3,27.36"/><path class="cls-10" d="M315.12,175.74a7.46,7.46,0,0,1,5.84-2.46c3,0,6,1.73,6.57,2.46-1,2.74-5.66,2.55-6.75,2.55A7.05,7.05,0,0,1,315.12,175.74Z"/><circle class="cls-10" cx="320.69" cy="175.79" r="2.28"/><path class="cls-10" d="M330,172.82c-1.28-1.37-4.47-5.29-9.31-5.29s-8.58,5.11-8.58,5.75"/><path class="cls-10" d="M328.26,181.12a10.93,10.93,0,0,1-7.21,2.65c-3.47,0-5.11-.82-5.93-1.73"/><path class="cls-10" d="M321.69,151.38c-.91-1.19-5.41-4.29-8.22-4.29s-3.91.91-7.74.91"/><path class="cls-10" d="M293,156.43c.91-1.19,2.13-2.14,4.94-2.14s3.91.91,7.74.91"/><path class="cls-10" d="M318.32,156.43c-.91-1.19-2.13-2.14-4.94-2.14s-3.91.91-7.74.91"/><path class="cls-10" d="M310.47,170.4c0-1.41-2.65-2.87-4.74-2.87S301,169.17,301,170.4"/><path class="cls-10" d="M312.66,179.8c0-1.37-1.82-4.52-7-4.52"/><path class="cls-10" d="M316.94,193.81c-1.28.46-5.93.91-7.3,0a5.06,5.06,0,0,1-3.92,1.55"/><path class="cls-10" d="M311.33,196.73a13.3,13.3,0,0,1-5.7,1.64"/><path class="cls-10" d="M314.3,185.41c1.46,1.19,4.11,3.75,4.11,6.21"/><path class="cls-10" d="M305.72,137.6c11.22,0,29.74,15.24,29.74,29.47,3.74,0,29.21-2.69,36.68-7,3.78-2.19,2.26,3.32,1.73,4.74-1.55,4.17-16.88,25.27-38.41,25.27,0,4.47-11.5,21-29.84,20.71"/><path class="cls-10" d="M335.74,176.2c5.57-6.57,27.56-6.93,32.21-10.68"/><path class="cls-10" d="M332.36,206.94c10.31.64,30.84,15.85,30.84,35.66H305.63v-13.4l5.7-6.78c11,0,14.64-5.17,16.93-7.18s6.27-22.09,6.27-22.09"/><path class="cls-10" d="M328.26,215.25c-1.73,2.92-6.3,12.93-6.3,27.36"/><path class="cls-10" d="M299.33,182.75s4.43-.5,4.43.87,4.24,1.46,4.24,0,3.6-1.14,4.33-1.14"/><path class="cls-10" d="M302.3,165.52c-2.69-.5-6.88-5-6.71-8s-5.79-7.8-7.48-8.3"/><path class="cls-10" d="M309.26,165.52c2.69-.5,6.88-5,6.71-8s5.79-7.8,7.48-8.3"/><line class="cls-10" x1="305.72" y1="129.39" x2="305.72" y2="137.6"/><line class="cls-10" x1="313.71" y1="139.55" x2="317.4" y2="132.03"/><line class="cls-10" x1="321.69" y1="144.37" x2="326.98" y2="138.24"/><line class="cls-10" x1="327.53" y1="149.76" x2="334.55" y2="146.63"/><line class="cls-10" x1="297.74" y1="139.55" x2="294.04" y2="132.03"/><line class="cls-10" x1="289.75" y1="144.37" x2="284.46" y2="138.24"/><line class="cls-10" x1="283.91" y1="149.76" x2="276.89" y2="146.63"/><path class="cls-10" d="M287.67,227.2c3.21,1.25,14.1,2,18.14,2"/><path class="cls-10" d="M323.23,227.2c-3.21,1.25-14.1,2-18.14,2"/><path class="cls-11" d="M424.53,371.14c-43.88,0-54.1-33.93-55.08-44.38a.24.24,0,0,1,.47-.11c1.27,3.3,4.17,10.52,6.55,11.4-2-2.57-7.1-17.68-7.1-23.81,0-4.31-.28-21.16,6.47-28.32a.24.24,0,0,1,.4.26c-5.44,15.28-.34,31.61,8.08,37.37-1.51-2.27-5.89-12.39-5.89-26.9,0-14,14.39-34,22.32-36.79a.24.24,0,0,1,.26.39c-18,20.88-2.41,38.16,3.47,47.83-12.69,26.6-3.8,47.35,16.52,57.22,1.51-.6.4-19.75.4-19.75l-7.32,7.22a.12.12,0,0,1-.19-.13l5-11.22-14-2.4a.12.12,0,0,1,0-.23l14.32-2.31-4.09-13a.12.12,0,0,1,.21-.1l6.5,9.71,2.72-76.4"/><path class="cls-11" d="M424.53,371.14c43.88,0,54.1-33.93,55.08-44.38a.24.24,0,0,0-.47-.11c-1.27,3.3-4.17,10.52-6.55,11.4,2-2.57,7.1-17.68,7.1-23.81,0-4.31.28-21.16-6.47-28.32a.24.24,0,0,0-.4.26c5.44,15.28.34,31.61-8.08,37.37,1.51-2.27,5.89-12.39,5.89-26.9,0-14-14.39-34-22.32-36.79a.24.24,0,0,0-.26.39c18,20.88,2.41,38.16-3.47,47.83,12.69,26.6,3.8,47.35-16.52,57.22-1.51-.6-.4-19.75-.4-19.75l7.32,7.22a.12.12,0,0,0,.19-.13l-5-11.22,14-2.4a.12.12,0,0,0,0-.23l-14.32-2.31,4.09-13a.12.12,0,0,0-.21-.1l-6.5,9.71-2.72-76.4"/><path class="cls-12" d="M61.82,305.05a6.94,6.94,0,0,1,5.53-3.41c2.24,0,4.79,1.06,5.22,1.7"/><path class="cls-12" d="M65.28,302.1a2,2,0,1,0,2.71-.43l-.6,0A5.51,5.51,0,0,0,65.28,302.1Z"/><path class="cls-12" d="M55.54,320.24a6.83,6.83,0,0,0,1.76-.9,3.28,3.28,0,0,1,1.64-.51c1.53,0,1,1.24.18,1.24s-1.29-.62-2-.62"/><path class="cls-12" d="M55.65,327.08c.5-.32.67-.5,1-.5s5.25,1.7,7.2,1.7"/><path class="cls-12" d="M55.65,331.69a13,13,0,0,0,3.33-.21"/><path class="cls-12" d="M55.65,328.29a27.07,27.07,0,0,1,4.9,0"/><line class="cls-12" x1="55.65" y1="339.64" x2="55.65" y2="338.26"/><path class="cls-12" d="M57.31,307.82v5.39c0,.78.07,1.21.78,1.49"/><path class="cls-12" d="M55.65,341.72c12.93,0,13.73-7.88,16.92-12.67,2.34-3.51,6.65-8.82,6.65-13.42"/><path class="cls-12" d="M32.58,294.55c5,3.33,22.18,3.26,22.18,3.26,7.81,0,14.12-8.23,15.11-10.29.5,1.92-.92,7.38-3.9,10.08,3.76,0,11.49-1.92,12.91-3.05,1.56,2.91-1.58,19.29.34,21.08,2.7,2.29,7.38.69,9.79-.94-1.77-1.35-3.67-10.49-3.67-14.89s1-7.57,1-11"/><path class="cls-12" d="M32.58,294.55c-1.56,2.91,1.58,16.77-.3,20.05-2.7,2.29-7.38.69-9.79-.94,1.77-1.35,3.63-9.46,3.63-13.86s-1-7.57-1-11"/><path class="cls-12" d="M49.46,305.05a6.94,6.94,0,0,0-5.53-3.41c-2.24,0-4.79,1.06-5.22,1.7"/><path class="cls-12" d="M46,302.1a2,2,0,1,1-2.71-.43l.6,0A5.51,5.51,0,0,1,46,302.1Z"/><path class="cls-12" d="M55.54,320.24c-.34,0-.86-.5-1.57-.9a3.28,3.28,0,0,0-1.64-.51c-1.53,0-1,1.24-.18,1.24s1.29-.62,2-.62"/><path class="cls-12" d="M55.63,327.08c-.5-.32-.67-.5-1-.5s-5.25,1.7-7.2,1.7"/><path class="cls-12" d="M55.63,331.69a13,13,0,0,1-3.33-.21"/><path class="cls-12" d="M55.63,328.29a27.07,27.07,0,0,0-4.9,0"/><line class="cls-12" x1="55.63" y1="339.64" x2="55.63" y2="338.26"/><path class="cls-12" d="M54,307.82v5.39c0,.78-.07,1.21-.78,1.49"/><path class="cls-12" d="M55.63,341.72c-12.93,0-13.73-7.88-16.92-12.67-2.34-3.51-6.42-9.53-6.42-14.45"/><path class="cls-12" d="M25.17,288.82a30.56,30.56,0,0,1,61.13,0"/><circle class="cls-13" cx="44.41" cy="303.51" r="0.71"/><circle class="cls-13" cx="66.87" cy="303.51" r="0.71"/><path class="cls-12" d="M41.8,334.74c0,4.58-10.38,14.52-25.57,14.52S.34,360.33.34,369.55"/><path class="cls-12" d="M69.51,334.74c0,4.58,10.38,14.52,25.57,14.52S111,360.33,111,369.55"/><line class="cls-12" x1="38.71" y1="340.36" x2="54.31" y2="363.86"/><line class="cls-12" x1="71.38" y1="338.95" x2="51.37" y2="368.15"/><path class="cls-14" d="M431,63.73c1.76-1.82,4.62-4.74,8.09-4.74a7.61,7.61,0,0,1,5.59,2.37"/><path class="cls-14" d="M432.25,56.67c2.49-1.22,6.63-3,10.1-3a7.9,7.9,0,0,1,5.9,2.37"/><path class="cls-14" d="M440.25,59.09a2.61,2.61,0,1,1-4,.63"/><path class="cls-14" d="M429.49,82.37c-1.28,0-2.83,3-5.38,3"/><path class="cls-14" d="M424.11,95.41c.82,0,1.55-.64,3.19-.64h6.48"/><path class="cls-14" d="M424.11,99.84c3.83,0,8-2.37,8-4.74"/><path class="cls-14" d="M424.11,112.93c4.74,0,7.54-.73,9.67-3.77S444.9,101.61,447.21,96a101.69,101.69,0,0,0,6.58-21.8"/><rect class="cls-14" x="456" y="19.64" width="23.14" height="72" rx="10.59" ry="10.59" transform="translate(9.35 -52.78) rotate(6.53)"/><path class="cls-14" d="M458.9,29.64c0-16.27-18.65-33-34.79-28V35c0,2.19,14.72,15.48,32.41,15.48"/><path class="cls-14" d="M417.17,63.73c-1.76-1.82-4.62-4.74-8.09-4.74a7.61,7.61,0,0,0-5.59,2.37"/><path class="cls-14" d="M416,56.67c-2.49-1.22-6.63-3-10.1-3A7.9,7.9,0,0,0,400,56"/><path class="cls-14" d="M408,59.09a2.61,2.61,0,1,0,4,.63"/><path class="cls-14" d="M418.72,82.37c1.28,0,2.83,3,5.38,3"/><path class="cls-14" d="M424.11,95.41c-.82,0-1.55-.64-3.19-.64h-6.48"/><path class="cls-14" d="M424.11,99.84c-3.83,0-8-2.37-8-4.74"/><path class="cls-14" d="M424.11,112.93c-4.74,0-7.54-.73-9.67-3.77S403.31,101.61,401,96s-5.49-13.68-6.58-21.8"/><rect class="cls-14" x="369.95" y="19.59" width="22.26" height="72" rx="10.39" ry="10.39" transform="translate(766.01 67.53) rotate(173.47)"/><path class="cls-14" d="M389.31,29.64c0-16.27,18.65-33,34.79-28V35c0,2.19-14.72,15.48-32.41,15.48"/><path class="cls-14" d="M416.08,92.49c2.55-.85,3.74-1.34,5.34-1.34s1.47.67,2.69.67,1.85-.67,2.69-.67a21.57,21.57,0,0,1,5.34,1.34"/><path class="cls-15" d="M460.61,184.45c-2-21.75-11.66-27.16-31.28-27.16-21.1,0-28.7,7.94-31.28,27.16Z"/><polyline class="cls-15" points="429.65 242.64 421.6 242.64 421.6 195.63 400.2 192.1 400.2 189.24 429.65 189.24"/><polyline class="cls-15" points="429.65 242.64 437.71 242.64 437.71 195.63 459.11 192.1 459.11 189.24 429.65 189.24"/><polyline class="cls-15" points="460.61 184.45 465.2 230.54 437.71 242.64"/><path class="cls-15" d="M461.39,197.5c-10,0-20.24,8.61-20.24,20.32v23.09"/><polyline class="cls-15" points="398.04 184.45 393.58 230.54 421.07 242.64"/><path class="cls-15" d="M397.38,197.5c10,0,20.24,8.61,20.24,20.32v23.09"/><line class="cls-15" x1="431.7" y1="181.84" x2="434.95" y2="181.84"/><line class="cls-15" x1="425.49" y1="181.84" x2="428.75" y2="181.84"/><line class="cls-15" x1="396.13" y1="179.25" x2="396.13" y2="136.97"/><path class="cls-15" d="M392.52,131.84l1.86,4.81h3.26c2.95-2.95,15.36-4.19,15.36-4.19V130.6l-15.36-1.24Z"/><polyline class="cls-15" points="393.58 230.54 389.96 225.14 394.53 179.25 398.92 179.25"/><polyline class="cls-15" points="465.2 230.54 469.1 225.14 464.53 179.25 460.14 179.25"/><path class="cls-15" d="M442.44,240c0-9.46,2.33-30.71,10.39-30.71s12.31,20.56,12.31,20.56"/><path class="cls-15" d="M417.14,240c0-9.46-2.33-30.71-10.39-30.71s-12.31,20.56-12.31,20.56"/></svg>