<svg id="Layer_1" data-name="Layer 1" xmlns="http://www.w3.org/2000/svg" viewBox="0 0 489.83 340.52"><defs><style>.cls-1,.cls-3,.cls-4,.cls-5,.cls-7,.cls-8,.cls-9{fill:none;}.cls-1,.cls-2,.cls-3,.cls-8,.cls-9{stroke:#231f20;}.cls-1,.cls-2,.cls-5,.cls-7,.cls-9{stroke-linecap:round;}.cls-1,.cls-2,.cls-3,.cls-5{stroke-linejoin:round;}.cls-1,.cls-2,.cls-3,.cls-4,.cls-5,.cls-7,.cls-8,.cls-9{stroke-width:0.75px;}.cls-2{fill:#fff;}.cls-4,.cls-5,.cls-7{stroke:#000;}.cls-4,.cls-7,.cls-8,.cls-9{stroke-miterlimit:10;}.cls-6{fill:#231f20;}</style></defs><title>Artboard 1</title><path class="cls-1" d="M238.09,28.22a21.8,21.8,0,1,1-13.35.14"/><path class="cls-2" d="M219.64,22.62a12,12,0,0,1,24,0v2.82h-24V22.62"/><circle class="cls-1" cx="231.63" cy="18.02" r="2.79"/><circle class="cls-1" cx="231.63" cy="18.02" r="0.9"/><circle class="cls-1" cx="237.17" cy="21.3" r="1.98"/><line class="cls-1" x1="230.28" y1="10.62" x2="230.28" y2="6"/><line class="cls-1" x1="232.35" y1="10.62" x2="232.35" y2="0.41"/><polyline class="cls-1" points="219.64 23.27 225.9 23.27 225.9 25.43"/><polyline class="cls-1" points="219.64 25.43 223 28.22 231.63 28.22"/><polyline class="cls-1" points="243.63 25.43 240.42 28.22 231.79 28.22"/><line class="cls-1" x1="223.75" y1="13.57" x2="239.14" y2="13.57"/><line class="cls-1" x1="222.18" y1="15.23" x2="226.91" y2="15.23"/><line class="cls-1" x1="236.23" y1="15.23" x2="240.96" y2="15.23"/><path class="cls-1" d="M235.84,50.8V47.12l5.05-.69a9.47,9.47,0,0,0-6.55-6.54l-.75,5.05h-3.69l-.69-5.05a9.47,9.47,0,0,0-6.54,6.55l5.05.75v3.69l-5.05.69a9.47,9.47,0,0,0,6.55,6.54L230,53h3.69l.69,5.05a9.47,9.47,0,0,0,6.54-6.55Z"/><circle class="cls-1" cx="231.79" cy="48.99" r="2.29"/><circle class="cls-1" cx="231.79" cy="48.99" r="12.39"/><path class="cls-1" d="M213.66,36.7a64,64,0,0,1,1.2,12.83,65.48,65.48,0,0,1-1,12.07"/><path class="cls-1" d="M249.36,36.7a64,64,0,0,0-1.2,12.83,65.48,65.48,0,0,0,1,12.07"/><path class="cls-1" d="M244.08,31.35a64,64,0,0,1-12.83,1.2,65.48,65.48,0,0,1-12.07-1"/><path class="cls-1" d="M244.08,66.93a64,64,0,0,0-12.83-1.2,65.48,65.48,0,0,0-12.07,1"/><line class="cls-1" x1="231.79" y1="36.6" x2="231.79" y2="32.54"/><line class="cls-1" x1="231.79" y1="65.73" x2="231.79" y2="61.61"/><line class="cls-1" x1="244.18" y1="48.99" x2="248.17" y2="48.99"/><line class="cls-1" x1="219.4" y1="48.99" x2="214.86" y2="48.99"/><polyline class="cls-1" points="239.95 25.43 239.95 23.27 243.63 23.27"/><circle class="cls-1" cx="219.77" cy="36.97" r="0.76"/><circle class="cls-1" cx="219.94" cy="61.01" r="0.76"/><circle class="cls-1" cx="243.81" cy="36.97" r="0.76"/><circle class="cls-1" cx="243.81" cy="61.01" r="0.76"/><polygon class="cls-1" points="151.04 144.15 135.85 130.75 132.16 134.44 145.68 149.51 151.04 144.15"/><path class="cls-2" d="M147.94,144.65h1.95a1.76,1.76,0,0,1,1.76,1.76v3.23a1.76,1.76,0,0,1-1.76,1.76h-1.95a0,0,0,0,1,0,0v-6.74A0,0,0,0,1,147.94,144.65Z" transform="translate(148.54 -62.56) rotate(45)"/><polygon class="cls-1" points="119.56 112.67 132.96 127.86 129.27 131.55 114.2 118.03 119.56 112.67"/><circle class="cls-2" cx="132.54" cy="131.13" r="5.22" transform="translate(-53.9 132.13) rotate(-45)"/><circle class="cls-2" cx="132.54" cy="131.13" r="3.12" transform="translate(-53.9 132.13) rotate(-45)"/><path class="cls-2" d="M113.84,110.56h1.95a1.76,1.76,0,0,1,1.76,1.76v3.23a1.76,1.76,0,0,1-1.76,1.76h-1.95a0,0,0,0,1,0,0v-6.74A0,0,0,0,1,113.84,110.56Z" transform="translate(116.94 276.29) rotate(-135)"/><path class="cls-1" d="M131.34,136.21,134,158.55A27.45,27.45,0,0,1,105.11,130l22.35,2.29"/><path class="cls-1" d="M105.11,130a28.56,28.56,0,0,1,5.4-15.2L114.2,118"/><path class="cls-1" d="M133.63,158.56a28.56,28.56,0,0,0,15.2-5.4l-3.19-3.69"/><circle class="cls-1" cx="124.99" cy="138.85" r="1.43" transform="translate(-61.58 129.05) rotate(-45)"/><circle class="cls-1" cx="120.81" cy="142.86" r="1.43" transform="translate(-65.63 127.27) rotate(-45)"/><circle class="cls-1" cx="123.11" cy="134.95" r="1.43" transform="translate(-47.15 68.77) rotate(-26.38)"/><circle class="cls-1" cx="166.41" cy="112.37" r="1.43" transform="translate(-32.6 85.66) rotate(-26.38)"/><circle class="cls-1" cx="162.84" cy="118.06" r="1.43" transform="translate(-35.5 84.66) rotate(-26.38)"/><circle class="cls-1" cx="151.43" cy="97.39" r="1.43" transform="translate(-3.11 189.77) rotate(-63.62)"/><circle class="cls-1" cx="145.79" cy="101.01" r="1.43" transform="translate(-9.49 186.73) rotate(-63.62)"/><circle class="cls-1" cx="117.6" cy="135.61" r="1.43" transform="translate(-48.01 66.39) rotate(-26.38)"/><circle class="cls-1" cx="128.82" cy="146.83" r="1.43" transform="translate(-51.83 72.54) rotate(-26.38)"/><circle class="cls-1" cx="128.83" cy="140.68" r="1.43" transform="translate(-54.44 193.58) rotate(-63.62)"/><path class="cls-1" d="M131.37,103.62a27.45,27.45,0,0,1,28.86,28.5"/><path class="cls-1" d="M160.23,132.12a28.56,28.56,0,0,1-5.4,15.2l-3.69-3.19"/><path class="cls-1" d="M131.72,103.61a28.56,28.56,0,0,0-15.2,5.4l3.19,3.69"/><polyline class="cls-1" points="148.03 108.27 163.74 92.3 160.32 88.88 131.37 103.62"/><polyline class="cls-1" points="155.63 115.87 171.6 100.16 175.02 103.58 160.27 132.52"/><path class="cls-1" d="M172.17,125.22l1.75,1.75a1.7,1.7,0,0,1,.2,2.11l-2.49,4L166,127.48l4-2.47A1.7,1.7,0,0,1,172.17,125.22Z"/><path class="cls-1" d="M134,126l-2.63-22.34a27.45,27.45,0,0,1,28.86,28.5l-22.35-2.29"/><polygon class="cls-2" points="145.8 137.01 163.79 140.92 170.22 134.49 164.59 128.85 161.29 132.23 146.62 130.76 145.8 137.01"/><line class="cls-1" x1="174.02" y1="127.31" x2="170.06" y2="131.26"/><line class="cls-1" x1="171.92" y1="125.21" x2="167.97" y2="129.17"/><polygon class="cls-2" points="156.07 103.19 160.78 107.9 140.65 129.21 134.46 123.03 156.07 103.19"/><path class="cls-1" d="M144.78,148.62a21.27,21.27,0,0,1-11.53,3.84"/><path class="cls-1" d="M120.38,113.6a21.28,21.28,0,0,1,11.73-3.8"/><path class="cls-1" d="M111.35,130.69a19.8,19.8,0,0,1,3.72-11.79"/><line class="cls-1" x1="146.16" y1="107.05" x2="162.32" y2="90.88"/><line class="cls-1" x1="156.74" y1="117.63" x2="172.91" y2="101.46"/><polyline class="cls-1" points="159.29 106.41 142.15 123.55 140.21 121.61 157.35 104.47"/><circle class="cls-1" cx="143.59" cy="142.12" r="1.01"/><circle class="cls-1" cx="120.85" cy="119.38" r="1.01"/><line class="cls-1" x1="172.82" y1="131.22" x2="167.89" y2="126.3"/><line class="cls-1" x1="161.29" y1="132.23" x2="163.79" y2="140.92"/><rect class="cls-1" x="164.18" y="129.97" width="7.91" height="2.02" transform="translate(194.42 342.48) rotate(-135)"/><path class="cls-1" d="M147.2,151.28a24.91,24.91,0,0,1-34.8-34.8"/><path class="cls-1" d="M341.79,7.89,343.17,1a.7.7,0,0,1,.69-.59h1.22a.7.7,0,0,1,.69.58L347,7.87"/><polyline class="cls-1" points="344.39 24.97 345.72 24.97 346.98 34.12 346.07 37.58 344.39 37.58"/><polyline class="cls-1" points="344.39 24.97 343.05 24.97 341.79 34.12 342.7 37.58 344.39 37.58"/><polyline class="cls-1" points="344.39 7.89 341.79 7.89 339.63 41.41"/><polyline class="cls-1" points="344.39 7.89 346.98 7.89 348.96 41.41"/><line class="cls-1" x1="341.79" y1="34.12" x2="346.98" y2="34.12"/><rect class="cls-1" x="339.59" y="41.41" width="9.38" height="21.2"/><path class="cls-1" d="M350.32,44.12h3a1.38,1.38,0,0,1,1.38,1.38v10a0,0,0,0,1,0,0h-5.79a0,0,0,0,1,0,0v-10A1.38,1.38,0,0,1,350.32,44.12Z"/><path class="cls-1" d="M354.73,48c.47-.19,16.83,0,16.83,0v8.22l-18.14,8"/><rect class="cls-1" x="371.56" y="45.34" width="2.43" height="13.26"/><line class="cls-1" x1="372.77" y1="45.34" x2="372.77" y2="26.66"/><line class="cls-1" x1="371.56" y1="26.66" x2="373.99" y2="26.66"/><line class="cls-1" x1="372.77" y1="26.66" x2="372.77" y2="21.9"/><rect class="cls-1" x="350.25" y="55.7" width="3.17" height="11.16"/><polyline class="cls-1" points="359.51 47.87 359.51 59.9 353.42 59.9"/><circle class="cls-1" cx="344.39" cy="45.71" r="2.05"/><polyline class="cls-1" points="343.09 47.3 343.09 59.9 345.69 59.9 345.69 47.3"/><circle class="cls-1" cx="344.39" cy="45.71" r="0.37"/><line class="cls-1" x1="348.94" y1="45.5" x2="354.73" y2="45.5"/><line class="cls-1" x1="371.56" y1="47.16" x2="373.99" y2="47.16"/><rect class="cls-1" x="349.85" y="67.04" width="3.96" height="3.83" rx="0.44" ry="0.44"/><line class="cls-1" x1="349.85" y1="68.45" x2="353.81" y2="68.45"/><polyline class="cls-1" points="369.06 47.92 369.06 53.88 364.86 55.7"/><path class="cls-1" d="M333.82,44.12h5.79a0,0,0,0,1,0,0v10a1.38,1.38,0,0,1-1.38,1.38h-3a1.38,1.38,0,0,1-1.38-1.38v-10A0,0,0,0,1,333.82,44.12Z" transform="translate(673.43 99.64) rotate(-180)"/><path class="cls-1" d="M333.82,48c-.47-.19-16.83,0-16.83,0v8.22l18.14,8"/><rect class="cls-1" x="314.56" y="45.34" width="2.43" height="13.26" transform="translate(631.55 103.93) rotate(-180)"/><line class="cls-1" x1="315.78" y1="45.34" x2="315.78" y2="26.66"/><line class="cls-1" x1="316.99" y1="26.66" x2="314.56" y2="26.66"/><line class="cls-1" x1="315.78" y1="26.66" x2="315.78" y2="21.9"/><rect class="cls-1" x="335.13" y="55.7" width="3.17" height="11.16" transform="translate(673.43 122.56) rotate(-180)"/><polyline class="cls-1" points="329.04 47.87 329.04 59.9 335.13 59.9"/><line class="cls-1" x1="339.61" y1="45.5" x2="333.82" y2="45.5"/><line class="cls-1" x1="316.99" y1="47.16" x2="314.56" y2="47.16"/><rect class="cls-1" x="319.88" y="46.33" width="2.43" height="1.6" transform="translate(642.2 94.25) rotate(-180)"/><line class="cls-1" x1="321.1" y1="46.33" x2="321.1" y2="27.65"/><line class="cls-1" x1="322.31" y1="27.65" x2="319.88" y2="27.65"/><line class="cls-1" x1="321.1" y1="27.65" x2="321.1" y2="22.89"/><rect class="cls-1" x="366.31" y="46.33" width="2.43" height="1.6" transform="translate(735.04 94.25) rotate(-180)"/><line class="cls-1" x1="367.52" y1="46.33" x2="367.52" y2="27.65"/><line class="cls-1" x1="368.73" y1="27.65" x2="366.31" y2="27.65"/><line class="cls-1" x1="367.52" y1="27.65" x2="367.52" y2="22.89"/><rect class="cls-1" x="334.74" y="67.04" width="3.96" height="3.83" rx="0.44" ry="0.44" transform="translate(673.43 137.92) rotate(-180)"/><line class="cls-1" x1="338.7" y1="68.45" x2="334.74" y2="68.45"/><polyline class="cls-1" points="319.49 47.92 319.49 53.88 323.69 55.7"/><circle class="cls-3" cx="238.66" cy="238.93" r="2"/><circle class="cls-3" cx="261.52" cy="238.93" r="2"/><line class="cls-3" x1="240.66" y1="238.93" x2="259.52" y2="238.93"/><polyline class="cls-3" points="238.66 236.93 244 229.22 246.97 224.93 252.87 224.93 261.52 236.93"/><line class="cls-3" x1="243.29" y1="238.72" x2="243.29" y2="230.24"/><line class="cls-3" x1="246.74" y1="238.77" x2="246.74" y2="225.22"/><line class="cls-3" x1="250.18" y1="238.82" x2="250.18" y2="225.42"/><line class="cls-3" x1="253.63" y1="238.87" x2="253.63" y2="225.98"/><line class="cls-3" x1="257.08" y1="238.93" x2="257.08" y2="231.03"/><path class="cls-3" d="M246.91,222.39c0-3.3,5.82-3.37,5.82,0V225h-5.82Z"/><path class="cls-3" d="M246,211.25c.09,1.61.82,6.4-1.32,7.14s-8.84,1.91-11.13.65-3-2.6-2.65-5,3.23-6.09,6.68-6.18S245.92,209.19,246,211.25Z"/><path class="cls-3" d="M253.69,211.25c-.09,1.61-.82,6.4,1.32,7.14s8.84,1.91,11.13.65,3-2.6,2.65-5-3.23-6.09-6.68-6.18S253.81,209.19,253.69,211.25Z"/><path class="cls-3" d="M246.78,207.12V182.73a3.52,3.52,0,0,1,3.52-3.52h0a3.1,3.1,0,0,1,3.1,3.1v24.8"/><line class="cls-1" x1="247.99" y1="216.79" x2="251.64" y2="216.79"/><line class="cls-1" x1="247.99" y1="213.72" x2="251.64" y2="213.72"/><line class="cls-1" x1="247.99" y1="210.65" x2="251.64" y2="210.65"/><path class="cls-3" d="M246.64,198.36c-4.18-2.39-11.71-2.78-16.67.62-7,4.77-14.89,35.29-14.89,44.77"/><path class="cls-3" d="M253.57,198.36c4.18-2.39,11.71-2.78,16.67.62,7,4.77,14.89,35.29,14.89,44.77"/><path class="cls-1" d="M250.18,207.27c-5.29,0-7.68-1.76-12.63-1.44s-8.2,5.15-11.66,10.94c-3.82,6.39-10.81,20-10.81,27,6.95,3.65,25.88,5.69,34,5.75,8.94.07,30-1.54,36.22-5.75,0-7-7-20.59-10.81-27-3.46-5.79-6.71-10.62-11.66-10.94s-7.34,1.44-12.63,1.44"/><path class="cls-1" d="M257.08,184.38c2.11,0,8.53.21,10.53,5.05"/><line class="cls-1" x1="265.43" y1="237.83" x2="271.09" y2="225.98"/><line class="cls-1" x1="256.43" y1="223.03" x2="267.55" y2="224.58"/><line class="cls-1" x1="234.68" y1="237.83" x2="229.02" y2="225.98"/><line class="cls-1" x1="243.68" y1="223.03" x2="232.56" y2="224.58"/><path class="cls-3" d="M247.27,181c-18.25,0-20.2,11.52-20.2,21.33"/><path class="cls-3" d="M253.42,181c18.25,0,20.2,11.52,20.2,21.33"/><polyline class="cls-1" points="239.79 240.93 242.54 243.68 249.81 243.68"/><polyline class="cls-1" points="260.14 240.93 257.39 243.68 250.12 243.68"/><path class="cls-1" d="M35.08,232.37l.1.31a4.61,4.61,0,0,0,1.58,2.26l.46.36.93-1.2-.6-.46a4.67,4.67,0,0,1-1.25-1.47h0"/><rect class="cls-1" x="37.41" y="230.78" width="4.46" height="2.79" transform="translate(-168.23 121.42) rotate(-52.26)"/><polygon class="cls-1" points="36.55 226.01 33.29 230.22 34.47 232.47 36.77 232.1 39.04 229.17 38.76 227.34 36.55 226.01"/><polyline class="cls-1" points="42.07 231.31 43.58 230.52 45.88 231.79 40.59 238.62 38.93 236.53 39.34 234.83"/><line class="cls-1" x1="47.26" y1="229.99" x2="39.3" y2="240.29"/><path class="cls-1" d="M38.92,227.79l.39,0a3.69,3.69,0,0,1,2.28.93l.46.36-.93,1.2-.6-.46a3.13,3.13,0,0,0-1.39-.75l-.08,0"/><circle class="cls-1" cx="29.42" cy="223.98" r="2.42"/><line class="cls-1" x1="31.84" y1="224.15" x2="27.66" y2="222.33"/><line class="cls-1" x1="31.23" y1="225.78" x2="27.05" y2="223.97"/><rect class="cls-2" x="38.25" y="188.43" width="14.97" height="18.58"/><polygon class="cls-2" points="53.22 191.54 53.22 207.01 67.56 207.01 65.98 196 53.22 191.54"/><polygon class="cls-2" points="38.25 191.54 38.25 207.01 28.33 207.01 28.47 196 38.25 191.54"/><rect class="cls-2" x="40.28" y="197.72" width="12.94" height="6.26"/><line class="cls-2" x1="49.36" y1="204.31" x2="49.36" y2="207.01"/><line class="cls-2" x1="49.36" y1="188.43" x2="49.36" y2="197.72"/><line class="cls-2" x1="45.49" y1="204.31" x2="45.49" y2="207.01"/><line class="cls-2" x1="45.49" y1="188.43" x2="45.49" y2="197.72"/><line class="cls-2" x1="41.87" y1="203.98" x2="41.87" y2="206.92"/><line class="cls-2" x1="41.87" y1="188.67" x2="41.87" y2="197.72"/><rect class="cls-2" x="59.63" y="198.41" width="5.14" height="3.46"/><polyline class="cls-1" points="38.25 206.92 38.25 208.55 42.55 209.51 43.38 212.25 50.67 212.25 52.3 208.62 55.9 207.01"/><rect class="cls-1" x="21.64" y="200.04" width="6.69" height="5.41"/><line class="cls-1" x1="43.03" y1="202.58" x2="51.15" y2="202.58"/><circle class="cls-1" cx="13.32" cy="203.27" r="2.35"/><rect class="cls-1" x="32.15" y="197.72" width="2.63" height="3.96"/><polygon class="cls-1" points="21.64 198.13 21.64 206.74 6.61 206.74 8.6 200.68 21.64 198.13"/><polyline class="cls-1" points="6.61 206.74 4.99 206.74 4.99 207.99 10.65 207.99 11.84 209.44 16.22 209.44 17.42 208.09 21.64 208.09 21.64 206.74"/><line class="cls-1" x1="12.68" y1="204.34" x2="4.82" y2="204.34"/><polyline class="cls-1" points="8.07 201.43 5.82 202.03 5.82 202.99 7.45 203.55"/><polyline class="cls-1" points="25.62 200.04 25.62 201.69 26.82 202.79 25.62 203.78 25.62 205.45"/><line class="cls-1" x1="26.82" y1="202.79" x2="28.38" y2="202.79"/><polyline class="cls-1" points="28.93 205.66 34.46 205.66 35.66 205.06 36.62 205.04 37.29 191.97"/><polyline class="cls-1" points="54.13 191.97 54.81 205.04 60.39 205.04 61.78 203.55 67.06 203.55"/><line class="cls-1" x1="30" y1="207.01" x2="31.83" y2="209.03"/><polyline class="cls-1" points="58.4 211.17 58.75 217.58 64.26 217.25 63.92 210.63"/><line class="cls-1" x1="4.99" y1="207.37" x2="0.38" y2="207.37"/><polyline class="cls-1" points="66.72 207.01 66.72 211.28 64.12 211.28"/><path class="cls-1" d="M51.6,210.38a2,2,0,1,1-3,2"/><path class="cls-1" d="M45.48,212.33a2,2,0,1,1-2.75-2.06"/><circle class="cls-1" cx="61.14" cy="210.63" r="2.78"/><circle class="cls-1" cx="61.94" cy="223.27" r="2.42"/><line class="cls-1" x1="59.12" y1="217.56" x2="59.56" y2="223.73"/><polyline class="cls-1" points="59.56 223.73 60.24 229.25 64.9 229.25 64.33 223.27 63.91 217.27"/><polygon class="cls-1" points="59.86 229.25 65.19 229.25 66.25 231.56 64.54 233.15 60.83 233.15 59.56 231.8 59.86 229.25"/><rect class="cls-1" x="60.67" y="234.06" width="4.46" height="2.79"/><rect class="cls-1" x="30.6" y="234.06" width="4.46" height="2.79"/><polyline class="cls-1" points="60.67 236.85 59.12 237.57 58.72 240.16 67.36 240.16 66.73 237.57 65.13 236.85"/><line class="cls-1" x1="56.45" y1="240.16" x2="69.47" y2="240.16"/><path class="cls-1" d="M65.8,232l.19.27a4.61,4.61,0,0,1,.83,2.63v.59H65.29v-.76a4.67,4.67,0,0,0-.4-1.89h0"/><path class="cls-1" d="M59.82,232.21l-.26.29a3.69,3.69,0,0,0-.66,2.37v.59h1.51v-.76a3.13,3.13,0,0,1,.26-1.55l.07,0"/><rect class="cls-1" x="51.03" y="234.06" width="4.46" height="2.79"/><polyline class="cls-1" points="51.03 236.85 49.48 237.57 49.08 240.16 57.72 240.16 57.08 237.57 55.49 236.85"/><line class="cls-1" x1="46.81" y1="240.16" x2="59.83" y2="240.16"/><path class="cls-1" d="M56.15,232l.19.27a4.61,4.61,0,0,1,.83,2.63v.59H55.65v-.76a4.67,4.67,0,0,0-.4-1.89h0"/><path class="cls-1" d="M50.18,232.21l-.26.29a3.69,3.69,0,0,0-.66,2.37v.59h1.51v-.76a3.13,3.13,0,0,1,.26-1.55l.07,0"/><line class="cls-1" x1="58.44" y1="211.33" x2="62.84" y2="208.44"/><line class="cls-1" x1="59.66" y1="212.85" x2="63.74" y2="210.16"/><line class="cls-1" x1="59.53" y1="223.44" x2="63.71" y2="221.63"/><line class="cls-1" x1="60.14" y1="225.07" x2="64.32" y2="223.26"/><circle class="cls-1" cx="54.3" cy="223.27" r="2.42"/><line class="cls-1" x1="51.89" y1="223.44" x2="56.07" y2="221.63"/><line class="cls-1" x1="52.63" y1="225.01" x2="56.68" y2="223.26"/><polyline class="cls-1" points="37.27 211.17 36.92 217.58 31.41 217.25 31.75 210.63"/><polyline class="cls-2" points="36.11 223.73 35.43 229.25 30.77 229.25 31.34 223.27 31.76 217.27"/><circle class="cls-1" cx="34.53" cy="210.63" r="2.78"/><circle class="cls-2" cx="33.73" cy="223.27" r="2.42"/><line class="cls-1" x1="36.55" y1="217.56" x2="36.11" y2="223.73"/><polygon class="cls-2" points="35.81 229.25 30.48 229.25 29.42 231.56 31.13 233.15 34.84 233.15 36.11 231.8 35.81 229.25"/><polygon class="cls-1" points="56.04 229.29 50.73 228.81 49.47 231.02 51.03 232.75 54.72 233.09 56.11 231.86 56.04 229.29"/><polyline class="cls-1" points="35 236.85 36.55 237.57 36.95 240.16 28.3 240.16 28.94 237.57 30.54 236.85"/><line class="cls-1" x1="39.22" y1="240.16" x2="26.2" y2="240.16"/><path class="cls-1" d="M29.87,232l-.19.27a4.61,4.61,0,0,0-.83,2.63v.59h1.51v-.76a4.67,4.67,0,0,1,.4-1.89h0"/><path class="cls-2" d="M35.85,232.21l.26.29a3.69,3.69,0,0,1,.66,2.37v.59H35.25v-.76a3.13,3.13,0,0,0-.26-1.55l-.07,0"/><line class="cls-1" x1="37.23" y1="211.33" x2="32.83" y2="208.44"/><line class="cls-1" x1="36.01" y1="212.85" x2="31.93" y2="210.16"/><line class="cls-1" x1="36.14" y1="223.44" x2="31.96" y2="221.63"/><line class="cls-1" x1="35.53" y1="225.07" x2="31.35" y2="223.26"/><line class="cls-1" x1="50.9" y1="228.81" x2="51.89" y2="223.27"/><line class="cls-1" x1="55.74" y1="228.81" x2="56.57" y2="224.17"/><polyline class="cls-1" points="41.87 213.42 37.07 215.54 58.6 215.54 52.1 213.42"/><line class="cls-1" x1="56.64" y1="223.73" x2="58.75" y2="217.58"/><line class="cls-1" x1="51.98" y1="222.53" x2="54.38" y2="215.54"/><line class="cls-1" x1="27.82" y1="225.78" x2="30.6" y2="227.99"/><line class="cls-1" x1="27.29" y1="222.86" x2="31.51" y2="214.11"/><circle class="cls-1" cx="127.61" cy="4.95" r="0.91"/><line class="cls-1" x1="127.76" y1="42.35" x2="124.53" y2="44.42"/><line class="cls-1" x1="127.76" y1="42.35" x2="130.99" y2="44.42"/><rect class="cls-1" x="124.38" y="47.42" width="6.46" height="2.44"/><line class="cls-1" x1="125" y1="49.87" x2="113.39" y2="49.87"/><line class="cls-1" x1="142.3" y1="49.87" x2="130.68" y2="49.87"/><path class="cls-1" d="M127.47,7.43c-11.93,0-18,6.31-18,19.18s5.73,31.58,5.73,31.58c2.39,2.39,9.11,4.6,12.31,4.6"/><path class="cls-1" d="M127.76,7.43c11.93,0,18,6.31,18,19.18s-5.73,31.58-5.73,31.58c-2.39,2.39-9.11,4.6-12.31,4.6"/><circle class="cls-1" cx="120.46" cy="34.1" r="4.84"/><circle class="cls-1" cx="134.9" cy="34.1" r="4.84"/><path class="cls-1" d="M134.9,41.32a7.22,7.22,0,1,1,7.22-7.22h2.74"/><path class="cls-1" d="M120.46,41.32a7.22,7.22,0,1,0-7.22-7.22h-2.73"/><circle class="cls-1" cx="134.9" cy="34.1" r="1.02"/><circle class="cls-1" cx="120.5" cy="34.1" r="1.02"/><line class="cls-1" x1="117.62" y1="30.24" x2="117.62" y2="37.74"/><line class="cls-1" x1="119.54" y1="29.33" x2="119.54" y2="38.67"/><line class="cls-1" x1="121.47" y1="29.33" x2="121.47" y2="38.67"/><line class="cls-1" x1="123.39" y1="30.24" x2="123.39" y2="37.74"/><line class="cls-1" x1="132.02" y1="30.24" x2="132.02" y2="37.74"/><line class="cls-1" x1="133.94" y1="29.33" x2="133.94" y2="38.67"/><line class="cls-1" x1="135.86" y1="29.33" x2="135.86" y2="38.67"/><line class="cls-1" x1="137.78" y1="30.24" x2="137.78" y2="37.74"/><path class="cls-1" d="M127.47.38c-2.34,0-2.6,4.57-4.74,5.14S107,7,107,27.41L105.1,28.5l.8,7,1.74.6c0,3.47,1.92,11.53,2.22,12.57l1.56,1.22,1.46,6.07h1.61"/><polyline class="cls-1" points="111.99 52.19 109.87 52.19 109.87 58.58 113.39 58.58 113.39 55.94"/><path class="cls-1" d="M127.84.38c2.34,0,2.6,4.57,4.74,5.14S148.31,7,148.31,27.41l1.89,1.09-.8,7-1.74.6c0,3.47-1.92,11.53-2.22,12.57l-1.56,1.22-1.46,6.07H140.8"/><polyline class="cls-1" points="143.32 52.19 145.44 52.19 145.44 58.58 141.92 58.58 141.92 55.94"/><path class="cls-1" d="M115.16,58.19l-1.77,6.34c3.37,3.37,10.89,4.88,14.37,4.88s12.11-2.54,14-4.88L140,58.19"/><line class="cls-1" x1="119.54" y1="64.82" x2="119.54" y2="70.88"/><line class="cls-1" x1="135.86" y1="64.82" x2="135.86" y2="70.88"/><line class="cls-1" x1="120.5" y1="53.4" x2="122.92" y2="62"/><line class="cls-1" x1="120.5" y1="53.4" x2="122.92" y2="62"/><line class="cls-1" x1="134.5" y1="53.4" x2="132.09" y2="62"/><line class="cls-1" x1="59.39" y1="20.67" x2="10.07" y2="20.67"/><rect class="cls-1" x="8.87" y="20.67" width="51.39" height="4.06"/><path class="cls-1" d="M8.87,20.67C11,6.54,17.23.7,34.56.7c16.12,0,24.08,4,25.7,20"/><path class="cls-1" d="M39.08,26.68c-1.71,0,9.26,8.8,11.85,8.8s4.22-7.91,2.6-7.91S40.55,26.68,39.08,26.68Z"/><path class="cls-1" d="M29.19,26.68c1.71,0-9.26,8.8-11.85,8.8s-4.22-7.91-2.6-7.91S27.72,26.68,29.19,26.68Z"/><path class="cls-1" d="M10.92,24.73c0,2.31.37,14.94,4.26,14.94s12.73-8.59,19.66-8.59"/><path class="cls-1" d="M58.51,24.73c0,2.31-.37,14.94-4.26,14.94s-12.73-8.59-19.66-8.59"/><path class="cls-1" d="M34.85,41.5c5.85,0,16.2,10,21.8,10s6,6.21,6,9.26-7.43,9.81-15.35,9.81S39,67,39,66.46H34.85"/><path class="cls-1" d="M34.85,41.5c-5.85,0-16.2,10-21.8,10s-6,6.21-6,9.26,7.43,9.81,15.35,9.81S30.7,67,30.7,66.46h4.14"/><path class="cls-1" d="M34.85,38.45c-4.44,0-9,7.46-10.06,7.46"/><path class="cls-1" d="M34.85,38.45c4.44,0,9,7.46,10.06,7.46"/><circle class="cls-1" cx="23.41" cy="63.52" r="4.51"/><circle class="cls-1" cx="23.41" cy="63.52" r="2.04"/><circle class="cls-1" cx="45.4" cy="63.52" r="2.04"/><circle class="cls-1" cx="45.4" cy="63.52" r="4.51"/><path class="cls-1" d="M30.69,66.46v-5l1.84-3.73A2.48,2.48,0,0,1,34.85,56h0"/><path class="cls-1" d="M39,66.46v-5l-1.84-3.73A2.46,2.46,0,0,0,34.85,56"/><path class="cls-1" d="M34.85,52.82c-3.71,0-5,2.23-5,3.61,0,2.75-4.61,2.57-6.4,2.57"/><path class="cls-1" d="M34.85,52.82c3.71,0,5,2.23,5,3.61,0,2.75,4.61,2.57,6.4,2.57"/><path class="cls-1" d="M10.68,24.83c0,4.22-2.48,12-6.5,14.94C1.34,41.88.38,43.83.38,47.12c0,4.18,4.62,9.7,6.73,9.7"/><path class="cls-1" d="M15.19,39.67c-3.65.73-4,2.56-4.26,3.29-2.37-2.37.54-10.76.54-10.76"/><path class="cls-1" d="M14.08,51.38c-.72-2.94-5.37-8.3-7-8.42"/><line class="cls-1" x1="6.35" y1="51.63" x2="9.26" y2="49.41"/><line class="cls-1" x1="5.07" y1="50.34" x2="7.98" y2="48.13"/><line class="cls-1" x1="3.78" y1="49.06" x2="6.7" y2="46.85"/><line class="cls-1" x1="2.5" y1="47.78" x2="5.42" y2="45.57"/><path class="cls-1" d="M58.72,24.83c0,4.22,2.48,12,6.5,14.94C68.05,41.88,69,43.83,69,47.12c0,4.18-4.62,9.7-6.73,9.7"/><path class="cls-1" d="M54.21,39.67c3.65.73,4,2.56,4.26,3.29,2.37-2.37-.54-10.76-.54-10.76"/><path class="cls-1" d="M55.31,51.38c.72-2.94,5.37-8.3,7-8.42"/><line class="cls-1" x1="63.05" y1="51.63" x2="60.14" y2="49.41"/><line class="cls-1" x1="64.33" y1="50.34" x2="61.42" y2="48.13"/><line class="cls-1" x1="65.61" y1="49.06" x2="62.7" y2="46.85"/><line class="cls-1" x1="66.89" y1="47.78" x2="63.98" y2="45.57"/><path class="cls-1" d="M8.87,24.73c-1.72,0-5.39,11.3-2.52,12.82"/><path class="cls-1" d="M60.53,24.73c1.72,0,5.39,11.3,2.52,12.82"/><path class="cls-1" d="M356.28,247.37a32.82,32.82,0,0,1,0-65.64h9v5.6h-6v5.21h17.84v5.87H366.75v6.2h18.83V210H371.84v5.54h5.32v4.52H367.3v5.55H382v5.51H368.41v5.69H377v6.06l-7.48,3c-5.93,2.38-9.07,1.49-13.29,1.49-9.81,0-18.15-9.18-21.21-22"/><path class="cls-1" d="M334.48,222.48a47.39,47.39,0,0,1-.66-7.93,46.88,46.88,0,0,1,1-9.94"/><path class="cls-1" d="M364.31,236.83c-2,6.48-4.85,10.54-8,10.54-1.89,0-3.66-1.43-5.21-4-3.41-5.56-5.72-16.4-5.72-28.86q0-1.06,0-2.11"/><line class="cls-1" x1="323.46" y1="214.55" x2="371.84" y2="214.55"/><circle class="cls-1" cx="345.87" cy="200.26" r="8.77"/><circle class="cls-1" cx="345.87" cy="200.26" r="3.23"/><line class="cls-1" x1="356.28" y1="217.69" x2="356.28" y2="239.28"/><line class="cls-1" x1="356.28" y1="212.44" x2="356.28" y2="206.39"/><line class="cls-1" x1="368.33" y1="187.36" x2="356.28" y2="187.36"/><line class="cls-1" x1="376.2" y1="198.41" x2="380.45" y2="198.41"/><line class="cls-1" x1="359.55" y1="204.61" x2="387.65" y2="204.61"/><line class="cls-1" x1="375.76" y1="215.55" x2="381" y2="215.55"/><line class="cls-1" x1="361.69" y1="225.61" x2="385.84" y2="225.61"/><line class="cls-1" x1="345.87" y1="197.03" x2="345.87" y2="191.48"/><line class="cls-1" x1="343.08" y1="198.64" x2="338.27" y2="195.87"/><line class="cls-1" x1="343.08" y1="201.87" x2="338.27" y2="204.64"/><line class="cls-1" x1="345.87" y1="203.48" x2="345.87" y2="209.03"/><line class="cls-1" x1="348.67" y1="201.87" x2="353.47" y2="204.64"/><line class="cls-1" x1="348.67" y1="198.64" x2="353.47" y2="195.87"/><line class="cls-1" x1="376.05" y1="236.81" x2="382.92" y2="236.81"/><line class="cls-1" x1="382.09" y1="198.41" x2="382.48" y2="198.41"/><line class="cls-1" x1="370.18" y1="187.36" x2="370.62" y2="187.36"/><line class="cls-1" x1="382.73" y1="215.55" x2="383.25" y2="215.55"/><line class="cls-1" x1="359.28" y1="225.61" x2="359.81" y2="225.61"/><line class="cls-1" x1="384.37" y1="236.81" x2="384.9" y2="236.81"/><line class="cls-1" x1="387.56" y1="225.61" x2="388.09" y2="225.61"/><circle class="cls-1" cx="373.06" cy="182.46" r="1.27"/><circle class="cls-1" cx="386.55" cy="195.87" r="1.27"/><circle class="cls-1" cx="381" cy="222.48" r="1.27"/><circle class="cls-1" cx="369.61" cy="242.35" r="1.27"/><circle class="cls-1" cx="364.39" cy="217.69" r="1.27"/><circle class="cls-1" cx="385.84" cy="185.85" r="1.27"/><circle class="cls-1" cx="363.31" cy="196.79" r="1.62"/><circle class="cls-1" cx="389.71" cy="209.03" r="1.62"/><circle class="cls-1" cx="390.6" cy="233.05" r="1.62"/><circle class="cls-1" cx="361.17" cy="233.05" r="1.62"/><path class="cls-1" d="M344.91,118.62a3.72,3.72,0,0,0-2.91-1.23,5.19,5.19,0,0,0-3.27,1.23c.5,1.36,2.82,1.27,3.36,1.27A3.51,3.51,0,0,0,344.91,118.62Z"/><circle class="cls-1" cx="342.14" cy="118.64" r="1.13"/><path class="cls-1" d="M337.5,117.17c.64-.68,2.23-2.64,4.64-2.64a5.45,5.45,0,0,1,4.27,2.86"/><path class="cls-1" d="M338.37,121.3a5.45,5.45,0,0,0,3.59,1.32c1.73,0,2.55-.41,3-.86"/><path class="cls-1" d="M341.64,106.48a7.51,7.51,0,0,1,4.1-2.14c1.4,0,1.95.45,3.86.45"/><path class="cls-1" d="M347.23,116c0-.7,1.32-1.43,2.36-1.43s2.36.82,2.36,1.43"/><path class="cls-1" d="M346.14,120.8c0-.68.91-2.41,3.5-2.41"/><path class="cls-1" d="M344,127.62c.64.23,3,.45,3.64,0a2.52,2.52,0,0,0,2,.77"/><path class="cls-1" d="M346.8,129.08a6.63,6.63,0,0,0,2.84.82"/><path class="cls-1" d="M345.32,123.44c-.73.59-2,1.87-2,3.09"/><path class="cls-1" d="M349.59,99.62c-5.59,0-14.82,7.59-14.82,14.68-1.86,0-14.55-1.34-18.28-3.5-1.88-1.09-1.13,1.65-.86,2.36.77,2.08,8.41,12.59,19.14,12.59,0,2.23,5.73,10.46,14.87,10.32"/><path class="cls-1" d="M334.64,118.85c-2.77-3.27-13.73-3.46-16-5.32"/><path class="cls-1" d="M339,134.17c1.59,2.26,4.36,6.14,10.64,6.14"/><path class="cls-1" d="M360.28,134.17c-1.59,2.26-4.36,6.14-10.64,6.14"/><path class="cls-1" d="M336.32,134.17c-5.14.32-15.37,7.9-15.37,17.77h28.69v-6.68l-2.84-3.38a10.36,10.36,0,0,1-8.43-3.58c-1.14-1-3.13-11-3.13-11"/><path class="cls-1" d="M338.37,138.31a28.57,28.57,0,0,1,3.14,13.63"/><path class="cls-1" d="M354.28,118.62a3.72,3.72,0,0,1,2.91-1.23,5.19,5.19,0,0,1,3.27,1.23c-.5,1.36-2.82,1.27-3.36,1.27A3.51,3.51,0,0,1,354.28,118.62Z"/><circle class="cls-1" cx="357.05" cy="118.64" r="1.13"/><path class="cls-1" d="M361.69,117.17c-.64-.68-2.23-2.64-4.64-2.64a5.45,5.45,0,0,0-4.27,2.86"/><path class="cls-1" d="M360.82,121.3a5.45,5.45,0,0,1-3.59,1.32c-1.73,0-2.55-.41-3-.86"/><path class="cls-1" d="M357.55,106.48a7.51,7.51,0,0,0-4.1-2.14c-1.4,0-1.95.45-3.86.45"/><path class="cls-1" d="M343.27,109a2.71,2.71,0,0,1,2.46-1.07c1.4,0,1.95.45,3.86.45"/><path class="cls-1" d="M355.87,109a2.71,2.71,0,0,0-2.46-1.07c-1.4,0-1.95.45-3.86.45"/><path class="cls-1" d="M352,116c0-.7-1.32-1.43-2.36-1.43s-2.36.82-2.36,1.43"/><path class="cls-1" d="M353,120.64c0-.68-.91-2.25-3.5-2.25"/><path class="cls-1" d="M355.19,127.62c-.64.23-3,.45-3.64,0a2.52,2.52,0,0,1-2,.77"/><path class="cls-1" d="M352.39,129.08a6.63,6.63,0,0,1-2.84.82"/><path class="cls-1" d="M353.87,123.44c.73.59,2,1.87,2,3.09"/><path class="cls-1" d="M349.59,99.62c5.59,0,14.82,7.59,14.82,14.68,1.86,0,14.55-1.34,18.28-3.5,1.88-1.09,1.13,1.65.86,2.36-.77,2.08-8.41,12.59-19.14,12.59,0,2.23-5.73,10.46-14.87,10.32"/><path class="cls-1" d="M364.55,118.85c2.77-3.27,13.73-3.46,16-5.32"/><path class="cls-1" d="M362.87,134.17c5.14.32,15.37,7.9,15.37,17.77H349.55v-6.68l2.84-3.38a10.36,10.36,0,0,0,8.43-3.58c1.14-1,3.13-11,3.13-11"/><path class="cls-1" d="M360.82,138.31a28.57,28.57,0,0,0-3.14,13.63"/><path class="cls-1" d="M346.41,122.11s2.2-.25,2.2.43,2.11.73,2.11,0,1.8-.57,2.16-.57"/><path class="cls-1" d="M347.89,113.53c-1.34-.25-3.43-2.49-3.34-4s-2.89-3.89-3.73-4.14"/><path class="cls-1" d="M351.36,113.53c1.34-.25,3.43-2.49,3.34-4s2.89-3.89,3.73-4.14"/><line class="cls-1" x1="349.59" y1="95.52" x2="349.59" y2="99.62"/><line class="cls-1" x1="353.57" y1="100.59" x2="355.41" y2="96.84"/><line class="cls-1" x1="357.55" y1="102.99" x2="360.19" y2="99.93"/><line class="cls-1" x1="360.46" y1="105.67" x2="363.96" y2="104.12"/><line class="cls-1" x1="345.62" y1="100.59" x2="343.78" y2="96.84"/><line class="cls-1" x1="341.64" y1="102.99" x2="339" y2="99.93"/><line class="cls-1" x1="338.73" y1="105.67" x2="335.23" y2="104.12"/><path class="cls-1" d="M340.6,144.26c1.6.62,7,1,9,1"/><path class="cls-1" d="M358.32,144.26c-1.6.62-7,1-9,1"/><path class="cls-4" d="M244.82,158.88c-26.94,0-33.22-20.83-33.82-27.25a.15.15,0,0,1,.29-.07c.78,2,2.56,6.46,4,7C214.11,137,211,127.7,211,123.93c0-2.65-.17-13,4-17.39a.15.15,0,0,1,.25.16c-3.34,9.38-.21,19.41,5,22.95-.93-1.39-3.62-7.61-3.62-16.52,0-8.61,8.84-20.85,13.7-22.59a.15.15,0,0,1,.16.24c-11.07,12.82-1.48,23.43,2.13,29.37-7.79,16.33-2.33,29.07,10.14,35.13.93-.37.25-12.12.25-12.12l-4.49,4.44a.07.07,0,0,1-.12-.08l3.06-6.89-8.61-1.47a.07.07,0,0,1,0-.14l8.79-1.42-2.51-8a.07.07,0,0,1,.13-.06l4,6,1.67-46.91"/><path class="cls-4" d="M244.82,158.88c26.94,0,33.22-20.83,33.82-27.25a.15.15,0,0,0-.29-.07c-.78,2-2.56,6.46-4,7,1.21-1.58,4.36-10.86,4.36-14.62,0-2.65.17-13-4-17.39a.15.15,0,0,0-.25.16c3.34,9.38.21,19.41-5,22.95.93-1.39,3.62-7.61,3.62-16.52,0-8.61-8.84-20.85-13.7-22.59a.15.15,0,0,0-.16.24c11.07,12.82,1.48,23.43-2.13,29.37,7.79,16.33,2.33,29.07-10.14,35.13-.93-.37-.25-12.12-.25-12.12l4.49,4.44a.07.07,0,0,0,.12-.08l-3.06-6.89,8.61-1.47a.07.07,0,0,0,0-.14l-8.79-1.42,2.51-8a.07.07,0,0,0-.13-.06l-4,6-1.67-46.91"/><path class="cls-5" d="M39.18,118.14A4.38,4.38,0,0,1,42.67,116,5.33,5.33,0,0,1,46,117.07"/><path class="cls-5" d="M41.36,116.28a1.28,1.28,0,1,0,1.71-.27l-.38,0A3.48,3.48,0,0,0,41.36,116.28Z"/><path class="cls-5" d="M35.22,127.73a4.31,4.31,0,0,0,1.11-.57,2.07,2.07,0,0,1,1-.32c1,0,.6.78.11.78s-.82-.39-1.27-.39"/><path class="cls-5" d="M35.28,132c.31-.2.43-.31.65-.31a30.63,30.63,0,0,0,4.55,1.07"/><path class="cls-5" d="M35.28,135a8.17,8.17,0,0,0,2.1-.13"/><path class="cls-5" d="M35.28,132.81a17.08,17.08,0,0,1,3.09,0"/><line class="cls-5" x1="35.28" y1="139.97" x2="35.28" y2="139.1"/><path class="cls-5" d="M36.33,119.89v3.4c0,.49,0,.76.49.94"/><path class="cls-5" d="M35.28,141.28c8.16,0,8.66-5,10.68-8,1.48-2.22,4.2-5.56,4.2-8.47"/><path class="cls-5" d="M20.73,111.52c3.18,2.1,14,2.06,14,2.06,4.93,0,8.91-5.19,9.54-6.49.31,1.21-.58,4.66-2.46,6.36,2.37,0,7.25-1.21,8.15-1.93,1,1.84-1,12.17.21,13.3,1.7,1.44,4.66.44,6.18-.59-1.12-.85-2.32-6.62-2.32-9.4s.6-4.78.6-6.93"/><path class="cls-5" d="M20.73,111.52c-1,1.84,1,10.58-.19,12.65-1.7,1.44-4.66.44-6.18-.59,1.12-.85,2.29-6,2.29-8.75s-.6-4.78-.6-6.93"/><path class="cls-5" d="M31.37,118.14A4.38,4.38,0,0,0,27.88,116a5.33,5.33,0,0,0-3.29,1.07"/><path class="cls-5" d="M29.19,116.28a1.28,1.28,0,1,1-1.71-.27l.38,0A3.48,3.48,0,0,1,29.19,116.28Z"/><path class="cls-5" d="M35.22,127.73c-.21,0-.54-.31-1-.57a2.07,2.07,0,0,0-1-.32c-1,0-.6.78-.11.78s.82-.39,1.27-.39"/><path class="cls-5" d="M35.27,132c-.31-.2-.43-.31-.65-.31a30.63,30.63,0,0,1-4.55,1.07"/><path class="cls-5" d="M35.27,135a8.17,8.17,0,0,1-2.1-.13"/><path class="cls-5" d="M35.27,132.81a17.08,17.08,0,0,0-3.09,0"/><line class="cls-5" x1="35.27" y1="139.97" x2="35.27" y2="139.1"/><path class="cls-5" d="M34.22,119.89v3.4c0,.49,0,.76-.49.94"/><path class="cls-5" d="M35.27,141.28c-8.16,0-8.66-5-10.68-8-1.48-2.22-4.05-6-4.05-9.12"/><path class="cls-5" d="M16,107.9a19.29,19.29,0,1,1,38.58,0"/><circle cx="28.19" cy="117.17" r="0.44"/><circle cx="42.36" cy="117.17" r="0.44"/><path class="cls-5" d="M26.54,136.88c0,2.89-6.55,9.16-16.14,9.16s-10,7-10,12.81"/><path class="cls-5" d="M44,136.88c0,2.89,6.55,9.16,16.14,9.16s10,7,10,12.81"/><line class="cls-5" x1="24.59" y1="140.43" x2="34.44" y2="155.26"/><line class="cls-5" x1="45.21" y1="139.54" x2="32.58" y2="157.97"/><path class="cls-1" d="M460.56,216.92a7.67,7.67,0,0,0-4.47-1.82c-1.36,0-3.43,1.82-3.43,1.82a5.64,5.64,0,0,0,7.91,0Z"/><path class="cls-1" d="M457.89,215.42a1.71,1.71,0,1,1-3.34.19,3.56,3.56,0,0,1,1.57-.51A5.57,5.57,0,0,1,457.89,215.42Z"/><path class="cls-1" d="M465.46,248.85c-11.28,0-14.92-14.35-17.52-20s-2.2-20.89-2.2-26.48,3.81-16.85,19.72-16.85"/><path class="cls-1" d="M458.31,235.2s4.23-.24,5-.24.88.48,2.12.48"/><path class="cls-1" d="M465.42,237.84a7.83,7.83,0,0,1-3.05-.8"/><path class="cls-1" d="M465.5,234c-2.18,0-5.11-3-5.11-3s-3.67,3-3.67,6.07c0-1.52-3.35-9.58-6.15-12.3s-3-6.93-3-8.28,1.76-4.69,1.76-6.53a10,10,0,0,0-1.43-5.11c-1.07-2-.89-9.49-.16-10.22"/><path class="cls-1" d="M460.9,226.1a1.55,1.55,0,0,0,1.5,1.6c.9,0,3.05.16,3.05,1.2v3.59"/><path class="cls-1" d="M460.87,237.44a5,5,0,0,1,1,3c0,1.84-2,1.67-2,7"/><path class="cls-1" d="M461.88,223.71c.82,0,3.05,1.84,3.05,2.4"/><path class="cls-1" d="M445.71,213.6c0-.66-2.44-3-2.83,0s-1,3.23-1,6.79,3.27,8.51,4.39,8.51,1.68,0,1.68,0"/><path class="cls-1" d="M465.58,210.83v-6.29c0-1.52-4.68-7.3-4.68-10.62a77.48,77.48,0,0,1,1-8.17"/><path class="cls-1" d="M453.2,209.89c.64,0,3.91,4.07,5.59,4.07s3.43,2.58,3.43,3.89-9,5.22-9,6.1c0-2.16-2.64-7.13-3.83-7.13C449.37,215.24,452,209.89,453.2,209.89Z"/><path class="cls-1" d="M470.35,216.92a7.67,7.67,0,0,1,4.47-1.82c1.36,0,3.43,1.82,3.43,1.82a5.64,5.64,0,0,1-7.91,0Z"/><path class="cls-1" d="M473,215.42a1.71,1.71,0,1,0,3.34.19,3.56,3.56,0,0,0-1.57-.51A5.57,5.57,0,0,0,473,215.42Z"/><path class="cls-1" d="M465.46,248.85c11.28,0,14.92-14.35,17.52-20s2.2-20.89,2.2-26.48-3.81-16.85-19.72-16.85"/><path class="cls-1" d="M472.6,235.2s-4.23-.24-5-.24-.88.48-2.12.48"/><path class="cls-1" d="M465.5,237.84a7.83,7.83,0,0,0,3.05-.8"/><path class="cls-1" d="M470,226.1a1.55,1.55,0,0,1-1.5,1.6c-.9,0-3.05.16-3.05,1.2v3.59"/><path class="cls-1" d="M470,237.44a5,5,0,0,0-1,3c0,1.84,2,1.67,2,7"/><path class="cls-1" d="M469,223.71c-.82,0-3.05,1.84-3.05,2.4"/><path class="cls-1" d="M465.58,218.86V204.54c0-1.52,5-8.18,5-10.62,0-1.92-1.91-8.17-1.91-8.17"/><path class="cls-1" d="M477.71,209.89c-.64,0-3.91,4.07-5.59,4.07s-3.43,2.58-3.43,3.89,9,5.22,9,6.1c0-2.16,2.64-7.13,3.83-7.13C481.55,215.24,478.91,209.89,477.71,209.89Z"/><path class="cls-1" d="M460.56,223.15c-1.21.4-4.33,5.75-4.33,5.75s-3.56-3.9-4.58-2.87l1.55-2.08"/><rect class="cls-1" x="464.26" y="219.41" width="2.63" height="2.63" transform="translate(292.44 -264.56) rotate(45)"/><rect class="cls-2" x="464.67" y="215.43" width="1.82" height="1.82" transform="translate(289.34 -265.85) rotate(45)"/><rect class="cls-2" x="464.67" y="211.21" width="1.82" height="1.82" transform="translate(286.35 -267.08) rotate(45)"/><path class="cls-2" d="M465.42,239.28c-1,0-.8,2.23-.8,3.19s-1.92,1.36-1.92,2.56,1.36,2,1.36,2c0-1-.32-2.64,1.36-2.64"/><path class="cls-2" d="M465.65,239.28c1,0,.8,2.23.8,3.19s1.92,1.36,1.92,2.56-1.36,2-1.36,2c0-1,.32-2.64-1.36-2.64"/><path class="cls-1" d="M465.65,198.28a6.47,6.47,0,0,1-1.89-3.48c0-.49,1.89-6.74,1.89-6.74"/><path class="cls-1" d="M465.65,198.28a6.47,6.47,0,0,0,1.89-3.48c0-.49-1.89-6.74-1.89-6.74"/><path class="cls-1" d="M446.5,197.64c-3.28-.48-5-6-5-8.76,0,1.27,3.66,4.76,6.77,4.76"/><path class="cls-2" d="M447.16,206.57c1.08.81,1.44,5.6,0,6.32l-3.83-4.54C444.76,208.58,447.16,206.57,447.16,206.57Z"/><path class="cls-1" d="M463,185.58c0-2.39,2-5.71,2-5.71s2.47,3.8,2.47,5.73"/><path class="cls-1" d="M458.79,214l2.48-1.85c-2.16-1.43-3.32-5.57-3.32-8s-3.66-1.22-4.51,2.42-5.27-1.63-2.48-6.34"/><path class="cls-1" d="M457.94,188.34c-2.39,1.18-7.9,5.19-7.9,8.9,0,3,1.92,3.79,3.23,3.79s5-2.31,5-4.67S457.59,189.82,457.94,188.34Z"/><path class="cls-2" d="M451.77,197.64c0-3.13.24-8.49,1.78-10,0,1.3,1.49,3.33,2.84,4.15C456.4,193.25,455.15,197.64,451.77,197.64Z"/><path class="cls-1" d="M465.47,234c2.18,0,5.11-3,5.11-3s3.67,3,3.67,6.07c0-1.52,3.35-9.58,6.15-12.3s3-6.93,3-8.28-1.76-4.69-1.76-6.53a10,10,0,0,1,1.43-5.11c1.07-2,.89-9.49.16-10.22"/><path class="cls-1" d="M485.25,213.6c0-.66,2.44-3,2.83,0s1,3.23,1,6.79-3.27,8.51-4.39,8.51-1.68,0-1.68,0"/><path class="cls-1" d="M470.41,223.15c1.21.4,4.33,5.75,4.33,5.75s3.56-3.9,4.58-2.87l-1.55-2.08"/><path class="cls-1" d="M484.46,197.64c3.28-.48,5-6,5-8.76,0,1.27-3.66,4.76-6.77,4.76"/><path class="cls-2" d="M483.81,206.57c-1.08.81-1.44,5.6,0,6.32l3.83-4.54C486.21,208.58,483.81,206.57,483.81,206.57Z"/><path class="cls-1" d="M472.18,214l-2.48-1.85c2.16-1.43,3.32-5.57,3.32-8s3.66-1.22,4.51,2.42,5.27-1.63,2.48-6.34"/><path class="cls-1" d="M473,188.34c2.39,1.18,7.9,5.19,7.9,8.9,0,3-1.92,3.79-3.23,3.79s-5-2.31-5-4.67S473.38,189.82,473,188.34Z"/><path class="cls-2" d="M479.2,197.64c0-3.13-.24-8.49-1.78-10,0,1.3-1.49,3.33-2.84,4.15C474.57,193.25,475.82,197.64,479.2,197.64Z"/><circle class="cls-6" cx="456.24" cy="216.08" r="0.7"/><circle class="cls-6" cx="474.68" cy="216.08" r="0.7"/><path class="cls-7" d="M142.56,179.17l-6.11,6.64c2.17,1.42,2.88,7.5,3,9a.06.06,0,0,1-.12,0c-1.37-2.39-5.68-5.43-6.05-5.43l-4.11,4.45c10.83,3,12.61,26.43,1.06,26.43-11.11,0-19-18.32-6.09-34.45a.24.24,0,0,0-.29-.36c-6.58,3.72-15.66,15.95-15.66,28.86a35,35,0,0,0,34.33,35.27"/><path class="cls-7" d="M142.56,179.17l6.11,6.64c-2.17,1.42-2.88,7.5-3,9a.06.06,0,0,0,.12,0c1.37-2.39,5.68-5.43,6.05-5.43l4.11,4.45c-10.83,3-12.61,26.43-1.06,26.43,11.11,0,19-18.32,6.09-34.45a.24.24,0,0,1,.29-.36c6.58,3.72,15.66,15.95,15.66,28.86a35,35,0,0,1-34.33,35.27"/><path class="cls-5" d="M477,37.81V33.44h-12a10.77,10.77,0,0,0-1.6-3.69l8.57-8.57-3.09-3.09-8.61,8.61a10.76,10.76,0,0,0-3.65-1.49V13h-4.37v12.2a10.76,10.76,0,0,0-3.65,1.49l-8.61-8.61-3.09,3.09,8.57,8.57a10.77,10.77,0,0,0-1.6,3.69h-12v4.37h12a10.76,10.76,0,0,0,1.52,3.86l-8.4,8.4,3.09,3.09,8.36-8.36a10.77,10.77,0,0,0,3.9,1.65V58.23h4.37V46.45a10.77,10.77,0,0,0,3.9-1.65l8.36,8.36,3.09-3.09-8.4-8.4A10.76,10.76,0,0,0,465,37.81Z"/><path class="cls-5" d="M438.73,14.53,436.19,12m14.29-5.89v0A29.84,29.84,0,0,0,436.19,12m2.54,2.54a26.29,26.29,0,0,1,11.75-4.84"/><path class="cls-5" d="M428.5,31.9h-3.6m5.94-14.27,2.54,2.54-2.54-2.54A29.84,29.84,0,0,0,424.9,31.9m3.6,0a26.29,26.29,0,0,1,4.89-11.73"/><path class="cls-5" d="M433.54,51.43,431,54m-5.89-14.29h0A29.84,29.84,0,0,0,431,54m2.54-2.54a26.29,26.29,0,0,1-4.84-11.75"/><path class="cls-5" d="M450.92,61.67v3.6m-14.27-5.94,2.54-2.54-2.54,2.54a29.84,29.84,0,0,0,14.27,5.94m0-3.6a26.29,26.29,0,0,1-11.73-4.89"/><path class="cls-5" d="M470.44,56.62,473,59.16m-14.29,5.89v0A29.84,29.84,0,0,0,473,59.16m-2.54-2.54a26.29,26.29,0,0,1-11.75,4.84"/><path class="cls-5" d="M480.68,39.24h3.6m-5.94,14.27L475.8,51l2.54,2.54a29.84,29.84,0,0,0,5.94-14.27m-3.6,0A26.29,26.29,0,0,1,475.79,51"/><path class="cls-5" d="M475.63,19.72l2.54-2.54m5.89,14.29h0a29.84,29.84,0,0,0-5.89-14.29m-2.54,2.54a26.29,26.29,0,0,1,4.84,11.75"/><path class="cls-5" d="M458.26,9.48V5.88m14.27,5.94L470,14.36l2.54-2.54a29.84,29.84,0,0,0-14.27-5.94m0,3.6A26.29,26.29,0,0,1,470,14.37"/><circle class="cls-5" cx="454.37" cy="35.63" r="32.69"/><circle class="cls-5" cx="454.37" cy="35.63" r="35.08"/><circle class="cls-1" cx="454.38" cy="113.35" r="2.69"/><path class="cls-1" d="M457.57,122.12a3.38,3.38,0,0,1,2.9-1.78,2.34,2.34,0,0,1,2,.89"/><path class="cls-1" d="M457.57,119c-.19.46.5.86.78.59a10.8,10.8,0,0,1,3.87-1.59c1.07,0,1.52.07,1.59.26-.14-.67-1.21-1.14-1.54-1.19S457.8,118.42,457.57,119Z"/><circle class="cls-1" cx="460.12" cy="121.33" r="0.92"/><path class="cls-1" d="M454.9,132.89c.38,0,.84-.22,1.12-.22s1.65.22,2.41.22"/><line class="cls-1" x1="455.93" y1="132.67" x2="455.93" y2="134.48"/><path class="cls-1" d="M454.9,134.6c1,0,3.46-.64,4.15-1.71"/><path class="cls-1" d="M454.9,129.2c.54,0,1-.64,1.5-.64"/><path class="cls-1" d="M457.3,127.56a1.07,1.07,0,0,1,.52,1,.59.59,0,0,1-.67.64"/><path class="cls-1" d="M456.47,121.33c-.43.43-.6,1.41-.6,2.93a5.15,5.15,0,0,0,.6,2.83"/><circle class="cls-1" cx="460.89" cy="126.76" r="0.59"/><path class="cls-1" d="M452.18,122.12a3.38,3.38,0,0,0-2.9-1.78,2.34,2.34,0,0,0-2,.89"/><path class="cls-1" d="M452.18,119c.19.46-.5.86-.78.59a10.8,10.8,0,0,0-3.87-1.59c-1.07,0-1.52.07-1.59.26.14-.67,1.21-1.14,1.54-1.19S451.94,118.42,452.18,119Z"/><circle class="cls-1" cx="449.62" cy="121.33" r="0.92"/><path class="cls-1" d="M454.9,131.71c-.19,0-.52-.35-1-.35a8.73,8.73,0,0,0-3.18,1.53"/><path class="cls-1" d="M454.91,131.71c.19,0,.52-.35,1-.35a8.73,8.73,0,0,1,3.18,1.53"/><path class="cls-1" d="M454.9,132.89c-.38,0-.9-.22-1.19-.22s-1.65.22-2.41.22"/><line class="cls-1" x1="453.81" y1="132.67" x2="453.81" y2="134.46"/><path class="cls-1" d="M454.9,134.6c-1,0-3.52-.64-4.21-1.71"/><path class="cls-1" d="M454.9,129.2c-.54,0-1.11-.64-1.56-.64"/><path class="cls-1" d="M452.44,127.56a1.07,1.07,0,0,0-.52,1,.59.59,0,0,0,.67.64"/><path class="cls-1" d="M453.27,121.33c.43.43.6,1.41.6,2.93a5.15,5.15,0,0,1-.6,2.83"/><circle class="cls-1" cx="448.85" cy="126.76" r="0.59"/><path class="cls-1" d="M456.27,111.45a16.75,16.75,0,0,1,4.77-.78c1,0,4.33,2.32,4.33,6.69s-.06,13.5-2.41,15.53-2.91,6.27-8.24,6.27"/><path class="cls-1" d="M456,111.19c.27-.13,1.6-1.24,1.6-1.24-.55-1-3.18-10.29-3.18-15.11a6.84,6.84,0,0,0,1.79-.23c0,3.55,7.87,13.05,9.2,14.57s.76,7,0,8.17"/><path class="cls-1" d="M472.66,92.08c-2,0-4.75,5.89-6,21.74s-3.47,31-5.66,33.86l2.24-.4c3.61-3.49,5.45-9.57,5.77-10.27.06-3.17-.06-4.82,0-5.32s6.46-6.63,6.46-10.35-1.9-6.38-3.68-7.08c-1.58-2.15-2.34-12.42.82-14.57.63-.32,1.14.51,1.27.89C473.93,100.57,474.75,92.08,472.66,92.08Z"/><path class="cls-1" d="M473.93,100.57c.89.63,15.53,12.29,15.53,23.38s-8.62,16.73-14.64,16.73-6.4-2-6.4-2"/><path class="cls-1" d="M473.45,92.65c-1,1.22-3.2,7.06-3.2,10s-1,21.81-1.43,23.5-2.78,15.59-6.33,18"/><path class="cls-1" d="M452.46,111.45a16.75,16.75,0,0,0-4.77-.78c-1,0-4.33,2.32-4.33,6.69s.06,13.5,2.41,15.53,3.28,6.27,9,6.27"/><path class="cls-1" d="M452.76,111.19c-.27-.13-1.6-1.24-1.6-1.24.55-1,3.22-10.29,3.22-15.11a7,7,0,0,1-1.82-.23c0,3.55-7.87,13.05-9.2,14.57s-.76,7,0,8.17"/><path class="cls-1" d="M436.07,92.08c2,0,4.75,5.89,6,21.74s3.47,31,5.66,33.86l-2.24-.4c-3.61-3.49-5.45-9.57-5.77-10.27-.06-3.17.06-4.82,0-5.32s-6.46-6.63-6.46-10.35,1.9-6.38,3.68-7.08c1.58-2.15,2.34-12.42-.82-14.57-.63-.32-1.14.51-1.27.89C434.8,100.57,434,92.08,436.07,92.08Z"/><path class="cls-1" d="M434.8,100.57c-.89.63-15.53,12.29-15.53,23.38s8.62,16.73,14.64,16.73,6.4-2,6.4-2"/><path class="cls-1" d="M435.28,92.65c1,1.22,3.2,7.06,3.2,10s1,21.81,1.43,23.5,2.78,15.59,6.33,18"/><path class="cls-1" d="M471.84,114.26a73.45,73.45,0,0,0-2.53,11.6,40.92,40.92,0,0,0-.25,5.83"/><path class="cls-1" d="M437,114.26a73.45,73.45,0,0,1,2.53,11.6,40.92,40.92,0,0,1,.25,5.83"/><path class="cls-1" d="M464,136.82c-1.33.63-6.63,2.34-7.88,5.7s-1.76,5.15-1.76,5.15"/><path class="cls-1" d="M454.41,158c4.12,0,18.95-7,30.42-7,3.38,0-16.67-8.74-17.77-9.14"/><path class="cls-1" d="M444.71,136.82c1.33.63,6.63,2.34,7.88,5.7s1.76,5.15,1.76,5.15"/><path class="cls-1" d="M454.41,158c-4.12,0-19-7-30.48-7-3.38,0,16.67-8.74,17.77-9.14"/><path class="cls-1" d="M452.86,94.69v-.48a.69.69,0,0,1,.69-.69H455a.69.69,0,0,1,.69.69v.41"/><path class="cls-1" d="M453.21,93.51V92a1,1,0,0,1,1-1h.11a1,1,0,0,1,1,1v1.55"/><circle class="cls-1" cx="454.29" cy="90.21" r="0.73"/><path class="cls-1" d="M458.71,309.16c1.06-1.1,2.79-2.86,4.88-2.86a4.59,4.59,0,0,1,3.37,1.43"/><path class="cls-1" d="M459.44,304.9a15.6,15.6,0,0,1,6.09-1.83,4.76,4.76,0,0,1,3.56,1.43"/><path class="cls-1" d="M464.26,306.36a1.58,1.58,0,1,1-2.41.38"/><path class="cls-1" d="M457.77,320.4c-.77,0-1.71,1.82-3.25,1.82"/><path class="cls-1" d="M454.52,328.27a12.8,12.8,0,0,1,1.93-.39h3.91"/><path class="cls-1" d="M454.52,330.94c2.31,0,4.84-1.43,4.84-2.86"/><path class="cls-1" d="M454.52,338.83c2.86,0,4.55-.44,5.83-2.27s6.71-4.55,8.11-7.92a61.33,61.33,0,0,0,4-13.15"/><rect class="cls-1" x="473.76" y="282.57" width="13.95" height="43.43" rx="6.39" ry="6.39" transform="translate(37.69 -52.66) rotate(6.53)"/><path class="cls-1" d="M475.51,288.6c0-9.81-11.25-19.9-21-16.89v20.1c0,1.32,8.88,9.34,19.55,9.34"/><path class="cls-1" d="M450.34,309.16c-1.06-1.1-2.79-2.86-4.88-2.86a4.59,4.59,0,0,0-3.37,1.43"/><path class="cls-1" d="M449.61,304.9a15.6,15.6,0,0,0-6.09-1.83A4.76,4.76,0,0,0,440,304.5"/><path class="cls-1" d="M444.78,306.36a1.58,1.58,0,1,0,2.41.38"/><path class="cls-1" d="M451.28,320.4c.77,0,1.71,1.82,3.25,1.82"/><path class="cls-1" d="M454.52,328.27a12.8,12.8,0,0,0-1.93-.39h-3.91"/><path class="cls-1" d="M454.52,330.94c-2.31,0-4.84-1.43-4.84-2.86"/><path class="cls-1" d="M454.52,338.83c-2.86,0-4.55-.44-5.83-2.27s-6.71-4.55-8.11-7.92a54.87,54.87,0,0,1-4-13.15"/><rect class="cls-1" x="421.86" y="282.54" width="13.42" height="43.43" rx="6.27" ry="6.27" transform="translate(888.95 557.83) rotate(173.47)"/><path class="cls-1" d="M433.54,288.6c0-9.81,11.25-19.9,21-16.89v20.1c0,1.32-8.88,9.34-19.55,9.34"/><path class="cls-1" d="M449.68,326.51a10.09,10.09,0,0,1,3.22-.81c1,0,.89.4,1.62.4s1.12-.4,1.62-.4a13,13,0,0,1,3.22.81"/><path class="cls-1" d="M262.54,304c-1.2-13.31-7.14-16.62-19.14-16.62-12.91,0-17.56,4.86-19.14,16.62Z"/><polyline class="cls-1" points="243.6 339.66 238.67 339.66 238.67 310.89 225.58 308.73 225.58 306.98 243.6 306.98"/><polyline class="cls-1" points="243.6 339.66 248.53 339.66 248.53 310.89 261.62 308.73 261.62 306.98 243.6 306.98"/><polyline class="cls-1" points="262.54 304.05 265.35 332.25 248.53 339.66"/><path class="cls-1" d="M263,312a12.69,12.69,0,0,0-12.38,12.43V338.6"/><polyline class="cls-1" points="224.25 304.05 221.53 332.25 238.35 339.66"/><path class="cls-1" d="M223.86,312a12.69,12.69,0,0,1,12.38,12.43V338.6"/><line class="cls-1" x1="244.85" y1="302.45" x2="246.84" y2="302.45"/><line class="cls-1" x1="241.05" y1="302.45" x2="243.05" y2="302.45"/><line class="cls-1" x1="223.09" y1="300.87" x2="223.09" y2="275.01"/><path class="cls-1" d="M220.88,271.86,222,274.8h2c1.8-1.8,9.4-2.56,9.4-2.56V271.1l-9.4-.76Z"/><polyline class="cls-1" points="221.53 332.25 219.32 328.95 222.11 300.87 224.8 300.87"/><polyline class="cls-1" points="265.35 332.25 267.73 328.95 264.94 300.87 262.25 300.87"/><path class="cls-1" d="M251.42,338.07c0-5.79,1.42-18.79,6.36-18.79s7.53,12.58,7.53,12.58"/><path class="cls-1" d="M235.94,338.07c0-5.79-1.42-18.79-6.36-18.79s-7.53,12.58-7.53,12.58"/><circle class="cls-1" cx="137.98" cy="305.21" r="3.83"/><circle class="cls-1" cx="137.98" cy="305.21" r="7.52"/><circle class="cls-1" cx="137.98" cy="305.21" r="9.29"/><circle class="cls-1" cx="137.98" cy="305.21" r="13.55"/><line class="cls-1" x1="137.98" y1="297.69" x2="137.98" y2="301.38"/><line class="cls-1" x1="132.67" y1="299.89" x2="135.28" y2="302.5"/><line class="cls-1" x1="130.46" y1="305.21" x2="134.16" y2="305.21"/><line class="cls-1" x1="132.67" y1="310.53" x2="135.28" y2="307.92"/><line class="cls-1" x1="137.98" y1="312.73" x2="137.98" y2="309.04"/><line class="cls-1" x1="143.3" y1="310.53" x2="140.69" y2="307.92"/><line class="cls-1" x1="145.51" y1="305.21" x2="141.81" y2="305.21"/><line class="cls-1" x1="143.3" y1="299.89" x2="140.69" y2="302.5"/><polyline class="cls-1" points="149.89 298.73 161.01 301.38 161.01 305.21"/><polyline class="cls-1" points="149.89 312.05 161.01 309.64 161.01 304.89"/><line class="cls-1" x1="130.04" y1="294.23" x2="145.93" y2="294.23"/><line class="cls-1" x1="130.04" y1="316.19" x2="145.93" y2="316.19"/><line class="cls-1" x1="147.27" y1="305.21" x2="151.54" y2="305.21"/><line class="cls-1" x1="124.43" y1="305.21" x2="128.7" y2="305.21"/><line class="cls-1" x1="128.4" y1="314.79" x2="131.42" y2="311.77"/><line class="cls-1" x1="147.57" y1="314.79" x2="144.55" y2="311.77"/><polyline class="cls-1" points="147.27 305.21 151.54 305.21 158.74 305.21"/><line class="cls-1" x1="147.57" y1="295.62" x2="144.55" y2="298.64"/><line class="cls-1" x1="128.4" y1="295.62" x2="131.42" y2="298.64"/><rect class="cls-1" x="158.74" y="302.56" width="4.55" height="5.3"/><rect class="cls-1" x="163.29" y="301.65" width="1.58" height="7.16"/><rect class="cls-1" x="164.86" y="302.65" width="2.19" height="5.12"/><line class="cls-1" x1="167.05" y1="302.65" x2="168.32" y2="301.2"/><line class="cls-1" x1="167.05" y1="302.65" x2="168.32" y2="301.2"/><line class="cls-1" x1="167.05" y1="307.77" x2="168.32" y2="309.22"/><line class="cls-1" x1="167.05" y1="307.77" x2="168.32" y2="309.22"/><line class="cls-1" x1="167.05" y1="302.65" x2="168.32" y2="301.2"/><polyline class="cls-1" points="170.13 301.2 171.4 302.65 171.4 307.77 170.13 309.22"/><polyline class="cls-1" points="169.99 304.89 169.99 298.08 157.6 285.25 157.05 285.95 168.47 298.41 168.47 304.89"/><polyline class="cls-1" points="169.99 305.11 169.99 311.92 157.6 324.75 157.05 324.05 168.47 311.59 168.47 305.11"/><polyline class="cls-1" points="171.77 304.26 172.51 304.26 172.51 306.37 171.77 306.37"/><polyline class="cls-1" points="150.88 301.02 153.87 301.97 155.48 303.66 158.63 304.13"/><polyline class="cls-1" points="150.88 309.47 153.87 308.52 155.48 306.84 158.63 306.36"/><polyline class="cls-1" points="125.9 298.73 114.77 301.38 114.77 305.21"/><polyline class="cls-1" points="125.9 312.05 114.77 309.64 114.77 304.89"/><polyline class="cls-1" points="128.52 305.21 124.25 305.21 117.05 305.21"/><rect class="cls-1" x="112.5" y="302.56" width="4.55" height="5.3" transform="translate(229.55 610.42) rotate(-180)"/><rect class="cls-1" x="110.93" y="301.65" width="1.58" height="7.16" transform="translate(223.43 610.46) rotate(-180)"/><rect class="cls-1" x="108.74" y="302.65" width="2.19" height="5.12" transform="translate(219.66 610.42) rotate(-180)"/><line class="cls-1" x1="108.74" y1="302.65" x2="107.47" y2="301.2"/><line class="cls-1" x1="108.74" y1="302.65" x2="107.47" y2="301.2"/><line class="cls-1" x1="108.74" y1="307.77" x2="107.47" y2="309.22"/><line class="cls-1" x1="108.74" y1="307.77" x2="107.47" y2="309.22"/><line class="cls-1" x1="108.74" y1="302.65" x2="107.47" y2="301.2"/><polyline class="cls-1" points="105.66 301.2 104.39 302.65 104.39 307.77 105.66 309.22"/><polyline class="cls-1" points="105.8 304.89 105.8 298.08 118.19 285.25 118.74 285.95 107.32 298.41 107.32 304.89"/><polyline class="cls-1" points="105.8 305.11 105.8 311.92 118.19 324.75 118.74 324.05 107.32 311.59 107.32 305.11"/><polyline class="cls-1" points="104.02 304.26 103.28 304.26 103.28 306.37 104.02 306.37"/><polyline class="cls-1" points="124.91 301.02 121.92 301.97 120.31 303.66 117.16 304.13"/><polyline class="cls-1" points="124.91 309.47 121.92 308.52 120.31 306.84 117.16 306.36"/><path class="cls-8" d="M32.22,278.81c-6.19,0-18.91.33-21.5,3.68-2.46,3.18-1.91,30.37.16,37.53a.51.51,0,0,1-.66.62l-2.52-.84c-1.92-4.6-5.86-22-1.76-23.51-.84-5.19.4-15.16,3.18-17.49,4.1-3.43,19.58-3.43,23.09-3.43"/><path class="cls-8" d="M32.22,278.81c6.19,0,18.91.33,21.5,3.68,2.4,3.09,1.94,28.93,0,36.91a.88.88,0,0,0,1.13,1l1.88-.63c1.92-4.6,5.86-22,1.76-23.51.84-5.19-.4-15.16-3.18-17.49-4.1-3.43-19.58-3.43-23.09-3.43"/><path class="cls-8" d="M32.22,269.86c-8.79,0-20.08,1.17-20.08,7"/><path class="cls-8" d="M32.1,269.86c8.79,0,20.08,1.17,20.08,7"/><path class="cls-8" d="M32.1,292.56c-3.9,0-17.57,1.51-18.52,4.52s0,14.45,6,14.45c3.4,0,3.07-12.33,12.5-12.33"/><path class="cls-8" d="M32.1,301.37c-4.14,0-5.74,2.95-7.54,7.11-1.11,2.56-2.25,5.21-5,5.21a6.83,6.83,0,0,1-5.61-3c-3-4.12-3.33-11.56-2.48-14.23.89-2.84,5.47-4.05,9.82-4.87a69.41,69.41,0,0,1,10.77-1.17"/><path class="cls-8" d="M32.1,292.56c3.9,0,17.57,1.51,18.52,4.52s0,14.45-6,14.45c-3.4,0-3.07-12.33-12.5-12.33"/><path class="cls-8" d="M32.1,290.39a69.41,69.41,0,0,1,10.77,1.17c4.36.82,8.93,2,9.82,4.87.84,2.68.54,10.11-2.48,14.23a6.83,6.83,0,0,1-5.61,3c-2.7,0-3.85-2.65-5-5.21-1.8-4.17-3.4-7.11-7.54-7.11"/><line class="cls-9" x1="32.1" y1="281.74" x2="32.1" y2="287.59"/><line class="cls-9" x1="30.43" y1="281.74" x2="30.43" y2="287.59"/><line class="cls-9" x1="33.78" y1="281.74" x2="33.78" y2="287.59"/><path class="cls-8" d="M32.1,303.26c-1.26,0-4.19,1.76-5.24,3.39a.3.3,0,0,0,.38.43,10.37,10.37,0,0,1,4.86-1.42"/><path class="cls-8" d="M32.1,305.66A10.37,10.37,0,0,1,37,307.08a.3.3,0,0,0,.38-.43c-1.05-1.63-4-3.39-5.24-3.39Z"/><line class="cls-8" x1="33.81" y1="303.86" x2="33.81" y2="305.84"/><line class="cls-8" x1="35.53" y1="304.85" x2="35.53" y2="306.37"/><line class="cls-8" x1="30.4" y1="303.86" x2="30.4" y2="305.84"/><line class="cls-8" x1="28.67" y1="304.85" x2="28.67" y2="306.37"/><path class="cls-8" d="M32.1,311.53h0a5,5,0,0,1,5,5v23.65a0,0,0,0,1,0,0H27.13a0,0,0,0,1,0,0V316.49a5,5,0,0,1,5-5Z"/><path class="cls-8" d="M31.81,313.7h.58a2.91,2.91,0,0,1,2.91,2.91v23.54a0,0,0,0,1,0,0H28.9a0,0,0,0,1,0,0V316.6A2.91,2.91,0,0,1,31.81,313.7Z"/><circle class="cls-8" cx="32.1" cy="336.29" r="2.1"/><path class="cls-8" d="M4.28,300.31c-2.12,1.9-3.9,6.14-3.9,11.21S2,318.33,7.29,321s-.78,8.23,4.13,10.68,15.71,7,15.71,8.48"/><path class="cls-8" d="M60.25,300.31c2.12,1.9,3.9,6.14,3.9,11.21s-1.67,6.81-6.92,9.46.78,8.23-4.13,10.68-16,7-16,8.48"/><path class="cls-8" d="M60.07,305.41c.9,1.84,2.52,10-2.3,11.38"/><path class="cls-8" d="M4.33,305.41c-.9,1.84-2.52,10,2.3,11.38"/><line class="cls-8" x1="28.9" y1="323.63" x2="35.3" y2="323.63"/><polyline class="cls-1" points="349.15 329.78 346.31 329.78 336.68 333.6 318.57 295.06 317.57 277.45"/><rect class="cls-1" x="345.17" y="290.08" width="7.97" height="21.43"/><polygon class="cls-1" points="344.4 317.36 353.14 317.36 351.75 312.5 346.27 312.5 344.4 317.36"/><rect class="cls-1" x="344.4" y="319.85" width="8.74" height="2.74"/><line class="cls-1" x1="346.89" y1="329.78" x2="346.89" y2="317.36"/><line class="cls-1" x1="350.88" y1="329.78" x2="350.88" y2="317.36"/><polyline class="cls-1" points="345.17 311.51 342.78 318.86 355.12 318.86 353.14 311.51"/><polyline class="cls-1" points="345.17 290.08 342.78 287.33 355.12 287.33 353.14 290.08"/><rect class="cls-1" x="346.51" y="305.28" width="5.3" height="5.3"/><rect class="cls-1" x="321.97" y="279.74" width="19.19" height="8.97"/><rect class="cls-1" x="356.49" y="279.74" width="19.19" height="8.97"/><polyline class="cls-1" points="336.68 333.6 342.78 318.86 342.78 287.33"/><polyline class="cls-1" points="361.63 333.6 355.12 318.86 355.12 287.33"/><line class="cls-1" x1="341.16" y1="284.22" x2="356.49" y2="284.22"/><line class="cls-1" x1="364.83" y1="311.51" x2="364.83" y2="334.06"/><rect class="cls-1" x="363.71" y="334.06" width="2.29" height="3.86" rx="0.5" ry="0.5"/><line class="cls-1" x1="364.83" y1="338.17" x2="364.83" y2="339.91"/><rect class="cls-1" x="362.59" y="308.18" width="4.44" height="1.45" rx="0.46" ry="0.46"/><rect class="cls-1" x="363.38" y="309.64" width="2.95" height="1.7"/><rect class="cls-1" x="356.57" y="303.57" width="15.62" height="4.61"/><polygon class="cls-1" points="367.57 301 363.38 301 362.22 288.71 368.94 288.71 367.57 301"/><line class="cls-1" x1="362.52" y1="291.61" x2="368.64" y2="291.61"/><line class="cls-1" x1="363.84" y1="301" x2="363.84" y2="303.57"/><line class="cls-1" x1="367.03" y1="301" x2="367.03" y2="303.57"/><line class="cls-1" x1="330.94" y1="311.51" x2="330.94" y2="334.06"/><rect class="cls-1" x="329.82" y="334.06" width="2.29" height="3.86" rx="0.5" ry="0.5"/><line class="cls-1" x1="330.94" y1="338.17" x2="330.94" y2="339.91"/><rect class="cls-1" x="328.7" y="308.18" width="4.44" height="1.45" rx="0.46" ry="0.46"/><rect class="cls-1" x="329.49" y="309.64" width="2.95" height="1.7"/><rect class="cls-1" x="322.68" y="303.57" width="15.62" height="4.61"/><polygon class="cls-1" points="333.69 301 329.49 301 328.33 288.71 335.06 288.71 333.69 301"/><line class="cls-1" x1="328.6" y1="291.61" x2="334.72" y2="291.61"/><line class="cls-1" x1="329.95" y1="301" x2="329.95" y2="303.57"/><line class="cls-1" x1="333.14" y1="301" x2="333.14" y2="303.57"/><rect class="cls-1" x="342.78" y="279.44" width="2.55" height="2.55"/><rect class="cls-1" x="352.06" y="279.44" width="2.55" height="2.55"/><rect class="cls-1" x="363.63" y="277.2" width="4.57" height="2.53"/><rect class="cls-1" x="329.28" y="277.2" width="4.57" height="2.53"/><polyline class="cls-1" points="317.57 277.45 328.48 274.32 330.93 272.53 332.34 270.09 335.66 270.09 335.66 272.78 339.88 274.32 339.88 278.02 358.37 278.02 358.37 274.32 362.59 272.78 362.59 270.09 365.91 270.09 367.32 272.53 369.77 274.32 380.73 277.45 379.74 295.06 361.63 333.6 352 329.78 349.15 329.78"/></svg>