<svg id="Layer_1" data-name="Layer 1" xmlns="http://www.w3.org/2000/svg" width="256" height="256" viewBox="0 0 256 256"><title>taco</title><path d="M136.9,80.6c-8.6-12.4-21.7-29.4-37.2-21.7S73.3,52,63.2,62.8s.8,14.7-7.7,27.9-6.2,21.7,4.6,22.5S136.9,80.6,136.9,80.6Z" fill="#82af33" stroke="#282828" stroke-miterlimit="10" stroke-width="3"/><path d="M184.9,114.7c4.7-9.3,11.6-28.6,26.4-27.9s5.4,14.8,15.5,20.2,14.3-4.3,24,5.4-3.9,17.8-2.3,27.9-3.9,22.5-17.1,24S184.9,114.7,184.9,114.7Z" fill="#82af33" stroke="#282828" stroke-miterlimit="10" stroke-width="3"/><path d="M70.6,114.7C66,105.4,59,86.1,44.3,86.8S38.8,101.6,28.8,107s-14.4-4.3-24.1,5.4,3.9,17.8,2.4,27.9,3.8,22.5,17,24S70.6,114.7,70.6,114.7Z" fill="#82af33" stroke="#282828" stroke-miterlimit="10" stroke-width="3"/><rect x="211.3" y="117.1" width="8.5" height="51.93" rx="4.3" ry="4.3" transform="translate(336.5 -85.6) rotate(84.3)" fill="#ffe000" stroke="#282828" stroke-miterlimit="10" stroke-width="3"/><circle cx="60.1" cy="107.8" r="20.9" fill="#e22929" stroke="#282828" stroke-miterlimit="10" stroke-width="3"/><circle cx="109.7" cy="86.8" r="20.9" fill="#e22929" stroke="#282828" stroke-miterlimit="10" stroke-width="3"/><rect x="202.7" y="111.6" width="8.5" height="51.93" rx="4.3" ry="4.3" transform="translate(323.4 -82) rotate(84.3)" fill="#ffe000" stroke="#282828" stroke-miterlimit="10" stroke-width="3"/><rect x="211.3" y="102.3" width="8.5" height="51.93" rx="4.3" ry="4.3" transform="translate(321.9 -98.8) rotate(84.3)" fill="#ffe000" stroke="#282828" stroke-miterlimit="10" stroke-width="3"/><rect x="197.3" y="96.9" width="8.5" height="51.93" rx="4.3" ry="4.3" transform="translate(303.9 -89.9) rotate(84.3)" fill="#ffe000" stroke="#282828" stroke-miterlimit="10" stroke-width="3"/><rect x="36.9" y="117.1" width="8.5" height="51.93" rx="4.3" ry="4.3" transform="translate(187.5 116.2) rotate(95.7)" fill="#ffe000" stroke="#282828" stroke-miterlimit="10" stroke-width="3"/><rect x="45.4" y="111.6" width="8.5" height="51.93" rx="4.3" ry="4.3" transform="translate(191.5 101.8) rotate(95.7)" fill="#ffe000" stroke="#282828" stroke-miterlimit="10" stroke-width="3"/><rect x="36.9" y="102.3" width="8.5" height="51.93" rx="4.3" ry="4.3" transform="translate(172.9 100.1) rotate(95.7)" fill="#ffe000" stroke="#282828" stroke-miterlimit="10" stroke-width="3"/><rect x="50.8" y="96.9" width="8.5" height="51.93" rx="4.3" ry="4.3" transform="translate(182.8 80.2) rotate(95.7)" fill="#ffe000" stroke="#282828" stroke-miterlimit="10" stroke-width="3"/><path d="M180.9,120.7c7.1-7.6,22.7-21,16.7-34.5s-15.7.2-24.3-7.3S172.1,64,159.6,58.4s-15.2,9.9-25.2,12.1S114.8,82.1,118,95,180.9,120.7,180.9,120.7Z" fill="#82af33" stroke="#282828" stroke-miterlimit="10" stroke-width="3"/><path d="M242.6,170.8a7.5,7.5,0,0,0,.4-2.6,7.7,7.7,0,0,0-5.7-7.4,10.7,10.7,0,0,0,2.6-6.9,10.5,10.5,0,1,0-11.3,10.4,7.6,7.6,0,0,0,1.2,9.4,10.7,10.7,0,0,0-2.3,6.5,10.5,10.5,0,0,0,21,0A10.7,10.7,0,0,0,242.6,170.8Z" fill="#715c20" stroke="#282828" stroke-miterlimit="10" stroke-width="3"/><path d="M13.3,169.3a7.5,7.5,0,0,1-.4-2.6,7.8,7.8,0,0,1,5.6-7.5,10.2,10.2,0,0,1-2.5-6.9,10.5,10.5,0,0,1,20.9,0,10.5,10.5,0,0,1-9.6,10.5,7.1,7.1,0,0,1,1.1,3.9,7.9,7.9,0,0,1-2.3,5.5,10.5,10.5,0,1,1-18.7,6.5A10.4,10.4,0,0,1,13.3,169.3Z" fill="#715c20" stroke="#282828" stroke-miterlimit="10" stroke-width="3"/><circle cx="153.9" cy="89.2" r="20.9" fill="#e22929" stroke="#282828" stroke-miterlimit="10" stroke-width="3"/><circle cx="198.9" cy="113.2" r="20.9" fill="#e22929" stroke="#282828" stroke-miterlimit="10" stroke-width="3"/><path d="M127.9,199.2c38.1,0,87.7-3.9,105.8-9,0-77.7-58.1-114.6-105.8-114.6S22.2,112.5,22.2,190.2C40.3,195.3,89.8,199.2,127.9,199.2Z" fill="#e2b740" stroke="#282828" stroke-miterlimit="10" stroke-width="6"/><circle cx="105.9" cy="117.8" r="8.1" fill="#dda322"/><circle cx="181.8" cy="113.2" r="8.1" fill="#dda322"/><circle cx="205.1" cy="175.2" r="6.6" fill="#dda322"/><circle cx="90.4" cy="177.5" r="6.6" fill="#dda322"/><circle cx="146.9" cy="127.9" r="6.6" fill="#dda322"/><circle cx="165.1" cy="156.2" r="7" fill="#dda322"/><circle cx="114" cy="150" r="6.2" fill="#dda322"/><circle cx="122.9" cy="182.2" r="5" fill="#dda322"/><circle cx="60.1" cy="127.9" r="5" fill="#dda322"/><circle cx="55.1" cy="170.9" r="7.8" fill="#dda322"/><circle cx="143.8" cy="93.8" r="5" fill="#dda322"/><circle cx="79.5" cy="144.2" r="3.5" fill="#dda322"/><circle cx="133" cy="113.2" r="3.5" fill="#dda322"/><circle cx="79.5" cy="113.2" r="3.5" fill="#dda322"/><circle cx="165.5" cy="183.7" r="3.5" fill="#dda322"/><circle cx="193.4" cy="134.1" r="3.5" fill="#dda322"/></svg>