<svg id="Layer_1" data-name="Layer 1" xmlns="http://www.w3.org/2000/svg" viewBox="0 0 266.06 267.47"><defs><style>.cls-1,.cls-2{fill:none;stroke:#fff;}.cls-1{stroke-miterlimit:10;stroke-width:7.05px;}.cls-2{stroke-linecap:round;stroke-linejoin:round;stroke-width:6.43px;}</style></defs><title>Artboard 1</title><rect class="cls-1" x="3.52" y="4.44" width="259.51" height="259.51" rx="15.15" ry="15.15"/><path class="cls-2" d="M169.79,53.29c-22.28,0-46,25.33-38.48,52.63-21.65,5.88-66.58-20-80.6-37.82-.89-1.13-1.45-4.2-2.28-3.29-10.2,11.18-3,42.43,11.18,52.63C51,121,42.5,112.49,42.5,112.49c0,18.75,13.16,36.18,30.59,39.8C66.84,157.88,56,153.6,56,153.6c3.43,10.9,19.82,27.1,33.84,28a18.12,18.12,0,0,0,2.34,0c-4.6,12.5-45.72,19.41-55.91,16.77C55,213.14,82.62,215.11,104,215.11c36.43,0,79.84-16.53,100.65-78.94,10.53-31.58,4.6-40.78,4.6-40.78C221.75,92.43,230.3,75,230.3,75c-8.88,2.3-22,5.92-22,5.92,14.14-9.54,15.79-22,15.79-22-6.91,3.95-25.33,10.2-25.33,10.2C193.8,59.21,185.74,53.29,169.79,53.29Z"/></svg>