<svg id="Layer_1" data-name="Layer 1" xmlns="http://www.w3.org/2000/svg" width="8.5in" height="8.5in" viewBox="0 0 612 612"><title>Artboard 2 copy 6</title><rect width="612" height="612" fill="#187278"/><path d="M197,477c30.7-9.2,118.6-53.9,173-108.3S458.1,250.1,476.7,206c20.2-47.9,30.8-97.3,31.1-98.8h-400V287.5c82.6,0,153.1-79.2,153.1-157.1H417.3c-4.3,1.7-7.9,1.9-12.4,3.8-44.2,18.6-108.2,52.3-162.7,106.7S154.2,359.5,135.6,403.6c-20.2,47.9-27.5,82.6-27.8,84.1l-3.5,17.1,19.6-.3h384V319.8c-77.7,0-156,67.8-156,156.2Z" fill="#1a4c4f"/><path d="M360.7,359.4c-102.5,102.5-240.2,131-240.2,131s28.5-137.7,131-240.2,240.2-131,240.2-131S463.2,256.9,360.7,359.4Z" fill="#368191" stroke="#fff" stroke-miterlimit="10" stroke-width="1.3"/><path d="M133.4,493h0Zm5.5-21A542.5,542.5,0,0,1,160,413.2c17.7-41.8,49.6-102.5,100.9-153.7s111.9-83.1,153.7-100.9a542.3,542.3,0,0,1,58.8-21.1,542.4,542.4,0,0,1-21.1,58.8c-17.7,41.8-49.6,102.5-100.9,153.7C276.2,425.3,180.6,459.8,138.9,472Z" fill="#fde282"/><path d="M159.2,451.7c3.4-9.9,7.7-21.2,12.9-33.4,17.3-40.8,48.3-99.8,98-149.6s108.8-80.8,149.6-98c12.2-5.2,23.6-9.4,33.5-12.9-3.4,9.9-7.7,21.2-12.9,33.5C423,232,392,291.1,342.2,340.8,280.9,402.1,204.8,435.7,159.2,451.7Z" fill="#f79568"/><path d="M181.8,429.1l2.3-5.6c16.8-39.7,47-97.1,95.2-145.4s105.7-78.4,145.4-95.2l5.8-2.4-2.4,5.8c-16.8,39.7-47,97.1-95.2,145.4S224.2,411.6,181.8,429.1Z" fill="#f5ebbf"/><path d="M207.9,402.9c17.4-35.4,43.5-78.4,80.7-115.6s80.4-63.5,115.9-80.9C387.2,241.9,361,285,323.6,322.3S244.2,385.1,207.9,402.9Z" fill="#fde282"/><path d="M240.8,370c16.9-27.8,36.1-52.4,57.1-73.5s45.8-40.3,73.7-57.3c-17,27.9-36.2,52.6-57.3,73.7S268.8,353,240.8,370Z" fill="#368191"/><path d="M120.6,490.4H491.7V334.7c-29.6,0-123.8,43.8-123.8,155.6" fill="#559097" stroke="#fff" stroke-miterlimit="10" stroke-width="1.3"/><path d="M491.7,119.2H120.6V274.9c29.6,0,128.7-43.8,128.7-155.6" fill="#368191" stroke="#fff" stroke-miterlimit="10" stroke-width="1.3"/><path d="M120.6,119.2V274.9c29.6,0,128.7-43.8,128.7-155.6Z" fill="#368191" stroke="#fff" stroke-miterlimit="10" stroke-width="1.3"/><path d="M133.7,132.4H235.6c-3.8,48-27.8,78.9-48.3,96.8a153.8,153.8,0,0,1-39.4,25.1,115.9,115.9,0,0,1-14.2,5.2Z" fill="#fde282"/><path d="M481.5,477.9H379.5c3.8-48,27.8-78.9,48.3-96.8A153.8,153.8,0,0,1,467.2,356a115.9,115.9,0,0,1,14.2-5.2Z" fill="#fbf49d"/><path d="M394.4,464.8a127.5,127.5,0,0,1,42-73.8,141.6,141.6,0,0,1,31.9-21.1v94.9Z" fill="#f79568"/><path d="M411.3,451.7a115.3,115.3,0,0,1,33.8-50.8,129,129,0,0,1,10.2-8v58.9Z" fill="#f5ebbf"/><path d="M431.2,438.6a102.7,102.7,0,0,1,10.9-16v16Z" fill="#fde282"/><path d="M220.6,145.3a127.5,127.5,0,0,1-42,73.8,141.6,141.6,0,0,1-31.9,21.1V145.3Z" fill="#f79568"/><path d="M203.8,158.4a115.3,115.3,0,0,1-33.8,50.8,129,129,0,0,1-10.2,8V158.4Z" fill="#f5ebbf"/><path d="M183.8,171.5a102.7,102.7,0,0,1-10.9,16v-16Z" fill="#fde282"/></svg>