<svg id="Layer_1" data-name="Layer 1" xmlns="http://www.w3.org/2000/svg" width="256" height="256" viewBox="0 0 256 256"><title>a-wing_1</title><path d="M82.6,233a.8.8,0,0,1-.8-.5L15.8,92.2v-.3L12.1,27.8a1,1,0,0,1,.9-1,.9.9,0,0,1,.9.9l3.7,63.9L83,231l34.3-13.6H128a.9.9,0,0,1,0,1.8H117.8L82.9,233Z"/><path d="M142.5,152.6h-29a.9.9,0,0,1-.9-.9v-78a.9.9,0,0,1,.9-.9h29a.9.9,0,0,1,.9.9v78A.9.9,0,0,1,142.5,152.6Zm-28.1-1.8h27.2V74.6H114.4Z"/><path d="M142.5,173.9H110.7a.7.7,0,0,1-.7-.4.6.6,0,0,1-.1-.8l6.8-17.7a.8.8,0,0,1,.8-.6h20a.8.8,0,0,1,.8.7l5.1,17.7a.7.7,0,0,1-.2.7A.7.7,0,0,1,142.5,173.9ZM112,172.1h29.3l-4.5-15.9H118.1Z"/><path d="M142.5,193H110.7a.9.9,0,0,1-.9-.9v-10a.9.9,0,0,1,.9-.9h31.8a.9.9,0,0,1,.9.9v10A.9.9,0,0,1,142.5,193Zm-30.9-1.8h30V183h-30Z"/><path d="M119.8,219.1a.9.9,0,0,1-.9-.9V173a.9.9,0,0,1,1.8,0v45.2A.9.9,0,0,1,119.8,219.1Z"/><path d="M134.3,219.1a.9.9,0,0,1-.9-.9V173a.9.9,0,0,1,1.8,0v45.2A.9.9,0,0,1,134.3,219.1Z"/><path d="M149.7,179.3H104.8a.8.8,0,0,1-.7-.3,1.3,1.3,0,0,1-.2-.8l8.7-26.8a1,1,0,0,1,1.2-.6,1,1,0,0,1,.5,1.2L106,177.5h42.5l-6.9-25.6a.9.9,0,1,1,1.8-.4l7.2,26.7a1.1,1.1,0,0,1-.2.8A.9.9,0,0,1,149.7,179.3Z"/><path d="M142.5,74.6l-.5-.2a.9.9,0,0,1-.2-1.3l6.1-8.5H106.8l7.4,8.5a.9.9,0,0,1-.1,1.3,1,1,0,0,1-1.3-.1l-8.7-10a.9.9,0,0,1-.1-1,.8.8,0,0,1,.8-.5h44.9a.9.9,0,0,1,.8.5.8.8,0,0,1-.1.9l-7.2,10A.8.8,0,0,1,142.5,74.6Z"/><path d="M137.6,149.2H118.4a.9.9,0,0,1-.9-.9V129a.9.9,0,0,1,.9-.9h19.2a.9.9,0,0,1,.9.9v19.3A.9.9,0,0,1,137.6,149.2Zm-18.3-1.8h17.4V129.9H119.3Z"/><path d="M98.9,69.6H29.1a.9.9,0,0,1-.9-.9V36a.9.9,0,0,1,.9-.9H98.9a.9.9,0,0,1,.9.9V68.7A.9.9,0,0,1,98.9,69.6ZM30,67.8H98V36.9H30Z"/><path d="M224.5,69.6H154.7a.9.9,0,0,1-.9-.9V36a.9.9,0,0,1,.9-.9h69.8a.9.9,0,0,1,.9.9V68.7A.9.9,0,0,1,224.5,69.6Zm-68.9-1.8h68V36.9h-68Z"/><path d="M82.6,233h-.4a1.1,1.1,0,0,1-.5-1.2l22.2-53.5V63.7a.9.9,0,0,1,1.8,0V178.4c0,.2,0,.3-.1.4L83.4,232.5A.9.9,0,0,1,82.6,233Z"/><path d="M173.4,233a.9.9,0,0,1-.8-.5l-23.7-53.7c-.1-.1-.1-.2-.1-.4V63.7a.9.9,0,0,1,1.8,0V178.3l23.6,53.5a.8.8,0,0,1-.4,1.1Z"/><path d="M154.7,53.3H98.9a.9.9,0,0,1,0-1.8h55.8a.9.9,0,1,1,0,1.8Z"/><path d="M185.1,234.7a.9.9,0,0,1-.9-.9V151.7a.9.9,0,1,1,1.8,0v82.1A.9.9,0,0,1,185.1,234.7Z"/><path d="M187.5,248.7h-4.7a2.7,2.7,0,0,1-2.7-2.7V235.6a2.7,2.7,0,0,1,2.7-2.7h4.7a2.7,2.7,0,0,1,2.7,2.7V246A2.7,2.7,0,0,1,187.5,248.7Zm-4.7-14a.9.9,0,0,0-.9.9V246a.9.9,0,0,0,.9.9h4.7a.9.9,0,0,0,.9-.9V235.6a.9.9,0,0,0-.9-.9Z"/><path d="M185.1,256a.9.9,0,0,1-.9-.9v-6.4a.9.9,0,1,1,1.8,0v6.4A.9.9,0,0,1,185.1,256Z"/><path d="M191.4,145.8H178.6a2.6,2.6,0,0,1-2.6-2.6v-1.9a2.6,2.6,0,0,1,2.6-2.6h12.8a2.6,2.6,0,0,1,2.6,2.6v1.9A2.6,2.6,0,0,1,191.4,145.8Zm-12.8-5.3a.8.8,0,0,0-.8.8v1.9a.9.9,0,0,0,.8.8h12.8a.9.9,0,0,0,.8-.8v-1.9a.8.8,0,0,0-.8-.8Z"/><path d="M190.5,152H179.8a.9.9,0,0,1-.9-.9v-6.2a.9.9,0,0,1,.9-.9h10.7a.9.9,0,0,1,.9.9v6.2A.9.9,0,0,1,190.5,152Zm-9.8-1.8h8.9v-4.4h-8.9Z"/><path d="M211.8,140.5H155a.9.9,0,0,1-.9-.9V122.8a.9.9,0,0,1,.9-.9h56.8a.9.9,0,0,1,.9.9v16.8A.9.9,0,0,1,211.8,140.5Zm-55.9-1.8h55v-15h-55Z"/><path d="M195.1,114.3H179.8a.8.8,0,0,1-.9-.8l-4.2-44.7a.6.6,0,0,1,.2-.7.9.9,0,0,1,.7-.3H200a.8.8,0,0,1,.7.3.6.6,0,0,1,.2.7L196,113.5A.9.9,0,0,1,195.1,114.3Zm-14.5-1.8h13.7L199,69.6H176.5Z"/><path d="M198.9,80.2H176.7a.9.9,0,1,1,0-1.8h22.2a.9.9,0,1,1,0,1.8Z"/><path d="M181.5,123.7a.9.9,0,0,1-.9-.9v-9.4a.9.9,0,1,1,1.8,0v9.4A.9.9,0,0,1,181.5,123.7Z"/><path d="M193.1,123.7a.9.9,0,0,1-.9-.9v-9.4a.9.9,0,0,1,1.8,0v9.4A.9.9,0,0,1,193.1,123.7Z"/><path d="M61.7,234.7a.9.9,0,0,1-.9-.9V151.7a.9.9,0,1,1,1.8,0v82.1A.9.9,0,0,1,61.7,234.7Z"/><path d="M64.2,248.7H59.5a2.8,2.8,0,0,1-2.8-2.7V235.6a2.8,2.8,0,0,1,2.8-2.7h4.7a2.7,2.7,0,0,1,2.7,2.7V246A2.7,2.7,0,0,1,64.2,248.7Zm-4.7-14a.9.9,0,0,0-1,.9V246a.9.9,0,0,0,1,.9h4.7a.9.9,0,0,0,.9-.9V235.6a.9.9,0,0,0-.9-.9Z"/><path d="M61.7,256a.9.9,0,0,1-.9-.9v-6.4a.9.9,0,0,1,1.8,0v6.4A.9.9,0,0,1,61.7,256Z"/><path d="M68,145.8H55.2a2.6,2.6,0,0,1-2.6-2.6v-1.9a2.6,2.6,0,0,1,2.6-2.6H68a2.5,2.5,0,0,1,2.6,2.6v1.9A2.6,2.6,0,0,1,68,145.8Zm-12.8-5.3a.7.7,0,0,0-.7.8v1.9a.8.8,0,0,0,.7.8H68a.8.8,0,0,0,.8-.8v-1.9a.7.7,0,0,0-.8-.8Z"/><path d="M67.2,152H56.4a.9.9,0,0,1-.9-.9v-6.2a.9.9,0,0,1,.9-.9H67.2a.9.9,0,0,1,.9.9v6.2A.9.9,0,0,1,67.2,152Zm-9.9-1.8h9v-4.4h-9Z"/><path d="M88.5,140.5H31.6a.9.9,0,0,1-.9-.9V122.8a.9.9,0,0,1,.9-.9H88.5a.9.9,0,0,1,.9.9v16.8A.9.9,0,0,1,88.5,140.5Zm-56-1.8H87.6v-15H32.5Z"/><path d="M71.7,114.3H56.4a.9.9,0,0,1-.9-.8L51.3,68.8a1.4,1.4,0,0,1,.2-.7.9.9,0,0,1,.7-.3H76.7a1.1,1.1,0,0,1,.7.3,1.4,1.4,0,0,1,.2.7l-5,44.7A.9.9,0,0,1,71.7,114.3Zm-14.5-1.8H70.9l4.8-42.9H53.2Z"/><path d="M75.4,80.2H53.2a.9.9,0,0,1,0-1.8H75.4a.9.9,0,0,1,0,1.8Z"/><path d="M58.1,123.7a.9.9,0,0,1-.9-.9v-9.4a.9.9,0,1,1,1.8,0v9.4A.9.9,0,0,1,58.1,123.7Z"/><path d="M69.7,123.7a.9.9,0,0,1-.9-.9v-9.4a.9.9,0,0,1,1.8,0v9.4A.9.9,0,0,1,69.7,123.7Z"/><path d="M114.1,45.2h-9.3a.9.9,0,0,1-.9-.9V35a.9.9,0,0,1,.9-.9h9.3a.9.9,0,0,1,.9.9v9.3A.9.9,0,0,1,114.1,45.2Zm-8.4-1.8h7.5V35.9h-7.5Z"/><path d="M147.9,45.2h-9.3a.9.9,0,0,1-.9-.9V35a.9.9,0,0,1,.9-.9h9.3a.9.9,0,0,1,.9.9v9.3A.9.9,0,0,1,147.9,45.2Zm-8.4-1.8H147V35.9h-7.5Z"/><path d="M197.3,36.9H180.7a.9.9,0,0,1-.9-.9V26.8a.9.9,0,0,1,.9-.9h16.6a.9.9,0,0,1,.9.9V36A.9.9,0,0,1,197.3,36.9Zm-15.7-1.8h14.8V27.7H181.6Z"/><path d="M72.3,36.9H55.7a.9.9,0,0,1-.9-.9V26.8a.9.9,0,0,1,.9-.9H72.3a.9.9,0,0,1,.9.9V36A.9.9,0,0,1,72.3,36.9ZM56.6,35.1H71.4V27.7H56.6Z"/><path d="M173.4,233h-.3l-34.9-13.9H128a.9.9,0,0,1,0-1.8h10.7L173,231,238.4,91.6,242,28.4,202.8,17.2l-.3-.2-8.9-6.5-.2-.2-4.9-8.5H177.8v8.9a1,1,0,0,1-.6.9l-14.7,5.3V29.8a.9.9,0,0,1-.9.9H94.3a1,1,0,0,1-1-.9V16.9L78.6,11.6a1,1,0,0,1-.6-.9V1.8H67.3l-4.9,8.5-.2.2L53.3,17l-.3.2L13.3,28.6a.9.9,0,0,1-1.1-.6.9.9,0,0,1,.6-1.2L52.4,15.5,61,9.2,66,.5a1,1,0,0,1,.8-.5H78.9a.9.9,0,0,1,.9.9v9.2l14.8,5.4a.9.9,0,0,1,.6.8V28.9h65.5V16.3a.8.8,0,0,1,.6-.8L176,10.1V.9a.9.9,0,0,1,.9-.9H189a1,1,0,0,1,.8.5l5,8.7,8.7,6.3,39.7,11.3a1.1,1.1,0,0,1,.7,1l-3.7,64.1v.3l-66,140.3A.8.8,0,0,1,173.4,233Z"/></svg>