<svg xmlns="http://www.w3.org/2000/svg" width="256" height="256" viewBox="0 0 256 256"><path fill="#231f20" d="M151.7 41.8h-47.8a.9.9 0 0 1-.9-.9V.9a.9.9 0 0 1 .9-.9h19.8a.9.9 0 0 1 .9.9v12.3h4.6V.9a.9.9 0 0 1 .9-.9h21.6a.9.9 0 0 1 .9.9v40a.9.9 0 0 1-.9.9zm-46.9-1.9h46V1.8H131v12.3a.9.9 0 0 1-.9.9h-6.4a.9.9 0 0 1-.9-.9V1.8h-18z"/><path fill="#231f20" d="M151.7 79.2h-47.8a.9.9 0 0 1-.9-.9V40.9a1 1 0 0 1 .9-1h47.8a1 1 0 0 1 .9 1v37.4a.9.9 0 0 1-.9.9zm-46.9-1.8h46V41.8h-46zm37.6 75h-29.3a.9.9 0 0 1-.9-.9v-19a.9.9 0 0 1 .9-.9h29.3a.9.9 0 0 1 .9.9v19a.9.9 0 0 1-.9.9zm-28.4-1.8h27.5v-17.1H114z"/><path fill="#231f20" d="M127.8 198.2h-55a.9.9 0 0 1-.9-.9v-44.9H41.8a.9.9 0 0 1-.9-.9v-24.6c0-12.6 12.5-28.5 24.7-43.8 7-8.8 14.3-18 18.9-26.3C96.9 34.6 102.9 1.1 103 .8a.9.9 0 0 1 1-.8 1 1 0 0 1 .8 1.1c-.1.3-6.1 34.1-18.7 56.6-4.7 8.5-12 17.7-19.1 26.6-11.9 15-24.3 30.6-24.3 42.6v23.7h30.1a.9.9 0 0 1 .9.9v44.9h54.1a.9.9 0 0 1 0 1.8z"/><path fill="#231f20" d="M182.8 198.2h-55a.9.9 0 0 1 0-1.8h54.1v-44.9a.9.9 0 0 1 .9-.9h30.1v-23.7c0-12-12.4-27.6-24.3-42.6-7.1-8.9-14.4-18.1-19.1-26.6-12.6-22.5-18.6-56.3-18.7-56.6a1 1 0 0 1 .8-1.1.9.9 0 0 1 1 .8c.1.3 6.1 33.8 18.5 56 4.6 8.3 11.9 17.5 18.9 26.3 12.2 15.3 24.7 31.2 24.7 43.8v24.6a.9.9 0 0 1-.9.9h-30.1v44.9a.9.9 0 0 1-.9.9z"/><path fill="#231f20" d="M138.1 192.7h-20.6a.9.9 0 0 1-.9-.8l-4.4-40.2-9.2-32.8V78.3a.9.9 0 1 1 1.8 0v40.2l9.2 32.8 4.3 39.5h19l4.2-39.5h.1l9.2-33.2V78.3a.9.9 0 1 1 1.8 0v40.2l-9.3 33.2-4.3 40.2a.8.8 0 0 1-.9.8z"/><path fill="#231f20" d="M113.1 152.4H72.8a.9.9 0 0 1 0-1.8h40.3a.9.9 0 1 1 0 1.8zm69.7 0h-40.4a.9.9 0 1 1 0-1.8h40.4a.9.9 0 1 1 0 1.8zm-69.7-16.5a.9.9 0 0 1-.9-.9c0-15.7 6.6-44.8 16-44.8a.9.9 0 0 1 .9.9 1 1 0 0 1-.9 1c-6.8 0-14.2 25.2-14.2 42.9a.9.9 0 0 1-.9.9z"/><path fill="#231f20" d="M142.4 135.9a.9.9 0 0 1-.9-.9c0-17.7-7.3-42.9-14.1-42.9a1 1 0 0 1-.9-1 .9.9 0 0 1 .9-.9c9.4 0 15.9 29.1 15.9 44.8a.9.9 0 0 1-.9.9z"/><path fill="#231f20" d="M134.9 101.5h-14.2a.9.9 0 1 1 0-1.8h14.2a.9.9 0 0 1 0 1.8zm-19.4-30.8l-.7-.2-5.9-6a.9.9 0 0 1-.3-.6V47.6a.9.9 0 0 1 .9-.9h11.9a.9.9 0 0 1 .9.9v16.3a1.4 1.4 0 0 1-.2.6l-6 6zm-5.1-7.2l5.1 5 5-5v-15h-10.1zm28.9 7.2l-.6-.2-6-6a.9.9 0 0 1-.3-.6V47.6a1 1 0 0 1 1-.9h11.9a.9.9 0 0 1 .9.9v16.3a.9.9 0 0 1-.3.6l-5.9 6zm-5-7.2l5 5 5-5v-15h-10zm-6.9 15.7a.9.9 0 0 1-.9-.9V40.9a.9.9 0 1 1 1.8 0v37.4a.9.9 0 0 1-.9.9zM41.8 140h-9.6a.9.9 0 0 1-.9-.9v-6.6a.9.9 0 0 1 .9-.9h9.6a.9.9 0 0 1 .9.9v6.6a.9.9 0 0 1-.9.9zm-8.7-1.8h7.8v-4.7h-7.8z"/><path fill="#231f20" d="M32.2 162.5h-8a1 1 0 0 1-1-.9v-51.5a1 1 0 0 1 1-.9h8a.9.9 0 0 1 .9.9v51.5a.9.9 0 0 1-.9.9zm-7.1-1.9h6.2V111h-6.2z"/><path fill="#231f20" d="M28.2 111a.9.9 0 0 1-.9-.9V75.6a.9.9 0 1 1 1.8 0v34.5a.9.9 0 0 1-.9.9zm195.6 29h-9.6a.9.9 0 0 1-.9-.9v-6.6a.9.9 0 0 1 .9-.9h9.6a.9.9 0 0 1 .9.9v6.6a.9.9 0 0 1-.9.9zm-8.7-1.8h7.8v-4.7h-7.8z"/><path fill="#231f20" d="M231.8 162.5h-8a.9.9 0 0 1-.9-.9v-51.5a.9.9 0 0 1 .9-.9h8a1 1 0 0 1 1 .9v51.5a1 1 0 0 1-1 .9zm-7.1-1.9h6.2V111h-6.2z"/><path fill="#231f20" d="M227.8 111a.9.9 0 0 1-.9-.9V75.6a.9.9 0 1 1 1.8 0v34.5a.9.9 0 0 1-.9.9z"/><path fill="#231f20" d="M227.8 75.9a3.7 3.7 0 0 1-3.7-3.7v-6.1a3.7 3.7 0 0 1 3.7-3.6 3.6 3.6 0 0 1 3.7 3.6v6.1a3.6 3.6 0 0 1-3.7 3.7zm0-11.6a1.8 1.8 0 0 0-1.8 1.8v6.1a1.8 1.8 0 0 0 1.8 1.9 1.9 1.9 0 0 0 1.9-1.9v-6.1a1.9 1.9 0 0 0-1.9-1.8zM28.2 76.5a3.7 3.7 0 0 1-3.7-3.7v-6.1a3.7 3.7 0 0 1 3.7-3.7 3.8 3.8 0 0 1 3.7 3.7v6.1a3.8 3.8 0 0 1-3.7 3.7zm0-11.7a2 2 0 0 0-1.9 1.9v6.1a1.9 1.9 0 0 0 1.9 1.8 1.8 1.8 0 0 0 1.8-1.8v-6.1a1.9 1.9 0 0 0-1.8-1.9zm62.6 150H50.7a.9.9 0 0 1-.9-.9c0-12.9 5.6-53.6 7.4-62.6a1 1 0 0 1 1.1-.7.9.9 0 0 1 .7 1.1c-1.8 8.7-7.1 47.5-7.3 61.3h38.2v-15.7a.9.9 0 0 1 1.8 0v16.6a.9.9 0 0 1-.9.9zm120.7 0h-40.1a.9.9 0 0 1-.9-.9v-16.6a.9.9 0 0 1 .9-.9 1 1 0 0 1 1 .9V213h38.2c-.3-13.8-5.6-52.6-7.4-61.3a.9.9 0 0 1 .7-1.1 1 1 0 0 1 1.1.7c1.8 9 7.4 49.7 7.4 62.6a.9.9 0 0 1-.9.9zm-62.3 3h-40.5a6.9 6.9 0 0 1-6.8-5.3l-3.7-15a1.1 1.1 0 0 1 .1-.8 1.1 1.1 0 0 1 .8-.3h60a1.1 1.1 0 0 1 .8.3 1.1 1.1 0 0 1 .1.8l-4 15.1a7 7 0 0 1-6.8 5.2zm-49-19.6l3.4 13.9a5.3 5.3 0 0 0 5.1 3.9h40.5a5.2 5.2 0 0 0 5-3.8l3.7-14z"/><path fill="#231f20" d="M94.3 220.4H47.2a.9.9 0 0 1-.9-.9v-5.2a.9.9 0 0 1 .9-.9h47.1a.9.9 0 0 1 .9.9v5.2a.9.9 0 0 1-.9.9zm-46.1-1.8h45.2v-3.4H48.2zm166.8 1.8h-47.1a.9.9 0 0 1-.9-.9v-5.2a.9.9 0 0 1 .9-.9H215a.9.9 0 0 1 .9.9v5.2a.9.9 0 0 1-.9.9zm-46.1-1.8h45.2v-3.4h-45.2z"/><path fill="#231f20" d="M194.4 244h-6.1a1 1 0 0 1-.9-1v-23.5a.9.9 0 0 1 .9-.9h6.1a.9.9 0 0 1 .9.9V243a1 1 0 0 1-.9 1zm-5.2-1.9h4.3v-21.7h-4.3zM73.8 244h-6.1a1 1 0 0 1-.9-1v-23.5a.9.9 0 0 1 .9-.9h6.1a.9.9 0 0 1 .9.9V243a1 1 0 0 1-.9 1zm-5.2-1.9h4.3v-21.7h-4.3z"/><path fill="#231f20" d="M90.8 256H50.7a.9.9 0 0 1-.9-.9V243a.9.9 0 0 1 .9-.9h40.1a.9.9 0 0 1 .9.9v12.1a.9.9 0 0 1-.9.9zm-39.2-1.8h38.3V244H51.6zm159.8 1.8h-40.1a.9.9 0 0 1-.9-.9V243a.9.9 0 0 1 .9-.9h40.1a.9.9 0 0 1 .9.9v12.1a.9.9 0 0 1-.9.9zm-39.2-1.8h38.2V244h-38.2zm-81.4-50.4H52.5a.9.9 0 0 1-.9-1 .9.9 0 0 1 .9-.9h38.3a.9.9 0 0 1 .9.9.9.9 0 0 1-.9 1zm119.7 0h-38.3a.9.9 0 0 1-.9-1 .9.9 0 0 1 .9-.9h38.3a.9.9 0 0 1 .9.9.9.9 0 0 1-.9 1zm-106.6-95.1l-.5-.2-38.2-23.3a.9.9 0 0 1-.3-1.2.9.9 0 0 1 1.3-.3l38.2 23.3a.9.9 0 0 1 .3 1.2 1 1 0 0 1-.8.5zm47.6 0a1 1 0 0 1-.8-.5.8.8 0 0 1 .3-1.2l38.2-23.3a.9.9 0 0 1 .9 1.5L152 108.5z"/></svg>210.5,203.8Z"/><path d="M103.9,108.7l-.5-.2L65.2,85.2a.9.9,0,0,1-.3-1.2.9.9,0,0,1,1.3-.3L104.4,107a.9.9,0,0,1,.3,1.2A1,1,0,0,1,103.9,108.7Z"/><path d="M151.5,108.7a1,1,0,0,1-.8-.5.8.8,0,0,1,.3-1.2l38.2-23.3a.9.9,0,0,1,.9,1.5L152,108.5Z"/></svg>