<svg xmlns="http://www.w3.org/2000/svg" width="256" height="256" viewBox="0 0 256 256"><path d="M136.4 206l-.5-.2-1.7-1.3a1 1 0 0 1-.2-1.3.9.9 0 0 1 1.3-.2l1 .8 2.2-3-1.4-1.1a18.7 18.7 0 0 1-4.7-5.4l-.9-.2a.9.9 0 0 1-.6-1.1.8.8 0 0 1 1.1-.6l1.2.3a.7.7 0 0 1 .6.4 16.6 16.6 0 0 0 4.4 5.1l2.2 1.7a.9.9 0 0 1 .3.6.6.6 0 0 1-.2.7l-3.4 4.4a.9.9 0 0 1-.6.4z"/><path d="M144.4 204h-.6l-8.1-6.3a.9.9 0 0 1-.3-.6.8.8 0 0 1 .1-.7l10.1-13a.9.9 0 0 1 1.3-.1l8.1 6.2a.9.9 0 0 1 .3.6.6.6 0 0 1-.2.7l-10 13a1.1 1.1 0 0 1-.7.2zm-6.9-7.3l6.7 5.2 8.9-11.6-6.6-5.1zm-3.3-2.6a.7.7 0 0 1-.6-.2.8.8 0 0 1-.1-1.2l8.7-10.5-.9-5.9-10-6.6a.8.8 0 0 1-.3-1.2.9.9 0 0 1 1.2-.3l10.4 6.8a.7.7 0 0 1 .4.6l1 6.7a.8.8 0 0 1-.2.8l-8.9 10.7a1.1 1.1 0 0 1-.7.3z"/><path d="M148.8 218.2a1.3 1.3 0 0 1-.7-.4l-6.1-7.7a1 1 0 0 1-.2-.7l1.6-6.3a.9.9 0 0 1 1.1-.7 1 1 0 0 1 .6 1.1l-1.4 5.9 5.1 6.4 18.1-23.4-7.1-3.9-5.1 2.7a1 1 0 0 1-1.2-.4.9.9 0 0 1 .4-1.3l5.5-2.9a1 1 0 0 1 .9.1l8.4 4.6c.3.1.4.4.5.6a1.1 1.1 0 0 1-.2.8l-19.5 25.1a.8.8 0 0 1-.7.4z"/><path d="M144.1 224.3l-.6-.2a.9.9 0 0 1-.1-1.3l29.3-37.8a.9.9 0 0 1 1.3-.2 1 1 0 0 1 .1 1.3l-29.3 37.8a.8.8 0 0 1-.7.4zm6.7-36.9l-.6-.2-2.3-1.8a12.2 12.2 0 0 0-4.4-2.5 1.1 1.1 0 0 1-1.2-.7 1 1 0 0 1 .7-1.1h.7a11.8 11.8 0 0 1 5.3 2.8l1.6 1.3 2.3-3-.9-.7c-2.6-2-4.6-3.1-7.9-3.3h-1.3a.8.8 0 0 1-1-.8.9.9 0 0 1 .8-1h1.6c3.8.2 6.1 1.5 8.9 3.6l1.7 1.3a.9.9 0 0 1 .3.6.8.8 0 0 1-.2.7l-3.4 4.4a.9.9 0 0 1-.6.4zm-43-14.2a9.8 9.8 0 0 1 0-19.6 9.7 9.7 0 0 1 7.8 3.9.9.9 0 0 1-1.5 1.1 7.9 7.9 0 0 0-6.3-3.2 8 8 0 1 0 0 16 7.6 7.6 0 0 0 5.5-2.3 1 1 0 0 1 1.3 0 .9.9 0 0 1 0 1.3 9.7 9.7 0 0 1-6.8 2.8z"/><path d="M114.4 163.9h-.4l-13.1-5.7a.9.9 0 0 1 .7-1.7l13.2 5.7a.9.9 0 0 1 .4 1.2.9.9 0 0 1-.8.5zm-.8 6.7h-.3l-14.6-6.3a.9.9 0 0 1-.5-1.2.9.9 0 0 1 1.2-.5l14.6 6.3a.9.9 0 0 1 .5 1.2 1 1 0 0 1-.9.5zm81.7-68.7h-55.1a.9.9 0 0 1-.9-.9V32.6a.9.9 0 0 1 .9-.9h55.1a.9.9 0 0 1 .9.9V101a.9.9 0 0 1-.9.9zm-54.2-1.8h53.3V33.5h-53.3z"/><path d="M248 101.9h-52.7a.9.9 0 0 1-.9-.9V44a.9.9 0 0 1 1.2-.8l46.9 16.4a.9.9 0 0 1 .6.7l5.8 40.5a.9.9 0 0 1-.9 1.1zm-51.8-1.8H247l-5.6-39-45.2-15.8zm-56 1.8h-36.5a1.1 1.1 0 0 1-.9-.9l.5-40.6a.9.9 0 0 1 .6-.8l35.9-16.4a.9.9 0 0 1 .9.1.7.7 0 0 1 .4.7v57a.9.9 0 0 1-.9.9zm-35.5-1.8h34.6V45.5L105.1 61z"/><path d="M195.3 90.7h-47.6a.9.9 0 0 1-.9-.9v-23a.9.9 0 0 1 .9-.9h47.6a.9.9 0 0 1 .9.9v23a.9.9 0 0 1-.9.9zm-46.7-1.8h45.8V67.7h-45.8z"/><path d="M181.1 101.9a.9.9 0 0 1-.9-.9V91a.9.9 0 0 1 1.8 0v10a.9.9 0 0 1-.9.9zm0-34.2a.9.9 0 0 1-.9-.9V32.6a.9.9 0 0 1 1.8 0v34.2a.9.9 0 0 1-.9.9zm-14.2 34.2a.9.9 0 0 1-.9-.9V91a.9.9 0 0 1 1.8 0v10a.9.9 0 0 1-.9.9zm0-34.2a.9.9 0 0 1-.9-.9V32.6a.9.9 0 0 1 1.8 0v34.2a.9.9 0 0 1-.9.9zm-13.3 33.8a.9.9 0 0 1-1-.9V89.8a.9.9 0 0 1 1-.9.9.9 0 0 1 .9.9v10.8a.9.9 0 0 1-.9.9zm0-33.8a.9.9 0 0 1-1-.9V33.5a.9.9 0 0 1 1-.9.9.9 0 0 1 .9.9v33.3a.9.9 0 0 1-.9.9zM237.8 83h-18.9a1 1 0 0 1-.9-1V69.3a.9.9 0 0 1 .9-.9h18.9a.9.9 0 0 1 .9.9V82a1 1 0 0 1-.9 1zm-18-1.9h17.1V70.2h-17.1z"/><path d="M185.9 121.2h-26.8a1.1 1.1 0 0 1-.9-.7l-2.9-9.6-15.3-3.4a.9.9 0 0 1-.7-.9v-6a.9.9 0 1 1 1.8 0v5.3l15.1 3.4a.7.7 0 0 1 .7.6l2.9 9.4h25.5l5.8-12.8a1 1 0 0 1 .4-.5l13.3-5.9a.9.9 0 0 1 1.2.5.9.9 0 0 1-.5 1.2l-12.9 5.8-5.8 13a1 1 0 0 1-.9.6zm-82.2-25.1H79.1a.9.9 0 0 1-.9-.9V75.3a.9.9 0 0 1 .9-.9h24.6a1 1 0 0 1 1 .9v19.9a1 1 0 0 1-1 .9zM80 94.3h22.8V76.2H80zm107.7-8.7h-29.9a.9.9 0 1 1 0-1.8h29.9a.9.9 0 1 1 0 1.8zM48.5 96.8a9.6 9.6 0 1 1 9.6-9.6 9.6 9.6 0 0 1-9.6 9.6zm0-17.3a7.7 7.7 0 1 0 7.8 7.7 7.7 7.7 0 0 0-7.8-7.7zm79 2.8h-9.7a.9.9 0 0 1-.9-.9V66.8a.9.9 0 0 1 .9-.9h9.7a.9.9 0 0 1 .9.9v14.6a.9.9 0 0 1-.9.9zm-8.8-1.8h7.9V67.7h-7.9z"/><path d="M79.1 100.9H23.9a1.2 1.2 0 0 1-.8-.4.8.8 0 0 1-.1-.8l7.3-22.3a.9.9 0 0 1 .7-.6l48-9.4a1 1 0 0 1 .7.2.9.9 0 0 1 .3.7V100a.9.9 0 0 1-.9.9zm-54-1.9h53.1V69.4l-46.3 9.1z"/><path d="M59.2 110.8H43.1a.9.9 0 0 1-.7-.3l-4.1-5H17.9a.9.9 0 0 1-.9-.9V100a1 1 0 0 1 .9-1h6a1 1 0 0 1 .9 1 .9.9 0 0 1-.9.9h-5.1v2.8h19.9a.9.9 0 0 1 .7.3l4.1 5h15.3l4.1-4.7a.9.9 0 0 1 .7-.3h14.6v-4a.9.9 0 1 1 1.8 0v4.9a.9.9 0 0 1-.9.9H64l-4.1 4.7a.9.9 0 0 1-.7.3zm-13-18.7H17.3a.9.9 0 0 1-.9-.9 1 1 0 0 1 .9-1h28.9a1 1 0 0 1 .9 1 .9.9 0 0 1-.9.9zm-19.3-3h-.3l-6-2.1a.9.9 0 0 1-.6-.8v-3.5a.9.9 0 0 1 .7-.9l8.3-2.2a.8.8 0 0 1 1.1.6.9.9 0 0 1-.6 1.1l-7.7 2.1v2.1l5.4 1.9a.8.8 0 0 1 .6 1.1.9.9 0 0 1-.9.6zm66.9 7a.9.9 0 0 1-.9-.9v-6.1a.9.9 0 0 1 .3-.7l3.6-3-3.6-3.4a.7.7 0 0 1-.3-.6v-6.1a.9.9 0 1 1 1.8 0V81l4.1 3.8a.9.9 0 0 1 .3.7.7.7 0 0 1-.3.6l-4.1 3.4v5.7a.9.9 0 0 1-.9.9z"/><path d="M103.9 86.4h-5.7a1 1 0 0 1-.9-1 .9.9 0 0 1 .9-.9h5.7a.9.9 0 0 1 .9.9 1 1 0 0 1-.9 1zm22.4 10.5h-22.5a.9.9 0 0 1 0-1.8h22.3l4.2-2.1h3.1l2.4-47.2a.9.9 0 0 1 1-.9 1 1 0 0 1 .8 1L135.1 94a.8.8 0 0 1-.9.8h-3.3l-4.2 2.1zm95.4-2.3h-20.5a1 1 0 0 1-1-.8l-2.4-48.1a.9.9 0 0 1 .8-1 1.1 1.1 0 0 1 1 .9l2.4 47.2h19.3l4.8-5.2a.9.9 0 0 1 .7-.3h19.4a.9.9 0 0 1 0 1.8h-19l-4.9 5.2a.7.7 0 0 1-.6.3zm-105.1 14.7a1.1 1.1 0 0 1-.7-.3l-6.7-7.4a.9.9 0 1 1 1.4-1.2l6.7 7.4a.9.9 0 0 1-.1 1.3zm99 31.4a.7.7 0 0 1-.6-.2 1.1 1.1 0 0 1-.3-.6l-1.2-23.6a.8.8 0 0 1 .8-.9.8.8 0 0 1 1 .8l1.2 22.7 18.5-1.1-1.2-23.5a.8.8 0 0 1 .8-.9 1.1 1.1 0 0 1 1 .9l1.2 24.3a.8.8 0 0 1-.8.9l-20.3 1.2zM17.9 103.2H.9a.9.9 0 1 1 0-1.8h17a.9.9 0 0 1 0 1.8z"/><path d="M245 117.6h-9.6a.9.9 0 0 1 0-1.8h8.7V101a.9.9 0 0 1 1.8 0v15.7a.9.9 0 0 1-.9.9zm-59.3 10.3a8.1 8.1 0 0 1-8.2-7.1 1 1 0 0 1 .8-1.1.9.9 0 0 1 1 .8 6.4 6.4 0 1 0 9.6-6.4.9.9 0 0 1-.4-1.2 1 1 0 0 1 1.3-.3 8.2 8.2 0 0 1-4.1 15.3zm-26.1 0a8.2 8.2 0 0 1-3.2-15.8.8.8 0 0 1 1.1.5.9.9 0 0 1-.4 1.2 6.4 6.4 0 0 0 2.5 12.3 6.3 6.3 0 0 0 6.3-5.7 1 1 0 0 1 1-.8.9.9 0 0 1 .8 1 8.1 8.1 0 0 1-8.1 7.3z"/><path d="M224.4 125.4a11.2 11.2 0 1 1 11.2-11.1 11.1 11.1 0 0 1-11.2 11.1zm0-20.4a9.3 9.3 0 1 0 9.4 9.3 9.3 9.3 0 0 0-9.4-9.3zm3 65.6a9.8 9.8 0 1 1 9.8-9.8 9.8 9.8 0 0 1-9.8 9.8zm0-17.8a8 8 0 1 0 8 8 8 8 0 0 0-8-8z"/><path d="M218.6 163.4c-.5 0-.8-.4-.9-.9l-1.6-22.7a1.1 1.1 0 0 1 .9-1 .9.9 0 0 1 .9.9l1.6 22.7a.9.9 0 0 1-.8 1z"/><path d="M238.3 183.7h-17.2a1.1 1.1 0 0 1-.9-.8l-2.5-20.3a.9.9 0 0 1 .8-1 .8.8 0 0 1 1 .8l2.4 19.4h15.4l-2-20.9-1.6-22.1a.9.9 0 0 1 .8-1c.6 0 1 .3 1 .8l1.6 22.1 2.1 22a1.1 1.1 0 0 1-.3.7.7.7 0 0 1-.6.3z"/><path d="M236.9 198h-13.6a.7.7 0 0 1-.6-.3l-4.7-4.9a1.1 1.1 0 0 1-.3-.7l1.1-9.4a1.1 1.1 0 0 1 .9-.9h19.6a1.1 1.1 0 0 1 .9.6l3.8 8.5a.8.8 0 0 1-.2 1l-6.2 5.9zm-13.2-1.8h12.9l5.5-5.2-3.4-7.3h-18.2l-.9 8.1zm15.4 15.4h-16.4a.9.9 0 0 1-.9-.9v-10.2a.9.9 0 0 1 .9-.9h16.4a.9.9 0 0 1 .9.9v10.2a.9.9 0 0 1-.9.9zm-15.5-1.8h14.6v-8.4h-14.6zm-95.1 1.8h-16.4a.9.9 0 0 1-.9-.9v-10.2a.9.9 0 0 1 .9-.9h16.4a.9.9 0 0 1 .9.9v10.2a.9.9 0 0 1-.9.9zm-15.5-1.8h14.6v-8.4H113z"/><path d="M247.3 223.8h-31.8a.7.7 0 0 1-.6-.3 1.1 1.1 0 0 1-.3-.7l1.5-9.6a1.8 1.8 0 0 1 .5-.7l5.7-2.6a.9.9 0 0 1 1.2.5.8.8 0 0 1-.4 1.2l-5.3 2.4-1.2 8h29.6l-2-8-5.4-2.4a.9.9 0 0 1-.5-1.2.9.9 0 0 1 1.2-.5l5.9 2.6a1.8 1.8 0 0 1 .5.7l2.3 9.5a.8.8 0 0 1-.9 1.1z"/><path d="M255.1 223.8h-47.9a.9.9 0 0 1 0-1.8h47.9a.9.9 0 0 1 0 1.8zm-9.8-17.3h-5.6a.9.9 0 0 1-.9-.9v-2.8a16.2 16.2 0 0 0-1.4-6.5.9.9 0 0 1 .5-1.2 1 1 0 0 1 1.2.4 18.3 18.3 0 0 1 1.5 7.3v1.9h3.8v-1.2a15.9 15.9 0 0 0-2.9-9.2l-.7-1a.8.8 0 0 1 .2-1.2.9.9 0 0 1 1.3.2l.7 1a17.6 17.6 0 0 1 3.2 10.2v2.1a.9.9 0 0 1-.9.9zm-23.5 0h-5.6a.9.9 0 0 1-.9-.9v-2.1c0-3.5.4-6.2 2.6-9.3l1-1a.9.9 0 1 1 1.4 1.2l-1 1a13.2 13.2 0 0 0-2.2 8.2v1.2h3.8v-2a12.9 12.9 0 0 1 1-6l.3-.3.2-.2a.9.9 0 0 1 1.1 1.5 10.2 10.2 0 0 0-.8 5v2.9a.9.9 0 0 1-.9.8zm-18.2 5.1h-16.4a.9.9 0 0 1-.9-.9v-10.2a.9.9 0 0 1 .9-.9h16.4a1 1 0 0 1 1 .9v10.2a1 1 0 0 1-1 .9zm-15.4-1.8h14.5v-8.4h-14.5z"/><path d="M211.9 223.8h-31.8a.9.9 0 0 1-.7-.3.7.7 0 0 1-.2-.7l1.4-9.6a1.3 1.3 0 0 1 .6-.7l5.7-2.6a.9.9 0 1 1 .7 1.7l-5.2 2.4-1.3 8h29.6l-2-8-5.4-2.4a.9.9 0 1 1 .7-1.7l5.9 2.6a1.8 1.8 0 0 1 .5.7l2.3 9.5a1.1 1.1 0 0 1-.1.8 1.1 1.1 0 0 1-.7.3z"/><path d="M219.6 223.8h-47.9a.9.9 0 0 1 0-1.8h47.9a.9.9 0 0 1 0 1.8zm-9.8-17.3h-5.6a.9.9 0 0 1-.9-.9v-2.8a14.6 14.6 0 0 0-1.4-6.5.9.9 0 0 1 .5-1.2.9.9 0 0 1 1.2.4 18.3 18.3 0 0 1 1.5 7.3v1.9h3.8v-1.2a15.9 15.9 0 0 0-2.9-9.2l-.7-1a.9.9 0 0 1 .3-1.2.8.8 0 0 1 1.2.2l.7 1a17.6 17.6 0 0 1 3.2 10.2v2.1a.9.9 0 0 1-.9.9zm-23.5 0h-5.6a.9.9 0 0 1-.9-.9v-2.1c0-3.5.4-6.2 2.6-9.3h.1l.9-1a.9.9 0 1 1 1.4 1.2l-.9 1c-1.9 2.7-2.3 5-2.3 8.2v1.2h3.8v-2a12.9 12.9 0 0 1 1-6l.3-.3.2-.2a.9.9 0 0 1 1.3.2.9.9 0 0 1-.2 1.3 10.2 10.2 0 0 0-.8 5v2.9a.9.9 0 0 1-.9.8zm28.2-88.7a.8.8 0 0 1-.7-.4.9.9 0 0 1 .2-1.3l16.2-10.6a.9.9 0 0 1 1.3.2 1.1 1.1 0 0 1-.3 1.3L215 117.6zm4.5 5.6a1 1 0 0 1-.8-.5 1 1 0 0 1 .3-1.2l15-9.9a.9.9 0 0 1 1.3.3 1 1 0 0 1-.3 1.2l-15 9.9zm-.5 38.9a.9.9 0 0 1-.8-.5.9.9 0 0 1 .4-1.2l15.4-6.7a.9.9 0 0 1 1.2.5 1 1 0 0 1-.4 1.2l-15.4 6.6zm2.2 6a1 1 0 0 1-.8-.5.9.9 0 0 1 .5-1.2l15.4-6.7a.9.9 0 0 1 .7 1.7l-15.4 6.6zm-21.4 2.3a9.8 9.8 0 1 1 9.8-9.8 9.8 9.8 0 0 1-9.8 9.8zm0-17.8a8 8 0 1 0 8 8 8 8 0 0 0-8-8z"/><path d="M190.4 162.3a.8.8 0 0 1-.8-.5.9.9 0 0 1 .4-1.2l15.4-6.7a.9.9 0 0 1 1.2.5 1 1 0 0 1-.4 1.2l-15.4 6.6zm2.7 5.8a1 1 0 0 1-.8-.5.9.9 0 0 1 .5-1.2l14.9-6.5a.9.9 0 1 1 .7 1.7l-14.9 6.4zm-57.8-27.4l-20.3-1.2a.8.8 0 0 1-.8-.9l1.2-24.3a.9.9 0 0 1 1-.9.8.8 0 0 1 .8.9l-1.2 23.5 18.5 1.1 1.2-22.7a.8.8 0 0 1 1-.8.8.8 0 0 1 .8.9l-1.2 23.6-.3.6a.8.8 0 0 1-.7.2z"/><path d="M129.9 183.7h-17.2a.7.7 0 0 1-.6-.3 1.1 1.1 0 0 1-.3-.7l2.1-22 1.6-22.1a.8.8 0 0 1 .9-.8 1 1 0 0 1 .9 1l-1.6 22.1-2 20.9h15.4l2.4-19.4a.8.8 0 0 1 1-.8.9.9 0 0 1 .8 1l-2.5 20.3a1.1 1.1 0 0 1-.9.8zm-3.3-58.3a11.2 11.2 0 1 1 11.1-11.1 11.2 11.2 0 0 1-11.1 11.1zm0-20.4a9.3 9.3 0 1 0 9.3 9.3 9.4 9.4 0 0 0-9.3-9.3z"/><path d="M123.6 170.6a9.8 9.8 0 1 1 9.8-9.8 9.8 9.8 0 0 1-9.8 9.8zm0-17.8a8 8 0 1 0 8 8 8 8 0 0 0-8-8z"/><path d="M132.4 163.4h-.1a.9.9 0 0 1-.8-1l1.6-22.7a.9.9 0 0 1 .9-.9 1.1 1.1 0 0 1 .9 1l-1.6 22.7a1.1 1.1 0 0 1-.9.9zm-4.7 34.6h-13.6l-.7-.2-6.3-5.9a1.2 1.2 0 0 1-.2-1l3.9-8.5a1.1 1.1 0 0 1 .9-.6h19.6a1.1 1.1 0 0 1 .9.9l1.1 9.4a1.1 1.1 0 0 1-.3.7l-4.7 4.9a.7.7 0 0 1-.6.3zm-13.3-1.8h12.9l4.1-4.4-.9-8.1h-18.3l-3.3 7.3zm86.4 1.6h-.1l-13.5-1.2a.9.9 0 0 1-.6-.3l-5.8-6.4a1.1 1.1 0 0 1-.1-1.1l4.7-8.1a.7.7 0 0 1 .8-.4l19.6 1.7a.9.9 0 0 1 .8.9l.2 9.4a1.1 1.1 0 0 1-.3.8l-5.1 4.5zm-13.1-3l12.8 1.1 4.5-3.9-.2-8.3-18.1-1.6-4.1 7.1zm-52.3 29h-31.7a.8.8 0 0 1-.9-1.1l2.3-9.5a1.8 1.8 0 0 1 .5-.7l5.9-2.6a.9.9 0 0 1 1.2.5.9.9 0 0 1-.5 1.2l-5.4 2.4-2 8h29.6l-1.3-8-5.2-2.4a.9.9 0 0 1-.5-1.2 1 1 0 0 1 1.3-.5l5.7 2.6a1.8 1.8 0 0 1 .5.7l1.4 9.6a.7.7 0 0 1-.2.7.8.8 0 0 1-.7.3z"/><path d="M143.8 223.8H95.9a.9.9 0 0 1 0-1.8h47.9a.9.9 0 1 1 0 1.8zm-32.5-17.3h-5.6a.9.9 0 0 1-.9-.9v-2.1a17.6 17.6 0 0 1 3.2-10.2l.7-1a.8.8 0 0 1 1.2-.2.8.8 0 0 1 .3 1.2l-.7 1a15.9 15.9 0 0 0-2.9 9.2v1.2h3.8v-1.9a18.3 18.3 0 0 1 1.5-7.3.9.9 0 0 1 1.2-.4.9.9 0 0 1 .5 1.2 14.6 14.6 0 0 0-1.4 6.5v2.8a.9.9 0 0 1-.9.9zm23.5 0h-5.6a.9.9 0 0 1-.9-.9v-2.9a10.2 10.2 0 0 0-.8-5 .9.9 0 1 1 1.1-1.5l.2.2.3.3a12.9 12.9 0 0 1 1 6v2h3.8v-1.2c0-3.2-.4-5.5-2.3-8.2l-.9-1a.9.9 0 1 1 1.4-1.2l.9 1h.1c2.2 3.1 2.6 5.8 2.6 9.3v2.1a.9.9 0 0 1-.9 1zm1.7-88.7l-.5-.2-16.2-10.6a1.1 1.1 0 0 1-.3-1.3.9.9 0 0 1 1.3-.2l16.2 10.6a.9.9 0 0 1 .2 1.3.8.8 0 0 1-.7.4zm-4.5 5.6l-.5-.2-15-9.9a1 1 0 0 1-.3-1.2.9.9 0 0 1 1.3-.3l15 9.9a.8.8 0 0 1 .2 1.2.8.8 0 0 1-.7.5zm.5 38.9h-.4l-15.4-6.6a1 1 0 0 1-.4-1.2.9.9 0 0 1 1.2-.5l15.3 6.7a.9.9 0 0 1-.3 1.7zm-3 5.7h-.3l-14.7-6.3a.9.9 0 0 1 .7-1.7l14.7 6.4a1 1 0 0 1 .5 1.2 1.1 1.1 0 0 1-.9.4zm57.3 14.1h-.2a.9.9 0 0 1-.7-1.1l3.6-20.4a.9.9 0 0 1 1.1-.7.9.9 0 0 1 .7 1l-3.6 20.4a.9.9 0 0 1-.9.8zm17.8 0h-.2a.9.9 0 0 1-.7-1.1l3-17.1a.9.9 0 0 1 1.1-.7.8.8 0 0 1 .7 1l-3 17.1a.9.9 0 0 1-.9.8zm10.5-48.8h-79.2a.9.9 0 0 1-.9-.8.9.9 0 0 1 .5-1l17.7-7.8a.9.9 0 1 1 .7 1.7l-13.7 6h69.2l-18.5-6a1 1 0 0 1-.6-1.1.9.9 0 0 1 1.2-.6l23.9 7.8a.9.9 0 0 1 .6 1 1.1 1.1 0 0 1-.9.8z"/><path d="M207.9 163.4h-.3a.9.9 0 0 1-.6-1.1l7.8-22.7a.9.9 0 0 1 1.1-.5.8.8 0 0 1 .6 1.1l-7.7 22.7a1.1 1.1 0 0 1-.9.5zm-17.1-4.4h-.3a.8.8 0 0 1-.6-1.1l8.8-25.8a.9.9 0 0 1 1.1-.5.8.8 0 0 1 .6 1.1l-8.8 25.8a1 1 0 0 1-.8.5zm-78.7 20a.7.7 0 0 1-.6-.2l-10.2-8.1a.9.9 0 0 1-.2-1.3 1.1 1.1 0 0 1 1.3-.1l10.3 8.1a1 1 0 0 1 .1 1.3.9.9 0 0 1-.7.3zm-12.2-18.8h-.4a1 1 0 0 1-.4-1.2l15.5-32.2a1 1 0 0 1 1.3-.5 1.1 1.1 0 0 1 .4 1.3l-15.6 32.2a.9.9 0 0 1-.8.4z"/></svg>