<svg id="Layer_1" data-name="Layer 1" xmlns="http://www.w3.org/2000/svg" width="256" height="256" viewBox="0 0 256 256"><title>bb8</title><path d="M128,256a79.6,79.6,0,0,1-25.1-155.1.8.8,0,0,1,1.1.6.8.8,0,0,1-.6,1.1,77.8,77.8,0,1,0,47.7-.5.8.8,0,0,1-.6-1.1.9.9,0,0,1,1.1-.6,79.7,79.7,0,0,1,40.1,28.4,78.6,78.6,0,0,1,15.9,47.6A79.7,79.7,0,0,1,128,256Z"/><path d="M171.3,92.1H84.7a.9.9,0,0,1-.9-.9V81.1a44.2,44.2,0,1,1,88.4,0V91.2A.9.9,0,0,1,171.3,92.1ZM85.6,90.3h84.8V81.1a42.4,42.4,0,0,0-84.8,0Z"/><path d="M128,75.4a11,11,0,1,1,11-10.9A11,11,0,0,1,128,75.4Zm0-20.1a9.2,9.2,0,1,0,9.2,9.2A9.2,9.2,0,0,0,128,55.3Z"/><path d="M128,68.6a4.2,4.2,0,1,1,4.1-4.1A4.1,4.1,0,0,1,128,68.6Zm0-6.5a2.4,2.4,0,1,0,2.3,2.4A2.3,2.3,0,0,0,128,62.1Z"/><path d="M148,84.3a8,8,0,0,1-8.1-8,8.1,8.1,0,1,1,16.1,0A8,8,0,0,1,148,84.3Zm0-14.2a6.2,6.2,0,1,0,6.2,6.2A6.3,6.3,0,0,0,148,70.1Z"/><path d="M123.1,38.7a.9.9,0,0,1-.9-.9V21.1a.9.9,0,0,1,1.8,0V37.8A.9.9,0,0,1,123.1,38.7Z"/><path d="M130.6,38.7a.9.9,0,0,1-.9-.9V.9a.9.9,0,0,1,1.8,0V37.8A.9.9,0,0,1,130.6,38.7Z"/><path d="M107.3,92.1a.9.9,0,0,1-.9-.9V84.3H84.7a.9.9,0,1,1,0-1.8h22.6a.9.9,0,0,1,.9.9v7.8A.9.9,0,0,1,107.3,92.1Z"/><path d="M128,102.2H96.9a.8.8,0,0,1-.6-.2L84.1,91.9a.9.9,0,0,1,1.2-1.4l11.9,9.9H128a.9.9,0,0,1,0,1.8Z"/><path d="M159.7,102.2H128.6a.9.9,0,0,1,0-1.8h30.8l11.3-9.9a1.1,1.1,0,0,1,1.3.1.9.9,0,0,1-.1,1.3L160.3,102Z"/><path d="M155.1,49.3H99.6a.9.9,0,1,1,0-1.8h55.5a.9.9,0,1,1,0,1.8Z"/><path d="M111,55.3H93.9a.9.9,0,0,1,0-1.8H111a.9.9,0,1,1,0,1.8Z"/><path d="M161.7,55.3H144.6a.9.9,0,0,1,0-1.8h17.1a.9.9,0,1,1,0,1.8Z"/><path d="M119.3,210h-.2a35.4,35.4,0,0,1-24.3-24.3,1,1,0,0,1,.2-.7.7.7,0,0,1,.6-.4l17.4-2.4V170.5l-17.4-2.6a1,1,0,0,1-.7-.4,1.7,1.7,0,0,1-.1-.7,35.4,35.4,0,0,1,24.3-24.3.9.9,0,0,1,.7.1,1,1,0,0,1,.4.7l2.4,17.4h11.7l2.6-17.5c0-.2.2-.4.4-.6a.9.9,0,0,1,.7-.1,35.4,35.4,0,0,1,24.3,24.2,1.1,1.1,0,0,1-.1.8,1,1,0,0,1-.7.4l-17.4,2.4V182l17.5,2.6c.2,0,.4.2.6.4a.9.9,0,0,1,.1.7A35.4,35.4,0,0,1,138.1,210h-.8a1.6,1.6,0,0,1-.4-.7l-2.4-17.4H122.8l-2.6,17.4a1,1,0,0,1-.4.7ZM96.9,186.2a33.1,33.1,0,0,0,21.7,21.7l2.5-17.2a1,1,0,0,1,.9-.7h13.3a.8.8,0,0,1,.9.7l2.4,17.2a33.6,33.6,0,0,0,21.7-21.7l-17.2-2.5a.9.9,0,0,1-.8-.9V169.5a.8.8,0,0,1,.8-.9l17.2-2.4a33.9,33.9,0,0,0-21.8-21.7L136,161.7a.9.9,0,0,1-.9.8H121.8a.9.9,0,0,1-.9-.8l-2.3-17.2a33.5,33.5,0,0,0-21.7,21.8l17.2,2.5a1,1,0,0,1,.7.9V183a1,1,0,0,1-.7.9Z"/><path d="M128.6,185.4a9.2,9.2,0,1,1,9.1-9.2A9.2,9.2,0,0,1,128.6,185.4Zm0-16.5a7.4,7.4,0,1,0,7.3,7.3A7.4,7.4,0,0,0,128.6,168.9Z"/><path d="M128.6,221.9a45.7,45.7,0,1,1,45.6-45.7A45.8,45.8,0,0,1,128.6,221.9Zm0-89.5a43.9,43.9,0,1,0,43.8,43.8A43.9,43.9,0,0,0,128.6,132.4Z"/><path d="M63.7,222.7h-.2a.8.8,0,0,1-.7-1,231.4,231.4,0,0,0,3.8-43.4c0-16.8-1.5-32.8-4.3-46.1A.9.9,0,0,1,63,131a.8.8,0,0,1,1,.7c2.9,13.5,4.4,29.6,4.4,46.5a234.7,234.7,0,0,1-3.8,43.7A.9.9,0,0,1,63.7,222.7Z"/><path d="M191.4,222.7a.9.9,0,0,1-.9-.8,244,244,0,0,1-3.7-43.7,234.4,234.4,0,0,1,4.3-46.5.9.9,0,1,1,1.8.4c-2.8,13.3-4.3,29.3-4.3,46.1a240.6,240.6,0,0,0,3.7,43.4.8.8,0,0,1-.7,1Z"/><path d="M126.6,117.8A234.7,234.7,0,0,1,82.9,114a.9.9,0,0,1-.7-1.1.9.9,0,0,1,1-.7,231.4,231.4,0,0,0,43.4,3.8,231.3,231.3,0,0,0,46.2-4.3.9.9,0,0,1,1,.7.8.8,0,0,1-.7,1C159.6,116.3,143.6,117.8,126.6,117.8Z"/><path d="M172.9,241.9h-.1c-13.4-2.9-29.4-4.3-46.2-4.3a240.6,240.6,0,0,0-43.4,3.7.8.8,0,0,1-1-.7.9.9,0,0,1,.7-1.1,244,244,0,0,1,43.7-3.7,233.7,233.7,0,0,1,46.5,4.3.9.9,0,0,1,.7,1.1A.9.9,0,0,1,172.9,241.9Z"/><path d="M128.6,132.4a.9.9,0,0,1-.9-.9V116.9a.9.9,0,1,1,1.8,0v14.6A.9.9,0,0,1,128.6,132.4Z"/><path d="M128.6,237.6a.9.9,0,0,1-.9-.9V221.8a.9.9,0,0,1,1.8,0v14.9A.9.9,0,0,1,128.6,237.6Z"/><path d="M187.7,177.1H173.3a.9.9,0,0,1,0-1.8h14.4a.9.9,0,0,1,0,1.8Z"/><path d="M83.8,177.1H67.5a.9.9,0,0,1,0-1.8H83.8a.9.9,0,0,1,0,1.8Z"/><path d="M158,92.1a.9.9,0,0,1-.9-.9V83.4a.9.9,0,0,1,.9-.9h13.3a.9.9,0,0,1,0,1.8H158.9v6.9A.9.9,0,0,1,158,92.1Z"/><path d="M85.2,136.5a3.7,3.7,0,0,1-3.7-3.6,3.8,3.8,0,0,1,3.7-3.7,3.7,3.7,0,0,1,3.6,3.7A3.6,3.6,0,0,1,85.2,136.5Zm0-5.5a1.9,1.9,0,0,0-1.8,1.9,1.8,1.8,0,1,0,3.6,0A1.9,1.9,0,0,0,85.2,131Z"/><path d="M85.8,223.3a3.7,3.7,0,0,1-3.6-3.7,3.6,3.6,0,0,1,7.2,0A3.7,3.7,0,0,1,85.8,223.3Zm0-5.5a1.8,1.8,0,0,0-1.8,1.8,1.8,1.8,0,1,0,3.6,0A1.8,1.8,0,0,0,85.8,217.8Z"/><path d="M171.9,136.5a3.6,3.6,0,0,1-3.6-3.6,3.7,3.7,0,0,1,3.6-3.7,3.8,3.8,0,0,1,3.7,3.7A3.7,3.7,0,0,1,171.9,136.5Zm0-5.5a1.9,1.9,0,0,0-1.8,1.9,1.8,1.8,0,0,0,1.8,1.8,1.8,1.8,0,0,0,1.9-1.8A1.9,1.9,0,0,0,171.9,131Z"/><path d="M171.9,223.3a3.7,3.7,0,0,1-3.6-3.7,3.6,3.6,0,0,1,3.6-3.6,3.7,3.7,0,0,1,3.7,3.6A3.8,3.8,0,0,1,171.9,223.3Zm0-5.5a1.8,1.8,0,0,0-1.8,1.8,1.9,1.9,0,1,0,3.7,0A1.8,1.8,0,0,0,171.9,217.8Z"/></svg>