<svg id="Layer_1" data-name="Layer 1" xmlns="http://www.w3.org/2000/svg" width="256" height="256" viewBox="0 0 256 256"><title>boba-fett</title><path d="M196.6,125.5H58.4a.7.7,0,0,1-.6-.3.7.7,0,0,1-.2-.7c3-22.8,9-37.1,19.4-46.5s26.9-14.3,50.5-14.3,39.2,3.7,49.8,12.2,18.1,24.7,20.2,48.6a1,1,0,0,1-.2.7A.9.9,0,0,1,196.6,125.5ZM59.5,123.7H195.7c-2.2-22.9-8.5-37.6-19.5-46.4s-25.3-11.8-48.7-11.8C83.4,65.5,65.5,80.7,59.5,123.7Z"/><path d="M128.3,254H110.5a.9.9,0,0,1-.9-.9V150l-46.5-7.6a.9.9,0,0,1-.8-.9v-6.3a.9.9,0,0,1,.9-.9h65.1a.9.9,0,0,1,0,1.8H64.1v4.6l46.5,7.7a.9.9,0,0,1,.8.9V252.2h16.9a.9.9,0,1,1,0,1.8Z"/><path d="M146.1,254H128.3a.9.9,0,0,1,0-1.8h16.9V149.3a.9.9,0,0,1,.7-.9l46.5-7.7v-4.6H128.3a.9.9,0,1,1,0-1.8h65a.9.9,0,0,1,.9.9v6.3a1,1,0,0,1-.7.9L146.9,150V253.1A.9.9,0,0,1,146.1,254Z"/><path d="M146.1,254a1.1,1.1,0,0,1-.9-.5.9.9,0,0,1,.5-1.2l60.1-26.5L195.7,124.7a1,1,0,0,1,.8-1,.8.8,0,0,1,1,.8l10.2,101.8a1,1,0,0,1-.6.9l-60.7,26.7Z"/><path d="M153.7,250.3a.9.9,0,0,1-.9-.9V198.3a45.1,45.1,0,0,1,14.3-32.8,46,46,0,0,1,31.3-13,.9.9,0,0,1,0,1.8c-25.8,0-43.8,23.2-43.8,44v51.1A.9.9,0,0,1,153.7,250.3Z"/><path d="M109.3,254H109L48.2,227.2a1.1,1.1,0,0,1-.5-.9l9.9-101.8a.8.8,0,0,1,.9-.8.8.8,0,0,1,.8,1L49.5,225.8l60.2,26.5a.9.9,0,0,1,.4,1.2A.8.8,0,0,1,109.3,254Z"/><path d="M101.7,250.3a.9.9,0,0,1-.9-.9V198.3c0-20.8-18-44-43.8-44a.9.9,0,1,1,0-1.8c11.2,0,22.5,4.7,31.2,13a44.8,44.8,0,0,1,14.4,32.8v51.1A.9.9,0,0,1,101.7,250.3Z"/><path d="M140,119.7h-7.2a.9.9,0,0,1,0-1.8H140a.9.9,0,1,1,0,1.8Z"/><path d="M126.3,119.7h-7.2a.9.9,0,0,1,0-1.8h7.2a.9.9,0,0,1,0,1.8Z"/><path d="M54.2,114a.9.9,0,0,1-.9-.9V19.7a.9.9,0,1,1,1.8,0v93.4A.9.9,0,0,1,54.2,114Z"/><path d="M57.6,19.9H50.4a1,1,0,0,1-.9-.6L45.4,8.7a.9.9,0,0,1,.5-1.1L57.2,2.1h.4L91.5,4.7a1.1,1.1,0,0,1,.9.9V9.7a.9.9,0,0,1-.8.9c-.3.1-27.2,2.8-33.4,9ZM51,18.1h6.2C63.7,12.2,86,9.5,90.6,8.9V6.5L57.7,3.8l-10.3,5Z"/><path d="M48.6,227.3a1.2,1.2,0,0,1-.8-.4L39.9,215a1.4,1.4,0,0,1-.2-.6L49.8,113a.9.9,0,0,1,.9-.8h9.7a.9.9,0,1,1,0,1.8H51.5l-10,100.2,7.8,11.7a.8.8,0,0,1-.2,1.2Z"/><path d="M206.8,227.3l-.5-.2a.8.8,0,0,1-.2-1.2l8.4-11.7L204.5,114h-8.9a.9.9,0,0,1,0-1.8h9.7a.9.9,0,0,1,.9.8l10.1,101.4a1.4,1.4,0,0,1-.2.6l-8.6,11.9A1,1,0,0,1,206.8,227.3Z"/><path d="M156.5,248.3a.9.9,0,0,1-.9-.9c0-17.9,4.4-68.7,23.9-68.7s27.6,44.2,28,46.1a.9.9,0,0,1-1.7.3c-.1-.4-9.5-44.7-26.3-44.7-9.2,0-14.5,13.9-17.3,25.4a194.4,194.4,0,0,0-4.8,41.6A.9.9,0,0,1,156.5,248.3Z"/><path d="M100.6,248.3a.9.9,0,0,1-.9-.9c0-10.2-1.2-27.2-4.7-41.6-2.9-11.5-8.2-25.4-17.3-25.4s-15.4,12.1-19.5,22.2a153.8,153.8,0,0,0-6.8,22.5.9.9,0,0,1-1.1.7.8.8,0,0,1-.7-1c.4-1.9,9.7-46.1,28.1-46.1s23.8,50.8,23.8,68.7A.9.9,0,0,1,100.6,248.3Z"/></svg>