<svg id="Layer_1" data-name="Layer 1" xmlns="http://www.w3.org/2000/svg" width="256" height="256" viewBox="0 0 256 256"><title>bomb-fighter</title><path d="M83.4,138.3a10,10,0,1,1,0-19.9,10,10,0,0,1,0,19.9Zm0-18.1a8.2,8.2,0,0,0-8.2,8.1,8.2,8.2,0,0,0,8.2,8.2,8.2,8.2,0,0,0,8.1-8.2A8.1,8.1,0,0,0,83.4,120.2Z"/><path d="M83.4,147.1a18.8,18.8,0,1,1,18.7-18.8A18.8,18.8,0,0,1,83.4,147.1Zm0-35.6a16.9,16.9,0,1,0,16.9,16.8A16.8,16.8,0,0,0,83.4,111.5Z"/><path d="M83.4,151.2a22.9,22.9,0,1,1,22.9-22.9A22.8,22.8,0,0,1,83.4,151.2Zm0-43.9a21.1,21.1,0,1,0,21,21A21,21,0,0,0,83.4,107.3Z"/><path d="M83.4,161.4a33.1,33.1,0,1,1,33-33.1A33.1,33.1,0,0,1,83.4,161.4Zm0-64.2a31.2,31.2,0,1,0,31.1,31.1A31.2,31.2,0,0,0,83.4,97.2Z"/><path d="M172.9,161.4a33.1,33.1,0,1,1,33-33.1A33.1,33.1,0,0,1,172.9,161.4Zm0-64.2a31.2,31.2,0,1,0,31.2,31.1A31.2,31.2,0,0,0,172.9,97.2Z"/><path d="M83.4,120.2a1,1,0,0,1-1-.9v-8.8a1,1,0,0,1,1-.9.9.9,0,0,1,.9.9v8.8A.9.9,0,0,1,83.4,120.2Z"/><path d="M77,122.8a.8.8,0,0,1-.7-.2l-6.2-6.2a1.1,1.1,0,0,1,0-1.3.9.9,0,0,1,1.3,0l6.2,6.2a.9.9,0,0,1,0,1.3A.7.7,0,0,1,77,122.8Z"/><path d="M74.3,129.3H65.6a1,1,0,0,1-1-1,.9.9,0,0,1,1-.9h8.7a.9.9,0,0,1,.9.9A1,1,0,0,1,74.3,129.3Z"/><path d="M70.8,141.9a.9.9,0,0,1-.7-.3,1,1,0,0,1,0-1.3l6.2-6.2a1.1,1.1,0,0,1,1.3,0,.9.9,0,0,1,0,1.3l-6.2,6.2A.9.9,0,0,1,70.8,141.9Z"/><path d="M83.4,147.1a1,1,0,0,1-1-.9v-8.8a1,1,0,0,1,1-.9.9.9,0,0,1,.9.9v8.8A.9.9,0,0,1,83.4,147.1Z"/><path d="M96,141.9a.9.9,0,0,1-.7-.3l-6.2-6.2a.9.9,0,0,1,1.3-1.3l6.2,6.2a.9.9,0,0,1,0,1.3A.9.9,0,0,1,96,141.9Z"/><path d="M101.2,129.3H92.4a1,1,0,0,1-.9-1,.9.9,0,0,1,.9-.9h8.8a.9.9,0,0,1,.9.9A1,1,0,0,1,101.2,129.3Z"/><path d="M89.8,122.8a.8.8,0,0,1-.7-.2,1,1,0,0,1,0-1.3l6.2-6.2a.9.9,0,0,1,1.3,1.3l-6.2,6.2A.7.7,0,0,1,89.8,122.8Z"/><path d="M227.9,129.3a1,1,0,0,1-.9-1V120l-25.7-6.1a.8.8,0,0,1-.6-1.1.9.9,0,0,1,1.1-.7l26.3,6.3a1,1,0,0,1,.7.9v9A1,1,0,0,1,227.9,129.3Z"/><path d="M201.5,145.4a.7.7,0,0,1-.8-.7.9.9,0,0,1,.7-1.1l25.6-5.5V127.6a.9.9,0,0,1,1.8,0v11.2a.8.8,0,0,1-.7.9l-26.4,5.7Z"/><path d="M102.2,103.3H64.5a1,1,0,0,1-.9-1,.9.9,0,0,1,.9-.9h37.7a.9.9,0,0,1,.9.9A1,1,0,0,1,102.2,103.3Z"/><path d="M102.2,155.3H64.5a1,1,0,0,1-.9-1,.9.9,0,0,1,.9-.9h37.7a.9.9,0,0,1,.9.9A1,1,0,0,1,102.2,155.3Z"/><path d="M207.3,129.3h-2.2a1,1,0,0,1-.9-1,.9.9,0,0,1,.9-.9h2.2a.9.9,0,0,1,.9.9A1,1,0,0,1,207.3,129.3Z"/><path d="M51.3,129.3a.9.9,0,0,1-.7-.3l-.2-.3c0-.1-.1-.2-.1-.4s.2-.4.3-.6l.3-.2h.7l.3.2a.9.9,0,0,1,.3.6c0,.2,0,.3-.1.4s-.1.2-.2.3Z"/><path d="M60.7,152a.9.9,0,0,1-.7-.3,1,1,0,0,1,0-1.3l7.2-7.2a.9.9,0,0,1,1.3,1.3l-7.2,7.2A.9.9,0,0,1,60.7,152Z"/><path d="M106.1,152a.9.9,0,0,1-.7-.3l-7.1-7.2a.9.9,0,0,1,0-1.3,1,1,0,0,1,1.3,0l7.1,7.2a.9.9,0,0,1,0,1.3A.9.9,0,0,1,106.1,152Z"/><path d="M222.5,129.3H207.4a1,1,0,0,1-.9-1,.9.9,0,0,1,.9-.9h15.1a.9.9,0,0,1,.9.9A1,1,0,0,1,222.5,129.3Z"/><path d="M98.9,113.7a.7.7,0,0,1-.6-.3.7.7,0,0,1,0-1.2l7.1-7.2a.9.9,0,0,1,1.3,1.3l-7.1,7.1A1.1,1.1,0,0,1,98.9,113.7Z"/><path d="M67.8,113.7a.7.7,0,0,1-.6-.3L60,106.3a1.1,1.1,0,0,1,0-1.3.9.9,0,0,1,1.3,0l7.2,7.2a.9.9,0,0,1,0,1.2A1.1,1.1,0,0,1,67.8,113.7Z"/><path d="M233.3,135.5H222.5a.9.9,0,0,1-.9-.9V122.1a.9.9,0,0,1,.9-.9h10.8a.9.9,0,0,1,.9.9v12.5A.9.9,0,0,1,233.3,135.5Zm-9.9-1.8h8.9V123h-8.9Z"/><path d="M237,137.8h-3.7a1,1,0,0,1-1-.9v-17a1,1,0,0,1,1-.9H237a.9.9,0,0,1,.9.9v17A.9.9,0,0,1,237,137.8Zm-2.8-1.9h1.9V120.8h-1.9Z"/><path d="M242.2,135.3H237a.9.9,0,0,1-.9-.9V122.3a.9.9,0,0,1,.9-.9h5.2a.9.9,0,0,1,.9.9v12.1A.9.9,0,0,1,242.2,135.3Zm-4.3-1.8h3.4V123.2h-3.4Z"/><path d="M242.2,123.2l-.6-.2a.9.9,0,0,1-.1-1.3l3-3.5a.9.9,0,0,1,1.3,0,.8.8,0,0,1,.1,1.2l-3,3.5A1.1,1.1,0,0,1,242.2,123.2Z"/><path d="M242.2,123.2l-.6-.2a.9.9,0,0,1-.1-1.3l3-3.5a.9.9,0,0,1,1.3,0,.8.8,0,0,1,.1,1.2l-3,3.5A1.1,1.1,0,0,1,242.2,123.2Z"/><path d="M245.2,138.8a.8.8,0,0,1-.7-.4l-3-3.4a.9.9,0,0,1,.1-1.3.9.9,0,0,1,1.3.1l3,3.4a.9.9,0,0,1-.1,1.3A.9.9,0,0,1,245.2,138.8Z"/><path d="M245.2,138.8a.8.8,0,0,1-.7-.4l-3-3.4a.9.9,0,0,1,.1-1.3.9.9,0,0,1,1.3.1l3,3.4a.9.9,0,0,1-.1,1.3A.9.9,0,0,1,245.2,138.8Z"/><path d="M242.2,123.2l-.6-.2a.9.9,0,0,1-.1-1.3l3-3.5a.9.9,0,0,1,1.3,0,.8.8,0,0,1,.1,1.2l-3,3.5A1.1,1.1,0,0,1,242.2,123.2Z"/><path d="M249.5,138.8a.6.6,0,0,1-.6-.3.9.9,0,0,1-.1-1.3l2.7-3.1V122.6l-2.7-3.2a.8.8,0,0,1,.1-1.2.8.8,0,0,1,1.2,0l3,3.5a.9.9,0,0,1,.3.6v12.1a.9.9,0,0,1-.3.6l-3,3.4A.6.6,0,0,1,249.5,138.8Z"/><path d="M249.1,128.5a.9.9,0,0,1-.9-.9V111.8L219.9,82.5l-.2.2,26.5,28.9a.8.8,0,0,1,.2.7v15.3a.9.9,0,1,1-1.8,0v-15L217.8,83.4a.9.9,0,0,1,0-1.2l1.3-1.7a.7.7,0,0,1,.6-.3.6.6,0,0,1,.7.2l29.4,30.4a1.4,1.4,0,0,1,.2.7v16.1A.9.9,0,0,1,249.1,128.5Z"/><path d="M219.8,175.5h-.1a.7.7,0,0,1-.6-.3l-1.3-1.7a.9.9,0,0,1,0-1.2l26.8-29.2v-15a.9.9,0,0,1,1.8,0v15.3a.8.8,0,0,1-.2.7L219.7,173l.2.2,28.3-29.3V128.1a.9.9,0,0,1,1.8,0v16.1a1.4,1.4,0,0,1-.2.7l-29.4,30.4Z"/><path d="M255.1,132h-1.8a.9.9,0,0,1,0-1.8h.9V127h-.9a.9.9,0,0,1,0-1.8h1.8a.9.9,0,0,1,.9.9v5A.9.9,0,0,1,255.1,132Z"/><path d="M222.2,126.7h-.1l-7.5-1.1-.5-.3-3.6-3.8-6.9-2.2a1,1,0,0,1-.6-1.1.9.9,0,0,1,1.2-.6l7,2.2a.5.5,0,0,1,.4.2l3.6,3.8,7.2,1.1a.9.9,0,0,1-.2,1.8Z"/><path d="M203.9,139.4a1,1,0,0,1-.9-.7.9.9,0,0,1,.6-1.1l6.9-2.2,3.6-3.8c.2-.2.3-.3.5-.3l7.5-1.1a.8.8,0,0,1,1,.7.9.9,0,0,1-.7,1.1l-7.2,1.1-3.6,3.7-.4.3-7,2.2Z"/><path d="M28.1,128.7a.9.9,0,0,1-.9-.9v-9.1a1,1,0,0,1,.7-.9l26.3-6.2a.9.9,0,0,1,1.1.7.9.9,0,0,1-.6,1.1L29,119.5v8.3A.9.9,0,0,1,28.1,128.7Z"/><path d="M54.5,144.9h-.2l-26.4-5.7a1,1,0,0,1-.7-.9V127.1a.9.9,0,1,1,1.8,0v10.5l25.6,5.5a.9.9,0,0,1,.7,1.1A.8.8,0,0,1,54.5,144.9Z"/><path d="M51.3,129.3l-.6-.2-.5-.4H33.5a.9.9,0,0,1,0-1.8H50.6l.5.2.7.5a.9.9,0,0,1,.2,1.3A1.3,1.3,0,0,1,51.3,129.3Z"/><path d="M33.5,135H22.7a.9.9,0,0,1-.9-.9V121.5a.9.9,0,0,1,.9-.9H33.5a.9.9,0,0,1,.9.9v12.6A.9.9,0,0,1,33.5,135Zm-9.8-1.8h8.9V122.4H23.7Z"/><path d="M22.7,137.2H19a.9.9,0,0,1-.9-.9V119.4a.9.9,0,0,1,.9-.9h3.7a1,1,0,0,1,1,.9v16.9A1,1,0,0,1,22.7,137.2Zm-2.8-1.8h1.9V120.3H19.9Z"/><path d="M19,134.8H13.8a.9.9,0,0,1-.9-.9V121.7a.9.9,0,0,1,.9-.9H19a.9.9,0,0,1,.9.9v12.2A.9.9,0,0,1,19,134.8Zm-4.3-1.9h3.4V122.7H14.7Z"/><path d="M13.8,122.7a.9.9,0,0,1-.7-.4l-3-3.4a.9.9,0,0,1,1.4-1.2l3,3.4a.9.9,0,0,1-.1,1.3A.7.7,0,0,1,13.8,122.7Z"/><path d="M13.8,122.7a.9.9,0,0,1-.7-.4l-3-3.4a.9.9,0,0,1,1.4-1.2l3,3.4a.9.9,0,0,1-.1,1.3A.7.7,0,0,1,13.8,122.7Z"/><path d="M10.8,138.2l-.6-.2a.9.9,0,0,1-.1-1.3l3-3.4a.9.9,0,0,1,1.4,1.2l-3,3.4A.9.9,0,0,1,10.8,138.2Z"/><path d="M10.8,138.2l-.6-.2a.9.9,0,0,1-.1-1.3l3-3.4a.9.9,0,0,1,1.4,1.2l-3,3.4A.9.9,0,0,1,10.8,138.2Z"/><path d="M13.8,122.7a.9.9,0,0,1-.7-.4l-3-3.4a.9.9,0,0,1,1.4-1.2l3,3.4a.9.9,0,0,1-.1,1.3A.7.7,0,0,1,13.8,122.7Z"/><path d="M6.5,138.2a.7.7,0,0,1-.6-.3l-3-3.4a.9.9,0,0,1-.3-.6V121.7a.9.9,0,0,1,.3-.6l3-3.4a.8.8,0,0,1,1.2-.1.9.9,0,0,1,.1,1.3l-2.7,3.2v11.4l2.7,3.2a.9.9,0,0,1-.1,1.3Z"/><path d="M10.5,128a.9.9,0,0,1-.9-.9V111.7a.7.7,0,0,1,.2-.6L36.3,82.2l-.2-.3L7.8,111.3v15.8a.9.9,0,1,1-1.8,0V110.9a1.4,1.4,0,0,1,.2-.6L35.6,79.9a.8.8,0,0,1,.7-.3.8.8,0,0,1,.6.4l1.3,1.7a.8.8,0,0,1,0,1.1L11.4,112.1v15A.9.9,0,0,1,10.5,128Z"/><path d="M36.2,175a.7.7,0,0,1-.6-.3L6.2,144.3a1.1,1.1,0,0,1-.2-.6V127.6a1,1,0,0,1,.9-1,1,1,0,0,1,.9,1v15.7l28.3,29.4.2-.2-26.5-29c-.2-.1-.2-.4-.2-.6V127.6a1,1,0,0,1,.9-1,1,1,0,0,1,.9,1v14.9l26.8,29.3a.9.9,0,0,1,0,1.2l-1.3,1.6a.8.8,0,0,1-.6.4Z"/><path d="M2.7,131.5H.9a.9.9,0,0,1-.9-1v-4.9a.9.9,0,0,1,.9-1H2.7a.9.9,0,0,1,.9,1,.9.9,0,0,1-.9.9H1.8v3.1h.9a.9.9,0,0,1,.9.9A.9.9,0,0,1,2.7,131.5Z"/><path d="M33.8,126.2a.9.9,0,0,1-.9-.8.8.8,0,0,1,.7-1l7.2-1.1,3.6-3.8.4-.2,7-2.3a.9.9,0,0,1,.6,1.8l-6.9,2.1-3.6,3.9-.5.2-7.5,1.2Z"/><path d="M52.1,138.8h-.3l-7-2.3-.4-.2-3.6-3.8-7.2-1.1a.8.8,0,0,1-.7-1,1,1,0,0,1,1-.8l7.5,1.2.5.2,3.6,3.9,6.9,2.1a1,1,0,0,1,.6,1.2A.9.9,0,0,1,52.1,138.8Z"/><path d="M162.7,112.6a2.5,2.5,0,0,1-2.2-1.5l-3.7-8.8a2.5,2.5,0,0,1,1.4-3.2l4.4-1.8a2.4,2.4,0,0,1,3.3,1.3l3.6,8.7a3.1,3.1,0,0,1,0,1.9,2.3,2.3,0,0,1-1.4,1.3h0l-4.4,1.9Zm.9-13.7h-.3l-4.4,1.8a.7.7,0,0,0-.4.8l3.6,8.8a.8.8,0,0,0,.9.3l4.4-1.8.4-.4a.5.5,0,0,0,0-.5l-3.6-8.7A.8.8,0,0,0,163.6,98.9Zm4.2,10.8Z"/><path d="M152.8,125.1l-.9-.2-8.7-3.6a2.5,2.5,0,0,1-1.4-1.3,3.1,3.1,0,0,1,0-1.9l1.9-4.5a2.4,2.4,0,0,1,3.2-1.3l8.7,3.6a2.5,2.5,0,0,1,1.4,1.3,3.1,3.1,0,0,1,0,1.9l-1.9,4.5A2.5,2.5,0,0,1,152.8,125.1ZM146,113.9a.7.7,0,0,0-.6.4l-1.9,4.5a.4.4,0,0,0,0,.5c.1.1.2.3.4.3l8.7,3.6a.6.6,0,0,0,.8-.3l1.9-4.5h0v-.5l-.4-.3-8.7-3.6Z"/><path d="M146,144.6l-1-.2a2.4,2.4,0,0,1-1.3-1.3l-1.9-4.5a3.1,3.1,0,0,1,0-1.9,2.5,2.5,0,0,1,1.4-1.3l8.7-3.6a2.3,2.3,0,0,1,3.2,1.3l1.9,4.5a3.1,3.1,0,0,1,0,1.9,2.9,2.9,0,0,1-1.4,1.3l-8.7,3.6Zm6.8-11.2h-.2l-8.7,3.6c-.2,0-.3.2-.4.3a.4.4,0,0,0,0,.5l1.9,4.5a.6.6,0,0,0,.8.3l8.7-3.6.4-.3v-.5l-1.9-4.5h0A.7.7,0,0,0,152.8,133.4Z"/><path d="M163.6,159.6a1.8,1.8,0,0,1-1-.2l-4.4-1.8a2.5,2.5,0,0,1-1.4-3.2l3.7-8.8a2.5,2.5,0,0,1,3.2-1.3h0l4.4,1.8a2.7,2.7,0,0,1,1.4,1.4,3.1,3.1,0,0,1,0,1.9l-3.6,8.7A2.5,2.5,0,0,1,163.6,159.6Zm-.9-13.7a.8.8,0,0,0-.6.4l-3.6,8.7a.8.8,0,0,0,.4.9l4.4,1.8a.7.7,0,0,0,.9-.3l3.6-8.7a.4.4,0,0,0,0-.5l-.4-.4L163,146Z"/><path d="M182.2,159.6a2.6,2.6,0,0,1-2.3-1.5l-3.6-8.7a2.6,2.6,0,0,1,1.4-3.3h0l4.4-1.8a2.6,2.6,0,0,1,3.3,1.3l3.6,8.8a2.8,2.8,0,0,1,0,1.8,2.7,2.7,0,0,1-1.4,1.4l-4.4,1.8A1.8,1.8,0,0,1,182.2,159.6Zm-3.8-11.8a.7.7,0,0,0-.4.9l3.6,8.7a.7.7,0,0,0,.9.3l4.4-1.8.4-.4v-.4l-3.6-8.8a.8.8,0,0,0-.9-.3Z"/><path d="M199.9,144.6l-1-.2-8.7-3.6a2.3,2.3,0,0,1-1.3-3.2h0l1.8-4.5a2.3,2.3,0,0,1,3.2-1.3l8.7,3.6a2.4,2.4,0,0,1,1.4,3.2l-1.9,4.5a2.4,2.4,0,0,1-1.3,1.3Zm-9.4-6.3a.7.7,0,0,0,.4.8l8.7,3.6a.8.8,0,0,0,.9-.3l1.8-4.5a.6.6,0,0,0-.4-.8l-8.7-3.6h-.5q-.1,0-.3.3Z"/><path d="M193,125.1a2.5,2.5,0,0,1-2.3-1.5l-1.8-4.5a2.3,2.3,0,0,1,1.3-3.2l8.7-3.6a2.4,2.4,0,0,1,3.2,1.3l1.9,4.5a2.5,2.5,0,0,1-1.3,3.2l-8.8,3.6Zm6.9-11.2h-.3l-8.7,3.6a.7.7,0,0,0-.4.8l1.9,4.5h0a.6.6,0,0,0,.8.3l8.8-3.6a.6.6,0,0,0,.3-.8l-1.8-4.5A.8.8,0,0,0,199.9,113.9Z"/><path d="M183.1,112.6l-1-.2h0l-4.4-1.9a2.4,2.4,0,0,1-1.4-3.2l3.6-8.7a2.5,2.5,0,0,1,3.3-1.3l4.4,1.8a2.9,2.9,0,0,1,1.4,1.3,3.1,3.1,0,0,1,0,1.9l-3.6,8.8A2.6,2.6,0,0,1,183.1,112.6Zm-.3-1.9a.8.8,0,0,0,.9-.3l3.6-8.8v-.5l-.4-.3L182.5,99a.7.7,0,0,0-.9.3L178,108a.7.7,0,0,0,.4.9Z"/><path d="M172.9,138.6h-.5l-8.1-4.7a.9.9,0,0,1-.4-.8v-9.3a.9.9,0,0,1,.4-.8l8.1-4.7a.9.9,0,0,1,1,0l8.1,4.7c.3.1.4.4.4.8V133c0,.4-.1.7-.4.8l-8.1,4.7Zm-7.2-6.1,7.2,4.2,7.2-4.2v-8.3l-7.2-4.2-7.2,4.2Z"/><path d="M188.3,134.2H181a.9.9,0,1,1,0-1.8h6.4v-8.1H181a.9.9,0,0,1,0-1.8h7.3a.9.9,0,0,1,.9.9v9.9A.9.9,0,0,1,188.3,134.2Z"/><path d="M164.8,134.2h-7.7a.9.9,0,0,1-.9-.9v-9.9a.9.9,0,0,1,.9-.9h7.7a.9.9,0,1,1,0,1.8H158v8.1h6.8a.9.9,0,1,1,0,1.8Z"/><path d="M146.2,111.5H110.1a1.1,1.1,0,0,1-1-1,1,1,0,0,1,1-.9h36.1a.9.9,0,0,1,.9.9A1,1,0,0,1,146.2,111.5Z"/><path d="M129.6,161.4h-5.4l-.5-.2-7.8-4.9h-4.4a.9.9,0,0,1-.9-1V144.4a.9.9,0,1,1,1.8,0v10h3.8l.5.2,7.8,4.9h5.1a.9.9,0,0,1,1,.9A1,1,0,0,1,129.6,161.4Z"/><path d="M132.1,161.4h-5.5a1,1,0,0,1-.9-1,.9.9,0,0,1,.9-.9h5.2l7.8-4.9.5-.2h3.8v-10a.9.9,0,0,1,1.8,0v10.9a.9.9,0,0,1-.9,1h-4.5l-7.7,4.9Z"/><path d="M143.4,116.7H132.8a.9.9,0,0,1-.9-.9.9.9,0,0,1,.9-1h10.6a.9.9,0,0,1,.9,1A.9.9,0,0,1,143.4,116.7Z"/><path d="M129.8,116.7h-3.6a1,1,0,0,1-1-.9,1,1,0,0,1,1-1h3.6a.9.9,0,0,1,.9,1A.9.9,0,0,1,129.8,116.7Z"/><path d="M123.4,116.7H112.9a.9.9,0,0,1-.9-.9.9.9,0,0,1,.9-1h10.5a.9.9,0,0,1,.9,1A.9.9,0,0,1,123.4,116.7Z"/><path d="M130.3,157.5h-4.2a1.2,1.2,0,0,1-.8-.4l-3.1-4.4a1.2,1.2,0,0,1-.1-1,1.1,1.1,0,0,1,.9-.5h10.2a1,1,0,0,1,.8.5.9.9,0,0,1-.1.9l-2.9,4.5A.8.8,0,0,1,130.3,157.5Zm-3.8-1.9h3.3l1.7-2.5h-6.8Z"/><path d="M135.3,150.1H120.8a.9.9,0,0,1-.9-.9V119.3a.9.9,0,0,1,.9-.9h2.6a.9.9,0,1,1,0,1.8h-1.7v28.1h12.7V120.2h-1.8a.9.9,0,1,1,0-1.8h2.7a.9.9,0,0,1,1,.9v29.9A.9.9,0,0,1,135.3,150.1Z"/><path d="M129.8,120.2h-3.5a.9.9,0,0,1,0-1.8h3.5a.9.9,0,1,1,0,1.8Z"/><path d="M132.4,122.3h-2.5a.9.9,0,0,1-.9-.9V114a.9.9,0,0,1,.9-.9h2.5a.9.9,0,0,1,.9.9v7.4A.9.9,0,0,1,132.4,122.3Zm-1.6-1.8h.7v-5.6h-.7Z"/><path d="M126.2,122.3h-2.6a.9.9,0,0,1-.9-.9V114a.9.9,0,0,1,.9-.9h2.6a.9.9,0,0,1,.9.9v7.4A.9.9,0,0,1,126.2,122.3Zm-1.7-1.8h.7v-5.6h-.7Z"/><path d="M133.2,139.5h-4.6a.9.9,0,0,1-.9-.9v-8.7a1,1,0,0,1,.9-1h4.6a1,1,0,0,1,.9,1v8.7A.9.9,0,0,1,133.2,139.5Zm-3.7-1.8h2.8v-6.9h-2.8Z"/><path d="M144.8,153.1H111.5a.9.9,0,0,1,0-1.8h33.3a.9.9,0,1,1,0,1.8Z"/><path d="M128.1,147.7a2.4,2.4,0,1,1,0-4.7,2.4,2.4,0,1,1,0,4.7Zm0-2.9a.6.6,0,0,0-.6.6.6.6,0,0,0,.6.5.5.5,0,0,0,.5-.5A.6.6,0,0,0,128.1,144.8Z"/><path d="M149.8,176.4h-5.6l-3.9-2a.9.9,0,0,1-.5-.8V162.4a.9.9,0,0,1,.9-1h12.7a.9.9,0,0,1,.9,1v11.1a1,1,0,0,1-.5.8l-3.6,2Zm-5-1.8h4.7l2.9-1.6v-9.7H141.6v9.6Zm8.6-1.1Z"/><path d="M153.4,171.8a.8.8,0,0,1-.8-.5.8.8,0,0,1,.3-1.2l3.3-1.7v-2.3h-2.8a.9.9,0,1,1,0-1.8h3.7a.9.9,0,0,1,.9.9v3.7a.9.9,0,0,1-.5.8l-3.7,2Z"/><path d="M140.5,171.8H140l-3.7-2a.9.9,0,0,1-.5-.8v-3.7a.9.9,0,0,1,1-.9h3.7a.9.9,0,0,1,0,1.8h-2.8v2.3l3.2,1.7a1,1,0,0,1,.4,1.2A1,1,0,0,1,140.5,171.8Z"/><path d="M149.8,176.4a.9.9,0,0,1-1-.9V162.4a.9.9,0,0,1,1-1,.9.9,0,0,1,.9,1v13.1A.9.9,0,0,1,149.8,176.4Z"/><path d="M144.6,176.4a.9.9,0,0,1-.9-.9V162.4a.9.9,0,0,1,.1-.5l5.9-11a1,1,0,0,1,1.2-.4.9.9,0,0,1,.4,1.3l-5.8,10.8v12.9A.9.9,0,0,1,144.6,176.4Z"/><path d="M153.4,163.3a.9.9,0,0,1-.7-.3.9.9,0,0,1,0-1.3l5.2-5.6a.9.9,0,0,1,1.3,0,.9.9,0,0,1,0,1.3L154,163A.7.7,0,0,1,153.4,163.3Z"/></svg>