<svg xmlns="http://www.w3.org/2000/svg" width="256" height="256" viewBox="0 0 256 256"><path d="M134.8 21.6a4.2 4.2 0 0 1 0-8.4 4.2 4.2 0 0 1 0 8.4zm0-6.6a2.4 2.4 0 0 0 0 4.8 2.4 2.4 0 0 0 0-4.8zm-11.1 145.6a.7.7 0 0 1-.7-.4.9.9 0 0 1 .2-1.3l11.7-7.4a.9.9 0 0 1 1.3.3.9.9 0 0 1-.3 1.2l-11.7 7.5z"/><path d="M147 160.6h-.5l-11.6-7.6a.8.8 0 0 1-.3-1.2.9.9 0 0 1 1.3-.3l11.6 7.4a1 1 0 0 1 .3 1.3.9.9 0 0 1-.8.4zm-.5 19.7h-23.3a1 1 0 0 1-.9-1v-8.8a.9.9 0 0 1 .9-.9h23.3a.9.9 0 0 1 .9.9v8.8a1 1 0 0 1-.9 1zm-22.4-1.9h21.5v-7h-21.5z"/><path d="M125.4 180.3H83.6a1 1 0 0 1-.9-1 .9.9 0 0 1 .9-.9h41.8a.9.9 0 0 1 1 .9 1 1 0 0 1-1 1zm62.4 0h-41.9a1 1 0 0 1-.9-1 .9.9 0 0 1 .9-.9h41.9a.9.9 0 0 1 .9.9 1 1 0 0 1-.9 1z"/><path d="M134.3 226.9c-12 0-36.5-8.4-45-16.9a.5.5 0 0 1-.2-.4c-.2-.6-20.7-68.1-20.7-114.1s22.2-70.1 65.9-70.1a.9.9 0 0 1 .9 1 .9.9 0 0 1-.9.9c-21.2 0-37.3 5.6-48 16.9S70.2 72.7 70.2 95.5c0 44.5 19.3 109.1 20.6 113.4 8.3 8.2 31.9 16.1 43.5 16.1a.9.9 0 0 1 .9 1 .9.9 0 0 1-.9.9z"/><path d="M135.4 226.9a.9.9 0 0 1-.9-.9.9.9 0 0 1 .9-1c11.6 0 35.2-7.9 43.6-16.1 1.3-4.3 20.5-68.9 20.5-113.4 0-22.8-5.4-40-16.1-51.3s-26.8-16.9-48-16.9a.9.9 0 0 1-.9-.9.9.9 0 0 1 .9-1c43.8 0 65.9 23.6 65.9 70.1S180.8 209 180.6 209.6a.5.5 0 0 1-.2.4c-8.5 8.5-33 16.9-45 16.9zm44.4-17.5zm-70.7-68.5a18.4 18.4 0 1 1 18.3-18.4 18.4 18.4 0 0 1-18.3 18.4zm0-35a16.6 16.6 0 1 0 0 33.1 16.6 16.6 0 0 0 0-33.1z"/><path d="M161.1 140.9a18.4 18.4 0 1 1 18.4-18.4 18.4 18.4 0 0 1-18.4 18.4zm0-35a16.6 16.6 0 1 0 16.6 16.6 16.6 16.6 0 0 0-16.6-16.6z"/><path d="M161.1 149.4a27 27 0 1 1 26.9-27.8h9a.9.9 0 1 1 0 1.8h-9.8a.9.9 0 0 1-1-.9 25.1 25.1 0 1 0-25.1 25.1.9.9 0 1 1 0 1.8z"/><path d="M109.1 149.4a.9.9 0 1 1 0-1.8A25.1 25.1 0 1 0 84 122.5a.9.9 0 0 1-1 .9h-9.8a.9.9 0 1 1 0-1.8h9a26.9 26.9 0 1 1 26.9 27.8zm52-22.3a4.6 4.6 0 1 1 4.6-4.6 4.6 4.6 0 0 1-4.6 4.6zm0-7.4a2.8 2.8 0 0 0-2.7 2.8 2.7 2.7 0 0 0 2.7 2.7 2.8 2.8 0 0 0 2.8-2.7 2.9 2.9 0 0 0-2.8-2.8z"/><path d="M109.2 127.1a4.6 4.6 0 1 1 4.6-4.6 4.6 4.6 0 0 1-4.6 4.6zm0-7.4a2.8 2.8 0 0 0-2.7 2.8 2.7 2.7 0 0 0 2.7 2.7 2.8 2.8 0 0 0 2.8-2.7 2.9 2.9 0 0 0-2.8-2.8zm-10.4 16.8a.9.9 0 0 1-.9-.9v-27a.9.9 0 1 1 1.8 0v27a.9.9 0 0 1-.9.9z"/><path d="M105.8 139.9a.9.9 0 0 1-.9-.9v-33.7a.9.9 0 1 1 1.8 0V139a.9.9 0 0 1-.9.9zm6.9 0a.9.9 0 0 1-.9-.9v-33.7a.9.9 0 0 1 1.8 0V139a.9.9 0 0 1-.9.9zm6.9-3.4a.9.9 0 0 1-.9-.9v-27a.9.9 0 1 1 1.8 0v27a.9.9 0 0 1-.9.9zm31.1 0a.9.9 0 0 1-.9-.9v-27a.9.9 0 0 1 1.8 0v27a.9.9 0 0 1-.9.9zm7 3.4a1 1 0 0 1-1-.9v-33.7a1 1 0 0 1 1-.9.9.9 0 0 1 .9.9V139a.9.9 0 0 1-.9.9zm6.9 0a.9.9 0 0 1-.9-.9v-33.7a.9.9 0 0 1 1.8 0V139a.9.9 0 0 1-.9.9zm6.9-3.4a.9.9 0 0 1-.9-.9v-27a.9.9 0 0 1 1.8 0v27a.9.9 0 0 1-.9.9z"/><path d="M87.6 202.2h-5.8a1 1 0 0 1-.9-.7l-5.2-21.6-5.4-4.2c-.1-.2-.3-.3-.3-.5-.8-2.8-7.8-31.6-8-44.9l-5.7-2a.9.9 0 0 1-.6-.8l-2.9-25.1a1.1 1.1 0 0 1 .4-.9l6.4-3.7c.1-28.8 7.7-50.2 22.6-63.7 12.2-11 25.7-13.7 32.3-15l2.5-.5c3.2-.9 5.3-4.9 7.3-8.8s5-9.8 10-9.8a.9.9 0 1 1 0 1.8c-3.9 0-6.1 4.3-8.4 8.8s-4.4 8.7-8.4 9.7l-2.7.6c-6.3 1.3-19.6 3.9-31.4 14.5-14.6 13.2-22 34.4-22 63a1.2 1.2 0 0 1-.4.8l-6.3 3.6 2.7 24 5.8 1.9a1.1 1.1 0 0 1 .6.9c0 12.4 6.8 40.7 7.9 44.8l5.4 4.2.3.5 5.1 21.2h5.1a.9.9 0 0 1 .9.9 1 1 0 0 1-.9 1z"/><path d="M83.6 211.7H70.9a1 1 0 0 1-.9-1v-23a.9.9 0 0 1 .9-.9h7.6a.9.9 0 0 1 0 1.8h-6.7v21.2h10.9v-8.6a.9.9 0 1 1 1.8 0v9.5a1 1 0 0 1-.9 1zm104.6-9.5h-5.8a1 1 0 0 1-.9-1 .9.9 0 0 1 .9-.9h5.1l5.1-21.2.3-.5 5.4-4.2c1.1-4.1 7.9-32.4 7.9-44.8a1.1 1.1 0 0 1 .6-.9l5.8-1.9 2.7-24-6.3-3.6a1.2 1.2 0 0 1-.4-.8c0-28.6-7.4-49.8-22-63-11.8-10.6-25.1-13.2-31.4-14.5l-2.7-.6c-4-1-6.3-5.4-8.4-9.7s-4.5-8.8-8.4-8.8a.9.9 0 0 1 0-1.8c5 0 7.5 5 10 9.8s4.1 7.9 7.3 8.8l2.5.5c6.6 1.3 20.1 4 32.3 15 14.9 13.5 22.5 34.9 22.6 63.7l6.4 3.7a1.1 1.1 0 0 1 .4.9l-2.9 25.1a.9.9 0 0 1-.6.8l-5.7 2c-.2 13.3-7.2 42.1-8 44.9 0 .2-.2.3-.3.5l-5.4 4.2-5.2 21.6a1 1 0 0 1-.9.7z"/><path d="M199.1 211.7h-12.7a1 1 0 0 1-.9-1v-9.5a.9.9 0 1 1 1.8 0v8.6h10.9v-21.2h-6.7a.9.9 0 0 1 0-1.8h7.6a.9.9 0 0 1 .9.9v23a1 1 0 0 1-.9 1zm-63.7 39c-12.1 0-39.9-5.2-52.5-17.8a1 1 0 0 1-.2-.9l6.4-22.9a.9.9 0 0 1 1.1-.6.8.8 0 0 1 .6 1.1l-6.2 22.3c6.5 6.2 27.3 17 50.8 17 12.2 0 42.3-8.9 49.6-16.9l-6.2-22.4a.8.8 0 0 1 .6-1.1.9.9 0 0 1 1.1.6l6.4 22.9a.8.8 0 0 1-.2.8c-7.2 8.7-38.5 17.9-51.3 17.9z"/><path d="M105.8 256a.9.9 0 0 1-.9-.9v-21.8a.9.9 0 0 1 1.8 0v21.8a.9.9 0 0 1-.9.9zm58.8 0a.9.9 0 0 1-.9-.9v-21.8a.9.9 0 0 1 1.8 0v21.8a.9.9 0 0 1-.9.9zm-46.7-32a.9.9 0 0 1-.9-.7l-8.6-31a.8.8 0 0 1 .6-1.1.9.9 0 0 1 1.1.6l8.7 31.1a1 1 0 0 1-.6 1.1z"/><path d="M117.9 224a.9.9 0 0 1-.9-.7l-8.6-31a.8.8 0 0 1 .6-1.1.9.9 0 0 1 1.1.6l8.7 31.1a1 1 0 0 1-.6 1.1zm33.1 0h-.2a1 1 0 0 1-.7-1.1l8.7-31.1a1.1 1.1 0 0 1 1.1-.6 1 1 0 0 1 .7 1.1l-8.7 31a.9.9 0 0 1-.9.7z"/></svg>