<svg id="Layer_1" data-name="Layer 1" xmlns="http://www.w3.org/2000/svg" width="256" height="256" viewBox="0 0 256 256"><title>clone-trooper</title><path d="M206.7,92.7H49.2v-.9c0-24.1,6.9-43.1,20.6-56.6C81.1,24,97,16.9,115.9,14.6V6.8A6.8,6.8,0,0,1,122.7,0h12.7a6.8,6.8,0,0,1,6.8,6.8v8.1c18.3,2.6,33.8,9.9,44.7,21.1,13.1,13.4,19.8,32.2,19.8,55.8ZM51.1,90.9H204.8c-.1-22.7-6.6-40.7-19.2-53.6C174.8,26.2,159.4,19,141.1,16.6h-.8V6.8a5,5,0,0,0-4.9-5H122.7a5,5,0,0,0-4.9,5v9.4H117c-18.9,2.1-34.7,9.1-45.9,20.2C58,49.5,51.3,67.8,51.1,90.9Z"/><rect x="115.9" y="15.4" width="1.8" height="30.96"/><rect x="140.3" y="15.7" width="1.8" height="30.69"/><polygon points="206.7 102.8 49.2 102.8 49.2 91.8 51.1 91.8 51.1 101 204.8 101 204.8 91.8 206.7 91.8 206.7 102.8"/><path d="M193.5,91.8h-1.9c0-8.6,3.9-20.7,12.4-20.7V73C196.8,73,193.5,84.2,193.5,91.8Z"/><path d="M64.5,91.8H62.6c0-7.6-3.3-18.8-10.5-18.8V71.1C60.6,71.1,64.5,83.2,64.5,91.8Z"/><path d="M68.4,231.1l-1.1-1.4h0c.7-.5,5.1-5.7,10.3-11.6,12.7-14.6,34.1-39.2,44.4-48.8a.9.9,0,1,1,1.2,1.3c-7.5,7.1-21,22.2-32.7,35.6,13.1-13.1,28.3-26.4,37.5-26.4a1,1,0,0,1,.9,1,.9.9,0,0,1-.9.9c-11.9,0-36.6,25.9-49.9,39.8-4.4,4.6-7.9,8.2-9.6,9.7Z"/><path d="M187.5,231.1h0c-1.8-1.5-5.3-5.1-9.7-9.7-13.3-13.9-38-39.8-49.9-39.8a.9.9,0,0,1-.9-.9,1,1,0,0,1,.9-1c9.2,0,24.4,13.3,37.6,26.4-11.7-13.3-25.1-28.3-32.6-35.4a.9.9,0,0,1-.1-1.3,1,1,0,0,1,1.4,0c10.3,9.7,31.5,34.1,44.2,48.6,5.1,6,9.6,11.1,10.2,11.6h0Z"/><path d="M121.7,171.1a2.3,2.3,0,0,1-1.1-.3,2.2,2.2,0,0,1-1.2-1.7c-.2-1.5-.4-3-.5-4.4-2.7-20.9-4.9-39-59.7-46.5a3.5,3.5,0,0,1-3.1-3.4v-2.9a3.6,3.6,0,0,1,3.6-3.5H128v1.9H59.7a1.6,1.6,0,0,0-1.7,1.6v2.9a1.6,1.6,0,0,0,1.4,1.6c56.2,7.7,58.7,27.3,61.3,48l.6,4.5c0,.2.1.2.2.3s.2.1.3,0a14.2,14.2,0,0,1,6.2-1.8v1.9a11.9,11.9,0,0,0-5.3,1.5A1.9,1.9,0,0,1,121.7,171.1Z"/><path d="M134.3,171.1a2,2,0,0,1-1.1-.3,11.9,11.9,0,0,0-5.2-1.5v-1.9a14.2,14.2,0,0,1,6.1,1.8c.1.1.3,0,.3,0s.2-.1.2-.3.4-3,.6-4.5c2.6-20.7,5.1-40.3,61.3-48a1.6,1.6,0,0,0,1.4-1.6v-2.9a1.6,1.6,0,0,0-1.6-1.6H128v-1.9h68.3a3.5,3.5,0,0,1,3.5,3.5v2.9a3.4,3.4,0,0,1-3,3.4c-54.8,7.5-57.1,25.6-59.7,46.5l-.6,4.4a2.2,2.2,0,0,1-1.2,1.7A1.9,1.9,0,0,1,134.3,171.1Z"/><path d="M128,256c-64.6,0-101.5-29-101.5-37,0-3.8,3.9-17.2,11.1-21.4V86.5l12.2-5.4.7,1.7L39.4,87.7v111l-.5.2c-6.7,3.6-10.6,16.6-10.6,20.1s7.8,11.4,25.7,19.9c14.6,7,39.4,15.3,74,15.3Z"/><path d="M128,256v-1.8c23.7,0,57-2.9,80.7-16.5,15.4-8.9,19-17.6,19-18.7,0-3.5-3.9-16.5-10.6-20.1l-.5-.2V87.7l-11.1-4.9.7-1.7,12.2,5.4V197.6c7.2,4.2,11.1,17.6,11.1,21.4s-4.7,11.6-19.9,20.3C196.3,246.9,171.4,256,128,256Z"/><path d="M117.4,253.7h-1.9v-10a6.7,6.7,0,0,1,6.7-6.7h11.4a6.7,6.7,0,0,1,6.7,6.7v9.9h-1.8v-9.9a4.8,4.8,0,0,0-4.9-4.8H122.2a4.8,4.8,0,0,0-4.8,4.8Z"/><path d="M98.9,196.2H97V170.1c0-10-16.8-21.2-29.1-29.4-10-6.6-15.2-10.2-15.2-13.2V101.9h1.9v25.6c0,2.1,7.3,7,14.3,11.6,13.3,8.9,30,20,30,31Z"/><path d="M158.9,196.2h-1.8V170.1c0-11,16.6-22.1,29.9-31,7.1-4.6,14.3-9.5,14.3-11.6V101.9h1.9v25.6c0,3-5.2,6.6-15.1,13.2-12.3,8.2-29.2,19.4-29.2,29.4Z"/></svg>