<svg id="Layer_1" data-name="Layer 1" xmlns="http://www.w3.org/2000/svg" width="256" height="256" viewBox="0 0 256 256"><title>darth-maul</title><path d="M95.3,144.3A20.7,20.7,0,0,1,80.1,138a.7.7,0,0,1-.3-.6.9.9,0,0,1,.3-.6c.4-.3,8-7,13.3-7s11.3,2.5,17,6.9a1.6,1.6,0,0,1,.4.7.9.9,0,0,1-.3.6A20.7,20.7,0,0,1,95.3,144.3Zm-13.2-6.8a19.8,19.8,0,0,0,13.2,5,20.1,20.1,0,0,0,13.2-5c-5.2-3.8-10.5-5.9-15.1-5.9S84.1,135.9,82.1,137.5Z"/><path d="M93.9,140.7a7.2,7.2,0,0,1-7.2-7.2c0-.3.1-.7.1-1s.2-.5.5-.7a13.8,13.8,0,0,1,6.2-2,22,22,0,0,1,6.8,1.3.9.9,0,0,1,.6.6,11,11,0,0,1,.2,1.8A7.2,7.2,0,0,1,93.9,140.7Zm-5.4-7.5v.3a5.4,5.4,0,1,0,10.8,0,2.8,2.8,0,0,0-.1-.9,20.1,20.1,0,0,0-5.7-1A12.3,12.3,0,0,0,88.5,133.2Z"/><path d="M84.9,33a1.2,1.2,0,0,1-.8-.4,1,1,0,0,1,.4-1.3c11.7-6.9,26.3-10.4,43.4-10.4a.9.9,0,0,1,0,1.8c-16.8,0-31.1,3.4-42.5,10.2Z"/><path d="M55.1,103.9h0a.9.9,0,0,1-.9-.9c0-4.2.1-8.1.1-11.6V83.9c0-14.6,6.8-36.4,26.1-49.9a.8.8,0,0,1,1.2.2.8.8,0,0,1-.2,1.2C62.7,48.6,56.1,69.7,56.1,83.9v7.5c0,3.5-.1,7.4-.1,11.6A.9.9,0,0,1,55.1,103.9Z"/><path d="M127.9,256c-35.8,0-50.7-37.7-60.6-62.6-1.8-4.5-3.3-8.4-4.8-11.5-5-10.9-7.7-32.3-8.2-65.5a.9.9,0,0,1,.9-.9c.5-.1.9.4.9.9.5,32.9,3.1,54.1,8,64.7,1.5,3.2,3.1,7.1,4.9,11.6,9.7,24.5,24.4,61.5,58.9,61.5a.9.9,0,0,1,0,1.8Z"/><path d="M127.9,206.6a11.2,11.2,0,0,1-5.2-1.1,5.3,5.3,0,0,0-2.6-.7c-2.9,0-18.3.9-18.5.9a.8.8,0,0,1-.9-.8.9.9,0,0,1,.8-1c.6,0,15.7-.8,18.6-.8a7.3,7.3,0,0,1,3.3.8,11,11,0,0,0,4.5.9.9.9,0,0,1,0,1.8Z"/><path d="M127.8,215.4a29.8,29.8,0,0,1-11.7-3,.9.9,0,0,1,.8-1.6,29,29,0,0,0,10.9,2.8.9.9,0,0,1,0,1.8Z"/><path d="M95.7,212.5a.9.9,0,0,1-.9-.9c0-5.4-12.2-34.8-22.4-44.7s-11.2-23.6-11.2-31.2c0-2.4,1.4-6.4,2.9-10.6s3.6-9.9,3.6-13.4c0-6.4-1.4-11.2-5.2-18.4s-3.6-35.6-.4-38.7a.9.9,0,0,1,1.3,0,.9.9,0,0,1,0,1.2c-2.3,2.3-3,29.5.7,36.6s5.4,12.6,5.4,19.3c0,3.8-1.9,9-3.7,14s-2.8,7.9-2.8,10c0,7.4,1.4,21,10.6,29.9s18.7,30.5,21.9,41.1c2.8-9.7,12.7-17.8,13.1-18.2a1.1,1.1,0,0,1,1.3.1c.1.1,10.6,10.9,18.1,10.9a.9.9,0,0,1,0,1.8c-7.3,0-16.4-8.5-18.8-10.9-2.6,2.3-12.6,11.7-12.6,21.2A.9.9,0,0,1,95.7,212.5Z"/><path d="M127.9,195.7a.9.9,0,0,1-.9-.9V181.6c0-2.4-5.4-3.5-10.4-3.5s-6.4-3.6-6.4-6.8a.9.9,0,0,1,1.8,0,4.8,4.8,0,0,0,4.6,5c2.9,0,12.2.3,12.2,5.3v13.2A.9.9,0,0,1,127.9,195.7Z"/><path d="M107.5,251a.9.9,0,0,1-.9-.8c0-12.8,3-17.3,5.1-20.6,1.3-1.8,2.1-3.1,2.1-5.3a17.8,17.8,0,0,0-3.5-10.6.9.9,0,0,1,1.4-1.2,19.8,19.8,0,0,1,3.9,11.8c0,2.7-1.1,4.4-2.4,6.3s-4.8,7.4-4.8,19.6A1,1,0,0,1,107.5,251Z"/><path d="M126,172.2a.9.9,0,0,1-.9-.9c-.1-1.5-7.6-8-10.4-8a.9.9,0,0,1-.9-.9.9.9,0,0,1,.9-.8c3.4,0,12.2,6.9,12.2,9.7A.9.9,0,0,1,126,172.2Z"/><path d="M57.1,182.5C52,182.5,40,163.4,40,150.2a53.6,53.6,0,0,1,1.9-15.6,60.6,60.6,0,0,0,1.9-9.5c.8-5.7,3.5-6.4,5.1-6.3,3.3.3,7.1,4.4,7.1,6.4a.9.9,0,1,1-1.8,0c0-.9-2.8-4.4-5.4-4.6s-2.8,1.5-3.2,4.7a87.5,87.5,0,0,1-1.9,9.7,51,51,0,0,0-1.9,15.2c0,13.1,12.1,30.5,15.3,30.5h6.2c.4-.1.9.4.9.9a.9.9,0,0,1-.8.9Z"/><path d="M128.3,115.9a1,1,0,0,1-.9-.9V91.8c0-2-2.9-7-6-12.4-5-8.5-11.2-19.2-11.2-26.7s3.4-29.4,3.5-30.3a.9.9,0,0,1,1-.7.8.8,0,0,1,.8,1c0,.2-3.5,21.3-3.5,30,0,7,6.1,17.5,11,25.8,3.5,6.1,6.2,10.8,6.2,13.3V115A.9.9,0,0,1,128.3,115.9Z"/><path d="M82.7,164.3a1,1,0,0,1-.9-1c0-8-9.7-25.3-13.2-25.3a.9.9,0,0,1-.9-.9c0-5.5,9.6-26.5,15-26.5,1.2,0,3,1.6,6.7,5.2s10.5,9.8,13.9,9.8c6.6,0,13.6,9.9,13.6,15.3,0,2.9-7.4,7.2-19.6,13.9-5.8,3.3-13.1,7.3-13.7,8.6h0A.9.9,0,0,1,82.7,164.3Zm-13.2-28c5,1.8,12.6,16.4,13.9,24.8,2.1-1.7,6.2-4,13.1-7.8s18.6-10.3,18.6-12.4c0-4.6-6.4-13.5-11.8-13.5s-10.2-5.7-15.1-10.3c-2.1-2-4.8-4.5-5.5-4.7C79.5,112.5,70.2,129.6,69.5,136.3Z"/><path d="M160.5,144.3a20.7,20.7,0,0,1-15.2-6.3.9.9,0,0,1-.3-.6,1.6,1.6,0,0,1,.4-.7c5.7-4.4,11.8-6.9,17-6.9s12.9,6.7,13.3,7a.9.9,0,0,1,.3.6.9.9,0,0,1-.3.6A20.7,20.7,0,0,1,160.5,144.3Zm-13.2-6.8a20.1,20.1,0,0,0,13.2,5,19.6,19.6,0,0,0,13.2-5c-2-1.6-7.5-5.9-11.3-5.9S152.5,133.7,147.3,137.5Z"/><path d="M161.9,140.7a7.2,7.2,0,0,1-7.2-7.2,11,11,0,0,1,.2-1.8.9.9,0,0,1,.6-.6,22,22,0,0,1,6.8-1.3,13.8,13.8,0,0,1,6.2,2c.3.2.5.4.5.7s.1.7.1,1A7.2,7.2,0,0,1,161.9,140.7Zm-5.3-8.1a2.8,2.8,0,0,0-.1.9,5.4,5.4,0,0,0,10.8,0v-.3a12.3,12.3,0,0,0-5-1.6A20.1,20.1,0,0,0,156.6,132.6Z"/><path d="M171.5,33.3H171c-11.6-7-26.1-10.5-43.1-10.5a.9.9,0,0,1,0-1.8c17.4,0,32.2,3.6,44,10.8a.8.8,0,0,1,.3,1.2A.7.7,0,0,1,171.5,33.3Z"/><path d="M200.7,103.8a.9.9,0,0,1-.9-.9c0-4.1-.1-8-.1-11.4V83.9c0-14-6.5-34.9-24.7-48.1a.8.8,0,0,1-.2-1.2.8.8,0,0,1,1.2-.2c18.8,13.5,25.5,34.4,25.5,49.5v7.6c0,3.4.1,7.3.1,11.4a.9.9,0,0,1-.9.9Z"/><path d="M127.9,256a.9.9,0,1,1,0-1.8c34.5,0,49.2-37,58.9-61.5,1.8-4.5,3.4-8.4,4.9-11.6,4.9-10.6,7.5-31.7,8-64.5a.9.9,0,0,1,.9-.9h0a.9.9,0,0,1,.9.9c-.5,33.1-3.2,54.4-8.2,65.3-1.5,3.1-3,7-4.8,11.5C178.6,218.3,163.7,256,127.9,256Z"/><path d="M127.9,206.6a.9.9,0,0,1,0-1.8,11,11,0,0,0,4.5-.9,7.3,7.3,0,0,1,3.3-.8c2.9,0,18,.8,18.6.8a.9.9,0,0,1,.8,1,.8.8,0,0,1-.9.8c-.2,0-15.6-.9-18.5-.9a5.3,5.3,0,0,0-2.6.7A11.2,11.2,0,0,1,127.9,206.6Z"/><path d="M128,215.4a.9.9,0,0,1,0-1.8,29,29,0,0,0,10.9-2.8.9.9,0,0,1,.8,1.6A29.8,29.8,0,0,1,128,215.4Z"/><path d="M128,195.7a.9.9,0,0,1-.9-.9V181.6c0-5,9.4-5.3,12.2-5.3a4.8,4.8,0,0,0,4.6-5,.9.9,0,0,1,1.8,0c0,3.2-2.4,6.8-6.4,6.8s-10.4,1.1-10.4,3.5v13.2A.9.9,0,0,1,128,195.7Z"/><path d="M148.3,251a.9.9,0,0,1-.9-.8c0-12.2-2.8-16.5-4.8-19.6s-2.4-3.6-2.4-6.3a19.8,19.8,0,0,1,3.9-11.8.9.9,0,0,1,1.4,1.2,17.8,17.8,0,0,0-3.5,10.6c0,2.2.8,3.5,2.1,5.3,2.1,3.3,5.1,7.8,5.1,20.6A.9.9,0,0,1,148.3,251Z"/><path d="M129.8,172.1h0a.8.8,0,0,1-.9-.8c0-2.8,8.8-9.7,12.2-9.7a.9.9,0,0,1,.9.8.9.9,0,0,1-.9.9c-2.8,0-10.3,6.5-10.4,8A.8.8,0,0,1,129.8,172.1Z"/><path d="M128.3,115.9a.9.9,0,0,1-.9-.9V91.8c0-2.6,2.9-7.7,7.7-15.9s10.6-18.5,10.6-23.2c0-6.9-6.9-29.7-7-29.9a.8.8,0,0,1,.6-1.1.9.9,0,0,1,1.1.6c.3.9,7.1,23.2,7.1,30.4,0,5.2-5.8,15.2-10.9,24.1-3.6,6.3-7.4,12.8-7.4,15V115A.9.9,0,0,1,128.3,115.9Z"/><path d="M128.3,131.4a.9.9,0,0,1-.9-.9v-6.3a.9.9,0,1,1,1.8,0v6.3A.9.9,0,0,1,128.3,131.4Z"/><path d="M128.3,145.5a.9.9,0,0,1-.9-.9v-4.9a.9.9,0,0,1,1.8,0v4.9A.9.9,0,0,1,128.3,145.5Z"/><path d="M173.1,164.2a.9.9,0,0,1-.9-.9c-.5-1.2-7.8-5.2-13.7-8.5-12.2-6.7-19.6-11-19.6-13.9,0-5.4,7-15.3,13.6-15.3,3.4,0,9.5-5.7,13.9-9.8s5.5-5.2,6.7-5.2c5.4,0,15,21,15,26.5a.9.9,0,0,1-.9.9c-3.5,0-13.2,17.3-13.2,25.3A.9.9,0,0,1,173.1,164.2Zm0-51.8c-.7.2-3.4,2.7-5.5,4.7-4.9,4.6-11,10.3-15.1,10.3s-11.8,8.9-11.8,13.5c0,2.1,11.7,8.5,18.6,12.4s11,6.1,13.1,7.8c1.3-8.4,8.9-23,13.9-24.8C185.6,129.6,176.3,112.5,173.1,112.4Z"/><path d="M93.9,182.5a.7.7,0,0,1-.6-.3c-2.8-3-10.8-10.9-14.6-11a1.3,1.3,0,0,0-1,.4,1.1,1.1,0,0,1-1.3.1,1,1,0,0,1-.1-1.3l5.7-7.6a.9.9,0,0,1,1.3-.2.9.9,0,0,1,.1,1.3l-4.1,5.6c4.6.6,11.9,7.9,14.5,10.6,2.6-4.4,11.6-19.2,15.8-20.6a.9.9,0,0,1,1.1.6.8.8,0,0,1-.6,1.1c-3,1-11,13.3-15.4,20.8a1.2,1.2,0,0,1-.7.5Z"/><path d="M128.3,159.2l-.6-.2-6.9-6.9a1.4,1.4,0,0,1-.2-.6,1.4,1.4,0,0,1,.2-.7l6.9-6.8a.9.9,0,0,1,1.3,0l6.8,6.8a.9.9,0,0,1,.3.7.9.9,0,0,1-.3.6L129,159Zm-5.6-7.7,5.6,5.6,5.6-5.6-5.6-5.6Z"/><path d="M128.3,140.9a.9.9,0,0,1-.6-.3l-4.7-4.7a.9.9,0,0,1,0-1.3l4.7-4.7a1,1,0,0,1,1.3,0l4.7,4.7a1,1,0,0,1,0,1.3l-4.7,4.7A.9.9,0,0,1,128.3,140.9Zm-3.4-5.6,3.4,3.4,3.5-3.4-3.5-3.5Z"/><path d="M128.3,125.4a.9.9,0,0,1-.6-.3l-4.7-4.7a.9.9,0,0,1-.3-.7.9.9,0,0,1,.3-.6l4.7-4.7a.9.9,0,0,1,1.3,0l4.7,4.7a.9.9,0,0,1,.3.6.9.9,0,0,1-.3.7l-4.7,4.7A.9.9,0,0,1,128.3,125.4Zm-3.4-5.7,3.4,3.5,3.5-3.5-3.5-3.4Z"/><path d="M122.7,249.3h-.4c-.2-.2-5.4-3.3-5.4-8.2,0-2.7,2.2-4.4,4.1-5.9s2.9-2.3,2.9-3.5v-1.3c-.1-4.5,0-8.7,1.8-10.5a2.9,2.9,0,0,1,2.1-.9.9.9,0,0,1,0,1.8.8.8,0,0,0-.8.4c-1.4,1.4-1.4,6.4-1.3,9.1v1.4c0,2.1-1.8,3.5-3.6,4.9s-3.5,2.6-3.5,4.5,1.9,4.5,3.2,5.6c-.1-2.5-.1-5.4,1.6-7.2a5.7,5.7,0,0,1,4.4-1.6.9.9,0,0,1,0,1.8,4.1,4.1,0,0,0-3.1,1c-1.3,1.4-1.2,4.1-1.1,6.3v1.5a.9.9,0,0,1-.4.8Z"/><path d="M133.6,249.3h-.4a1,1,0,0,1-.5-.8v-1.5c.1-2.2.2-4.9-1.1-6.3a3.8,3.8,0,0,0-3-1,.9.9,0,1,1,0-1.8,5.4,5.4,0,0,1,4.3,1.6c1.8,1.8,1.7,4.7,1.6,7.2,1.4-1.1,3.2-3.1,3.2-5.6s-1.7-3.2-3.5-4.5-3.6-2.8-3.6-4.9c0-.4.1-.9.1-1.4,0-2.7.1-7.7-1.3-9.1a.9.9,0,0,0-.8-.4.9.9,0,0,1,0-1.8,2.9,2.9,0,0,1,2.1.9c1.7,1.8,1.8,6,1.8,10.5a6.2,6.2,0,0,0-.1,1.3c0,1.2,1.4,2.3,2.9,3.5s4.2,3.2,4.2,5.9c0,4.9-5.2,8-5.4,8.2Z"/><path d="M128.6,69.6l-.6-.2c-5.1-5.2-7.2-11.3-7.2-13.5s5.8-21.2,6.9-25.1a1,1,0,0,1,1.2-.6,1.1,1.1,0,0,1,.6,1.1c-2.7,8.8-6.9,23.3-7,24.6s2,7.4,6.7,12.2a.9.9,0,0,1,0,1.3Z"/><path d="M128.6,69.6l-.6-.2a.9.9,0,0,1,0-1.3c4.7-4.8,6.6-10.6,6.6-12.2s-4.2-15.8-6.9-24.6a1.1,1.1,0,0,1,.6-1.1,1,1,0,0,1,1.2.6c1.1,3.9,6.9,23.3,6.9,25.1s-2.1,8.3-7.2,13.5Z"/><path d="M58,67.3h-.1C45.3,65.4,38.8,44.7,38.8,34.1a.9.9,0,0,1,.8-.9.9.9,0,0,1,.9.9c0,4.1,12.8,16.7,24.1,16.7a.9.9,0,0,1,.9.9.9.9,0,0,1-.9.8c-9,0-19.3-7.7-23.7-13.6C42.4,49.4,48.2,64,58.2,65.5a.9.9,0,0,1-.2,1.8Z"/><path d="M60.5,123.5a.8.8,0,0,1-.7-.3L45.6,106.4a1.2,1.2,0,0,1-.1-1,1,1,0,0,1,1-.4c4,.6,11-4.4,13.4-6.4a.8.8,0,0,1,1.1,0c2.9,2.2,4.3,10.2,3.7,16.3-.3,3.1-1.2,7.1-3.8,8.5ZM48.2,106.7l12.4,14.7c1.2-1.1,2-3.4,2.3-6.7.5-5.5-.7-12-2.5-14.2C58.5,102,52.9,106.1,48.2,106.7Z"/><path d="M135.5,22.9a1,1,0,0,1-.9-.9c0-5.6-5.9-15.8-8.1-19.4-1.9,3.3-6.6,12.5-6.6,19.3a.9.9,0,0,1-1.8,0c0-8.9,7.3-21,7.6-21.5a.8.8,0,0,1,.7-.4.8.8,0,0,1,.8.4c.4.6,9.2,14.3,9.2,21.6A.9.9,0,0,1,135.5,22.9Z"/><path d="M103.3,127.4a1.1,1.1,0,0,1-.7-.3.9.9,0,0,1,.2-1.3l8.1-6.1c-7.6-6-11.6-20.6-11.6-29.3,0-1.6-.4-3.5-2.6-3.7-3.8-.5-10.2,4.2-12.2,12.8-.9,3.7-2.7,4.8-4,5.1s-4.5-1.1-6.6-3.9c-3.9-5.6-5.7-16-.2-25.2a.9.9,0,0,1,1.2-.4.9.9,0,0,1,.3,1.3c-5.1,8.6-3.4,18.1.2,23.3,1.6,2.2,3.4,3.4,4.8,3.1s2-1.5,2.5-3.7c2.1-9.1,9.2-14.8,14.2-14.2,2.6.3,4.2,2.3,4.2,5.5,0,8.5,4.2,23.5,11.8,28.6a.7.7,0,0,1,.4.7.8.8,0,0,1-.3.8l-9.1,6.8Z"/><path d="M83,79.8c-5.9,0-12.8-3.9-12.8-14.9,0-4.9,2.5-10.3,7.3-16a.9.9,0,0,1,1.3-.2,1.1,1.1,0,0,1,.1,1.3C74.3,55.4,72,60.4,72,64.9,72,77.3,81.2,78,83,78c4.6,0,17.7-8.3,17.7-16.4,0-3.4-.5-8-.9-12.5s-1.1-11.7-.7-15.4a74,74,0,0,0-9.9,6.6.8.8,0,0,1-1.2-.2.8.8,0,0,1,.1-1.2,76.4,76.4,0,0,1,11.7-7.6.9.9,0,0,1,1,.1,1,1,0,0,1,.3.9c-.8,3.1-.1,10,.5,16.7.4,4.5.9,9.1.9,12.6C102.5,70.9,88.3,79.8,83,79.8Z"/><path d="M77.5,67.3a.9.9,0,0,1-.9-.9c0-14.1,1.1-32,6.8-37.5a.9.9,0,0,1,1-.1.8.8,0,0,1,.5.8c0,4.2,5.1,11.5,10.1,14.5a1.2,1.2,0,0,1,.4.8C95.4,51.2,90.1,67.3,77.5,67.3Zm5.9-35.5c-3.2,5.1-5,17.1-5,33.7,11-.8,14.9-15.3,15.2-20.1C89.3,42.6,84.6,36.7,83.4,31.8Z"/><path d="M160.3,212.5a.9.9,0,0,1-.9-.9c0-9.5-10-18.9-12.6-21.2-2.4,2.4-11.5,10.9-18.8,10.9a.9.9,0,0,1,0-1.8c7.5,0,18-10.8,18.1-10.9a1.1,1.1,0,0,1,1.3-.1c.4.4,10.3,8.5,13.1,18.2,3.2-10.6,13.2-32.7,21.9-41.1S193,143.1,193,135.7c0-2.1-1.4-5.9-2.8-10s-3.7-10.2-3.7-14c0-6.7,1.4-11.7,5.4-19.3s3.1-34.2.7-36.6a1,1,0,0,1,0-1.3.9.9,0,0,1,1.3.1c3.2,3.2,3.5,31.1-.4,38.7s-5.2,12-5.2,18.4c0,3.5,1.9,8.7,3.6,13.4s2.9,8.2,2.9,10.6c0,7.6-1.5,21.8-11.2,31.2s-22.4,39.3-22.4,44.7A.9.9,0,0,1,160.3,212.5Z"/><path d="M198.9,182.5h-6.3a.9.9,0,0,1-.8-.9.9.9,0,0,1,.9-.9h6.2c3.2,0,15.3-17.4,15.3-30.5a51,51,0,0,0-1.9-15.2,87.5,87.5,0,0,1-1.9-9.7c-.4-3.2-1.4-4.7-3.2-4.7s-5.4,3.7-5.4,4.6a.9.9,0,1,1-1.8,0c0-2,3.8-6.1,7.1-6.4,1.6-.1,4.3.6,5.1,6.3a60.6,60.6,0,0,0,1.9,9.5,53.6,53.6,0,0,1,1.9,15.6C216,163.4,204,182.5,198.9,182.5Z"/><path d="M162.1,182.5H162a1.2,1.2,0,0,1-.7-.5c-4.4-7.5-12.4-19.8-15.4-20.8a.8.8,0,0,1-.6-1.1.9.9,0,0,1,1.1-.6c4.2,1.4,13.2,16.2,15.8,20.6,2.6-2.7,9.9-10,14.6-10.6l-4.2-5.6a.9.9,0,0,1,.1-1.3.9.9,0,0,1,1.3.2l5.7,7.6a1,1,0,0,1-.1,1.3,1.1,1.1,0,0,1-1.3-.1l-1-.4c-3.8.1-11.8,8-14.6,11A.7.7,0,0,1,162.1,182.5Z"/><path d="M198,67.3a.9.9,0,0,1-.2-1.8c10-1.5,15.8-16.1,17.3-26.6-4.4,5.9-14.7,13.6-23.7,13.6a.9.9,0,0,1-.9-.8.9.9,0,0,1,.9-.9c11.3,0,24.1-12.6,24.1-16.7a.9.9,0,0,1,.9-.9.9.9,0,0,1,.8.9c0,10.6-6.5,31.3-19.1,33.2Z"/><path d="M195.5,123.5h-.4c-2.6-1.4-3.5-5.4-3.8-8.5-.6-6.1.8-14.1,3.7-16.3a.8.8,0,0,1,1.1,0c2.4,2,9.4,7,13.4,6.4a1,1,0,0,1,1,.4,1.2,1.2,0,0,1-.1,1l-14.2,16.8A.8.8,0,0,1,195.5,123.5Zm.1-23c-1.8,2.2-3,8.7-2.5,14.2.3,3.3,1.1,5.6,2.3,6.7l12.4-14.7C203.1,106.1,197.5,102,195.6,100.5Z"/><path d="M152.7,127.4h-.6l-9.1-6.8a.8.8,0,0,1-.3-.8.7.7,0,0,1,.4-.7c7.6-5.1,11.8-20.1,11.8-28.6,0-3.2,1.6-5.2,4.2-5.5,5-.6,12.1,5.1,14.2,14.2.5,2.2,1.4,3.5,2.5,3.7s3.2-.9,4.8-3.1c3.6-5.2,5.3-14.7.2-23.3a.9.9,0,0,1,.3-1.3.9.9,0,0,1,1.2.4c5.5,9.2,3.7,19.6-.2,25.2-2.1,2.8-4.5,4.3-6.6,3.9s-3.1-1.4-4-5.1c-2-8.6-8.4-13.3-12.2-12.8-2.2.2-2.6,2.1-2.6,3.7,0,8.7-4,23.3-11.6,29.3l8.1,6.1a.9.9,0,0,1,.2,1.3A1.1,1.1,0,0,1,152.7,127.4Z"/><path d="M173,79.8c-5.3,0-19.5-8.9-19.5-18.2,0-3.5.5-8.1.9-12.6.6-6.7,1.3-13.6.5-16.7a1,1,0,0,1,.3-.9.9.9,0,0,1,1-.1,72.9,72.9,0,0,1,11.5,7.4.9.9,0,0,1,.1,1.3.8.8,0,0,1-1.2.1,70.2,70.2,0,0,0-9.7-6.4c.4,3.7-.1,9.4-.7,15.4s-.9,9.1-.9,12.5c0,8.1,13.1,16.4,17.7,16.4,1.8,0,11-.7,11-13.1,0-4.4-2.2-9.4-6.7-14.7a.9.9,0,0,1,.1-1.2.9.9,0,0,1,1.3.1c4.7,5.6,7.1,10.9,7.1,15.8C185.8,75.9,178.9,79.8,173,79.8Z"/><path d="M178.5,67.3c-12.6,0-17.9-16.1-17.9-22.4a1.2,1.2,0,0,1,.4-.8,24.8,24.8,0,0,0,9.6-11.9,9.8,9.8,0,0,0,.5-2.6.8.8,0,0,1,.5-.8.9.9,0,0,1,1,.1,15.6,15.6,0,0,1,3.2,5.5c3,8.3,3.6,21.9,3.6,32A.9.9,0,0,1,178.5,67.3ZM162.4,45.4c.3,4.8,4.2,19.3,15.2,20.1,0-8.3-.5-22.4-3.5-30.5a32.6,32.6,0,0,0-1.5-3.2l-.3.9C170.8,37.2,166.5,42.6,162.4,45.4Z"/><circle cx="93.9" cy="134.3" r="2.6"/><circle cx="161.9" cy="134.3" r="2.6"/></svg>