<svg xmlns="http://www.w3.org/2000/svg" width="256" height="256" viewBox="0 0 256 256"><path d="M86.7 224.7a8.1 8.1 0 1 1 8.1-8.1 8.1 8.1 0 0 1-8.1 8.1zm0-14.4a6.3 6.3 0 0 0 0 12.6 6.3 6.3 0 0 0 0-12.6zm82.2 14.4a8.1 8.1 0 1 1 8.1-8.1 8.1 8.1 0 0 1-8.1 8.1zm0-14.4a6.3 6.3 0 1 0 6.3 6.3 6.3 6.3 0 0 0-6.3-6.3z"/><path d="M93.9 215.7h67.8v1.79H93.9zm74.3-5.8l-30.9-42.7H117l-29.6 42.7-1.5-1 29.9-43.1a.9.9 0 0 1 .8-.4h21.2a.9.9 0 0 1 .7.3l31.1 43.2z"/><path d="M102.4 185.4h1.8v30.46h-1.8zm12.4-18.1h1.8v48.72h-1.8zm12.4.7h1.8v48.2h-1.8zm12.4 2.1h1.8v46.34h-1.8zm12.4 18.1h1.8v28.38H152z"/><path d="M137.2 167.4h-20.9a.9.9 0 0 1-.9-.9v-9.4a9 9 0 0 1 3.7-7.4 12.8 12.8 0 0 1 7.8-2.5c5.4 0 11.2 3.1 11.2 9.9v9.4a.9.9 0 0 1-.9.9zm-20-1.8h19.1v-8.5a7.4 7.4 0 0 0-2.8-6 11.3 11.3 0 0 0-6.6-2.1c-4.7 0-9.7 2.6-9.7 8.1zm-37-17.6c-5 0-9.4-.6-12.2-2.1-8.6-4.7-11.3-9.9-10-19s11.9-22.6 24.9-22.9 30.7 4.7 31.2 13c.1.8.1 1.7.2 2.7.7 7.5 1.8 21.3-5.5 23.9-5.4 1.9-18.2 4.4-28.6 4.4zm3.9-42.3h-1.2c-12 .4-21.9 13.2-23.1 21.5s1.1 12.8 9.1 17.1 31.3.4 39.3-2.4c6-2.1 4.9-15.1 4.3-22-.1-1.1-.1-2-.2-2.8-.3-6.2-15.8-11.4-28.2-11.4zm89.6 42.3c-10.4 0-23.1-2.5-28.5-4.4-7.4-2.6-6.2-16.4-5.6-23.9.1-1 .2-1.9.2-2.7.5-8.3 19.1-13.4 31.2-13s23.6 14 24.9 22.9-1.3 14.3-10 19c-2.8 1.5-7.2 2.1-12.2 2.1zm-32.1-30.9c0 .8-.1 1.7-.2 2.8-.6 6.9-1.7 19.9 4.4 22 7.9 2.8 31.6 6.6 39.3 2.4s10.3-8.8 9.1-17.1-11.1-21.1-23.2-21.5-29 5-29.4 11.4zm-1-14.9h-1.8V13a10.3 10.3 0 0 0-10.3-10.2 11.8 11.8 0 0 0-11.7 11.7v87.7H115V14.5A13.6 13.6 0 0 1 128.5 1a12.1 12.1 0 0 1 12.1 12zm-7.3 35.7h-13.1a.9.9 0 1 1 0-1.8h13.1a.9.9 0 1 1 0 1.8zm0-11h-13.1a.9.9 0 1 1 0-1.8h13.1a.9.9 0 1 1 0 1.8zm0-11.1h-13.1a.9.9 0 1 1 0-1.8h13.1a.9.9 0 0 1 0 1.8z"/><path d="M2.8 233.9H1c0-17.4 7.2-53.2 17.4-87.1 5.7-18.8 20.7-63.7 36.5-74.6 18.3-12.5 45.8-10.9 60.9-2.3l-.9 1.6c-14.6-8.4-41.3-9.9-59 2.2C31.7 90.3 2.8 199 2.8 233.9zm251.9 0h-1.8c0-34.9-29-143.6-53.2-160.2-17.6-12.1-44.3-10.6-59-2.2l-.9-1.6c15.1-8.6 42.7-10.2 61 2.3 15.8 10.9 30.7 55.8 36.5 74.6 10.2 33.9 17.4 69.7 17.4 87.1z"/><path d="M126.4 255.5h-2.1c-29.5-.2-97.7-7.6-122.8-20.8a.8.8 0 0 1-.5-.8c0-25.5 25.5-74.9 39-97.4s24.5-38.6 42.6-39.8c9.5-.6 16.3.9 23.5 2.4s13.1 2.8 22 2.8h.2a95 95 0 0 0 21.9-2.8c7.3-1.5 14.1-3 23.5-2.4 18.2 1.2 30.1 18.7 42.7 39.8s39 71.9 39 97.4a1.2 1.2 0 0 1-.4.8c-21.7 14.8-94.1 20.8-128.6 20.8zM2.8 233.4c25.3 12.9 92.3 20.1 121.5 20.3h2.2c34 0 105.2-5.9 127.1-20.2-.3-25.3-25.4-73.8-38.8-96.1-12.3-20.6-23.9-37.8-41.2-38.9-9.2-.6-15.9.9-23 2.4a98 98 0 0 1-22.3 2.8h-.2a98 98 0 0 1-22.3-2.8c-7.1-1.5-13.8-3-23-2.4-17.3 1.1-28.9 18.3-41.3 38.9-13.3 22.2-38.3 70.7-38.7 96zm188-193.9a1.1 1.1 0 0 1-.9-.5c-3.3-8-12.4-17.6-37-17.6a.9.9 0 0 1 0-1.8c20 0 33.7 6.6 38.7 18.7a.9.9 0 0 1-.5 1.2z"/><path d="M182.9 213.6h-.4a1 1 0 0 1-.4-1.2l20.4-42.6a.8.8 0 0 1 1.2-.4.9.9 0 0 1 .4 1.2L183.7 213a.8.8 0 0 1-.8.6zm7.7-47.7h-.2l-39.9-5.6a.9.9 0 0 1-.8-1 1 1 0 0 1 1-.8l40 5.6a1.1 1.1 0 0 1 .8 1.1 1 1 0 0 1-.9.7zM72.4 213.6a.8.8 0 0 1-.8-.6l-20.4-42.5a.9.9 0 0 1 .4-1.2.8.8 0 0 1 1.2.4l20.4 42.6a1 1 0 0 1-.4 1.2zm-7.7-47.7a.8.8 0 0 1-.8-.7.9.9 0 0 1 .7-1.1l40-5.6a.9.9 0 0 1 1 .8.8.8 0 0 1-.7 1l-40 5.6zM45.9 84.8h-1.8c0-16 1.4-36.4 11.9-52C67.5 15.6 87.7 7.2 117.6 7.2V9C54.4 9 45.9 47.4 45.9 84.8zM213.3 88h-1.8c0-37.5-8.5-79-71.7-79l-.8-2c29.9 0 50.9 8.6 62.4 25.8 10.5 15.6 11.9 39.1 11.9 55.2zm-86.5 146.6h-26.2l-.6-.3-9.9-9.9a.8.8 0 0 1 0-1.2.9.9 0 0 1 1.3 0l9.6 9.6h25.8a.9.9 0 0 1 0 1.8z"/><path d="M154 234.6h-26.1a.9.9 0 0 1 0-1.8h25.8l9.6-9.6a.9.9 0 0 1 1.3 0 .9.9 0 0 1 0 1.2l-9.9 9.9a.9.9 0 0 1-.7.3z"/></svg>