<svg xmlns="http://www.w3.org/2000/svg" width="256" height="256" viewBox="0 0 256 256"><path d="M141.3 251.5c-3.2 0-6.3-.1-9.4-.3s-6.3-.3-9.7-.3a122.2 122.2 0 0 1 0-244.4h33.4a.9.9 0 0 1 .9.9v20.7a.9.9 0 0 1-.9.9h-21.2v17.4h65a.9.9 0 0 1 .9.9V69a.9.9 0 0 1-.9.9h-37.6v21.2h68.7a.9.9 0 0 1 .9.9v19.9a.9.9 0 0 1-.9.9h-49.9v18.7h18.8a.9.9 0 0 1 .9.9v16.7a.9.9 0 0 1-.9.9h-35.5v18.7h53.5a.9.9 0 0 1 .9.9V190a.9.9 0 0 1-.9.9H168v19.2h31a.9.9 0 0 1 .9.9v22.4a.8.8 0 0 1-.6.8l-27.6 11.2c-12.7 5.1-21.9 6.1-30.4 6.1zm-97.5-83.6a1 1 0 0 1 .9.7c11.5 48.2 42.7 80.5 77.5 80.5 3.4 0 6.7.2 9.8.4 11.3.5 22 1 39-5.8l27.1-10.9v-20.9h-31a.9.9 0 0 1-.9-.9v-21a.9.9 0 0 1 .9-.9h49.4v-18.6H163a.9.9 0 0 1-.9-.9v-20.5a.9.9 0 0 1 .9-.9h35.5v-14.9h-18.7a.9.9 0 0 1-.9-.9v-20.5a.9.9 0 0 1 .9-.9h49.8V92.9h-68.7a.9.9 0 0 1-.9-.9V69a.9.9 0 0 1 .9-.9h37.6V48.2h-65a.9.9 0 0 1-.9-.9V28.1a.9.9 0 0 1 .9-.9h21.2V8.3h-32.5A120.5 120.5 0 0 0 1.8 128.7c0 59.7 43.7 109.4 100.8 118.8-27.3-9.5-50.1-38.7-59.7-78.5a.9.9 0 0 1 .7-1.1z"/><path d="M41.6 158.9a1 1 0 0 1-.9-.7 179.8 179.8 0 0 1-2.4-29.5 173.1 173.1 0 0 1 3.9-36.9.8.8 0 0 1 1-.7.9.9 0 0 1 .7 1.1 177.9 177.9 0 0 0-1.4 65.7.9.9 0 0 1-.7 1zm80.6 92c-7 0-13.9-5.2-20-15-13.1-21.4-21.3-62.5-21.3-107.2 0-2.6.1-5.2.1-7.8a.9.9 0 0 1 1.8 0c-.1 2.6-.1 5.2-.1 7.8 0 44.4 8.1 85.1 21 106.2 5.7 9.3 12.1 14.2 18.5 14.2 10.8 0 21.4-13.9 28.9-38.3a.9.9 0 0 1 1.1-.6 1.1 1.1 0 0 1 .6 1.1c-7.9 25.6-18.7 39.6-30.6 39.6z"/><path d="M179.8 129.6H.9a.9.9 0 1 1 0-1.8h178.9a.9.9 0 0 1 0 1.8zm-96.1-20.4a33.4 33.4 0 1 1 33.4-33.3 33.4 33.4 0 0 1-33.4 33.3zm0-64.9a31.6 31.6 0 1 0 31.6 31.6 31.6 31.6 0 0 0-31.6-31.6z"/><path d="M83.7 88.7a12.9 12.9 0 1 1 12.9-12.8 12.9 12.9 0 0 1-12.9 12.8zm0-23.9a11.1 11.1 0 1 0 11.1 11.1 11.1 11.1 0 0 0-11.1-11.1zM122.2 221a.9.9 0 0 1-.9-.9v-79.8a.9.9 0 1 1 1.8 0v79.8a.9.9 0 0 1-.9.9zm0-99.2a.9.9 0 0 1-.9-.9V98.5a.9.9 0 0 1 1.8 0v22.4a.9.9 0 0 1-.9.9zm44.6-92.7h-44.6a.9.9 0 1 1 0-1.8h44.6a.9.9 0 1 1 0 1.8zm44.8 40.8h-15.7a.9.9 0 1 1 0-1.8h15.7a.9.9 0 1 1 0 1.8zm26.6 23H134.3a.9.9 0 0 1 0-1.8h103.9a.9.9 0 0 1 0 1.8zm-24.6 40.4h-19.4a.9.9 0 0 1 0-1.8h19.4a.9.9 0 0 1 0 1.8zm17.9 37.2h-89.3a.9.9 0 0 1 0-1.8h89.3a.9.9 0 0 1 0 1.8z"/><path d="M83.7 64.8a.9.9 0 0 1-.9-.9V43.4a.9.9 0 0 1 1.8 0v20.5a.9.9 0 0 1-.9.9zm-10.3 6H73L55.2 60.4a.9.9 0 0 1 .9-1.5l17.7 10.2a.9.9 0 0 1 .4 1.2 1 1 0 0 1-.8.5zM55.6 93a.8.8 0 0 1-.7-.5.8.8 0 0 1 .3-1.2L73 81.1a.9.9 0 0 1 1.2.3.9.9 0 0 1-.4 1.2L56.1 92.9zm28.1 16.2a.9.9 0 0 1-.9-.9V87.8a.9.9 0 0 1 1.8 0v20.5a.9.9 0 0 1-.9.9zM111.8 93h-.4L93.6 82.6a.9.9 0 0 1 .9-1.5l17.8 10.2a.9.9 0 0 1 .3 1.2 1 1 0 0 1-.8.5zM94.1 70.8a1 1 0 0 1-.8-.5.9.9 0 0 1 .3-1.2l17.8-10.2a.8.8 0 0 1 1.2.3.9.9 0 0 1-.3 1.2L94.5 70.7zm126.6 141.1h-25.4a.9.9 0 0 1 0-1.8h25.4a.9.9 0 0 1 0 1.8zm-1.6-142h-1.5a.9.9 0 1 1 0-1.8h1.5a.9.9 0 1 1 0 1.8zm-43.9-40.8h-1.6a.9.9 0 0 1 0-1.8h1.6a.9.9 0 1 1 0 1.8zm46.7 104.2H220a.9.9 0 0 1 0-1.8h1.9a.9.9 0 0 1 0 1.8zm-86.6 37.2h-2a.9.9 0 0 1 0-1.8h2a.9.9 0 1 1 0 1.8zm92.7 41.4h-1.9a.9.9 0 1 1 0-1.8h1.9a.9.9 0 0 1 0 1.8zm11.8-41.4h-1.9a.9.9 0 0 1 0-1.8h1.9a.9.9 0 1 1 0 1.8zM184.3 15.7a5.6 5.6 0 0 1 0-11.2 5.7 5.7 0 0 1 5.6 5.6 5.7 5.7 0 0 1-5.6 5.6zm0-9.5a4 4 0 0 0-3.9 3.9 3.9 3.9 0 0 0 3.9 3.8 3.8 3.8 0 0 0 3.8-3.8 3.9 3.9 0 0 0-3.8-3.9zm49.8 59a5.7 5.7 0 0 1-5.6-5.6 5.7 5.7 0 0 1 5.6-5.6 5.7 5.7 0 0 1 5.6 5.6 5.6 5.6 0 0 1-5.6 5.6zm0-9.4a3.8 3.8 0 0 0-3.8 3.8 3.9 3.9 0 0 0 3.8 3.9 4 4 0 0 0 3.9-3.9 3.9 3.9 0 0 0-3.9-3.8zm-20.5 107.8a5.6 5.6 0 1 1 5.6-5.6 5.6 5.6 0 0 1-5.6 5.6zm0-9.4a3.8 3.8 0 1 0 3.8 3.8 3.8 3.8 0 0 0-3.8-3.8zm-42.1 82.9a5.6 5.6 0 1 1 5.6-5.6 5.6 5.6 0 0 1-5.6 5.6zm0-9.4a3.8 3.8 0 1 0 3.8 3.8 3.8 3.8 0 0 0-3.8-3.8zm-19.3-81.8a5.6 5.6 0 1 1 5.6-5.6 5.6 5.6 0 0 1-5.6 5.6zm0-9.4a3.8 3.8 0 1 0 3.8 3.8 3.8 3.8 0 0 0-3.8-3.8zm79.3-108.3a5.6 5.6 0 1 1 5.6-5.6 5.6 5.6 0 0 1-5.6 5.6zm0-9.4a3.8 3.8 0 1 0 3.8 3.8 3.8 3.8 0 0 0-3.8-3.8zm-83.3 51.1a6.9 6.9 0 1 1 6.9-6.9 6.9 6.9 0 0 1-6.9 6.9zm0-12a5.1 5.1 0 0 0-5.1 5.1 5.1 5.1 0 0 0 10.2 0 5.1 5.1 0 0 0-5.1-5.1zm97.6 57.3a6.9 6.9 0 1 1 6.9-6.9 6.9 6.9 0 0 1-6.9 6.9zm0-12a5.1 5.1 0 1 0 5.1 5.1 5.1 5.1 0 0 0-5.1-5.1zm3.3 100.8a6.9 6.9 0 1 1 6.9-6.9 6.9 6.9 0 0 1-6.9 6.9zm0-12a5.1 5.1 0 1 0 5.1 5.1 5.1 5.1 0 0 0-5.1-5.1zm-108.8 12a6.9 6.9 0 1 1 6.9-6.9 6.9 6.9 0 0 1-6.9 6.9zm0-12a5.1 5.1 0 1 0 5.1 5.1 5.1 5.1 0 0 0-5.1-5.1z"/></svg>