<svg xmlns="http://www.w3.org/2000/svg" width="256" height="256" viewBox="0 0 256 256"><path d="M185.7 156.4a1 1 0 0 1-.8-.6L128 3.4 71.1 155.8a.9.9 0 0 1-1.1.5 1 1 0 0 1-.6-1.1L127.2.6a.8.8 0 0 1 1.6 0l57.8 154.6a1 1 0 0 1-.6 1.1z"/><path d="M128.1 248.5c-11.5 0-17.3-10.6-17.3-31.6v-11.1L99 185.7l-19.9-6c-.2 0-.4-.2-.5-.5l-9.2-23.4a1.1 1.1 0 0 1 .1-.8.9.9 0 0 1 .8-.4h35.9a.9.9 0 0 1 0 1.8H71.6l8.5 21.8 19.8 5.9a1 1 0 0 1 .5.4l12.1 20.6a.9.9 0 0 1 .1.5v11.3c0 19.8 5.2 29.8 15.5 29.8a.9.9 0 0 1 0 1.8z"/><path d="M127.9 248.5a.9.9 0 0 1 0-1.8c10.2 0 15.3-10 15.3-29.8v-11.3c0-.2.1-.3.2-.5l12.1-20.6a1 1 0 0 1 .5-.4l19.8-5.9 8.5-21.8h-34.6a.9.9 0 0 1 0-1.8h35.9a.9.9 0 0 1 .8 1.2l-9.1 23.4a.6.6 0 0 1-.6.5l-19.9 6-11.8 20.1v11.1c0 21-5.7 31.6-17.1 31.6zm0-196.6a3.8 3.8 0 0 1-3.2-1.8l-9.6-16.2a.9.9 0 0 1 1.5-.9l9.6 16.2a2 2 0 0 0 1.7.9 1.9 1.9 0 0 0 1.7-.9l9.8-16.2a.9.9 0 1 1 1.5.9l-9.7 16.2a3.9 3.9 0 0 1-3.3 1.8z"/><path d="M130.6 69.5h-5.1a.9.9 0 0 1-.9-.9v-19a.9.9 0 0 1 1.8 0v18.1h3.3l-.2-18.1a1.1 1.1 0 0 1 .9-.9.9.9 0 0 1 .9.9l.2 19a1.1 1.1 0 0 1-.2.6.9.9 0 0 1-.7.3z"/><path d="M156.2 185.9a.8.8 0 0 1-.8-.7L129.8 68.8a1 1 0 0 1 .6-1.1.9.9 0 0 1 1.1.7l25.6 116.4a.9.9 0 0 1-.7 1zm-26.1-83h-4a.9.9 0 0 1-.9-.9V78.2a.9.9 0 0 1 .9-.9h4a.9.9 0 0 1 .8.9V102a.9.9 0 0 1-.8.9zm-3.1-1.8h2.2v-22H127zm13.3 97h-10.7a.9.9 0 0 1-.9-.8.9.9 0 0 1 .9-.9h10.1c5.1-13.2 4.1-31.2-2.2-40.5-2.6-3.9-5.8-5.8-9.6-5.8a.9.9 0 1 1 0-1.8c4.3 0 8.2 2.3 11.1 6.6 6.7 9.9 7.6 29 2.1 42.7a.8.8 0 0 1-.8.5z"/><path d="M131.1 198.1h-15.6a1 1 0 0 1-.8-.5c-5.5-13.7-4.5-32.8 2.1-42.7 3-4.3 6.8-6.6 11.2-6.6a.9.9 0 0 1 0 1.8c-3.8 0-7.1 1.9-9.7 5.8-6.3 9.3-7.2 27.3-2.1 40.5h14.9a.9.9 0 0 1 .9.9.9.9 0 0 1-.9.8z"/><path d="M128.1 256a.9.9 0 0 1-.9-.9V185a.9.9 0 0 1 1.8 0v70.1a.9.9 0 0 1-.9.9zm-15.6-128.3a.9.9 0 0 1-.9-.9V53h-2.7a.9.9 0 0 1-.9-.9.9.9 0 0 1 .9-.8h3.6a.9.9 0 0 1 .9.8v74.7a.9.9 0 0 1-.9.9zm30.8-.8a.9.9 0 0 1-.9-.9V52.4a.9.9 0 0 1 .9-.9h3.7a.9.9 0 0 1 0 1.8h-2.8V126a.9.9 0 0 1-.9.9zm-40.1 5.8a6.2 6.2 0 0 1-6.2-6.2 6.1 6.1 0 0 1 6.2-6.1 6.1 6.1 0 0 1 6.1 6.1 6.1 6.1 0 0 1-6.1 6.2zm0-10.6a4.4 4.4 0 1 0 0 8.8 4.4 4.4 0 0 0 0-8.8z"/><path d="M99.6 185.9h-.1a.9.9 0 0 1-.8-.8v-46.8h-6.2l-12.3 40.8a.8.8 0 0 1-1.1.6.9.9 0 0 1-.6-1.1L91 137.2a.8.8 0 0 1 .8-.6h7.8a.9.9 0 0 1 .9.9v39.3l24.1-108.4a.9.9 0 0 1 1.1-.7 1 1 0 0 1 .6 1.1l-25.8 116.4a1 1 0 0 1-.9.7z"/><path d="M81.1 174.1a.8.8 0 0 1-.8-.6l-6.6-17.7a1 1 0 0 1 .5-1.2 1 1 0 0 1 1.2.6l6.5 17.7a.8.8 0 0 1-.5 1.1zm31.4-69.4H89.6a.9.9 0 0 1 0-1.8h22.9a.9.9 0 0 1 0 1.8zm-4.1-9.1h-5.2a.9.9 0 0 1-.9-.9v-10a.9.9 0 0 1 .9-.9h5.2a.9.9 0 0 1 .9.9v10a.9.9 0 0 1-.9.9zm-4.3-1.8h3.4v-8.2h-3.4zm49 38.9a6.2 6.2 0 0 1-6.2-6.2 6.1 6.1 0 0 1 6.2-6.1 6.1 6.1 0 0 1 6.1 6.1 6.1 6.1 0 0 1-6.1 6.2zm0-10.6a4.4 4.4 0 1 0 0 8.8 4.4 4.4 0 0 0 0-8.8z"/><path d="M156.6 185.9a.8.8 0 0 1-.8-.7L129.9 68.8a.9.9 0 0 1 1.8-.4l24.1 108.4v-39.3a.9.9 0 0 1 .8-.9h7.8a.9.9 0 0 1 .9.6l12.4 41.4a.9.9 0 1 1-1.7.5l-12.2-40.8h-6.3V185a.8.8 0 0 1-.8.8z"/><path d="M175.2 174.1h-.4a.9.9 0 0 1-.5-1.1l6.6-17.7a1 1 0 0 1 1.1-.6 1 1 0 0 1 .6 1.2l-6.6 17.6a.8.8 0 0 1-.8.6zm-22.1-78.5h-5.3a.9.9 0 0 1-.9-.9v-10a.9.9 0 0 1 .9-.9h5.3a.9.9 0 0 1 .9.9v10a.9.9 0 0 1-.9.9zm-4.4-1.8h3.5v-8.2h-3.5zm-31.2 62.6a1.1 1.1 0 0 1-.9-1l4.9-73.2a.9.9 0 0 1 1-.8.8.8 0 0 1 .8.9l-4.9 73.2a.9.9 0 0 1-.9.9zm20.8 0a.9.9 0 0 1-.9-.9l-4.9-73.2a.8.8 0 0 1 .8-.9.8.8 0 0 1 1 .8l4.9 73.2a1 1 0 0 1-.8 1z"/><path d="M137.4 142.6h-18.9a.9.9 0 1 1 0-1.8h18.9a.9.9 0 0 1 0 1.8zm-.3-4.3h-18.4a.9.9 0 0 1 0-1.8h18.4a.9.9 0 0 1 0 1.8zm-23.6 53.2a.9.9 0 0 1-.8-.4l-11-18.4a.8.8 0 0 1 .3-1.2.9.9 0 0 1 1.2.3l11 18.4a.8.8 0 0 1-.3 1.2zm29.2 0h-.5a1 1 0 0 1-.3-1.2l11.1-18.5a.8.8 0 0 1 1.2-.3.9.9 0 0 1 .3 1.2l-11.1 18.4a.7.7 0 0 1-.7.4zm-2 48.1h-25.5a.9.9 0 0 1 0-1.8h25.5a.9.9 0 0 1 0 1.8z"/><path d="M131.2 138.3h-5.7a.9.9 0 0 1-.9-.9v-6.6a.9.9 0 0 1 .9-.9h5.7a.9.9 0 0 1 .9.9v6.6a.9.9 0 0 1-.9.9zm-4.8-1.8h3.9v-4.8h-3.9zm17.7 77.7H112a.9.9 0 1 1 0-1.8h32.1a.9.9 0 1 1 0 1.8z"/></svg>