<svg xmlns="http://www.w3.org/2000/svg" width="256" height="256" viewBox="0 0 256 256"><path d="M128.1 169.6h-11.4c-6.3 0-20.4-15.9-28.3-25.3-3.6-4.4-9-40.5-9.5-47.5h1.8c.5 7.5 6 42.8 9.1 46.4 9.9 12 22.2 24.7 26.9 24.7h11.4zm0-24.7a20.5 20.5 0 0 1-7.3-2.1l.8-1.6a19 19 0 0 0 6.5 1.9zm0-8a14.3 14.3 0 0 1-3.9-.8 15.6 15.6 0 0 0-3-.7l-2.3.2c-4.3.3-8.7.6-10.7-.2l.7-1.7c1.8.7 7.1.3 9.9.1l2.4-.2a13.3 13.3 0 0 1 3.5.8 17.2 17.2 0 0 0 3.4.7zm0-16.2a10.2 10.2 0 0 1-4.5-1.6 9.1 9.1 0 0 0-3.9-1.5c-.7 0-.9.3-1.2 1.3s-.5 1.8-1.8 1.8-4-2.4-4-6.5 3.3-5.9 3.5-6l1.1 1.4c-.7.7-2.8 2.8-2.8 4.6s1.4 4.5 2.1 4.7a1.1 1.1 0 0 0 .2-.5c.3-.9.8-2.6 2.9-2.6a9.6 9.6 0 0 1 4.7 1.7 9.5 9.5 0 0 0 3.7 1.4zm-12.2-31.4c-2.7-2.7-6.7-4.6-7.4-4.6s-10.7 1.8-12.8 4.5l-1.4-1.1c2.7-3.5 13.1-5.2 14.2-5.2s6 2.5 8.7 5.1zM87.8 84l3.2-3.2.6.6-.6-.6c1-1 3.6-3.6 7.2-4.1a103.3 103.3 0 0 1 11.6-.1h7.4a1.5 1.5 0 0 1 1.3.9 3.8 3.8 0 0 1-.7 3.8 2.8 2.8 0 0 1-2.7.9c-2.4-.7-18.7-1.9-23.1-.1zm13.4-4.6a86.2 86.2 0 0 1 14.3 1.1 1 1 0 0 0 1-.3 2.3 2.3 0 0 0 .4-1.7h-7.2a97.7 97.7 0 0 0-11.3.1 10.7 10.7 0 0 0-3.3 1.2 56.6 56.6 0 0 1 6.1-.4z"/><path d="M89 144.6c-3-.4-7.8-7-9.1-9.7a54.7 54.7 0 0 1-1.8-6.2c-1.3-5.2-3.2-12.4-5.4-15.9-4.4-6.8-6.6-24.1-6.6-27.5-.1-8.9 4.5-31.3 11.1-54.6C84.4 5.3 115.1 0 120.9 0s17 4.3 19 6.8-.1 23.6-4.8 28.3l-.4.4h-.5c-12.8-3.9-23.4 7.2-29.1 13.1l-.4.4a34.3 34.3 0 0 0-3.9 5.5C96.5 61.5 90.6 71 74.5 71v-1.9c15.1 0 20.5-8.7 24.8-15.7a41.5 41.5 0 0 1 4.1-5.8l.4-.3c5.9-6.2 16.7-17.5 30.3-13.8 4.2-5.1 5.5-24.1 4.4-25.6s-11.1-6.1-17.6-6.1-35.1 5.1-42 29.3-11.1 45.5-11 54.1c0 3.3 2.2 20.3 6.3 26.6 2.4 3.8 4.3 11.1 5.7 16.4a29.9 29.9 0 0 0 1.7 5.9c1.4 3.1 5.9 8.5 7.6 8.7z"/><path d="M105.5 90.5a4.2 4.2 0 0 1-4.2-4.3 4 4 0 0 1 .3-1.5l.2-.4h.4a31.1 31.1 0 0 1 5.5-1.2h.5l.3.3a4.3 4.3 0 0 1 1.3 3 4.3 4.3 0 0 1-4.3 4.1zm-2.4-4.7v.4a2.5 2.5 0 1 0 4.9 0 2.4 2.4 0 0 0-.5-1.4zm36.3 83.8h-11.3v-1.8h11.3c4.7 0 17.1-12.7 27-24.7 2.9-3.5 7.2-33.5 8.1-42.8h1.8c-.3 3.7-4.7 39.3-8.5 43.9-7.9 9.5-22.1 25.4-28.4 25.4zm-11.3-24.7v-1.8a19.7 19.7 0 0 0 6.5-1.9l.8 1.6a21.1 21.1 0 0 1-7.3 2.1zm0-8v-1.8a18.7 18.7 0 0 0 3.4-.7 13.3 13.3 0 0 1 3.5-.8l2.4.2c2.8.2 8.1.6 9.9-.1l.7 1.7c-2.1.8-6.4.5-10.8.2l-2.2-.2a14.1 14.1 0 0 0-3 .7 15.9 15.9 0 0 1-3.9.8zm11.3-16.2c-1.2 0-1.6-1.1-1.8-1.8s-.4-1.3-1.2-1.3a8.4 8.4 0 0 0-3.8 1.5 10.7 10.7 0 0 1-4.5 1.6v-1.8a9.2 9.2 0 0 0 3.6-1.4 10.4 10.4 0 0 1 4.7-1.7c2.2 0 2.7 1.7 3 2.6s.1.4.1.5 2.1-1.5 2.1-4.7-2-3.9-2.8-4.6l1.2-1.4c.1.1 3.4 2.9 3.4 6s-2.1 6.5-4 6.5zm.9-31.4L139 88c2.7-2.6 7.1-5.1 8.6-5.1s11.6 1.7 14.3 5.2l-1.4 1.1c-2.1-2.7-11.7-4.5-12.9-4.5s-4.6 1.9-7.3 4.6zm28.1-5.3l-4.2-1.8c-4.5-1.8-20.7-.6-23.1.1a2.8 2.8 0 0 1-2.7-.9 3.8 3.8 0 0 1-.7-3.8 1.3 1.3 0 0 1 1.3-.9h7.4a103.7 103.7 0 0 1 11.6.1c3.6.5 6.2 3.1 7.2 4.1zm-29.1-5.5a2.3 2.3 0 0 0 .4 1.7.8.8 0 0 0 .9.3c2.1-.6 13.6-1.6 20.5-.8a11.4 11.4 0 0 0-3.4-1.2 97.3 97.3 0 0 0-11.3-.1z"/><path d="M150.6 90.5a4.2 4.2 0 0 1-4.2-4.3 4.3 4.3 0 0 1 1.3-3l.3-.3h.4a30 30 0 0 1 5.6 1.2h.4l.2.4a4 4 0 0 1 .3 1.5 4.3 4.3 0 0 1-4.3 4.5zm-1.9-5.7a2.4 2.4 0 0 0-.5 1.4 2.5 2.5 0 1 0 4.9 0 .6.6 0 0 0-.1-.4c-1.7-.5-3.3-.8-4.3-1zm-37.5 50.9v-1.8l1.5-.6a20.9 20.9 0 0 1 8.9-2.5 12.4 12.4 0 0 1 5.7 1l.8.3v1.8a3.3 3.3 0 0 1-1.5-.4c-.8-.4-2-.9-5-.9s-6.1 1.4-8.1 2.3a5.5 5.5 0 0 1-2.3.8zm33.7 0a5.3 5.3 0 0 1-2.2-.8c-2-.9-5-2.3-8.1-2.3s-4.2.5-5 .9a3.7 3.7 0 0 1-1.5.4v-1.8l.8-.3a12.4 12.4 0 0 1 5.7-1 20.4 20.4 0 0 1 8.8 2.5 5.4 5.4 0 0 0 1.6.6zm-71.3-34.5l-.4-1.7c11.6-2.6 10.5-18.4 9.9-26.9-.1-1.6-.1-2.9-.2-3.9h1.8c0 .9.1 2.2.2 3.8.6 9 1.8 25.9-11.3 28.7z"/><path d="M82.7 117.4c-5 0-7.9-6.3-7.9-17.8h1.8c0 4.8.6 16 6.1 16zm99.7-16.2c-13-2.8-11.2-29.4-10.3-42.2.2-2.1.3-3.8.3-4.7h1.8c0 1-.1 2.7-.3 4.8-.8 11.3-2.6 37.8 8.9 40.4z"/><path d="M173.3 117.4v-1.8c5.5 0 6.1-11.2 6.1-16h1.8c0 11.5-2.8 17.8-7.9 17.8zm-75.4 67.4l-1.8-.3c1.2-6.9 1.1-15.3 1-23.6 0-2.4-.1-4.8-.1-7.1h1.8c0 2.3.1 4.7.1 7.1.1 8.3.2 16.9-1 23.9z"/><path d="M108 240.4l-7.2-33c-7.5-9.3-9.3-23.9-7.9-34.2.7-5.5 2.4-9.5 4.5-11l1.1 1.4c-1.7 1.2-3.2 5-3.8 9.9-1.4 10 .4 24.1 7.6 33h.1v.2l7.2 33.3zm-30.2-55.6l-1.8-.4c6-23.8 17.4-26.4 22-26.4v1.8c-8.8 0-16.2 9.1-20.2 25z"/><path d="M103.1 256l-5.2-24.4-3.8-1.5c-10.5-4-30.1-11.6-28-19.8a97.5 97.5 0 0 1 9-24.1l-38.9 14-.7-1.7L78.7 183l-1 2c-5.7 11.3-7.6 16.5-9.9 25.7-1.6 6.7 18.4 14.4 27 17.7l4.2 1.7.4.2 5.4 25.3zm55-71.2c-1.2-7-1.1-15.6-1-23.9 0-2.4.1-4.8.1-7.1h1.8c0 2.3-.1 4.7-.1 7.1-.1 8.3-.2 16.7 1 23.6z"/><path d="M148 240.4l-1.7-.3 7.3-33.5h.1c7.2-8.9 9-23 7.6-33-.6-4.9-2.1-8.7-3.8-9.9l1.1-1.4c2.1 1.5 3.8 5.5 4.5 11 1.4 10.3-.4 24.9-7.9 34.2zm30.2-55.6c-4-15.9-11.4-25-20.2-25V158c4.6 0 16 2.6 22 26.4z"/><path d="M152.9 256l-1.7-.4 5.4-25.3.4-.2 4.2-1.7c8.6-3.3 28.6-11 27-17.7-2.3-9.2-4.2-14.4-9.9-25.7l-1-2 43.2 15.5-.7 1.7-38.9-14a97.5 97.5 0 0 1 9 24.1c2.1 8.2-17.5 15.8-28 19.8l-3.8 1.5zm14.2-111.4l-.3-1.8c1.7-.2 6.2-5.6 7.7-8.7a56.9 56.9 0 0 0 1.7-5.9c1.3-5.3 3.2-12.6 5.7-16.4 4.1-6.3 6.2-23.3 6.3-26.6 0-8.2-3.3-30.4-11.1-54-3.7-11.4-10.2-19.2-18.7-22.7s-15.7-1.9-18.8-.4l-.8-1.6c3.5-1.8 11.7-3.2 20.3.3 6.3 2.6 14.8 8.8 19.7 23.8 8.3 25.2 11.2 46.9 11.2 54.7-.1 3.4-2.3 20.7-6.6 27.5-2.3 3.5-4.1 10.7-5.5 15.9a39.3 39.3 0 0 1-1.8 6.2c-1.3 2.7-6.1 9.3-9 9.7z"/><path d="M182.6 69.6c-4.6 0-7.2-7-10.5-15.9-4.1-11.3-9.3-25.3-20.2-26.8-7.2-1-10.5 2.1-14.5 6l-2.4 2.3-1.2-1.4 2.3-2.1c4.3-4.1 7.9-7.7 16.1-6.6 11.9 1.6 17.3 16.2 21.6 27.9 2.8 7.6 5.4 14.8 8.8 14.8z"/></svg>