<svg id="Layer_1" data-name="Layer 1" xmlns="http://www.w3.org/2000/svg" width="256" height="256" viewBox="0 0 256 256"><title>imperial</title><path d="M128,254A126,126,0,1,1,254,128,126.1,126.1,0,0,1,128,254ZM128,3.8A124.2,124.2,0,1,0,252.2,128,124.3,124.3,0,0,0,128,3.8Z"/><path d="M143.5,202.9H111.6l7.5-38.1a37.9,37.9,0,0,1-18.4-10.5L70.9,178.9,55,151.2l36.7-12.5A35.1,35.1,0,0,1,90.1,128a37,37,0,0,1,1.5-10.5L55.4,104l16-27.6,29.1,25.5a38.2,38.2,0,0,1,18.4-10.7l-6.4-38.1h31.9l-7.5,38.1a37.9,37.9,0,0,1,18.4,10.5l29.8-24.6L201,104.8l-36.7,12.5a35.1,35.1,0,0,1,1.6,10.7,37,37,0,0,1-1.5,10.5L200.6,152l-16,27.6-29.1-25.5a38.2,38.2,0,0,1-18.4,10.7ZM113.8,201h27.6L135,163.4l.8-.2a35,35,0,0,0,18.9-11l.6-.6,28.9,25.2,13.7-23.9-35.7-13.3.2-.8a35.9,35.9,0,0,0,1.7-10.8,33.8,33.8,0,0,0-1.8-11l-.2-.9,36.2-12.3L184.6,79.9l-29.5,24.3-.5-.6a35.7,35.7,0,0,0-19-10.8l-.9-.2L142.2,55H114.6L121,92.6l-.8.2a35,35,0,0,0-18.9,11l-.6.6L71.8,79.2,58.1,103.1l35.7,13.3-.2.8A35.9,35.9,0,0,0,91.9,128a33.8,33.8,0,0,0,1.8,11l.2.9L57.7,152.2l13.7,23.9,29.5-24.3.5.6a35.7,35.7,0,0,0,19,10.8l.9.2Z"/><path d="M46.3,75.1,32.7,67.2l.5-.8A113.4,113.4,0,0,1,122.7,15h.9V30.8h-.8c-4.8.1-13.4.8-18.6,3.3l3.2,11.4-.9.2A85.1,85.1,0,0,0,68.2,67.6l-.6.7-8.5-8.7c-4.8,3.3-9.7,10.6-12.3,14.7ZM35.2,66.6l10.5,6c3.4-5.3,8.3-11.9,13.1-14.9l.6-.4,8.2,8.4a86.6,86.6,0,0,1,37.5-21.4l-3-11,.6-.4c4.9-2.6,12.9-3.5,19.1-3.8V16.9A111.6,111.6,0,0,0,35.2,66.6Z"/><path d="M210,75.6l-.5-.7c-2.6-4.1-7.4-11.2-12.2-14.4l-8.2,8.4-.7-.6a84.7,84.7,0,0,0-38-22.2l-.9-.3,3.3-11.6c-5.3-2.5-14-3.2-18.9-3.3H133V15h1a113.2,113.2,0,0,1,89.2,51.8l.5.8ZM197.1,58.2l.6.3c4.7,3,9.5,9.5,12.9,14.7l10.5-6.1a111.7,111.7,0,0,0-86.3-50.2V29.1c6.3.2,14.5,1.1,19.5,3.8l.6.4-3.1,11.2a87.1,87.1,0,0,1,37.3,21.8Z"/><path d="M132.4,241V225.2h.8c4.8-.1,13.4-.8,18.6-3.3l-3.2-11.4.9-.2a85.1,85.1,0,0,0,38.3-21.8l.6-.7,8.5,8.7c4.8-3.3,9.7-10.6,12.3-14.7l.5-.8,13.6,7.9-.5.8A113.4,113.4,0,0,1,133.3,241Zm1.8-14.1v12.2a111.6,111.6,0,0,0,86.6-49.7l-10.5-6c-3.4,5.3-8.3,11.9-13.1,14.9l-.6.4-8.2-8.4a86.6,86.6,0,0,1-37.5,21.4l3,11-.6.4C148.4,225.7,140.4,226.6,134.2,226.9Z"/><path d="M228,180.7l-13.7-7.9.4-.8c2.3-4.2,6-12,6.4-17.7l-11.4-3,.2-.8A86,86,0,0,0,213,128a87.7,87.7,0,0,0-2.8-21.6l-.2-.8,11.6-3.1c-.4-5.8-4.2-13.7-6.5-18l-.4-.8,13.6-7.9.5.9a113.2,113.2,0,0,1-.3,103.2Zm-11.2-8.6,10.5,6.1a111,111,0,0,0,.3-99.8l-10.5,6c2.9,5.6,6.2,13.2,6.4,18.8v.7l-11.3,3a88.3,88.3,0,0,1,2.6,21.1,86.3,86.3,0,0,1-2.9,22l11.1,2.9v.7C222.8,159.2,219.6,166.6,216.8,172.1Z"/><path d="M27.7,180.2l-.5-.9a113.2,113.2,0,0,1,.3-103.2l.5-.8,13.7,7.9-.4.8c-2.3,4.2-6,12-6.4,17.7l11.4,3-.2.8A86,86,0,0,0,43,128a87.7,87.7,0,0,0,2.8,21.6l.2.8-11.6,3.1c.4,5.8,4.2,13.7,6.5,18l.4.8Zm1-102.4a111,111,0,0,0-.3,99.8l10.5-6c-2.9-5.6-6.2-13.2-6.4-18.8v-.7l11.3-3A88.3,88.3,0,0,1,41.2,128a86.3,86.3,0,0,1,2.9-22L33,103.1v-.7c.2-5.6,3.4-13,6.2-18.5Z"/><path d="M123,241h-1a113.2,113.2,0,0,1-89.2-51.8l-.5-.8L46,180.4l.5.7c2.6,4.1,7.4,11.2,12.2,14.4l8.2-8.4.7.6a84.7,84.7,0,0,0,38,22.2l.9.3-3.3,11.6c5.3,2.5,14,3.2,18.9,3.3h.9ZM34.9,188.9a111.7,111.7,0,0,0,86.3,50.2V226.9c-6.3-.2-14.5-1.1-19.5-3.8l-.6-.4,3.1-11.2a87.1,87.1,0,0,1-37.3-21.8l-8,8.1-.6-.3c-4.7-3-9.5-9.5-12.9-14.7Z"/></svg>