<svg id="Layer_1" data-name="Layer 1" xmlns="http://www.w3.org/2000/svg" width="256" height="256" viewBox="0 0 256 256"><title>landspeeder</title><path d="M241.6,158.8H55.1a12,12,0,0,1-12-12v-16a.7.7,0,0,1,.8-.8H241.6a14.4,14.4,0,0,1,0,28.8ZM44.8,131.7v15.1a10.3,10.3,0,0,0,10.3,10.3H241.6a12.7,12.7,0,0,0,0-25.4Z"/><path d="M80.1,144.4l-43.4-.7a7.9,7.9,0,0,1-7.8-7.9h0a7.9,7.9,0,0,1,7.8-7.9l43.4-.5a8,8,0,0,1,8,8v1.1A7.9,7.9,0,0,1,80.1,144.4Z"/><path d="M80.2,145.3h-.1l-43.4-.7a8.8,8.8,0,0,1,0-17.6l43.4-.4a8.4,8.4,0,0,1,6.3,2.5,8.8,8.8,0,0,1,2.6,6.3v1.1a8.8,8.8,0,0,1-2.6,6.3A9,9,0,0,1,80.2,145.3Zm-.1-1.8a6.6,6.6,0,0,0,5-2,6.7,6.7,0,0,0,2.1-5v-1.1a7,7,0,0,0-2-5,7.1,7.1,0,0,0-5.1-2.1l-43.3.5a7,7,0,0,0-7,7,7.2,7.2,0,0,0,6.9,7.1Z"/><path d="M52.2,116.9h-.3L8.5,115.7A8.7,8.7,0,0,1,0,107a8.8,8.8,0,0,1,8.5-8.8l43.4-1a8.6,8.6,0,0,1,9,8.7v2.2a8.7,8.7,0,0,1-8.7,8.8Zm0-18H52L8.6,100a7,7,0,0,0,0,13.9L52,115.1h0a7,7,0,0,0,5-2,6.7,6.7,0,0,0,2.1-5v-2.2a7,7,0,0,0-6.9-7Z"/><path d="M241.4,151.3H105.9a6.9,6.9,0,0,1,0-13.8H241.4a6.9,6.9,0,0,1,0,13.8Zm-135.5-12a5.1,5.1,0,0,0,0,10.2H241.4a5.1,5.1,0,0,0,0-10.2Z"/><path d="M176.2,131.7c-.4,0-.7-.1-.8-.4-6.1-10.6-29.4-21.9-41.3-21.9-3.8,0-34,18.4-35.4,21.5a.8.8,0,0,1-.8.8.9.9,0,0,1-.9-.9c0-2.1,9.1-8.2,16.8-12.9,2.8-1.7,16.9-10.3,20.3-10.3,12.3,0,36.5,11.8,42.8,22.8a.8.8,0,0,1-.3,1.2ZM98.7,131Zm0-.2Z"/><path d="M130.1,151.3a.9.9,0,0,1,0-1.8,5.1,5.1,0,1,0,0-10.2.9.9,0,0,1,0-1.8,6.9,6.9,0,1,1,0,13.8Z"/><path d="M43.9,116.6a.7.7,0,0,1-.8-.8V98a.7.7,0,0,1,.8-.8.8.8,0,0,1,.9.8v17.8A.8.8,0,0,1,43.9,116.6Z"/><path d="M72.8,145.2a.9.9,0,0,1-.9-.9V127.5a.9.9,0,0,1,1.8,0v16.8A.9.9,0,0,1,72.8,145.2Z"/><path d="M31.9,130.2a.8.8,0,0,1-.7-.3L19.5,115.7a1,1,0,0,1,.2-1.3.8.8,0,0,1,1.2.2l11.6,14.2a.8.8,0,0,1-.1,1.2A.6.6,0,0,1,31.9,130.2Z"/><path d="M58,128.6a1,1,0,0,1-.7-.4l-9.6-11.7a.8.8,0,0,1,.2-1.2.8.8,0,0,1,1.2.1l9.6,11.7a.9.9,0,0,1-.2,1.3Z"/><path d="M136.4,115.1c4.1.2,23.1,8.1,25.4,10.4"/><path d="M161.8,126.4a.9.9,0,0,1-.7-.3c-1.9-2-20.8-9.9-24.8-10.1a.9.9,0,0,1-.8-.9.9.9,0,0,1,.9-.9c4.1.2,23.5,8.1,26,10.7a.9.9,0,0,1,0,1.2Z"/><path d="M8.6,115.7a.9.9,0,0,1-.9-.9V99.1a.9.9,0,0,1,.9-.9.9.9,0,0,1,.8.9v15.7A.9.9,0,0,1,8.6,115.7Z"/><path d="M36.7,144.6a.9.9,0,0,1-.8-.9V127.9a.9.9,0,0,1,.8-.9.9.9,0,0,1,.9.9v15.8A.9.9,0,0,1,36.7,144.6Z"/></svg>