<svg id="Layer_1" data-name="Layer 1" xmlns="http://www.w3.org/2000/svg" width="256" height="256" viewBox="0 0 256 256"><title>leia</title><path d="M142.4,144.1c-.2,0-.5,0-.6-.2a.9.9,0,0,1-.1-1.3c3.9-4,10.4-10.8,18.6-10.8a16.8,16.8,0,0,1,12.3,5l.6.5a.9.9,0,1,1-1.1,1.4l-.7-.6a15.6,15.6,0,0,0-11.1-4.4c-7.4,0-13.6,6.4-17.3,10.2C142.9,144.1,142.6,144.1,142.4,144.1Z"/><path d="M145.1,128.6a.8.8,0,0,1-.8-.6c-.3-.4-.1-.9.4-1.2,9.4-4.6,16.8-6.8,22.7-6.8,7.8,0,12.7,4.2,13.8,5.6a.9.9,0,0,1-1.5,1.1c-.8-1-5.1-4.9-12.3-4.9-5.6,0-12.8,2.2-21.9,6.7Z"/><path d="M158.9,144a6.7,6.7,0,0,1-6.7-6.7,7,7,0,0,1,1-3.4.9.9,0,0,1,1.2-.3,1,1,0,0,1,.3,1.3,5.1,5.1,0,0,0-.7,2.4,4.9,4.9,0,1,0,9.8,0,4.8,4.8,0,0,0-1.6-3.6.9.9,0,0,1,1.2-1.4,6.8,6.8,0,0,1,2.2,5A6.7,6.7,0,0,1,158.9,144Z"/><path d="M127.1,192a.9.9,0,1,1,0-1.8c2.9,0,5.3-2.1,7.3-3.9s3-2.8,4.6-2.8a1,1,0,0,1,.9,1,.9.9,0,0,1-.9.9c-.9,0-2.1,1.1-3.4,2.2S130.7,192,127.1,192Z"/><path d="M127.1,214.2a.9.9,0,0,1,0-1.8,5.8,5.8,0,0,0,2-.5,14.4,14.4,0,0,1,5-.9h14.3a.9.9,0,0,1,0,1.8H134.1a11.9,11.9,0,0,0-4.4.8A8.2,8.2,0,0,1,127.1,214.2Z"/><path d="M127.1,224a.9.9,0,1,1,0-1.8c8,0,16.8-5,16.8-9.6a.9.9,0,0,1,1.8,0C145.7,218.7,135.5,224,127.1,224Z"/><path d="M127.1,252.9a.9.9,0,1,1,0-1.8c9.7,0,15.9-1.3,20.6-7.9,1.9-2.7,5.8-5.7,10.4-9.2,7.2-5.5,16.1-12.2,19.2-19.7,7.4-18,12.3-34.1,14.5-48a.9.9,0,1,1,1.8.3c-2.2,14-7.1,30.3-14.6,48.4-3.3,7.9-12.4,14.8-19.8,20.4-4.4,3.4-8.3,6.4-10,8.8C144.1,251.5,137.2,252.9,127.1,252.9Z"/><path d="M218.9,205.8l-2.8-.2-4.2-.5a24.2,24.2,0,0,1-21.4-26.9L203.2,66.6a24.3,24.3,0,0,1,27-21.4l4.2.4a24.3,24.3,0,0,1,16.3,9.1,23.6,23.6,0,0,1,5.1,17.9L243.1,184.2A24.4,24.4,0,0,1,218.9,205.8Zm8.5-159a22.6,22.6,0,0,0-22.4,20L192.3,178.4a22.4,22.4,0,0,0,19.8,24.9l4.2.5a22.6,22.6,0,0,0,25-19.8L254,72.4a22.5,22.5,0,0,0-19.8-25L230,47Z"/><path d="M198.7,114.8c-39.7,0-72.5-29.9-72.5-35.2V6a.9.9,0,0,1,.6-.9c15.5-4.8,33.4-.9,49.1,10.6,17.6,13.1,29,33.5,29,52.2a.9.9,0,1,1-1.8,0c0-18.1-11.1-38-28.3-50.7-15-11-32-14.9-46.8-10.6v73c0,3.8,31.5,33.4,70.7,33.4a.9.9,0,1,1,0,1.8Z"/><path d="M111.7,144.1a.7.7,0,0,1-.6-.2c-3.7-3.8-9.9-10.2-17.3-10.2a15.6,15.6,0,0,0-11.1,4.4l-.7.6a.8.8,0,0,1-1.2-.1.9.9,0,0,1,.1-1.3l.6-.5a17,17,0,0,1,12.3-5c8.2,0,14.7,6.8,18.6,10.8a1.1,1.1,0,0,1,0,1.3A.8.8,0,0,1,111.7,144.1Z"/><path d="M109,128.6h-.4c-9.1-4.5-16.3-6.7-21.9-6.7-7.2,0-11.5,3.9-12.3,4.9a.9.9,0,0,1-1.3.2.9.9,0,0,1-.1-1.3c1-1.4,5.9-5.6,13.7-5.6,5.9,0,13.3,2.2,22.7,6.8a.9.9,0,0,1,.5,1.2A1,1,0,0,1,109,128.6Z"/><path d="M95.2,144a6.7,6.7,0,0,1-6.7-6.7,6.6,6.6,0,0,1,2.3-5,.8.8,0,0,1,1.2.1.9.9,0,0,1,0,1.3,4.6,4.6,0,0,0-1.7,3.6,4.9,4.9,0,1,0,9.8,0,5.1,5.1,0,0,0-.7-2.4,1,1,0,0,1,.3-1.3,1.1,1.1,0,0,1,1.3.3,6.9,6.9,0,0,1,.9,3.4A6.7,6.7,0,0,1,95.2,144Z"/><path d="M127.1,192c-3.7,0-6.4-2.4-8.6-4.4s-2.5-2.2-3.3-2.2a.9.9,0,0,1-.9-.9,1,1,0,0,1,.9-1c1.5,0,2.9,1.3,4.5,2.8s4.4,3.9,7.4,3.9a.9.9,0,0,1,0,1.8Z"/><path d="M127.1,214.2a7.6,7.6,0,0,1-2.6-.6,13,13,0,0,0-4.5-.8H105.7a.9.9,0,0,1,0-1.8H120a14.4,14.4,0,0,1,5,.9,6.3,6.3,0,0,0,2.1.5.9.9,0,1,1,0,1.8Z"/><path d="M127.1,224c-8.4,0-18.7-5.3-18.7-11.4a.9.9,0,0,1,1.8,0c0,4.6,8.8,9.6,16.9,9.6a.9.9,0,0,1,0,1.8Z"/><path d="M127.1,252.9c-10.2,0-17.1-1.4-22.2-8.7-1.7-2.4-5.5-5.4-10-8.8-7.4-5.6-16.5-12.5-19.8-20.4-5.9-14.4-12.3-31.4-14.6-48.4a1,1,0,0,1,.8-1.1,1,1,0,0,1,1,.8c2.3,16.8,8.6,33.7,14.5,48,3.1,7.5,12,14.2,19.2,19.7,4.6,3.5,8.6,6.5,10.4,9.2,4.7,6.6,10.9,7.9,20.7,7.9a.9.9,0,1,1,0,1.8Z"/><path d="M36.7,205.6a23.6,23.6,0,0,1-14.8-5.2,24,24,0,0,1-8.9-16L.2,71.9a23.4,23.4,0,0,1,5-17.6,23.5,23.5,0,0,1,16-8.8l3.2-.4a24.1,24.1,0,0,1,17.6,5,23.7,23.7,0,0,1,8.8,16L63.7,178.6a23.9,23.9,0,0,1-21,26.5l-3.2.3ZM27.2,46.8H24.6l-3.2.4A21.8,21.8,0,0,0,6.6,55.5,21.5,21.5,0,0,0,2,71.7L14.8,184.2A22.2,22.2,0,0,0,23,199a21.7,21.7,0,0,0,16.3,4.6h0l3.2-.3a22.1,22.1,0,0,0,19.4-24.5L49,66.3a21.4,21.4,0,0,0-8.1-14.7A21.8,21.8,0,0,0,27.2,46.8Z"/><path d="M55.4,114.8a.9.9,0,0,1,0-1.8c39.2,0,70.8-29.6,70.8-33.4V6.6c-14.9-4.3-31.9-.4-46.9,10.6C62.2,29.9,51,49.8,51,67.9a.9.9,0,0,1-1.8,0c0-18.7,11.4-39.1,29.1-52.2C93.9,4.2,111.8.3,127.3,5.1a1,1,0,0,1,.7.9V79.6C128,84.9,95.1,114.8,55.4,114.8Z"/><path d="M109.3,207.7a.8.8,0,0,1-.8-.6.8.8,0,0,1,.5-1.1l2.2-.7c4.2-1.5,6.7-2.3,9.9-2.3a7.6,7.6,0,0,1,3.9.9,3.7,3.7,0,0,0,2.1.6,7.9,7.9,0,0,0,3.2-.8,6,6,0,0,1,2.7-.7c1.7,0,11.3,2.1,12.4,3.2a.9.9,0,0,1,0,1.3.9.9,0,0,1-1.2,0c-.9-.7-9.4-2.7-11.2-2.7a6.1,6.1,0,0,0-2.1.6,9.7,9.7,0,0,1-3.8.9,5.4,5.4,0,0,1-3-.8,5,5,0,0,0-3-.7c-2.9,0-5.2.8-9.4,2.2l-2.1.7Z"/></svg>