<svg xmlns="http://www.w3.org/2000/svg" width="256" height="256" viewBox="0 0 256 256"><path d="M142.8 108.7h-.5a1 1 0 0 1-.3-1.3c2.3-3.9 7.5-8.2 13.4-8.2s11.4 2.4 12.7 4.3a.9.9 0 0 1-.3 1.2.8.8 0 0 1-1.2-.2c-.7-1.1-6.1-3.5-11.2-3.5s-9.7 3.7-11.9 7.3a.8.8 0 0 1-.7.4z"/><path d="M154.3 109.4a5.5 5.5 0 0 1-5.5-5.5 5.2 5.2 0 0 1 1.2-3.4l.3-.3a14.3 14.3 0 0 1 5.2-1.1h1.9a5.5 5.5 0 0 1 2.4 4.6 5.5 5.5 0 0 1-5.5 5.7zm-3.1-7.6a3.8 3.8 0 0 0 3.1 5.8 3.8 3.8 0 0 0 3.7-3.7 3.6 3.6 0 0 0-1.5-3 11.2 11.2 0 0 0-5.3.9zm-22.8 41.6a.9.9 0 1 1 0-1.8 15.1 15.1 0 0 0 2.4-1.3l1.2-.7a8.3 8.3 0 0 1 4.2-1.3 4.5 4.5 0 0 1 2.2.5 2 2 0 0 1 .9 1.7 2.7 2.7 0 0 1-2.7 2.5 6.2 6.2 0 0 1-2.8-.9 5.8 5.8 0 0 0-1.6-.5l-.5.3c-1.6.9-2.5 1.5-3.3 1.5zm6-3h.2a5.3 5.3 0 0 0 2 .7 1 1 0 0 0 .9-.7v-.2a3.5 3.5 0 0 0-1.2-.2 5.7 5.7 0 0 0-1.9.4zm13.1 21.4c-3.3 0-9.8-2-13.7-3.1l-2.8-.8c-.4 0-.6.1-1.3.6l-.6.4a1 1 0 0 1-1.2-.3 1 1 0 0 1 .3-1.3l.5-.3a3.5 3.5 0 0 1 2.3-.9 15.9 15.9 0 0 1 3.3.8c3.8 1.2 10.2 3.1 13.2 3.1a.9.9 0 0 1 0 1.8zm-18.8 7.7a.9.9 0 1 1 0-1.8c2.1 0 6.2 0 7.2-.4a.9.9 0 0 1 .7 1.7c-1.1.4-3.6.5-7.9.5z"/><path d="M128.7 161.8a1.2 1.2 0 0 1-.8-.4.9.9 0 0 1 .2-1.3c1.2-.8 11.7-.1 11.8-.1a.8.8 0 0 1 .8.9.9.9 0 0 1-.9.9c-4.1-.3-9.9-.4-10.7-.1zm.5-.2zm-.5 26.1a.9.9 0 0 1-.9-.9v-3.2a.9.9 0 0 1 .9-.9 1 1 0 0 1 .9.9v3.2a1 1 0 0 1-.9.9zm5.5-57h-.3c-2.2-.9-2.3-2.4-2.3-4.3v-12.3a.9.9 0 1 1 1.8 0v12.3c0 1.8.1 2.2 1.2 2.6a1 1 0 0 1 .5 1.2 1.1 1.1 0 0 1-.9.5zm-5.5 61.7a.9.9 0 1 1 0-1.8c23.1 0 28.8-11.3 33.9-21.3a61.3 61.3 0 0 1 4-7.2c.8-1.3 1.8-2.6 2.8-4.1 5.4-7.8 12.2-17.5 12.2-26.1a.9.9 0 1 1 1.8 0c0 9.2-7 19.1-12.5 27.1-1.1 1.5-2 2.8-2.8 4.1a58 58 0 0 0-3.9 7c-5.3 10.5-11.3 22.3-35.5 22.3z"/><path d="M190.4 135.4a12.6 12.6 0 0 1-8.5-2.8c-2.4-2.3-2-10.9-.9-25 .7-8.7 1.4-18.6.3-22.5-5.2 2.9-21.2 6.6-29.1 6.6a1 1 0 0 1-.8-.6 1.1 1.1 0 0 1 .2-1c5.5-4.9 8.5-14.1 8.8-19.4-4.8 7.1-18 21.4-33.8 21.4-1.6 0-39.5.1-51.1-7.6a.9.9 0 0 1-.3-1.2 1.1 1.1 0 0 1 1.3-.3c11.1 7.4 49.7 7.3 50.1 7.3 17.2 0 31.3-17.9 33.7-22.9a.8.8 0 0 1 .9-.5.9.9 0 0 1 .8.6c1.2 4.6-1.7 15.7-7.5 22.3 8.9-.6 23.9-4.5 26.7-6.7a.8.8 0 0 1 .7-.2c.3.1.5.2.6.5 1.9 3.4 1.1 13.6.3 24.4s-1.6 21.7.3 23.5c5.5 4.6 15 1.6 20.4-1.7-4.1-5.2-7.9-24.2-7.9-33.8a100.6 100.6 0 0 1 1.2-14.3 80.3 80.3 0 0 0 1-10.8.9.9 0 0 1 1.8 0 81.8 81.8 0 0 1-1 11 97.7 97.7 0 0 0-1.2 14.1c0 10.3 4.5 30.6 8 33.3a1 1 0 0 1 .4.7.8.8 0 0 1-.4.7 31.7 31.7 0 0 1-11.3 4.6z"/><path d="M67.4 133.1c-5.5 0-11.4-2.5-15-4.9a1 1 0 0 1-.4-.7.9.9 0 0 1 .4-.8c3.7-2.8 7.9-21.1 7.9-30.9a97.7 97.7 0 0 0-1.2-14.1 81.8 81.8 0 0 1-1-11 .9.9 0 1 1 1.8 0 80.3 80.3 0 0 0 1 10.8 100.6 100.6 0 0 1 1.2 14.3c0 9-3.6 26.5-7.8 31.5 5.4 3.2 14.8 6.2 20.3 1.7 2-3.8 1.1-14.4.3-23.8s-1.5-18.4.3-21.8a.9.9 0 0 1 1.2-.4 1 1 0 0 1 .4 1.2c-1.6 3-.8 12-.1 20.8.9 10.3 1.8 20.9-.6 25l-.2.3a13 13 0 0 1-8.5 2.8zm47.1-24.4a1 1 0 0 1-.8-.5c-2.1-3.6-6.9-7.3-11.8-7.3s-10.5 2.4-11.2 3.5a.8.8 0 0 1-1.2.2.8.8 0 0 1-.3-1.2c1.3-1.9 7.5-4.3 12.7-4.3s11.1 4.3 13.4 8.2a1.1 1.1 0 0 1-.3 1.3z"/><path d="M103 109.4a5.5 5.5 0 0 1-3.1-10.1h1.9a14.3 14.3 0 0 1 5.2 1.1l.3.3a5.2 5.2 0 0 1 1.2 3.4 5.5 5.5 0 0 1-5.5 5.3zm-2.3-8.5a3.7 3.7 0 0 0-1.4 3 3.7 3.7 0 0 0 3.7 3.7 3.8 3.8 0 0 0 3.7-3.7 3.1 3.1 0 0 0-.7-2.1 11 11 0 0 0-5.3-.9zm27.7 42.5a5.4 5.4 0 0 1-2.4-1.2l-1-.6a4.4 4.4 0 0 0-1.5.5 6.2 6.2 0 0 1-2.8.9 2.7 2.7 0 0 1-2.7-2.5 2 2 0 0 1 .9-1.7 4.5 4.5 0 0 1 2.2-.5 8.7 8.7 0 0 1 4.2 1.3l.4.3h.1l1.2.8 1.4.9a.9.9 0 1 1 0 1.8zm-7.3-3.3a3.5 3.5 0 0 0-1.2.2v.2a1 1 0 0 0 .9.7 5.3 5.3 0 0 0 2-.7h.1a4.7 4.7 0 0 0-1.8-.4zm-11.3 21.7a.9.9 0 1 1 0-1.8c3 0 9.4-1.9 13.2-3.1a13.3 13.3 0 0 1 3.3-.8 3.3 3.3 0 0 1 2.2.9l.6.3a.9.9 0 0 1-1 1.6l-.6-.4c-.7-.5-.9-.6-1.2-.6l-2.8.8c-3.9 1.1-10.4 3.1-13.7 3.1zm18.8 7.7c-4.3 0-6.8-.1-8-.5a.9.9 0 0 1-.4-1.2.8.8 0 0 1 1.1-.5c1 .4 5.1.4 7.3.4a.9.9 0 0 1 0 1.8z"/><path d="M128.6 161.8h-.4c-.9-.3-6.6-.2-10.7.1a1.1 1.1 0 0 1-1-.9.9.9 0 0 1 .9-.9c.1 0 10.6-.7 11.7.1a.9.9 0 0 1 .2 1.3.8.8 0 0 1-.7.3zm-.5-.2zm.5 26.1a.9.9 0 0 1-.9-.9v-3.2a.9.9 0 0 1 1.8 0v3.2a.9.9 0 0 1-.9.9zm-5.6-57a.9.9 0 0 1-.3-1.7c1-.4 1.2-.8 1.2-2.6v-12.3a.9.9 0 1 1 1.8 0v12.3c0 1.9-.2 3.4-2.3 4.3zm5.6 61.7c-24.3 0-30.2-11.8-35.5-22.3a75.9 75.9 0 0 0-3.9-7l-.3-.5c-5.4-8.1-14.5-21.7-14.5-33a.9.9 0 0 1 1.8 0c0 10.7 8.9 24 14.2 32l.3.5a61.3 61.3 0 0 1 4 7.2c5 10 10.7 21.3 33.9 21.3a.9.9 0 1 1 0 1.8zm70.1-120.8a.9.9 0 0 1-.9-.9 69 69 0 0 0-137.9 0 .9.9 0 1 1-1.8 0 70.8 70.8 0 0 1 141.5 0 .9.9 0 0 1-.9.9z"/><circle cx="103" cy="104.3" r="1.6"/><circle cx="154.3" cy="104.3" r="1.6"/><path d="M2.3 256a.9.9 0 0 1-.9-.9c0-17.7 0-47.3 37.2-47.3 35.1 0 57.5-22.6 57.5-32.2a.9.9 0 0 1 .9-.9.9.9 0 0 1 .9.9c0 11.6-25.1 34-59.3 34-32.6 0-35.4 22.5-35.4 45.5a.9.9 0 0 1-.9.9zm252.7 0a.9.9 0 0 1-.9-.9c0-23-2.7-45.5-35.4-45.5s-59.2-22.4-59.3-34a.9.9 0 0 1 .9-.9.9.9 0 0 1 .9.9c.1 9.6 22.4 32.2 57.5 32.2 37.2 0 37.2 29.6 37.2 47.3a.9.9 0 0 1-.9.9z"/><path d="M125.6 243a.7.7 0 0 1-.7-.4l-35.7-53.7a.8.8 0 0 1 .3-1.2.8.8 0 0 1 1.2.2l35.7 53.7a1.1 1.1 0 0 1-.3 1.3z"/><path d="M118.9 252.8h-.5a1.1 1.1 0 0 1-.3-1.3l45.8-66.7a.9.9 0 1 1 1.4 1l-45.7 66.7a.7.7 0 0 1-.7.3z"/></svg>