<svg xmlns="http://www.w3.org/2000/svg" width="256" height="256" viewBox="0 0 256 256"><path d="M148 220.7a.7.7 0 0 1-.6-.3L104.9 173a.9.9 0 0 1 1.3-1.1l41.9 46.6 17.7-17.7-47-41.6a.9.9 0 1 1 1.1-1.3l47.8 42.2a.6.6 0 0 1 .3.6.7.7 0 0 1-.3.6l-19.1 19.1a.6.6 0 0 1-.6.3z"/><path d="M158.8 225.9a7 7 0 0 1-5-2.1l-4.9-4.9a.9.9 0 0 1 0-1.2l17-17a.9.9 0 0 1 1.2 0l4.9 4.9a7.1 7.1 0 0 1 2.1 5.1 6.7 6.7 0 0 1-2.1 5l-8.1 8.1a7.1 7.1 0 0 1-5.1 2.1zm-8.1-7.6l4.3 4.3a5.4 5.4 0 0 0 7.6 0l8.2-8.1a5.4 5.4 0 0 0 0-7.6l-4.3-4.3zm-67.8-67.5a.5.5 0 0 1-.5-.3l-47-42.1a.9.9 0 0 1-.3-.7.7.7 0 0 1 .2-.6L54.4 88a.7.7 0 0 1 .6-.2l.7.2 41.6 47.2a.9.9 0 1 1-1.3 1.1L55 89.9l-17.8 17.8 46.3 41.5a.9.9 0 0 1 .1 1.3.9.9 0 0 1-.7.3z"/><path d="M101.2 173.8a19.5 19.5 0 0 1-19.4-19.4 19.5 19.5 0 1 1 38.9 0 19 19 0 0 1-5.7 13.7 19.4 19.4 0 0 1-13.8 5.7zm0-37.1a17.7 17.7 0 1 0 12.6 30.2 17.7 17.7 0 0 0-12.6-30.2z"/><path d="M101.2 166.3a12 12 0 0 1-11.9-11.9 12 12 0 1 1 23.9 0 11.5 11.5 0 0 1-3.5 8.4 11.6 11.6 0 0 1-8.5 3.5zm0-22.2a10.2 10.2 0 0 0-7.2 3 10.3 10.3 0 1 0 7.2-3zm7.9 18.1zm-71.7-55.1a.9.9 0 0 1-.6-.3l-4.9-4.9a7 7 0 0 1 0-10l8.1-8.2a7.5 7.5 0 0 1 5.1-2.1 7.3 7.3 0 0 1 5 2.1l4.9 4.9a1.1 1.1 0 0 1 0 1.3l-17 16.9a.7.7 0 0 1-.6.3zm7.7-23.7a5.3 5.3 0 0 0-3.8 1.6l-8.2 8.1a5.6 5.6 0 0 0 0 7.6l4.3 4.3 15.7-15.7-4.2-4.3a5.7 5.7 0 0 0-3.8-1.6zM101.3 253A98.6 98.6 0 0 1 2.7 150.5a.9.9 0 0 1 .3-.7l.6-.2 79.6 8.2a.9.9 0 0 1-.1 1.7l-78.7-8a96.9 96.9 0 0 0 101 99.7l-9.3-78.6a.8.8 0 0 1 .8-1 .8.8 0 0 1 .9.8l9.4 79.5a1 1 0 0 1-.2.7l-.6.3z"/><path d="M3.6 151.4h-.1a.9.9 0 0 1-.8-.9c.7-18.6 7.8-38.5 19.4-54.6a.7.7 0 0 1 .6-.4 1 1 0 0 1 .7.2L36.5 107a.9.9 0 0 1 .1 1.3.9.9 0 0 1-1.2.1L22.9 97.7c-11 15.6-17.8 34.9-18.5 52.8a.9.9 0 0 1-.8.9zm101.5 101.5a.9.9 0 0 1-.9-.8.9.9 0 0 1 .9-.9c17.9-.7 37.2-7.5 52.9-18.5l-10.8-12.5a.9.9 0 0 1 .1-1.2.9.9 0 0 1 1.3.1l11.3 13.1a1 1 0 0 1 .2.7.6.6 0 0 1-.3.6c-16.1 11.6-36.1 18.7-54.7 19.4zm-30.8-65.1a6 6 0 0 1-4.2-10.2 6 6 0 0 1 8.5 8.5 6.3 6.3 0 0 1-4.3 1.7zm0-10.2a4.3 4.3 0 0 0-2.9 1.3 4.2 4.2 0 0 0-1.3 3 4.1 4.1 0 0 0 1.3 2.9 4.2 4.2 0 1 0 5.9-5.9 4.3 4.3 0 0 0-3-1.3zm-3.6.7zm-11.2 23.8a5.8 5.8 0 0 1-4.2-1.8 5.8 5.8 0 0 1 0-8.4 6 6 0 0 1 8.4 0 6 6 0 0 1-4.2 10.2zm0-10.2a4.7 4.7 0 0 0-3 1.2 4.2 4.2 0 0 0-1.2 3 4.1 4.1 0 0 0 1.2 3 4.2 4.2 0 0 0 6 0 4.3 4.3 0 0 0 0-6 4.7 4.7 0 0 0-3-1.2zm-3.6.6zm11.8-18.6a6 6 0 0 1-5.4-3.3 6 6 0 0 1 2.7-8 6 6 0 0 1 8.3 7.3 5.9 5.9 0 0 1-3 3.4 6.5 6.5 0 0 1-2.6.6zm-.1-10.2a4.1 4.1 0 0 0-1.8.5 4.3 4.3 0 0 0-2.2 2.4 4.4 4.4 0 0 0 .3 3.2 4.1 4.1 0 0 0 5.6 1.9 3.9 3.9 0 0 0 2.1-2.4 4 4 0 0 0-.2-3.2 4.2 4.2 0 0 0-3.8-2.4zm154.3-70.2a6 6 0 0 1-5.7-7.9 5.9 5.9 0 0 1 3-3.4 6.1 6.1 0 0 1 4.6-.3 6 6 0 0 1 .7 11 5.8 5.8 0 0 1-2.6.6zm0-10.2a5.8 5.8 0 0 0-1.9.4 3.6 3.6 0 0 0-2.1 2.4 4 4 0 0 0 .2 3.2 4.2 4.2 0 0 0 5.6 1.9 4.1 4.1 0 0 0 1.9-5.6 4 4 0 0 0-2.4-2.2zm-2.3-.3zm-10.5 30.8l-1.9-.3a6 6 0 0 1-.7-11 5.9 5.9 0 0 1 8 2.7 6.1 6.1 0 0 1-2.7 8 6.6 6.6 0 0 1-2.7.6zm-1.8-9.8a4.2 4.2 0 0 0-1.9 5.7 4.2 4.2 0 0 0 2.4 2.1 4 4 0 0 0 3.2-.2 4.2 4.2 0 0 0-3.7-7.6zm-38.8-63.8a4.8 4.8 0 0 1-2.6-.7 5.6 5.6 0 0 1-3-3.4 6.1 6.1 0 0 1 .3-4.6 6 6 0 0 1 10.7 5.3 6.2 6.2 0 0 1-5.4 3.4zm0-10.2a4.3 4.3 0 0 0-3.8 2.3 4.4 4.4 0 0 0-.2 3.2 4.2 4.2 0 0 0 7.8.6 4.2 4.2 0 0 0 .2-3.3 4.1 4.1 0 0 0-2.1-2.4 4.1 4.1 0 0 0-1.9-.4zm-20.1 23.1a4.8 4.8 0 0 1-2.6-.7 5.6 5.6 0 0 1-3-3.4 6.1 6.1 0 0 1 .3-4.6 6 6 0 0 1 10.7 5.3 5.8 5.8 0 0 1-3.5 3 4.1 4.1 0 0 1-1.9.4zm0-10.2a4.3 4.3 0 0 0-3.8 2.3 4.4 4.4 0 0 0-.2 3.2 4.4 4.4 0 0 0 2.1 2.5 4.2 4.2 0 0 0 3.3.2 4.5 4.5 0 0 0 2.4-2.1 4.3 4.3 0 0 0-1.9-5.7 4.1 4.1 0 0 0-1.9-.4zM48 176.3a6 6 0 0 1-2.6-11.4 6 6 0 0 1 8.3 7.3 5.9 5.9 0 0 1-3 3.4 5.4 5.4 0 0 1-2.7.7zm-1.8-9.8a4.2 4.2 0 0 0-1.9 5.7 4.2 4.2 0 0 0 5.6 1.9 4 4 0 0 0 2.1-2.5 4 4 0 0 0-.2-3.2 4.2 4.2 0 0 0-5.6-1.9zM88 216.2a5.8 5.8 0 0 1-5.3-3.3 6 6 0 0 1 2.6-8 6 6 0 0 1 8 2.7 6 6 0 0 1-2.7 8 5.8 5.8 0 0 1-2.6.6zm-1.9-9.7a4.2 4.2 0 1 0 5.9 5.1 4.4 4.4 0 0 0-.2-3.2 4.2 4.2 0 0 0-5.7-1.9zm1.9-12.2a5.8 5.8 0 0 1-2.6-.6 5.9 5.9 0 0 1-3-3.4 6 6 0 0 1 8.3-7.3 6 6 0 0 1 2.7 8 6.1 6.1 0 0 1-5.4 3.3zm0-10.2a4.1 4.1 0 0 0-3.7 2.4 4.4 4.4 0 0 0-.3 3.2 4.3 4.3 0 0 0 2.2 2.4 4.1 4.1 0 0 0 5.6-1.9 4 4 0 0 0 .2-3.2 3.9 3.9 0 0 0-2.1-2.4 4.1 4.1 0 0 0-1.9-.5zm92.6 28.8l-.5-.2-13.2-11.4a.9.9 0 0 1-.1-1.2.9.9 0 0 1 1.3-.1l12.4 10.7a105.9 105.9 0 0 0 13.2-25.7.9.9 0 0 1 1.1-.5.8.8 0 0 1 .5 1.1 101.4 101.4 0 0 1-14 26.9.7.7 0 0 1-.6.4zM55.5 89.6a.7.7 0 0 1-.6-.3L43.5 76.1a1.4 1.4 0 0 1-.2-.6 1 1 0 0 1 .4-.7c16.1-11.5 36-18.6 54.6-19.3a.8.8 0 0 1 .9.8.9.9 0 0 1-.9.9c-17.9.7-37.1 7.4-52.8 18.5l10.7 12.4a.9.9 0 0 1-.1 1.3z"/><path d="M156.9 73.2a.7.7 0 0 1-.6-.2.9.9 0 0 1 0-1.2l54.8-55.7L200 4.9 97.5 57.2a.9.9 0 0 1-.8-1.6L199.8 3.1a.8.8 0 0 1 1 .2L213 15.4a1.1 1.1 0 0 1 0 1.3L157.6 73a.8.8 0 0 1-.7.2zm43.8 85.6h-.4a.9.9 0 0 1-.3-1.2l51.4-101.2-11.1-11.1-55.7 54.8a.9.9 0 0 1-1.3 0 .9.9 0 0 1 0-1.2l56.4-55.5a.9.9 0 0 1 1.2 0l12.2 12.2a.8.8 0 0 1 .2 1l-51.8 101.7a.9.9 0 0 1-.8.5zm39.8 3.4a.9.9 0 0 1-.7-.3L219.9 142a.7.7 0 0 1-.2-.7.8.8 0 0 1 .4-.7l14.4-8.8a6.9 6.9 0 0 1 8.5.9l6.2 6.2a6.9 6.9 0 0 1 .9 8.6l-8.9 14.2c-.1.3-.4.4-.6.5zm-18.6-20.7l18.4 18.4 8.3-13.3a5.1 5.1 0 0 0-.6-6.4l-6.2-6.3a5.3 5.3 0 0 0-6.4-.6z"/><path d="M199.9 158.8h-.1l-79.6-8.2a1 1 0 0 1-.8-1 .8.8 0 0 1 1-.7l78.6 8a96.5 96.5 0 0 0-19.7-61.5.9.9 0 0 1 .2-1.3.8.8 0 0 1 1.2.2 98.7 98.7 0 0 1 20 63.6.6.6 0 0 1-.3.6.5.5 0 0 1-.5.3zm-93.4-22a.9.9 0 0 1-.9-.8l-9.4-79.5a1.4 1.4 0 0 1 .2-.7.9.9 0 0 1 .6-.3 99.1 99.1 0 0 1 64.8 19.9.9.9 0 0 1 .1 1.2.8.8 0 0 1-1.2.2 97.1 97.1 0 0 0-62.6-19.6l9.2 78.6a.8.8 0 0 1-.7 1z"/><path d="M212.5 190.1h-.2l-64-14a.8.8 0 0 1-.7-.9l2.9-22.3a.8.8 0 0 1 .9-.7l51.9 5.1 11.5-11.7.6-.2.6.2 20.1 20.1a1 1 0 0 1 0 1.2l-23 22.9a.6.6 0 0 1-.6.3zm-63.1-15.5l62.8 13.7 22-22-18.8-18.8-11.1 11.4a1 1 0 0 1-.7.2l-51.5-5.1zm85.5-18.9a.9.9 0 0 1-.7-1.5l14.1-14.1a1.1 1.1 0 0 1 1.3 0 .9.9 0 0 1 0 1.2l-14.1 14.1zm-7.5-7.5a.7.7 0 0 1-.6-.2.7.7 0 0 1 0-1.2l14.1-14.1a.8.8 0 0 1 1.2 1.2L228 148a.7.7 0 0 1-.6.2zm-97.3.2a.9.9 0 0 1-.6-.3l-22-22a.9.9 0 0 1-.3-.6.9.9 0 0 1 .3-.7l76.9-70.6a.9.9 0 0 1 1.2 0L202.4 71a.8.8 0 0 1 .1 1.2l-71.7 75.9a.9.9 0 0 1-.7.3zm-20.7-22.9l20.7 20.8 70.5-74.6L185 56.1zm-5.6 105.7a.9.9 0 0 1-.9-.9 1.1 1.1 0 0 1 .9-.9 73.5 73.5 0 0 0 40.5-13.5.9.9 0 0 1 1.3.2.9.9 0 0 1-.3 1.2 76.1 76.1 0 0 1-41.5 13.9zM57.9 92.8a.9.9 0 0 1-.7-.4.8.8 0 0 1 .2-1.2 77.1 77.1 0 0 1 42.3-13.7 1.1 1.1 0 0 1 .9.9.9.9 0 0 1-.9.9 75.1 75.1 0 0 0-41.3 13.3zm-32.1 60.8a.8.8 0 0 1-.9-.8 71.6 71.6 0 0 1 13.4-42.5.8.8 0 0 1 1.2-.2.8.8 0 0 1 .2 1.2 69.9 69.9 0 0 0-13.1 41.5.8.8 0 0 1-.8.8zm123.9-84.1l-.6-.3a.9.9 0 0 1 0-1.2l57.6-57.6a.9.9 0 0 1 1.2 0 .8.8 0 0 1 0 1.2l-57.5 57.6a.9.9 0 0 1-.7.3zm37.7 37.6l-.6-.2a1.1 1.1 0 0 1 0-1.3l57.6-57.5a.8.8 0 0 1 1.2 0 .9.9 0 0 1 0 1.2L188 106.9z"/><path d="M135.4 128.2l-.6-.2-6.9-6.9a1.1 1.1 0 0 1 0-1.3l61.1-61a.8.8 0 0 1 1.2 1.2l-60.4 60.5 5.6 5.6 60.5-60.4a.9.9 0 0 1 1.2 0 .7.7 0 0 1 0 1.2l-61 61.1zm5.2 69.8a4.5 4.5 0 1 1 4.5-4.5 4.5 4.5 0 0 1-4.5 4.5zm0-7.2a2.7 2.7 0 1 0 2.7 2.7 2.7 2.7 0 0 0-2.7-2.7zm-81-73.8a4.5 4.5 0 1 1 4.5-4.5 4.5 4.5 0 0 1-4.5 4.5zm0-7.2a2.7 2.7 0 1 0 2.7 2.7 2.7 2.7 0 0 0-2.7-2.7zm185.1 45.8a.6.6 0 0 1-.6-.3l-17.6-17.5a.9.9 0 0 1 1.3-1.3l17.5 17.6a.9.9 0 0 1 0 1.2zm-32.2 34.5a.9.9 0 0 1-.8-.6l-8.9-31a.9.9 0 0 1 .6-1.1.9.9 0 0 1 1.1.6l8.9 31a1.1 1.1 0 0 1-.6 1.1zm22.9-22.9l-.6-.3-19.9-19.9a.9.9 0 0 1 0-1.2l5.1-5.1a.7.7 0 0 1 1.2 0l19.9 19.9a.8.8 0 0 1 0 1.2l-5 5.1a.9.9 0 0 1-.7.3zm-18.6-20.8l18.6 18.7 3.9-3.9-18.7-18.7zm-115.6 97.5c-2.2 0-4.3 0-6.5-.2a89.5 89.5 0 0 1-65.9-142 .8.8 0 0 1 1.2-.2.8.8 0 0 1 .2 1.2 88.1 88.1 0 0 0 8.9 113.8 87.8 87.8 0 0 0 113.8 8.9.8.8 0 0 1 1.2.2.9.9 0 0 1-.1 1.2 89.3 89.3 0 0 1-52.8 17.1z"/></svg>