<svg id="Layer_1" data-name="Layer 1" xmlns="http://www.w3.org/2000/svg" width="256" height="256" viewBox="0 0 256 256"><title>padme</title><path d="M128.1,101a10.6,10.6,0,1,1,10.6-10.6A10.6,10.6,0,0,1,128.1,101Zm0-19.4a8.8,8.8,0,1,0,8.8,8.8A8.8,8.8,0,0,0,128.1,81.6Z"/><path d="M139.6,123.1h-.3a.9.9,0,0,1-.6-1.1c.8-2.4,5.5-7.1,11.4-7.1s7.7,3,8.1,3.7a.9.9,0,0,1-1.5.9c-.3-.4-2.1-2.8-6.6-2.8s-9.2,4.4-9.7,5.8A.8.8,0,0,1,139.6,123.1Z"/><path d="M141.6,114.2a3.2,3.2,0,0,1-1.8-.6,2.5,2.5,0,0,1-1-3.1h0c1-2.6,16.5-7.8,18-7.5s5.7,2,6.3,5a.9.9,0,0,1-.6,1,1,1,0,0,1-1.1-.5c-.2-.1-1.2-.4-4.9-.4s-12.6,4.8-13.5,5.5A2,2,0,0,1,141.6,114.2Zm-1.2-3c-.2.4.2.8.4.9s.9.3,1,.2,10.5-6,14.7-6h3.4a9.6,9.6,0,0,0-3.4-1.7C154.8,104.8,141.4,109.6,140.4,111.2Zm-.8-.4Z"/><path d="M148.8,123.6a4.3,4.3,0,1,1,4.3-4.3A4.2,4.2,0,0,1,148.8,123.6Zm0-6.7a2.5,2.5,0,0,0,0,4.9,2.5,2.5,0,1,0,0-4.9Z"/><path d="M142.7,162.1c-1.7,0-4.3-.4-6.2-.6l-2.5-.2-1.5.3a11.1,11.1,0,0,1-2.5.5.9.9,0,0,1,0-1.8,7.9,7.9,0,0,0,2-.4,7.9,7.9,0,0,1,2-.4l2.7.2a43.5,43.5,0,0,0,6,.6.9.9,0,0,1,0,1.8Z"/><path d="M133.7,167.8a.9.9,0,0,1-.9-.9v-6.5a.9.9,0,1,1,1.8,0v6.5A.9.9,0,0,1,133.7,167.8Z"/><path d="M130,168.3a.9.9,0,0,1,0-1.8c3.1,0,11.9-2.3,14.2-5.8a1,1,0,0,1,1.3-.3.8.8,0,0,1,.2,1.2C142.9,166,133.4,168.3,130,168.3Z"/><path d="M130,148.7a.9.9,0,1,1,0-1.8,4.7,4.7,0,0,0,2.4-1.1,6,6,0,0,1,3-1.2.9.9,0,1,1,0,1.8,5.6,5.6,0,0,0-2,.9A6.4,6.4,0,0,1,130,148.7Z"/><path d="M138.1,148.7a.9.9,0,1,1,0-1.8c1.4,0,1.5-.7,1.5-1.4a2.9,2.9,0,0,0-1.3-2.8h-.2a.9.9,0,0,1-.1-1.3.8.8,0,0,1,1.2-.1h.2a4.8,4.8,0,0,1,2,4.2A3,3,0,0,1,138.1,148.7Z"/><path d="M135.6,141.1l-.6-.3c-1.2-1.2-2.4-5.6-2.4-10.9s.7-9.5,2.4-11.2a.9.9,0,0,1,1.3,0,.9.9,0,0,1,0,1.2c-1.3,1.4-1.9,4.6-1.9,10s1.4,9.1,1.9,9.6a1.1,1.1,0,0,1,0,1.3A.9.9,0,0,1,135.6,141.1Z"/><path d="M151.6,142a3.1,3.1,0,0,1,0-6.1,3.1,3.1,0,1,1,0,6.1Zm0-4.3a1.3,1.3,0,0,0-1.2,1.3,1.2,1.2,0,0,0,1.2,1.2,1.2,1.2,0,0,0,1.3-1.2A1.3,1.3,0,0,0,151.6,137.7Z"/><path d="M120.1,123.1a1.1,1.1,0,0,1-.9-.7c-.4-1.4-4.2-5.8-9.6-5.8s-6.3,2.4-6.6,2.8a.9.9,0,0,1-1.3.3.9.9,0,0,1-.2-1.3c.4-.6,2.7-3.6,8.1-3.6s10.6,4.7,11.3,7.1a.8.8,0,0,1-.5,1.1Z"/><path d="M118.1,114.2a2,2,0,0,1-1.5-.6c-.8-.7-9.7-5.5-13.4-5.5s-4.7.3-4.9.4a1,1,0,0,1-1.1.5.8.8,0,0,1-.6-1c.6-3,5-4.9,6.3-5s16.9,4.9,18,7.5h0a2.5,2.5,0,0,1-1,3.1A3.2,3.2,0,0,1,118.1,114.2Zm-14.9-7.9c4.2,0,13.5,4.9,14.6,6a1,1,0,0,0,1-.2.9.9,0,0,0,.5-.9c-1-1.6-14.5-6.4-16.2-6.5a9.4,9.4,0,0,0-3.3,1.7Z"/><path d="M110.8,123.6a4.3,4.3,0,1,1,4.3-4.3A4.2,4.2,0,0,1,110.8,123.6Zm0-6.7a2.5,2.5,0,0,0,0,4.9,2.5,2.5,0,1,0,0-4.9Z"/><path d="M114.7,162.1l-.5-.2a.9.9,0,0,1-.2-1.3c1.4-1.8,10.2-5.9,12.2-5.9a6.4,6.4,0,0,1,3.2,1l.6.3a.9.9,0,0,1,.9.9,1,1,0,0,1-.9.9,3,3,0,0,1-1.5-.5,4.2,4.2,0,0,0-2.3-.8c-1.5,0-9.7,3.8-10.8,5.2A1,1,0,0,1,114.7,162.1Z"/><path d="M145.2,162.1a1.3,1.3,0,0,1-.7-.4c-1.1-1.4-9.2-5.2-10.8-5.2a4.5,4.5,0,0,0-2.3.8,2.7,2.7,0,0,1-1.4.5.9.9,0,0,1,0-1.8l.6-.3a6,6,0,0,1,3.1-1c2.1,0,10.9,4.1,12.2,5.9a.9.9,0,0,1-.1,1.3Z"/><path d="M130,162.1a11.7,11.7,0,0,1-2.7-.5l-1.7-.3-2.4.2c-1.9.2-4.5.6-6.3.6a.9.9,0,0,1,0-1.8,44.9,44.9,0,0,0,6.1-.6l2.6-.2a8.6,8.6,0,0,1,2.1.4,22.3,22.3,0,0,0,2.3.4.9.9,0,0,1,0,1.8Z"/><path d="M126,167.7a.9.9,0,0,1-.9-.9v-6.4a.9.9,0,1,1,1.8,0v6.4A.9.9,0,0,1,126,167.7Z"/><path d="M130,168.3c-3.5,0-13.3-2.4-16.1-6.7a1,1,0,0,1,.3-1.2,1,1,0,0,1,1.3.3c2.2,3.5,11.3,5.8,14.5,5.8a.9.9,0,0,1,0,1.8Z"/><path d="M130,148.7a7.8,7.8,0,0,1-3.6-1.3,5.5,5.5,0,0,0-2.1-1,.9.9,0,1,1,0-1.8,6.3,6.3,0,0,1,3,1.2,5.5,5.5,0,0,0,2.7,1.1.9.9,0,0,1,0,1.8Z"/><path d="M121.6,148.7c-2.1,0-3.4-1.2-3.4-3.2a4.6,4.6,0,0,1,2.1-4.2h.2a.8.8,0,0,1,1.2.1.9.9,0,0,1-.1,1.3h-.2a3,3,0,0,0-1.4,2.8c0,.7.2,1.4,1.6,1.4a.9.9,0,0,1,0,1.8Z"/><path d="M124,141.1l-.6-.3a1.1,1.1,0,0,1,0-1.3c.5-.5,1.9-3.8,1.9-9.6s-.6-8.6-1.9-10a.9.9,0,0,1,0-1.2.9.9,0,0,1,1.3,0c1.7,1.7,2.4,5.2,2.4,11.2s-1.2,9.7-2.4,10.9A.9.9,0,0,1,124,141.1Z"/><path d="M108,142a3.1,3.1,0,0,1,0-6.1,3.1,3.1,0,1,1,0,6.1Zm0-4.3a1.2,1.2,0,0,0-1.2,1.3,1.2,1.2,0,0,0,1.2,1.2,1.2,1.2,0,0,0,1.3-1.2A1.3,1.3,0,0,0,108,137.7Z"/><path d="M129.3,184.8a.9.9,0,0,1,0-1.8c13,0,17.9-7.2,22.6-14.2,2.1-3.1,4-6,6.7-8.3,8.4-7.3,8.4-42.4,8.4-55.6,0-15.8-11.9-23.3-14.8-23.3s-12.5.9-17,2.7a.9.9,0,0,1-.6-1.6c4.7-1.9,13.8-2.9,17.6-2.9s16.6,8.6,16.6,25.1c0,22.9-1,50-9.1,56.9a42.8,42.8,0,0,0-6.3,8C148.6,176.8,143.3,184.8,129.3,184.8Z"/><path d="M167.9,105.8h-.5a1.1,1.1,0,0,1-.3-1.3c2.8-4.1,4.5-23.5.1-28.5-.3-.4-31.9-37.1-33.5-52.2a24.9,24.9,0,0,1-4.7.5c.3,17.6,9.4,50.1,11.4,53.4a1.1,1.1,0,0,1-.2,1.2c-.8.6-5,4.1-6,4.6a.9.9,0,1,1-.8-1.6c.6-.3,3.1-2.4,5.1-4-2.6-5.9-11.3-37.7-11.3-54.5a1.4,1.4,0,0,1,.2-.6.6.6,0,0,1,.7-.2,28.8,28.8,0,0,0,6.2-.8.8.8,0,0,1,.8.1.9.9,0,0,1,.3.7c0,11.9,26.2,44.2,33.2,52.2,5,5.8,3.1,26.1,0,30.7A.7.7,0,0,1,167.9,105.8Z"/><path d="M152.2,215.6a.9.9,0,0,1-.8-.4.9.9,0,0,1,.1-1c7.2-9.3,15.5-59.5,20.3-122.2,2-26,5.4-47.1,9.8-61.1,3.8-12.1,8.2-18.4,12.7-18.4a3.7,3.7,0,0,1,2.8,1.3c5,5.5,2.8,29.4,2.7,30.4a1.1,1.1,0,0,1-.8.8,1.1,1.1,0,0,1-1-.6,5.4,5.4,0,0,0-2.2-2.8,1.4,1.4,0,0,0-1.1.1c-3.1,2.1-5.4,6.9-6.5,13.9-2.4,13.7.1,32.1,3.7,37.4,6.8,2.8,13.6,12.7,13.6,26.3,0,10.4-12.8,25.2-19.8,33.2-1.6,2-3.4,4-3.6,4.5a32.9,32.9,0,0,0,0,4.6c0,3.2.1,8,0,14.5a.8.8,0,0,1-.1.4l-.8,2c-2.4,6.7-8.9,24.4-20.3,35.4l-.4.3-8.1,1.4ZM194.3,14.2c-3.5,0-7.6,6.5-11,17.3-4.4,13.8-7.7,34.8-9.7,60.6-5.3,69.5-13.4,110.1-19.6,121.4l5.9-1.1c11-10.7,17.3-28,19.6-34.5.4-.9.6-1.6.8-2,.1-6.4,0-11.1,0-14.2a39,39,0,0,1,0-5c.1-.7.8-1.6,4.1-5.4,6.3-7.2,19.3-22.3,19.3-32,0-12.8-6.6-22.4-12.7-24.8-.2,0-.3-.1-.4-.3-4-5.4-6.7-24.4-4.2-38.9,1.3-7.5,3.8-12.7,7.4-15.1,0-.1,0-.1.1-.1a3,3,0,0,1,2.6-.1,5.2,5.2,0,0,1,1.7,1.2c.6-7.9.8-22.6-2.5-26.2A1.9,1.9,0,0,0,194.3,14.2Z"/><path d="M202.1,190.3c-22.3,0-24-7.6-24.1-7.9a.9.9,0,0,1,.7-1.1,1,1,0,0,1,1.1.7c0,.1,1.8,6.5,22.3,6.5s52.1-20.7,52.1-59.7c0-40.8-55.3-83.6-55.9-84a.9.9,0,0,1-.2-1.2.9.9,0,0,1,1.3-.2c.6.4,56.6,43.8,56.6,85.4C256,168.9,224.7,190.3,202.1,190.3Z"/><path d="M157.5,202.7a.9.9,0,0,1-.8-.4.8.8,0,0,1,.3-1.2c7.4-4.9,14.7-25.5,21.8-61.1.3-1.6.6-2.7.7-3.4,1.4-6.3,5.2-74.5,5.2-84.9s8.1-32.5,11.8-36.8a.8.8,0,0,1,1.2-.2.9.9,0,0,1,.1,1.3c-3.5,4.2-11.3,25-11.3,35.7s-3.8,79-5.2,85.3c-.2.7-.4,1.8-.7,3.4-2.7,13.4-10.8,54.3-22.7,62.2Z"/><path d="M129.3,184.8c-15.3,0-21.4-8.3-26.8-15.6a46.6,46.6,0,0,0-6.2-7.4c-8.1-6.9-9.1-34-9.1-56.9,0-16.5,12.3-25.1,16.6-25.1s12.9,1,17.6,2.9a.9.9,0,0,1-.6,1.6c-4.5-1.8-13.4-2.7-17-2.7S89,89.1,89,104.9c0,13.2,0,48.3,8.4,55.6a44.5,44.5,0,0,1,6.6,7.6c5.3,7.3,10.9,14.9,25.3,14.9a.9.9,0,1,1,0,1.8Z"/><path d="M88.1,105.8a.7.7,0,0,1-.7-.4c-3.1-4.6-5-24.9,0-30.7,7-8,33.2-40.3,33.2-52.2a.9.9,0,0,1,.3-.7.8.8,0,0,1,.8-.1,29.4,29.4,0,0,0,6.3.8.6.6,0,0,1,.7.2.9.9,0,0,1,.3.6c0,16.7-8.9,48.6-11.5,54.5,2,1.6,4.5,3.7,5.1,4a.9.9,0,1,1-.8,1.6c-1-.5-5.2-4-6-4.6a1.1,1.1,0,0,1-.2-1.2c2-3.4,11.2-35.8,11.6-53.4a25.9,25.9,0,0,1-4.9-.5c-1.6,15.1-33.2,51.8-33.5,52.2-4.4,5-2.7,24.4.1,28.5a1.1,1.1,0,0,1-.3,1.3Z"/><path d="M103.8,215.6h-.2l-8.1-1.4-.4-.3c-11.4-11-17.9-28.7-20.3-35.4l-.8-2a.8.8,0,0,1-.1-.4c-.1-6.5,0-11.3,0-14.5a32.9,32.9,0,0,0,0-4.6c-.2-.5-2-2.5-3.6-4.5-7-8-19.8-22.8-19.8-33.2,0-13.6,6.8-23.5,13.6-26.3,3.6-5.3,6.1-23.7,3.7-37.4-1.1-7-3.4-11.8-6.5-13.9a1.4,1.4,0,0,0-1.1-.1A5.4,5.4,0,0,0,58,44.4a1.1,1.1,0,0,1-1,.6,1.1,1.1,0,0,1-.8-.8c-.1-1-2.3-24.9,2.7-30.4a3.7,3.7,0,0,1,2.8-1.3c4.5,0,8.9,6.3,12.7,18.4,4.4,14,7.8,35.1,9.8,61.1,4.8,62.7,13.1,112.9,20.3,122.2a.9.9,0,0,1,.1,1A.9.9,0,0,1,103.8,215.6Zm-7.7-3.2,5.9,1.1c-6.2-11.3-14.3-51.9-19.6-121.4-2-25.8-5.3-46.8-9.7-60.6-3.4-10.8-7.5-17.3-11-17.3a1.9,1.9,0,0,0-1.4.8c-3.3,3.6-3.1,18.3-2.5,26.2A5.2,5.2,0,0,1,59.5,40a3,3,0,0,1,2.6.1c.1,0,.1,0,.1.1,3.6,2.4,6.1,7.6,7.4,15.1,2.5,14.5-.2,33.5-4.2,38.9-.1.2-.2.3-.4.3-6.1,2.4-12.7,12-12.7,24.8,0,9.7,13,24.8,19.3,32,3.3,3.8,4,4.7,4.1,5.4a39,39,0,0,1,0,5c0,3.1-.1,7.8,0,14.2.2.4.4,1.1.8,2C78.8,184.4,85.1,201.7,96.1,212.4Z"/><path d="M53.9,190.3C31.3,190.3,0,168.9,0,128.8c0-41.6,56-85,56.6-85.4a.9.9,0,0,1,1.3.2.9.9,0,0,1-.2,1.2c-.6.4-55.9,43.2-55.9,84,0,39,30.3,59.7,52.1,59.7s22.3-6.4,22.3-6.5a.9.9,0,1,1,1.8.4C77.9,182.7,76.2,190.3,53.9,190.3Z"/><path d="M98.5,202.7h-.4c-11.9-7.9-20-48.8-22.7-62.2-.3-1.6-.5-2.7-.7-3.4-1.4-6.3-5.2-74.9-5.2-85.3S61.7,20.2,58.2,16a.9.9,0,0,1,.1-1.3.8.8,0,0,1,1.2.2c3.7,4.3,11.8,25.8,11.8,36.8s3.8,78.6,5.2,84.9c.1.7.4,1.8.7,3.4,7.1,35.6,14.4,56.2,21.8,61.1a.8.8,0,0,1,.3,1.2A.9.9,0,0,1,98.5,202.7Z"/><path d="M181.2,157.7a.8.8,0,0,1-.9-.8c0-.2-.4-5.1.9-21.3s9.2-41.9,9.2-42.2a1,1,0,0,1,1.2-.6,1.1,1.1,0,0,1,.6,1.1c-.1.3-7.8,25.8-9.2,41.9s-.9,20.9-.9,20.9a1,1,0,0,1-.8,1Z"/><path d="M75.3,157.7h-.1a1,1,0,0,1-.8-1s.4-5-.9-20.9-9.1-41.6-9.1-41.9a.9.9,0,0,1,.5-1.1,1,1,0,0,1,1.2.6c0,.3,7.8,26,9.2,42.2s.9,21.1.9,21.3A.8.8,0,0,1,75.3,157.7Z"/><path d="M128.2,215.6h-.3a.9.9,0,0,1-.6-1.1c0-.1,1.9-6.7,6.4-18.8s19-16.9,26.1-19.9l2.9-1.2a1,1,0,0,1,1.2.4.9.9,0,0,1-.4,1.2l-3,1.3c-6.9,2.8-21.4,8.8-25.1,18.9-4.5,11.9-6.3,18.5-6.4,18.6A.8.8,0,0,1,128.2,215.6Z"/><path d="M128.2,253a.9.9,0,1,1,0-1.8c5.4,0,16.3-3.6,30.1-8,22.8-7.4,53.9-17.5,80-17.5h.2c-5-5.3-59.4-29.4-64.8-31.4a.9.9,0,0,1-.6-1.1,1,1,0,0,1,1.2-.6c1.8.7,18.2,7.8,34.6,15.4,32.3,15.1,31.9,17.1,31.7,18.3s-.9,1.2-2.3,1.2c-25.8,0-56.8,10-79.4,17.4C144.9,249.4,133.9,253,128.2,253Z"/><path d="M127.9,215.6a.8.8,0,0,1-.8-.6c0-.1-1.9-6.7-6.4-18.6-3.7-10.1-18.2-16.1-25.1-18.9l-2.9-1.3a.9.9,0,0,1-.5-1.2,1,1,0,0,1,1.2-.4l2.9,1.2c7.2,3,22.1,9.2,26.1,19.9s6.4,18.7,6.4,18.8a.9.9,0,0,1-.6,1.1Z"/><path d="M128.2,253c-5.8,0-16.8-3.6-30.8-8.1-22.7-7.4-53.8-17.4-79.6-17.4-1.4,0-2.2-.4-2.3-1.2S15,223.1,47.2,208c16.4-7.6,32.8-14.7,34.6-15.4a1,1,0,0,1,1.2.6.9.9,0,0,1-.6,1.1c-5.4,2-59.7,26.1-64.8,31.4h.2c26.1,0,57.3,10.1,80.1,17.5,13.9,4.4,24.8,8,30.3,8a.9.9,0,0,1,0,1.8Z"/><path d="M122.5,23.7a.9.9,0,0,1-.9-.9V21.1a3.5,3.5,0,0,1,3.5-3.5h5.3a3.5,3.5,0,0,1,3.4,3.5v1.4a.9.9,0,1,1-1.8,0V21.1a1.7,1.7,0,0,0-1.6-1.7h-5.3a1.8,1.8,0,0,0-1.7,1.7v1.7A.9.9,0,0,1,122.5,23.7Z"/><path d="M131.6,19.4a.9.9,0,0,1-.9-.9V12.9a2.8,2.8,0,0,0-2.8-2.8h-.4a2.9,2.9,0,0,0-2.8,2.8v5.6a.9.9,0,0,1-1.8,0V12.9a4.7,4.7,0,0,1,4.6-4.6h.4a4.6,4.6,0,0,1,4.6,4.6v5.6A.9.9,0,0,1,131.6,19.4Z"/><path d="M127.7,10.1a3.6,3.6,0,0,1,0-7.1,3.5,3.5,0,0,1,3.5,3.6A3.5,3.5,0,0,1,127.7,10.1Zm0-5.3A1.8,1.8,0,0,0,126,6.6a1.8,1.8,0,0,0,1.7,1.7,1.8,1.8,0,0,0,1.8-1.7A1.8,1.8,0,0,0,127.7,4.8Z"/></svg>