<svg id="Layer_1" data-name="Layer 1" xmlns="http://www.w3.org/2000/svg" width="256" height="256" viewBox="0 0 256 256"><title>r2-d2</title><path d="M180.6,68H75.4a.9.9,0,0,1-.9-.8V57C74.5,29.9,93.8,1.8,126.2.1h3.6c32.4,1.7,51.7,29.8,51.7,56.9V67.2A.9.9,0,0,1,180.6,68ZM76.3,66.3H179.7V57c0-26.8-19.3-54.4-51.7-55.2C95.6,2.6,76.3,30.2,76.3,57Z"/><path d="M127.4,37.1a8.7,8.7,0,1,1,8.7-8.7A8.7,8.7,0,0,1,127.4,37.1Zm0-15.6a6.9,6.9,0,1,0,6.9,6.9A6.9,6.9,0,0,0,127.4,21.5Z"/><path d="M154,9.9H100.8a.9.9,0,0,1,0-1.8H154a.9.9,0,1,1,0,1.8Z"/><path d="M145.1,41.9H115.8a.8.8,0,0,1-.8-.9V16.2a.8.8,0,0,1,.8-.9h29.3a.8.8,0,0,1,.8.9V41A.8.8,0,0,1,145.1,41.9Zm-28.4-1.8h27.5v-23H116.7Z"/><path d="M180.6,61.2H75.4a.9.9,0,0,1-.9-.8.9.9,0,0,1,.9-.9H180.6a.9.9,0,0,1,.9.9A.9.9,0,0,1,180.6,61.2Z"/><path d="M155.5,56.7a7.8,7.8,0,0,1,0-15.6,7.8,7.8,0,1,1,0,15.6Zm0-13.8a6,6,0,1,0,6,6A6,6,0,0,0,155.5,42.9Z"/><path d="M155.5,52.5a3.6,3.6,0,1,1,0-7.2,3.6,3.6,0,1,1,0,7.2Zm0-5.5a1.9,1.9,0,0,0,0,3.8,1.9,1.9,0,1,0,0-3.8Z"/><path d="M94.3,56.8H75.4a.9.9,0,0,1,0-1.8H93.5V41.4H77.8a.9.9,0,0,1,0-1.8H94.3a.9.9,0,0,1,.9.9V55.9A.9.9,0,0,1,94.3,56.8Z"/><path d="M102,56.8H97.7a.9.9,0,0,1-.9-.9V40.5a.9.9,0,0,1,.9-.9H102a.9.9,0,0,1,.9.9V55.9A.9.9,0,0,1,102,56.8ZM98.5,55h2.6V41.4H98.5Z"/><path d="M113.1,56.8h-7.3a.9.9,0,0,1-.9-.9V40.5a.9.9,0,0,1,.9-.9h7.3a.9.9,0,0,1,.9.9V55.9A.9.9,0,0,1,113.1,56.8ZM106.7,55h5.5V41.4h-5.5Z"/><path d="M145.1,56.8H120.4a.9.9,0,0,1-.9-.9V45.2a.9.9,0,0,1,.9-.9h24.7a.8.8,0,0,1,.8.9V55.9A.8.8,0,0,1,145.1,56.8ZM121.3,55h22.9V46.1H121.3Z"/><path d="M122.8,29.3a.9.9,0,0,1-.9-.9,5.1,5.1,0,0,1,5.2-5.3.9.9,0,0,1,.9.9.9.9,0,0,1-.9.8,3.4,3.4,0,0,0-3.4,3.6A.9.9,0,0,1,122.8,29.3Z"/><path d="M180.6,56.8h-5.1a.9.9,0,0,1-.9-.9V37.4a.9.9,0,0,1,.9-.9h1.7a.9.9,0,1,1,0,1.8h-.8V55h4.2a.9.9,0,1,1,0,1.8Z"/><path d="M172.1,56.8H166a.9.9,0,0,1-.9-.9V37.4a.9.9,0,0,1,.9-.9h6.1a.9.9,0,0,1,.9.9V55.9A.9.9,0,0,1,172.1,56.8ZM166.9,55h4.3V38.3h-4.3Z"/><path d="M180.6,193.1H75.4a.9.9,0,0,1-.9-.9V67.2a.9.9,0,0,1,1.8,0V191.4H179.7V67.2a.9.9,0,0,1,1.8,0v125A.9.9,0,0,1,180.6,193.1Z"/><path d="M163.8,104.8H92.4a.9.9,0,0,1-.9-.9V67.2a.9.9,0,0,1,1.8,0V103h69.6V67.2a.9.9,0,0,1,.9-.9.9.9,0,0,1,.8.9v36.7A.9.9,0,0,1,163.8,104.8Z"/><path d="M158.3,73.5H97.7a.9.9,0,0,1-.9-.9V67.2a.9.9,0,0,1,.9-.9.9.9,0,0,1,.8.9v4.5h58.9V67.2a.9.9,0,1,1,1.8,0v5.4A.9.9,0,0,1,158.3,73.5Z"/><path d="M158.3,87.5H97.7a.9.9,0,0,1-.9-.9V78.7a.9.9,0,0,1,.9-.9h60.6a.9.9,0,0,1,.9.9v7.9A.9.9,0,0,1,158.3,87.5ZM98.5,85.7h58.9V79.6H98.5Z"/><path d="M158.3,100H97.7a.9.9,0,0,1-.9-.9V91.2a.9.9,0,0,1,.9-.9h60.6a.9.9,0,0,1,.9.9v7.9A.9.9,0,0,1,158.3,100ZM98.5,98.2h58.9V92.1H98.5Z"/><path d="M137.4,150.6H118.6a.9.9,0,0,1-.9-.9V109a.9.9,0,0,1,.9-.9h18.8a.9.9,0,0,1,.9.9v40.7A.9.9,0,0,1,137.4,150.6Zm-18-1.8h17.2v-39H119.4Z"/><path d="M129.9,129.2h-3.8a4.2,4.2,0,0,1-4.3-4.2v-8.3a4.2,4.2,0,0,1,4.3-4.2h3.8a4.2,4.2,0,0,1,4.3,4.2V125A4.2,4.2,0,0,1,129.9,129.2Zm-3.8-14.9a2.5,2.5,0,0,0-2.5,2.4V125a2.5,2.5,0,0,0,2.5,2.4h3.8a2.5,2.5,0,0,0,2.5-2.4v-8.3a2.5,2.5,0,0,0-2.5-2.4Z"/><path d="M129.9,146.9h-3.8a4.2,4.2,0,0,1-4.3-4.2v-8.3a4.2,4.2,0,0,1,4.3-4.2h3.8a4.2,4.2,0,0,1,4.3,4.2v8.3A4.2,4.2,0,0,1,129.9,146.9ZM126.1,132a2.5,2.5,0,0,0-2.5,2.4v8.3a2.5,2.5,0,0,0,2.5,2.4h3.8a2.5,2.5,0,0,0,2.5-2.4v-8.3a2.5,2.5,0,0,0-2.5-2.4Z"/><path d="M137.5,163.8H118.6a.9.9,0,0,1-.9-.9v-8a.9.9,0,0,1,.9-.9h18.9a.9.9,0,0,1,.9.9v8A.9.9,0,0,1,137.5,163.8Zm-18-1.8h17.1v-6.3H119.5Z"/><path d="M137.5,187.8H118.6a.9.9,0,0,1-.9-.8V168.1a.9.9,0,0,1,.9-.9h18.9a.9.9,0,0,1,.9.9V187A.9.9,0,0,1,137.5,187.8Zm-18-1.7h17.1V168.9H119.5Z"/><path d="M165,163.8H146.1a.9.9,0,0,1-.9-.9v-8a.9.9,0,0,1,.9-.9H165a.8.8,0,0,1,.8.9v8A.8.8,0,0,1,165,163.8ZM147,162h17.1v-6.3H147Z"/><path d="M111.2,163.8H92.3a.9.9,0,0,1-.9-.9v-8a.9.9,0,0,1,.9-.9h18.9a.9.9,0,0,1,.9.9v8A.9.9,0,0,1,111.2,163.8Zm-18-1.8h17.1v-6.3H93.2Z"/><path d="M163.8,150.6H145.1a.9.9,0,0,1-.9-.9V109a.9.9,0,0,1,.9-.9h18.7a.9.9,0,0,1,.8.9v40.7A.9.9,0,0,1,163.8,150.6Zm-17.9-1.8h17v-39h-17Z"/><path d="M111.2,150.6H102a.9.9,0,0,1-.9-.9V128.3a.9.9,0,0,1,.9-.9h9.2a.9.9,0,0,1,.9.9v21.4A.9.9,0,0,1,111.2,150.6Zm-8.3-1.8h7.4V129.2h-7.4Z"/><path d="M111.2,124.3H92.5a.9.9,0,0,1-.9-.9V109a.9.9,0,0,1,.9-.9h18.7a.9.9,0,0,1,.9.9v14.4A.9.9,0,0,1,111.2,124.3Zm-17.8-1.8h16.9V109.8H93.4Z"/><path d="M97.7,130.2H92.5a.9.9,0,0,1,0-1.8h5.2a.9.9,0,0,1,0,1.8Z"/><path d="M97.7,134.3H92.5a.9.9,0,0,1,0-1.8h5.2a.9.9,0,0,1,0,1.8Z"/><path d="M97.7,138.4H92.5a.9.9,0,0,1,0-1.8h5.2a.9.9,0,0,1,0,1.8Z"/><path d="M97.7,142.4H92.5a.9.9,0,0,1-.9-.9.9.9,0,0,1,.9-.8h5.2a.9.9,0,0,1,.8.8A.9.9,0,0,1,97.7,142.4Z"/><path d="M97.7,146.5H92.5a.9.9,0,0,1,0-1.8h5.2a.9.9,0,0,1,0,1.8Z"/><path d="M97.7,150.6H92.5a.9.9,0,0,1,0-1.8h5.2a.9.9,0,0,1,0,1.8Z"/><path d="M128.1,186.9a9.4,9.4,0,1,1,9.3-9.4A9.4,9.4,0,0,1,128.1,186.9Zm0-17a7.6,7.6,0,1,0,7.6,7.6A7.6,7.6,0,0,0,128.1,169.9Z"/><path d="M128.1,181.3a3.8,3.8,0,1,1,0-7.6,3.8,3.8,0,1,1,0,7.6Zm0-5.9a2.1,2.1,0,1,0,2,2.1A2.1,2.1,0,0,0,128.1,175.4Z"/><path d="M154,187.8H142.7a.9.9,0,0,1-.9-.8V168.1a.9.9,0,0,1,.9-.9H154a.9.9,0,0,1,.9.9V187A.9.9,0,0,1,154,187.8Zm-10.4-1.7h9.5V168.9h-9.5Z"/><path d="M112.2,187.8H84.9a.9.9,0,0,1-.9-.8V168.1a.9.9,0,0,1,.9-.9h27.3a.9.9,0,0,1,.9.9V187A.9.9,0,0,1,112.2,187.8Zm-26.5-1.7h25.6V168.9H85.7Z"/><path d="M165,187.8h-6.9a.9.9,0,0,1-.9-.8V168.1a.9.9,0,0,1,.9-.9H165a.8.8,0,0,1,.8.9V187A.8.8,0,0,1,165,187.8Zm-6-1.7h5.1V168.9H159Z"/><path d="M97.7,183.9H89.3a.9.9,0,0,1-.9-.8V171.5a.9.9,0,0,1,.9-.9h8.4a.9.9,0,0,1,.8.9v11.6A.9.9,0,0,1,97.7,183.9Zm-7.5-1.7h6.6v-9.8H90.2Z"/><path d="M68.7,129.2H44.2a.9.9,0,0,1-.8-.9V75.8a9.5,9.5,0,0,1,9.5-9.5H60a9.6,9.6,0,0,1,9.6,9.5v52.5A.9.9,0,0,1,68.7,129.2Zm-23.6-1.8H67.8V75.8A7.8,7.8,0,0,0,60,68H52.9a7.8,7.8,0,0,0-7.8,7.8Z"/><path d="M52.4,103.1a.9.9,0,0,1-.9-.9V67.3a.9.9,0,1,1,1.8,0v34.9A.9.9,0,0,1,52.4,103.1Z"/><path d="M64.5,176.2h-16a.9.9,0,0,1-.9-.9v-47a.9.9,0,0,1,.9-.9h16a.9.9,0,0,1,.8.9v47A.9.9,0,0,1,64.5,176.2Zm-15.1-1.8H63.6V129.2H49.4Z"/><path d="M166,211.8H89.3a.9.9,0,0,1-.7-.3L74.7,192.8a.9.9,0,0,1,.2-1.3.8.8,0,0,1,1.2.2L89.8,210h75.7l14.4-18.3a.9.9,0,0,1,1.3-.2,1,1,0,0,1,.1,1.3l-14.6,18.7A1.1,1.1,0,0,1,166,211.8Z"/><path d="M122.8,211.8a.8.8,0,0,1-.8-.7l-4.3-18.7a.9.9,0,0,1,.7-1,.9.9,0,0,1,1,.6l4.3,18.7a.9.9,0,0,1-.7,1.1Z"/><path d="M105.8,211.8a.9.9,0,0,1-.8-.5l-7.3-17.4a.9.9,0,0,1,1.7-.6l7.2,17.3a.8.8,0,0,1-.5,1.1Z"/><path d="M132.9,211.8h-.2a.9.9,0,0,1-.6-1.1l4.2-18.7a1,1,0,0,1,1.1-.6.9.9,0,0,1,.7,1l-4.3,18.7A1,1,0,0,1,132.9,211.8Z"/><path d="M149.9,211.8h-.3a.9.9,0,0,1-.5-1.1l7.3-17.3a.9.9,0,0,1,1.6.6l-7.2,17.4A1.1,1.1,0,0,1,149.9,211.8Z"/><path d="M68.7,215.2H42.2a.9.9,0,0,1-.9-.9V175.6a.9.9,0,0,1,.9-.9H68.7a.9.9,0,0,1,.9.9v38.7A.9.9,0,0,1,68.7,215.2Zm-25.6-1.8H67.8V176.5H43.1Z"/><path d="M74.8,250.9h-51a.9.9,0,0,1-.7-.4,1.1,1.1,0,0,1-.1-.8l11.9-35.6a.9.9,0,0,1,.8-.7H73.8a.9.9,0,0,1,.9.9l1,35.7a1.1,1.1,0,0,1-.2.6A.9.9,0,0,1,74.8,250.9Zm-49.7-1.8H73.9L73,215.2H36.4Z"/><path d="M137.5,226.1H118.6a.9.9,0,0,1-.9-.9V210.9a.9.9,0,0,1,.9-.9h18.9a.9.9,0,0,1,.9.9v14.3A.9.9,0,0,1,137.5,226.1Zm-18.1-1.8h17.2V211.8H119.4Z"/><path d="M146.1,250.9H109.5a.9.9,0,0,1-.7-.3,1,1,0,0,1-.2-.7l3.6-24.8a.9.9,0,0,1,.9-.8h29.6a1.1,1.1,0,0,1,.9.8l3.3,24.8a.6.6,0,0,1-.2.7A.7.7,0,0,1,146.1,250.9Zm-35.6-1.8h34.6l-3.2-23h-28Z"/><path d="M52.4,175.4a.8.8,0,0,1-.9-.8V129.3a.9.9,0,1,1,1.8,0v45.3A.8.8,0,0,1,52.4,175.4Z"/><path d="M51.2,187.8H47.3a.9.9,0,0,1-.9-.8v-3.9a.9.9,0,0,1,.9-.9h3.9a.9.9,0,0,1,.9.9V187A.9.9,0,0,1,51.2,187.8Zm-3-1.7h2.1v-2.2H48.2Z"/><path d="M74.8,256h-51a.9.9,0,0,1-.8-.9V250a.9.9,0,0,1,.8-.9.9.9,0,0,1,.9.9v4.2H73.9V250a.9.9,0,1,1,1.8,0v5.1A.9.9,0,0,1,74.8,256Z"/><path d="M211.8,129.2H187.3a.9.9,0,0,1-.9-.9V75.8a9.6,9.6,0,0,1,9.6-9.5h7.1a9.5,9.5,0,0,1,9.5,9.5v52.5A.9.9,0,0,1,211.8,129.2Zm-23.6-1.8h22.7V75.8a7.8,7.8,0,0,0-7.8-7.8H196a7.8,7.8,0,0,0-7.8,7.8Z"/><path d="M203.6,103.1a.9.9,0,0,1-.9-.9V67.3a.9.9,0,0,1,1.8,0v34.9A.9.9,0,0,1,203.6,103.1Z"/><path d="M207.5,176.2h-16a.9.9,0,0,1-.8-.9v-47a.9.9,0,0,1,.8-.9h16a.9.9,0,0,1,.9.9v47A.9.9,0,0,1,207.5,176.2Zm-15.1-1.8h14.2V129.2H192.4Z"/><path d="M213.8,215.2H187.3a.9.9,0,0,1-.9-.9V175.6a.9.9,0,0,1,.9-.9h26.5a.9.9,0,0,1,.9.9v38.7A.9.9,0,0,1,213.8,215.2Zm-25.6-1.8h24.7V176.5H188.2Z"/><path d="M232.2,250.9h-51a.9.9,0,0,1-.7-.3,1.1,1.1,0,0,1-.2-.6l1-35.7a.9.9,0,0,1,.9-.9h38.1a.9.9,0,0,1,.8.7L233,249.7a1.1,1.1,0,0,1-.1.8A.9.9,0,0,1,232.2,250.9Zm-50.1-1.8h48.8l-11.3-33.9H183Z"/><path d="M203.6,175.4a.8.8,0,0,1-.9-.8V129.3a.9.9,0,0,1,1.8,0v45.3A.8.8,0,0,1,203.6,175.4Z"/><path d="M208.7,187.8h-3.9a.9.9,0,0,1-.9-.8v-3.9a.9.9,0,0,1,.9-.9h3.9a.9.9,0,0,1,.9.9V187A.9.9,0,0,1,208.7,187.8Zm-3-1.7h2.1v-2.2h-2.1Z"/><path d="M232.2,256h-51a.9.9,0,0,1-.9-.9V250a.9.9,0,0,1,1.8,0v4.2h49.2V250a.9.9,0,0,1,.9-.9.9.9,0,0,1,.8.9v5.1A.9.9,0,0,1,232.2,256Z"/><path d="M146.1,256H109.5a.9.9,0,0,1-.9-.9V250a.9.9,0,0,1,.9-.9.9.9,0,0,1,.8.9v4.2h34.9V250a.9.9,0,0,1,1.8,0v5.1A.9.9,0,0,1,146.1,256Z"/></svg>