<svg id="Layer_1" data-name="Layer 1" xmlns="http://www.w3.org/2000/svg" width="256" height="256" viewBox="0 0 256 256"><title>rebel</title><path d="M128,254.1c-30.4,0-61.1-12.6-84.2-34.6C18.8,195.7,5,163.1,5,127.7,5,80.9,37.6,37.6,61.1,24.3a1.8,1.8,0,0,1,2.2.4,1.8,1.8,0,0,1,0,2.2C34.8,62.5,36,98.8,46.6,120.9c8.2,17,22.3,27.1,37.7,27.1s24-10.5,26.6-28.9c3.4-24.9-8.3-57.1-30.7-63.3l-1.3-.4L94.7,38.2h.4c1.7,0,14.7,9.3,20.7,17.4-.9-7.3-3.6-24.2-10-28.4l-.9-.6L127.3,2.2a.9.9,0,0,1,1.3,0,.8.8,0,0,1,.1,1.2L107.6,26.3c7.3,6.1,9.7,25.8,10.3,31.9a1.1,1.1,0,0,1-.7,1.2,1.5,1.5,0,0,1-1.4-.5c-4.3-7.7-17.7-17.4-20.4-18.8L82.1,54.5c10.3,3.4,19.1,12.3,24.8,25.2a75.3,75.3,0,0,1,5.7,39.6c-2.6,19.1-13.2,30.5-28.3,30.5s-30.8-10.5-39.2-28.1C34.2,99.1,32.9,62.2,61.8,26,49.5,33,36.1,47.4,25.7,64.6,17.1,79,6.8,101.6,6.8,127.7c0,34.9,13.6,67,38.3,90.5,22.7,21.7,53,34.1,82.9,34.1a.9.9,0,0,1,0,1.8Z"/><path d="M128,254.1a.9.9,0,0,1,0-1.8c29.9,0,60.2-12.4,82.9-34.1,24.7-23.5,38.3-55.6,38.3-90.5,0-26.1-10.3-48.7-18.9-63.1-10.4-17.3-24-31.8-36.3-38.7,29.1,36.2,27.8,73.2,16.9,95.8-8.4,17.6-23.1,28.1-39.2,28.1s-25.7-11.4-28.3-30.5a75.3,75.3,0,0,1,5.7-39.6c5.7-12.9,14.5-21.8,24.8-25.2L160.6,40.1c-2.7,1.4-16.1,11.1-20.4,18.8a1.5,1.5,0,0,1-1.4.5,1.1,1.1,0,0,1-.7-1.2c.6-6.1,3-25.8,10.3-31.9L127.3,3.4a.8.8,0,0,1,.1-1.2.9.9,0,0,1,1.3,0l22.4,24.4-.9.6c-6.4,4.2-9.1,21.1-10,28.4,6-8.1,19-17.4,20.7-17.4h.4l15.8,17.2-1.3.4c-22.4,6.2-34.1,38.4-30.7,63.3,2.6,18.4,12.3,28.9,26.6,28.9s29.5-10.1,37.7-27.1c10.6-22.1,11.8-58.4-16.7-94a1.8,1.8,0,0,1,0-2.2,1.8,1.8,0,0,1,2.2-.4C218.4,37.6,251,80.9,251,127.7c0,35.4-13.8,68-38.8,91.8C189.1,241.5,158.4,254.1,128,254.1Z"/></svg>