<svg id="Layer_1" data-name="Layer 1" xmlns="http://www.w3.org/2000/svg" width="256" height="256" viewBox="0 0 256 256"><title>republic</title><path d="M135.9,210.8H120.1a.9.9,0,0,1-.9-.9v-42a38.9,38.9,0,0,1-13.1-5.5L76.3,192.1a.9.9,0,0,1-1.3,0L63.9,181a.9.9,0,0,1,0-1.3l29.9-29.9a38.4,38.4,0,0,1-5.1-13H46.1a.9.9,0,0,1-.9-.9V120.1a.9.9,0,0,1,.9-.9H89a40.3,40.3,0,0,1,5.4-12.4L63.9,76.3a.9.9,0,0,1,0-1.3L75,63.9a.9.9,0,0,1,1.3,0L107,94.5a39.1,39.1,0,0,1,12.2-4.9V46.1a.9.9,0,0,1,.9-.9h15.8a.9.9,0,0,1,.9.9V89.6A39.1,39.1,0,0,1,149,94.5l30.7-30.6a.9.9,0,0,1,1.3,0L192.1,75a.9.9,0,0,1,0,1.3l-30.5,30.5a40.3,40.3,0,0,1,5.4,12.4h42.9a.9.9,0,0,1,.9.9v15.8a.9.9,0,0,1-.9.9H167.3a38.4,38.4,0,0,1-5.1,13l29.9,29.9a.9.9,0,0,1,0,1.3L181,192.1a.9.9,0,0,1-1.3,0l-29.8-29.7a38.9,38.9,0,0,1-13.1,5.5v42A.9.9,0,0,1,135.9,210.8ZM121,209h14V167.2a1,1,0,0,1,.7-.9,38.3,38.3,0,0,0,13.8-5.8.9.9,0,0,1,1.2.1l29.6,29.6,9.9-9.9-29.8-29.8a.9.9,0,0,1-.1-1.1,37.8,37.8,0,0,0,5.4-13.7.9.9,0,0,1,.9-.7H209V121H166.3a.9.9,0,0,1-.9-.7,39.3,39.3,0,0,0-5.7-13.1.9.9,0,0,1,.1-1.1l30.4-30.4-9.9-9.9L149.8,96.3a1.1,1.1,0,0,1-1.2.2,35.6,35.6,0,0,0-12.9-5.3,1,1,0,0,1-.7-.9V47H121V90.3a1,1,0,0,1-.7.9,35.6,35.6,0,0,0-12.9,5.3,1.1,1.1,0,0,1-1.2-.2L75.7,65.8l-9.9,9.9,30.4,30.4a.9.9,0,0,1,.1,1.1,39.3,39.3,0,0,0-5.7,13.1.9.9,0,0,1-.9.7H47v14H89.4a.9.9,0,0,1,.9.7,37.8,37.8,0,0,0,5.4,13.7.9.9,0,0,1-.1,1.1L65.8,180.3l9.9,9.9,29.6-29.6a.9.9,0,0,1,1.2-.1,38.3,38.3,0,0,0,13.8,5.8,1,1,0,0,1,.7.9Z"/><path d="M71.4,52.5a.8.8,0,0,1-.7-.3L61.5,43h0l-.2-.3a.6.6,0,0,1-.1-.4h0c0-.1.1-.3.1-.4l.2-.2a.1.1,0,0,0,.1-.1,110,110,0,0,1,52.2-21.5h.1a.6.6,0,0,1,.6.3h.1a1.4,1.4,0,0,1,.2.6h0V33.9a.8.8,0,0,1-.8,1A95.9,95.9,0,0,0,71.9,52.3Zm-7.9-10,7.9,7.9A96.4,96.4,0,0,1,113,33.3V22.1A106.1,106.1,0,0,0,63.5,42.5Z"/><path d="M34.3,115.4H20.9a.5.5,0,0,1-.4-.2h0c0-.1-.1-.2-.1-.3h0a.4.4,0,0,1-.1-.3h0A110.1,110.1,0,0,1,42,62.3h.1a.9.9,0,0,1,.6-.3h.1a.9.9,0,0,1,.6.3h0l9.1,9.1a.9.9,0,0,1,.2,1.3,93.5,93.5,0,0,0-17.5,42.1A1,1,0,0,1,34.3,115.4Zm-12-1.8H33.5A96.5,96.5,0,0,1,50.8,72.1l-8-7.9A107.5,107.5,0,0,0,22.3,113.6Z"/><path d="M43.3,195.4h-.4l-.3-.2h0a109,109,0,0,1-21.5-52.2h0a.9.9,0,0,1,.9-.9H34.9a.9.9,0,0,1,1,.7,95.8,95.8,0,0,0,17.4,42.2.8.8,0,0,1-.2,1.2L44,195.1h-.1l-.2.2ZM23,143.6a108.2,108.2,0,0,0,20.4,49.5l8-7.9a97.8,97.8,0,0,1-17.2-41.6Z"/><path d="M115.5,236.3h-.1a110.9,110.9,0,0,1-52.2-21.7h-.1a1.1,1.1,0,0,1,0-1.3h0l9.2-9.1a.8.8,0,0,1,1.2-.2,95.6,95.6,0,0,0,42.1,17.5,1,1,0,0,1,.8,1v13h0a.4.4,0,0,1-.1.3c0,.1-.1.3-.2.3l-.4.2C115.7,236.3,115.6,236.3,115.5,236.3ZM65.2,213.8a108.2,108.2,0,0,0,49.4,20.5V223.1a96.5,96.5,0,0,1-41.5-17.3Z"/><path d="M143.7,235.5h-.1l-.6-.2h0a.7.7,0,0,1-.2-.6h0V221.7a.8.8,0,0,1,.7-1,95.8,95.8,0,0,0,42.2-17.4.9.9,0,0,1,1.2.1l9.2,9.2h0l.2.2v.4c0,.2,0,.3-.1.4a.2.2,0,0,1-.2.2h0a110,110,0,0,1-52.2,21.5Zm.9-13.2v11.3a108.7,108.7,0,0,0,49.5-20.4l-8-8A96,96,0,0,1,144.6,222.3Z"/><path d="M214.8,193.7l-.6-.2h0l-9.2-9.1a.9.9,0,0,1-.1-1.2A95.6,95.6,0,0,0,222.4,141a1,1,0,0,1,1-.8h13.3l.3.2a.5.5,0,0,1,.2.4v.3h0a108.1,108.1,0,0,1-21.7,52.1h-.1Zm-8-10.2,7.9,7.9A107.3,107.3,0,0,0,235.3,142H224.1A96.5,96.5,0,0,1,206.8,183.5Z"/><path d="M222.5,113.8a1,1,0,0,1-.9-.7,94.5,94.5,0,0,0-17.3-42.2.9.9,0,0,1,.1-1.2l9.2-9.2h0l.3-.2h.8c.1,0,.1.1.2.2h.1a110,110,0,0,1,21.5,52.2h0a.5.5,0,0,1-.3.5h0a.7.7,0,0,1-.6.2H222.5Zm.8-1.8h11.2a107.6,107.6,0,0,0-20.4-49.5l-7.9,8A96,96,0,0,1,223.3,112Z"/><path d="M184.6,51.9l-.6-.2a94.6,94.6,0,0,0-42.1-17.5.9.9,0,0,1-.7-1V20.3h0v-.3l.3-.3.3-.2h.4a108.1,108.1,0,0,1,52.1,21.7h.1a.5.5,0,0,1,.3.5h0a.7.7,0,0,1-.3.6h0l-9.1,9.2A1.1,1.1,0,0,1,184.6,51.9ZM143,32.5a96.5,96.5,0,0,1,41.5,17.3l7.9-7.9A107.7,107.7,0,0,0,143,21.3Z"/><path d="M128,247.3A119.3,119.3,0,1,1,247.3,128,119.4,119.4,0,0,1,128,247.3Zm0-236.8A117.5,117.5,0,1,0,245.5,128,117.6,117.6,0,0,0,128,10.5Z"/><path d="M128,256A128,128,0,1,1,256,128,128.1,128.1,0,0,1,128,256ZM128,1.8A126.2,126.2,0,1,0,254.2,128,126.3,126.3,0,0,0,128,1.8Z"/></svg>