<svg id="Layer_1" data-name="Layer 1" xmlns="http://www.w3.org/2000/svg" width="256" height="256" viewBox="0 0 256 256"><title>sand-crawler</title><path d="M189,166.2a.9.9,0,0,1-.9-.9V75.9a.9.9,0,0,1,.4-.8h1l52.8,32.7a1,1,0,0,1,.3,1.3,1.1,1.1,0,0,1-1.3.3L189.9,77.6v87.7A.9.9,0,0,1,189,166.2Z"/><path d="M189,150.9H16a.9.9,0,0,1-.9-1,.9.9,0,0,1,.9-.9H189a.9.9,0,0,1,.9.9A.9.9,0,0,1,189,150.9Z"/><path d="M51.3,150.9h-.2a1,1,0,0,1-.7-1.1L64.6,82.7a.9.9,0,0,1,1.8.4l-14.2,67A.9.9,0,0,1,51.3,150.9Z"/><path d="M159.2,150.9a.8.8,0,0,1-.8-.7L143.1,83.1a1.1,1.1,0,0,1,.1-.8,1.2,1.2,0,0,1,.8-.4h45a1,1,0,0,1,.9,1,.9.9,0,0,1-.9.9H145.1l15.1,65.9a.9.9,0,0,1-.7,1.1Z"/><path d="M147.5,99.4H62.2a1,1,0,0,1-1-.9,1,1,0,0,1,1-1h85.3a.9.9,0,0,1,.9,1A.9.9,0,0,1,147.5,99.4Z"/><path d="M120.6,134.5H102.5a.9.9,0,0,1-.9-.9v-13a.9.9,0,0,1,.9-.9h18.1a.9.9,0,0,1,.9.9v13A.9.9,0,0,1,120.6,134.5Zm-17.2-1.9h16.2V121.5H103.4Z"/><path d="M184.6,163.1h-6.4a.9.9,0,0,1-.9-1v-8.7a1,1,0,0,1,.9-1h6.4a1,1,0,0,1,.9,1v8.7A.9.9,0,0,1,184.6,163.1Zm-5.4-1.9h4.5v-6.9h-4.5Z"/><path d="M249.5,84.4h-5.8a1,1,0,0,1-.9-1V81.1a1,1,0,0,1,.9-1h5.8a1.1,1.1,0,0,1,1,1v2.3A1.1,1.1,0,0,1,249.5,84.4Zm-4.8-1.9h3.9V82h-3.9Z"/><path d="M241.5,84.4h-2.6a1,1,0,0,1-.9-1V81.1a1,1,0,0,1,.9-1h2.6a1,1,0,0,1,.9,1v2.3A1,1,0,0,1,241.5,84.4Zm-1.7-1.9h.8V82h-.8Z"/><path d="M237,84.4h-2.7a1,1,0,0,1-.9-1V81.1a1,1,0,0,1,.9-1H237a1,1,0,0,1,.9,1v2.3A1,1,0,0,1,237,84.4Zm-1.7-1.9h.7V82h-.7Z"/><path d="M83.6,181H43.8a6.3,6.3,0,0,1-5.2-2.8l-3.5-5.6a5.1,5.1,0,0,1-.1-5.2,6.1,6.1,0,0,1,5.4-3H86.8a5.9,5.9,0,0,1,5.2,2.9,4.9,4.9,0,0,1,.1,5.1L88.9,178A5.8,5.8,0,0,1,83.6,181ZM40.4,166.2a4.3,4.3,0,0,0-3.8,2.1,3.3,3.3,0,0,0,.1,3.3l3.5,5.6a4.2,4.2,0,0,0,3.6,2H83.6a4.1,4.1,0,0,0,3.7-2.1l3.2-5.6a3.2,3.2,0,0,0-.1-3.3,4.2,4.2,0,0,0-3.6-2Z"/><path d="M85,173.6a3.6,3.6,0,0,1-3.7-3.4,3.7,3.7,0,0,1,7.4,0A3.6,3.6,0,0,1,85,173.6Zm0-5a1.7,1.7,0,0,0-1.8,1.6,1.8,1.8,0,0,0,3.6,0A1.7,1.7,0,0,0,85,168.6Z"/><path d="M41.5,173.6a3.6,3.6,0,0,1-3.7-3.4,3.7,3.7,0,0,1,7.4,0A3.6,3.6,0,0,1,41.5,173.6Zm0-5a1.7,1.7,0,0,0-1.8,1.6,1.8,1.8,0,0,0,1.8,1.6,1.9,1.9,0,0,0,1.9-1.6A1.8,1.8,0,0,0,41.5,168.6Z"/><path d="M63.6,174.4a.9.9,0,0,1-1-.9v-4.2a.9.9,0,0,1,1-.9.9.9,0,0,1,.9.9v4.2A.9.9,0,0,1,63.6,174.4Z"/><path d="M56.5,174.4a.9.9,0,0,1-.9-.9v-4.2a.9.9,0,0,1,.9-.9,1,1,0,0,1,1,.9v4.2A1,1,0,0,1,56.5,174.4Z"/><path d="M70.6,174.4a.9.9,0,0,1-.9-.9v-4.2a.9.9,0,0,1,1.8,0v4.2A.9.9,0,0,1,70.6,174.4Z"/><path d="M113.5,179.1H103.2a5.8,5.8,0,0,1-5.8-5.7v-8.1a.9.9,0,0,1,1-.9h19.9a.9.9,0,0,1,1,.9v8.1A5.8,5.8,0,0,1,113.5,179.1ZM99.3,166.2v7.2a3.9,3.9,0,0,0,3.9,3.9h10.3a3.9,3.9,0,0,0,3.9-3.9v-7.2Z"/><path d="M189,169.4H174.7a.9.9,0,0,1-.8-.5l-2.1-4.5h-3.9l-3.9,1.7H24.6a1,1,0,0,1-1-.9v-3.2a1,1,0,0,1,1-.9h1.3L15.3,150.6a.8.8,0,0,1-.2-.4L-.1,83.1a.8.8,0,0,1,.2-.8.8.8,0,0,1,.7-.4H32.5V80.3a1,1,0,0,1,.9-1H65.5a1,1,0,0,1,.9,1v1.6h77.4L153,78h.3L188.9,75h66.3a1.2,1.2,0,0,1,.8.4,1.4,1.4,0,0,1,.1.9l-13.4,32.6c-.1.1-.2.2-.2.3l-52.6,56.5v2.8A.9.9,0,0,1,189,169.4Zm-13.7-1.8h12.8v-2.3c0-.2,0-.5.2-.6L241,108.1l12.8-31.3H189l-35.4,2.9-9.3,4H65.5a1,1,0,0,1-1-.9V81.2H34.3v1.7a.9.9,0,0,1-.9.9H1.9l14.9,65.7,11.9,12a.8.8,0,0,1,.2,1,.9.9,0,0,1-.8.6H25.5v1.3h138l3.9-1.8h5a.9.9,0,0,1,.8.6Z"/><path d="M173.2,181H133.4a6,6,0,0,1-5.2-2.8l-3.5-5.6a5.1,5.1,0,0,1-.1-5.2,5.9,5.9,0,0,1,5.3-3h32a.9.9,0,1,1,0,1.8h-32a4.1,4.1,0,0,0-3.7,2.1,3,3,0,0,0,.1,3.3l3.5,5.6a4.2,4.2,0,0,0,3.6,2h39.8a4.1,4.1,0,0,0,3.7-2.1l3.1-5.6a3,3,0,0,0,.3-2.7.9.9,0,0,1,.6-1.2.9.9,0,0,1,1.1.6,5.1,5.1,0,0,1-.3,4.2l-3.2,5.6A5.9,5.9,0,0,1,173.2,181Z"/><path d="M174.6,173.6a3.4,3.4,0,1,1-.3-6.8.9.9,0,0,1,1,.8,1,1,0,0,1-.9,1,1.8,1.8,0,0,0-1.7,1.6,1.9,1.9,0,0,0,1.9,1.6,1.8,1.8,0,0,0,1.8-1.6,1.4,1.4,0,0,0-.3-.9.9.9,0,1,1,1.4-1.2,3.2,3.2,0,0,1,.8,2.1A3.6,3.6,0,0,1,174.6,173.6Z"/><path d="M131.1,173.6a3.6,3.6,0,0,1-3.7-3.4,3.7,3.7,0,0,1,7.4,0A3.6,3.6,0,0,1,131.1,173.6Zm0-5a1.7,1.7,0,0,0-1.8,1.6,1.8,1.8,0,0,0,3.6,0A1.7,1.7,0,0,0,131.1,168.6Z"/><path d="M153.1,174.4a.9.9,0,0,1-.9-.9v-4.2a.9.9,0,0,1,.9-.9,1,1,0,0,1,1,.9v4.2A1,1,0,0,1,153.1,174.4Z"/><path d="M146.1,174.4a.9.9,0,0,1-.9-.9v-4.2a.9.9,0,0,1,1.8,0v4.2A.9.9,0,0,1,146.1,174.4Z"/><path d="M160.2,174.4a.9.9,0,0,1-.9-.9v-4.2a.9.9,0,1,1,1.8,0v4.2A.9.9,0,0,1,160.2,174.4Z"/><path d="M47,146.9H26a1,1,0,0,1-.9-1v-8.8a.9.9,0,0,1,.9-.9H47a.9.9,0,0,1,1,.9v8.8A1,1,0,0,1,47,146.9ZM27,145H46.1v-7H27Z"/></svg>