<svg id="Layer_1" data-name="Layer 1" xmlns="http://www.w3.org/2000/svg" width="256" height="256" viewBox="0 0 256 256"><title>snow-trooper</title><path d="M48.9,185.6l-.9-.2-9.4-3.1-.2-.4c-2.9-7-7.3-22.8-10.2-39.6-2.4-13.7-4.3-31.9-.4-41a9.4,9.4,0,0,1,4.1-4.8c-2.7-18.5,1.5-54.3,11.9-63S82.5,21,127.4,21v1.8c-43.8,0-73.1,4.3-82.5,12.1s-14.2,42.6-11.1,62l.2.7-.7.3a7,7,0,0,0-3.8,4.1c-3,6.8-2.8,21,.5,40,2.8,16.4,7.1,31.8,9.9,38.8l8.7,2.9a1,1,0,0,0,.9-.2.8.8,0,0,0,.3-.9c-7.6-26.2-9.3-124.2-.4-135.7s47.2-13.6,78-13.6v1.8c-43,0-70.2,4.6-76.6,12.9-3.8,4.9-6,29-5.6,61.5s2.9,60.6,6.3,72.6a2.7,2.7,0,0,1-2.6,3.5Z"/><path d="M207.7,184.9a4.3,4.3,0,0,1-2.8-1.1,3.8,3.8,0,0,1-1.1-3.9c3.2-13.5,5.5-42.7,5.8-72.7.2-31.7-2-54.4-5.7-59.2-6.4-8.3-33.6-12.9-76.5-12.9V33.3c30.7,0,69.2,2.4,77.9,13.6,6,7.7,6.2,48.1,6.1,60.3-.2,30.2-2.6,59.5-5.9,73.1a2.3,2.3,0,0,0,.7,2.2,2.2,2.2,0,0,0,2.2.4l6.4-2.1c2.8-7,7.1-22.4,9.9-38.8,3.3-19,3.5-33.2.5-40a7.2,7.2,0,0,0-3.7-4.1l-.7-.3v-.7c3.1-19.4-1.9-54.3-11.1-62s-38.6-12.1-82.4-12.1V21c44.8,0,73.7,4.3,83.5,12.5s14.6,44.5,11.9,63a9.4,9.4,0,0,1,4.1,4.8c3.9,9.1,2,27.3-.4,41-2.8,16.8-7.3,32.6-10.2,39.6l-.2.4-7.1,2.4Z"/><path d="M56.1,27.3H54.3C54.3,15.4,67,1.1,127.4,1.1V2.9C100.7,2.9,56.1,6.1,56.1,27.3Z"/><path d="M200,27.3h-1.8c0-21.2-44.7-24.4-71.3-24.4V1.1C187.3,1.1,200,15.4,200,27.3Z"/><path d="M82,152.7c-5.8,0-10.7-2.7-14.6-8.1-9.1-12.4-10.6-36.6-7.9-45,1.6-5.1,11.7-9.4,30-12.8,15-2.8,30.9-4.1,37.4-4.1v1.8c-14.7,0-62.6,5.7-65.7,15.6-2.5,8.1-1.1,31.5,7.7,43.4,3.5,4.9,8,7.4,13.1,7.4s6.6-6,9.8-13.5c5.6-13,13.3-30.8,35.1-30.8v1.8c-20.6,0-27.7,16.5-33.4,29.7C90,146.2,87.2,152.7,82,152.7Z"/><path d="M82,160.5c-8.3,0-15.5-3.9-20.9-11.3-11-15-12.1-42.2-9-52S72.1,82.1,88,79.1s31-4.2,38.9-4.2v1.8c-7.9,0-24,1.5-38.5,4.2S56.8,88,53.8,97.8s-1.9,35.7,8.8,50.3c5,6.9,11.7,10.6,19.4,10.6s13.1-9.3,17-18.2c6.6-15.3,12.5-26.1,27.9-26.1v1.8c-14.3,0-19.9,10.3-26.3,25C96.5,150.7,92.3,160.5,82,160.5Z"/><path d="M171.8,152.7c-5.2,0-8-6.5-11.5-14.6-5.7-13.2-12.8-29.7-33.4-29.7v-1.8c21.8,0,29.5,17.8,35.1,30.8,3.2,7.5,5.8,13.5,9.8,13.5s9.6-2.5,13.1-7.4c8.8-11.9,10.2-35.3,7.7-43.4-3.1-9.9-51-15.6-65.7-15.6V82.7c6.5,0,22.4,1.3,37.4,4.1,18.3,3.4,28.4,7.7,30,12.8,2.7,8.4,1.2,32.6-7.9,45C182.5,150,177.6,152.7,171.8,152.7Z"/><path d="M171.8,160.5c-10.3,0-14.5-9.8-18.6-19.3-6.4-14.7-12-25-26.3-25v-1.8c15.4,0,21.3,10.8,27.9,26.1,3.9,8.9,7.9,18.2,17,18.2s14.4-3.7,19.4-10.6c10.7-14.6,11.8-40.8,8.8-50.3s-19.2-14-34.6-16.9-30.6-4.2-38.5-4.2V74.9c7.9,0,24.3,1.5,38.9,4.2s32.6,7.5,35.9,18.1,2,37-9,52C187.3,156.6,180.1,160.5,171.8,160.5Z"/><path d="M126.9,66.7a.9.9,0,0,1-.9-.9V44.7a.9.9,0,0,1,1.8,0V65.8A.9.9,0,0,1,126.9,66.7Z"/><path d="M120.9,66.7a.9.9,0,0,1-.9-.9V44.7a.9.9,0,0,1,1.8,0V65.8A.9.9,0,0,1,120.9,66.7Z"/><path d="M132.9,66.7a.9.9,0,0,1-.9-.9V44.7a.9.9,0,0,1,1.8,0V65.8A.9.9,0,0,1,132.9,66.7Z"/><path d="M109,136.8a2,2,0,0,1-1.7-3c4-6.3,14.8-12.6,19.6-12.6V123c-4.2,0-14.5,6.2-18.1,11.8h.3l1.9-.9c4.2-2,8.9-4.3,15.9-4.3v1.8c-6.6,0-10.9,2.1-15.1,4.1l-2,.9A1.1,1.1,0,0,1,109,136.8Z"/><path d="M144.8,136.8a1.1,1.1,0,0,1-.8-.2l-2-.9c-4.2-2-8.5-4.1-15.1-4.1H126V121.2h.9c4.8,0,15.6,6.3,19.6,12.6a2,2,0,0,1-1.7,3Zm-17-7c6.5.2,11,2.4,15,4.3l1.9.9h.3c-3.4-5.3-12.6-11-17.2-11.7Z"/><rect x="132.1" y="124.2" width="1.8" height="7.12"/><rect x="138.3" y="127.8" width="1.8" height="5.47"/><rect x="119.9" y="124.2" width="1.8" height="7.12"/><rect x="113.7" y="127.8" width="1.8" height="5.47"/><path d="M145.6,255.5H108.2V169.6a18.7,18.7,0,1,1,37.4,0ZM110,253.7h33.8V169.6a16.9,16.9,0,0,0-33.8,0Z"/><path d="M139.3,255.5H114.5V170a11.4,11.4,0,0,1,11.4-11.3h2A11.4,11.4,0,0,1,139.3,170Zm-23-1.8h21.2V170a9.6,9.6,0,0,0-9.6-9.5h-2a9.6,9.6,0,0,0-9.6,9.5Z"/><path d="M126.9,249.2a8.5,8.5,0,1,1,8.5-8.4A8.5,8.5,0,0,1,126.9,249.2Zm0-15.1a6.7,6.7,0,1,0,6.6,6.7A6.6,6.6,0,0,0,126.9,234.1Z"/><path d="M110,254.6h-1.8c0-3.3-25-15-39.8-21.9l-16.2-7.8c-9.3-4.6-8.4-12.1-7.5-19.4s1.7-14.4-7.3-18.9c-19.1-9.7-25.4-16-25.4-34.8,0-14,4.4-32.1,14.3-41l1.2,1.4c-9.4,8.4-13.7,26-13.7,39.6,0,18,5.8,23.8,24.4,33.1,10.1,5.2,9.1,13.5,8.3,20.8s-1.6,13.6,6.5,17.6L69.1,231C93.8,242.6,110,250.4,110,254.6Z"/><path d="M145.6,254.6h-1.8c0-4.1,15.9-11.7,40.2-22.8,6.8-3.1,13.2-6.1,18-8.5,8.1-4,7.3-10.6,6.5-17.6s-1.8-15.6,8.3-20.8c18.6-9.3,24.4-15.1,24.4-33.1,0-13.6-4.3-31.2-13.7-39.6l1.2-1.4c9.9,8.9,14.3,27,14.3,41,0,18.8-6.3,25.1-25.4,34.8-9,4.5-8.2,11.5-7.3,18.9s1.8,14.8-7.5,19.4c-4.8,2.4-11.2,5.4-18.1,8.5C170.1,240.2,145.6,251.4,145.6,254.6Z"/><path d="M219.4,171.5l-.5-1.7a13.9,13.9,0,0,0,9-8.1c4.6-10.5.9-27-1.3-31.5l1.6-.8c2.4,4.9,6.3,21.8,1.3,33A15.2,15.2,0,0,1,219.4,171.5Z"/><path d="M35.1,171.5A15.2,15.2,0,0,1,25,162.4c-5-11.2-1.1-28.1,1.3-33l1.6.8c-2.2,4.5-5.9,21-1.3,31.5a13.9,13.9,0,0,0,9,8.1Z"/><rect x="115.4" y="194.4" width="23" height="1.81"/></svg>