<svg id="Layer_1" data-name="Layer 1" xmlns="http://www.w3.org/2000/svg" width="256" height="256" viewBox="0 0 256 256"><title>storm-trooper</title><path d="M217.9,74.5H38.4a.9.9,0,0,1,0-1.8H217.9a.9.9,0,1,1,0,1.8Z"/><path d="M221,89.3H34a.9.9,0,0,1-.9-.9V73.6a.9.9,0,0,1,.9-.9H221a.9.9,0,0,1,.9.9V88.4A.9.9,0,0,1,221,89.3ZM34.9,87.5H220.1v-13H34.9Z"/><path d="M34,74.5h-.1a1,1,0,0,1-.8-1C37.2,46,45.4,28.6,59.4,17.3S95.6,0,127.5,0s52.8,4.5,67.1,14.7S219,44.6,221.9,73.5a.9.9,0,1,1-1.8.2c-2.8-28.4-11.3-46.7-26.6-57.5s-34.3-14.4-66-14.4c-60.4,0-84.6,18.8-92.6,71.9A.9.9,0,0,1,34,74.5Z"/><path d="M187.1,128.4c-9.2,0-44.7-27.7-44.7-32.5a1.6,1.6,0,0,1,.5-1.1l1.1-.2c2.6,0,13.6.7,25.2,1.5s24.3,1.7,27.3,1.7c1.3,0,3.3.8,3.3,6.3C199.8,112.4,194.9,128.4,187.1,128.4Zm-42.7-32c2.7,4.8,34.4,30.2,42.7,30.2,5.8,0,10.9-14,10.9-22.5,0-2.7-.6-4.5-1.5-4.5-3,0-15.4-.8-27.5-1.7C158.5,97.2,147.6,96.4,144.4,96.4Z"/><path d="M64.8,128.4c-7.8,0-12.7-16-12.7-24.3a11.7,11.7,0,0,1,.6-4.2,2.9,2.9,0,0,1,2.7-2.1c3,0,15.3-.9,27.3-1.7s22.6-1.5,25.2-1.5l1.1.2a1.6,1.6,0,0,1,.5,1.1C109.5,100.7,74,128.4,64.8,128.4Zm42.7-32c-3.2,0-14.1.8-24.6,1.5-12.1.9-24.5,1.7-27.5,1.7-.9,0-1.5,1.8-1.5,4.5,0,8.5,5.1,22.5,10.9,22.5C73.1,126.6,104.8,101.2,107.5,96.4Zm.5,0Z"/><path d="M57,143.6c-16.2,0-16.4-53-16.4-55.2a.9.9,0,1,1,1.8,0c0,14.8,2.6,53.4,14.6,53.4,5.8,0,15-5.6,25.7-12.2,14.6-8.9,31.2-19,45.8-19a.9.9,0,0,1,0,1.8c-14.1,0-30.4,10-44.9,18.8C72.7,137.9,63.3,143.6,57,143.6Z"/><path d="M199.1,143.6c-6.3,0-15.7-5.7-26.6-12.4-14.4-8.8-30.8-18.8-44.9-18.8a.9.9,0,0,1,0-1.8c14.6,0,31.2,10.1,45.8,19,10.7,6.6,19.9,12.2,25.7,12.2,12,0,14.6-38.6,14.6-53.4a.9.9,0,0,1,1.8,0C215.5,90.6,215.4,143.6,199.1,143.6Z"/><path d="M173.7,256c-26.9,0-30.5-11.3-30.9-14.9H128.5a.9.9,0,0,1,0-1.8h15.1a.9.9,0,0,1,.9.9c0,.6.3,14,29.2,14,12.5,0,26.4-4.9,38.2-13.5,9.9-7.2,16.8-16,16.8-21.3,0-22.1-6.8-32.8-20.8-32.8-10.4,0-24.5-8.7-39.4-18s-29.5-18.3-40-18.3a.9.9,0,0,1,0-1.8c11,0,26.3,9.4,41,18.6s28.5,17.7,38.4,17.7c15,0,22.6,11.6,22.6,34.6C230.5,230.8,203,256,173.7,256Z"/><path d="M83.3,256c-29.3,0-56.7-25.2-56.7-36.6,0-23,7.6-34.6,22.6-34.6,9.8,0,24.4-9,38.4-17.7s29.9-18.6,40.9-18.6a.9.9,0,0,1,0,1.8c-10.5,0-25.5,9.3-39.9,18.3s-29,18-39.4,18c-14,0-20.8,10.7-20.8,32.8,0,5.3,6.9,14.1,16.7,21.3,11.9,8.6,25.8,13.5,38.2,13.5,28.9,0,29.3-13.4,29.3-14a1.1,1.1,0,0,1,.2-.6.9.9,0,0,1,.7-.3h15a.9.9,0,0,1,0,1.8H114.3C113.9,244.7,110.3,256,83.3,256Z"/><path d="M91.9,166.3a.9.9,0,0,1,0-1.8c.9,0,4.1-3.5,6.9-6.6,7.3-8.1,18.5-20.5,29.7-20.5a.9.9,0,0,1,0,1.8c-10.4,0-21.2,12-28.4,20C95.7,164,93.5,166.3,91.9,166.3Z"/><path d="M165.2,166.3c-1.7,0-3.8-2.3-8.2-7.1-7.2-8-18-20-28.5-20a.9.9,0,1,1,0-1.8c11.3,0,22.4,12.4,29.8,20.5,2.8,3.1,5.9,6.6,6.9,6.6s.9.5.8,1A.8.8,0,0,1,165.2,166.3Z"/><path d="M86.9,246.8a17.3,17.3,0,1,1,17.3-17.3A17.4,17.4,0,0,1,86.9,246.8Zm0-32.8a15.5,15.5,0,1,0,15.5,15.5A15.5,15.5,0,0,0,86.9,214Z"/><path d="M86.9,237.8a8.3,8.3,0,0,1-8.3-8.3,8.4,8.4,0,0,1,8.3-8.4,8.5,8.5,0,0,1,8.4,8.4A8.4,8.4,0,0,1,86.9,237.8Zm0-14.8a6.5,6.5,0,1,0,0,13,6.5,6.5,0,1,0,0-13Z"/><path d="M166.9,237.8a8.3,8.3,0,0,1-8.3-8.3,8.4,8.4,0,0,1,8.3-8.4,8.5,8.5,0,0,1,8.4,8.4A8.4,8.4,0,0,1,166.9,237.8Zm0-14.8a6.5,6.5,0,1,0,0,13,6.5,6.5,0,1,0,0-13Z"/><path d="M166.9,246.8a17.3,17.3,0,1,1,17.3-17.3A17.4,17.4,0,0,1,166.9,246.8Zm0-32.8a15.5,15.5,0,1,0,15.5,15.5A15.5,15.5,0,0,0,166.9,214Z"/><path d="M113.4,241.1a.9.9,0,0,1-.9-.9V222a.8.8,0,0,1,.1-.4l6.7-13.5c1.6-3.4,4-6.8,9.2-6.8a.9.9,0,0,1,0,1.8c-3.4,0-5.6,1.7-7.6,5.8l-6.6,13.4v17.9A.9.9,0,0,1,113.4,241.1Z"/><path d="M143.6,241.1a.9.9,0,0,1-.9-.9V222.3l-6.6-13.4c-2-4.2-4.2-5.8-7.6-5.8a.9.9,0,0,1,0-1.8c5.2,0,7.6,3.4,9.2,6.8l6.7,13.5a.8.8,0,0,1,.1.4v18.2A.9.9,0,0,1,143.6,241.1Z"/><path d="M89.5,214H86.9a.9.9,0,0,1,0-1.8h1.2c5.3,0,15.3.1,19.4-4a6.1,6.1,0,0,0,1.8-4.5c0-5.4,5.2-14,19.2-14a.9.9,0,0,1,0,1.8c-12.6,0-17.4,7.5-17.4,12.2a8.2,8.2,0,0,1-2.3,5.8C104.5,213.7,95.3,214,89.5,214Z"/><path d="M167.6,214c-5.9,0-15.1-.3-19.3-4.5a7.8,7.8,0,0,1-2.4-5.8c0-4.7-4.7-12.2-17.4-12.2a.9.9,0,0,1,0-1.8c14,0,19.3,8.6,19.3,14a6,6,0,0,0,1.7,4.5c4.2,4.1,14.1,4,19.5,4h1.1a.9.9,0,0,1,0,1.8h-2.5Z"/><path d="M27.6,206c-8.2,0-25.4-20.3-25.4-36.2,0-12.5,3.7-19.6,14.2-27.4s23.3-31.2,23.3-53.7a.9.9,0,1,1,1.8,0c0,15.6-9.1,44.1-24,55.1C7.5,151.2,4,158,4,169.8c0,6.6,3.4,15.1,9.2,22.8s11,11.6,14.4,11.6a.9.9,0,0,1,0,1.8Z"/><path d="M41.5,155.6a.9.9,0,0,1-.7-.3c-8.9-8.9,1.3-38.8,1.8-40.1a.9.9,0,0,1,1.1-.5.8.8,0,0,1,.6,1.1,120.7,120.7,0,0,0-4.2,16.3c-1.8,9.8-1.4,16.9,1,20.7,1.2-3.3,4.1-8.6,15.7-11a.9.9,0,0,1,.4,1.8c-12,2.4-13.8,8.1-14.7,10.9l-.2.5a.9.9,0,0,1-.6.6Z"/><path d="M53,186.2a.9.9,0,0,1-.9-.6c-2.5-10.4-19.2-29.6-24.7-30a1,1,0,0,1-.8-1,.8.8,0,0,1,1-.8c6.7.5,23.6,20.7,26.3,31.3a.9.9,0,0,1-.7,1.1Z"/><path d="M24.8,187.1a1.1,1.1,0,0,1-.7-.3.9.9,0,0,1,.2-1.3l10.6-8.1a.9.9,0,0,1,1.1,1.5l-10.6,8A.7.7,0,0,1,24.8,187.1Z"/><path d="M20.2,182.5a.8.8,0,0,1-.7-.4.9.9,0,0,1,.1-1.3l10.6-8a.9.9,0,0,1,1.3.2.8.8,0,0,1-.2,1.2l-10.6,8.1Z"/><path d="M15.5,177.8a.8.8,0,0,1-.7-.4.8.8,0,0,1,.2-1.2l10.6-8.1a.8.8,0,0,1,1.2.2.9.9,0,0,1-.1,1.3l-10.6,8Z"/><path d="M10.8,173.1a1.1,1.1,0,0,1-.7-.3.9.9,0,0,1,.2-1.3l10.6-8a.9.9,0,0,1,1.3.1.9.9,0,0,1-.2,1.3L11.4,173Z"/><path d="M228.4,206a.9.9,0,0,1,0-1.8c7.2,0,23.6-20,23.6-34.4,0-11.8-3.5-18.6-13.5-26-14.9-11-24-39.5-24-55.1a.9.9,0,0,1,1.8,0c0,15.2,8.9,42.9,23.3,53.7,10.5,7.8,14.2,14.9,14.2,27.4C253.8,185.7,236.6,206,228.4,206Z"/><path d="M214.5,155.6h-.2a.9.9,0,0,1-.6-.6l-.2-.5c-.9-2.8-2.7-8.5-14.7-10.9a.9.9,0,1,1,.4-1.8c11.6,2.4,14.5,7.7,15.7,11,2.4-3.8,2.8-10.9,1-20.7a120.7,120.7,0,0,0-4.2-16.3.8.8,0,0,1,.6-1.1.9.9,0,0,1,1.1.5c.5,1.3,10.7,31.2,1.8,40.1A.9.9,0,0,1,214.5,155.6Z"/><path d="M203,186.2h-.2a.9.9,0,0,1-.7-1.1c2.7-10.6,19.6-30.8,26.3-31.3a.8.8,0,0,1,1,.8,1,1,0,0,1-.8,1c-5.5.4-22.2,19.6-24.7,30A.9.9,0,0,1,203,186.2Z"/><path d="M231.2,187.1a.7.7,0,0,1-.6-.2l-10.6-8a.9.9,0,0,1,1.1-1.5l10.6,8.1a.9.9,0,0,1,.2,1.3A1.1,1.1,0,0,1,231.2,187.1Z"/><path d="M235.8,182.5l-.5-.2-10.6-8.1a.8.8,0,0,1-.2-1.2.9.9,0,0,1,1.3-.2l10.6,8a.9.9,0,0,1,.1,1.3A.8.8,0,0,1,235.8,182.5Z"/><path d="M240.5,177.8l-.6-.2-10.6-8a.9.9,0,0,1-.1-1.3.8.8,0,0,1,1.2-.2l10.6,8.1a.8.8,0,0,1,.2,1.2A.8.8,0,0,1,240.5,177.8Z"/><path d="M245.2,173.1h-.6L234,164.9a.9.9,0,0,1-.2-1.3.9.9,0,0,1,1.3-.1l10.6,8a.9.9,0,0,1,.2,1.3A1.1,1.1,0,0,1,245.2,173.1Z"/><path d="M24.8,135.9h-.4c-6.9-3.7-3.9-19.2-2.3-25.7,2.2-8.7,7.3-22.6,11.9-22.6a.9.9,0,1,1,0,1.8c-2.3,0-7.2,9.3-10.1,21.3s-2.6,21.5,1.4,23.6a.8.8,0,0,1,.3,1.2A.8.8,0,0,1,24.8,135.9Z"/><path d="M231.2,135.9a.8.8,0,0,1-.8-.5.8.8,0,0,1,.3-1.2c4-2.1,4.5-11.2,1.4-23.6S224.2,89.3,222,89.3a.9.9,0,0,1,0-1.8c4.6,0,9.7,13.9,11.9,22.6,1.6,6.5,4.6,22-2.3,25.7Z"/></svg>