<svg xmlns="http://www.w3.org/2000/svg" width="256" height="256" viewBox="0 0 256 256"><path d="M128.3 138.9a15 15 0 1 1 15-14.9 14.9 14.9 0 0 1-15 14.9zm0-28.1a13.2 13.2 0 1 0 13.2 13.2 13.2 13.2 0 0 0-13.2-13.2z"/><path d="M128.3 152.5a28.6 28.6 0 1 1 28.5-28.5 28.6 28.6 0 0 1-28.5 28.5zm0-55.3a26.8 26.8 0 1 0 26.8 26.8 26.8 26.8 0 0 0-26.8-26.8z"/><path d="M128.3 158.9a35 35 0 1 1 35-34.9 35 35 0 0 1-35 34.9zm0-68.2a33.3 33.3 0 1 0 33.2 33.3 33.3 33.3 0 0 0-33.2-33.3z"/><path d="M128.3 174.6A50.7 50.7 0 1 1 179 124a50.7 50.7 0 0 1-50.7 50.6zm0-99.5a48.9 48.9 0 1 0 48.9 48.9 49 49 0 0 0-48.9-48.9z"/><path d="M128.3 110.8a.9.9 0 0 1-.9-.9V96.3a.9.9 0 0 1 1.8 0v13.6a.9.9 0 0 1-.9.9zm-9.9 4.1a.7.7 0 0 1-.6-.3l-9.6-9.5a.9.9 0 0 1 0-1.3.7.7 0 0 1 1.2 0l9.6 9.6a.7.7 0 0 1 0 1.2zm-4.1 9.9h-13.6a.9.9 0 0 1-.9-.8.9.9 0 0 1 .9-.9h13.6a.9.9 0 0 1 .9.9.9.9 0 0 1-.9.8zm-5.5 19.6a.7.7 0 0 1-.6-.3.8.8 0 0 1 0-1.2l9.6-9.6a.8.8 0 1 1 1.2 1.2l-9.6 9.6a.7.7 0 0 1-.6.3zm19.5 8.1a.9.9 0 0 1-.9-.9V138a.9.9 0 0 1 1.8 0v13.6a.9.9 0 0 1-.9.9zm19.6-8.1a.9.9 0 0 1-.7-.3l-9.6-9.6a.9.9 0 0 1 0-1.2.9.9 0 0 1 1.3 0l9.6 9.6a.9.9 0 0 1 0 1.2.9.9 0 0 1-.6.3zm8.1-19.6h-13.6a.9.9 0 0 1-.9-.8.9.9 0 0 1 .9-.9H156a.9.9 0 0 1 .8.9.9.9 0 0 1-.8.8zm-17.7-9.9a.9.9 0 0 1-.7-1.5l9.6-9.6a.9.9 0 0 1 1.3 0 1 1 0 0 1 0 1.3l-9.6 9.5zm74.6 9.9a.9.9 0 0 1-.9-.8v-13.4l-40.1-9.6a.9.9 0 0 1-.7-1 .9.9 0 0 1 1.1-.7l40.8 9.7a1 1 0 0 1 .7.9V124a.9.9 0 0 1-.9.8z"/><path d="M172.1 150a1 1 0 0 1-.9-.7.9.9 0 0 1 .7-1.1l40.1-8.7v-16.7a.9.9 0 0 1 1.8 0v17.4a.9.9 0 0 1-.7.9l-40.8 8.8zm-14.6-65.5H99.1a.9.9 0 0 1 0-1.8h58.4a.9.9 0 0 1 0 1.8zm0 80.7H99.1a.9.9 0 0 1 0-1.8h58.4a.9.9 0 0 1 0 1.8zm20.6-40.4h-15.7a.9.9 0 0 1-.9-.8.9.9 0 0 1 .9-.9h15.7a.9.9 0 0 1 .9.9.9.9 0 0 1-.9.8zm-83.9 0H78.5a.9.9 0 0 1-.8-.8.9.9 0 0 1 .8-.9h15.7a.9.9 0 0 1 .9.9.9.9 0 0 1-.9.8zM93.1 160a.7.7 0 0 1-.6-.2 1.1 1.1 0 0 1 0-1.3l11.1-11.1a.9.9 0 0 1 1.2 0 .9.9 0 0 1 0 1.3l-11 11.1a.8.8 0 0 1-.7.2zm70.4 0a.7.7 0 0 1-.6-.2l-11.1-11.1a.9.9 0 0 1 1.3-1.3l11.1 11.1a1.1 1.1 0 0 1 0 1.3.8.8 0 0 1-.7.2z"/><path d="M204.6 124.8h-42.2a.9.9 0 0 1-.9-.8.9.9 0 0 1 .9-.9h42.2a.9.9 0 0 1 .9.9.9.9 0 0 1-.9.8zm-52.2-24.1l-.6-.2a1.1 1.1 0 0 1 0-1.3l11.1-11.1a.9.9 0 1 1 1.3 1.3l-11.1 11.1zm-48.2 0l-.6-.2-11.1-11.1a.9.9 0 0 1 1.3-1.3l11 11.1a.9.9 0 0 1 0 1.3z"/><path d="M221.3 134.6h-16.7a.9.9 0 0 1-.9-.9v-19.5a.9.9 0 0 1 .9-.9h16.7a.8.8 0 0 1 .8.9v19.5a.8.8 0 0 1-.8.9zm-15.8-1.8h14.9v-17.7h-14.9z"/><path d="M227 138.1h-5.7a.9.9 0 0 1-.9-.9v-26.3a.9.9 0 0 1 .9-.9h5.7a.9.9 0 0 1 .9.9v26.3a.9.9 0 0 1-.9.9zm-4.9-1.8h4.1v-24.5h-4.1z"/><path d="M235.1 134.2H227a.9.9 0 0 1-.8-.8v-18.8a.9.9 0 0 1 .8-.9h8.1a.9.9 0 0 1 .9.9v18.8a.9.9 0 0 1-.9.8zm-7.2-1.7h6.3v-17h-6.3z"/><path d="M235.1 115.5a.9.9 0 0 1-.6-.3.8.8 0 0 1-.1-1.2l4.7-5.4a.9.9 0 0 1 1.2-.1.9.9 0 0 1 .1 1.3l-4.6 5.3a1.3 1.3 0 0 1-.7.4z"/><path d="M235.1 115.5a.9.9 0 0 1-.6-.3.8.8 0 0 1-.1-1.2l4.7-5.4a.9.9 0 0 1 1.2-.1.9.9 0 0 1 .1 1.3l-4.6 5.3a1.3 1.3 0 0 1-.7.4zm4.6 24.1a.7.7 0 0 1-.6-.3l-4.7-5.4a.8.8 0 0 1 .1-1.2.9.9 0 0 1 1.3.1l4.6 5.3a.9.9 0 0 1-.1 1.3z"/><path d="M239.7 139.6a.7.7 0 0 1-.6-.3l-4.7-5.4a.8.8 0 0 1 .1-1.2.9.9 0 0 1 1.3.1l4.6 5.3a.9.9 0 0 1-.1 1.3zm-4.6-24.1a.9.9 0 0 1-.6-.3.8.8 0 0 1-.1-1.2l4.7-5.4a.9.9 0 0 1 1.2-.1.9.9 0 0 1 .1 1.3l-4.6 5.3a1.3 1.3 0 0 1-.7.4zm11.3 24.1l-.6-.2a.9.9 0 0 1-.1-1.3l4.4-5.1v-18.1l-4.4-5.1a.9.9 0 0 1 .1-1.3 1.1 1.1 0 0 1 1.3.1l4.6 5.4a.8.8 0 0 1 .2.6v18.8a.8.8 0 0 1-.2.5l-4.6 5.4a1.1 1.1 0 0 1-.7.3z"/><path d="M245.9 123.7a.9.9 0 0 1-.9-.9V98.1L200.4 52l-.9 1.2L241 98.4a1.4 1.4 0 0 1 .2.6v23.8a.9.9 0 1 1-1.8 0V99.3l-41.7-45.5a.8.8 0 0 1 0-1.1l2-2.6a.9.9 0 0 1 .6-.4.9.9 0 0 1 .7.3l45.5 47.2c.2.1.2.3.2.6v25a.8.8 0 0 1-.8.9z"/><path d="M200.4 196.6h-.1a.6.6 0 0 1-.6-.3l-2-2.6a.9.9 0 0 1 0-1.2l41.7-45.5v-23.4a.9.9 0 1 1 1.8 0v23.8a1.4 1.4 0 0 1-.2.6l-41.5 45.2.9 1.2 44.6-46.2v-24.6a.9.9 0 0 1 .9-.9.8.8 0 0 1 .8.9v25c0 .2 0 .5-.2.6L201 196.4zm54.7-67.5h-2.7a.9.9 0 0 1 0-1.8h1.8v-5.9h-1.8a.9.9 0 1 1 0-1.8h2.7a.9.9 0 0 1 .9.9v7.7a.9.9 0 0 1-.9.9zm-51-8.2h-.1l-11.5-1.8-.6-.2-5.7-6.1-10.8-3.4a.9.9 0 0 1-.6-1.1 1 1 0 0 1 1.2-.6l10.9 3.5.4.2 5.7 6 11.3 1.7a.9.9 0 0 1-.2 1.8zm-28.4 19.6a1 1 0 0 1-.9-.6.9.9 0 0 1 .6-1.1l10.8-3.4 5.7-6.1.6-.2 11.5-1.8a.9.9 0 0 1 1 .7.9.9 0 0 1-.7 1.1l-11.3 1.7-5.7 5.9c-.1.2-.2.2-.4.3l-10.9 3.5zM43.1 124.8a.9.9 0 0 1-.9-.8v-14.1a1 1 0 0 1 .7-.9l40.8-9.7a.9.9 0 0 1 1.1.7.9.9 0 0 1-.7 1L44 110.6V124a.9.9 0 0 1-.9.8z"/><path d="M83.9 150h-.2l-40.8-8.8a.9.9 0 0 1-.7-.9v-17.5a.9.9 0 0 1 1.8 0v16.7l40.1 8.7a.9.9 0 0 1 .7 1.1 1 1 0 0 1-.9.7zm9.7-25.2H51.4a.9.9 0 0 1-.9-.8.9.9 0 0 1 .9-.9h42.2a.9.9 0 0 1 .9.9.9.9 0 0 1-.9.8z"/><path d="M51.4 134.6H34.7a.8.8 0 0 1-.8-.9v-19.5a.8.8 0 0 1 .8-.9h16.7a.9.9 0 0 1 .9.9v19.5a.9.9 0 0 1-.9.9zm-15.8-1.8h14.9v-17.7H35.6z"/><path d="M34.7 138.1H29a.9.9 0 0 1-.9-.9v-26.3a.9.9 0 0 1 .9-.9h5.7a.9.9 0 0 1 .9.9v26.3a.9.9 0 0 1-.9.9zm-4.9-1.8h4.1v-24.5h-4.1z"/><path d="M29 134.2h-8.1a.9.9 0 0 1-.9-.8v-18.8a.9.9 0 0 1 .9-.9H29a.9.9 0 0 1 .8.9v18.8a.9.9 0 0 1-.8.8zm-7.2-1.7h6.3v-17h-6.3z"/><path d="M20.9 115.5a1.3 1.3 0 0 1-.7-.4l-4.6-5.3a.9.9 0 0 1 .1-1.3.9.9 0 0 1 1.2.1l4.7 5.4a.8.8 0 0 1-.1 1.2.9.9 0 0 1-.6.3z"/><path d="M20.9 115.5a1.3 1.3 0 0 1-.7-.4l-4.6-5.3a.9.9 0 0 1 .1-1.3.9.9 0 0 1 1.2.1l4.7 5.4a.8.8 0 0 1-.1 1.2.9.9 0 0 1-.6.3zm-4.6 24.1l-.6-.2a.9.9 0 0 1-.1-1.3l4.6-5.3a.9.9 0 0 1 1.3-.1.8.8 0 0 1 .1 1.2l-4.7 5.4a.7.7 0 0 1-.6.3z"/><path d="M16.3 139.6l-.6-.2a.9.9 0 0 1-.1-1.3l4.6-5.3a.9.9 0 0 1 1.3-.1.8.8 0 0 1 .1 1.2l-4.7 5.4a.7.7 0 0 1-.6.3zm4.6-24.1a1.3 1.3 0 0 1-.7-.4l-4.6-5.3a.9.9 0 0 1 .1-1.3.9.9 0 0 1 1.2.1l4.7 5.4a.8.8 0 0 1-.1 1.2.9.9 0 0 1-.6.3zM9.6 139.6a1.1 1.1 0 0 1-.7-.3l-4.6-5.4a.8.8 0 0 1-.2-.5v-18.8a.8.8 0 0 1 .2-.6l4.6-5.4a1.1 1.1 0 0 1 1.3-.1.9.9 0 0 1 .1 1.3l-4.4 5.1V133l4.4 5.1a.9.9 0 0 1-.1 1.3z"/><path d="M15.7 123.7a.9.9 0 0 1-.9-.9V99a1.4 1.4 0 0 1 .2-.6l41.5-45.2-.9-1.2L11 98.1v24.7a.9.9 0 0 1-.9.9.8.8 0 0 1-.8-.9v-25c0-.3 0-.5.2-.6L55 50a.9.9 0 0 1 .7-.3.9.9 0 0 1 .6.4l2 2.6a.8.8 0 0 1 0 1.1L16.6 99.3v23.5a.9.9 0 0 1-.9.9z"/><path d="M55.6 196.6l-.6-.2-45.5-47.2c-.2-.1-.2-.4-.2-.6v-25a.8.8 0 0 1 .8-.9.9.9 0 0 1 .9.9v24.6l44.6 46.2.9-1.2L15 148a1.4 1.4 0 0 1-.2-.6v-23.8a.9.9 0 0 1 1.8 0V147l41.7 45.5a.9.9 0 0 1 0 1.2l-2 2.6a.6.6 0 0 1-.6.3zm-52-67.5H.9a.9.9 0 0 1-.9-.9v-7.7a.9.9 0 0 1 .9-.9h2.7a.9.9 0 0 1 0 1.8H1.8v5.9h1.8a.9.9 0 1 1 0 1.8zm48.3-8.2a.9.9 0 0 1-.2-1.8l11.3-1.7 5.7-6 .4-.2 10.9-3.5a1 1 0 0 1 1.2.6.9.9 0 0 1-.6 1.1l-10.8 3.4-5.7 6.1-.6.2-11.5 1.8zm28.4 19.6H80L69.1 137c-.2-.1-.3-.1-.4-.3l-5.7-5.9-11.3-1.7a.9.9 0 0 1-.7-1.1.9.9 0 0 1 1-.7l11.5 1.8.6.2 5.7 6.1 10.8 3.4a.9.9 0 0 1 .6 1.1 1 1 0 0 1-.9.6z"/></svg>