<svg id="Layer_1" data-name="Layer 1" xmlns="http://www.w3.org/2000/svg" width="256" height="256" viewBox="0 0 256 256"><title>x-wing</title><path d="M119.1,29.9H119a1.1,1.1,0,0,1-.8-1.1l5-24.7a3.3,3.3,0,0,1,3.3-2.9h4.4a3.4,3.4,0,0,1,3.4,2.9l4.3,24.6a1.1,1.1,0,0,1-.8,1.1.9.9,0,0,1-1-.8L132.5,4.4A1.7,1.7,0,0,0,130.9,3h-4.4A1.6,1.6,0,0,0,125,4.4l-5,24.7A.9.9,0,0,1,119.1,29.9Z"/><path d="M134.4,135.9h-6a.9.9,0,1,1,0-1.8h5.3l3.1-11.5-4.4-31.7h-4a.9.9,0,0,1-.9-.9,1,1,0,0,1,.9-1h4.8a1.1,1.1,0,0,1,.9.8l4.5,32.7a.8.8,0,0,1-.1.4l-3.2,12.3A1,1,0,0,1,134.4,135.9Z"/><path d="M128.4,135.9h-6a1,1,0,0,1-.9-.7l-3.2-12.3a.8.8,0,0,1-.1-.4l4.5-32.7a1.1,1.1,0,0,1,.9-.8h4.8a1,1,0,0,1,.9,1,.9.9,0,0,1-.9.9h-4l-4.3,31.7,3,11.5h5.3a.9.9,0,1,1,0,1.8Z"/><path d="M111.4,149.6h-.1a1,1,0,0,1-.8-1l7.7-119.7a.9.9,0,0,1,.9-.8h9.3a.9.9,0,1,1,0,1.8H120l-7.7,118.8A.9.9,0,0,1,111.4,149.6Z"/><path d="M144.7,149.6a1.1,1.1,0,0,1-.9-.9l-7-118.8h-8.4a.9.9,0,0,1,0-1.8h9.3a.9.9,0,0,1,.9.8l7,119.7a.9.9,0,0,1-.8,1Z"/><path d="M137.7,123.5H119.1a.9.9,0,0,1,0-1.8h18.6a.9.9,0,1,1,0,1.8Z"/><path d="M144.7,225.3H111.3a.9.9,0,0,1-.9-.9V148.7a.9.9,0,0,1,.9-.9h33.4a.9.9,0,0,1,.9.9v75.7A.9.9,0,0,1,144.7,225.3Zm-32.5-1.8h31.6V149.6H112.2Z"/><path d="M165.3,199.9H144.7a.9.9,0,0,1-.9-.9V163.3a5.9,5.9,0,0,1,5.8-5.9h10.8a5.9,5.9,0,0,1,5.8,5.9V199A.9.9,0,0,1,165.3,199.9Zm-19.7-1.8h18.8V163.3a4.1,4.1,0,0,0-4-4.1H149.6a4.1,4.1,0,0,0-4,4.1Z"/><path d="M160.7,230.9a1,1,0,0,1-.9-.6.9.9,0,0,1,.5-1.2l64.2-28.3V172.9c-22.9-.3-57-.5-58.9,0a.8.8,0,0,1-1.1-.5.9.9,0,0,1,.5-1.2c1.7-.7,46.7-.2,60.4-.1a.9.9,0,0,1,.9.9v29.4a1,1,0,0,1-.5.8L161,230.8Z"/><path d="M234.1,210.9h-8.7a.9.9,0,0,1-.9-.9V162.7a.9.9,0,0,1,.9-.9h8.7a.9.9,0,0,1,.9.9V210A.9.9,0,0,1,234.1,210.9Zm-7.8-1.8h6.9V163.6h-6.9Z"/><path d="M229.8,163.6a.9.9,0,0,1-.9-.9V96a.9.9,0,0,1,1.8,0v66.7A.9.9,0,0,1,229.8,163.6Z"/><path d="M234.1,96.9h-8.7a.9.9,0,1,1,0-1.8h8.7a.9.9,0,1,1,0,1.8Z"/><path d="M229.8,96.9a.9.9,0,0,1-.9-.9V79a.9.9,0,0,1,1.8,0V96A.9.9,0,0,1,229.8,96.9Z"/><path d="M160.7,240.4H149.3a.9.9,0,0,1-.9-.9V199.7a.9.9,0,0,1,.9-.9h11.4a.9.9,0,0,1,.9.9v39.8A.9.9,0,0,1,160.7,240.4Zm-10.5-1.8h9.6v-38h-9.6Z"/><path d="M182.4,215.6H160.7a.9.9,0,0,1,0-1.8h20.8V171.7a.9.9,0,1,1,1.8,0v43A.9.9,0,0,1,182.4,215.6Z"/><path d="M128.4,172.2a8.2,8.2,0,1,1,8.2-8.2A8.2,8.2,0,0,1,128.4,172.2Zm0-14.6A6.4,6.4,0,0,0,122,164a6.4,6.4,0,0,0,12.8,0A6.4,6.4,0,0,0,128.4,157.6Z"/><path d="M133,215.6h-9.2a.9.9,0,0,1-.9-.9v-45a.9.9,0,1,1,1.8,0v44.1h7.4V169.7a.9.9,0,1,1,1.8,0v45A.9.9,0,0,1,133,215.6Z"/><path d="M128.4,166.2a2.2,2.2,0,1,1,2.2-2.2A2.2,2.2,0,0,1,128.4,166.2Zm0-2.6a.4.4,0,1,0,.4.4A.4.4,0,0,0,128.4,163.6Z"/><path d="M165.3,164.2H144.7a.9.9,0,0,1,0-1.8h20.6a.9.9,0,1,1,0,1.8Z"/><path d="M234.1,170.1h-8.7a.9.9,0,0,1,0-1.8h8.7a.9.9,0,0,1,0,1.8Z"/><path d="M160.5,254.8h-11a2.5,2.5,0,0,1-2.5-2.5V241.8a2.5,2.5,0,0,1,2.5-2.5h11a2.5,2.5,0,0,1,2.5,2.5v10.5A2.5,2.5,0,0,1,160.5,254.8Zm-11-13.7a.7.7,0,0,0-.7.7v10.5a.7.7,0,0,0,.7.7h11a.7.7,0,0,0,.7-.7V241.8a.7.7,0,0,0-.7-.7Z"/><path d="M162.1,246.1H147.9a.9.9,0,0,1,0-1.8h14.2a.9.9,0,0,1,0,1.8Z"/><path d="M201.5,200.6a.9.9,0,0,1-.4-1.7l14.5-6.3V171.9a.9.9,0,1,1,1.8,0v21.3a.8.8,0,0,1-.5.8l-15,6.5Z"/><path d="M111.3,199.9H90.7a.9.9,0,0,1-.9-.9V163.3a5.9,5.9,0,0,1,5.8-5.9h10.8a5.9,5.9,0,0,1,5.8,5.9V199A.9.9,0,0,1,111.3,199.9Zm-19.7-1.8h18.8V163.3a4.1,4.1,0,0,0-4-4.1H95.6a4.1,4.1,0,0,0-4,4.1Z"/><path d="M95.3,230.9H95L30.2,202.2a1,1,0,0,1-.5-.8V172a.9.9,0,0,1,.9-.9c13.7-.1,58.7-.6,60.4.1a.8.8,0,0,1,.5,1.1,1,1,0,0,1-1.1.6c-2.1-.5-36-.3-58.9,0v27.9l64.2,28.3a.9.9,0,0,1,.5,1.2A1,1,0,0,1,95.3,230.9Z"/><path d="M30.6,210.9H21.9a.9.9,0,0,1-.9-.9V162.7a.9.9,0,0,1,.9-.9h8.7a.9.9,0,0,1,.9.9V210A.9.9,0,0,1,30.6,210.9Zm-7.8-1.8h6.9V163.6H22.8Z"/><path d="M26.2,163.6a.9.9,0,0,1-.9-.9V96a.9.9,0,1,1,1.8,0v66.7A.9.9,0,0,1,26.2,163.6Z"/><path d="M30.6,96.9H21.9a.9.9,0,0,1,0-1.8h8.7a.9.9,0,1,1,0,1.8Z"/><path d="M26.2,96.9a.9.9,0,0,1-.9-.9V79a.9.9,0,1,1,1.8,0V96A.9.9,0,0,1,26.2,96.9Z"/><path d="M106.7,240.4H95.3a.9.9,0,0,1-.9-.9V199.7a.9.9,0,0,1,.9-.9h11.4a.9.9,0,0,1,.9.9v39.8A.9.9,0,0,1,106.7,240.4Zm-10.5-1.8h9.6v-38H96.2Z"/><path d="M95.3,215.6H73.6a.9.9,0,0,1-.9-.9v-43a.9.9,0,0,1,1.8,0v42.1H95.3a.9.9,0,0,1,0,1.8Z"/><path d="M111.3,164.2H90.7a.9.9,0,0,1,0-1.8h20.6a.9.9,0,1,1,0,1.8Z"/><path d="M30.6,170.1H21.9a.9.9,0,1,1,0-1.8h8.7a.9.9,0,0,1,0,1.8Z"/><path d="M49.6,172.8H40.9a.9.9,0,0,1-.9-.9v-5.7a.9.9,0,0,1,.9-.9h8.7a.9.9,0,0,1,.9.9v5.7A.9.9,0,0,1,49.6,172.8ZM41.8,171h6.9v-3.9H41.8Z"/><path d="M45.2,167.1a.9.9,0,0,1-.9-.9V99.5a.9.9,0,1,1,1.8,0v66.7A.9.9,0,0,1,45.2,167.1Z"/><path d="M49.6,100.4H40.9a.9.9,0,1,1,0-1.8h8.7a.9.9,0,0,1,0,1.8Z"/><path d="M45.2,100.4a.9.9,0,0,1-.9-.9v-17a.9.9,0,0,1,1.8,0v17A.9.9,0,0,1,45.2,100.4Z"/><path d="M215.3,172.8h-8.6a.9.9,0,0,1-.9-.9v-5.7a.9.9,0,0,1,.9-.9h8.6a.9.9,0,0,1,.9.9v5.7A.9.9,0,0,1,215.3,172.8Zm-7.7-1.8h6.8v-3.9h-6.8Z"/><path d="M211,167.1a.9.9,0,0,1-.9-.9V99.5a.9.9,0,0,1,1.8,0v66.7A.9.9,0,0,1,211,167.1Z"/><path d="M215.3,100.4h-8.6a.9.9,0,0,1,0-1.8h8.6a.9.9,0,1,1,0,1.8Z"/><path d="M211,100.4a.9.9,0,0,1-.9-.9v-17a.9.9,0,0,1,1.8,0v17A.9.9,0,0,1,211,100.4Z"/><path d="M106.5,254.8h-11a2.5,2.5,0,0,1-2.5-2.5V241.8a2.5,2.5,0,0,1,2.5-2.5h11a2.5,2.5,0,0,1,2.5,2.5v10.5A2.5,2.5,0,0,1,106.5,254.8Zm-11-13.7a.7.7,0,0,0-.7.7v10.5a.7.7,0,0,0,.7.7h11a.7.7,0,0,0,.7-.7V241.8a.7.7,0,0,0-.7-.7Z"/><path d="M108.1,246.1H93.9a.9.9,0,0,1,0-1.8h14.2a.9.9,0,0,1,0,1.8Z"/><path d="M54.5,200.6h-.4l-15-6.5a.8.8,0,0,1-.5-.8V171.9a.9.9,0,1,1,1.8,0v20.7l14.5,6.3a.9.9,0,0,1-.4,1.7Z"/></svg>