<svg id="Layer_1" data-name="Layer 1" xmlns="http://www.w3.org/2000/svg" width="256" height="256" viewBox="0 0 256 256"><title>y-wing</title><path d="M115.2,79.8h-7.9l-7.8-3.9a.9.9,0,0,1-.5-1l13.3-64a1,1,0,0,1,.9-.7h11.5a.9.9,0,0,1,0,1.8H113.9l-13,62.6,7,3.5h7.3a.9.9,0,1,1,0,1.8Z"/><path d="M141.7,79.8H131.1a.9.9,0,1,1,0-1.8h10.4l7-3.5-13-62.6H124.7a.9.9,0,0,1,0-1.8h11.5a1,1,0,0,1,.9.7l13.3,64a.9.9,0,0,1-.5,1l-7.8,3.9Z"/><path d="M119.1,11.9a.9.9,0,0,1-.9-.9V.9a.9.9,0,0,1,1.8,0V11A.9.9,0,0,1,119.1,11.9Z"/><path d="M129.7,11.9a.9.9,0,0,1-.9-.9V.9a.9.9,0,0,1,.9-.9.9.9,0,0,1,.8.9V11A.9.9,0,0,1,129.7,11.9Z"/><path d="M130.5,83.9H119.1a.9.9,0,0,1-.9-.8l-3.9-26.2v-.3l3.9-24.3a.9.9,0,0,1,.9-.7h11.4a1,1,0,0,1,.9.7l3.9,24.3v.3l-3.9,26.2A.9.9,0,0,1,130.5,83.9Zm-10.7-1.8h9.9l3.8-25.3-3.8-23.4h-9.9l-3.7,23.4Z"/><path d="M129,49.6h-8.2a1.5,1.5,0,0,1-.7-.3,1,1,0,0,1-.2-.7l1.3-11.5a.9.9,0,0,1,.9-.8H127a.8.8,0,0,1,.9.7l1.9,11.5a.6.6,0,0,1-.2.7A.8.8,0,0,1,129,49.6Zm-7.2-1.8h6.1l-1.6-9.7h-3.4Z"/><path d="M137.5,111.7H112.7a.9.9,0,0,1-.9-.9V78.9a.9.9,0,0,1,.9-.9h5.8a.9.9,0,1,1,0,1.8h-4.9v30.1h23V79.8h-5.1a.9.9,0,1,1,0-1.8h6a.9.9,0,0,1,.9.9v31.9A.9.9,0,0,1,137.5,111.7Z"/><path d="M141.5,121.3H108.6a.8.8,0,0,1-.8-.9v-9.6a.8.8,0,0,1,.8-.9h32.9a.9.9,0,0,1,.9.9v9.6A.9.9,0,0,1,141.5,121.3Zm-32-1.8h31.1v-7.8H109.5Z"/><path d="M139.3,170.4H110.9a.9.9,0,0,1-.9-.9V120.4a.9.9,0,0,1,.9-.9h28.4a.9.9,0,0,1,.9.9v49.1A.9.9,0,0,1,139.3,170.4Zm-27.5-1.8h26.6V121.3H111.8Z"/><path d="M110.9,166.5h-6a.9.9,0,0,1-.9-.9V137.7a.9.9,0,0,1,.9-.9h6a.9.9,0,0,1,.9.9v27.9A.9.9,0,0,1,110.9,166.5Zm-5.2-1.8H110V138.6h-4.3Z"/><path d="M145.3,166.5h-6a.9.9,0,0,1-.9-.9V137.7a.9.9,0,0,1,.9-.9h6a.9.9,0,0,1,.9.9v27.9A.9.9,0,0,1,145.3,166.5Zm-5.1-1.8h4.2V138.6h-4.2Z"/><path d="M115.8,178.5c-4.1,0-9.6-.5-9.6-4.8v-8.1a.9.9,0,0,1,1.8,0v8.1c0,.8,0,3,7.8,3a.9.9,0,0,1,0,1.8Z"/><path d="M134.2,178.5a.9.9,0,0,1,0-1.8c7.8,0,7.8-2.2,7.8-3v-8.1a.9.9,0,0,1,1.8,0v8.1C143.8,178,138.3,178.5,134.2,178.5Z"/><path d="M139.3,160.2H111.4a.9.9,0,0,1-.8-.8.9.9,0,0,1,.8-.9h27.9a.9.9,0,0,1,.9.9A.9.9,0,0,1,139.3,160.2Z"/><path d="M110.2,155.8h-26a.9.9,0,0,1-.9-.9V129.6a.9.9,0,0,1,.9-.9h26a.9.9,0,0,1,.9.9v25.3A.9.9,0,0,1,110.2,155.8ZM85.1,154h24.2V130.5H85.1Z"/><path d="M84,172.5H59a.8.8,0,0,1-.8-.9V110.8a.8.8,0,0,1,.8-.9H84a.9.9,0,0,1,.9.9v60.8A.9.9,0,0,1,84,172.5Zm-24.1-1.8H83.1v-59H59.9Z"/><path d="M84,111.7H59a.8.8,0,0,1-.8-.9V100.6A12.5,12.5,0,0,1,70.7,88h1.6a12.5,12.5,0,0,1,12.6,12.6v10.2A.9.9,0,0,1,84,111.7Zm-24.1-1.8H83.1v-9.3A10.8,10.8,0,0,0,72.3,89.8H70.7a10.8,10.8,0,0,0-10.8,10.8Z"/><path d="M80.1,248.2H63.7a.9.9,0,0,1-.9-.9V105.6a.9.9,0,0,1,.9-.9.9.9,0,0,1,.8.9V246.4H79.2l-.9-140.8a.9.9,0,0,1,.9-.9h0a.9.9,0,0,1,.9.9L81,247.3a.9.9,0,0,1-.3.6A.7.7,0,0,1,80.1,248.2Z"/><path d="M74.2,191H69.8a6.3,6.3,0,0,1-5.2-2.9l-6.3-10a.7.7,0,0,1-.1-.5v-6.9a.8.8,0,0,1,.8-.9.9.9,0,0,1,.9.9v6.7l6.2,9.8a4.5,4.5,0,0,0,3.7,2h4.4a4.4,4.4,0,0,0,3.8-2.3l5.1-9.5v-5.8a.9.9,0,1,1,1.8,0v6c0,.2,0,.3-.1.4l-5.2,9.8A6.2,6.2,0,0,1,74.2,191Z"/><path d="M84,256H59a.8.8,0,0,1-.8-.9v-7.8a.8.8,0,0,1,.8-.9H84a.9.9,0,0,1,.9.9v7.8A.9.9,0,0,1,84,256Zm-24.1-1.8H83.1v-6H59.9Z"/><path d="M77.5,248.2a.9.9,0,0,1-.9-.9c0-5.7-2.5-8.7-4.9-8.7s-4.5,3.3-4.5,8.7a.9.9,0,1,1-1.8,0c0-7.8,3.3-10.5,6.3-10.5s6.7,3.6,6.7,10.5A.9.9,0,0,1,77.5,248.2Z"/><path d="M165.3,155.8h-26a.9.9,0,0,1-.9-.9V129.6a.9.9,0,0,1,.9-.9h26a.9.9,0,0,1,.9.9v25.3A.9.9,0,0,1,165.3,155.8ZM140.2,154h24.2V130.5H140.2Z"/><path d="M190.4,172.5H165.5a.9.9,0,0,1-.9-.9V110.8a.9.9,0,0,1,.9-.9h24.9a.9.9,0,0,1,.9.9v60.8A.9.9,0,0,1,190.4,172.5Zm-24-1.8h23.1v-59H166.4Z"/><path d="M190.4,111.7H165.5a.9.9,0,0,1-.9-.9V100.6A12.5,12.5,0,0,1,177.2,88h1.5a12.5,12.5,0,0,1,12.6,12.6v10.2A.9.9,0,0,1,190.4,111.7Zm-24-1.8h23.1v-9.3a10.8,10.8,0,0,0-10.8-10.8h-1.5a10.8,10.8,0,0,0-10.8,10.8Z"/><path d="M185.8,248.2H169.4a.9.9,0,0,1-.7-.3,1.4,1.4,0,0,1-.2-.6l.9-141.7a.9.9,0,0,1,.9-.9h0a.9.9,0,0,1,.9.9l-.9,140.8h14.6V105.6a.9.9,0,1,1,1.8,0V247.3A.9.9,0,0,1,185.8,248.2Z"/><path d="M179.7,191h-4.4a6.1,6.1,0,0,1-5.4-3.2l-5.2-9.8c-.1-.1-.1-.2-.1-.4v-6a.9.9,0,1,1,1.8,0v5.8l5.1,9.5a4.3,4.3,0,0,0,3.8,2.3h4.4a4.3,4.3,0,0,0,3.6-2l6.2-9.8v-6.7a.9.9,0,1,1,1.8,0v6.9a.7.7,0,0,1-.1.5l-6.4,10A6,6,0,0,1,179.7,191Z"/><path d="M190.4,256H165.5a.9.9,0,0,1-.9-.9v-7.8a.9.9,0,0,1,.9-.9h24.9a.9.9,0,0,1,.9.9v7.8A.9.9,0,0,1,190.4,256Zm-24-1.8h23.1v-6H166.4Z"/><path d="M183.2,248.2a.9.9,0,0,1-.9-.9c0-5.4-1.7-8.7-4.5-8.7s-4.9,3-4.9,8.7a.9.9,0,0,1-1.8,0c0-6.9,3.4-10.5,6.7-10.5s6.3,2.7,6.3,10.5A.9.9,0,0,1,183.2,248.2Z"/><path d="M124.7,104.6a4.7,4.7,0,0,1-4.8-4.8,4.8,4.8,0,0,1,4.8-4.8,4.9,4.9,0,0,1,4.8,4.8A4.8,4.8,0,0,1,124.7,104.6Zm0-7.8a3,3,0,0,0-3,3,3,3,0,0,0,6,0A3,3,0,0,0,124.7,96.8Z"/></svg>