<svg xmlns="http://www.w3.org/2000/svg" width="256" height="256" viewBox="0 0 256 256"><path d="M99.3 114.7c-3.1 0-10.4-.3-12.2-5.3a.8.8 0 0 1 .1-.8c1.3-1.7 7.1-4.9 12.8-4.9s9.7 2.5 11.4 4.9a.8.8 0 0 1 0 1.1 13.9 13.9 0 0 1-11.1 5h-1zM89 109.3c1.9 3.7 8.7 3.7 10.9 3.6h.4a11.6 11.6 0 0 0 9.2-3.8 13.4 13.4 0 0 0-9.5-3.6 19.9 19.9 0 0 0-11 3.8z"/><path d="M100.5 114.3a5.1 5.1 0 1 1 5.1-5.1 5.1 5.1 0 0 1-5.1 5.1zm0-8.4a3.3 3.3 0 1 0 3.3 3.3 3.3 3.3 0 0 0-3.3-3.3z"/><path d="M116.3 105.5a.9.9 0 0 1-.9-.9c-.3-1-6.6-9.7-14.9-9.7s-13.3 6-15.9 8.8l-.6.7a.9.9 0 0 1-1.3-1.2l.6-.7c2.8-3 8.5-9.4 17.2-9.4s16.7 9.7 16.7 11.5a1 1 0 0 1-.9.9zm-16.5 19.3a21.5 21.5 0 0 1-13.9-5.1.9.9 0 0 1 1.3-1.3c1.8 1.9 6.7 4.6 12.6 4.6s8.5-1 10.3-2.9a.8.8 0 0 1 1.2-.1.9.9 0 0 1 .1 1.3c-2.1 2.4-5.9 3.5-11.6 3.5zm-1.2-59.6a.6.6 0 0 1-.5-.2.8.8 0 0 1-.2-1.2c1.9-2.5 10.4-8.2 15.9-8.2a27.7 27.7 0 0 1 6.1.7 33 33 0 0 0 8.1.9.9.9 0 1 1 0 1.8 41.5 41.5 0 0 1-8.5-.9 23.7 23.7 0 0 0-5.7-.8c-4.8 0-12.8 5.5-14.5 7.6a.8.8 0 0 1-.7.3zm38.1 35a.9.9 0 0 1-.9-.9c0-1.5-4.1-4.4-7.8-4.4s-7.8 2.6-7.8 4.4a.9.9 0 1 1-1.8 0c0-3.3 5.4-6.2 9.6-6.2s9.6 3.2 9.6 6.2a.9.9 0 0 1-.9.9zm-21.5 17.9a.9.9 0 0 1-.8-.9c0-2.6 3.2-9.8 13.8-9.8a.9.9 0 0 1 0 1.8c-9.1 0-12.1 5.9-12.1 8a.9.9 0 0 1-.9.9zm12.8 28a10.1 10.1 0 0 1-7.4-2.7c-3.4 1.5-11.5.5-13.5-.2a1 1 0 0 1-.6-1.1.9.9 0 0 1 1.2-.6c2.2.8 10.4 1.6 12.6.1a.9.9 0 0 1 1.1.1 8.4 8.4 0 0 0 6.6 2.6.9.9 0 0 1 0 1.8zm.2 5.5a25.6 25.6 0 0 1-11-3.1 1 1 0 0 1-.3-1.2.8.8 0 0 1 1.2-.3c2 1.1 6.6 2.9 10.1 2.9a.9.9 0 0 1 .9.8.9.9 0 0 1-.9.9zm-23.5-12.4a.9.9 0 0 1-.9-.9c0-5.1 5.5-10.1 7.9-12.1a.9.9 0 0 1 1.2.1.9.9 0 0 1-.1 1.3c-1.7 1.4-7.2 6.3-7.2 10.7a.9.9 0 0 1-.9.9z"/><path d="M127.3 174.5c-20.6 0-35.1-11.3-42-18.1s-12.3-15.7-12.8-20C33 135.8 4.9 97.6 1.8 89.3c-.1-.3-2.9-8-.3-10.3s2.7-.7 4.8.5C19.1 86.9 62.6 92 72.4 92.3c.4-12 7.6-25.3 19.9-36.7s25.3-17.5 35.7-17.5a.9.9 0 1 1 0 1.8c-19.3 0-53.8 26.9-53.8 53.3a.9.9 0 0 1-.9.9c-6.9 0-53.8-4.9-67.9-13.1-1.3-.7-2.3-1-2.7-.6s-.3 5.4.8 8.3 9.1 15.2 21.3 25.7c10.6 9.2 27.7 20.2 48.5 20.2a.9.9 0 0 1 .9.9c0 3.1 3.8 11.2 12.3 19.6 6.8 6.7 21.2 17.9 41.7 17.6a.9.9 0 0 1 .9.9 1 1 0 0 1-.9.9z"/><path d="M72.8 110.9a.9.9 0 0 1-.7-.3c-5.7-6.8-21.7-10-35.8-12.7C25.8 95.8 16.8 94.1 13 91a.8.8 0 0 1-.1-1.2.8.8 0 0 1 1.2-.2c3.4 2.8 12.7 4.6 22.6 6.5 14.3 2.8 30.6 6 36.8 13.3a.9.9 0 0 1-.1 1.3zm55.4 79.2c-23.8 0-34.4-15-40-23.1a.8.8 0 0 1 .2-1.2.8.8 0 0 1 1.2.2c5.9 8.3 15.7 22.3 38.6 22.3a.9.9 0 0 1 0 1.8z"/><path d="M128.2 190.1a.9.9 0 1 1 0-1.8c22.8 0 32.6-14 38.5-22.3a.8.8 0 0 1 1.2-.2.9.9 0 0 1 .3 1.2c-5.7 8.1-16.3 23.1-40 23.1zm0 42.9H22.3a.9.9 0 0 1-.9-.9c0-36.3 37.8-65.3 57.5-66.5a1.1 1.1 0 0 1 .9.5c-2.8-10.5-5.2-22.6-5.7-24.8a1 1 0 0 1 .7-1 .9.9 0 0 1 1.1.7c2.9 14.7 8.3 37.6 11.2 40.1l1.8 1.7c4.3 4.2 11.5 11.3 28.8 11.3a1.1 1.1 0 0 1 .7.3l10.5 12.5a.8.8 0 0 1 .2.6v24.6a.9.9 0 0 1-.9.9zm-105-1.8h104.1v-23.4l-10-11.9c-17.7-.1-25.2-7.4-29.6-11.8l-1.7-1.6c-1.8-1.6-4.1-8.4-6.1-16a.8.8 0 0 1-.8.9c-19 1.2-55.3 28.9-55.9 63.8z"/><path d="M98.1 233a.9.9 0 0 1-.9-.9c0-24.1-7.2-42.7-11.4-49.9a.9.9 0 0 1 .3-1.2.9.9 0 0 1 1.2.3c4.4 7.4 11.7 26.3 11.7 50.8a.9.9 0 0 1-.9.9zm58.6-118.3h-1a13.9 13.9 0 0 1-11.1-5 .8.8 0 0 1 0-1.1c1.7-2.4 6-4.9 11.4-4.9s11.5 3.2 12.8 4.9a.8.8 0 0 1 .1.8c-1.8 5-9.1 5.3-12.2 5.3zm-10.2-5.6a11.6 11.6 0 0 0 9.2 3.8h.4c2.2.1 9 .1 10.9-3.6a19.9 19.9 0 0 0-11-3.8 13.4 13.4 0 0 0-9.5 3.6z"/><path d="M155.5 114.3a5.1 5.1 0 1 1 5.1-5.1 5.1 5.1 0 0 1-5.1 5.1zm0-8.4a3.3 3.3 0 1 0 3.3 3.3 3.3 3.3 0 0 0-3.3-3.3z"/><path d="M139.7 105.5a.9.9 0 0 1-.9-.9c0-1.8 7.4-11.5 16.7-11.5s14.4 6.4 17.2 9.4l.6.7a.9.9 0 0 1-1.3 1.2l-.6-.7c-2.6-2.8-8-8.8-15.9-8.8s-14.6 8.7-14.9 9.8a.8.8 0 0 1-.9.8zm16.5 19.3c-5.7 0-9.5-1.1-11.6-3.5a.9.9 0 0 1 .1-1.3.8.8 0 0 1 1.2.1c1.8 1.9 5.2 2.9 10.3 2.9s10.8-2.7 12.6-4.6a.9.9 0 0 1 1.3 1.3 21.5 21.5 0 0 1-13.9 5.1zm1.2-59.6a.8.8 0 0 1-.7-.3c-1.7-2.1-9.7-7.6-14.5-7.6a23.7 23.7 0 0 0-5.7.8 41.5 41.5 0 0 1-8.5.9.9.9 0 0 1 0-1.8 33 33 0 0 0 8.1-.9 27.7 27.7 0 0 1 6.1-.7c5.5 0 14 5.7 15.9 8.2a.8.8 0 0 1-.2 1.2.6.6 0 0 1-.5.2zm-52.7 9.3a.7.7 0 0 1-.6-.2.8.8 0 0 1-.1-1.2c1.7-2.2 4-4.3 9.8-4.3a27.3 27.3 0 0 1 6.1.8 38.7 38.7 0 0 0 8.1.9.9.9 0 1 1 0 1.8 34.5 34.5 0 0 1-8.5-1 24 24 0 0 0-5.7-.7c-4.7 0-6.8 1.4-8.4 3.6a1.1 1.1 0 0 1-.7.3z"/><path d="M151.2 74.5a.8.8 0 0 1-.7-.3c-1.7-2.2-3.8-3.6-8.4-3.6a25.6 25.6 0 0 0-5.8.7 33.9 33.9 0 0 1-8.5 1 .9.9 0 1 1 0-1.8 37.9 37.9 0 0 0 8.1-.9 27.5 27.5 0 0 1 6.2-.8c5.7 0 8.1 2.1 9.8 4.3a.8.8 0 0 1-.2 1.2.6.6 0 0 1-.5.2zm-14.5 25.7a.9.9 0 0 1-.9-.9c0-1.8-4.1-4.4-7.8-4.4s-7.8 2.9-7.8 4.4a.9.9 0 1 1-1.8 0c0-3 5.6-6.2 9.6-6.2s9.6 2.9 9.6 6.2a.9.9 0 0 1-.9.9zm4.1 17.3a.9.9 0 0 1-.9-.9c0-2-2.9-7.4-12.1-7.4a.9.9 0 0 1 0-1.8c9.8 0 13.8 6 13.8 9.2a.9.9 0 0 1-.8.9zM128 146.1a.9.9 0 1 1 0-1.8 8.4 8.4 0 0 0 6.6-2.6.9.9 0 0 1 1.1-.1c2.2 1.5 10.4.7 12.6-.1a.9.9 0 0 1 1.2.6 1 1 0 0 1-.6 1.1c-2 .7-10.1 1.7-13.5.2a10.1 10.1 0 0 1-7.4 2.7zm-.2 5.5a.9.9 0 0 1-.9-.9.9.9 0 0 1 .9-.8c3.5 0 8.1-1.8 10.1-2.9a.8.8 0 0 1 1.2.3 1 1 0 0 1-.3 1.2 25.6 25.6 0 0 1-11 3.1zm23.5-12.4a.9.9 0 0 1-.9-.9c0-4.4-5.5-9.3-7.2-10.7a.9.9 0 0 1-.1-1.3.9.9 0 0 1 1.2-.1c2.4 2 7.9 7 7.9 12.1a.9.9 0 0 1-.9.9z"/><path d="M128.7 174.5h-.9a1 1 0 0 1-.9-.9.9.9 0 0 1 .9-.9c20.4.3 34.9-10.9 41.7-17.6 8.5-8.4 12.3-16.5 12.3-19.6a.9.9 0 0 1 .9-.9c20.8 0 37.9-11 48.5-20.2 12.2-10.5 19.9-21.9 21.3-25.7s1.9-7.4.8-8.3-1.4-.1-2.7.6c-14.1 8.2-61 13.1-67.9 13.1a.9.9 0 0 1-.9-.9c0-26.4-34.5-53.3-53.8-53.3a.9.9 0 0 1 0-1.8c10.4 0 24 6.7 35.7 17.5s19.5 24.7 19.9 36.7c9.8-.3 53.3-5.4 66.1-12.8 2.1-1.2 3.7-1.4 4.8-.5 2.6 2.3-.2 10-.3 10.3-3.1 8.3-31.2 46.5-70.7 47.1-.5 4.3-5 12.3-12.8 20s-21.4 18.1-42 18.1z"/><path d="M183.2 110.9l-.6-.2a.9.9 0 0 1-.1-1.3c6.2-7.3 22.5-10.5 36.8-13.3 9.9-1.9 19.2-3.7 22.6-6.5a.8.8 0 0 1 1.2.2.8.8 0 0 1-.1 1.2c-3.8 3.1-12.8 4.8-23.3 6.9-14.1 2.7-30.1 5.9-35.8 12.7a.9.9 0 0 1-.7.3zM233.7 233H127.8a.9.9 0 0 1-.9-.9v-24.6a.8.8 0 0 1 .2-.6l10.5-12.5a1.1 1.1 0 0 1 .7-.3c17.3 0 24.5-7.1 28.8-11.3l1.8-1.7c2.9-2.5 8.3-25.4 11.2-40.1a.9.9 0 0 1 1.1-.7 1 1 0 0 1 .7 1c-.5 2.2-2.9 14.3-5.7 24.8a1.1 1.1 0 0 1 .9-.5c19.7 1.2 57.5 30.2 57.5 66.5a.9.9 0 0 1-.9.9zm-105-1.8h104.1c-.6-34.9-36.9-62.6-55.9-63.8a.8.8 0 0 1-.8-.9c-2 7.6-4.3 14.4-6.1 16l-1.7 1.6c-4.4 4.4-11.9 11.7-29.6 11.8l-10 11.9z"/><path d="M157.9 233a.9.9 0 0 1-.9-.9c0-24.5 7.3-43.4 11.7-50.8a.9.9 0 0 1 1.2-.3.9.9 0 0 1 .3 1.2c-4.2 7.2-11.4 25.8-11.4 49.9a.9.9 0 0 1-.9.9zm-29.5-106.5c-2.4 0-4.9-.9-4.9-2.9h-.1c-.9-.9-4.7-.9-7-.6a.8.8 0 0 1-1-.8.9.9 0 0 1 .8-1c1-.1 6.6-.6 8.4 1a2.1 2.1 0 0 1 .7 1.5c0 .4 1.2 1.1 3.1 1.1a6.2 6.2 0 0 0 2.2-.4c.3-.2.7-.4.7-.7a2.8 2.8 0 0 1 .7-1.7c1.4-1.3 4.5-1.4 7.5-1.3h.7a.9.9 0 0 1 0 1.8h-.7c-1.3 0-5.2-.2-6.2.8a.4.4 0 0 0-.2.4 2.5 2.5 0 0 1-1.7 2.3 7 7 0 0 1-3 .5zm-6.7-35.3h-.2c-5.3-1-13.4-9.7-13-15.6S98.2 62.1 95.4 61.2a.8.8 0 0 1-.6-1.1.9.9 0 0 1 1.1-.6c3.3 1 14.7 10.2 14.4 16.2s7 12.9 11.6 13.8a.8.8 0 0 1 .7 1 1 1 0 0 1-.9.7zm12.8 0a1 1 0 0 1-.9-.7.9.9 0 0 1 .7-1c4.6-.9 11.9-8.8 11.6-13.8s11.1-15.2 14.4-16.2a1.1 1.1 0 0 1 1.2.6.9.9 0 0 1-.6 1.1c-2.9.9-13.4 9.5-13.2 14.4s-7.7 14.6-13 15.6zM128 39.9a.9.9 0 0 1-.9-.9V23.9a.9.9 0 0 1 1.8 0V39a.9.9 0 0 1-.9.9zm14.7 3.6h-.4a.9.9 0 0 1-.4-1.2l6.8-13.8a.8.8 0 0 1 1.2-.4.9.9 0 0 1 .4 1.2L143.5 43a1 1 0 0 1-.8.5zm14.7 8.8c-.2 0-.5 0-.6-.2a.8.8 0 0 1-.1-1.2l9.7-11.3a.9.9 0 1 1 1.4 1.2L158 52a.7.7 0 0 1-.6.3zm10.7 9.9a.9.9 0 0 1-.8-.5 1 1 0 0 1 .4-1.2l13-5.7a.8.8 0 0 1 1.1.4.9.9 0 0 1-.4 1.2l-12.9 5.8zm-54.8-18.7a1 1 0 0 1-.8-.5l-6.8-13.8a.9.9 0 0 1 .4-1.2.8.8 0 0 1 1.2.4l6.8 13.8a.9.9 0 0 1-.4 1.2zm-14.7 8.8a.7.7 0 0 1-.6-.3l-9.8-11.2a.9.9 0 0 1 1.4-1.2l9.7 11.3a.8.8 0 0 1-.1 1.2c-.1.2-.4.2-.6.2zm-10.7 9.9h-.4l-12.9-5.8a.9.9 0 0 1-.4-1.2.8.8 0 0 1 1.1-.4l13 5.7a1 1 0 0 1 .4 1.2.9.9 0 0 1-.8.5zm40.3 146.2c-7 0-27.5-1.4-33.7-3.8a.9.9 0 0 1-.5-1.2c.1-.4.7-.6 1.1-.5 5.8 2.3 25.8 3.7 33.1 3.7a.9.9 0 0 1 0 1.8z"/><path d="M126.8 208.4a.9.9 0 1 1 0-1.8c7.3 0 27.3-1.4 33.1-3.7a1 1 0 0 1 1.1.5.9.9 0 0 1-.5 1.2c-6.3 2.4-26.7 3.8-33.7 3.8z"/></svg>