<svg xmlns="http://www.w3.org/2000/svg" width="18in" height="18in" viewBox="0 0 1296 1296"><defs><radialGradient id="a" cx="1399.72" cy="439" r="14.14" gradientUnits="userSpaceOnUse"><stop offset=".04" stop-color="#c7462d"/><stop offset="1" stop-color="#b12c2d"/></radialGradient></defs><path fill="url(#a)" d="M-1.3 0h1296v1296H-1.3z"/><path fill="#aa1f23" d="M281.8 652.1a104.5 104.5 0 1 0-104.5-104.5 104.6 104.6 0 0 0 104.5 104.5zm0-162.2a57.7 57.7 0 1 1-57.7 57.7 57.8 57.8 0 0 1 57.7-57.7zm-97.2 165.9A104.5 104.5 0 1 0 289 760.3a104.6 104.6 0 0 0-104.4-104.5zm0 162.2a57.7 57.7 0 1 1 57.7-57.7 57.8 57.8 0 0 1-57.7 57.8zm432.5-350.8h-23.4v184.2h46.7v-44.2h51.9l10.1 44.2H748l-39-184.3h-92zm23.4 93.2v-46.6H671l10.6 46.6zm-99.2 91V513h41.9v-46.7H452.6V513h41.9v138.4h46.8zm556.7 0V467H982.7l-39.4 182.8h45.6l9.7-42.6h52.7v44.2zm-88.7-90.9l10.7-46.7h31.3v46.7z"/><path fill="#aa1f23" d="M397.1 662.7v97.2l-50.8-97.1v-.1h-46.8v184.2h46.8v-96l50.8 96h46.8V662.8l.4-206.1h271l44.6 194.7h47l38.5-148.9 38.5 149h45.6l-.1-.2h.5l44.6-194.6h123.6v-47.4l-112.7-.1h-12.7v.1h-35.3l-31.9 145.3-35.9-145.3-18.2.2-30.2-.3-36.5 147.4-32.3-147.1-395.5-2.2v49.4h40.7l-.5 206"/><path fill="#aa1f23" d="M878.3 797.2c24.4-11.5 41.2-35.7 41.2-63.6 0-39-32.7-71.3-73.1-71.3H717.5l11.2 46.7h33.1v137.9h46.7V709h38.2c15.2 0 27.3 10.7 27.3 24.6s-12.4 25.1-27.6 25.1h-19.3v45.6l69 98.6h139.2v-45.6H920z"/><path fill="#aa1f23" d="M943.9 662.8h46.7v184.07h-46.7zm163.5-6.6a104.5 104.5 0 1 0 104.5 104.5 104.6 104.6 0 0 0-104.5-104.5zm0 162.2a57.7 57.7 0 1 1 57.7-57.7 57.8 57.8 0 0 1-57.7 57.7zM718.8 709l-8.3-34.9-2.7-11.5H452.6v46.7h41.9v137.6h46.7V709.2H595v147.6H299.5v46.7h342.3V802.7h51.9l10.1 44.2h45.6l-20.9-97.1zm-76.9 47v-46.6h30.6L683 756z"/><path fill="#eed6d9" d="M269.3 637.3a104.5 104.5 0 1 0-104.5-104.5 104.6 104.6 0 0 0 104.5 104.5zm0-162.2a57.7 57.7 0 1 1-57.7 57.7 57.8 57.8 0 0 1 57.7-57.8zM172 641a104.5 104.5 0 1 0 104.5 104.5A104.6 104.6 0 0 0 172 641zm0 162.2a57.7 57.7 0 1 1 57.7-57.7 57.8 57.8 0 0 1-57.7 57.7zm432.6-350.8h-23.4v184.2h46.7v-44.2h51.9l10.1 44.2h45.6l-39-184.3h-92zm23.4 93.2V499h30.6l10.6 46.6zm-99.3 91V498.2h42v-46.7H440.1v46.7H482v138.4h46.7zm556.8 0V452.2H970.1L930.7 635h45.6l9.7-42.6h52.7v44.2zm-88.7-90.9l10.7-46.7h31.3v46.7z"/><path fill="#eed6d9" d="M384.6 647.9v97.2L333.7 648v-.1H287v184.2h46.7v-96l50.9 96h46.7V648l.5-206.2h270.9l44.7 194.8h47l38.4-148.9 38.5 149h45.6v-.2h.5L962 441.8h123.6v-47.3l-112.7-.1h-12.8l-35.2.1L893 539.8l-35.9-145.3-18.2.2-30.3-.3-36.4 147.4-32.4-147.2-395.5-2.1v49.3H385l-.4 206.1"/><path fill="#eed6d9" d="M865.8 782.4c24.4-11.5 41.2-35.7 41.2-63.6 0-39-32.7-71.3-73.1-71.3H705l11.1 46.7h33.1v137.9H796V694.2h38.2c15.2 0 27.3 10.7 27.3 24.6s-12.4 25.1-27.6 25.1h-19.3v45.6l69 98.6h139.2v-45.6H907.5z"/><path fill="#eed6d9" d="M931.3 648H978v184.07h-46.7zm163.6-6.7a104.5 104.5 0 1 0 104.5 104.5 104.6 104.6 0 0 0-104.5-104.5zm0 162.2a57.7 57.7 0 1 1 57.7-57.7 57.8 57.8 0 0 1-57.7 57.8zM706.2 694.2l-8.3-34.9-2.7-11.5H440.1v46.7H482v137.6h46.7V694.4h53.8v147.5H287v46.7h342.3V787.9h51.9l10.1 44.2h45.6l-21-97.1zm-76.9 47v-46.7h30.6l10.6 46.6z"/></svg>